<?xml version="1.0" encoding="us-ascii" standalone="no"?><svg xmlns="http://www.w3.org/2000/svg" xmlns:xlink="http://www.w3.org/1999/xlink" contentStyleType="text/css" height="701px" preserveAspectRatio="none" style="width:711px;height:701px;background:#FFFFFF;" version="1.1" viewBox="0 0 711 701" width="711px" zoomAndPan="magnify"><defs/><g><!--class Agent--><g id="elem_Agent"><rect codeLine="11" fill="#F1F1F1" height="79.2813" id="Agent" rx="2.5" ry="2.5" style="stroke:#181818;stroke-width:0.5;" width="147" x="554.5" y="459.5"/><ellipse cx="605.25" cy="475.5" fill="#ADD1B2" rx="11" ry="11" style="stroke:#181818;stroke-width:1.0;"/><path d="M608.0156,471.375 Q608.1719,471.1563 608.3594,471.0469 Q608.5469,470.9375 608.7656,470.9375 Q609.1406,470.9375 609.375,471.2031 Q609.6094,471.4531 609.6094,472.0625 L609.6094,473.5156 Q609.6094,474.125 609.375,474.3906 Q609.1406,474.6563 608.7656,474.6563 Q608.4219,474.6563 608.2188,474.4531 Q608.0156,474.2656 607.9063,473.75 Q607.8594,473.3906 607.6719,473.2031 Q607.3438,472.8281 606.7344,472.6094 Q606.125,472.3906 605.5,472.3906 Q604.7344,472.3906 604.0938,472.7188 Q603.4688,473.0469 602.9688,473.7969 Q602.4844,474.5469 602.4844,475.5781 L602.4844,476.6719 Q602.4844,477.9063 603.375,478.7344 Q604.2656,479.5469 605.8594,479.5469 Q606.7969,479.5469 607.4531,479.2969 Q607.8438,479.1406 608.2656,478.7031 Q608.5313,478.4375 608.6719,478.3594 Q608.8281,478.2813 609.0313,478.2813 Q609.3594,478.2813 609.6094,478.5469 Q609.875,478.7969 609.875,479.1406 Q609.875,479.4844 609.5313,479.8906 Q609.0313,480.4688 608.2344,480.7969 Q607.1563,481.25 605.8594,481.25 Q604.3438,481.25 603.1406,480.625 Q602.1563,480.125 601.4688,479.0625 Q600.7813,477.9844 600.7813,476.7031 L600.7813,475.5469 Q600.7813,474.2188 601.3906,473.0781 Q602.0156,471.9219 603.1094,471.3125 Q604.2031,470.6875 605.4375,470.6875 Q606.1719,470.6875 606.8125,470.8594 Q607.4688,471.0156 608.0156,471.375 Z " fill="#000000"/><text fill="#000000" font-family="sans-serif" font-size="14" lengthAdjust="spacing" textLength="37" x="625.75" y="480.3535">Agent</text><line style="stroke:#181818;stroke-width:0.5;" x1="555.5" x2="700.5" y1="491.5" y2="491.5"/><text fill="#000000" font-family="sans-serif" font-size="14" lengthAdjust="spacing" textLength="81" x="560.5" y="508.1738">-String name</text><text fill="#000000" font-family="sans-serif" font-size="14" lengthAdjust="spacing" textLength="135" x="560.5" y="523.8145">-String phoneNumber</text><line style="stroke:#181818;stroke-width:0.5;" x1="555.5" x2="700.5" y1="530.7813" y2="530.7813"/></g><!--class VisitRepository--><g id="elem_VisitRepository"><rect codeLine="32" fill="#F1F1F1" height="79.2813" id="VisitRepository" rx="2.5" ry="2.5" style="stroke:#181818;stroke-width:0.5;" width="137" x="144.5" y="459.5"/><ellipse cx="164.45" cy="475.5" fill="#ADD1B2" rx="11" ry="11" style="stroke:#181818;stroke-width:1.0;"/><path d="M167.2156,471.375 Q167.3719,471.1563 167.5594,471.0469 Q167.7469,470.9375 167.9656,470.9375 Q168.3406,470.9375 168.575,471.2031 Q168.8094,471.4531 168.8094,472.0625 L168.8094,473.5156 Q168.8094,474.125 168.575,474.3906 Q168.3406,474.6563 167.9656,474.6563 Q167.6219,474.6563 167.4188,474.4531 Q167.2156,474.2656 167.1063,473.75 Q167.0594,473.3906 166.8719,473.2031 Q166.5438,472.8281 165.9344,472.6094 Q165.325,472.3906 164.7,472.3906 Q163.9344,472.3906 163.2938,472.7188 Q162.6688,473.0469 162.1688,473.7969 Q161.6844,474.5469 161.6844,475.5781 L161.6844,476.6719 Q161.6844,477.9063 162.575,478.7344 Q163.4656,479.5469 165.0594,479.5469 Q165.9969,479.5469 166.6531,479.2969 Q167.0438,479.1406 167.4656,478.7031 Q167.7313,478.4375 167.8719,478.3594 Q168.0281,478.2813 168.2313,478.2813 Q168.5594,478.2813 168.8094,478.5469 Q169.075,478.7969 169.075,479.1406 Q169.075,479.4844 168.7313,479.8906 Q168.2313,480.4688 167.4344,480.7969 Q166.3563,481.25 165.0594,481.25 Q163.5438,481.25 162.3406,480.625 Q161.3563,480.125 160.6688,479.0625 Q159.9813,477.9844 159.9813,476.7031 L159.9813,475.5469 Q159.9813,474.2188 160.5906,473.0781 Q161.2156,471.9219 162.3094,471.3125 Q163.4031,470.6875 164.6375,470.6875 Q165.3719,470.6875 166.0125,470.8594 Q166.6688,471.0156 167.2156,471.375 Z " fill="#000000"/><text fill="#000000" font-family="sans-serif" font-size="14" lengthAdjust="spacing" textLength="94" x="179.55" y="480.3535">VisitRepository</text><line style="stroke:#181818;stroke-width:0.5;" x1="145.5" x2="280.5" y1="491.5" y2="491.5"/><text fill="#000000" font-family="sans-serif" font-size="14" lengthAdjust="spacing" textLength="125" x="150.5" y="508.1738">+List&lt;VisitRequest&gt;</text><line style="stroke:#181818;stroke-width:0.5;" x1="145.5" x2="280.5" y1="515.1406" y2="515.1406"/><text fill="#000000" font-family="sans-serif" font-size="14" lengthAdjust="spacing" textLength="116" x="150.5" y="531.8145">-add(visitRequest)</text></g><!--class VisitRequest--><g id="elem_VisitRequest"><rect codeLine="21" fill="#F1F1F1" height="141.8438" id="VisitRequest" rx="2.5" ry="2.5" style="stroke:#181818;stroke-width:0.5;" width="140" x="339" y="428"/><ellipse cx="367.05" cy="444" fill="#ADD1B2" rx="11" ry="11" style="stroke:#181818;stroke-width:1.0;"/><path d="M369.8156,439.875 Q369.9719,439.6563 370.1594,439.5469 Q370.3469,439.4375 370.5656,439.4375 Q370.9406,439.4375 371.175,439.7031 Q371.4094,439.9531 371.4094,440.5625 L371.4094,442.0156 Q371.4094,442.625 371.175,442.8906 Q370.9406,443.1563 370.5656,443.1563 Q370.2219,443.1563 370.0188,442.9531 Q369.8156,442.7656 369.7063,442.25 Q369.6594,441.8906 369.4719,441.7031 Q369.1438,441.3281 368.5344,441.1094 Q367.925,440.8906 367.3,440.8906 Q366.5344,440.8906 365.8938,441.2188 Q365.2688,441.5469 364.7688,442.2969 Q364.2844,443.0469 364.2844,444.0781 L364.2844,445.1719 Q364.2844,446.4063 365.175,447.2344 Q366.0656,448.0469 367.6594,448.0469 Q368.5969,448.0469 369.2531,447.7969 Q369.6438,447.6406 370.0656,447.2031 Q370.3313,446.9375 370.4719,446.8594 Q370.6281,446.7813 370.8313,446.7813 Q371.1594,446.7813 371.4094,447.0469 Q371.675,447.2969 371.675,447.6406 Q371.675,447.9844 371.3313,448.3906 Q370.8313,448.9688 370.0344,449.2969 Q368.9563,449.75 367.6594,449.75 Q366.1438,449.75 364.9406,449.125 Q363.9563,448.625 363.2688,447.5625 Q362.5813,446.4844 362.5813,445.2031 L362.5813,444.0469 Q362.5813,442.7188 363.1906,441.5781 Q363.8156,440.4219 364.9094,439.8125 Q366.0031,439.1875 367.2375,439.1875 Q367.9719,439.1875 368.6125,439.3594 Q369.2688,439.5156 369.8156,439.875 Z " fill="#000000"/><text fill="#000000" font-family="sans-serif" font-size="14" lengthAdjust="spacing" textLength="79" x="383.95" y="448.8535">VisitRequest</text><line style="stroke:#181818;stroke-width:0.5;" x1="340" x2="478" y1="460" y2="460"/><text fill="#000000" font-family="sans-serif" font-size="14" lengthAdjust="spacing" textLength="62" x="345" y="476.6738">-message</text><text fill="#000000" font-family="sans-serif" font-size="14" lengthAdjust="spacing" textLength="33" x="345" y="492.3145">-date</text><text fill="#000000" font-family="sans-serif" font-size="14" lengthAdjust="spacing" textLength="55" x="345" y="507.9551">-timeSlot</text><text fill="#000000" font-family="sans-serif" font-size="14" lengthAdjust="spacing" textLength="74" x="345" y="523.5957">-clientName</text><text fill="#000000" font-family="sans-serif" font-size="14" lengthAdjust="spacing" textLength="128" x="345" y="539.2363">-clientPhoneNumber</text><text fill="#000000" font-family="sans-serif" font-size="14" lengthAdjust="spacing" textLength="41" x="345" y="554.877">-agent</text><line style="stroke:#181818;stroke-width:0.5;" x1="340" x2="478" y1="561.8438" y2="561.8438"/></g><!--class ApplicationSession--><g id="elem_ApplicationSession"><rect codeLine="63" fill="#F1F1F1" height="126.2031" id="ApplicationSession" rx="2.5" ry="2.5" style="stroke:#181818;stroke-width:0.5;" width="194" x="124" y="178"/><ellipse cx="158.35" cy="194" fill="#ADD1B2" rx="11" ry="11" style="stroke:#181818;stroke-width:1.0;"/><path d="M161.1156,189.875 Q161.2719,189.6563 161.4594,189.5469 Q161.6469,189.4375 161.8656,189.4375 Q162.2406,189.4375 162.475,189.7031 Q162.7094,189.9531 162.7094,190.5625 L162.7094,192.0156 Q162.7094,192.625 162.475,192.8906 Q162.2406,193.1563 161.8656,193.1563 Q161.5219,193.1563 161.3188,192.9531 Q161.1156,192.7656 161.0063,192.25 Q160.9594,191.8906 160.7719,191.7031 Q160.4438,191.3281 159.8344,191.1094 Q159.225,190.8906 158.6,190.8906 Q157.8344,190.8906 157.1938,191.2188 Q156.5688,191.5469 156.0688,192.2969 Q155.5844,193.0469 155.5844,194.0781 L155.5844,195.1719 Q155.5844,196.4063 156.475,197.2344 Q157.3656,198.0469 158.9594,198.0469 Q159.8969,198.0469 160.5531,197.7969 Q160.9438,197.6406 161.3656,197.2031 Q161.6313,196.9375 161.7719,196.8594 Q161.9281,196.7813 162.1313,196.7813 Q162.4594,196.7813 162.7094,197.0469 Q162.975,197.2969 162.975,197.6406 Q162.975,197.9844 162.6313,198.3906 Q162.1313,198.9688 161.3344,199.2969 Q160.2563,199.75 158.9594,199.75 Q157.4438,199.75 156.2406,199.125 Q155.2563,198.625 154.5688,197.5625 Q153.8813,196.4844 153.8813,195.2031 L153.8813,194.0469 Q153.8813,192.7188 154.4906,191.5781 Q155.1156,190.4219 156.2094,189.8125 Q157.3031,189.1875 158.5375,189.1875 Q159.2719,189.1875 159.9125,189.3594 Q160.5688,189.5156 161.1156,189.875 Z " fill="#000000"/><text fill="#000000" font-family="sans-serif" font-size="14" lengthAdjust="spacing" textLength="119" x="176.65" y="198.8535">ApplicationSession</text><line style="stroke:#181818;stroke-width:0.5;" x1="125" x2="317" y1="210" y2="210"/><line style="stroke:#181818;stroke-width:0.5;" x1="125" x2="317" y1="218" y2="218"/><text fill="#000000" font-family="sans-serif" font-size="14" lengthAdjust="spacing" textLength="89" x="130" y="234.6738">Repositories()</text><text fill="#000000" font-family="sans-serif" font-size="14" lengthAdjust="spacing" textLength="182" x="130" y="250.3145">+getInstance() : Repositories</text><text fill="#000000" font-family="sans-serif" font-size="14" lengthAdjust="spacing" textLength="132" x="130" y="265.9551">+getVisitRepository()</text><text fill="#000000" font-family="sans-serif" font-size="14" lengthAdjust="spacing" textLength="91" x="130" y="281.5957">+getInstance()</text><text fill="#000000" font-family="sans-serif" font-size="14" lengthAdjust="spacing" textLength="136" x="130" y="297.2363">+getCurrentSession()</text></g><!--class BubbleSort--><g id="elem_BubbleSort"><rect codeLine="44" fill="#F1F1F1" height="63.6406" id="BubbleSort" rx="2.5" ry="2.5" style="stroke:#181818;stroke-width:0.5;" width="102" x="7" y="467"/><ellipse cx="22" cy="483" fill="#ADD1B2" rx="11" ry="11" style="stroke:#181818;stroke-width:1.0;"/><path d="M24.7656,478.875 Q24.9219,478.6563 25.1094,478.5469 Q25.2969,478.4375 25.5156,478.4375 Q25.8906,478.4375 26.125,478.7031 Q26.3594,478.9531 26.3594,479.5625 L26.3594,481.0156 Q26.3594,481.625 26.125,481.8906 Q25.8906,482.1563 25.5156,482.1563 Q25.1719,482.1563 24.9688,481.9531 Q24.7656,481.7656 24.6563,481.25 Q24.6094,480.8906 24.4219,480.7031 Q24.0938,480.3281 23.4844,480.1094 Q22.875,479.8906 22.25,479.8906 Q21.4844,479.8906 20.8438,480.2188 Q20.2188,480.5469 19.7188,481.2969 Q19.2344,482.0469 19.2344,483.0781 L19.2344,484.1719 Q19.2344,485.4063 20.125,486.2344 Q21.0156,487.0469 22.6094,487.0469 Q23.5469,487.0469 24.2031,486.7969 Q24.5938,486.6406 25.0156,486.2031 Q25.2813,485.9375 25.4219,485.8594 Q25.5781,485.7813 25.7813,485.7813 Q26.1094,485.7813 26.3594,486.0469 Q26.625,486.2969 26.625,486.6406 Q26.625,486.9844 26.2813,487.3906 Q25.7813,487.9688 24.9844,488.2969 Q23.9063,488.75 22.6094,488.75 Q21.0938,488.75 19.8906,488.125 Q18.9063,487.625 18.2188,486.5625 Q17.5313,485.4844 17.5313,484.2031 L17.5313,483.0469 Q17.5313,481.7188 18.1406,480.5781 Q18.7656,479.4219 19.8594,478.8125 Q20.9531,478.1875 22.1875,478.1875 Q22.9219,478.1875 23.5625,478.3594 Q24.2188,478.5156 24.7656,478.875 Z " fill="#000000"/><text fill="#000000" font-family="sans-serif" font-size="14" lengthAdjust="spacing" textLength="70" x="36" y="487.8535">BubbleSort</text><line style="stroke:#181818;stroke-width:0.5;" x1="8" x2="108" y1="499" y2="499"/><line style="stroke:#181818;stroke-width:0.5;" x1="8" x2="108" y1="507" y2="507"/><text fill="#000000" font-family="sans-serif" font-size="14" lengthAdjust="spacing" textLength="34" x="13" y="523.6738">sort()</text></g><!--class SelectionSort--><g id="elem_SelectionSort"><rect codeLine="48" fill="#F1F1F1" height="63.6406" id="SelectionSort" rx="2.5" ry="2.5" style="stroke:#181818;stroke-width:0.5;" width="116" x="155" y="631"/><ellipse cx="170" cy="647" fill="#ADD1B2" rx="11" ry="11" style="stroke:#181818;stroke-width:1.0;"/><path d="M172.7656,642.875 Q172.9219,642.6563 173.1094,642.5469 Q173.2969,642.4375 173.5156,642.4375 Q173.8906,642.4375 174.125,642.7031 Q174.3594,642.9531 174.3594,643.5625 L174.3594,645.0156 Q174.3594,645.625 174.125,645.8906 Q173.8906,646.1563 173.5156,646.1563 Q173.1719,646.1563 172.9688,645.9531 Q172.7656,645.7656 172.6563,645.25 Q172.6094,644.8906 172.4219,644.7031 Q172.0938,644.3281 171.4844,644.1094 Q170.875,643.8906 170.25,643.8906 Q169.4844,643.8906 168.8438,644.2188 Q168.2188,644.5469 167.7188,645.2969 Q167.2344,646.0469 167.2344,647.0781 L167.2344,648.1719 Q167.2344,649.4063 168.125,650.2344 Q169.0156,651.0469 170.6094,651.0469 Q171.5469,651.0469 172.2031,650.7969 Q172.5938,650.6406 173.0156,650.2031 Q173.2813,649.9375 173.4219,649.8594 Q173.5781,649.7813 173.7813,649.7813 Q174.1094,649.7813 174.3594,650.0469 Q174.625,650.2969 174.625,650.6406 Q174.625,650.9844 174.2813,651.3906 Q173.7813,651.9688 172.9844,652.2969 Q171.9063,652.75 170.6094,652.75 Q169.0938,652.75 167.8906,652.125 Q166.9063,651.625 166.2188,650.5625 Q165.5313,649.4844 165.5313,648.2031 L165.5313,647.0469 Q165.5313,645.7188 166.1406,644.5781 Q166.7656,643.4219 167.8594,642.8125 Q168.9531,642.1875 170.1875,642.1875 Q170.9219,642.1875 171.5625,642.3594 Q172.2188,642.5156 172.7656,642.875 Z " fill="#000000"/><text fill="#000000" font-family="sans-serif" font-size="14" lengthAdjust="spacing" textLength="84" x="184" y="651.8535">SelectionSort</text><line style="stroke:#181818;stroke-width:0.5;" x1="156" x2="270" y1="663" y2="663"/><line style="stroke:#181818;stroke-width:0.5;" x1="156" x2="270" y1="671" y2="671"/><text fill="#000000" font-family="sans-serif" font-size="14" lengthAdjust="spacing" textLength="34" x="161" y="687.6738">sort()</text></g><!--class CreateVisitController--><g id="elem_CreateVisitController"><rect codeLine="54" fill="#F1F1F1" height="79.2813" id="CreateVisitController" rx="2.5" ry="2.5" style="stroke:#181818;stroke-width:0.5;" width="351" x="353.5" y="201.5"/><ellipse cx="459.25" cy="217.5" fill="#ADD1B2" rx="11" ry="11" style="stroke:#181818;stroke-width:1.0;"/><path d="M462.0156,213.375 Q462.1719,213.1563 462.3594,213.0469 Q462.5469,212.9375 462.7656,212.9375 Q463.1406,212.9375 463.375,213.2031 Q463.6094,213.4531 463.6094,214.0625 L463.6094,215.5156 Q463.6094,216.125 463.375,216.3906 Q463.1406,216.6563 462.7656,216.6563 Q462.4219,216.6563 462.2188,216.4531 Q462.0156,216.2656 461.9063,215.75 Q461.8594,215.3906 461.6719,215.2031 Q461.3438,214.8281 460.7344,214.6094 Q460.125,214.3906 459.5,214.3906 Q458.7344,214.3906 458.0938,214.7188 Q457.4688,215.0469 456.9688,215.7969 Q456.4844,216.5469 456.4844,217.5781 L456.4844,218.6719 Q456.4844,219.9063 457.375,220.7344 Q458.2656,221.5469 459.8594,221.5469 Q460.7969,221.5469 461.4531,221.2969 Q461.8438,221.1406 462.2656,220.7031 Q462.5313,220.4375 462.6719,220.3594 Q462.8281,220.2813 463.0313,220.2813 Q463.3594,220.2813 463.6094,220.5469 Q463.875,220.7969 463.875,221.1406 Q463.875,221.4844 463.5313,221.8906 Q463.0313,222.4688 462.2344,222.7969 Q461.1563,223.25 459.8594,223.25 Q458.3438,223.25 457.1406,222.625 Q456.1563,222.125 455.4688,221.0625 Q454.7813,219.9844 454.7813,218.7031 L454.7813,217.5469 Q454.7813,216.2188 455.3906,215.0781 Q456.0156,213.9219 457.1094,213.3125 Q458.2031,212.6875 459.4375,212.6875 Q460.1719,212.6875 460.8125,212.8594 Q461.4688,213.0156 462.0156,213.375 Z " fill="#000000"/><text fill="#000000" font-family="sans-serif" font-size="14" lengthAdjust="spacing" textLength="131" x="479.75" y="222.3535">CreateVisitController</text><line style="stroke:#181818;stroke-width:0.5;" x1="354.5" x2="703.5" y1="233.5" y2="233.5"/><line style="stroke:#181818;stroke-width:0.5;" x1="354.5" x2="703.5" y1="241.5" y2="241.5"/><text fill="#000000" font-family="sans-serif" font-size="14" lengthAdjust="spacing" textLength="185" x="359.5" y="258.1738">getListVisitRequest(fileName)</text><text fill="#000000" font-family="sans-serif" font-size="14" lengthAdjust="spacing" textLength="339" x="359.5" y="273.8145">+ScheduleVisitController(visitRepository, appSession)</text></g><!--class UserSession--><g id="elem_UserSession"><rect codeLine="59" fill="#F1F1F1" height="63.6406" id="UserSession" rx="2.5" ry="2.5" style="stroke:#181818;stroke-width:0.5;" width="111" x="550.5" y="334"/><ellipse cx="565.5" cy="350" fill="#ADD1B2" rx="11" ry="11" style="stroke:#181818;stroke-width:1.0;"/><path d="M568.2656,345.875 Q568.4219,345.6563 568.6094,345.5469 Q568.7969,345.4375 569.0156,345.4375 Q569.3906,345.4375 569.625,345.7031 Q569.8594,345.9531 569.8594,346.5625 L569.8594,348.0156 Q569.8594,348.625 569.625,348.8906 Q569.3906,349.1563 569.0156,349.1563 Q568.6719,349.1563 568.4688,348.9531 Q568.2656,348.7656 568.1563,348.25 Q568.1094,347.8906 567.9219,347.7031 Q567.5938,347.3281 566.9844,347.1094 Q566.375,346.8906 565.75,346.8906 Q564.9844,346.8906 564.3438,347.2188 Q563.7188,347.5469 563.2188,348.2969 Q562.7344,349.0469 562.7344,350.0781 L562.7344,351.1719 Q562.7344,352.4063 563.625,353.2344 Q564.5156,354.0469 566.1094,354.0469 Q567.0469,354.0469 567.7031,353.7969 Q568.0938,353.6406 568.5156,353.2031 Q568.7813,352.9375 568.9219,352.8594 Q569.0781,352.7813 569.2813,352.7813 Q569.6094,352.7813 569.8594,353.0469 Q570.125,353.2969 570.125,353.6406 Q570.125,353.9844 569.7813,354.3906 Q569.2813,354.9688 568.4844,355.2969 Q567.4063,355.75 566.1094,355.75 Q564.5938,355.75 563.3906,355.125 Q562.4063,354.625 561.7188,353.5625 Q561.0313,352.4844 561.0313,351.2031 L561.0313,350.0469 Q561.0313,348.7188 561.6406,347.5781 Q562.2656,346.4219 563.3594,345.8125 Q564.4531,345.1875 565.6875,345.1875 Q566.4219,345.1875 567.0625,345.3594 Q567.7188,345.5156 568.2656,345.875 Z " fill="#000000"/><text fill="#000000" font-family="sans-serif" font-size="14" lengthAdjust="spacing" textLength="79" x="579.5" y="354.8535">UserSession</text><line style="stroke:#181818;stroke-width:0.5;" x1="551.5" x2="660.5" y1="366" y2="366"/><text fill="#000000" font-family="sans-serif" font-size="14" lengthAdjust="spacing" textLength="91" x="556.5" y="382.6738">+getUserEmail</text><line style="stroke:#181818;stroke-width:0.5;" x1="551.5" x2="660.5" y1="389.6406" y2="389.6406"/></g><!--class Repositories--><g id="elem_Repositories"><rect codeLine="68" fill="#F1F1F1" height="94.9219" id="Repositories" rx="2.5" ry="2.5" style="stroke:#181818;stroke-width:0.5;" width="194" x="432" y="7"/><ellipse cx="485.25" cy="23" fill="#ADD1B2" rx="11" ry="11" style="stroke:#181818;stroke-width:1.0;"/><path d="M488.0156,18.875 Q488.1719,18.6563 488.3594,18.5469 Q488.5469,18.4375 488.7656,18.4375 Q489.1406,18.4375 489.375,18.7031 Q489.6094,18.9531 489.6094,19.5625 L489.6094,21.0156 Q489.6094,21.625 489.375,21.8906 Q489.1406,22.1563 488.7656,22.1563 Q488.4219,22.1563 488.2188,21.9531 Q488.0156,21.7656 487.9063,21.25 Q487.8594,20.8906 487.6719,20.7031 Q487.3438,20.3281 486.7344,20.1094 Q486.125,19.8906 485.5,19.8906 Q484.7344,19.8906 484.0938,20.2188 Q483.4688,20.5469 482.9688,21.2969 Q482.4844,22.0469 482.4844,23.0781 L482.4844,24.1719 Q482.4844,25.4063 483.375,26.2344 Q484.2656,27.0469 485.8594,27.0469 Q486.7969,27.0469 487.4531,26.7969 Q487.8438,26.6406 488.2656,26.2031 Q488.5313,25.9375 488.6719,25.8594 Q488.8281,25.7813 489.0313,25.7813 Q489.3594,25.7813 489.6094,26.0469 Q489.875,26.2969 489.875,26.6406 Q489.875,26.9844 489.5313,27.3906 Q489.0313,27.9688 488.2344,28.2969 Q487.1563,28.75 485.8594,28.75 Q484.3438,28.75 483.1406,28.125 Q482.1563,27.625 481.4688,26.5625 Q480.7813,25.4844 480.7813,24.2031 L480.7813,23.0469 Q480.7813,21.7188 481.3906,20.5781 Q482.0156,19.4219 483.1094,18.8125 Q484.2031,18.1875 485.4375,18.1875 Q486.1719,18.1875 486.8125,18.3594 Q487.4688,18.5156 488.0156,18.875 Z " fill="#000000"/><text fill="#000000" font-family="sans-serif" font-size="14" lengthAdjust="spacing" textLength="79" x="505.75" y="27.8535">Repositories</text><line style="stroke:#181818;stroke-width:0.5;" x1="433" x2="625" y1="39" y2="39"/><line style="stroke:#181818;stroke-width:0.5;" x1="433" x2="625" y1="47" y2="47"/><text fill="#000000" font-family="sans-serif" font-size="14" lengthAdjust="spacing" textLength="94" x="438" y="63.6738">-Repositories()</text><text fill="#000000" font-family="sans-serif" font-size="14" lengthAdjust="spacing" textLength="182" x="438" y="79.3145">+getInstance() : Repositories</text><text fill="#000000" font-family="sans-serif" font-size="14" lengthAdjust="spacing" textLength="132" x="438" y="94.9551">+getVisitRepository()</text></g><!--link VisitRepository to VisitRequest--><g id="link_VisitRepository_VisitRequest"><path codeLine="73" d="M281.55,499 C298.36,499 316.44,499 333.55,499 " fill="none" id="VisitRepository-to-VisitRequest" style="stroke:#181818;stroke-width:1.0;"/><polygon fill="#181818" points="338.83,499,329.83,495,333.83,499,329.83,503,338.83,499" style="stroke:#181818;stroke-width:1.0;"/><text fill="#000000" font-family="sans-serif" font-size="13" lengthAdjust="spacing" textLength="21" x="299.75" y="492.7686">has</text><text fill="#000000" font-family="sans-serif" font-size="13" lengthAdjust="spacing" textLength="7" x="289.4305" y="496.0162">1</text><text fill="#000000" font-family="sans-serif" font-size="13" lengthAdjust="spacing" textLength="20" x="310.9383" y="511.4911">0..*</text></g><!--link BubbleSort to VisitRepository--><g id="link_BubbleSort_VisitRepository"><path codeLine="74" d="M109.09,499 C109.46,499 109.67,499 109.67,499 C109.67,499 125.28,499 139.34,499 " fill="none" id="BubbleSort-to-VisitRepository" style="stroke:#181818;stroke-width:1.0;"/><polygon fill="#181818" points="144.42,499,135.42,495,139.42,499,135.42,503,144.42,499" style="stroke:#181818;stroke-width:1.0;"/></g><!--reverse link VisitRepository to SelectionSort--><g id="link_VisitRepository_SelectionSort"><path codeLine="75" d="M213,543.85 C213,571.35 213,606.14 213,630.83 " fill="none" id="VisitRepository-backto-SelectionSort" style="stroke:#181818;stroke-width:1.0;"/><polygon fill="#181818" points="213,538.8,209,547.8,213,543.8,217,547.8,213,538.8" style="stroke:#181818;stroke-width:1.0;"/></g><!--link VisitRequest to Agent--><g id="link_VisitRequest_Agent"><path codeLine="76" d="M479.2,499 C501.53,499 526.38,499 549.27,499 " fill="none" id="VisitRequest-to-Agent" style="stroke:#181818;stroke-width:1.0;"/><polygon fill="#181818" points="554.43,499,545.43,495,549.43,499,545.43,503,554.43,499" style="stroke:#181818;stroke-width:1.0;"/><text fill="#000000" font-family="sans-serif" font-size="13" lengthAdjust="spacing" textLength="39" x="497.25" y="492.7686">has an</text></g><!--link CreateVisitController to VisitRequest--><g id="link_CreateVisitController_VisitRequest"><path codeLine="77" d="M500.78,280.75 C482.47,305.89 462,334 462,334 C462,334 447.2,379.8 433.24,422.99 " fill="none" id="CreateVisitController-to-VisitRequest" style="stroke:#181818;stroke-width:1.0;"/><polygon fill="#181818" points="431.63,427.97,438.1915,420.6251,433.1596,423.2097,430.575,418.1778,431.63,427.97" style="stroke:#181818;stroke-width:1.0;"/><text fill="#000000" font-family="sans-serif" font-size="13" lengthAdjust="spacing" textLength="69" x="463" y="370.7686">visit request</text></g><!--link CreateVisitController to UserSession--><g id="link_CreateVisitController_UserSession"><path codeLine="78" d="M553.15,280.58 C562.99,296.29 574.28,314.34 583.9,329.7 " fill="none" id="CreateVisitController-to-UserSession" style="stroke:#181818;stroke-width:1.0;"/><polygon fill="#181818" points="586.56,333.95,585.1968,324.1959,583.9164,329.706,578.4064,328.4257,586.56,333.95" style="stroke:#181818;stroke-width:1.0;"/></g><!--reverse link ApplicationSession to CreateVisitController--><g id="link_ApplicationSession_CreateVisitController"><path codeLine="79" d="M323.29,241 C323.54,241 323.67,241 323.67,241 C323.67,241 336.64,241 353.36,241 " fill="none" id="ApplicationSession-backto-CreateVisitController" style="stroke:#181818;stroke-width:1.0;"/><polygon fill="#181818" points="318.15,241,327.15,245,323.15,241,327.15,237,318.15,241" style="stroke:#181818;stroke-width:1.0;"/></g><!--reverse link Repositories to CreateVisitController--><g id="link_Repositories_CreateVisitController"><path codeLine="80" d="M529,107.16 C529,137 529,173.91 529,201.25 " fill="none" id="Repositories-backto-CreateVisitController" style="stroke:#181818;stroke-width:1.0;"/><polygon fill="#181818" points="529,102.06,525,111.06,529,107.06,533,111.06,529,102.06" style="stroke:#181818;stroke-width:1.0;"/><text fill="#000000" font-family="sans-serif" font-size="13" lengthAdjust="spacing" textLength="67" x="530" y="144.7686">repositories</text></g><!--link UserSession to Agent--><g id="link_UserSession_Agent"><path codeLine="81" d="M611.21,398.05 C614.02,414.78 617.54,435.71 620.63,454.09 " fill="none" id="UserSession-to-Agent" style="stroke:#181818;stroke-width:1.0;"/><polygon fill="#181818" points="621.48,459.2,623.9325,449.6614,620.6511,454.2692,616.0433,450.9877,621.48,459.2" style="stroke:#181818;stroke-width:1.0;"/></g><!--SRC=[XLJ1ZjCm4BtxAqQzj0jqjLmHgbGg3YkX5IA2kvjC4siTszWJKAdstnd7JUg4TiabySoRcJVl9Lc6PsMSzBA5rXfRDjws2EGx59UCa-MphB6WeqRmM98qjSu1eP6L_QrC3GUfGvxHoY0T7OAp-XWFOdabQJrPaLMLMeQm9V9gtn4-bjOKwW_2Wn1BZGS2ik1LtH1KAj9HrWZHry2sHaCd0Noj2wvdIaQsE0cunXfywjezUl4Yn53wGmL5tz1Plbb_FCNS9FEpmp3qRZ44bYGTAadd9r8j5jfIEfLQCPkdSNuwVyt6zs4PER_A9C6gQlKhOtBNXzz-KO4-vWmt5-9RvxGgPHIeOC9yIxt6tWh3wjodHdeqWQqjSNK77oQO4J5ZnhKl8-jFtNwliM0lqv30JmcGyWNgvDKro03QUMGn-p4xQyXRhT4dC8-Fk-QhhWvAOzJtl4DHDbXrUbu_o3RGVWVIkRCW6S7l0Vr4fhXn37vkfTB_LtKguHZQTTwpmMTehaWkyKciPwwyxiWjDsOnMBnVm7e3i7Yult-pcBpAt18Q6SJ5E0REwiN4DLXtLo2Jdfpllq5kphr16d7LKlveBfq6DhrD_8FfpxVgDhbFjq0wqlZ7fblek5GkBbFnkTRPm76_lm00]--></g></svg>