<?xml version="1.0" encoding="us-ascii" standalone="no"?><svg xmlns="http://www.w3.org/2000/svg" xmlns:xlink="http://www.w3.org/1999/xlink" contentStyleType="text/css" height="1220px" preserveAspectRatio="none" style="width:2663px;height:1220px;background:#FFFFFF;" version="1.1" viewBox="0 0 2663 1220" width="2663px" zoomAndPan="magnify"><defs/><g><rect fill="#FFFFFF" height="1031.3906" style="stroke:#181818;stroke-width:1.0;" width="10" x="76" y="90.6406"/><rect fill="#FFFFFF" height="382.9219" style="stroke:#181818;stroke-width:1.0;" width="10" x="427" y="111.1641"/><rect fill="#FFFFFF" height="70.0469" style="stroke:#181818;stroke-width:1.0;" width="10" x="427" y="522.6094"/><rect fill="#FFFFFF" height="70.0469" style="stroke:#181818;stroke-width:1.0;" width="10" x="427" y="621.1797"/><rect fill="#FFFFFF" height="411.2813" style="stroke:#181818;stroke-width:1.0;" width="10" x="427" y="719.75"/><rect fill="#FFFFFF" height="315.875" style="stroke:#181818;stroke-width:1.0;" width="10" x="714" y="149.6875"/><rect fill="#FFFFFF" height="382.7578" style="stroke:#181818;stroke-width:1.0;" width="10" x="714" y="748.2734"/><rect fill="#FFFFFF" height="28.5234" style="stroke:#181818;stroke-width:1.0;" width="10" x="859" y="180.3281"/><rect fill="#FFFFFF" height="28.5234" style="stroke:#181818;stroke-width:1.0;" width="10" x="964" y="351.4688"/><rect fill="#FFFFFF" height="28.5234" style="stroke:#181818;stroke-width:1.0;" width="10" x="1377" y="237.375"/><rect fill="#FFFFFF" height="28.5234" style="stroke:#181818;stroke-width:1.0;" width="10" x="1524" y="294.4219"/><rect fill="#FFFFFF" height="28.5234" style="stroke:#181818;stroke-width:1.0;" width="10" x="1657" y="776.7969"/><rect fill="#FFFFFF" height="28.5234" style="stroke:#181818;stroke-width:1.0;" width="10" x="2118.5" y="408.5156"/><rect fill="#FFFFFF" height="297.1875" style="stroke:#181818;stroke-width:1.0;" width="10" x="2118.5" y="833.8438"/><rect fill="#FFFFFF" height="30" style="stroke:#181818;stroke-width:1.0;" width="10" x="2452.5" y="937.9375"/><rect fill="none" height="134.0938" style="stroke:#000000;stroke-width:1.5;" width="498.5" x="2046.5" y="848.8438"/><rect fill="none" height="75.0469" style="stroke:#000000;stroke-width:1.5;" width="478.5" x="2056.5" y="900.8906"/><line style="stroke:#181818;stroke-width:0.5;stroke-dasharray:5.0,5.0;" x1="81" x2="81" y1="80.6406" y2="1140.0313"/><line style="stroke:#181818;stroke-width:0.5;stroke-dasharray:5.0,5.0;" x1="431.5" x2="431.5" y1="80.6406" y2="1140.0313"/><line style="stroke:#181818;stroke-width:0.5;stroke-dasharray:5.0,5.0;" x1="718.5" x2="718.5" y1="149.4844" y2="1140.0313"/><line style="stroke:#181818;stroke-width:0.5;stroke-dasharray:5.0,5.0;" x1="863.5" x2="863.5" y1="80.6406" y2="1140.0313"/><line style="stroke:#181818;stroke-width:0.5;stroke-dasharray:5.0,5.0;" x1="968.5" x2="968.5" y1="80.6406" y2="1140.0313"/><line style="stroke:#181818;stroke-width:0.5;stroke-dasharray:5.0,5.0;" x1="1112.5" x2="1112.5" y1="80.6406" y2="1140.0313"/><line style="stroke:#181818;stroke-width:0.5;stroke-dasharray:5.0,5.0;" x1="1255.5" x2="1255.5" y1="80.6406" y2="1140.0313"/><line style="stroke:#181818;stroke-width:0.5;stroke-dasharray:5.0,5.0;" x1="1381.5" x2="1381.5" y1="80.6406" y2="1140.0313"/><line style="stroke:#181818;stroke-width:0.5;stroke-dasharray:5.0,5.0;" x1="1528.5" x2="1528.5" y1="80.6406" y2="1140.0313"/><line style="stroke:#181818;stroke-width:0.5;stroke-dasharray:5.0,5.0;" x1="1661.5" x2="1661.5" y1="80.6406" y2="1140.0313"/><line style="stroke:#181818;stroke-width:0.5;stroke-dasharray:5.0,5.0;" x1="1807.5" x2="1807.5" y1="80.6406" y2="1140.0313"/><line style="stroke:#181818;stroke-width:0.5;stroke-dasharray:5.0,5.0;" x1="1948.5" x2="1948.5" y1="80.6406" y2="1140.0313"/><line style="stroke:#181818;stroke-width:0.5;stroke-dasharray:5.0,5.0;" x1="2031.5" x2="2031.5" y1="80.6406" y2="1140.0313"/><line style="stroke:#181818;stroke-width:0.5;stroke-dasharray:5.0,5.0;" x1="2123.5" x2="2123.5" y1="80.6406" y2="1140.0313"/><line style="stroke:#181818;stroke-width:0.5;stroke-dasharray:5.0,5.0;" x1="2457" x2="2457" y1="80.6406" y2="1140.0313"/><line style="stroke:#181818;stroke-width:0.5;stroke-dasharray:5.0,5.0;" x1="2596" x2="2596" y1="80.6406" y2="1140.0313"/><text fill="#000000" font-family="sans-serif" font-size="14" lengthAdjust="spacing" textLength="146" x="5" y="77.6738">Organization Employee</text><ellipse cx="81" cy="13.5" fill="#E3E3E3" rx="8" ry="8" style="stroke:#181818;stroke-width:0.5;"/><path d="M81,21.5 L81,48.5 M68,29.5 L94,29.5 M81,48.5 L68,63.5 M81,48.5 L94,63.5 " fill="none" style="stroke:#181818;stroke-width:0.5;"/><text fill="#000000" font-family="sans-serif" font-size="14" lengthAdjust="spacing" textLength="146" x="5" y="1151.7051">Organization Employee</text><ellipse cx="81" cy="1163.1719" fill="#E3E3E3" rx="8" ry="8" style="stroke:#181818;stroke-width:0.5;"/><path d="M81,1171.1719 L81,1198.1719 M68,1179.1719 L94,1179.1719 M81,1198.1719 L68,1213.1719 M81,1198.1719 L94,1213.1719 " fill="none" style="stroke:#181818;stroke-width:0.5;"/><rect fill="#E3E3E3" height="29.6406" rx="2.5" ry="2.5" style="stroke:#181818;stroke-width:0.5;" width="127" x="368.5" y="50"/><text fill="#000000" font-family="sans-serif" font-size="14" lengthAdjust="spacing" textLength="113" x="375.5" y="69.6738">ListVisitRequestUI</text><rect fill="#E3E3E3" height="29.6406" rx="2.5" ry="2.5" style="stroke:#181818;stroke-width:0.5;" width="127" x="368.5" y="1139.0313"/><text fill="#000000" font-family="sans-serif" font-size="14" lengthAdjust="spacing" textLength="113" x="375.5" y="1158.7051">ListVisitRequestUI</text><rect fill="#E3E3E3" height="29.6406" rx="2.5" ry="2.5" style="stroke:#181818;stroke-width:0.5;" width="177" x="630.5" y="1139.0313"/><text fill="#000000" font-family="sans-serif" font-size="14" lengthAdjust="spacing" textLength="163" x="637.5" y="1158.7051">ListVisitRequestController</text><rect fill="#E3E3E3" height="29.6406" rx="2.5" ry="2.5" style="stroke:#181818;stroke-width:0.5;" width="93" x="817.5" y="50"/><text fill="#000000" font-family="sans-serif" font-size="14" lengthAdjust="spacing" textLength="79" x="824.5" y="69.6738">Repositories</text><rect fill="#E3E3E3" height="29.6406" rx="2.5" ry="2.5" style="stroke:#181818;stroke-width:0.5;" width="93" x="817.5" y="1139.0313"/><text fill="#000000" font-family="sans-serif" font-size="14" lengthAdjust="spacing" textLength="79" x="824.5" y="1158.7051">Repositories</text><rect fill="#E3E3E3" height="45.2813" rx="2.5" ry="2.5" style="stroke:#181818;stroke-width:0.5;" width="97" x="920.5" y="34.3594"/><text fill="#000000" font-family="sans-serif" font-size="14" lengthAdjust="spacing" textLength="74" x="932" y="54.0332">repositories</text><text fill="#000000" font-family="sans-serif" font-size="14" lengthAdjust="spacing" textLength="83" x="927.5" y="69.6738">:Repositories</text><rect fill="#E3E3E3" height="45.2813" rx="2.5" ry="2.5" style="stroke:#181818;stroke-width:0.5;" width="97" x="920.5" y="1139.0313"/><text fill="#000000" font-family="sans-serif" font-size="14" lengthAdjust="spacing" textLength="74" x="932" y="1158.7051">repositories</text><text fill="#000000" font-family="sans-serif" font-size="14" lengthAdjust="spacing" textLength="83" x="927.5" y="1174.3457">:Repositories</text><rect fill="#E3E3E3" height="45.2813" rx="2.5" ry="2.5" style="stroke:#181818;stroke-width:0.5;" width="171" x="1027.5" y="34.3594"/><text fill="#000000" font-family="sans-serif" font-size="14" lengthAdjust="spacing" textLength="156" x="1035" y="54.0332">taskCategoryRepository:</text><text fill="#000000" font-family="sans-serif" font-size="14" lengthAdjust="spacing" textLength="157" x="1034.5" y="69.6738">TaskCategoryRepository</text><rect fill="#E3E3E3" height="45.2813" rx="2.5" ry="2.5" style="stroke:#181818;stroke-width:0.5;" width="171" x="1027.5" y="1139.0313"/><text fill="#000000" font-family="sans-serif" font-size="14" lengthAdjust="spacing" textLength="156" x="1035" y="1158.7051">taskCategoryRepository:</text><text fill="#000000" font-family="sans-serif" font-size="14" lengthAdjust="spacing" textLength="157" x="1034.5" y="1174.3457">TaskCategoryRepository</text><rect fill="#E3E3E3" height="29.6406" rx="2.5" ry="2.5" style="stroke:#181818;stroke-width:0.5;" width="95" x="1208.5" y="50"/><text fill="#000000" font-family="sans-serif" font-size="14" lengthAdjust="spacing" textLength="77" x="1215.5" y="69.6738">visitRequest</text><rect fill="#E3E3E3" height="29.6406" rx="2.5" ry="2.5" style="stroke:#181818;stroke-width:0.5;" width="95" x="1208.5" y="1139.0313"/><text fill="#000000" font-family="sans-serif" font-size="14" lengthAdjust="spacing" textLength="77" x="1215.5" y="1158.7051">visitRequest</text><rect fill="#E3E3E3" height="29.6406" rx="2.5" ry="2.5" style="stroke:#181818;stroke-width:0.5;" width="137" x="1313.5" y="50"/><text fill="#000000" font-family="sans-serif" font-size="14" lengthAdjust="spacing" textLength="123" x="1320.5" y="69.6738">:ApplicationSession</text><rect fill="#E3E3E3" height="29.6406" rx="2.5" ry="2.5" style="stroke:#181818;stroke-width:0.5;" width="137" x="1313.5" y="1139.0313"/><text fill="#000000" font-family="sans-serif" font-size="14" lengthAdjust="spacing" textLength="123" x="1320.5" y="1158.7051">:ApplicationSession</text><rect fill="#E3E3E3" height="45.2813" rx="2.5" ry="2.5" style="stroke:#181818;stroke-width:0.5;" width="137" x="1460.5" y="34.3594"/><text fill="#000000" font-family="sans-serif" font-size="14" lengthAdjust="spacing" textLength="74" x="1492" y="54.0332">appSession</text><text fill="#000000" font-family="sans-serif" font-size="14" lengthAdjust="spacing" textLength="123" x="1467.5" y="69.6738">:ApplicationSession</text><rect fill="#E3E3E3" height="45.2813" rx="2.5" ry="2.5" style="stroke:#181818;stroke-width:0.5;" width="137" x="1460.5" y="1139.0313"/><text fill="#000000" font-family="sans-serif" font-size="14" lengthAdjust="spacing" textLength="74" x="1492" y="1158.7051">appSession</text><text fill="#000000" font-family="sans-serif" font-size="14" lengthAdjust="spacing" textLength="123" x="1467.5" y="1174.3457">:ApplicationSession</text><rect fill="#E3E3E3" height="45.2813" rx="2.5" ry="2.5" style="stroke:#181818;stroke-width:0.5;" width="109" x="1607.5" y="34.3594"/><text fill="#000000" font-family="sans-serif" font-size="14" lengthAdjust="spacing" textLength="95" x="1614.5" y="54.0332">currentSession</text><text fill="#000000" font-family="sans-serif" font-size="14" lengthAdjust="spacing" textLength="83" x="1620.5" y="69.6738">:UserSession</text><rect fill="#E3E3E3" height="45.2813" rx="2.5" ry="2.5" style="stroke:#181818;stroke-width:0.5;" width="109" x="1607.5" y="1139.0313"/><text fill="#000000" font-family="sans-serif" font-size="14" lengthAdjust="spacing" textLength="95" x="1614.5" y="1158.7051">currentSession</text><text fill="#000000" font-family="sans-serif" font-size="14" lengthAdjust="spacing" textLength="83" x="1620.5" y="1174.3457">:UserSession</text><rect fill="#E3E3E3" height="45.2813" rx="2.5" ry="2.5" style="stroke:#181818;stroke-width:0.5;" width="163" x="1726.5" y="34.3594"/><text fill="#000000" font-family="sans-serif" font-size="14" lengthAdjust="spacing" textLength="149" x="1733.5" y="54.0332">organizationRepository:</text><text fill="#000000" font-family="sans-serif" font-size="14" lengthAdjust="spacing" textLength="148" x="1734" y="69.6738">OrganizationRepository</text><rect fill="#E3E3E3" height="45.2813" rx="2.5" ry="2.5" style="stroke:#181818;stroke-width:0.5;" width="163" x="1726.5" y="1139.0313"/><text fill="#000000" font-family="sans-serif" font-size="14" lengthAdjust="spacing" textLength="149" x="1733.5" y="1158.7051">organizationRepository:</text><text fill="#000000" font-family="sans-serif" font-size="14" lengthAdjust="spacing" textLength="148" x="1734" y="1174.3457">OrganizationRepository</text><rect fill="#E3E3E3" height="45.2813" rx="2.5" ry="2.5" style="stroke:#181818;stroke-width:0.5;" width="98" x="1899.5" y="34.3594"/><text fill="#000000" font-family="sans-serif" font-size="14" lengthAdjust="spacing" textLength="77" x="1910" y="54.0332">organization</text><text fill="#000000" font-family="sans-serif" font-size="14" lengthAdjust="spacing" textLength="84" x="1906.5" y="69.6738">:Organization</text><rect fill="#E3E3E3" height="45.2813" rx="2.5" ry="2.5" style="stroke:#181818;stroke-width:0.5;" width="98" x="1899.5" y="1139.0313"/><text fill="#000000" font-family="sans-serif" font-size="14" lengthAdjust="spacing" textLength="77" x="1910" y="1158.7051">organization</text><text fill="#000000" font-family="sans-serif" font-size="14" lengthAdjust="spacing" textLength="84" x="1906.5" y="1174.3457">:Organization</text><rect fill="#E3E3E3" height="45.2813" rx="2.5" ry="2.5" style="stroke:#181818;stroke-width:0.5;" width="49" x="2007.5" y="34.3594"/><text fill="#000000" font-family="sans-serif" font-size="14" lengthAdjust="spacing" textLength="26" x="2019" y="54.0332">task</text><text fill="#000000" font-family="sans-serif" font-size="14" lengthAdjust="spacing" textLength="35" x="2014.5" y="69.6738">:Task</text><rect fill="#E3E3E3" height="45.2813" rx="2.5" ry="2.5" style="stroke:#181818;stroke-width:0.5;" width="49" x="2007.5" y="1139.0313"/><text fill="#000000" font-family="sans-serif" font-size="14" lengthAdjust="spacing" textLength="26" x="2019" y="1158.7051">task</text><text fill="#000000" font-family="sans-serif" font-size="14" lengthAdjust="spacing" textLength="35" x="2014.5" y="1174.3457">:Task</text><rect fill="#E3E3E3" height="45.2813" rx="2.5" ry="2.5" style="stroke:#181818;stroke-width:0.5;" width="114" x="2066.5" y="34.3594"/><text fill="#000000" font-family="sans-serif" font-size="14" lengthAdjust="spacing" textLength="96" x="2073.5" y="54.0332">visitRepository:</text><text fill="#000000" font-family="sans-serif" font-size="14" lengthAdjust="spacing" textLength="94" x="2076.5" y="69.6738">VisitRepository</text><rect fill="#E3E3E3" height="45.2813" rx="2.5" ry="2.5" style="stroke:#181818;stroke-width:0.5;" width="114" x="2066.5" y="1139.0313"/><text fill="#000000" font-family="sans-serif" font-size="14" lengthAdjust="spacing" textLength="96" x="2073.5" y="1158.7051">visitRepository:</text><text fill="#000000" font-family="sans-serif" font-size="14" lengthAdjust="spacing" textLength="94" x="2076.5" y="1174.3457">VisitRepository</text><rect fill="#E3E3E3" height="45.2813" rx="2.5" ry="2.5" style="stroke:#181818;stroke-width:0.5;" width="135" x="2390" y="34.3594"/><text fill="#000000" font-family="sans-serif" font-size="14" lengthAdjust="spacing" textLength="99" x="2408" y="54.0332">visitRequestList</text><text fill="#000000" font-family="sans-serif" font-size="14" lengthAdjust="spacing" textLength="117" x="2401" y="69.6738">List&lt;VisitRequest&gt;</text><rect fill="#E3E3E3" height="45.2813" rx="2.5" ry="2.5" style="stroke:#181818;stroke-width:0.5;" width="135" x="2390" y="1139.0313"/><text fill="#000000" font-family="sans-serif" font-size="14" lengthAdjust="spacing" textLength="99" x="2408" y="1158.7051">visitRequestList</text><text fill="#000000" font-family="sans-serif" font-size="14" lengthAdjust="spacing" textLength="117" x="2401" y="1174.3457">List&lt;VisitRequest&gt;</text><rect fill="#E3E3E3" height="45.2813" rx="2.5" ry="2.5" style="stroke:#181818;stroke-width:0.5;" width="122" x="2535" y="34.3594"/><text fill="#000000" font-family="sans-serif" font-size="14" lengthAdjust="spacing" textLength="62" x="2563" y="54.0332">algorithm:</text><text fill="#000000" font-family="sans-serif" font-size="14" lengthAdjust="spacing" textLength="104" x="2546" y="69.6738">SortingAlgorithm</text><rect fill="#E3E3E3" height="45.2813" rx="2.5" ry="2.5" style="stroke:#181818;stroke-width:0.5;" width="122" x="2535" y="1139.0313"/><text fill="#000000" font-family="sans-serif" font-size="14" lengthAdjust="spacing" textLength="62" x="2563" y="1158.7051">algorithm:</text><text fill="#000000" font-family="sans-serif" font-size="14" lengthAdjust="spacing" textLength="104" x="2546" y="1174.3457">SortingAlgorithm</text><rect fill="#FFFFFF" height="1031.3906" style="stroke:#181818;stroke-width:1.0;" width="10" x="76" y="90.6406"/><rect fill="#FFFFFF" height="382.9219" style="stroke:#181818;stroke-width:1.0;" width="10" x="427" y="111.1641"/><rect fill="#FFFFFF" height="70.0469" style="stroke:#181818;stroke-width:1.0;" width="10" x="427" y="522.6094"/><rect fill="#FFFFFF" height="70.0469" style="stroke:#181818;stroke-width:1.0;" width="10" x="427" y="621.1797"/><rect fill="#FFFFFF" height="411.2813" style="stroke:#181818;stroke-width:1.0;" width="10" x="427" y="719.75"/><rect fill="#FFFFFF" height="315.875" style="stroke:#181818;stroke-width:1.0;" width="10" x="714" y="149.6875"/><rect fill="#FFFFFF" height="382.7578" style="stroke:#181818;stroke-width:1.0;" width="10" x="714" y="748.2734"/><rect fill="#FFFFFF" height="28.5234" style="stroke:#181818;stroke-width:1.0;" width="10" x="859" y="180.3281"/><rect fill="#FFFFFF" height="28.5234" style="stroke:#181818;stroke-width:1.0;" width="10" x="964" y="351.4688"/><rect fill="#FFFFFF" height="28.5234" style="stroke:#181818;stroke-width:1.0;" width="10" x="1377" y="237.375"/><rect fill="#FFFFFF" height="28.5234" style="stroke:#181818;stroke-width:1.0;" width="10" x="1524" y="294.4219"/><rect fill="#FFFFFF" height="28.5234" style="stroke:#181818;stroke-width:1.0;" width="10" x="1657" y="776.7969"/><rect fill="#FFFFFF" height="28.5234" style="stroke:#181818;stroke-width:1.0;" width="10" x="2118.5" y="408.5156"/><rect fill="#FFFFFF" height="297.1875" style="stroke:#181818;stroke-width:1.0;" width="10" x="2118.5" y="833.8438"/><rect fill="#FFFFFF" height="30" style="stroke:#181818;stroke-width:1.0;" width="10" x="2452.5" y="937.9375"/><polygon fill="#181818" points="415,107.1641,425,111.1641,415,115.1641,419,111.1641" style="stroke:#181818;stroke-width:1.0;"/><line style="stroke:#181818;stroke-width:1.0;" x1="86" x2="421" y1="111.1641" y2="111.1641"/><text fill="#000000" font-family="sans-serif" font-size="13" font-weight="bold" lengthAdjust="spacing" textLength="7" x="93" y="106.4092">1</text><text fill="#000000" font-family="sans-serif" font-size="13" lengthAdjust="spacing" textLength="182" x="104" y="106.4092">request to list booking requests</text><polygon fill="#181818" points="618.5,135.6875,628.5,139.6875,618.5,143.6875,622.5,139.6875" style="stroke:#181818;stroke-width:1.0;"/><line style="stroke:#181818;stroke-width:1.0;" x1="437" x2="624.5" y1="139.6875" y2="139.6875"/><text fill="#000000" font-family="sans-serif" font-size="13" font-weight="bold" lengthAdjust="spacing" textLength="7" x="444" y="134.9326">2</text><text fill="#000000" font-family="sans-serif" font-size="13" lengthAdjust="spacing" textLength="36" x="455" y="134.9326">create</text><rect fill="#E3E3E3" height="29.6406" rx="2.5" ry="2.5" style="stroke:#181818;stroke-width:0.5;" width="177" x="630.5" y="119.1641"/><text fill="#000000" font-family="sans-serif" font-size="14" lengthAdjust="spacing" textLength="163" x="637.5" y="138.8379">ListVisitRequestController</text><polygon fill="#181818" points="847,176.3281,857,180.3281,847,184.3281,851,180.3281" style="stroke:#181818;stroke-width:1.0;"/><line style="stroke:#181818;stroke-width:1.0;" x1="724" x2="853" y1="180.3281" y2="180.3281"/><text fill="#000000" font-family="sans-serif" font-size="13" font-weight="bold" lengthAdjust="spacing" textLength="7" x="731" y="175.5732">3</text><text fill="#000000" font-family="sans-serif" font-size="13" lengthAdjust="spacing" textLength="75" x="742" y="175.5732">getInstance()</text><polygon fill="#181818" points="735,204.8516,725,208.8516,735,212.8516,731,208.8516" style="stroke:#181818;stroke-width:1.0;"/><line style="stroke:#181818;stroke-width:1.0;stroke-dasharray:2.0,2.0;" x1="729" x2="863" y1="208.8516" y2="208.8516"/><text fill="#000000" font-family="sans-serif" font-size="13" font-weight="bold" lengthAdjust="spacing" textLength="7" x="741" y="204.0967">4</text><text fill="#000000" font-family="sans-serif" font-size="13" lengthAdjust="spacing" textLength="67" x="752" y="204.0967">repositories</text><polygon fill="#181818" points="1365,233.375,1375,237.375,1365,241.375,1369,237.375" style="stroke:#181818;stroke-width:1.0;"/><line style="stroke:#181818;stroke-width:1.0;" x1="724" x2="1371" y1="237.375" y2="237.375"/><text fill="#000000" font-family="sans-serif" font-size="13" font-weight="bold" lengthAdjust="spacing" textLength="7" x="731" y="232.6201">5</text><text fill="#000000" font-family="sans-serif" font-size="13" lengthAdjust="spacing" textLength="75" x="742" y="232.6201">getInstance()</text><polygon fill="#181818" points="735,261.8984,725,265.8984,735,269.8984,731,265.8984" style="stroke:#181818;stroke-width:1.0;"/><line style="stroke:#181818;stroke-width:1.0;stroke-dasharray:2.0,2.0;" x1="729" x2="1381" y1="265.8984" y2="265.8984"/><text fill="#000000" font-family="sans-serif" font-size="13" font-weight="bold" lengthAdjust="spacing" textLength="7" x="741" y="261.1436">6</text><text fill="#000000" font-family="sans-serif" font-size="13" lengthAdjust="spacing" textLength="68" x="752" y="261.1436">appSession</text><polygon fill="#181818" points="1512,290.4219,1522,294.4219,1512,298.4219,1516,294.4219" style="stroke:#181818;stroke-width:1.0;"/><line style="stroke:#181818;stroke-width:1.0;" x1="724" x2="1518" y1="294.4219" y2="294.4219"/><text fill="#000000" font-family="sans-serif" font-size="13" font-weight="bold" lengthAdjust="spacing" textLength="7" x="731" y="289.667">7</text><text fill="#000000" font-family="sans-serif" font-size="13" lengthAdjust="spacing" textLength="115" x="742" y="289.667">getCurrentSession()</text><polygon fill="#181818" points="735,318.9453,725,322.9453,735,326.9453,731,322.9453" style="stroke:#181818;stroke-width:1.0;"/><line style="stroke:#181818;stroke-width:1.0;stroke-dasharray:2.0,2.0;" x1="729" x2="1528" y1="322.9453" y2="322.9453"/><text fill="#000000" font-family="sans-serif" font-size="13" font-weight="bold" lengthAdjust="spacing" textLength="7" x="741" y="318.1904">8</text><text fill="#000000" font-family="sans-serif" font-size="13" lengthAdjust="spacing" textLength="87" x="752" y="318.1904">currentSession</text><polygon fill="#181818" points="952,347.4688,962,351.4688,952,355.4688,956,351.4688" style="stroke:#181818;stroke-width:1.0;"/><line style="stroke:#181818;stroke-width:1.0;" x1="724" x2="958" y1="351.4688" y2="351.4688"/><text fill="#000000" font-family="sans-serif" font-size="13" font-weight="bold" lengthAdjust="spacing" textLength="7" x="731" y="346.7139">9</text><text fill="#000000" font-family="sans-serif" font-size="13" lengthAdjust="spacing" textLength="114" x="742" y="346.7139">getVisitRepository()</text><polygon fill="#181818" points="735,375.9922,725,379.9922,735,383.9922,731,379.9922" style="stroke:#181818;stroke-width:1.0;"/><line style="stroke:#181818;stroke-width:1.0;stroke-dasharray:2.0,2.0;" x1="729" x2="968" y1="379.9922" y2="379.9922"/><text fill="#000000" font-family="sans-serif" font-size="13" font-weight="bold" lengthAdjust="spacing" textLength="14" x="741" y="375.2373">10</text><text fill="#000000" font-family="sans-serif" font-size="13" lengthAdjust="spacing" textLength="84" x="759" y="375.2373">visitRepository</text><polygon fill="#181818" points="2106.5,404.5156,2116.5,408.5156,2106.5,412.5156,2110.5,408.5156" style="stroke:#181818;stroke-width:1.0;"/><line style="stroke:#181818;stroke-width:1.0;" x1="724" x2="2112.5" y1="408.5156" y2="408.5156"/><text fill="#000000" font-family="sans-serif" font-size="13" font-weight="bold" lengthAdjust="spacing" textLength="14" x="731" y="403.7607">11</text><text fill="#000000" font-family="sans-serif" font-size="13" lengthAdjust="spacing" textLength="73" x="749" y="403.7607">getVisitList()</text><polygon fill="#181818" points="735,433.0391,725,437.0391,735,441.0391,731,437.0391" style="stroke:#181818;stroke-width:1.0;"/><line style="stroke:#181818;stroke-width:1.0;stroke-dasharray:2.0,2.0;" x1="729" x2="2122.5" y1="437.0391" y2="437.0391"/><text fill="#000000" font-family="sans-serif" font-size="13" font-weight="bold" lengthAdjust="spacing" textLength="14" x="741" y="432.2842">12</text><text fill="#000000" font-family="sans-serif" font-size="13" lengthAdjust="spacing" textLength="43" x="759" y="432.2842">visitList</text><polygon fill="#181818" points="448,461.5625,438,465.5625,448,469.5625,444,465.5625" style="stroke:#181818;stroke-width:1.0;"/><line style="stroke:#181818;stroke-width:1.0;stroke-dasharray:2.0,2.0;" x1="442" x2="718" y1="465.5625" y2="465.5625"/><text fill="#000000" font-family="sans-serif" font-size="13" font-weight="bold" lengthAdjust="spacing" textLength="14" x="454" y="460.8076">13</text><text fill="#000000" font-family="sans-serif" font-size="13" lengthAdjust="spacing" textLength="43" x="472" y="460.8076">visitList</text><polygon fill="#181818" points="97,490.0859,87,494.0859,97,498.0859,93,494.0859" style="stroke:#181818;stroke-width:1.0;"/><line style="stroke:#181818;stroke-width:1.0;stroke-dasharray:2.0,2.0;" x1="91" x2="431" y1="494.0859" y2="494.0859"/><text fill="#000000" font-family="sans-serif" font-size="13" font-weight="bold" lengthAdjust="spacing" textLength="14" x="103" y="489.3311">14</text><text fill="#000000" font-family="sans-serif" font-size="13" lengthAdjust="spacing" textLength="114" x="121" y="489.3311">asks the begin date</text><polygon fill="#181818" points="415,518.6094,425,522.6094,415,526.6094,419,522.6094" style="stroke:#181818;stroke-width:1.0;"/><line style="stroke:#181818;stroke-width:1.0;" x1="86" x2="421" y1="522.6094" y2="522.6094"/><text fill="#000000" font-family="sans-serif" font-size="13" font-weight="bold" lengthAdjust="spacing" textLength="14" x="93" y="517.8545">15</text><text fill="#000000" font-family="sans-serif" font-size="13" lengthAdjust="spacing" textLength="132" x="111" y="517.8545">submits the begin date</text><line style="stroke:#181818;stroke-width:1.0;stroke-dasharray:2.0,2.0;" x1="437" x2="479" y1="551.1328" y2="551.1328"/><line style="stroke:#181818;stroke-width:1.0;stroke-dasharray:2.0,2.0;" x1="479" x2="479" y1="551.1328" y2="564.1328"/><line style="stroke:#181818;stroke-width:1.0;stroke-dasharray:2.0,2.0;" x1="438" x2="479" y1="564.1328" y2="564.1328"/><polygon fill="#181818" points="448,560.1328,438,564.1328,448,568.1328,444,564.1328" style="stroke:#181818;stroke-width:1.0;"/><text fill="#000000" font-family="sans-serif" font-size="13" font-weight="bold" lengthAdjust="spacing" textLength="14" x="444" y="546.3779">16</text><text fill="#000000" font-family="sans-serif" font-size="13" lengthAdjust="spacing" textLength="112" x="462" y="546.3779">save the begin date</text><polygon fill="#181818" points="97,588.6563,87,592.6563,97,596.6563,93,592.6563" style="stroke:#181818;stroke-width:1.0;"/><line style="stroke:#181818;stroke-width:1.0;stroke-dasharray:2.0,2.0;" x1="91" x2="431" y1="592.6563" y2="592.6563"/><text fill="#000000" font-family="sans-serif" font-size="13" font-weight="bold" lengthAdjust="spacing" textLength="14" x="103" y="587.9014">17</text><text fill="#000000" font-family="sans-serif" font-size="13" lengthAdjust="spacing" textLength="104" x="121" y="587.9014">asks the end date</text><polygon fill="#181818" points="415,617.1797,425,621.1797,415,625.1797,419,621.1797" style="stroke:#181818;stroke-width:1.0;"/><line style="stroke:#181818;stroke-width:1.0;" x1="86" x2="421" y1="621.1797" y2="621.1797"/><text fill="#000000" font-family="sans-serif" font-size="13" font-weight="bold" lengthAdjust="spacing" textLength="14" x="93" y="616.4248">18</text><text fill="#000000" font-family="sans-serif" font-size="13" lengthAdjust="spacing" textLength="126" x="111" y="616.4248">submits the end  date</text><line style="stroke:#181818;stroke-width:1.0;stroke-dasharray:2.0,2.0;" x1="437" x2="479" y1="649.7031" y2="649.7031"/><line style="stroke:#181818;stroke-width:1.0;stroke-dasharray:2.0,2.0;" x1="479" x2="479" y1="649.7031" y2="662.7031"/><line style="stroke:#181818;stroke-width:1.0;stroke-dasharray:2.0,2.0;" x1="438" x2="479" y1="662.7031" y2="662.7031"/><polygon fill="#181818" points="448,658.7031,438,662.7031,448,666.7031,444,662.7031" style="stroke:#181818;stroke-width:1.0;"/><text fill="#000000" font-family="sans-serif" font-size="13" font-weight="bold" lengthAdjust="spacing" textLength="14" x="444" y="644.9482">19</text><text fill="#000000" font-family="sans-serif" font-size="13" lengthAdjust="spacing" textLength="102" x="462" y="644.9482">save the end date</text><polygon fill="#181818" points="97,687.2266,87,691.2266,97,695.2266,93,691.2266" style="stroke:#181818;stroke-width:1.0;"/><line style="stroke:#181818;stroke-width:1.0;stroke-dasharray:2.0,2.0;" x1="91" x2="431" y1="691.2266" y2="691.2266"/><text fill="#000000" font-family="sans-serif" font-size="13" font-weight="bold" lengthAdjust="spacing" textLength="14" x="103" y="686.4717">20</text><text fill="#000000" font-family="sans-serif" font-size="13" lengthAdjust="spacing" textLength="299" x="121" y="686.4717">asks to confirm the file name and types of algorithm</text><polygon fill="#181818" points="415,715.75,425,719.75,415,723.75,419,719.75" style="stroke:#181818;stroke-width:1.0;"/><line style="stroke:#181818;stroke-width:1.0;" x1="86" x2="421" y1="719.75" y2="719.75"/><text fill="#000000" font-family="sans-serif" font-size="13" font-weight="bold" lengthAdjust="spacing" textLength="14" x="93" y="714.9951">21</text><text fill="#000000" font-family="sans-serif" font-size="13" lengthAdjust="spacing" textLength="261" x="111" y="714.9951">Confirms the file name and types of algorithm</text><polygon fill="#181818" points="702,744.2734,712,748.2734,702,752.2734,706,748.2734" style="stroke:#181818;stroke-width:1.0;"/><line style="stroke:#181818;stroke-width:1.0;" x1="437" x2="708" y1="748.2734" y2="748.2734"/><text fill="#000000" font-family="sans-serif" font-size="13" font-weight="bold" lengthAdjust="spacing" textLength="14" x="444" y="743.5186">22</text><text fill="#000000" font-family="sans-serif" font-size="13" lengthAdjust="spacing" textLength="240" x="462" y="743.5186">getListVisit(fileName, startDate, endDate)</text><polygon fill="#181818" points="1645,772.7969,1655,776.7969,1645,780.7969,1649,776.7969" style="stroke:#181818;stroke-width:1.0;"/><line style="stroke:#181818;stroke-width:1.0;" x1="724" x2="1651" y1="776.7969" y2="776.7969"/><text fill="#000000" font-family="sans-serif" font-size="13" font-weight="bold" lengthAdjust="spacing" textLength="14" x="731" y="772.042">23</text><text fill="#000000" font-family="sans-serif" font-size="13" lengthAdjust="spacing" textLength="86" x="749" y="772.042">getUserEmail()</text><polygon fill="#181818" points="735,801.3203,725,805.3203,735,809.3203,731,805.3203" style="stroke:#181818;stroke-width:1.0;"/><line style="stroke:#181818;stroke-width:1.0;stroke-dasharray:2.0,2.0;" x1="729" x2="1661" y1="805.3203" y2="805.3203"/><text fill="#000000" font-family="sans-serif" font-size="13" font-weight="bold" lengthAdjust="spacing" textLength="14" x="741" y="800.5654">24</text><text fill="#000000" font-family="sans-serif" font-size="13" lengthAdjust="spacing" textLength="78" x="759" y="800.5654">getUserEmail</text><polygon fill="#181818" points="2106.5,829.8438,2116.5,833.8438,2106.5,837.8438,2110.5,833.8438" style="stroke:#181818;stroke-width:1.0;"/><line style="stroke:#181818;stroke-width:1.0;" x1="724" x2="2112.5" y1="833.8438" y2="833.8438"/><text fill="#000000" font-family="sans-serif" font-size="13" font-weight="bold" lengthAdjust="spacing" textLength="14" x="731" y="829.0889">25</text><text fill="#000000" font-family="sans-serif" font-size="13" lengthAdjust="spacing" textLength="354" x="749" y="829.0889">getListVisitRequest(userEmail, fileName, startDate, endDate)</text><path d="M2046.5,848.8438 L2119.5,848.8438 L2119.5,855.3672 L2109.5,865.3672 L2046.5,865.3672 L2046.5,848.8438 " fill="#EEEEEE" style="stroke:#000000;stroke-width:1.5;"/><rect fill="none" height="134.0938" style="stroke:#000000;stroke-width:1.5;" width="498.5" x="2046.5" y="848.8438"/><text fill="#000000" font-family="sans-serif" font-size="13" font-weight="bold" lengthAdjust="spacing" textLength="28" x="2061.5" y="861.6123">loop</text><text fill="#000000" font-family="sans-serif" font-size="11" font-weight="bold" lengthAdjust="spacing" textLength="126" x="2134.5" y="860.8018">[for each visit request]</text><polygon fill="#181818" points="2445.5,881.8906,2455.5,885.8906,2445.5,889.8906,2449.5,885.8906" style="stroke:#181818;stroke-width:1.0;"/><line style="stroke:#181818;stroke-width:1.0;" x1="2128.5" x2="2451.5" y1="885.8906" y2="885.8906"/><text fill="#000000" font-family="sans-serif" font-size="13" font-weight="bold" lengthAdjust="spacing" textLength="14" x="2135.5" y="881.1357">26</text><text fill="#000000" font-family="sans-serif" font-size="13" lengthAdjust="spacing" textLength="51" x="2153.5" y="881.1357">creates()</text><path d="M2056.5,900.8906 L2117.5,900.8906 L2117.5,907.4141 L2107.5,917.4141 L2056.5,917.4141 L2056.5,900.8906 " fill="#EEEEEE" style="stroke:#000000;stroke-width:1.5;"/><rect fill="none" height="75.0469" style="stroke:#000000;stroke-width:1.5;" width="478.5" x="2056.5" y="900.8906"/><text fill="#000000" font-family="sans-serif" font-size="13" font-weight="bold" lengthAdjust="spacing" textLength="16" x="2071.5" y="913.6592">alt</text><text fill="#000000" font-family="sans-serif" font-size="11" font-weight="bold" lengthAdjust="spacing" textLength="258" x="2132.5" y="912.8486">[visitRequest.getAgentEmail() == userm&#171;Email]</text><polygon fill="#181818" points="2440.5,933.9375,2450.5,937.9375,2440.5,941.9375,2444.5,937.9375" style="stroke:#181818;stroke-width:1.0;"/><line style="stroke:#181818;stroke-width:1.0;" x1="2128.5" x2="2446.5" y1="937.9375" y2="937.9375"/><text fill="#000000" font-family="sans-serif" font-size="13" font-weight="bold" lengthAdjust="spacing" textLength="14" x="2135.5" y="933.1826">27</text><text fill="#000000" font-family="sans-serif" font-size="13" lengthAdjust="spacing" textLength="99" x="2153.5" y="933.1826">add(visitRequest)</text><line style="stroke:#181818;stroke-width:1.0;" x1="2128.5" x2="2170.5" y1="1010.4609" y2="1010.4609"/><line style="stroke:#181818;stroke-width:1.0;" x1="2170.5" x2="2170.5" y1="1010.4609" y2="1023.4609"/><line style="stroke:#181818;stroke-width:1.0;" x1="2129.5" x2="2170.5" y1="1023.4609" y2="1023.4609"/><polygon fill="#181818" points="2139.5,1019.4609,2129.5,1023.4609,2139.5,1027.4609,2135.5,1023.4609" style="stroke:#181818;stroke-width:1.0;"/><text fill="#000000" font-family="sans-serif" font-size="13" font-weight="bold" lengthAdjust="spacing" textLength="14" x="2135.5" y="1005.7061">28</text><text fill="#000000" font-family="sans-serif" font-size="13" lengthAdjust="spacing" textLength="43" x="2153.5" y="1005.7061">sortList</text><line style="stroke:#181818;stroke-width:1.0;" x1="2128.5" x2="2170.5" y1="1051.9844" y2="1051.9844"/><line style="stroke:#181818;stroke-width:1.0;" x1="2170.5" x2="2170.5" y1="1051.9844" y2="1064.9844"/><line style="stroke:#181818;stroke-width:1.0;" x1="2129.5" x2="2170.5" y1="1064.9844" y2="1064.9844"/><polygon fill="#181818" points="2139.5,1060.9844,2129.5,1064.9844,2139.5,1068.9844,2135.5,1064.9844" style="stroke:#181818;stroke-width:1.0;"/><text fill="#000000" font-family="sans-serif" font-size="13" font-weight="bold" lengthAdjust="spacing" textLength="14" x="2135.5" y="1047.2295">29</text><text fill="#000000" font-family="sans-serif" font-size="13" lengthAdjust="spacing" textLength="292" x="2153.5" y="1047.2295">filterByDate(visitRequestList, beginDate , endDate)</text><polygon fill="#181818" points="2584,1089.5078,2594,1093.5078,2584,1097.5078,2588,1093.5078" style="stroke:#181818;stroke-width:1.0;"/><line style="stroke:#181818;stroke-width:1.0;" x1="2128.5" x2="2590" y1="1093.5078" y2="1093.5078"/><text fill="#000000" font-family="sans-serif" font-size="13" font-weight="bold" lengthAdjust="spacing" textLength="14" x="2135.5" y="1088.7529">30</text><text fill="#000000" font-family="sans-serif" font-size="13" lengthAdjust="spacing" textLength="144" x="2153.5" y="1088.7529">sort(beginDate, endDate)</text><polygon fill="#181818" points="735,1118.0313,725,1122.0313,735,1126.0313,731,1122.0313" style="stroke:#181818;stroke-width:1.0;"/><line style="stroke:#181818;stroke-width:1.0;stroke-dasharray:2.0,2.0;" x1="729" x2="2117.5" y1="1122.0313" y2="1122.0313"/><text fill="#000000" font-family="sans-serif" font-size="13" font-weight="bold" lengthAdjust="spacing" textLength="14" x="741" y="1117.2764">31</text><text fill="#000000" font-family="sans-serif" font-size="13" lengthAdjust="spacing" textLength="91" x="759" y="1117.2764">visitRequestList</text><!--SRC=[bLPTRjiu47xdAGPvYLCuUu2W3U2wQH0WsmPsqgS02reQoqGaKY7fxBfNwYtsP3iaBOdKZpSLODZcVFFnumndDEP5o9fhNa6bfCfsMbK8Lk-HcTPIy-o55xYsXn91OsQvBCeOO7OyLtyBMS2MbmOPutkhvBxQe6RiV2ToXArITgF-OJopIiFPTrrmANvoAvI4cwekrG7n3BY1nPS_6R5QaOcQImjdzyBO7y88kyBNFHhxTETnJtUdOKibhLPbYTh3bu-h-zHXXRKYkD82ZOVGGehG4U9PNWqS7kuNZwc7vUPboIqMIXzQ-E7gMJwE6ZpBk2dbVOiE1jwBZah_KzJLegvBaVcWhj4O-lBOlnOF3ocIr_KHGEUQy1euPNkjKThEyScWZZtMD-jrwgAYD2Vn-3vgy2pZfcbU4XAx18xLxJ0n17In3a5Vh6w-BaQ3tAg4P_aZNUeYNq_dnrt4PmdkwsDy8Q-Zl3bZBoCbvL_ONUMsXRKYaomMpM98oFqjS_KZtkYs-3fXS7pe3rnUKqt05HLek2PMGKdRm4Qf5rUQntNJURLSL4li7AA7Y2w9pz6sX0PoRZdCD6wHxa66SyZHP5hKBknp026tIbUyT0T8B1QpdQGRLgRB-Lxpy2jJnbwmMC1vfj4fysNRLtRjbpzy86q1nbY2QS_blHEJUzog8w4i4aE1zauQQcaPpYu6s9RAfNnWTOzZkJnASh7gUiG0dcDAnyPKkM8zAQlby6MTcBnl8uP8kZ9d4pg678sELiOoAVifCGEUdfIqUKp96R34Ybox3P9wPNagRxv7ZoREqtMPwrN_gUIDSpOoGt-8XBfYFoNns516HHx9ea2-DPId54vH1erDf-Yes5H2GWLrvgGnK3CrO7S86oo4TEq1MS_VTPP-WmAptrJ2ZheE79_kMhc6ls7Vvt-4eSpVBIjMvVnEY1fLrUx59lGewdDoAtJbuLj1mvJaD6rnShI76WseBRJlWVT8NWO-ytx2aVX2TxVenhPZrCpnVIEwEL0RqlOBUStT8TsF2pRHPviYSAD087H3mat5HJdhEVbfmIzvy6KYe_NgXw7p6gkt_X0uspSyS_YDypJbKofLq-IgWVRVXN9fteP1GrEUrz5xlNqh6Jfnu2qjn1F27wHqKL0tFCO5Fdq29xJwzrSuyobkdkUpc6nC-clR7_ez8LWO7Tj_nZPoeJGqVmJa1822QL5_FhZWpVhJppnKgBD15E8U5uqpnvrcBNmAtMj_qLxKc-Bt1mr5_m40]--></g></svg>