<?xml version="1.0" encoding="us-ascii" standalone="no"?><svg xmlns="http://www.w3.org/2000/svg" xmlns:xlink="http://www.w3.org/1999/xlink" contentStyleType="text/css" height="478.1px" preserveAspectRatio="none" style="width:560px;height:478px;background:#FFFFFF;" version="1.1" viewBox="0 0 560 478" width="560.7px" zoomAndPan="magnify"><defs/><g><!--class Agent--><g id="elem_Agent"><rect codeLine="11" fill="#F1F1F1" height="55.4969" id="Agent" rx="1.75" ry="1.75" style="stroke:#181818;stroke-width:0.3499999999999999;" width="102.9" x="432.95" y="293.3"/><ellipse cx="468.475" cy="304.5" fill="#ADD1B2" rx="7.7" ry="7.7" style="stroke:#181818;stroke-width:0.6999999999999998;"/><path d="M470.4109,301.6125 Q470.5203,301.4594 470.6516,301.3828 Q470.7828,301.3062 470.9359,301.3062 Q471.1984,301.3062 471.3625,301.4922 Q471.5266,301.6672 471.5266,302.0937 L471.5266,303.1109 Q471.5266,303.5375 471.3625,303.7234 Q471.1984,303.9094 470.9359,303.9094 Q470.6953,303.9094 470.5531,303.7672 Q470.4109,303.6359 470.3344,303.275 Q470.3016,303.0234 470.1703,302.8922 Q469.9406,302.6297 469.5141,302.4766 Q469.0875,302.3234 468.65,302.3234 Q468.1141,302.3234 467.6656,302.5531 Q467.2281,302.7828 466.8781,303.3078 Q466.5391,303.8328 466.5391,304.5547 L466.5391,305.3203 Q466.5391,306.1844 467.1625,306.7641 Q467.7859,307.3328 468.9016,307.3328 Q469.5578,307.3328 470.0172,307.1578 Q470.2906,307.0484 470.5859,306.7422 Q470.7719,306.5562 470.8703,306.5016 Q470.9797,306.4469 471.1219,306.4469 Q471.3516,306.4469 471.5266,306.6328 Q471.7125,306.8078 471.7125,307.0484 Q471.7125,307.2891 471.4719,307.5734 Q471.1219,307.9781 470.5641,308.2078 Q469.8094,308.525 468.9016,308.525 Q467.8406,308.525 466.9984,308.0875 Q466.3094,307.7375 465.8281,306.9937 Q465.3469,306.2391 465.3469,305.3422 L465.3469,304.5328 Q465.3469,303.6031 465.7734,302.8047 Q466.2109,301.9953 466.9766,301.5687 Q467.7422,301.1312 468.6062,301.1312 Q469.1203,301.1312 469.5687,301.2516 Q470.0281,301.3609 470.4109,301.6125 Z " fill="#000000"/><text fill="#000000" font-family="sans-serif" font-size="9.8" lengthAdjust="spacing" textLength="25.9" x="482.825" y="307.8975">Agent</text><line style="stroke:#181818;stroke-width:0.3499999999999999;" x1="433.65" x2="535.15" y1="315.7" y2="315.7"/><text fill="#000000" font-family="sans-serif" font-size="9.8" lengthAdjust="spacing" textLength="56.7" x="437.15" y="327.3717">-String name</text><text fill="#000000" font-family="sans-serif" font-size="9.8" lengthAdjust="spacing" textLength="94.5" x="437.15" y="338.3201">-String phoneNumber</text><line style="stroke:#181818;stroke-width:0.3499999999999999;" x1="433.65" x2="535.15" y1="343.1969" y2="343.1969"/></g><!--class VisitRepository--><g id="elem_VisitRepository"><rect codeLine="31" fill="#F1F1F1" height="44.5484" id="VisitRepository" rx="1.75" ry="1.75" style="stroke:#181818;stroke-width:0.3499999999999999;" width="89.6" x="151.9" y="298.55"/><ellipse cx="163.03" cy="309.75" fill="#ADD1B2" rx="7.7" ry="7.7" style="stroke:#181818;stroke-width:0.6999999999999998;"/><path d="M164.9659,306.8625 Q165.0753,306.7094 165.2066,306.6328 Q165.3378,306.5562 165.4909,306.5562 Q165.7534,306.5562 165.9175,306.7422 Q166.0816,306.9172 166.0816,307.3437 L166.0816,308.3609 Q166.0816,308.7875 165.9175,308.9734 Q165.7534,309.1594 165.4909,309.1594 Q165.2503,309.1594 165.1081,309.0172 Q164.9659,308.8859 164.8894,308.525 Q164.8566,308.2734 164.7253,308.1422 Q164.4956,307.8797 164.0691,307.7266 Q163.6425,307.5734 163.205,307.5734 Q162.6691,307.5734 162.2206,307.8031 Q161.7831,308.0328 161.4331,308.5578 Q161.0941,309.0828 161.0941,309.8047 L161.0941,310.5703 Q161.0941,311.4344 161.7175,312.0141 Q162.3409,312.5828 163.4566,312.5828 Q164.1128,312.5828 164.5722,312.4078 Q164.8456,312.2984 165.1409,311.9922 Q165.3269,311.8062 165.4253,311.7516 Q165.5347,311.6969 165.6769,311.6969 Q165.9066,311.6969 166.0816,311.8828 Q166.2675,312.0578 166.2675,312.2984 Q166.2675,312.5391 166.0269,312.8234 Q165.6769,313.2281 165.1191,313.4578 Q164.3644,313.775 163.4566,313.775 Q162.3956,313.775 161.5534,313.3375 Q160.8644,312.9875 160.3831,312.2437 Q159.9019,311.4891 159.9019,310.5922 L159.9019,309.7828 Q159.9019,308.8531 160.3284,308.0547 Q160.7659,307.2453 161.5316,306.8187 Q162.2972,306.3812 163.1612,306.3812 Q163.6753,306.3812 164.1237,306.5016 Q164.5831,306.6109 164.9659,306.8625 Z " fill="#000000"/><text fill="#000000" font-family="sans-serif" font-size="9.8" lengthAdjust="spacing" textLength="65.8" x="172.97" y="313.1475">VisitRepository</text><line style="stroke:#181818;stroke-width:0.3499999999999999;" x1="152.6" x2="240.8" y1="320.95" y2="320.95"/><line style="stroke:#181818;stroke-width:0.3499999999999999;" x1="152.6" x2="240.8" y1="326.55" y2="326.55"/><text fill="#000000" font-family="sans-serif" font-size="9.8" lengthAdjust="spacing" textLength="81.2" x="156.1" y="338.2217">-add(visitRequest)</text></g><!--class VisitRequest--><g id="elem_VisitRequest"><rect codeLine="21" fill="#F1F1F1" height="110.2391" id="VisitRequest" rx="1.75" ry="1.75" style="stroke:#181818;stroke-width:0.3499999999999999;" width="98" x="282.1" y="266"/><ellipse cx="301.735" cy="277.2" fill="#ADD1B2" rx="7.7" ry="7.7" style="stroke:#181818;stroke-width:0.6999999999999998;"/><path d="M303.6709,274.3125 Q303.7803,274.1594 303.9116,274.0828 Q304.0428,274.0062 304.1959,274.0062 Q304.4584,274.0062 304.6225,274.1922 Q304.7866,274.3672 304.7866,274.7937 L304.7866,275.8109 Q304.7866,276.2375 304.6225,276.4234 Q304.4584,276.6094 304.1959,276.6094 Q303.9553,276.6094 303.8131,276.4672 Q303.6709,276.3359 303.5944,275.975 Q303.5616,275.7234 303.4303,275.5922 Q303.2006,275.3297 302.7741,275.1766 Q302.3475,275.0234 301.91,275.0234 Q301.3741,275.0234 300.9256,275.2531 Q300.4881,275.4828 300.1381,276.0078 Q299.7991,276.5328 299.7991,277.2547 L299.7991,278.0203 Q299.7991,278.8844 300.4225,279.4641 Q301.0459,280.0328 302.1616,280.0328 Q302.8178,280.0328 303.2772,279.8578 Q303.5506,279.7484 303.8459,279.4422 Q304.0319,279.2562 304.1303,279.2016 Q304.2397,279.1469 304.3819,279.1469 Q304.6116,279.1469 304.7866,279.3328 Q304.9725,279.5078 304.9725,279.7484 Q304.9725,279.9891 304.7319,280.2734 Q304.3819,280.6781 303.8241,280.9078 Q303.0694,281.225 302.1616,281.225 Q301.1006,281.225 300.2584,280.7875 Q299.5694,280.4375 299.0881,279.6937 Q298.6069,278.9391 298.6069,278.0422 L298.6069,277.2328 Q298.6069,276.3031 299.0334,275.5047 Q299.4709,274.6953 300.2366,274.2687 Q301.0022,273.8312 301.8662,273.8312 Q302.3803,273.8312 302.8287,273.9516 Q303.2881,274.0609 303.6709,274.3125 Z " fill="#000000"/><text fill="#000000" font-family="sans-serif" font-size="9.8" lengthAdjust="spacing" textLength="55.3" x="313.565" y="280.5975">VisitRequest</text><line style="stroke:#181818;stroke-width:0.3499999999999999;" x1="282.8" x2="379.4" y1="288.4" y2="288.4"/><text fill="#000000" font-family="sans-serif" font-size="9.8" lengthAdjust="spacing" textLength="43.4" x="286.3" y="300.0717">-message</text><text fill="#000000" font-family="sans-serif" font-size="9.8" lengthAdjust="spacing" textLength="23.1" x="286.3" y="311.0201">-date</text><text fill="#000000" font-family="sans-serif" font-size="9.8" lengthAdjust="spacing" textLength="38.5" x="286.3" y="321.9686">-timeSlot</text><text fill="#000000" font-family="sans-serif" font-size="9.8" lengthAdjust="spacing" textLength="51.8" x="286.3" y="332.917">-clientName</text><text fill="#000000" font-family="sans-serif" font-size="9.8" lengthAdjust="spacing" textLength="89.6" x="286.3" y="343.8654">-clientPhoneNumber</text><text fill="#000000" font-family="sans-serif" font-size="9.8" lengthAdjust="spacing" textLength="28.7" x="286.3" y="354.8139">-agent</text><text fill="#000000" font-family="sans-serif" font-size="9.8" lengthAdjust="spacing" textLength="40.6" x="286.3" y="365.7623">-property</text><line style="stroke:#181818;stroke-width:0.3499999999999999;" x1="282.8" x2="379.4" y1="370.6391" y2="370.6391"/></g><!--class ApplicationSession--><g id="elem_ApplicationSession"><rect codeLine="63" fill="#F1F1F1" height="88.3422" id="ApplicationSession" rx="1.75" ry="1.75" style="stroke:#181818;stroke-width:0.3499999999999999;" width="135.8" x="47.6" y="124.6"/><ellipse cx="71.645" cy="135.8" fill="#ADD1B2" rx="7.7" ry="7.7" style="stroke:#181818;stroke-width:0.6999999999999998;"/><path d="M73.5809,132.9125 Q73.6903,132.7594 73.8216,132.6828 Q73.9528,132.6062 74.1059,132.6062 Q74.3684,132.6062 74.5325,132.7922 Q74.6966,132.9672 74.6966,133.3937 L74.6966,134.4109 Q74.6966,134.8375 74.5325,135.0234 Q74.3684,135.2094 74.1059,135.2094 Q73.8653,135.2094 73.7231,135.0672 Q73.5809,134.9359 73.5044,134.575 Q73.4716,134.3234 73.3403,134.1922 Q73.1106,133.9297 72.6841,133.7766 Q72.2575,133.6234 71.82,133.6234 Q71.2841,133.6234 70.8356,133.8531 Q70.3981,134.0828 70.0481,134.6078 Q69.7091,135.1328 69.7091,135.8547 L69.7091,136.6203 Q69.7091,137.4844 70.3325,138.0641 Q70.9559,138.6328 72.0716,138.6328 Q72.7278,138.6328 73.1872,138.4578 Q73.4606,138.3484 73.7559,138.0422 Q73.9419,137.8562 74.0403,137.8016 Q74.1497,137.7469 74.2919,137.7469 Q74.5216,137.7469 74.6966,137.9328 Q74.8825,138.1078 74.8825,138.3484 Q74.8825,138.5891 74.6419,138.8734 Q74.2919,139.2781 73.7341,139.5078 Q72.9794,139.825 72.0716,139.825 Q71.0106,139.825 70.1684,139.3875 Q69.4794,139.0375 68.9981,138.2937 Q68.5169,137.5391 68.5169,136.6422 L68.5169,135.8328 Q68.5169,134.9031 68.9434,134.1047 Q69.3809,133.2953 70.1466,132.8687 Q70.9122,132.4312 71.7762,132.4312 Q72.2903,132.4312 72.7387,132.5516 Q73.1981,132.6609 73.5809,132.9125 Z " fill="#000000"/><text fill="#000000" font-family="sans-serif" font-size="9.8" lengthAdjust="spacing" textLength="83.3" x="84.455" y="139.1975">ApplicationSession</text><line style="stroke:#181818;stroke-width:0.3499999999999999;" x1="48.3" x2="182.7" y1="147" y2="147"/><line style="stroke:#181818;stroke-width:0.3499999999999999;" x1="48.3" x2="182.7" y1="152.6" y2="152.6"/><text fill="#000000" font-family="sans-serif" font-size="9.8" lengthAdjust="spacing" textLength="62.3" x="51.8" y="164.2717">Repositories()</text><text fill="#000000" font-family="sans-serif" font-size="9.8" lengthAdjust="spacing" textLength="127.4" x="51.8" y="175.2201">+getInstance() : Repositories</text><text fill="#000000" font-family="sans-serif" font-size="9.8" lengthAdjust="spacing" textLength="92.4" x="51.8" y="186.1686">+getVisitRepository()</text><text fill="#000000" font-family="sans-serif" font-size="9.8" lengthAdjust="spacing" textLength="63.7" x="51.8" y="197.117">+getInstance()</text><text fill="#000000" font-family="sans-serif" font-size="9.8" lengthAdjust="spacing" textLength="95.2" x="51.8" y="208.0654">+getCurrentSession()</text></g><!--class BubbleSort--><g id="elem_BubbleSort"><rect codeLine="42" fill="#F1F1F1" height="44.5484" id="BubbleSort" rx="1.75" ry="1.75" style="stroke:#181818;stroke-width:0.3499999999999999;" width="71.4" x="4.9" y="429.1"/><ellipse cx="15.4" cy="440.3" fill="#ADD1B2" rx="7.7" ry="7.7" style="stroke:#181818;stroke-width:0.6999999999999998;"/><path d="M17.3359,437.4125 Q17.4453,437.2594 17.5766,437.1828 Q17.7078,437.1062 17.8609,437.1062 Q18.1234,437.1062 18.2875,437.2922 Q18.4516,437.4672 18.4516,437.8937 L18.4516,438.9109 Q18.4516,439.3375 18.2875,439.5234 Q18.1234,439.7094 17.8609,439.7094 Q17.6203,439.7094 17.4781,439.5672 Q17.3359,439.4359 17.2594,439.075 Q17.2266,438.8234 17.0953,438.6922 Q16.8656,438.4297 16.4391,438.2766 Q16.0125,438.1234 15.575,438.1234 Q15.0391,438.1234 14.5906,438.3531 Q14.1531,438.5828 13.8031,439.1078 Q13.4641,439.6328 13.4641,440.3547 L13.4641,441.1203 Q13.4641,441.9844 14.0875,442.5641 Q14.7109,443.1328 15.8266,443.1328 Q16.4828,443.1328 16.9422,442.9578 Q17.2156,442.8484 17.5109,442.5422 Q17.6969,442.3562 17.7953,442.3016 Q17.9047,442.2469 18.0469,442.2469 Q18.2766,442.2469 18.4516,442.4328 Q18.6375,442.6078 18.6375,442.8484 Q18.6375,443.0891 18.3969,443.3734 Q18.0469,443.7781 17.4891,444.0078 Q16.7344,444.325 15.8266,444.325 Q14.7656,444.325 13.9234,443.8875 Q13.2344,443.5375 12.7531,442.7937 Q12.2719,442.0391 12.2719,441.1422 L12.2719,440.3328 Q12.2719,439.4031 12.6984,438.6047 Q13.1359,437.7953 13.9016,437.3687 Q14.6672,436.9312 15.5312,436.9312 Q16.0453,436.9312 16.4937,437.0516 Q16.9531,437.1609 17.3359,437.4125 Z " fill="#000000"/><text fill="#000000" font-family="sans-serif" font-size="9.8" lengthAdjust="spacing" textLength="49" x="25.2" y="443.6975">BubbleSort</text><line style="stroke:#181818;stroke-width:0.3499999999999999;" x1="5.6" x2="75.6" y1="451.5" y2="451.5"/><line style="stroke:#181818;stroke-width:0.3499999999999999;" x1="5.6" x2="75.6" y1="457.1" y2="457.1"/><text fill="#000000" font-family="sans-serif" font-size="9.8" lengthAdjust="spacing" textLength="23.8" x="9.1" y="468.7717">sort()</text></g><!--class SelectionSort--><g id="elem_SelectionSort"><rect codeLine="46" fill="#F1F1F1" height="44.5484" id="SelectionSort" rx="1.75" ry="1.75" style="stroke:#181818;stroke-width:0.3499999999999999;" width="81.2" x="317.1" y="429.1"/><ellipse cx="327.6" cy="440.3" fill="#ADD1B2" rx="7.7" ry="7.7" style="stroke:#181818;stroke-width:0.6999999999999998;"/><path d="M329.5359,437.4125 Q329.6453,437.2594 329.7766,437.1828 Q329.9078,437.1062 330.0609,437.1062 Q330.3234,437.1062 330.4875,437.2922 Q330.6516,437.4672 330.6516,437.8937 L330.6516,438.9109 Q330.6516,439.3375 330.4875,439.5234 Q330.3234,439.7094 330.0609,439.7094 Q329.8203,439.7094 329.6781,439.5672 Q329.5359,439.4359 329.4594,439.075 Q329.4266,438.8234 329.2953,438.6922 Q329.0656,438.4297 328.6391,438.2766 Q328.2125,438.1234 327.775,438.1234 Q327.2391,438.1234 326.7906,438.3531 Q326.3531,438.5828 326.0031,439.1078 Q325.6641,439.6328 325.6641,440.3547 L325.6641,441.1203 Q325.6641,441.9844 326.2875,442.5641 Q326.9109,443.1328 328.0266,443.1328 Q328.6828,443.1328 329.1422,442.9578 Q329.4156,442.8484 329.7109,442.5422 Q329.8969,442.3562 329.9953,442.3016 Q330.1047,442.2469 330.2469,442.2469 Q330.4766,442.2469 330.6516,442.4328 Q330.8375,442.6078 330.8375,442.8484 Q330.8375,443.0891 330.5969,443.3734 Q330.2469,443.7781 329.6891,444.0078 Q328.9344,444.325 328.0266,444.325 Q326.9656,444.325 326.1234,443.8875 Q325.4344,443.5375 324.9531,442.7937 Q324.4719,442.0391 324.4719,441.1422 L324.4719,440.3328 Q324.4719,439.4031 324.8984,438.6047 Q325.3359,437.7953 326.1016,437.3687 Q326.8672,436.9312 327.7312,436.9312 Q328.2453,436.9312 328.6937,437.0516 Q329.1531,437.1609 329.5359,437.4125 Z " fill="#000000"/><text fill="#000000" font-family="sans-serif" font-size="9.8" lengthAdjust="spacing" textLength="58.8" x="337.4" y="443.6975">SelectionSort</text><line style="stroke:#181818;stroke-width:0.3499999999999999;" x1="317.8" x2="397.6" y1="451.5" y2="451.5"/><line style="stroke:#181818;stroke-width:0.3499999999999999;" x1="317.8" x2="397.6" y1="457.1" y2="457.1"/><text fill="#000000" font-family="sans-serif" font-size="9.8" lengthAdjust="spacing" textLength="23.8" x="321.3" y="468.7717">sort()</text></g><!--class SortingAlgorithm--><g id="elem_SortingAlgorithm"><rect codeLine="50" fill="#F1F1F1" height="44.5484" id="SortingAlgorithm" rx="1.75" ry="1.75" style="stroke:#181818;stroke-width:0.3499999999999999;" width="95.2" x="149.1" y="429.1"/><ellipse cx="159.6" cy="440.3" fill="#ADD1B2" rx="7.7" ry="7.7" style="stroke:#181818;stroke-width:0.6999999999999998;"/><path d="M161.5359,437.4125 Q161.6453,437.2594 161.7766,437.1828 Q161.9078,437.1062 162.0609,437.1062 Q162.3234,437.1062 162.4875,437.2922 Q162.6516,437.4672 162.6516,437.8937 L162.6516,438.9109 Q162.6516,439.3375 162.4875,439.5234 Q162.3234,439.7094 162.0609,439.7094 Q161.8203,439.7094 161.6781,439.5672 Q161.5359,439.4359 161.4594,439.075 Q161.4266,438.8234 161.2953,438.6922 Q161.0656,438.4297 160.6391,438.2766 Q160.2125,438.1234 159.775,438.1234 Q159.2391,438.1234 158.7906,438.3531 Q158.3531,438.5828 158.0031,439.1078 Q157.6641,439.6328 157.6641,440.3547 L157.6641,441.1203 Q157.6641,441.9844 158.2875,442.5641 Q158.9109,443.1328 160.0266,443.1328 Q160.6828,443.1328 161.1422,442.9578 Q161.4156,442.8484 161.7109,442.5422 Q161.8969,442.3562 161.9953,442.3016 Q162.1047,442.2469 162.2469,442.2469 Q162.4766,442.2469 162.6516,442.4328 Q162.8375,442.6078 162.8375,442.8484 Q162.8375,443.0891 162.5969,443.3734 Q162.2469,443.7781 161.6891,444.0078 Q160.9344,444.325 160.0266,444.325 Q158.9656,444.325 158.1234,443.8875 Q157.4344,443.5375 156.9531,442.7937 Q156.4719,442.0391 156.4719,441.1422 L156.4719,440.3328 Q156.4719,439.4031 156.8984,438.6047 Q157.3359,437.7953 158.1016,437.3687 Q158.8672,436.9312 159.7312,436.9312 Q160.2453,436.9312 160.6937,437.0516 Q161.1531,437.1609 161.5359,437.4125 Z " fill="#000000"/><text fill="#000000" font-family="sans-serif" font-size="9.8" lengthAdjust="spacing" textLength="72.8" x="169.4" y="443.6975">SortingAlgorithm</text><line style="stroke:#181818;stroke-width:0.3499999999999999;" x1="149.8" x2="243.6" y1="451.5" y2="451.5"/><line style="stroke:#181818;stroke-width:0.3499999999999999;" x1="149.8" x2="243.6" y1="457.1" y2="457.1"/><text fill="#000000" font-family="sans-serif" font-size="9.8" lengthAdjust="spacing" textLength="23.8" x="153.3" y="468.7717">sort()</text></g><!--class CreateVisitController--><g id="elem_CreateVisitController"><rect codeLine="54" fill="#F1F1F1" height="55.4969" id="CreateVisitController" rx="1.75" ry="1.75" style="stroke:#181818;stroke-width:0.3499999999999999;" width="245.7" x="208.25" y="141.05"/><ellipse cx="282.275" cy="152.25" fill="#ADD1B2" rx="7.7" ry="7.7" style="stroke:#181818;stroke-width:0.6999999999999998;"/><path d="M284.2109,149.3625 Q284.3203,149.2094 284.4516,149.1328 Q284.5828,149.0562 284.7359,149.0562 Q284.9984,149.0562 285.1625,149.2422 Q285.3266,149.4172 285.3266,149.8437 L285.3266,150.8609 Q285.3266,151.2875 285.1625,151.4734 Q284.9984,151.6594 284.7359,151.6594 Q284.4953,151.6594 284.3531,151.5172 Q284.2109,151.3859 284.1344,151.025 Q284.1016,150.7734 283.9703,150.6422 Q283.7406,150.3797 283.3141,150.2266 Q282.8875,150.0734 282.45,150.0734 Q281.9141,150.0734 281.4656,150.3031 Q281.0281,150.5328 280.6781,151.0578 Q280.3391,151.5828 280.3391,152.3047 L280.3391,153.0703 Q280.3391,153.9344 280.9625,154.5141 Q281.5859,155.0828 282.7016,155.0828 Q283.3578,155.0828 283.8172,154.9078 Q284.0906,154.7984 284.3859,154.4922 Q284.5719,154.3062 284.6703,154.2516 Q284.7797,154.1969 284.9219,154.1969 Q285.1516,154.1969 285.3266,154.3828 Q285.5125,154.5578 285.5125,154.7984 Q285.5125,155.0391 285.2719,155.3234 Q284.9219,155.7281 284.3641,155.9578 Q283.6094,156.275 282.7016,156.275 Q281.6406,156.275 280.7984,155.8375 Q280.1094,155.4875 279.6281,154.7437 Q279.1469,153.9891 279.1469,153.0922 L279.1469,152.2828 Q279.1469,151.3531 279.5734,150.5547 Q280.0109,149.7453 280.7766,149.3187 Q281.5422,148.8812 282.4062,148.8812 Q282.9203,148.8812 283.3687,149.0016 Q283.8281,149.1109 284.2109,149.3625 Z " fill="#000000"/><text fill="#000000" font-family="sans-serif" font-size="9.8" lengthAdjust="spacing" textLength="91.7" x="296.625" y="155.6475">CreateVisitController</text><line style="stroke:#181818;stroke-width:0.3499999999999999;" x1="208.95" x2="453.25" y1="163.45" y2="163.45"/><line style="stroke:#181818;stroke-width:0.3499999999999999;" x1="208.95" x2="453.25" y1="169.05" y2="169.05"/><text fill="#000000" font-family="sans-serif" font-size="9.8" lengthAdjust="spacing" textLength="129.5" x="212.45" y="180.7217">getListVisitRequest(fileName)</text><text fill="#000000" font-family="sans-serif" font-size="9.8" lengthAdjust="spacing" textLength="237.3" x="212.45" y="191.6701">+ScheduleVisitController(visitRepository, appSession)</text></g><!--class UserSession--><g id="elem_UserSession"><rect codeLine="59" fill="#F1F1F1" height="44.5484" id="UserSession" rx="1.75" ry="1.75" style="stroke:#181818;stroke-width:0.3499999999999999;" width="77.7" x="478.45" y="146.3"/><ellipse cx="488.95" cy="157.5" fill="#ADD1B2" rx="7.7" ry="7.7" style="stroke:#181818;stroke-width:0.6999999999999998;"/><path d="M490.8859,154.6125 Q490.9953,154.4594 491.1266,154.3828 Q491.2578,154.3062 491.4109,154.3062 Q491.6734,154.3062 491.8375,154.4922 Q492.0016,154.6672 492.0016,155.0937 L492.0016,156.1109 Q492.0016,156.5375 491.8375,156.7234 Q491.6734,156.9094 491.4109,156.9094 Q491.1703,156.9094 491.0281,156.7672 Q490.8859,156.6359 490.8094,156.275 Q490.7766,156.0234 490.6453,155.8922 Q490.4156,155.6297 489.9891,155.4766 Q489.5625,155.3234 489.125,155.3234 Q488.5891,155.3234 488.1406,155.5531 Q487.7031,155.7828 487.3531,156.3078 Q487.0141,156.8328 487.0141,157.5547 L487.0141,158.3203 Q487.0141,159.1844 487.6375,159.7641 Q488.2609,160.3328 489.3766,160.3328 Q490.0328,160.3328 490.4922,160.1578 Q490.7656,160.0484 491.0609,159.7422 Q491.2469,159.5562 491.3453,159.5016 Q491.4547,159.4469 491.5969,159.4469 Q491.8266,159.4469 492.0016,159.6328 Q492.1875,159.8078 492.1875,160.0484 Q492.1875,160.2891 491.9469,160.5734 Q491.5969,160.9781 491.0391,161.2078 Q490.2844,161.525 489.3766,161.525 Q488.3156,161.525 487.4734,161.0875 Q486.7844,160.7375 486.3031,159.9937 Q485.8219,159.2391 485.8219,158.3422 L485.8219,157.5328 Q485.8219,156.6031 486.2484,155.8047 Q486.6859,154.9953 487.4516,154.5687 Q488.2172,154.1312 489.0812,154.1312 Q489.5953,154.1312 490.0437,154.2516 Q490.5031,154.3609 490.8859,154.6125 Z " fill="#000000"/><text fill="#000000" font-family="sans-serif" font-size="9.8" lengthAdjust="spacing" textLength="55.3" x="498.75" y="160.8975">UserSession</text><line style="stroke:#181818;stroke-width:0.3499999999999999;" x1="479.15" x2="555.45" y1="168.7" y2="168.7"/><text fill="#000000" font-family="sans-serif" font-size="9.8" lengthAdjust="spacing" textLength="63.7" x="482.65" y="180.3717">+getUserEmail</text><line style="stroke:#181818;stroke-width:0.3499999999999999;" x1="479.15" x2="555.45" y1="185.2484" y2="185.2484"/></g><!--class Repositories--><g id="elem_Repositories"><rect codeLine="68" fill="#F1F1F1" height="66.4453" id="Repositories" rx="1.75" ry="1.75" style="stroke:#181818;stroke-width:0.3499999999999999;" width="135.8" x="263.2" y="4.9"/><ellipse cx="300.475" cy="16.1" fill="#ADD1B2" rx="7.7" ry="7.7" style="stroke:#181818;stroke-width:0.6999999999999998;"/><path d="M302.4109,13.2125 Q302.5203,13.0594 302.6516,12.9828 Q302.7828,12.9062 302.9359,12.9062 Q303.1984,12.9062 303.3625,13.0922 Q303.5266,13.2672 303.5266,13.6937 L303.5266,14.7109 Q303.5266,15.1375 303.3625,15.3234 Q303.1984,15.5094 302.9359,15.5094 Q302.6953,15.5094 302.5531,15.3672 Q302.4109,15.2359 302.3344,14.875 Q302.3016,14.6234 302.1703,14.4922 Q301.9406,14.2297 301.5141,14.0766 Q301.0875,13.9234 300.65,13.9234 Q300.1141,13.9234 299.6656,14.1531 Q299.2281,14.3828 298.8781,14.9078 Q298.5391,15.4328 298.5391,16.1547 L298.5391,16.9203 Q298.5391,17.7844 299.1625,18.3641 Q299.7859,18.9328 300.9016,18.9328 Q301.5578,18.9328 302.0172,18.7578 Q302.2906,18.6484 302.5859,18.3422 Q302.7719,18.1562 302.8703,18.1016 Q302.9797,18.0469 303.1219,18.0469 Q303.3516,18.0469 303.5266,18.2328 Q303.7125,18.4078 303.7125,18.6484 Q303.7125,18.8891 303.4719,19.1734 Q303.1219,19.5781 302.5641,19.8078 Q301.8094,20.125 300.9016,20.125 Q299.8406,20.125 298.9984,19.6875 Q298.3094,19.3375 297.8281,18.5937 Q297.3469,17.8391 297.3469,16.9422 L297.3469,16.1328 Q297.3469,15.2031 297.7734,14.4047 Q298.2109,13.5953 298.9766,13.1687 Q299.7422,12.7312 300.6062,12.7312 Q301.1203,12.7312 301.5687,12.8516 Q302.0281,12.9609 302.4109,13.2125 Z " fill="#000000"/><text fill="#000000" font-family="sans-serif" font-size="9.8" lengthAdjust="spacing" textLength="55.3" x="314.825" y="19.4975">Repositories</text><line style="stroke:#181818;stroke-width:0.3499999999999999;" x1="263.9" x2="398.3" y1="27.3" y2="27.3"/><line style="stroke:#181818;stroke-width:0.3499999999999999;" x1="263.9" x2="398.3" y1="32.9" y2="32.9"/><text fill="#000000" font-family="sans-serif" font-size="9.8" lengthAdjust="spacing" textLength="65.8" x="267.4" y="44.5717">-Repositories()</text><text fill="#000000" font-family="sans-serif" font-size="9.8" lengthAdjust="spacing" textLength="127.4" x="267.4" y="55.5201">+getInstance() : Repositories</text><text fill="#000000" font-family="sans-serif" font-size="9.8" lengthAdjust="spacing" textLength="92.4" x="267.4" y="66.4686">+getVisitRepository()</text></g><!--link VisitRepository to VisitRequest--><g id="link_VisitRepository_VisitRequest"><path codeLine="73" d="M241.64,320.95 C253.4,320.95 266.175,320.95 278.306,320.95 " fill="none" id="VisitRepository-to-VisitRequest" style="stroke:#181818;stroke-width:0.6999999999999998;"/><polygon fill="#181818" points="282.044,320.95,275.744,318.15,278.544,320.95,275.744,323.75,282.044,320.95" style="stroke:#181818;stroke-width:0.6999999999999998;"/><text fill="#000000" font-family="sans-serif" font-size="9.1" lengthAdjust="spacing" textLength="14.7" x="254.45" y="316.588">has</text><text fill="#000000" font-family="sans-serif" font-size="9.1" lengthAdjust="spacing" textLength="4.9" x="247.1195" y="318.8572">1</text><text fill="#000000" font-family="sans-serif" font-size="9.1" lengthAdjust="spacing" textLength="14" x="262.526" y="329.6717">0..*</text></g><!--reverse link SortingAlgorithm to SelectionSort--><g id="link_SortingAlgorithm_SelectionSort"><path codeLine="74" d="M247.905,451.5 C270.214,451.5 296.002,451.5 316.981,451.5 " fill="none" id="SortingAlgorithm-backto-SelectionSort" style="stroke:#181818;stroke-width:0.6999999999999998;"/><polygon fill="#181818" points="244.349,451.5,250.649,454.3,247.849,451.5,250.649,448.7,244.349,451.5" style="stroke:#181818;stroke-width:0.6999999999999998;"/><text fill="#000000" font-family="sans-serif" font-size="9.1" lengthAdjust="spacing" textLength="46.9" x="257.25" y="447.138">implements</text></g><!--link BubbleSort to SortingAlgorithm--><g id="link_BubbleSort_SortingAlgorithm"><path codeLine="75" d="M76.412,451.5 C96.831,451.5 122.773,451.5 145.334,451.5 " fill="none" id="BubbleSort-to-SortingAlgorithm" style="stroke:#181818;stroke-width:0.6999999999999998;"/><polygon fill="#181818" points="148.925,451.5,142.625,448.7,145.425,451.5,142.625,454.3,148.925,451.5" style="stroke:#181818;stroke-width:0.6999999999999998;"/><text fill="#000000" font-family="sans-serif" font-size="9.1" lengthAdjust="spacing" textLength="46.9" x="89.25" y="447.138">implements</text></g><!--link VisitRepository to SortingAlgorithm--><g id="link_VisitRepository_SortingAlgorithm"><path codeLine="76" d="M196.7,343.56 C196.7,366.17 196.7,401.415 196.7,425.271 " fill="none" id="VisitRepository-to-SortingAlgorithm" style="stroke:#181818;stroke-width:0.6999999999999998;"/><polygon fill="#181818" points="196.7,429.002,199.5,422.702,196.7,425.502,193.9,422.702,196.7,429.002" style="stroke:#181818;stroke-width:0.6999999999999998;"/><text fill="#000000" font-family="sans-serif" font-size="9.1" lengthAdjust="spacing" textLength="67.2" x="197.4" y="405.838">sorting algorithm</text></g><!--link VisitRequest to Agent--><g id="link_VisitRequest_Agent"><path codeLine="77" d="M380.24,320.95 C395.871,320.95 413.266,320.95 429.289,320.95 " fill="none" id="VisitRequest-to-Agent" style="stroke:#181818;stroke-width:0.6999999999999998;"/><polygon fill="#181818" points="432.901,320.95,426.601,318.15,429.401,320.95,426.601,323.75,432.901,320.95" style="stroke:#181818;stroke-width:0.6999999999999998;"/><text fill="#000000" font-family="sans-serif" font-size="9.1" lengthAdjust="spacing" textLength="27.3" x="392.875" y="316.588">has an</text></g><!--link CreateVisitController to VisitRequest--><g id="link_CreateVisitController_VisitRequest"><path codeLine="78" d="M331.1,196.371 C331.1,214.627 331.1,239.463 331.1,262.101 " fill="none" id="CreateVisitController-to-VisitRequest" style="stroke:#181818;stroke-width:0.6999999999999998;"/><polygon fill="#181818" points="331.1,265.713,333.9,259.413,331.1,262.213,328.3,259.413,331.1,265.713" style="stroke:#181818;stroke-width:0.6999999999999998;"/><text fill="#000000" font-family="sans-serif" font-size="9.1" lengthAdjust="spacing" textLength="48.3" x="331.8" y="242.738">visit request</text></g><!--link CreateVisitController to UserSession--><g id="link_CreateVisitController_UserSession"><path codeLine="79" d="M454.153,168.7 C454.853,168.7 455.231,168.7 455.231,168.7 C455.231,168.7 463.82,168.7 474.614,168.7 " fill="none" id="CreateVisitController-to-UserSession" style="stroke:#181818;stroke-width:0.6999999999999998;"/><polygon fill="#181818" points="478.345,168.7,472.045,165.9,474.845,168.7,472.045,171.5,478.345,168.7" style="stroke:#181818;stroke-width:0.6999999999999998;"/></g><!--reverse link ApplicationSession to CreateVisitController--><g id="link_ApplicationSession_CreateVisitController"><path codeLine="80" d="M187.103,168.7 C187.278,168.7 187.369,168.7 187.369,168.7 C187.369,168.7 196.448,168.7 208.152,168.7 " fill="none" id="ApplicationSession-backto-CreateVisitController" style="stroke:#181818;stroke-width:0.6999999999999998;"/><polygon fill="#181818" points="183.505,168.7,189.805,171.5,187.005,168.7,189.805,165.9,183.505,168.7" style="stroke:#181818;stroke-width:0.6999999999999998;"/></g><!--reverse link Repositories to CreateVisitController--><g id="link_Repositories_CreateVisitController"><path codeLine="81" d="M331.1,75.012 C331.1,95.9 331.1,121.737 331.1,140.875 " fill="none" id="Repositories-backto-CreateVisitController" style="stroke:#181818;stroke-width:0.6999999999999998;"/><polygon fill="#181818" points="331.1,71.442,328.3,77.742,331.1,74.942,333.9,77.742,331.1,71.442" style="stroke:#181818;stroke-width:0.6999999999999998;"/><text fill="#000000" font-family="sans-serif" font-size="9.1" lengthAdjust="spacing" textLength="46.9" x="331.8" y="101.338">repositories</text></g><!--SRC=[XLHDRzim3BthLn2vnDcQehlsK20DTYWm5CECxQxOZ2rKNvNe3Lcm_pxApeVi9cqk5idtn2S-AVFuegoNGHemphgg3SuWKEXGd2jULY-omP9s6Y5WHT8sEWV4LjRkZx8DRAMEUKKhYxJp2DxfNGh4_4BH1N8YOrLQnhWY2chJ4JvLpfRgByAT47EDMm9o45JJ4jGgoL7E2j5pODMWfRq0_YrBvhCaAmsE4hvr5fyxiy4W_WbnfFvIKT4Fz8u_BkpsgJQgl7OOZtiRZ957CWIrfCEAbC5IEngYIYjMytpgFyJVi_PzMYRDmz87vp7Gxatliwg1KjV5xqpLuanOUQzL9TDGIXR9du5psaDXB1PzwdE3z6GZsrbXiO3x4UQ4c2We-bw7Pe_TPgEnPF-69f5NHIQcH3tuymw4OtPbfHjkIwqPK1aoBK_eTK0UTYzfxIm5fpM6WS9Ilwb8kLd5LcbCyp-SjwnQh3izvHz7UJpY3KZl3yFBbFwC64OZJTD9oQz6Alsn0-DndrBhBWI-00TeFfhSZhrOJXnytxrhparoCFioW-K3mEpkzlRJR7JLUKjePHGZ4s6f6JurZQ7AU8s63nB5-LR0XzYfdkK5ndr_5TBJbSUK60bbJl_mUMiM3DAAY_U4NoeZ9qVilUT_jJw-ndl8pRy6IeDvw_qrTCVet36M4d83_mC0]--></g></svg>