<?xml version="1.0" encoding="UTF-8" standalone="no"?><svg xmlns="http://www.w3.org/2000/svg" xmlns:xlink="http://www.w3.org/1999/xlink" contentStyleType="text/css" height="449px" preserveAspectRatio="none" style="width:508px;height:449px;background:#FFFFFF;" version="1.1" viewBox="0 0 508 449" width="508px" zoomAndPan="magnify"><defs/><g><!--class Agent--><g id="elem_Agent"><rect
        fill="#F1F1F1" height="88.6641" id="Agent" rx="2.5" ry="2.5" style="stroke:#181818;stroke-width:0.5;" width="104" x="62.5" y="145.33"/><text fill="#000000" font-family="sans-serif" font-size="20" lengthAdjust="spacing" textLength="56" x="86.5" y="169.6659">Agent</text><line style="stroke:#181818;stroke-width:0.5;" x1="63.5" x2="165.5" y1="178.8847" y2="178.8847"/><text fill="#000000" font-family="sans-serif" font-size="20" lengthAdjust="spacing" textLength="82" x="68.5" y="202.2206">id/email</text><text fill="#000000" font-family="sans-serif" font-size="20" lengthAdjust="spacing" textLength="92" x="68.5" y="225.7753">password</text></g><!--class Owner--><g id="elem_Owner"><rect
        fill="#F1F1F1" height="41.5547" id="Owner" rx="2.5" ry="2.5" style="stroke:#181818;stroke-width:0.5;" width="68" x="198.5" y="7"/><text fill="#000000" font-family="sans-serif" font-size="20" lengthAdjust="spacing" textLength="62" x="201.5" y="31.3359">Owner</text><line style="stroke:#181818;stroke-width:0.5;" x1="199.5" x2="265.5" y1="40.5547" y2="40.5547"/></g><!--class Property--><g id="elem_Property"><rect
        fill="#F1F1F1" height="112.2188" id="Property" rx="2.5" ry="2.5" style="stroke:#181818;stroke-width:0.5;" width="300" x="201.5" y="133.55"/><text fill="#000000" font-family="sans-serif" font-size="20" lengthAdjust="spacing" textLength="80" x="311.5" y="157.8859">Property</text><line style="stroke:#181818;stroke-width:0.5;" x1="202.5" x2="500.5" y1="167.1047" y2="167.1047"/><text fill="#000000" font-family="sans-serif" font-size="20" lengthAdjust="spacing" textLength="41" x="207.5" y="190.4406">area</text><text fill="#000000" font-family="sans-serif" font-size="20" lengthAdjust="spacing" textLength="76" x="207.5" y="213.9953">location</text><text fill="#000000" font-family="sans-serif" font-size="20" lengthAdjust="spacing" textLength="288" x="207.5" y="237.55">distance_from_the_city_center</text></g><!--class Announcement--><g id="elem_Announcement"><rect
        fill="#F1F1F1" height="112.2188" id="Announcement" rx="2.5" ry="2.5" style="stroke:#181818;stroke-width:0.5;" width="150" x="198.5" y="330.77"/><text fill="#000000" font-family="sans-serif" font-size="20" lengthAdjust="spacing" textLength="144" x="201.5" y="355.1059">Announcement</text><line style="stroke:#181818;stroke-width:0.5;" x1="199.5" x2="347.5" y1="364.3247" y2="364.3247"/><text fill="#000000" font-family="sans-serif" font-size="20" lengthAdjust="spacing" textLength="108" x="204.5" y="387.6606">description</text><text fill="#000000" font-family="sans-serif" font-size="20" lengthAdjust="spacing" textLength="97" x="204.5" y="411.2153">comission</text><text fill="#000000" font-family="sans-serif" font-size="20" lengthAdjust="spacing" textLength="82" x="204.5" y="434.77">property</text></g><!--class Agency--><g id="elem_Agency"><rect fill="#F1F1F1" height="41.5547" id="Agency" rx="2.5" ry="2.5" style="stroke:#181818;stroke-width:0.5;" width="75" x="7" y="366.1"/><text fill="#000000" font-family="sans-serif" font-size="20" lengthAdjust="spacing" textLength="69" x="10" y="390.4359">Agency</text><line style="stroke:#181818;stroke-width:0.5;" x1="8" x2="81" y1="399.6547" y2="399.6547"/></g><!--link Owner to Agent--><g id="link_Owner_Agent"><path
        d="M216.37,48.97 C209.26,57.96 200.88,68.72 193.5,78.55 C177.27,100.2 159.68,124.62 145.22,144.95 " fill="none" id="Owner-Agent" style="stroke:#181818;stroke-width:1.0;"/><polygon fill="#000000" points="196.7359,97.7541,209.1318,88.9283,201.5767,83.3277,196.7359,97.7541" style="stroke:#000000;stroke-width:1.0;"/><text fill="#000000" font-family="sans-serif" font-size="20" lengthAdjust="spacing" textLength="65" x="214.5" y="98.8859">selects</text><text fill="#000000" font-family="sans-serif" font-size="20" lengthAdjust="spacing" textLength="13" x="198.1368" y="75.9303">1</text><text fill="#000000" font-family="sans-serif" font-size="20" lengthAdjust="spacing" textLength="35" x="112.1617" y="133.0705">1..*</text></g><!--link Owner to Property--><g id="link_Owner_Property"><path
        d="M256.07,48.9 C265.47,57.53 276.05,68.03 284.5,78.55 C298.03,95.38 310.88,115.17 321.64,133.3 " fill="none" id="Owner-Property" style="stroke:#181818;stroke-width:1.0;"/><polygon fill="#000000" points="313.4081,97.6449,308.2426,83.3315,300.816,89.1012,313.4081,97.6449" style="stroke:#000000;stroke-width:1.0;"/><text fill="#000000" font-family="sans-serif" font-size="20" lengthAdjust="spacing" textLength="66" x="321.5" y="98.8859">owns a</text><text fill="#000000" font-family="sans-serif" font-size="20" lengthAdjust="spacing" textLength="13" x="247.0174" y="75.8441">1</text><text fill="#000000" font-family="sans-serif" font-size="20" lengthAdjust="spacing" textLength="35" x="280.868" y="121.3994">1..*</text></g><!--link Agent to Announcement--><g id="link_Agent_Announcement"><path
        d="M141.62,234.31 C155.16,255.08 172.31,279.87 189.5,300.77 C197.68,310.71 206.82,320.83 215.98,330.45 " fill="none" id="Agent-Announcement" style="stroke:#181818;stroke-width:1.0;"/><polygon fill="#000000" points="202.3945,294.8754,197.2598,280.5509,189.8208,286.3047,202.3945,294.8754" style="stroke:#000000;stroke-width:1.0;"/><text fill="#000000" font-family="sans-serif" font-size="20" lengthAdjust="spacing" textLength="93" x="210.5" y="296.1059">publishes</text><text fill="#000000" font-family="sans-serif" font-size="20" lengthAdjust="spacing" textLength="13" x="131.3908" y="261.2281">1</text><text fill="#000000" font-family="sans-serif" font-size="20" lengthAdjust="spacing" textLength="35" x="171.8369" y="318.5408">1..*</text></g><!--link Agent to Agency--><g id="link_Agent_Agency"><path
        d="M66.85,234.42 C56.52,246.69 47.04,260.8 41.5,275.77 C30.48,305.54 35.01,343 39.56,365.66 " fill="none" id="Agent-Agency" style="stroke:#181818;stroke-width:1.0;"/><polygon fill="#000000" points="47.8713,296.3798,55.4214,283.1681,46.2138,281.2534,47.8713,296.3798" style="stroke:#000000;stroke-width:1.0;"/><text fill="#000000" font-family="sans-serif" font-size="20" lengthAdjust="spacing" textLength="90" x="62.5" y="296.1059">works for</text><text fill="#000000" font-family="sans-serif" font-size="20" lengthAdjust="spacing" textLength="35" x="23.0955" y="261.3529">1..*</text><text fill="#000000" font-family="sans-serif" font-size="20" lengthAdjust="spacing" textLength="13" x="23.6285" y="353.6832">1</text></g><!--link Property to Announcement--><g id="link_Property_Announcement"><path
        d="M332.92,246.19 C326.74,263.77 319.62,283.2 312.5,300.77 C308.59,310.41 304.2,320.55 299.81,330.34 " fill="none" id="Property-Announcement" style="stroke:#181818;stroke-width:1.0;"/><polygon fill="#000000" points="326.5709,295.9918,336.2455,284.2463,327.494,280.8029,326.5709,295.9918" style="stroke:#000000;stroke-width:1.0;"/><text fill="#000000" font-family="sans-serif" font-size="20" lengthAdjust="spacing" textLength="126" x="342.5" y="296.1059">is needed for</text><text fill="#000000" font-family="sans-serif" font-size="20" lengthAdjust="spacing" textLength="13" x="317.1769" y="272.9971">1</text><text fill="#000000" font-family="sans-serif" font-size="20" lengthAdjust="spacing" textLength="35" x="265.8837" y="318.4174">1..*</text></g><!--SRC=[RPBDQiCm3CVlVWhHIs7GVHrx61J6O8UnGH-WkBQIY3fMi1HAD_RkKv8j2sCd6_dt_uY8d2XtllWsSJXXX8YLxvC-STOzlIFStphvGQ3bpA4ft29ewN7nqlbmyZNkzP8G2WRrkKvBG1eV-KovXiedGUVM2Ii5PIXKDmgH1XLnTWjHI5vafrhes2i-1yvZfrld6ee8WKgmaF7UeZOSnNoLr3eySkifmmj7J3OSdU0jUQsujF3XrW2RY18ATMFg-jEv2ThLcDK8YZTe7ibrDZrpYMv6NiyPYo7puArmXqKlDWC0Nz0FfwtKZ-QHn1OIy53PxWxQu26GNWx1Wh3ykknovjwmTYgmh1Uu9P7Xrdr7MO09foQhknLiDdPSNr-jlZzW2uB9LYhmy2yrLzu2dxE0DsvI_d5Rbjf2rnyJIOEom4TkL4pXOJ2rZPq4RDi6pbb6pCvBuosGG4QCzWSE4dZu0W00]--></g></svg>