<?xml version="1.0" encoding="us-ascii" standalone="no"?><svg xmlns="http://www.w3.org/2000/svg" xmlns:xlink="http://www.w3.org/1999/xlink" contentStyleType="text/css" height="465px" preserveAspectRatio="none" style="width:522px;height:465px;background:#FFFFFF;" version="1.1" viewBox="0 0 522 465" width="522px" zoomAndPan="magnify"><defs/><g><!--class Agent--><g id="elem_Agent"><rect codeLine="12" fill="#F1F1F1" height="99.4844" id="Agent" rx="2.5" ry="2.5" style="stroke:#181818;stroke-width:0.5;" width="115" x="154.5" y="7"/><text fill="#000000" font-family="sans-serif" font-size="14" lengthAdjust="spacing" textLength="44" x="190" y="24.9951">Agent</text><line style="stroke:#181818;stroke-width:0.5;" x1="155.5" x2="268.5" y1="33.2969" y2="33.2969"/><text fill="#000000" font-family="sans-serif" font-size="14" lengthAdjust="spacing" textLength="40" x="160.5" y="50.292">name</text><text fill="#000000" font-family="sans-serif" font-size="14" lengthAdjust="spacing" textLength="103" x="160.5" y="66.5889">phoneNumber</text><text fill="#000000" font-family="sans-serif" font-size="14" lengthAdjust="spacing" textLength="57" x="160.5" y="82.8857">id/email</text><text fill="#000000" font-family="sans-serif" font-size="14" lengthAdjust="spacing" textLength="67" x="160.5" y="99.1826">password</text></g><!--class Owner--><g id="elem_Owner"><rect codeLine="18" fill="#F1F1F1" height="66.8906" id="Owner" rx="2.5" ry="2.5" style="stroke:#181818;stroke-width:0.5;" width="115" x="342.5" y="23"/><text fill="#000000" font-family="sans-serif" font-size="14" lengthAdjust="spacing" textLength="46" x="377" y="40.9951">Owner</text><line style="stroke:#181818;stroke-width:0.5;" x1="343.5" x2="456.5" y1="49.2969" y2="49.2969"/><text fill="#000000" font-family="sans-serif" font-size="14" lengthAdjust="spacing" textLength="40" x="348.5" y="66.292">name</text><text fill="#000000" font-family="sans-serif" font-size="14" lengthAdjust="spacing" textLength="103" x="348.5" y="82.5889">phoneNumber</text></g><!--class Message--><g id="elem_Message"><rect codeLine="24" fill="#F1F1F1" height="83.1875" id="Message" rx="2.5" ry="2.5" style="stroke:#181818;stroke-width:0.5;" width="77" x="261.5" y="183"/><text fill="#000000" font-family="sans-serif" font-size="14" lengthAdjust="spacing" textLength="61" x="269.5" y="200.9951">Message</text><line style="stroke:#181818;stroke-width:0.5;" x1="262.5" x2="337.5" y1="209.2969" y2="209.2969"/><text fill="#000000" font-family="sans-serif" font-size="14" lengthAdjust="spacing" textLength="42" x="267.5" y="226.292">agent</text><text fill="#000000" font-family="sans-serif" font-size="14" lengthAdjust="spacing" textLength="44" x="267.5" y="242.5889">owner</text><text fill="#000000" font-family="sans-serif" font-size="14" lengthAdjust="spacing" textLength="65" x="267.5" y="258.8857">property</text></g><!--class Property--><g id="elem_Property"><rect codeLine="36" fill="#F1F1F1" height="115.7813" id="Property" rx="2.5" ry="2.5" style="stroke:#181818;stroke-width:0.5;" width="236" x="188" y="343"/><text fill="#000000" font-family="sans-serif" font-size="14" lengthAdjust="spacing" textLength="64" x="274" y="360.9951">Property</text><line style="stroke:#181818;stroke-width:0.5;" x1="189" x2="423" y1="369.2969" y2="369.2969"/><text fill="#000000" font-family="sans-serif" font-size="14" lengthAdjust="spacing" textLength="34" x="194" y="386.292">type</text><text fill="#000000" font-family="sans-serif" font-size="14" lengthAdjust="spacing" textLength="31" x="194" y="402.5889">area</text><text fill="#000000" font-family="sans-serif" font-size="14" lengthAdjust="spacing" textLength="58" x="194" y="418.8857">location</text><text fill="#000000" font-family="sans-serif" font-size="14" lengthAdjust="spacing" textLength="224" x="194" y="435.1826">distance_from_the_city_center</text><text fill="#000000" font-family="sans-serif" font-size="14" lengthAdjust="spacing" textLength="78" x="194" y="451.4795">propertyId</text></g><!--class Announcement--><g id="elem_Announcement"><rect codeLine="45" fill="#F1F1F1" height="83.1875" id="Announcement" rx="2.5" ry="2.5" style="stroke:#181818;stroke-width:0.5;" width="133" x="58.5" y="183"/><text fill="#000000" font-family="sans-serif" font-size="14" lengthAdjust="spacing" textLength="110" x="70" y="200.9951">Announcement</text><line style="stroke:#181818;stroke-width:0.5;" x1="59.5" x2="190.5" y1="209.2969" y2="209.2969"/><text fill="#000000" font-family="sans-serif" font-size="14" lengthAdjust="spacing" textLength="121" x="64.5" y="226.292">announcementId</text><text fill="#000000" font-family="sans-serif" font-size="14" lengthAdjust="spacing" textLength="78" x="64.5" y="242.5889">commision</text><text fill="#000000" font-family="sans-serif" font-size="14" lengthAdjust="spacing" textLength="65" x="64.5" y="258.8857">property</text></g><!--class Commision--><g id="elem_Commision"><rect codeLine="50" fill="#F1F1F1" height="66.8906" id="Commision" rx="2.5" ry="2.5" style="stroke:#181818;stroke-width:0.5;" width="146" x="7" y="367.5"/><text fill="#000000" font-family="sans-serif" font-size="14" lengthAdjust="spacing" textLength="80" x="40" y="385.4951">Commision</text><line style="stroke:#181818;stroke-width:0.5;" x1="8" x2="152" y1="393.7969" y2="393.7969"/><text fill="#000000" font-family="sans-serif" font-size="14" lengthAdjust="spacing" textLength="134" x="13" y="410.792">type_of_comission</text><text fill="#000000" font-family="sans-serif" font-size="14" lengthAdjust="spacing" textLength="110" x="13" y="427.0889">comissionValue</text></g><!--link Owner to Property--><g id="link_Owner_Property"><path codeLine="55" d="M417.688,90.126 C424.185,103.868 430.745,120.294 434,136 C449.965,213.03 470.808,243.476 434,313 C428.154,324.042 420.208,333.943 411.119,342.754 " fill="none" id="Owner-Property" style="stroke:#181818;stroke-width:1.0;"/><polygon fill="#000000" points="458.87,229.5647,462.0431,220.5991,456.1672,220.4463,458.87,229.5647" style="stroke:#000000;stroke-width:1.0;"/><text fill="#000000" font-family="sans-serif" font-size="13" lengthAdjust="spacing" textLength="46" x="468" y="229.0669">owns a</text><text fill="#000000" font-family="sans-serif" font-size="13" lengthAdjust="spacing" textLength="8" x="412.2973" y="110.0556">1</text><text fill="#000000" font-family="sans-serif" font-size="13" lengthAdjust="spacing" textLength="23" x="399.5288" y="331.8295">1..*</text></g><!--link Agent to Announcement--><g id="link_Agent_Announcement"><path codeLine="56" d="M154.474,94.721 C141.377,106.244 129.209,120.146 122,136 C115.457,150.39 114.725,167.529 116.163,182.809 " fill="none" id="Agent-Announcement" style="stroke:#181818;stroke-width:1.0;"/><polygon fill="#000000" points="125.0058,149.1515,131.3084,142.0291,125.9182,139.6848,125.0058,149.1515" style="stroke:#000000;stroke-width:1.0;"/><text fill="#000000" font-family="sans-serif" font-size="13" lengthAdjust="spacing" textLength="80" x="136" y="149.0669">publishes an</text><text fill="#000000" font-family="sans-serif" font-size="13" lengthAdjust="spacing" textLength="8" x="138.591" y="95.7015">1</text><text fill="#000000" font-family="sans-serif" font-size="13" lengthAdjust="spacing" textLength="23" x="89.9213" y="172.0317">1..*</text></g><!--link Announcement to Property--><g id="link_Announcement_Property"><path codeLine="57" d="M167.436,266.412 C191.051,289.179 220.816,317.875 246.701,342.83 " fill="none" id="Announcement-Property" style="stroke:#181818;stroke-width:1.0;"/><polygon fill="#000000" points="224.5996,308.0367,220.1277,299.6431,216.0481,303.8747,224.5996,308.0367" style="stroke:#000000;stroke-width:1.0;"/><text fill="#000000" font-family="sans-serif" font-size="13" lengthAdjust="spacing" textLength="54" x="230" y="309.0669">contains</text><text fill="#000000" font-family="sans-serif" font-size="13" lengthAdjust="spacing" textLength="8" x="165.5617" y="286.3496">1</text><text fill="#000000" font-family="sans-serif" font-size="13" lengthAdjust="spacing" textLength="23" x="215.0724" y="331.9148">1..*</text></g><!--link Announcement to Commision--><g id="link_Announcement_Commision"><path codeLine="58" d="M100.1533,266.075 C95.3442,275.589 90.9036,285.904 88,296 C81.3431,319.147 79.4438,346.313 79.1555,367.0755 " fill="none" id="Announcement-Commision" style="stroke:#181818;stroke-width:1.0;"/><polygon fill="#000000" points="91.9823,309.4617,96.7008,301.2042,90.946,300.0078,91.9823,309.4617" style="stroke:#000000;stroke-width:1.0;"/><text fill="#000000" font-family="sans-serif" font-size="13" lengthAdjust="spacing" textLength="39" x="102" y="309.0669">needs</text><text fill="#000000" font-family="sans-serif" font-size="13" lengthAdjust="spacing" textLength="8" x="87.3756" y="286.2654">1</text><text fill="#000000" font-family="sans-serif" font-size="13" lengthAdjust="spacing" textLength="8" x="70.2623" y="356.5277">1</text></g><!--link Owner to Message--><g id="link_Owner_Message"><path codeLine="59" d="M378.175,90.043 C368.958,104.052 358.242,120.697 349,136 C339.909,151.053 330.364,167.848 322.139,182.667 " fill="none" id="Owner-Message" style="stroke:#181818;stroke-width:1.0;"/><polygon fill="#000000" points="351.4119,148.8444,358.6084,142.6267,353.5793,139.5841,351.4119,148.8444" style="stroke:#000000;stroke-width:1.0;"/><text fill="#000000" font-family="sans-serif" font-size="13" lengthAdjust="spacing" textLength="66" x="363" y="149.0669">receives a</text><text fill="#000000" font-family="sans-serif" font-size="13" lengthAdjust="spacing" textLength="8" x="365.2521" y="109.9568">1</text><text fill="#000000" font-family="sans-serif" font-size="13" lengthAdjust="spacing" textLength="8" x="317.0299" y="171.8671">1</text></g><!--link Agent to Message--><g id="link_Agent_Message"><path codeLine="60" d="M233.669,106.094 C240.769,121.286 248.918,137.993 257,153 C262.302,162.845 268.366,173.236 274.234,182.926 " fill="none" id="Agent-Message" style="stroke:#181818;stroke-width:1.0;"/><text fill="#000000" font-family="sans-serif" font-size="13" lengthAdjust="spacing" textLength="50" x="258" y="149.0669">sends a</text><text fill="#000000" font-family="sans-serif" font-size="13" lengthAdjust="spacing" textLength="8" x="228.2641" y="126.5208">1</text><text fill="#000000" font-family="sans-serif" font-size="13" lengthAdjust="spacing" textLength="8" x="261.304" y="171.8605">1</text></g><!--link Message to Property--><g id="link_Message_Property"><path codeLine="61" d="M297.976,266.126 C297.57,275.906 297.206,286.324 297,296 C296.839,303.554 296.611,305.454 297,313 C297.501,322.705 298.313,332.996 299.251,342.972 " fill="none" id="Message-Property" style="stroke:#181818;stroke-width:1.0;"/><polygon fill="#000000" points="302.0829,309.5657,304.8714,300.4731,298.9944,300.5706,302.0829,309.5657" style="stroke:#000000;stroke-width:1.0;"/><text fill="#000000" font-family="sans-serif" font-size="13" lengthAdjust="spacing" textLength="118" x="311" y="309.0669">has information of</text><text fill="#000000" font-family="sans-serif" font-size="13" lengthAdjust="spacing" textLength="8" x="288.9783" y="286.3249">1</text><text fill="#000000" font-family="sans-serif" font-size="13" lengthAdjust="spacing" textLength="8" x="289.941" y="332.0741">1</text></g><!--SRC=[RP9FQzmm4CNlyoc6lHGAITFh7WAXfnpQ1WAzcbbvR8b86YF9NROXtxqZQzVnflL5_tvFyzx8-SN5YH8531B5s2I1iQIP8Qyd4vaN6lcvd3nZObCeZduBP4kz75qSSI2V6U2Jvw5W4Knkj0LxLrLE8cn4nbFE3wKaTvWBFng9p-uFuns0TJsZSSbeaMKUk5ZfCy2YmOUHOy5NY1GO9YkHVypXm0bS_uK3EG-JOaT9FRoT9J-FaTD_5B0Itpbd3VaAL6y7gGAOaaoSogbYxMlmqtbVJI1YEKrSHqfCTVHYQ4chSysUjL-6kq5RsnNBdN7br1ajeWKgSIdos2zbpXbZb5bbeKMbpL8v8o6uN4ki3X7VeFKKlrrEcxrci9EXKvdB-U8Cr-KlyZEtFJMmz0ftNtTuSwF3xUtdtNlWFMfdCXBUGtk6Q-xAzXwd-U1Tjgo2M1NRKnN-U_zUJSL2JajSumjTQxs7ssDaxYkuEcx8-IaLqD-EtM_-uFSZbJdgDGINdHNPfBQKqSL1KbYU5cN0-xy0]--></g></svg>