<?xml version="1.0" encoding="us-ascii" standalone="no"?><svg xmlns="http://www.w3.org/2000/svg" xmlns:xlink="http://www.w3.org/1999/xlink" contentStyleType="text/css" height="646px" preserveAspectRatio="none" style="width:764px;height:646px;background:#FFFFFF;" version="1.1" viewBox="0 0 764 646" width="764px" zoomAndPan="magnify"><defs/><g><!--class Agency--><g id="elem_Agency"><rect codeLine="12" fill="#F1F1F1" height="83.9531" id="Agency" rx="2.5" ry="2.5" style="stroke:#181818;stroke-width:0.5;" width="111" x="386.67" y="209.18"/><text fill="#000000" font-family="sans-serif" font-size="14" lengthAdjust="spacing" textLength="50" x="417.17" y="227.7152">Agency</text><line style="stroke:#181818;stroke-width:0.5;" x1="387.67" x2="496.67" y1="235.6683" y2="235.6683"/><text fill="#000000" font-family="sans-serif" font-size="14" lengthAdjust="spacing" textLength="55" x="392.67" y="253.2034">location</text><text fill="#000000" font-family="sans-serif" font-size="14" lengthAdjust="spacing" textLength="90" x="392.67" y="269.6917">emailAddres;</text><text fill="#000000" font-family="sans-serif" font-size="14" lengthAdjust="spacing" textLength="99" x="392.67" y="286.18">phoneNumber</text></g><!--class Agent--><g id="elem_Agent"><rect codeLine="17" fill="#F1F1F1" height="67.4648" id="Agent" rx="2.5" ry="2.5" style="stroke:#181818;stroke-width:0.5;" width="78" x="108.17" y="23.49"/><text fill="#000000" font-family="sans-serif" font-size="14" lengthAdjust="spacing" textLength="41" x="126.67" y="42.0252">Agent</text><line style="stroke:#181818;stroke-width:0.5;" x1="109.17" x2="185.17" y1="49.9783" y2="49.9783"/><text fill="#000000" font-family="sans-serif" font-size="14" lengthAdjust="spacing" textLength="57" x="114.17" y="67.5134">id/email</text><text fill="#000000" font-family="sans-serif" font-size="14" lengthAdjust="spacing" textLength="66" x="114.17" y="84.0017">password</text></g><!--class Location--><g id="elem_Location"><rect codeLine="22" fill="#F1F1F1" height="100.4414" id="Location" rx="2.5" ry="2.5" style="stroke:#181818;stroke-width:0.5;" width="70" x="540.17" y="7"/><text fill="#000000" font-family="sans-serif" font-size="14" lengthAdjust="spacing" textLength="58" x="546.17" y="25.5352">Location</text><line style="stroke:#181818;stroke-width:0.5;" x1="541.17" x2="609.17" y1="33.4883" y2="33.4883"/><text fill="#000000" font-family="sans-serif" font-size="14" lengthAdjust="spacing" textLength="39" x="546.17" y="51.0234">street</text><text fill="#000000" font-family="sans-serif" font-size="14" lengthAdjust="spacing" textLength="23" x="546.17" y="67.5117">city</text><text fill="#000000" font-family="sans-serif" font-size="14" lengthAdjust="spacing" textLength="33" x="546.17" y="84">state</text><text fill="#000000" font-family="sans-serif" font-size="14" lengthAdjust="spacing" textLength="58" x="546.17" y="100.4883">zip code</text></g><!--class Owner--><g id="elem_Owner"><rect codeLine="29" fill="#F1F1F1" height="133.418" id="Owner" rx="2.5" ry="2.5" style="stroke:#181818;stroke-width:0.5;" width="115" x="141.67" y="184.45"/><text fill="#000000" font-family="sans-serif" font-size="14" lengthAdjust="spacing" textLength="45" x="176.67" y="202.9852">Owner</text><line style="stroke:#181818;stroke-width:0.5;" x1="142.67" x2="255.67" y1="210.9383" y2="210.9383"/><text fill="#000000" font-family="sans-serif" font-size="14" lengthAdjust="spacing" textLength="57" x="147.67" y="228.4734">id/email</text><text fill="#000000" font-family="sans-serif" font-size="14" lengthAdjust="spacing" textLength="66" x="147.67" y="244.9617">password</text><text fill="#000000" font-family="sans-serif" font-size="14" lengthAdjust="spacing" textLength="86" x="147.67" y="261.45">emailAddres</text><text fill="#000000" font-family="sans-serif" font-size="14" lengthAdjust="spacing" textLength="4" x="147.67" y="277.9383">&#160;</text><text fill="#000000" font-family="sans-serif" font-size="14" lengthAdjust="spacing" textLength="97" x="147.67" y="294.4266">emailAddress;</text><text fill="#000000" font-family="sans-serif" font-size="14" lengthAdjust="spacing" textLength="103" x="147.67" y="310.9148">phoneNumber;</text></g><!--class Property--><g id="elem_Property"><rect codeLine="38" fill="#F1F1F1" height="100.4414" id="Property" rx="2.5" ry="2.5" style="stroke:#181818;stroke-width:0.5;" width="218" x="90.17" y="394.86"/><text fill="#000000" font-family="sans-serif" font-size="14" lengthAdjust="spacing" textLength="58" x="170.17" y="413.3952">Property</text><line style="stroke:#181818;stroke-width:0.5;" x1="91.17" x2="307.17" y1="421.3483" y2="421.3483"/><text fill="#000000" font-family="sans-serif" font-size="14" lengthAdjust="spacing" textLength="29" x="96.17" y="438.8834">type</text><text fill="#000000" font-family="sans-serif" font-size="14" lengthAdjust="spacing" textLength="30" x="96.17" y="455.3717">area</text><text fill="#000000" font-family="sans-serif" font-size="14" lengthAdjust="spacing" textLength="55" x="96.17" y="471.86">location</text><text fill="#000000" font-family="sans-serif" font-size="14" lengthAdjust="spacing" textLength="206" x="96.17" y="488.3483">distance_from_the_city_center</text></g><!--class Announcement--><g id="elem_Announcement"><rect codeLine="45" fill="#F1F1F1" height="67.4648" id="Announcement" rx="2.5" ry="2.5" style="stroke:#181818;stroke-width:0.5;" width="128" x="135.17" y="572.31"/><text fill="#000000" font-family="sans-serif" font-size="14" lengthAdjust="spacing" textLength="105" x="146.67" y="590.8452">Announcement</text><line style="stroke:#181818;stroke-width:0.5;" x1="136.17" x2="262.17" y1="598.7983" y2="598.7983"/><text fill="#000000" font-family="sans-serif" font-size="14" lengthAdjust="spacing" textLength="116" x="141.17" y="616.3334">announcementId</text><text fill="#000000" font-family="sans-serif" font-size="14" lengthAdjust="spacing" textLength="59" x="141.17" y="632.8217">property</text></g><!--class Commision--><g id="elem_Commision"><rect codeLine="49" fill="#F1F1F1" height="67.4648" id="Commision" rx="2.5" ry="2.5" style="stroke:#181818;stroke-width:0.5;" width="138" x="343.17" y="411.35"/><text fill="#000000" font-family="sans-serif" font-size="14" lengthAdjust="spacing" textLength="78" x="373.17" y="429.8852">Commision</text><line style="stroke:#181818;stroke-width:0.5;" x1="344.17" x2="480.17" y1="437.8383" y2="437.8383"/><text fill="#000000" font-family="sans-serif" font-size="14" lengthAdjust="spacing" textLength="126" x="349.17" y="455.3734">type_of_comission</text><text fill="#000000" font-family="sans-serif" font-size="14" lengthAdjust="spacing" textLength="107" x="349.17" y="471.8617">comissionValue</text></g><!--link Owner to Agent--><g id="link_Owner_Agent"><path codeLine="54" d="M141.35,216.98 C119.51,201.12 97.07,179.98 85.17,154.45 C74.51,131.57 89.69,107.71 107.69,89.47 " fill="none" id="Owner-Agent" style="stroke:#181818;stroke-width:1.0;"/><polygon fill="#000000" points="88.8938,141.2709,88.3609,150.7665,94.044,149.2663,88.8938,141.2709" style="stroke:#000000;stroke-width:1.0;"/><text fill="#000000" font-family="sans-serif" font-size="13" lengthAdjust="spacing" textLength="63" x="99.17" y="151.0184">selects an</text><text fill="#000000" font-family="sans-serif" font-size="13" lengthAdjust="spacing" textLength="8" x="125.8157" y="209.4877">1</text><text fill="#000000" font-family="sans-serif" font-size="13" lengthAdjust="spacing" textLength="22" x="78.2757" y="90.696">1..*</text></g><!--link Agent to Owner--><g id="link_Agent_Owner"><path codeLine="62" d="M156.11,91.22 C163.02,116.73 172.81,152.86 181.31,184.24 " fill="none" id="Agent-Owner" style="stroke:#181818;stroke-width:1.0;"/><polygon fill="#000000" points="179.4774,150.9313,179.9489,141.4324,174.2756,142.9694,179.4774,150.9313" style="stroke:#000000;stroke-width:1.0;"/><text fill="#000000" font-family="sans-serif" font-size="13" lengthAdjust="spacing" textLength="124" x="187.17" y="151.0184">sends a message to</text><text fill="#000000" font-family="sans-serif" font-size="13" lengthAdjust="spacing" textLength="8" x="149.0208" y="111.4681">1</text><text fill="#000000" font-family="sans-serif" font-size="13" lengthAdjust="spacing" textLength="8" x="170.9191" y="173.6858">1</text></g><!--link Owner to Property--><g id="link_Owner_Property"><path codeLine="55" d="M199.17,318.21 C199.17,343.25 199.17,371.32 199.17,394.59 " fill="none" id="Owner-Property" style="stroke:#181818;stroke-width:1.0;"/><polygon fill="#000000" points="204.17,361.5153,207.1089,352.4702,201.2311,352.4702,204.17,361.5153" style="stroke:#000000;stroke-width:1.0;"/><text fill="#000000" font-family="sans-serif" font-size="13" lengthAdjust="spacing" textLength="44" x="213.17" y="361.4284">owns a</text><text fill="#000000" font-family="sans-serif" font-size="13" lengthAdjust="spacing" textLength="8" x="190.7575" y="338.4824">1</text><text fill="#000000" font-family="sans-serif" font-size="13" lengthAdjust="spacing" textLength="22" x="175.6231" y="384.0253">1..*</text></g><!--link Agent to Announcement--><g id="link_Agent_Announcement"><path codeLine="56" d="M107.7,90.09 C94.45,103.21 81.25,119.53 74.17,137.45 C15.74,285.38 6,350.67 72.17,495.31 C86.72,527.1 115.54,553.2 142.05,571.96 " fill="none" id="Agent-Announcement" style="stroke:#181818;stroke-width:1.0;"/><polygon fill="#000000" points="35.5255,361.5026,37.8139,352.2715,31.9509,352.6894,35.5255,361.5026" style="stroke:#000000;stroke-width:1.0;"/><text fill="#000000" font-family="sans-serif" font-size="13" lengthAdjust="spacing" textLength="80" x="44.17" y="361.4284">publishes an</text><text fill="#000000" font-family="sans-serif" font-size="13" lengthAdjust="spacing" textLength="8" x="92.2286" y="109.6232">1</text><text fill="#000000" font-family="sans-serif" font-size="13" lengthAdjust="spacing" textLength="22" x="107.0646" y="561.6313">1..*</text></g><!--link Agent to Agency--><g id="link_Agent_Agency"><path codeLine="57" d="M186.46,72.1 C222.78,85.86 277.42,108.97 320.17,137.45 C350.77,157.83 381.15,185.87 403.94,208.88 " fill="none" id="Agent-Agency" style="stroke:#181818;stroke-width:1.0;"/><polygon fill="#000000" points="350.4025,148.7672,344.3105,141.4639,341.1812,146.4395,350.4025,148.7672" style="stroke:#000000;stroke-width:1.0;"/><text fill="#000000" font-family="sans-serif" font-size="13" lengthAdjust="spacing" textLength="60" x="355.17" y="151.0184">works for</text><text fill="#000000" font-family="sans-serif" font-size="13" lengthAdjust="spacing" textLength="22" x="194.1607" y="70.8218">1..*</text><text fill="#000000" font-family="sans-serif" font-size="13" lengthAdjust="spacing" textLength="8" x="389.2096" y="198.54">1</text></g><!--link Property to Announcement--><g id="link_Property_Announcement"><path codeLine="58" d="M199.17,495.51 C199.17,520.48 199.17,550.09 199.17,572.23 " fill="none" id="Property-Announcement" style="stroke:#181818;stroke-width:1.0;"/><polygon fill="#000000" points="204.17,538.9653,207.1089,529.9202,201.2311,529.9202,204.17,538.9653" style="stroke:#000000;stroke-width:1.0;"/><text fill="#000000" font-family="sans-serif" font-size="13" lengthAdjust="spacing" textLength="124" x="213.17" y="538.8784">is a requirement for</text><text fill="#000000" font-family="sans-serif" font-size="13" lengthAdjust="spacing" textLength="8" x="190.6325" y="515.8835">1</text><text fill="#000000" font-family="sans-serif" font-size="13" lengthAdjust="spacing" textLength="22" x="175.0044" y="561.6955">1..*</text></g><!--link Location to Property--><g id="link_Location_Property"><path codeLine="59" d="M610.54,92.27 C624.63,110 636.07,132.52 629.17,154.45 C602.62,238.93 584.54,262.81 515.17,317.86 C510.73,321.39 398.01,366.07 308.45,401.28 " fill="none" id="Location-Property" style="stroke:#181818;stroke-width:1.0;"/><polygon fill="#000000" points="619.6747,254.8806,628.0993,250.4672,623.8962,246.3583,619.6747,254.8806" style="stroke:#000000;stroke-width:1.0;"/><text fill="#000000" font-family="sans-serif" font-size="13" lengthAdjust="spacing" textLength="124" x="632.17" y="256.2184">is a requirement for</text><text fill="#000000" font-family="sans-serif" font-size="13" lengthAdjust="spacing" textLength="8" x="618.291" y="95.2927">1</text><text fill="#000000" font-family="sans-serif" font-size="13" lengthAdjust="spacing" textLength="8" x="316.061" y="395.412">1</text></g><!--link Location to Agency--><g id="link_Location_Agency"><path codeLine="60" d="M539.97,89.22 C525.56,103.05 509.44,120.11 497.17,137.45 C481.58,159.48 468.19,186.62 458.52,208.74 " fill="none" id="Location-Agency" style="stroke:#181818;stroke-width:1.0;"/><polygon fill="#000000" points="499.3543,150.2371,506.8766,144.4176,502.0194,141.1075,499.3543,150.2371" style="stroke:#000000;stroke-width:1.0;"/><text fill="#000000" font-family="sans-serif" font-size="13" lengthAdjust="spacing" textLength="113" x="511.17" y="151.0184">is requirement for</text><text fill="#000000" font-family="sans-serif" font-size="13" lengthAdjust="spacing" textLength="8" x="524.2525" y="91.6422">1</text><text fill="#000000" font-family="sans-serif" font-size="13" lengthAdjust="spacing" textLength="8" x="452.4883" y="198.3777">1</text></g><!--link Commision to Announcement--><g id="link_Commision_Announcement"><path codeLine="61" d="M395.8,479.09 C384.27,499.54 367.17,525.1 346.17,542.31 C322.13,562 290.99,576.47 263.57,586.52 " fill="none" id="Commision-Announcement" style="stroke:#181818;stroke-width:1.0;"/><polygon fill="#000000" points="362.2893,537.1181,371.1627,533.6956,367.4563,529.1336,362.2893,537.1181" style="stroke:#000000;stroke-width:1.0;"/><text fill="#000000" font-family="sans-serif" font-size="13" lengthAdjust="spacing" textLength="117" x="375.17" y="538.8784">is requierment  for</text><text fill="#000000" font-family="sans-serif" font-size="13" lengthAdjust="spacing" textLength="8" x="384.0443" y="499.3399">1</text><text fill="#000000" font-family="sans-serif" font-size="13" lengthAdjust="spacing" textLength="8" x="271.0513" y="581.1498">1</text></g><!--SRC=[RLDDQzmm4BthLmnxAHIIjjSD19QU0g4f17erMcbiYzLN99d5MVBVEv9ihvgkB_QCttlpPZIA9sKz3zo0STQ9CJY3aCA4B6v_F1SdFk1hcZL2G96u7NGBY2ENxgpi03tN4Hdxeh5Fa1m4DOm9fCeivInhI4Bp60yf1NMS4Zu9Pr_LEy9tnaOb4OGAWegKRuDfT38oLZXm6D2A-SA07kq4ByevGCELFaWPC3wKX1-TnL-JEM9W7mqxmOKf-QtWcQVisGL9Y0Nol8XUM4m1CJ6XqapVF25xLnw4atX5lvmjXfk2ZH_M1kIkSVPmbVeTdCUGPYZDfTbZVlE0d7tkLIhoOmLsFHrPbqRiiibEK7EbsRLRQzr4C5ERvatu98iG-AKeHH-i7WlyTCQeIBMga-gbStqd7ENZQWAsy0_N4zOSrQuZsVtOmTqTlUxll-wMkUyXegPbYC0jFDu4RaFOWpjR0XAkaZy9jgtjmKz7hUA8Y_BAAD12sYsBGrWwdLE4tWK2RkK8iOctsdjGsKJ0judsk5JBJAAkUrAfkKBZ_IRf5cTpHOp_yTUJk1B-RNobOIY9XRTDh7BgeFFqhSp636qXtUbyHn__0W00]--></g></svg>