<?xml version="1.0" encoding="UTF-8" standalone="no"?><svg xmlns="http://www.w3.org/2000/svg" xmlns:xlink="http://www.w3.org/1999/xlink" contentStyleType="text/css" height="1460px" preserveAspectRatio="none" style="width:1770px;height:1460px;background:#FFFFFF;" version="1.1" viewBox="0 0 1770 1460" width="1770px" zoomAndPan="magnify"><defs/><g><!--class ApplicationSession--><g id="elem_ApplicationSession"><rect codeLine="11" fill="#F1F1F1" height="97.1094" id="ApplicationSession" rx="2.5" ry="2.5" style="stroke:#181818;stroke-width:0.5;" width="216" x="158" y="362.5987"/><ellipse cx="174" cy="379.5987" fill="#ADD1B2" rx="12" ry="12" style="stroke:#181818;stroke-width:1.0;"/><path d="M176.8066,386.6788 Q176.123,387.0304 175.3711,387.2062 Q174.6191,387.382 173.7891,387.382 Q170.8398,387.382 169.2871,385.4386 Q167.7344,383.4952 167.7344,379.8234 Q167.7344,376.1417 169.2871,374.1984 Q170.8398,372.255 173.7891,372.255 Q174.6191,372.255 175.3809,372.4308 Q176.1426,372.6066 176.8066,372.9581 L176.8066,376.1612 Q176.0645,375.4777 175.3662,375.1603 Q174.668,374.8429 173.9258,374.8429 Q172.3438,374.8429 171.5381,376.0978 Q170.7324,377.3527 170.7324,379.8234 Q170.7324,382.2843 171.5381,383.5392 Q172.3438,384.7941 173.9258,384.7941 Q174.668,384.7941 175.3662,384.4767 Q176.0645,384.1593 176.8066,383.4757 Z " fill="#000000"/><text fill="#000000" font-family="sans-serif" font-size="20" lengthAdjust="spacing" textLength="182" x="189" y="387.1573">ApplicationSession</text><line style="stroke:#181818;stroke-width:0.5;" x1="159" x2="373" y1="396.5987" y2="396.5987"/><line style="stroke:#181818;stroke-width:0.5;" x1="159" x2="373" y1="404.5987" y2="404.5987"/><text fill="#000000" font-family="sans-serif" font-size="20" lengthAdjust="spacing" textLength="196" x="164" y="427.9347">+static getInstance()</text><text fill="#000000" font-family="sans-serif" font-size="20" lengthAdjust="spacing" textLength="204" x="164" y="451.4894">+getCurrentSession()</text></g><!--class UserSession--><g id="elem_UserSession"><rect codeLine="17" fill="#F1F1F1" height="73.5547" id="UserSession" rx="2.5" ry="2.5" style="stroke:#181818;stroke-width:0.5;" width="168" x="76" y="674.2587"/><ellipse cx="100.55" cy="691.2587" fill="#ADD1B2" rx="12" ry="12" style="stroke:#181818;stroke-width:1.0;"/><path d="M103.3566,698.3388 Q102.673,698.6904 101.9211,698.8662 Q101.1691,699.042 100.3391,699.042 Q97.3898,699.042 95.8371,697.0986 Q94.2844,695.1552 94.2844,691.4834 Q94.2844,687.8017 95.8371,685.8584 Q97.3898,683.915 100.3391,683.915 Q101.1691,683.915 101.9309,684.0908 Q102.6926,684.2666 103.3566,684.6181 L103.3566,687.8212 Q102.6145,687.1377 101.9162,686.8203 Q101.218,686.5029 100.4758,686.5029 Q98.8938,686.5029 98.0881,687.7578 Q97.2824,689.0127 97.2824,691.4834 Q97.2824,693.9443 98.0881,695.1992 Q98.8938,696.4541 100.4758,696.4541 Q101.218,696.4541 101.9162,696.1367 Q102.6145,695.8193 103.3566,695.1357 Z " fill="#000000"/><text fill="#000000" font-family="sans-serif" font-size="20" lengthAdjust="spacing" textLength="115" x="117.45" y="698.8173">UserSession</text><line style="stroke:#181818;stroke-width:0.5;" x1="77" x2="243" y1="708.2587" y2="708.2587"/><line style="stroke:#181818;stroke-width:0.5;" x1="77" x2="243" y1="716.2587" y2="716.2587"/><text fill="#000000" font-family="sans-serif" font-size="20" lengthAdjust="spacing" textLength="156" x="82" y="739.5947">+getUserEmail()</text></g><!--class Employee--><g id="elem_Employee"><rect codeLine="22" fill="#F1F1F1" height="144.2188" id="Employee" rx="2.5" ry="2.5" style="stroke:#181818;stroke-width:0.5;" width="127" x="1197.5" y="1309.3587"/><ellipse cx="1213.5" cy="1326.3587" fill="#ADD1B2" rx="12" ry="12" style="stroke:#181818;stroke-width:1.0;"/><path d="M1216.3066,1333.4388 Q1215.623,1333.7904 1214.8711,1333.9662 Q1214.1191,1334.142 1213.2891,1334.142 Q1210.3398,1334.142 1208.7871,1332.1986 Q1207.2344,1330.2552 1207.2344,1326.5834 Q1207.2344,1322.9017 1208.7871,1320.9584 Q1210.3398,1319.015 1213.2891,1319.015 Q1214.1191,1319.015 1214.8809,1319.1908 Q1215.6426,1319.3666 1216.3066,1319.7181 L1216.3066,1322.9212 Q1215.5645,1322.2377 1214.8662,1321.9203 Q1214.168,1321.6029 1213.4258,1321.6029 Q1211.8438,1321.6029 1211.0381,1322.8578 Q1210.2324,1324.1127 1210.2324,1326.5834 Q1210.2324,1329.0443 1211.0381,1330.2992 Q1211.8438,1331.5541 1213.4258,1331.5541 Q1214.168,1331.5541 1214.8662,1331.2367 Q1215.5645,1330.9193 1216.3066,1330.2357 Z " fill="#000000"/><text fill="#000000" font-family="sans-serif" font-size="20" lengthAdjust="spacing" textLength="93" x="1228.5" y="1333.9173">Employee</text><line style="stroke:#181818;stroke-width:0.5;" x1="1198.5" x2="1323.5" y1="1343.3587" y2="1343.3587"/><text fill="#000000" font-family="sans-serif" font-size="20" lengthAdjust="spacing" textLength="65" x="1203.5" y="1366.6947">-name</text><text fill="#000000" font-family="sans-serif" font-size="20" lengthAdjust="spacing" textLength="65" x="1203.5" y="1390.2494">-email</text><text fill="#000000" font-family="sans-serif" font-size="20" lengthAdjust="spacing" textLength="90" x="1203.5" y="1413.8041">-position</text><text fill="#000000" font-family="sans-serif" font-size="20" lengthAdjust="spacing" textLength="72" x="1203.5" y="1437.3587">-phone</text><line style="stroke:#181818;stroke-width:0.5;" x1="1198.5" x2="1323.5" y1="1445.5775" y2="1445.5775"/></g><!--class Task--><g id="elem_Task"><rect codeLine="29" fill="#F1F1F1" height="261.9922" id="Task" rx="2.5" ry="2.5" style="stroke:#181818;stroke-width:0.5;" width="416" x="874" y="962.3687"/><ellipse cx="1054.5" cy="979.3687" fill="#ADD1B2" rx="12" ry="12" style="stroke:#181818;stroke-width:1.0;"/><path d="M1057.3066,986.4488 Q1056.623,986.8004 1055.8711,986.9762 Q1055.1191,987.152 1054.2891,987.152 Q1051.3398,987.152 1049.7871,985.2086 Q1048.2344,983.2652 1048.2344,979.5934 Q1048.2344,975.9117 1049.7871,973.9684 Q1051.3398,972.025 1054.2891,972.025 Q1055.1191,972.025 1055.8809,972.2008 Q1056.6426,972.3766 1057.3066,972.7281 L1057.3066,975.9312 Q1056.5645,975.2477 1055.8662,974.9303 Q1055.168,974.6129 1054.4258,974.6129 Q1052.8438,974.6129 1052.0381,975.8678 Q1051.2324,977.1227 1051.2324,979.5934 Q1051.2324,982.0543 1052.0381,983.3092 Q1052.8438,984.5641 1054.4258,984.5641 Q1055.168,984.5641 1055.8662,984.2467 Q1056.5645,983.9293 1057.3066,983.2457 Z " fill="#000000"/><text fill="#000000" font-family="sans-serif" font-size="20" lengthAdjust="spacing" textLength="46" x="1076.5" y="986.9273">Task</text><line style="stroke:#181818;stroke-width:0.5;" x1="875" x2="1289" y1="996.3687" y2="996.3687"/><text fill="#000000" font-family="sans-serif" font-size="20" lengthAdjust="spacing" textLength="163" x="880" y="1019.7047">-String reference</text><text fill="#000000" font-family="sans-serif" font-size="20" lengthAdjust="spacing" textLength="182" x="880" y="1043.2594">-String description</text><text fill="#000000" font-family="sans-serif" font-size="20" lengthAdjust="spacing" textLength="265" x="880" y="1066.8141">-String informalDescription</text><text fill="#000000" font-family="sans-serif" font-size="20" lengthAdjust="spacing" textLength="269" x="880" y="1090.3687">-String technicalDescription</text><text fill="#000000" font-family="sans-serif" font-size="20" lengthAdjust="spacing" textLength="166" x="880" y="1113.9234">-Integer duration</text><text fill="#000000" font-family="sans-serif" font-size="20" lengthAdjust="spacing" textLength="126" x="880" y="1137.4781">-Double cost</text><line style="stroke:#181818;stroke-width:0.5;" x1="875" x2="1289" y1="1145.6969" y2="1145.6969"/><text fill="#000000" font-family="sans-serif" font-size="20" lengthAdjust="spacing" textLength="284" x="880" y="1169.0328">+Task(reference, description,</text><text fill="#000000" font-family="sans-serif" font-size="20" lengthAdjust="spacing" textLength="404" x="880" y="1192.5875">informalDescription, technicalDescription,</text><text fill="#000000" font-family="sans-serif" font-size="20" lengthAdjust="spacing" textLength="381" x="880" y="1216.1422">duration, cost, createdBy, taskCategory)</text></g><!--class TaskCategory--><g id="elem_TaskCategory"><rect codeLine="40" fill="#F1F1F1" height="97.1094" id="TaskCategory" rx="2.5" ry="2.5" style="stroke:#181818;stroke-width:0.5;" width="281" x="506.5" y="1332.9187"/><ellipse cx="577" cy="1349.9187" fill="#ADD1B2" rx="12" ry="12" style="stroke:#181818;stroke-width:1.0;"/><path d="M579.8066,1356.9988 Q579.123,1357.3504 578.3711,1357.5262 Q577.6191,1357.702 576.7891,1357.702 Q573.8398,1357.702 572.2871,1355.7586 Q570.7344,1353.8152 570.7344,1350.1434 Q570.7344,1346.4617 572.2871,1344.5184 Q573.8398,1342.575 576.7891,1342.575 Q577.6191,1342.575 578.3809,1342.7508 Q579.1426,1342.9266 579.8066,1343.2781 L579.8066,1346.4812 Q579.0645,1345.7977 578.3662,1345.4803 Q577.668,1345.1629 576.9258,1345.1629 Q575.3438,1345.1629 574.5381,1346.4178 Q573.7324,1347.6727 573.7324,1350.1434 Q573.7324,1352.6043 574.5381,1353.8592 Q575.3438,1355.1141 576.9258,1355.1141 Q577.668,1355.1141 578.3662,1354.7967 Q579.0645,1354.4793 579.8066,1353.7957 Z " fill="#000000"/><text fill="#000000" font-family="sans-serif" font-size="20" lengthAdjust="spacing" textLength="131" x="599" y="1357.4773">TaskCategory</text><line style="stroke:#181818;stroke-width:0.5;" x1="507.5" x2="786.5" y1="1366.9187" y2="1366.9187"/><text fill="#000000" font-family="sans-serif" font-size="20" lengthAdjust="spacing" textLength="182" x="512.5" y="1390.2547">-String description</text><line style="stroke:#181818;stroke-width:0.5;" x1="507.5" x2="786.5" y1="1398.4734" y2="1398.4734"/><text fill="#000000" font-family="sans-serif" font-size="20" lengthAdjust="spacing" textLength="269" x="512.5" y="1421.8094">+TaskCategory(description)</text></g><!--class Organization--><g id="elem_Organization"><rect codeLine="46" fill="#F1F1F1" height="332.6563" id="Organization" rx="2.5" ry="2.5" style="stroke:#181818;stroke-width:0.5;" width="806" x="957" y="544.7087"/><ellipse cx="1293.5" cy="561.7087" fill="#ADD1B2" rx="12" ry="12" style="stroke:#181818;stroke-width:1.0;"/><path d="M1296.3066,568.7888 Q1295.623,569.1404 1294.8711,569.3162 Q1294.1191,569.492 1293.2891,569.492 Q1290.3398,569.492 1288.7871,567.5486 Q1287.2344,565.6052 1287.2344,561.9334 Q1287.2344,558.2517 1288.7871,556.3084 Q1290.3398,554.365 1293.2891,554.365 Q1294.1191,554.365 1294.8809,554.5408 Q1295.6426,554.7166 1296.3066,555.0681 L1296.3066,558.2712 Q1295.5645,557.5877 1294.8662,557.2703 Q1294.168,556.9529 1293.4258,556.9529 Q1291.8438,556.9529 1291.0381,558.2078 Q1290.2324,559.4627 1290.2324,561.9334 Q1290.2324,564.3943 1291.0381,565.6492 Q1291.8438,566.9041 1293.4258,566.9041 Q1294.168,566.9041 1294.8662,566.5867 Q1295.5645,566.2693 1296.3066,565.5857 Z " fill="#000000"/><text fill="#000000" font-family="sans-serif" font-size="20" lengthAdjust="spacing" textLength="124" x="1315.5" y="569.2673">Organization</text><line style="stroke:#181818;stroke-width:0.5;" x1="958" x2="1762" y1="578.7087" y2="578.7087"/><text fill="#000000" font-family="sans-serif" font-size="20" lengthAdjust="spacing" textLength="127" x="963" y="602.0447">-String name</text><text fill="#000000" font-family="sans-serif" font-size="20" lengthAdjust="spacing" textLength="180" x="963" y="625.5994">-String vatNumber</text><text fill="#000000" font-family="sans-serif" font-size="20" lengthAdjust="spacing" textLength="147" x="963" y="649.1541">-String website</text><text fill="#000000" font-family="sans-serif" font-size="20" lengthAdjust="spacing" textLength="134" x="963" y="672.7087">-String phone</text><text fill="#000000" font-family="sans-serif" font-size="20" lengthAdjust="spacing" textLength="127" x="963" y="696.2634">-String email</text><line style="stroke:#181818;stroke-width:0.5;" x1="958" x2="1762" y1="704.4822" y2="704.4822"/><text fill="#000000" font-family="sans-serif" font-size="20" lengthAdjust="spacing" textLength="149" x="963" y="727.8181">-addTask(task)</text><text fill="#000000" font-family="sans-serif" font-size="20" lengthAdjust="spacing" textLength="187" x="963" y="751.3728">-validateTask(task)</text><text fill="#000000" font-family="sans-serif" font-size="20" lengthAdjust="spacing" textLength="298" x="963" y="774.9275">+anyEmployeeHasEmail(email)</text><text fill="#000000" font-family="sans-serif" font-size="20" lengthAdjust="spacing" textLength="794" x="963" y="798.4822">+Organization(name, vatNumber, webSite, phone, email, postalAddress, manager)</text><text fill="#000000" font-family="sans-serif" font-size="20" lengthAdjust="spacing" textLength="555" x="963" y="822.0369">+createTask(reference, description, informalDesccription,</text><text fill="#000000" font-family="sans-serif" font-size="20" lengthAdjust="spacing" textLength="593" x="963" y="845.5916">technicalDescription, duration, cost, taskCategoryDescription)</text><text fill="#000000" font-family="sans-serif" font-size="20" lengthAdjust="spacing" textLength="277" x="963" y="869.1462">-getEmployeeByEmail(email)</text></g><!--class TaskCategoryRepository--><g id="elem_TaskCategoryRepository"><rect codeLine="63" fill="#F1F1F1" height="73.5547" id="TaskCategoryRepository" rx="2.5" ry="2.5" style="stroke:#181818;stroke-width:0.5;" width="443" x="589.5" y="374.3787"/><ellipse cx="690" cy="391.3787" fill="#ADD1B2" rx="12" ry="12" style="stroke:#181818;stroke-width:1.0;"/><path d="M692.8066,398.4588 Q692.123,398.8104 691.3711,398.9862 Q690.6191,399.162 689.7891,399.162 Q686.8398,399.162 685.2871,397.2186 Q683.7344,395.2752 683.7344,391.6034 Q683.7344,387.9217 685.2871,385.9784 Q686.8398,384.035 689.7891,384.035 Q690.6191,384.035 691.3809,384.2108 Q692.1426,384.3866 692.8066,384.7381 L692.8066,387.9412 Q692.0645,387.2577 691.3662,386.9403 Q690.668,386.6229 689.9258,386.6229 Q688.3438,386.6229 687.5381,387.8778 Q686.7324,389.1327 686.7324,391.6034 Q686.7324,394.0643 687.5381,395.3192 Q688.3438,396.5741 689.9258,396.5741 Q690.668,396.5741 691.3662,396.2567 Q692.0645,395.9393 692.8066,395.2557 Z " fill="#000000"/><text fill="#000000" font-family="sans-serif" font-size="20" lengthAdjust="spacing" textLength="233" x="712" y="398.9373">TaskCategoryRepository</text><line style="stroke:#181818;stroke-width:0.5;" x1="590.5" x2="1031.5" y1="408.3787" y2="408.3787"/><line style="stroke:#181818;stroke-width:0.5;" x1="590.5" x2="1031.5" y1="416.3787" y2="416.3787"/><text fill="#000000" font-family="sans-serif" font-size="20" lengthAdjust="spacing" textLength="431" x="595.5" y="439.7147">+getTaskCategoryByDescription(description)</text></g><!--class OrganizationRepository--><g id="elem_OrganizationRepository"><rect codeLine="67" fill="#F1F1F1" height="73.5547" id="OrganizationRepository" rx="2.5" ry="2.5" style="stroke:#181818;stroke-width:0.5;" width="417" x="1260.5" y="374.3787"/><ellipse cx="1351.5" cy="391.3787" fill="#ADD1B2" rx="12" ry="12" style="stroke:#181818;stroke-width:1.0;"/><path d="M1354.3066,398.4588 Q1353.623,398.8104 1352.8711,398.9862 Q1352.1191,399.162 1351.2891,399.162 Q1348.3398,399.162 1346.7871,397.2186 Q1345.2344,395.2752 1345.2344,391.6034 Q1345.2344,387.9217 1346.7871,385.9784 Q1348.3398,384.035 1351.2891,384.035 Q1352.1191,384.035 1352.8809,384.2108 Q1353.6426,384.3866 1354.3066,384.7381 L1354.3066,387.9412 Q1353.5645,387.2577 1352.8662,386.9403 Q1352.168,386.6229 1351.4258,386.6229 Q1349.8438,386.6229 1349.0381,387.8778 Q1348.2324,389.1327 1348.2324,391.6034 Q1348.2324,394.0643 1349.0381,395.3192 Q1349.8438,396.5741 1351.4258,396.5741 Q1352.168,396.5741 1352.8662,396.2567 Q1353.5645,395.9393 1354.3066,395.2557 Z " fill="#000000"/><text fill="#000000" font-family="sans-serif" font-size="20" lengthAdjust="spacing" textLength="226" x="1373.5" y="398.9373">OrganizationRepository</text><line style="stroke:#181818;stroke-width:0.5;" x1="1261.5" x2="1676.5" y1="408.3787" y2="408.3787"/><line style="stroke:#181818;stroke-width:0.5;" x1="1261.5" x2="1676.5" y1="416.3787" y2="416.3787"/><text fill="#000000" font-family="sans-serif" font-size="20" lengthAdjust="spacing" textLength="405" x="1266.5" y="439.7147">+getOrganizationByEmployeeEmail(email)</text></g><!--class Repositories--><g id="elem_Repositories"><rect codeLine="71" fill="#F1F1F1" height="144.2188" id="Repositories" rx="2.5" ry="2.5" style="stroke:#181818;stroke-width:0.5;" width="305" x="1293.5" y="98.0487"/><ellipse cx="1382" cy="115.0487" fill="#ADD1B2" rx="12" ry="12" style="stroke:#181818;stroke-width:1.0;"/><path d="M1384.8066,122.1288 Q1384.123,122.4804 1383.3711,122.6562 Q1382.6191,122.832 1381.7891,122.832 Q1378.8398,122.832 1377.2871,120.8886 Q1375.7344,118.9452 1375.7344,115.2734 Q1375.7344,111.5917 1377.2871,109.6484 Q1378.8398,107.705 1381.7891,107.705 Q1382.6191,107.705 1383.3809,107.8808 Q1384.1426,108.0566 1384.8066,108.4081 L1384.8066,111.6112 Q1384.0645,110.9277 1383.3662,110.6103 Q1382.668,110.2929 1381.9258,110.2929 Q1380.3438,110.2929 1379.5381,111.5478 Q1378.7324,112.8027 1378.7324,115.2734 Q1378.7324,117.7343 1379.5381,118.9892 Q1380.3438,120.2441 1381.9258,120.2441 Q1382.668,120.2441 1383.3662,119.9267 Q1384.0645,119.6093 1384.8066,118.9257 Z " fill="#000000"/><text fill="#000000" font-family="sans-serif" font-size="20" lengthAdjust="spacing" textLength="119" x="1404" y="122.6073">Repositories</text><line style="stroke:#181818;stroke-width:0.5;" x1="1294.5" x2="1597.5" y1="132.0487" y2="132.0487"/><line style="stroke:#181818;stroke-width:0.5;" x1="1294.5" x2="1597.5" y1="140.0487" y2="140.0487"/><text fill="#000000" font-family="sans-serif" font-size="20" lengthAdjust="spacing" textLength="145" x="1299.5" y="163.3847">-Repositories()</text><text fill="#000000" font-family="sans-serif" font-size="20" lengthAdjust="spacing" textLength="276" x="1299.5" y="186.9394">+getInstance() : Repositories</text><text fill="#000000" font-family="sans-serif" font-size="20" lengthAdjust="spacing" textLength="293" x="1299.5" y="210.4941">+getTaskCategoryRepository()</text><text fill="#000000" font-family="sans-serif" font-size="20" lengthAdjust="spacing" textLength="286" x="1299.5" y="234.0487">+getOrganizationRepository()</text></g><!--class CreateTaskController--><g id="elem_CreateTaskController"><rect codeLine="78" fill="#F1F1F1" height="214.8828" id="CreateTaskController" rx="2.5" ry="2.5" style="stroke:#181818;stroke-width:0.5;" width="707" x="203.5" y="62.7188"/><ellipse cx="450.5" cy="79.7188" fill="#ADD1B2" rx="12" ry="12" style="stroke:#181818;stroke-width:1.0;"/><path d="M453.3066,86.7988 Q452.623,87.1504 451.8711,87.3262 Q451.1191,87.502 450.2891,87.502 Q447.3398,87.502 445.7871,85.5586 Q444.2344,83.6152 444.2344,79.9434 Q444.2344,76.2617 445.7871,74.3184 Q447.3398,72.375 450.2891,72.375 Q451.1191,72.375 451.8809,72.5508 Q452.6426,72.7266 453.3066,73.0781 L453.3066,76.2813 Q452.5645,75.5977 451.8662,75.2803 Q451.168,74.9629 450.4258,74.9629 Q448.8438,74.9629 448.0381,76.2178 Q447.2324,77.4727 447.2324,79.9434 Q447.2324,82.4043 448.0381,83.6592 Q448.8438,84.9141 450.4258,84.9141 Q451.168,84.9141 451.8662,84.5967 Q452.5645,84.2793 453.3066,83.5957 Z " fill="#000000"/><text fill="#000000" font-family="sans-serif" font-size="20" lengthAdjust="spacing" textLength="204" x="472.5" y="87.2773">CreateTaskController</text><line style="stroke:#181818;stroke-width:0.5;" x1="204.5" x2="909.5" y1="96.7188" y2="96.7188"/><line style="stroke:#181818;stroke-width:0.5;" x1="204.5" x2="909.5" y1="104.7188" y2="104.7188"/><text fill="#000000" font-family="sans-serif" font-size="20" lengthAdjust="spacing" textLength="695" x="209.5" y="128.0547">+CreateTaskController(organizationRepository, taskCategoryRepository)</text><text fill="#000000" font-family="sans-serif" font-size="20" lengthAdjust="spacing" textLength="208" x="209.5" y="151.6094">+getTaskCategories()</text><text fill="#000000" font-family="sans-serif" font-size="20" lengthAdjust="spacing" textLength="448" x="209.5" y="175.1641">+createTask(userEmail, reference, description,</text><text fill="#000000" font-family="sans-serif" font-size="20" lengthAdjust="spacing" textLength="404" x="209.5" y="198.7188">informalDescription, technicalDescription,</text><text fill="#000000" font-family="sans-serif" font-size="20" lengthAdjust="spacing" textLength="342" x="209.5" y="222.2734">duration, cost, categoryDescription)</text><text fill="#000000" font-family="sans-serif" font-size="20" lengthAdjust="spacing" textLength="554" x="209.5" y="245.8281">-getTaskCategoryByDescription(taskCategoryDescription)</text><text fill="#000000" font-family="sans-serif" font-size="20" lengthAdjust="spacing" textLength="271" x="209.5" y="269.3828">-getEmployeeFromSession()</text></g><g id="elem_GMN12"><path d="M945.5,118.0487 L945.5,222.2675 L1258.5,222.2675 L1258.5,128.0487 L1248.5,118.0487 L945.5,118.0487 " fill="#FEFFDD" style="stroke:#181818;stroke-width:0.5;"/><path d="M1248.5,118.0487 L1248.5,128.0487 L1258.5,128.0487 L1248.5,118.0487 " fill="#FEFFDD" style="stroke:#181818;stroke-width:1.0;"/><text fill="#000000" font-family="sans-serif" font-size="20" lengthAdjust="spacing" textLength="225" x="951.5" y="142.3847">- userEmail is obtained</text><text fill="#000000" font-family="sans-serif" font-size="20" lengthAdjust="spacing" textLength="206" x="951.5" y="165.9394">from the user session</text><text fill="#000000" font-family="sans-serif" font-size="20" lengthAdjust="spacing" textLength="209" x="951.5" y="189.4941">- categoryDescription</text><text fill="#000000" font-family="sans-serif" font-size="20" lengthAdjust="spacing" textLength="292" x="951.5" y="213.0487">is retrieved from selected data</text></g><g id="elem_GMN15"><path d="M699.5,682.4887 L699.5,739.5981 A0,0 0 0 0 699.5,739.5981 L922.5,739.5981 A0,0 0 0 0 922.5,739.5981 L922.5,692.4887 L912.5,682.4887 L815,682.4887 L811,448.3887 L807,682.4887 L699.5,682.4887 A0,0 0 0 0 699.5,682.4887 " fill="#FEFFDD" style="stroke:#181818;stroke-width:0.5;"/><path d="M912.5,682.4887 L912.5,692.4887 L922.5,692.4887 L912.5,682.4887 " fill="#FEFFDD" style="stroke:#181818;stroke-width:0.5;"/><text fill="#000000" font-family="sans-serif" font-size="20" lengthAdjust="spacing" textLength="202" x="705.5" y="706.8247">- used for displaying</text><text fill="#000000" font-family="sans-serif" font-size="20" lengthAdjust="spacing" textLength="152" x="705.5" y="730.3794">the category list</text></g><!--class CreateTaskUI--><g id="elem_CreateTaskUI"><rect codeLine="98" fill="#F1F1F1" height="50" id="CreateTaskUI" rx="2.5" ry="2.5" style="stroke:#181818;stroke-width:0.5;" width="162" x="7" y="145.1587"/><ellipse cx="23" cy="162.1587" fill="#ADD1B2" rx="12" ry="12" style="stroke:#181818;stroke-width:1.0;"/><path d="M25.8066,169.2388 Q25.123,169.5904 24.3711,169.7662 Q23.6191,169.942 22.7891,169.942 Q19.8398,169.942 18.2871,167.9986 Q16.7344,166.0552 16.7344,162.3834 Q16.7344,158.7017 18.2871,156.7584 Q19.8398,154.815 22.7891,154.815 Q23.6191,154.815 24.3809,154.9908 Q25.1426,155.1666 25.8066,155.5181 L25.8066,158.7212 Q25.0645,158.0377 24.3662,157.7203 Q23.668,157.4029 22.9258,157.4029 Q21.3438,157.4029 20.5381,158.6578 Q19.7324,159.9127 19.7324,162.3834 Q19.7324,164.8443 20.5381,166.0992 Q21.3438,167.3541 22.9258,167.3541 Q23.668,167.3541 24.3662,167.0367 Q25.0645,166.7193 25.8066,166.0357 Z " fill="#000000"/><text fill="#000000" font-family="sans-serif" font-size="20" lengthAdjust="spacing" textLength="128" x="38" y="169.7173">CreateTaskUI</text><line style="stroke:#181818;stroke-width:0.5;" x1="8" x2="168" y1="179.1587" y2="179.1587"/><line style="stroke:#181818;stroke-width:0.5;" x1="8" x2="168" y1="187.1587" y2="187.1587"/></g><!--link CreateTaskController to GMN12--><g id="link_CreateTaskController_GMN12"><path d="M910.57,170.1587 C916.74,170.1587 920.33,170.1587 920.33,170.1587 C920.33,170.1587 930.15,170.1587 945.21,170.1587 " fill="none" id="CreateTaskController-GMN12" style="stroke:#181818;stroke-width:1.0;stroke-dasharray:7.0,7.0;"/></g><!--link Repositories to Repositories--><g id="link_Repositories_Repositories"><path codeLine="101" d="M1598.66,145.1487 C1619.56,149.2987 1633.5,157.6387 1633.5,170.1587 C1633.5,181.5087 1622.05,189.4187 1604.34,193.8987 " fill="none" id="Repositories-to-Repositories" style="stroke:#181818;stroke-width:1.0;"/><polygon fill="#181818" points="1599.66,195.1787,1609.3188,197.1042,1604.5379,194.0805,1607.5616,189.2996,1599.66,195.1787" style="stroke:#181818;stroke-width:1.0;"/><text fill="#000000" font-family="sans-serif" font-size="20" lengthAdjust="spacing" textLength="79" x="1639.5" y="177.9947">instance</text></g><!--link ApplicationSession to ApplicationSession--><g id="link_ApplicationSession_ApplicationSession"><path codeLine="102" d="M374.5,394.9588 C394.74,396.9588 409,402.3587 409,411.1587 C409,419.1387 397.29,424.3187 380.03,426.6987 " fill="none" id="ApplicationSession-to-ApplicationSession" style="stroke:#181818;stroke-width:1.0;"/><polygon fill="#181818" points="375.5,427.3487,384.9062,430.2682,380.4657,426.7637,383.9702,422.3232,375.5,427.3487" style="stroke:#181818;stroke-width:1.0;"/><text fill="#000000" font-family="sans-serif" font-size="20" lengthAdjust="spacing" textLength="79" x="415" y="418.9947">instance</text></g><!--link CreateTaskUI to CreateTaskController--><g id="link_CreateTaskUI_CreateTaskController"><path codeLine="104" d="M169.37,170.1587 C178.99,170.1587 188.54,170.1587 197.44,170.1587 " fill="none" id="CreateTaskUI-to-CreateTaskController" style="stroke:#181818;stroke-width:1.0;stroke-dasharray:7.0,7.0;"/><polygon fill="#181818" points="202.19,170.1587,193.19,166.1587,197.19,170.1587,193.19,174.1587,202.19,170.1587" style="stroke:#181818;stroke-width:1.0;"/></g><!--link CreateTaskController to Repositories--><g id="link_CreateTaskController_Repositories"><path codeLine="106" d="M910.6,67.7587 C921.65,64.5587 928,62.7188 928,62.7188 C928,62.7188 1044,32.7088 1044,32.7088 C1044,32.7088 1160,32.7088 1160,32.7088 C1160,32.7088 1276,62.7188 1276,62.7188 C1276,62.7188 1298.04,76.6487 1326.24,94.4688 " fill="none" id="CreateTaskController-to-Repositories" style="stroke:#181818;stroke-width:1.0;stroke-dasharray:7.0,7.0;"/><polygon fill="#181818" points="1330.19,97.5987,1324.7176,89.4102,1325.9629,94.9282,1320.4448,96.1735,1330.19,97.5987" style="stroke:#181818;stroke-width:1.0;"/><text fill="#000000" font-family="sans-serif" font-size="20" lengthAdjust="spacing" textLength="114" x="1045" y="28.0547">repositories</text></g><!--link Repositories to TaskCategoryRepository--><g id="link_Repositories_TaskCategoryRepository"><path codeLine="108" d="M1426.13,242.4387 C1414.08,285.6887 1401,332.5987 1401,332.5987 C1401,332.5987 1060,362.5987 1060,362.5987 C1060,362.5987 1037.59,366.8787 1006.21,372.8787 " fill="none" id="Repositories-to-TaskCategoryRepository" style="stroke:#181818;stroke-width:1.0;"/><polygon fill="#181818" points="1001.67,373.9287,1011.2574,376.1831,1006.5826,372.9978,1009.7679,368.323,1001.67,373.9287" style="stroke:#181818;stroke-width:1.0;"/><text fill="#000000" font-family="sans-serif" font-size="20" lengthAdjust="spacing" textLength="13" x="1018.0075" y="362.2402">1</text></g><!--link CreateTaskController to TaskCategory--><g id="link_CreateTaskController_TaskCategory"><path codeLine="110" d="M547.61,278.0787 C542.01,341.7088 536,410.1587 536,410.1587 C536,410.1587 536,410.1587 536,1094.3687 C536,1094.3687 594.24,1244.4687 626.34,1327.2288 " fill="none" id="CreateTaskController-to-TaskCategory" style="stroke:#181818;stroke-width:1.0;stroke-dasharray:7.0,7.0;"/><polygon fill="#181818" points="628.42,1331.5788,628.9064,1321.7419,626.6174,1326.915,621.4444,1324.626,628.42,1331.5788" style="stroke:#181818;stroke-width:1.0;"/></g><!--link CreateTaskController to OrganizationRepository--><g id="link_CreateTaskController_OrganizationRepository"><path codeLine="111" d="M910.6,272.6087 C921.65,275.7787 928,277.5987 928,277.5987 C928,277.5987 1129,307.5987 1129,307.5987 C1129,307.5987 1246.75,343.1187 1343.66,372.3487 " fill="none" id="CreateTaskController-to-OrganizationRepository" style="stroke:#181818;stroke-width:1.0;stroke-dasharray:7.0,7.0;"/><polygon fill="#181818" points="1348.13,373.9988,1340.6677,367.5711,1343.3428,372.5555,1338.3585,375.2306,1348.13,373.9988" style="stroke:#181818;stroke-width:1.0;"/><text fill="#000000" font-family="sans-serif" font-size="20" lengthAdjust="spacing" textLength="222" x="1213" y="327.9347">organizationRepository</text></g><!--link CreateTaskController to TaskCategoryRepository--><g id="link_CreateTaskController_TaskCategoryRepository"><path codeLine="112" d="M670.63,278.0787 C705.36,310.7587 741.44,344.6987 768.32,369.9988 " fill="none" id="CreateTaskController-to-TaskCategoryRepository" style="stroke:#181818;stroke-width:1.0;stroke-dasharray:7.0,7.0;"/><polygon fill="#181818" points="771.55,372.9788,767.7377,363.8977,767.909,369.5519,762.2547,369.7233,771.55,372.9788" style="stroke:#181818;stroke-width:1.0;"/><text fill="#000000" font-family="sans-serif" font-size="20" lengthAdjust="spacing" textLength="233" x="723" y="327.9347">TaskCategoryRepository</text></g><!--link Repositories to OrganizationRepository--><g id="link_Repositories_OrganizationRepository"><path codeLine="114" d="M1452.87,242.5487 C1456.81,283.4988 1461.62,333.5087 1464.96,368.1887 " fill="none" id="Repositories-to-OrganizationRepository" style="stroke:#181818;stroke-width:1.0;"/><polygon fill="#181818" points="1465.53,373.0487,1468.665,363.7122,1465.0593,368.071,1460.7005,364.4653,1465.53,373.0487" style="stroke:#181818;stroke-width:1.0;"/><text fill="#000000" font-family="sans-serif" font-size="20" lengthAdjust="spacing" textLength="13" x="1450.8164" y="362.078">1</text></g><!--link OrganizationRepository to Organization--><g id="link_OrganizationRepository_Organization"><path codeLine="116" d="M1455.74,448.3887 C1447.13,471.9387 1435.2,504.5387 1422.68,538.7487 " fill="none" id="OrganizationRepository-to-Organization" style="stroke:#181818;stroke-width:1.0;"/><polygon fill="#181818" points="1420.67,543.2487,1427.5307,536.1826,1422.3959,538.5561,1420.0224,533.4212,1420.67,543.2487" style="stroke:#181818;stroke-width:1.0;"/><text fill="#000000" font-family="sans-serif" font-size="20" lengthAdjust="spacing" textLength="10" x="1413.1925" y="532.5186">*</text></g><!--link ApplicationSession to UserSession--><g id="link_ApplicationSession_UserSession"><path codeLine="117" d="M248.97,460.0187 C228.43,517.7387 194.25,613.7987 174.77,668.5188 " fill="none" id="ApplicationSession-to-UserSession" style="stroke:#181818;stroke-width:1.0;"/><polygon fill="#181818" points="172.82,673.0087,179.6167,665.881,174.5035,668.3007,172.0838,663.1874,172.82,673.0087" style="stroke:#181818;stroke-width:1.0;"/><text fill="#000000" font-family="sans-serif" font-size="20" lengthAdjust="spacing" textLength="113" x="239" y="510.0447">userSession</text><text fill="#000000" font-family="sans-serif" font-size="20" lengthAdjust="spacing" textLength="13" x="160.9063" y="662.0517">1</text></g><!--link CreateTaskController to Organization--><g id="link_CreateTaskController_Organization"><path codeLine="119" d="M876.72,278.0787 C928.21,295.2987 965,307.5987 965,307.5987 C965,307.5987 1050,362.5987 1050,362.5987 C1050,362.5987 1121,459.7087 1121,459.7087 C1121,459.7087 1155.22,495.5587 1197.77,540.1187 " fill="none" id="CreateTaskController-to-Organization" style="stroke:#181818;stroke-width:1.0;stroke-dasharray:7.0,7.0;"/><polygon fill="#181818" points="1200.91,543.4587,1197.5987,534.1832,1197.4614,539.8384,1191.8062,539.701,1200.91,543.4587" style="stroke:#181818;stroke-width:1.0;"/><text fill="#000000" font-family="sans-serif" font-size="20" lengthAdjust="spacing" textLength="120" x="1122" y="418.9947">organization</text><text fill="#000000" font-family="sans-serif" font-size="20" lengthAdjust="spacing" textLength="13" x="1181.452" y="532.7381">1</text></g><!--link CreateTaskController to ApplicationSession--><g id="link_CreateTaskController_ApplicationSession"><path codeLine="120" d="M426.82,278.0787 C392.78,306.0387 357.6,334.9287 328.86,358.5287 " fill="none" id="CreateTaskController-to-ApplicationSession" style="stroke:#181818;stroke-width:1.0;stroke-dasharray:7.0,7.0;"/><polygon fill="#181818" points="325.31,362.2687,334.8023,359.6425,329.1721,359.0932,329.7214,353.4631,325.31,362.2687" style="stroke:#181818;stroke-width:1.0;"/></g><!--link CreateTaskController to UserSession--><g id="link_CreateTaskController_UserSession"><path codeLine="121" d="M324.12,278.0787 C228.6,321.9287 140,362.5987 140,362.5987 C140,362.5987 140,459.7087 140,459.7087 C140,459.7087 150.95,596.7688 156.65,668.0587 " fill="none" id="CreateTaskController-to-UserSession" style="stroke:#181818;stroke-width:1.0;stroke-dasharray:7.0,7.0;"/><polygon fill="#181818" points="157.11,672.9087,160.3774,663.6177,156.7101,667.9248,152.4031,664.2575,157.11,672.9087" style="stroke:#181818;stroke-width:1.0;"/></g><!--link Task to TaskCategory--><g id="link_Task_TaskCategory"><path codeLine="122" d="M883.59,1224.8587 C827.27,1261.8987 769.23,1300.0788 724.73,1329.3388 " fill="none" id="Task-to-TaskCategory" style="stroke:#181818;stroke-width:1.0;"/><polygon fill="#181818" points="720.93,1332.5088,730.6476,1330.9063,725.1078,1329.7617,726.2524,1324.2219,720.93,1332.5088" style="stroke:#181818;stroke-width:1.0;"/><text fill="#000000" font-family="sans-serif" font-size="20" lengthAdjust="spacing" textLength="125" x="840" y="1274.6947">taskCategory</text><text fill="#000000" font-family="sans-serif" font-size="20" lengthAdjust="spacing" textLength="10" x="863.1017" y="1251.5821">*</text><text fill="#000000" font-family="sans-serif" font-size="20" lengthAdjust="spacing" textLength="13" x="715.8565" y="1320.757">1</text></g><!--link TaskCategoryRepository to TaskCategory--><g id="link_TaskCategoryRepository_TaskCategory"><path codeLine="123" d="M775.75,448.3787 C737.56,487.6287 682,544.7087 682,544.7087 C682,544.7087 656.99,1141.9087 649.25,1326.6587 " fill="none" id="TaskCategoryRepository-to-TaskCategory" style="stroke:#181818;stroke-width:1.0;"/><polygon fill="#181818" points="649.01,1331.5288,653.3665,1322.6958,649.2098,1326.5327,645.3729,1322.3761,649.01,1331.5288" style="stroke:#181818;stroke-width:1.0;"/><text fill="#000000" font-family="sans-serif" font-size="20" lengthAdjust="spacing" textLength="125" x="668" y="927.7047">taskCategory</text><text fill="#000000" font-family="sans-serif" font-size="20" lengthAdjust="spacing" textLength="13" x="756.357" y="475.2178">1</text><text fill="#000000" font-family="sans-serif" font-size="20" lengthAdjust="spacing" textLength="10" x="638.6082" y="1320.7797">*</text></g><!--link Organization to Task--><g id="link_Organization_Task"><path codeLine="124" d="M1238.87,877.7487 C1219.45,904.3187 1199.56,931.5387 1180.74,957.2788 " fill="none" id="Organization-to-Task" style="stroke:#181818;stroke-width:1.0;"/><polygon fill="#181818" points="1177.24,961.0687,1185.7901,956.1805,1180.1987,957.0381,1179.3411,951.4466,1177.24,961.0687" style="stroke:#181818;stroke-width:1.0;"/><text fill="#000000" font-family="sans-serif" font-size="20" lengthAdjust="spacing" textLength="50" x="1214" y="927.7047">tasks</text><text fill="#000000" font-family="sans-serif" font-size="20" lengthAdjust="spacing" textLength="13" x="1220.4856" y="904.6147">1</text><text fill="#000000" font-family="sans-serif" font-size="20" lengthAdjust="spacing" textLength="10" x="1172.457" y="950.1653">*</text></g><!--link Task to Employee--><g id="link_Task_Employee"><path codeLine="125" d="M1163.64,1224.8587 C1180.67,1252.0788 1198.08,1279.9087 1213.39,1304.3687 " fill="none" id="Task-to-Employee" style="stroke:#181818;stroke-width:1.0;"/><polygon fill="#181818" points="1216.42,1308.2088,1215.0568,1298.4547,1213.7764,1303.9647,1208.2664,1302.6844,1216.42,1308.2088" style="stroke:#181818;stroke-width:1.0;"/><text fill="#000000" font-family="sans-serif" font-size="20" lengthAdjust="spacing" textLength="93" x="1194" y="1274.6947">createdBy</text></g><!--link Organization to Employee--><g id="link_Organization_Employee"><path codeLine="127" d="M1343.19,877.6687 C1328,1027.3487 1308,1224.3587 1308,1224.3587 C1308,1224.3587 1296,1279.3587 1296,1279.3587 C1296,1279.3587 1292.52,1289.4287 1287.74,1303.2088 " fill="none" id="Organization-to-Employee" style="stroke:#181818;stroke-width:1.0;"/><polygon fill="#181818" points="1285.78,1307.8787,1292.5121,1300.69,1287.4209,1303.1557,1284.9552,1298.0645,1285.78,1307.8787" style="stroke:#181818;stroke-width:1.0;"/><text fill="#000000" font-family="sans-serif" font-size="20" lengthAdjust="spacing" textLength="81" x="1335" y="1101.2047">employs</text><text fill="#000000" font-family="sans-serif" font-size="20" lengthAdjust="spacing" textLength="10" x="1277.6653" y="1297.2264">*</text></g><!--SRC=[jLPBRzGm4BxxLrXSkeKK5OuzLEe3H2yWiVJ6nPlCxbfrxCXsMgM8_yxOUOrJf-g57ghiF3v_y_2CtOFKZR2YLgPyW8fNi1Ujyb-Dzblv3FppEJjnemslZJRbqPeQkBSji5dJYF91763hEmNSGkc5FYXgu8wYCazI7_XUA4SrIchmNGEyCQeBF-Y9az9ORnZnAfLmxifxAtUjXxlIwCZtdB4J1NlFlU5M7ewULpBGaKOp5dtuLTCeMOeWse9pGVE7SVpxm9r7SSaFuEyqVkiIDgU32cKthRM0UUcTKFDtXBntO9TOw134NseX5RNzKZVAT02yDppZMjGmV48m7huRusIaFVmy6ipCXF9Bk8S9OOjPmCHQs0CIB24LL-1AAnk2DIYatXjR2tMxPk2XF6fCLSRYJdiuWELLQmKHtvfsXmrG6kVPa8V0T3DHAoYTuhVES2YovwBjU5OHyV6_1U6XkkxG0m-vmHy7OxlJD4kZU9ajcXP2TJJV43r1_64FGildo6E9I0evI1w5_zxMEx2f-0bsMDk5RL_WHDItmo0JLHLJ6K8z7MIFGiaA2IyK7xZGtTXdtuJhUp2YZGOqZaqWNinaYq1mYmIBdbJH4ob2ItgXhghAOgyNl1OQhxmT8Vjol5RkfED8ORFrvijoqnhVqkBqkS3xDePytIKHinEavyGZJLEsHNv2l7HpiyHRJ2skwSblQ94y8hMudWgLS9xG9WG9RceuAgGJQfvQ_28noaSpiwCWUVvqXDrCbRx1FM6DKZW9nlXooet9OgOrdUMdMReqLj9hxJXa2_v_fiohBRVU76zlrw-uK9Ebees7ONkPVJQX0yWKEvUEcvqNk2shgDiZ9lT7Y2RS3Rkfzyf453M8OG4d3ppYGo02E52uEyEpG7Z1G5SyK1i8xeptQ8CCypqrSqGqWwj2kaQ93WTRr0Ho8nDSyxWmPlnbcztVONjXOfBBS7QPNeuB72zz-xENApvOPwJ4XoN7VRpCvvrbU__Z2ogMNhuNlDzzUhUMj9K3y0Jgi6wrCdqkUFuAlksu16YDU1ha46MU3cChDAFR-zGjMyq1dZoya5bBdc7hWIrfBNApxfXvEAxQqXTXVAk5gCuofSVJwQHWAsaFRcDoNdDF0biw3SQkPnGqqsFqOdvDfSMP08Wfn4_7_W40]--></g></svg>