<?xml version="1.0" encoding="us-ascii" standalone="no"?><svg xmlns="http://www.w3.org/2000/svg" xmlns:xlink="http://www.w3.org/1999/xlink" contentStyleType="text/css" height="267.6px" preserveAspectRatio="none" style="width:430px;height:267px;background:#FFFFFF;" version="1.1" viewBox="0 0 430 267" width="430.8px" zoomAndPan="magnify"><defs/><g><rect fill="#FFFFFF" height="168.8531" style="stroke:#181818;stroke-width:0.6;" width="6" x="187.2" y="57.7969"/><rect fill="#FFFFFF" height="73.5422" style="stroke:#181818;stroke-width:0.6;" width="6" x="190.2" y="127.5938"/><rect fill="#FFFFFF" height="23.7141" style="stroke:#181818;stroke-width:0.6;" width="6" x="193.2" y="152.5078"/><rect fill="none" height="143.3391" style="stroke:#000000;stroke-width:0.8999999999999999;" width="272.4" x="154.8" y="66.7969"/><line style="stroke:#181818;stroke-width:0.3;stroke-dasharray:5.0,5.0;" x1="190.2" x2="190.2" y1="30.7687" y2="237.45"/><line style="stroke:#181818;stroke-width:0.3;stroke-dasharray:5.0,5.0;" x1="405.6" x2="405.6" y1="99.5953" y2="237.45"/><rect fill="#E3E3E3" height="27.1688" rx="1.5" ry="1.5" style="stroke:#181818;stroke-width:0.3;" width="58.8" x="160.8" y="3"/><text fill="#000000" font-family="sans-serif" font-size="8.4" lengthAdjust="spacing" textLength="46.2" x="167.1" y="14.8043">organization</text><text fill="#000000" font-family="sans-serif" font-size="8.4" lengthAdjust="spacing" textLength="50.4" x="165" y="24.1887">:Organization</text><rect fill="#E3E3E3" height="27.1688" rx="1.5" ry="1.5" style="stroke:#181818;stroke-width:0.3;" width="58.8" x="160.8" y="236.85"/><text fill="#000000" font-family="sans-serif" font-size="8.4" lengthAdjust="spacing" textLength="46.2" x="167.1" y="248.6543">organization</text><text fill="#000000" font-family="sans-serif" font-size="8.4" lengthAdjust="spacing" textLength="50.4" x="165" y="258.0387">:Organization</text><rect fill="#E3E3E3" height="27.1688" rx="1.5" ry="1.5" style="stroke:#181818;stroke-width:0.3;" width="31.2" x="390" y="236.85"/><text fill="#000000" font-family="sans-serif" font-size="8.4" lengthAdjust="spacing" textLength="19.2" x="396" y="248.6543">store</text><text fill="#000000" font-family="sans-serif" font-size="8.4" lengthAdjust="spacing" textLength="22.8" x="394.2" y="258.0387">:Store</text><rect fill="#FFFFFF" height="168.8531" style="stroke:#181818;stroke-width:0.6;" width="6" x="187.2" y="57.7969"/><rect fill="#FFFFFF" height="73.5422" style="stroke:#181818;stroke-width:0.6;" width="6" x="190.2" y="127.5938"/><rect fill="#FFFFFF" height="23.7141" style="stroke:#181818;stroke-width:0.6;" width="6" x="193.2" y="152.5078"/><polygon fill="#181818" points="180,55.3969,186,57.7969,180,60.1969,182.4,57.7969" style="stroke:#181818;stroke-width:0.6;"/><line style="stroke:#181818;stroke-width:0.6;" x1="0" x2="183.6" y1="57.7969" y2="57.7969"/><text fill="#000000" font-family="sans-serif" font-size="7.8" font-weight="bold" lengthAdjust="spacing" textLength="8.4" x="4.2" y="50.5869">10</text><text fill="#000000" font-family="sans-serif" font-size="7.8" lengthAdjust="spacing" textLength="131.4" x="15" y="46.2299">registerStore(id, designation, location,</text><text fill="#000000" font-family="sans-serif" font-size="7.8" lengthAdjust="spacing" textLength="165" x="15" y="54.9439">emailAddress, telephoneNumber, administrator)</text><path d="M154.8,66.7969 L235.8,66.7969 L235.8,70.7109 L229.8,76.7109 L154.8,76.7109 L154.8,66.7969 " fill="#EEEEEE" style="stroke:#000000;stroke-width:0.8999999999999999;"/><rect fill="none" height="143.3391" style="stroke:#000000;stroke-width:0.8999999999999999;" width="272.4" x="154.8" y="66.7969"/><text fill="#000000" font-family="sans-serif" font-size="7.8" font-weight="bold" lengthAdjust="spacing" textLength="54" x="163.8" y="74.458">Register Store</text><polygon fill="#181818" points="382.8,95.3391,388.8,97.7391,382.8,100.1391,385.2,97.7391" style="stroke:#181818;stroke-width:0.6;"/><line style="stroke:#181818;stroke-width:0.6;" x1="193.2" x2="386.4" y1="97.7391" y2="97.7391"/><text fill="#000000" font-family="sans-serif" font-size="7.8" font-weight="bold" lengthAdjust="spacing" textLength="15" x="197.4" y="90.5291">10.1</text><text fill="#000000" font-family="sans-serif" font-size="7.8" lengthAdjust="spacing" textLength="131.4" x="214.8" y="86.1721">registerStore(id, designation, location,</text><text fill="#000000" font-family="sans-serif" font-size="7.8" lengthAdjust="spacing" textLength="165" x="214.8" y="94.8861">emailAddress, telephoneNumber, administrator)</text><rect fill="#E3E3E3" height="27.1688" rx="1.5" ry="1.5" style="stroke:#181818;stroke-width:0.3;" width="31.2" x="390" y="76.7109"/><text fill="#000000" font-family="sans-serif" font-size="8.4" lengthAdjust="spacing" textLength="19.2" x="396" y="88.5152">store</text><text fill="#000000" font-family="sans-serif" font-size="8.4" lengthAdjust="spacing" textLength="22.8" x="394.2" y="97.8996">:Store</text><line style="stroke:#181818;stroke-width:0.6;" x1="196.2" x2="221.4" y1="122.7937" y2="122.7937"/><line style="stroke:#181818;stroke-width:0.6;" x1="221.4" x2="221.4" y1="122.7937" y2="130.5938"/><line style="stroke:#181818;stroke-width:0.6;" x1="196.8" x2="221.4" y1="130.5938" y2="130.5938"/><polygon fill="#181818" points="202.8,128.1938,196.8,130.5938,202.8,132.9938,200.4,130.5938" style="stroke:#181818;stroke-width:0.6;"/><text fill="#000000" font-family="sans-serif" font-size="7.8" font-weight="bold" lengthAdjust="spacing" textLength="15" x="200.4" y="119.9408">10.2</text><text fill="#000000" font-family="sans-serif" font-size="7.8" lengthAdjust="spacing" textLength="53.4" x="217.8" y="119.9408">addStore(store)</text><line style="stroke:#181818;stroke-width:0.6;" x1="196.2" x2="224.4" y1="144.7078" y2="144.7078"/><line style="stroke:#181818;stroke-width:0.6;" x1="224.4" x2="224.4" y1="144.7078" y2="152.5078"/><line style="stroke:#181818;stroke-width:0.6;" x1="199.8" x2="224.4" y1="152.5078" y2="152.5078"/><polygon fill="#181818" points="205.8,150.1078,199.8,152.5078,205.8,154.9078,203.4,152.5078" style="stroke:#181818;stroke-width:0.6;"/><text fill="#000000" font-family="sans-serif" font-size="7.8" font-weight="bold" lengthAdjust="spacing" textLength="15" x="203.4" y="141.8549">10.3</text><text fill="#000000" font-family="sans-serif" font-size="7.8" lengthAdjust="spacing" textLength="66.6" x="220.8" y="141.8549">validateStore(store)</text><line style="stroke:#181818;stroke-width:0.6;stroke-dasharray:2.0,2.0;" x1="199.2" x2="224.4" y1="175.6219" y2="175.6219"/><line style="stroke:#181818;stroke-width:0.6;stroke-dasharray:2.0,2.0;" x1="224.4" x2="224.4" y1="175.6219" y2="183.4219"/><line style="stroke:#181818;stroke-width:0.6;stroke-dasharray:2.0,2.0;" x1="196.2" x2="224.4" y1="183.4219" y2="183.4219"/><polygon fill="#181818" points="202.2,181.0219,196.2,183.4219,202.2,185.8219,199.8,183.4219" style="stroke:#181818;stroke-width:0.6;"/><text fill="#000000" font-family="sans-serif" font-size="7.8" font-weight="bold" lengthAdjust="spacing" textLength="15" x="203.4" y="172.7689">10.4</text><text fill="#000000" font-family="sans-serif" font-size="7.8" lengthAdjust="spacing" textLength="2.4" x="220.8" y="172.7689">&#160;</text><line style="stroke:#181818;stroke-width:0.6;stroke-dasharray:2.0,2.0;" x1="196.2" x2="221.4" y1="200.5359" y2="200.5359"/><line style="stroke:#181818;stroke-width:0.6;stroke-dasharray:2.0,2.0;" x1="221.4" x2="221.4" y1="200.5359" y2="208.3359"/><line style="stroke:#181818;stroke-width:0.6;stroke-dasharray:2.0,2.0;" x1="193.2" x2="221.4" y1="208.3359" y2="208.3359"/><polygon fill="#181818" points="199.2,205.9359,193.2,208.3359,199.2,210.7359,196.8,208.3359" style="stroke:#181818;stroke-width:0.6;"/><text fill="#000000" font-family="sans-serif" font-size="7.8" font-weight="bold" lengthAdjust="spacing" textLength="15" x="200.4" y="197.683">10.5</text><text fill="#000000" font-family="sans-serif" font-size="7.8" lengthAdjust="spacing" textLength="2.4" x="217.8" y="197.683">&#160;</text><polygon fill="#181818" points="6.6,224.25,0.6,226.65,6.6,229.05,4.2,226.65" style="stroke:#181818;stroke-width:0.6;"/><line style="stroke:#181818;stroke-width:0.6;stroke-dasharray:2.0,2.0;" x1="3" x2="189.6" y1="226.65" y2="226.65"/><text fill="#000000" font-family="sans-serif" font-size="7.8" font-weight="bold" lengthAdjust="spacing" textLength="8.4" x="10.2" y="223.7971">11</text><text fill="#000000" font-family="sans-serif" font-size="7.8" lengthAdjust="spacing" textLength="17.4" x="21" y="223.7971">store</text><!--SRC=[jLB1JiCm3BtdAwoTO6eHlKu8YHyO4hlkOXgJMKkTAac7uEl9qcrgXYhWW2z9xEVtdgs4FKkF7ZledBXsvrr74Fr0AbmgFRPxDBI97vR0KnjHZ9q2mWwrUsSny8Osa58f7Rdb7YN2mdc3mfyOsSbMLi-Jvm8mm3HHTeReFAMMpV7Cs7nJ2eVePEXUoKDph-h7WcELF1eEaNn6tx2kG5DW8xbSWNNjwROLwf3jazQUGgWWagL-vuJMcRm2r1rBulAOg6wlXEyQXMta0qOgXu0KnhkXXvUJaxDnECKK3ib_BY-N_sWT9d6jNcuFjHxLy_hBJasNYSU9peNvHVnEz82MTUgVLVvPuBl8bShS90L6_PrkZkfO8z4ZvVJdD3dpKDUbm0hot6hMsXS0]--></g></svg>