<?xml version="1.0" encoding="us-ascii" standalone="no"?><svg xmlns="http://www.w3.org/2000/svg" xmlns:xlink="http://www.w3.org/1999/xlink" contentStyleType="text/css" height="796px" preserveAspectRatio="none" style="width:536px;height:796px;background:#FFFFFF;" version="1.1" viewBox="0 0 536 796" width="536px" zoomAndPan="magnify"><defs/><g><text fill="#000000" font-family="sans-serif" font-size="14" font-weight="bold" lengthAdjust="spacing" textLength="228" x="155.5" y="27.6738">System Sequence Diagram (SSD)</text><rect fill="#FFFFFF" height="580.5156" style="stroke:#181818;stroke-width:1.0;" width="10" x="111" y="127.2813"/><rect fill="#FFFFFF" height="28.5234" style="stroke:#181818;stroke-width:1.0;" width="10" x="463" y="147.8047"/><rect fill="#FFFFFF" height="28.5234" style="stroke:#181818;stroke-width:1.0;" width="10" x="463" y="204.8516"/><rect fill="#FFFFFF" height="28.5234" style="stroke:#181818;stroke-width:1.0;" width="10" x="463" y="290.9453"/><rect fill="#FFFFFF" height="28.5234" style="stroke:#181818;stroke-width:1.0;" width="10" x="463" y="371.5156"/><rect fill="#FFFFFF" height="28.5234" style="stroke:#181818;stroke-width:1.0;" width="10" x="463" y="511.6563"/><rect fill="#FFFFFF" height="28.5234" style="stroke:#181818;stroke-width:1.0;" width="10" x="463" y="592.2266"/><rect fill="#FFFFFF" height="28.5234" style="stroke:#181818;stroke-width:1.0;" width="10" x="463" y="670.2734"/><rect fill="none" height="73.5703" style="stroke:#000000;stroke-width:1.5;" width="480" x="30" y="334.4688"/><rect fill="none" height="220.7109" style="stroke:#000000;stroke-width:1.5;" width="520" x="10" y="422.0391"/><rect fill="none" height="190.1875" style="stroke:#000000;stroke-width:1.5;" width="500" x="20" y="445.5625"/><rect fill="none" height="73.5703" style="stroke:#000000;stroke-width:1.5;" width="480" x="30" y="555.1797"/><line style="stroke:#181818;stroke-width:0.5;stroke-dasharray:5.0,5.0;" x1="116" x2="116" y1="117.2813" y2="716.7969"/><line style="stroke:#181818;stroke-width:0.5;stroke-dasharray:5.0,5.0;" x1="468" x2="468" y1="117.2813" y2="716.7969"/><text fill="#000000" font-family="sans-serif" font-size="14" lengthAdjust="spacing" textLength="146" x="40" y="114.3145">Organization Employee</text><ellipse cx="116" cy="50.1406" fill="#E3E3E3" rx="8" ry="8" style="stroke:#181818;stroke-width:0.5;"/><path d="M116,58.1406 L116,85.1406 M103,66.1406 L129,66.1406 M116,85.1406 L103,100.1406 M116,85.1406 L129,100.1406 " fill="none" style="stroke:#181818;stroke-width:0.5;"/><text fill="#000000" font-family="sans-serif" font-size="14" lengthAdjust="spacing" textLength="146" x="40" y="728.4707">Organization Employee</text><ellipse cx="116" cy="739.9375" fill="#E3E3E3" rx="8" ry="8" style="stroke:#181818;stroke-width:0.5;"/><path d="M116,747.9375 L116,774.9375 M103,755.9375 L129,755.9375 M116,774.9375 L103,789.9375 M116,774.9375 L129,789.9375 " fill="none" style="stroke:#181818;stroke-width:0.5;"/><rect fill="#E3E3E3" height="29.6406" rx="2.5" ry="2.5" style="stroke:#181818;stroke-width:0.5;" width="64" x="436" y="86.6406"/><text fill="#000000" font-family="sans-serif" font-size="14" lengthAdjust="spacing" textLength="50" x="443" y="106.3145">:System</text><rect fill="#E3E3E3" height="29.6406" rx="2.5" ry="2.5" style="stroke:#181818;stroke-width:0.5;" width="64" x="436" y="715.7969"/><text fill="#000000" font-family="sans-serif" font-size="14" lengthAdjust="spacing" textLength="50" x="443" y="735.4707">:System</text><rect fill="#FFFFFF" height="580.5156" style="stroke:#181818;stroke-width:1.0;" width="10" x="111" y="127.2813"/><rect fill="#FFFFFF" height="28.5234" style="stroke:#181818;stroke-width:1.0;" width="10" x="463" y="147.8047"/><rect fill="#FFFFFF" height="28.5234" style="stroke:#181818;stroke-width:1.0;" width="10" x="463" y="204.8516"/><rect fill="#FFFFFF" height="28.5234" style="stroke:#181818;stroke-width:1.0;" width="10" x="463" y="290.9453"/><rect fill="#FFFFFF" height="28.5234" style="stroke:#181818;stroke-width:1.0;" width="10" x="463" y="371.5156"/><rect fill="#FFFFFF" height="28.5234" style="stroke:#181818;stroke-width:1.0;" width="10" x="463" y="511.6563"/><rect fill="#FFFFFF" height="28.5234" style="stroke:#181818;stroke-width:1.0;" width="10" x="463" y="592.2266"/><rect fill="#FFFFFF" height="28.5234" style="stroke:#181818;stroke-width:1.0;" width="10" x="463" y="670.2734"/><polygon fill="#181818" points="451,143.8047,461,147.8047,451,151.8047,455,147.8047" style="stroke:#181818;stroke-width:1.0;"/><line style="stroke:#181818;stroke-width:1.0;" x1="121" x2="457" y1="147.8047" y2="147.8047"/><text fill="#000000" font-family="sans-serif" font-size="13" font-weight="bold" lengthAdjust="spacing" textLength="7" x="128" y="143.0498">1</text><text fill="#000000" font-family="sans-serif" font-size="13" lengthAdjust="spacing" textLength="203" x="139" y="143.0498">request a list of available properties</text><polygon fill="#181818" points="132,172.3281,122,176.3281,132,180.3281,128,176.3281" style="stroke:#181818;stroke-width:1.0;"/><line style="stroke:#181818;stroke-width:1.0;stroke-dasharray:2.0,2.0;" x1="126" x2="467" y1="176.3281" y2="176.3281"/><text fill="#000000" font-family="sans-serif" font-size="13" font-weight="bold" lengthAdjust="spacing" textLength="7" x="138" y="171.5732">2</text><text fill="#000000" font-family="sans-serif" font-size="13" lengthAdjust="spacing" textLength="208" x="149" y="171.5732">shows the list of available properties</text><polygon fill="#181818" points="451,200.8516,461,204.8516,451,208.8516,455,204.8516" style="stroke:#181818;stroke-width:1.0;"/><line style="stroke:#181818;stroke-width:1.0;" x1="121" x2="457" y1="204.8516" y2="204.8516"/><text fill="#000000" font-family="sans-serif" font-size="13" font-weight="bold" lengthAdjust="spacing" textLength="7" x="128" y="200.0967">3</text><text fill="#000000" font-family="sans-serif" font-size="13" lengthAdjust="spacing" textLength="312" x="139" y="200.0967">asks to sort from the most recent entries to the oldest</text><polygon fill="#181818" points="132,229.375,122,233.375,132,237.375,128,233.375" style="stroke:#181818;stroke-width:1.0;"/><line style="stroke:#181818;stroke-width:1.0;stroke-dasharray:2.0,2.0;" x1="126" x2="467" y1="233.375" y2="233.375"/><text fill="#000000" font-family="sans-serif" font-size="13" font-weight="bold" lengthAdjust="spacing" textLength="7" x="138" y="228.6201">4</text><text fill="#000000" font-family="sans-serif" font-size="13" lengthAdjust="spacing" textLength="98" x="149" y="228.6201">shows sorted list</text><polygon fill="#181818" points="451,286.9453,461,290.9453,451,294.9453,455,290.9453" style="stroke:#181818;stroke-width:1.0;"/><line style="stroke:#181818;stroke-width:1.0;" x1="121" x2="457" y1="290.9453" y2="290.9453"/><text fill="#000000" font-family="sans-serif" font-size="13" font-weight="bold" lengthAdjust="spacing" textLength="7" x="128" y="271.667">5</text><text fill="#000000" font-family="sans-serif" font-size="13" lengthAdjust="spacing" textLength="196" x="139" y="257.1436">made a request for visit a property</text><text fill="#000000" font-family="sans-serif" font-size="13" lengthAdjust="spacing" textLength="256" x="139" y="271.667">(selects an available property, client's name,</text><text fill="#000000" font-family="sans-serif" font-size="13" lengthAdjust="spacing" textLength="252" x="143" y="286.1904">phone number, preferred date and time slot)</text><polygon fill="#181818" points="132,315.4688,122,319.4688,132,323.4688,128,319.4688" style="stroke:#181818;stroke-width:1.0;"/><line style="stroke:#181818;stroke-width:1.0;stroke-dasharray:2.0,2.0;" x1="126" x2="467" y1="319.4688" y2="319.4688"/><text fill="#000000" font-family="sans-serif" font-size="13" font-weight="bold" lengthAdjust="spacing" textLength="7" x="138" y="314.7139">6</text><text fill="#000000" font-family="sans-serif" font-size="13" lengthAdjust="spacing" textLength="66" x="149" y="314.7139">shows data</text><path d="M30,334.4688 L95,334.4688 L95,340.9922 L85,350.9922 L30,350.9922 L30,334.4688 " fill="#EEEEEE" style="stroke:#000000;stroke-width:1.5;"/><rect fill="none" height="73.5703" style="stroke:#000000;stroke-width:1.5;" width="480" x="30" y="334.4688"/><text fill="#000000" font-family="sans-serif" font-size="13" font-weight="bold" lengthAdjust="spacing" textLength="20" x="45" y="347.2373">opt</text><text fill="#000000" font-family="sans-serif" font-size="11" font-weight="bold" lengthAdjust="spacing" textLength="202" x="110" y="346.4268">[the  request is valid and registered]</text><polygon fill="#181818" points="451,367.5156,461,371.5156,451,375.5156,455,371.5156" style="stroke:#181818;stroke-width:1.0;"/><line style="stroke:#181818;stroke-width:1.0;" x1="121" x2="457" y1="371.5156" y2="371.5156"/><text fill="#000000" font-family="sans-serif" font-size="13" font-weight="bold" lengthAdjust="spacing" textLength="7" x="128" y="366.7607">7</text><text fill="#000000" font-family="sans-serif" font-size="13" lengthAdjust="spacing" textLength="68" x="139" y="366.7607">submit data</text><polygon fill="#181818" points="132,396.0391,122,400.0391,132,404.0391,128,400.0391" style="stroke:#181818;stroke-width:1.0;"/><line style="stroke:#181818;stroke-width:1.0;stroke-dasharray:2.0,2.0;" x1="126" x2="467" y1="400.0391" y2="400.0391"/><text fill="#000000" font-family="sans-serif" font-size="13" font-weight="bold" lengthAdjust="spacing" textLength="7" x="138" y="395.2842">8</text><text fill="#000000" font-family="sans-serif" font-size="13" lengthAdjust="spacing" textLength="158" x="149" y="395.2842">shows a success message</text><path d="M10,422.0391 L75,422.0391 L75,428.5625 L65,438.5625 L10,438.5625 L10,422.0391 " fill="#EEEEEE" style="stroke:#000000;stroke-width:1.5;"/><rect fill="none" height="220.7109" style="stroke:#000000;stroke-width:1.5;" width="520" x="10" y="422.0391"/><text fill="#000000" font-family="sans-serif" font-size="13" font-weight="bold" lengthAdjust="spacing" textLength="20" x="25" y="434.8076">opt</text><text fill="#000000" font-family="sans-serif" font-size="11" font-weight="bold" lengthAdjust="spacing" textLength="227" x="90" y="433.9971">[if the requests don't overlap each other]</text><path d="M20,445.5625 L93,445.5625 L93,452.0859 L83,462.0859 L20,462.0859 L20,445.5625 " fill="#EEEEEE" style="stroke:#000000;stroke-width:1.5;"/><rect fill="none" height="190.1875" style="stroke:#000000;stroke-width:1.5;" width="500" x="20" y="445.5625"/><text fill="#000000" font-family="sans-serif" font-size="13" font-weight="bold" lengthAdjust="spacing" textLength="28" x="35" y="458.3311">loop</text><text fill="#000000" font-family="sans-serif" font-size="11" font-weight="bold" lengthAdjust="spacing" textLength="227" x="108" y="457.5205">[if the requests don't overlap each other]</text><polygon fill="#181818" points="451,507.6563,461,511.6563,451,515.6563,455,511.6563" style="stroke:#181818;stroke-width:1.0;"/><line style="stroke:#181818;stroke-width:1.0;" x1="121" x2="457" y1="511.6563" y2="511.6563"/><text fill="#000000" font-family="sans-serif" font-size="13" font-weight="bold" lengthAdjust="spacing" textLength="7" x="128" y="492.3779">9</text><text fill="#000000" font-family="sans-serif" font-size="13" lengthAdjust="spacing" textLength="196" x="139" y="477.8545">made a request for visit a property</text><text fill="#000000" font-family="sans-serif" font-size="13" lengthAdjust="spacing" textLength="256" x="139" y="492.3779">(selects an available property, client's name,</text><text fill="#000000" font-family="sans-serif" font-size="13" lengthAdjust="spacing" textLength="252" x="143" y="506.9014">phone number, preferred date and time slot)</text><polygon fill="#181818" points="132,536.1797,122,540.1797,132,544.1797,128,540.1797" style="stroke:#181818;stroke-width:1.0;"/><line style="stroke:#181818;stroke-width:1.0;stroke-dasharray:2.0,2.0;" x1="126" x2="467" y1="540.1797" y2="540.1797"/><text fill="#000000" font-family="sans-serif" font-size="13" font-weight="bold" lengthAdjust="spacing" textLength="14" x="138" y="535.4248">10</text><text fill="#000000" font-family="sans-serif" font-size="13" lengthAdjust="spacing" textLength="66" x="156" y="535.4248">shows data</text><path d="M30,555.1797 L95,555.1797 L95,561.7031 L85,571.7031 L30,571.7031 L30,555.1797 " fill="#EEEEEE" style="stroke:#000000;stroke-width:1.5;"/><rect fill="none" height="73.5703" style="stroke:#000000;stroke-width:1.5;" width="480" x="30" y="555.1797"/><text fill="#000000" font-family="sans-serif" font-size="13" font-weight="bold" lengthAdjust="spacing" textLength="20" x="45" y="567.9482">opt</text><text fill="#000000" font-family="sans-serif" font-size="11" font-weight="bold" lengthAdjust="spacing" textLength="199" x="110" y="567.1377">[the request is valid and registered]</text><polygon fill="#181818" points="451,588.2266,461,592.2266,451,596.2266,455,592.2266" style="stroke:#181818;stroke-width:1.0;"/><line style="stroke:#181818;stroke-width:1.0;" x1="121" x2="457" y1="592.2266" y2="592.2266"/><text fill="#000000" font-family="sans-serif" font-size="13" font-weight="bold" lengthAdjust="spacing" textLength="14" x="128" y="587.4717">11</text><text fill="#000000" font-family="sans-serif" font-size="13" lengthAdjust="spacing" textLength="68" x="146" y="587.4717">submit data</text><polygon fill="#181818" points="132,616.75,122,620.75,132,624.75,128,620.75" style="stroke:#181818;stroke-width:1.0;"/><line style="stroke:#181818;stroke-width:1.0;stroke-dasharray:2.0,2.0;" x1="126" x2="467" y1="620.75" y2="620.75"/><text fill="#000000" font-family="sans-serif" font-size="13" font-weight="bold" lengthAdjust="spacing" textLength="14" x="138" y="615.9951">12</text><text fill="#000000" font-family="sans-serif" font-size="13" lengthAdjust="spacing" textLength="158" x="156" y="615.9951">shows a success message</text><polygon fill="#181818" points="451,666.2734,461,670.2734,451,674.2734,455,670.2734" style="stroke:#181818;stroke-width:1.0;"/><line style="stroke:#181818;stroke-width:1.0;" x1="121" x2="457" y1="670.2734" y2="670.2734"/><text fill="#000000" font-family="sans-serif" font-size="13" font-weight="bold" lengthAdjust="spacing" textLength="14" x="128" y="665.5186">13</text><text fill="#000000" font-family="sans-serif" font-size="13" lengthAdjust="spacing" textLength="71" x="146" y="665.5186">confirm data</text><polygon fill="#181818" points="132,694.7969,122,698.7969,132,702.7969,128,698.7969" style="stroke:#181818;stroke-width:1.0;"/><line style="stroke:#181818;stroke-width:1.0;stroke-dasharray:2.0,2.0;" x1="126" x2="467" y1="698.7969" y2="698.7969"/><text fill="#000000" font-family="sans-serif" font-size="13" font-weight="bold" lengthAdjust="spacing" textLength="14" x="138" y="694.042">14</text><text fill="#000000" font-family="sans-serif" font-size="13" lengthAdjust="spacing" textLength="144" x="156" y="694.042">display operation sucess</text><!--SRC=[rPJFRjim3CRlUWeYbxP0-W8vxDITT_2r5yQcRI6Ig8co2_VfH_zTWTbTaTDcm8aDKT_tuoScShCXOa8FdWENRM9Fa5D7HhQLYEKD6ohou0WIbHb3upuMI8iLlzdGG8rEo9XiivOMWsJoKD3FZa99y6An6SiVY-BboHZiCeVENodfSvavmUb7QZ3OTyoM0tptqV50T0AKxSMeOxQbZHWod2wpnLGnFqvIjiTClxSO0tgjh_3yRIMxQ3VA9XaGdDKlhW5xj0wlYXyJHr8pacd_fhiQmN8jOi-gktbSD1D-4yWj_LsvebtjNM2Kcweo2ASCjPxMPE5PBVHaI4FHEwdoM3GkiQkqmVix68secfeuWZsczLYHPhkcNEiPzrRicFUImG2luL78wLG9OFWpfE4CfRFQr8D0G4_drm2nvK0mpyvP2wccb1Io6gamL92jJh4upa_tDwvYUDGnnpo5ktLc1NfqjfhS4pMQ5YdHuhIRZNHNhqbiDdU3eagL9Oc0rm_zeHvGKwXcSbjFy0kxTihXGIUqf-GmWkvhWRKW6SSSuUlb__eOx2QyhNnv7ZwPYOz1_HSpCGt5UfjTff93RPEVeSpdICTObPNeS83nCEU_TmLKD7CKf_a5]--></g></svg>