<?xml version="1.0" encoding="UTF-8" standalone="no"?><svg xmlns="http://www.w3.org/2000/svg" xmlns:xlink="http://www.w3.org/1999/xlink" contentStyleType="text/css" height="892px" preserveAspectRatio="none" style="width:1820px;height:892px;background:#FFFFFF;" version="1.1" viewBox="0 0 1820 892" width="1820px" zoomAndPan="magnify"><defs/><g><!--class ApplicationPOT--><g id="elem_ApplicationPOT"><rect codeLine="3" fill="#F1F1F1" height="97.1094" id="ApplicationPOT" rx="2.5" ry="2.5" style="stroke:#181818;stroke-width:0.5;" width="216" x="921.5" y="393.88"/><ellipse cx="951.9" cy="410.88" fill="#ADD1B2" rx="12" ry="12" style="stroke:#181818;stroke-width:1.0;"/><path d="M954.7066,417.9601 Q954.023,418.3116 953.2711,418.4874 Q952.5191,418.6632 951.6891,418.6632 Q948.7398,418.6632 947.1871,416.7198 Q945.6344,414.7765 945.6344,411.1046 Q945.6344,407.423 947.1871,405.4796 Q948.7398,403.5363 951.6891,403.5363 Q952.5191,403.5363 953.2809,403.712 Q954.0426,403.8878 954.7066,404.2394 L954.7066,407.4425 Q953.9645,406.7589 953.2662,406.4415 Q952.568,406.1241 951.8258,406.1241 Q950.2438,406.1241 949.4381,407.379 Q948.6324,408.6339 948.6324,411.1046 Q948.6324,413.5655 949.4381,414.8204 Q950.2438,416.0753 951.8258,416.0753 Q952.568,416.0753 953.2662,415.7579 Q953.9645,415.4405 954.7066,414.757 Z " fill="#000000"/><text fill="#000000" font-family="sans-serif" font-size="20" lengthAdjust="spacing" textLength="150" x="970.1" y="418.4386">ApplicationPOT</text><line style="stroke:#181818;stroke-width:0.5;" x1="922.5" x2="1136.5" y1="427.88" y2="427.88"/><line style="stroke:#181818;stroke-width:0.5;" x1="922.5" x2="1136.5" y1="435.88" y2="435.88"/><text fill="#000000" font-family="sans-serif" font-size="20" lengthAdjust="spacing" textLength="196" x="927.5" y="459.2159">+static getInstance()</text><text fill="#000000" font-family="sans-serif" font-size="20" lengthAdjust="spacing" textLength="204" x="927.5" y="482.7706">+getCurrentSession()</text></g><!--class UserSession--><g id="elem_UserSession"><rect codeLine="9" fill="#F1F1F1" height="73.5547" id="UserSession" rx="2.5" ry="2.5" style="stroke:#181818;stroke-width:0.5;" width="168" x="1172.5" y="405.66"/><ellipse cx="1197.05" cy="422.66" fill="#ADD1B2" rx="12" ry="12" style="stroke:#181818;stroke-width:1.0;"/><path d="M1199.8566,429.7401 Q1199.173,430.0916 1198.4211,430.2674 Q1197.6691,430.4432 1196.8391,430.4432 Q1193.8898,430.4432 1192.3371,428.4998 Q1190.7844,426.5565 1190.7844,422.8846 Q1190.7844,419.203 1192.3371,417.2596 Q1193.8898,415.3163 1196.8391,415.3163 Q1197.6691,415.3163 1198.4309,415.492 Q1199.1926,415.6678 1199.8566,416.0194 L1199.8566,419.2225 Q1199.1145,418.5389 1198.4162,418.2215 Q1197.718,417.9041 1196.9758,417.9041 Q1195.3938,417.9041 1194.5881,419.159 Q1193.7824,420.4139 1193.7824,422.8846 Q1193.7824,425.3455 1194.5881,426.6004 Q1195.3938,427.8553 1196.9758,427.8553 Q1197.718,427.8553 1198.4162,427.5379 Q1199.1145,427.2205 1199.8566,426.537 Z " fill="#000000"/><text fill="#000000" font-family="sans-serif" font-size="20" lengthAdjust="spacing" textLength="115" x="1213.95" y="430.2186">UserSession</text><line style="stroke:#181818;stroke-width:0.5;" x1="1173.5" x2="1339.5" y1="439.66" y2="439.66"/><line style="stroke:#181818;stroke-width:0.5;" x1="1173.5" x2="1339.5" y1="447.66" y2="447.66"/><text fill="#000000" font-family="sans-serif" font-size="20" lengthAdjust="spacing" textLength="156" x="1178.5" y="470.9959">+getUserEmail()</text></g><!--class Task--><g id="elem_Task"><rect codeLine="14" fill="#F1F1F1" height="214.8828" id="Task" rx="2.5" ry="2.5" style="stroke:#181818;stroke-width:0.5;" width="668" x="506.5" y="670.21"/><ellipse cx="813" cy="687.21" fill="#ADD1B2" rx="12" ry="12" style="stroke:#181818;stroke-width:1.0;"/><path d="M815.8066,694.2901 Q815.123,694.6416 814.3711,694.8174 Q813.6191,694.9932 812.7891,694.9932 Q809.8398,694.9932 808.2871,693.0498 Q806.7344,691.1065 806.7344,687.4346 Q806.7344,683.753 808.2871,681.8096 Q809.8398,679.8663 812.7891,679.8663 Q813.6191,679.8663 814.3809,680.042 Q815.1426,680.2178 815.8066,680.5694 L815.8066,683.7725 Q815.0645,683.0889 814.3662,682.7715 Q813.668,682.4541 812.9258,682.4541 Q811.3438,682.4541 810.5381,683.709 Q809.7324,684.9639 809.7324,687.4346 Q809.7324,689.8955 810.5381,691.1504 Q811.3438,692.4053 812.9258,692.4053 Q813.668,692.4053 814.3662,692.0879 Q815.0645,691.7705 815.8066,691.087 Z " fill="#000000"/><text fill="#000000" font-family="sans-serif" font-size="20" lengthAdjust="spacing" textLength="46" x="835" y="694.7686">Task</text><line style="stroke:#181818;stroke-width:0.5;" x1="507.5" x2="1173.5" y1="704.21" y2="704.21"/><text fill="#000000" font-family="sans-serif" font-size="20" lengthAdjust="spacing" textLength="163" x="512.5" y="727.5459">-String reference</text><text fill="#000000" font-family="sans-serif" font-size="20" lengthAdjust="spacing" textLength="186" x="512.5" y="751.1006">-String designation</text><text fill="#000000" font-family="sans-serif" font-size="20" lengthAdjust="spacing" textLength="265" x="512.5" y="774.6553">-String informalDescription</text><text fill="#000000" font-family="sans-serif" font-size="20" lengthAdjust="spacing" textLength="269" x="512.5" y="798.21">-String technicalDescription</text><text fill="#000000" font-family="sans-serif" font-size="20" lengthAdjust="spacing" textLength="166" x="512.5" y="821.7647">-Integer duration</text><text fill="#000000" font-family="sans-serif" font-size="20" lengthAdjust="spacing" textLength="126" x="512.5" y="845.3194">-Double cost</text><line style="stroke:#181818;stroke-width:0.5;" x1="507.5" x2="1173.5" y1="853.5381" y2="853.5381"/><text fill="#000000" font-family="sans-serif" font-size="20" lengthAdjust="spacing" textLength="656" x="512.5" y="876.8741">+Task(ref,designation,informalDesc,technicalDesc,duration,cost,cat)</text></g><!--class Category--><g id="elem_Category"><rect codeLine="24" fill="#F1F1F1" height="97.1094" id="Category" rx="2.5" ry="2.5" style="stroke:#181818;stroke-width:0.5;" width="194" x="1324.5" y="729.09"/><ellipse cx="1374.5" cy="746.09" fill="#ADD1B2" rx="12" ry="12" style="stroke:#181818;stroke-width:1.0;"/><path d="M1377.3066,753.1701 Q1376.623,753.5216 1375.8711,753.6974 Q1375.1191,753.8732 1374.2891,753.8732 Q1371.3398,753.8732 1369.7871,751.9298 Q1368.2344,749.9865 1368.2344,746.3146 Q1368.2344,742.633 1369.7871,740.6896 Q1371.3398,738.7463 1374.2891,738.7463 Q1375.1191,738.7463 1375.8809,738.922 Q1376.6426,739.0978 1377.3066,739.4494 L1377.3066,742.6525 Q1376.5645,741.9689 1375.8662,741.6515 Q1375.168,741.3341 1374.4258,741.3341 Q1372.8438,741.3341 1372.0381,742.589 Q1371.2324,743.8439 1371.2324,746.3146 Q1371.2324,748.7755 1372.0381,750.0304 Q1372.8438,751.2853 1374.4258,751.2853 Q1375.168,751.2853 1375.8662,750.9679 Q1376.5645,750.6505 1377.3066,749.967 Z " fill="#000000"/><text fill="#000000" font-family="sans-serif" font-size="20" lengthAdjust="spacing" textLength="85" x="1396.5" y="753.6486">Category</text><line style="stroke:#181818;stroke-width:0.5;" x1="1325.5" x2="1517.5" y1="763.09" y2="763.09"/><text fill="#000000" font-family="sans-serif" font-size="20" lengthAdjust="spacing" textLength="93" x="1330.5" y="786.4259">-String id</text><text fill="#000000" font-family="sans-serif" font-size="20" lengthAdjust="spacing" textLength="182" x="1330.5" y="809.9806">-String description</text><line style="stroke:#181818;stroke-width:0.5;" x1="1325.5" x2="1517.5" y1="818.1994" y2="818.1994"/></g><!--class Organization--><g id="elem_Organization"><rect codeLine="29" fill="#F1F1F1" height="285.5469" id="Organization" rx="2.5" ry="2.5" style="stroke:#181818;stroke-width:0.5;" width="809" x="7" y="299.66"/><ellipse cx="345" cy="316.66" fill="#ADD1B2" rx="12" ry="12" style="stroke:#181818;stroke-width:1.0;"/><path d="M347.8066,323.7401 Q347.123,324.0916 346.3711,324.2674 Q345.6191,324.4432 344.7891,324.4432 Q341.8398,324.4432 340.2871,322.4998 Q338.7344,320.5565 338.7344,316.8846 Q338.7344,313.203 340.2871,311.2596 Q341.8398,309.3163 344.7891,309.3163 Q345.6191,309.3163 346.3809,309.492 Q347.1426,309.6678 347.8066,310.0194 L347.8066,313.2225 Q347.0645,312.5389 346.3662,312.2215 Q345.668,311.9041 344.9258,311.9041 Q343.3438,311.9041 342.5381,313.159 Q341.7324,314.4139 341.7324,316.8846 Q341.7324,319.3455 342.5381,320.6004 Q343.3438,321.8553 344.9258,321.8553 Q345.668,321.8553 346.3662,321.5379 Q347.0645,321.2205 347.8066,320.537 Z " fill="#000000"/><text fill="#000000" font-family="sans-serif" font-size="20" lengthAdjust="spacing" textLength="124" x="367" y="324.2186">Organization</text><line style="stroke:#181818;stroke-width:0.5;" x1="8" x2="815" y1="333.66" y2="333.66"/><text fill="#000000" font-family="sans-serif" font-size="20" lengthAdjust="spacing" textLength="127" x="13" y="356.9959">-String name</text><text fill="#000000" font-family="sans-serif" font-size="20" lengthAdjust="spacing" textLength="183" x="13" y="380.5506">-String VatNumber</text><text fill="#000000" font-family="sans-serif" font-size="20" lengthAdjust="spacing" textLength="147" x="13" y="404.1053">-String website</text><text fill="#000000" font-family="sans-serif" font-size="20" lengthAdjust="spacing" textLength="134" x="13" y="427.66">-String phone</text><text fill="#000000" font-family="sans-serif" font-size="20" lengthAdjust="spacing" textLength="127" x="13" y="451.2147">-String email</text><line style="stroke:#181818;stroke-width:0.5;" x1="8" x2="815" y1="459.4334" y2="459.4334"/><text fill="#000000" font-family="sans-serif" font-size="20" lengthAdjust="spacing" textLength="797" x="13" y="482.7694">+Organization(name, VatNumber, webSite, phone, email, postalAddress, manager)</text><text fill="#000000" font-family="sans-serif" font-size="20" lengthAdjust="spacing" textLength="714" x="13" y="506.3241">+createTask(ref,designation,informalDesc,technicalDesc,duration,cost,cat)</text><text fill="#000000" font-family="sans-serif" font-size="20" lengthAdjust="spacing" textLength="158" x="13" y="529.8788">+saveTask(task)</text><text fill="#000000" font-family="sans-serif" font-size="20" lengthAdjust="spacing" textLength="149" x="13" y="553.4334">-addTask(task)</text><text fill="#000000" font-family="sans-serif" font-size="20" lengthAdjust="spacing" textLength="187" x="13" y="576.9881">-validateTask(task)</text></g><!--class Platform--><g id="elem_Platform"><rect codeLine="42" fill="#F1F1F1" height="144.2188" id="Platform" rx="2.5" ry="2.5" style="stroke:#181818;stroke-width:0.5;" width="367" x="1446" y="370.32"/><ellipse cx="1584.5" cy="387.32" fill="#ADD1B2" rx="12" ry="12" style="stroke:#181818;stroke-width:1.0;"/><path d="M1587.3066,394.4001 Q1586.623,394.7516 1585.8711,394.9274 Q1585.1191,395.1032 1584.2891,395.1032 Q1581.3398,395.1032 1579.7871,393.1598 Q1578.2344,391.2165 1578.2344,387.5446 Q1578.2344,383.863 1579.7871,381.9196 Q1581.3398,379.9763 1584.2891,379.9763 Q1585.1191,379.9763 1585.8809,380.152 Q1586.6426,380.3278 1587.3066,380.6794 L1587.3066,383.8825 Q1586.5645,383.1989 1585.8662,382.8815 Q1585.168,382.5641 1584.4258,382.5641 Q1582.8438,382.5641 1582.0381,383.819 Q1581.2324,385.0739 1581.2324,387.5446 Q1581.2324,390.0055 1582.0381,391.2604 Q1582.8438,392.5153 1584.4258,392.5153 Q1585.168,392.5153 1585.8662,392.1979 Q1586.5645,391.8805 1587.3066,391.197 Z " fill="#000000"/><text fill="#000000" font-family="sans-serif" font-size="20" lengthAdjust="spacing" textLength="81" x="1606.5" y="394.8786">Platform</text><line style="stroke:#181818;stroke-width:0.5;" x1="1447" x2="1812" y1="404.32" y2="404.32"/><text fill="#000000" font-family="sans-serif" font-size="20" lengthAdjust="spacing" textLength="186" x="1452" y="427.6559">-String designation</text><line style="stroke:#181818;stroke-width:0.5;" x1="1447" x2="1812" y1="435.8747" y2="435.8747"/><text fill="#000000" font-family="sans-serif" font-size="20" lengthAdjust="spacing" textLength="162" x="1452" y="459.2106">+getCategories()</text><text fill="#000000" font-family="sans-serif" font-size="20" lengthAdjust="spacing" textLength="233" x="1452" y="482.7653">+getCategoryById(catId)</text><text fill="#000000" font-family="sans-serif" font-size="20" lengthAdjust="spacing" textLength="355" x="1452" y="506.32">+getOrganizationByUserEmail(email)</text></g><!--class CreateTaskController--><g id="elem_CreateTaskController"><rect codeLine="49" fill="#F1F1F1" height="120.6641" id="CreateTaskController" rx="2.5" ry="2.5" style="stroke:#181818;stroke-width:0.5;" width="798" x="743.5" y="118"/><ellipse cx="1036" cy="135" fill="#ADD1B2" rx="12" ry="12" style="stroke:#181818;stroke-width:1.0;"/><path d="M1038.8066,142.0801 Q1038.123,142.4316 1037.3711,142.6074 Q1036.6191,142.7832 1035.7891,142.7832 Q1032.8398,142.7832 1031.2871,140.8398 Q1029.7344,138.8965 1029.7344,135.2246 Q1029.7344,131.543 1031.2871,129.5996 Q1032.8398,127.6563 1035.7891,127.6563 Q1036.6191,127.6563 1037.3809,127.832 Q1038.1426,128.0078 1038.8066,128.3594 L1038.8066,131.5625 Q1038.0645,130.8789 1037.3662,130.5615 Q1036.668,130.2441 1035.9258,130.2441 Q1034.3438,130.2441 1033.5381,131.499 Q1032.7324,132.7539 1032.7324,135.2246 Q1032.7324,137.6855 1033.5381,138.9404 Q1034.3438,140.1953 1035.9258,140.1953 Q1036.668,140.1953 1037.3662,139.8779 Q1038.0645,139.5605 1038.8066,138.877 Z " fill="#000000"/><text fill="#000000" font-family="sans-serif" font-size="20" lengthAdjust="spacing" textLength="204" x="1058" y="142.5586">CreateTaskController</text><line style="stroke:#181818;stroke-width:0.5;" x1="744.5" x2="1540.5" y1="152" y2="152"/><line style="stroke:#181818;stroke-width:0.5;" x1="744.5" x2="1540.5" y1="160" y2="160"/><text fill="#000000" font-family="sans-serif" font-size="20" lengthAdjust="spacing" textLength="162" x="749.5" y="183.3359">+getCategories()</text><text fill="#000000" font-family="sans-serif" font-size="20" lengthAdjust="spacing" textLength="786" x="749.5" y="206.8906">+createTask(ref,designation,informalDesc,technicalDesc,duration,cost,categoryId)</text><text fill="#000000" font-family="sans-serif" font-size="20" lengthAdjust="spacing" textLength="118" x="749.5" y="230.4453">+saveTask()</text></g><!--class CreateTaskUI--><g id="elem_CreateTaskUI"><rect codeLine="55" fill="#F1F1F1" height="50" id="CreateTaskUI" rx="2.5" ry="2.5" style="stroke:#181818;stroke-width:0.5;" width="162" x="1061.5" y="7"/><ellipse cx="1077.5" cy="24" fill="#ADD1B2" rx="12" ry="12" style="stroke:#181818;stroke-width:1.0;"/><path d="M1080.3066,31.0801 Q1079.623,31.4316 1078.8711,31.6074 Q1078.1191,31.7832 1077.2891,31.7832 Q1074.3398,31.7832 1072.7871,29.8398 Q1071.2344,27.8965 1071.2344,24.2246 Q1071.2344,20.543 1072.7871,18.5996 Q1074.3398,16.6563 1077.2891,16.6563 Q1078.1191,16.6563 1078.8809,16.832 Q1079.6426,17.0078 1080.3066,17.3594 L1080.3066,20.5625 Q1079.5645,19.8789 1078.8662,19.5615 Q1078.168,19.2441 1077.4258,19.2441 Q1075.8438,19.2441 1075.0381,20.499 Q1074.2324,21.7539 1074.2324,24.2246 Q1074.2324,26.6855 1075.0381,27.9404 Q1075.8438,29.1953 1077.4258,29.1953 Q1078.168,29.1953 1078.8662,28.8779 Q1079.5645,28.5605 1080.3066,27.877 Z " fill="#000000"/><text fill="#000000" font-family="sans-serif" font-size="20" lengthAdjust="spacing" textLength="128" x="1092.5" y="31.5586">CreateTaskUI</text><line style="stroke:#181818;stroke-width:0.5;" x1="1062.5" x2="1222.5" y1="41" y2="41"/><line style="stroke:#181818;stroke-width:0.5;" x1="1062.5" x2="1222.5" y1="49" y2="49"/></g><!--link CreateTaskUI to CreateTaskController--><g id="link_CreateTaskUI_CreateTaskController"><path codeLine="59" d="M1142.5,57.48 C1142.5,72.42 1142.5,92.3 1142.5,111.56 " fill="none" id="CreateTaskUI-to-CreateTaskController" style="stroke:#181818;stroke-width:1.0;stroke-dasharray:7.0,7.0;"/><polygon fill="#181818" points="1142.5,116.52,1146.5,107.52,1142.5,111.52,1138.5,107.52,1142.5,116.52" style="stroke:#181818;stroke-width:1.0;"/></g><!--link CreateTaskController to Platform--><g id="link_CreateTaskController_Platform"><path codeLine="60" d="M1356.17,239.12 C1378.05,247.92 1399.55,257.75 1419.5,268.66 C1467.47,294.88 1515,332.72 1552.68,366.31 " fill="none" id="CreateTaskController-to-Platform" style="stroke:#181818;stroke-width:1.0;stroke-dasharray:7.0,7.0;"/><polygon fill="#181818" points="1555.76,368.96,1551.7099,359.9824,1552.0301,365.6302,1546.3823,365.9503,1555.76,368.96" style="stroke:#181818;stroke-width:1.0;"/></g><!--link CreateTaskController to Category--><g id="link_CreateTaskController_Category"><path codeLine="61" d="M1292.5,239.07 C1317.64,255.26 1340.91,275.25 1357.5,299.66 C1403.76,367.72 1416.72,613.44 1420.24,723.13 " fill="none" id="CreateTaskController-to-Category" style="stroke:#181818;stroke-width:1.0;stroke-dasharray:7.0,7.0;"/><polygon fill="#181818" points="1420.42,727.88,1424.1353,718.7588,1420.2629,722.8825,1416.1393,719.0101,1420.42,727.88" style="stroke:#181818;stroke-width:1.0;"/></g><!--link CreateTaskController to Task--><g id="link_CreateTaskController_Task"><path codeLine="62" d="M971.41,239.04 C945.19,255.02 921.06,274.95 903.5,299.66 C863.13,356.46 848.62,541.84 843.41,664.07 " fill="none" id="CreateTaskController-to-Task" style="stroke:#181818;stroke-width:1.0;stroke-dasharray:7.0,7.0;"/><polygon fill="#181818" points="843.17,668.84,847.5517,660.0195,843.3841,663.8446,839.559,659.677,843.17,668.84" style="stroke:#181818;stroke-width:1.0;"/></g><!--link CreateTaskController to Organization--><g id="link_CreateTaskController_Organization"><path codeLine="63" d="M932.71,239.12 C902.3,248.56 871.49,258.56 842.5,268.66 C816.72,277.64 790.22,287.28 763.63,297.23 " fill="none" id="CreateTaskController-to-Organization" style="stroke:#181818;stroke-width:1.0;stroke-dasharray:7.0,7.0;"/><polygon fill="#181818" points="759.32,299.22,769.152,299.7953,763.9999,297.4597,766.3355,292.3075,759.32,299.22" style="stroke:#181818;stroke-width:1.0;"/></g><!--link CreateTaskController to ApplicationPOT--><g id="link_CreateTaskController_ApplicationPOT"><path codeLine="64" d="M1116.72,239.13 C1097.35,284.05 1071.07,345.01 1052.43,388.24 " fill="none" id="CreateTaskController-to-ApplicationPOT" style="stroke:#181818;stroke-width:1.0;stroke-dasharray:7.0,7.0;"/><polygon fill="#181818" points="1050.09,392.68,1057.3369,386.0105,1052.0768,388.0917,1049.9957,382.8316,1050.09,392.68" style="stroke:#181818;stroke-width:1.0;"/></g><!--link CreateTaskController to UserSession--><g id="link_CreateTaskController_UserSession"><path codeLine="65" d="M1168.51,239.13 C1189.87,288.25 1219.58,356.55 1238.43,399.88 " fill="none" id="CreateTaskController-to-UserSession" style="stroke:#181818;stroke-width:1.0;stroke-dasharray:7.0,7.0;"/><polygon fill="#181818" points="1240.78,404.29,1240.8485,394.4414,1238.7812,399.7069,1233.5156,397.6395,1240.78,404.29" style="stroke:#181818;stroke-width:1.0;"/></g><!--link Task to Category--><g id="link_Task_Category"><path codeLine="66" d="M1174.68,777.65 C1226.79,777.65 1276.97,777.65 1318.33,777.65 " fill="none" id="Task-to-Category" style="stroke:#181818;stroke-width:1.0;"/><polygon fill="#181818" points="1323.11,777.65,1314.11,773.65,1318.11,777.65,1314.11,781.65,1323.11,777.65" style="stroke:#181818;stroke-width:1.0;"/><text fill="#000000" font-family="sans-serif" font-size="20" lengthAdjust="spacing" textLength="114" x="1192.5" y="769.9859">classified in</text><text fill="#000000" font-family="sans-serif" font-size="20" lengthAdjust="spacing" textLength="10" x="1182.6295" y="773.7229">*</text><text fill="#000000" font-family="sans-serif" font-size="20" lengthAdjust="spacing" textLength="13" x="1303.4806" y="773.1622">1</text></g><!--link Platform to Category--><g id="link_Platform_Category"><path codeLine="67" d="M1584.88,514.92 C1545.71,577.66 1489.65,667.47 1454.43,723.89 " fill="none" id="Platform-to-Category" style="stroke:#181818;stroke-width:1.0;"/><polygon fill="#181818" points="1451.3,727.9,1459.4536,722.3757,1453.9436,723.656,1452.6632,718.1459,1451.3,727.9" style="stroke:#181818;stroke-width:1.0;"/><text fill="#000000" font-family="sans-serif" font-size="20" lengthAdjust="spacing" textLength="70" x="1519.5" y="635.5459">defines</text><text fill="#000000" font-family="sans-serif" font-size="20" lengthAdjust="spacing" textLength="13" x="1567.3271" y="541.7611">1</text><text fill="#000000" font-family="sans-serif" font-size="20" lengthAdjust="spacing" textLength="10" x="1444.7875" y="716.803">*</text></g><!--link Organization to Task--><g id="link_Organization_Task"><path codeLine="68" d="M594.37,585.47 C629.16,612.49 665.08,640.39 698.37,666.25 " fill="none" id="Organization-to-Task" style="stroke:#181818;stroke-width:1.0;"/><polygon fill="#181818" points="701.83,669.72,697.1881,661.0336,697.8855,666.6473,692.2719,667.3448,701.83,669.72" style="stroke:#181818;stroke-width:1.0;"/><text fill="#000000" font-family="sans-serif" font-size="20" lengthAdjust="spacing" textLength="49" x="665.5" y="635.5459">owns</text><text fill="#000000" font-family="sans-serif" font-size="20" lengthAdjust="spacing" textLength="13" x="589.9129" y="612.3047">1</text><text fill="#000000" font-family="sans-serif" font-size="20" lengthAdjust="spacing" textLength="10" x="683.2444" y="658.0503">*</text></g><!--SRC=[hLJ1RkCW4Btp5IYdR9TKtJtsK2bDMycNRQMqUoSmSL4mM81RfTN- -muuTY2ARxb4yPl7cvd7C7wdJCiTRxGLEv1KmfPtEZnP4zRg2-Zl6-872XMQUxyCmQbD5w0IrYJE3I4fGfTjgvNWGLdpylnAlWcbFtt0Rq5h29N1_qR0_4V44LXrpW7c0U_n1CB_1g4t3-u0zoh8ZjXZmvNEYQ_SxsXaBDPObQcfWosWg80Ca-1LRL9P6QhCrhg6wmVmmgds91f0l1livJHScG0rE2exDme-s6wZWGhhGwmrrZJ7EbYMb-NPM27E1YaM1HZQb_MtufZEkdtHev9bSsDzux5dLtEZlf9iSTJm9dVcBmz_kcO3BiC-OUDLo5djkpNvDyHRY9tcQUPHcXqLMHHQen3hpxF-67vXbrmlfNHumOmst70qDCs4S83zNi2_E7VyerSA-1EH1PUo13wuLd98sAEZWo-QXvYnSAySf3J2_VqeyCUfFbpP_RwISwocaaCaj-j-VvpdP4n-wQCDAto6pcgD0_SzaV52dgMI3wMErfsjwQt2McAWWAwlxyxMJSus4zc3mzECmSbfHeIcexdVqwoJfJN9otTIMZkpgnbTtD7PhzdncTxsEr9j5UvIPSWuHf6rYEohWethLXdmf7YmEJTbkgNsqtX2_WC0]--></g></svg>