<?xml version="1.0" encoding="UTF-8" standalone="no"?><svg xmlns="http://www.w3.org/2000/svg" xmlns:xlink="http://www.w3.org/1999/xlink" contentStyleType="text/css" height="309px" preserveAspectRatio="none" style="width:2339px;height:309px;background:#FFFFFF;" version="1.1" viewBox="0 0 2339 309" width="2339px" zoomAndPan="magnify"><defs/><g><!--cluster usecases--><g id="cluster_usecases"><rect fill="none" height="296.34" rx="2.5" ry="2.5" style="stroke:#FFFFFF;stroke-width:1.0;" width="2326" x="7" y="7"/><text fill="#000000" font-family="sans-serif" font-size="20" font-weight="bold" lengthAdjust="spacing" textLength="105" x="1117.5" y="28.3359">Use Cases</text></g><g id="elem_UC4"><ellipse cx="2167.0006" cy="239.9481" fill="#F1F1F1" rx="150.4406" ry="32.4881" style="stroke:#181818;stroke-width:0.5;"/><text fill="#000000" font-family="sans-serif" font-size="20" lengthAdjust="spacing" textLength="258" x="2035.286" y="246.7514">UC4 - To submit a request</text></g><!--entity Owner--><g id="elem_Owner"><ellipse cx="2167" cy="57.5" fill="#F1F1F1" rx="8" ry="8" style="stroke:#181818;stroke-width:0.5;"/><path d="M2167,65.5 L2167,92.5 M2154,73.5 L2180,73.5 M2167,92.5 L2154,107.5 M2167,92.5 L2180,107.5 " fill="none" style="stroke:#181818;stroke-width:0.5;"/><text fill="#000000" font-family="sans-serif" font-size="20" lengthAdjust="spacing" textLength="62" x="2136" y="128.3359">Owner</text></g><g id="elem_UC3"><ellipse cx="1493.0018" cy="239.9484" fill="#F1F1F1" rx="168.3418" ry="36.0684" style="stroke:#181818;stroke-width:0.5;"/><text fill="#000000" font-family="sans-serif" font-size="20" lengthAdjust="spacing" textLength="297" x="1344.5018" y="245.5069">UC3 - To register an employee</text></g><!--entity SystemAdministrator--><g id="elem_SystemAdministrator"><ellipse cx="1666" cy="57.5" fill="#F1F1F1" rx="8" ry="8" style="stroke:#181818;stroke-width:0.5;"/><path d="M1666,65.5 L1666,92.5 M1653,73.5 L1679,73.5 M1666,92.5 L1653,107.5 M1666,92.5 L1679,107.5 " fill="none" style="stroke:#181818;stroke-width:0.5;"/><text fill="#000000" font-family="sans-serif" font-size="20" lengthAdjust="spacing" textLength="201" x="1565.5" y="128.3359">SystemAdministrator</text></g><g id="elem_UC5"><ellipse cx="1838.9994" cy="239.9479" fill="#F1F1F1" rx="142.4394" ry="30.8879" style="stroke:#181818;stroke-width:0.5;"/><text fill="#000000" font-family="sans-serif" font-size="20" lengthAdjust="spacing" textLength="240" x="1715.9994" y="246.8658">UC5 - To register a store</text></g><g id="elem_UC2"><ellipse cx="1098.9977" cy="239.9475" fill="#F1F1F1" rx="190.4877" ry="40.4975" style="stroke:#181818;stroke-width:0.5;"/><text fill="#000000" font-family="sans-serif" font-size="20" lengthAdjust="spacing" textLength="344" x="926.9977" y="245.5061">UC2 - To publish an announcement</text></g><!--entity Agent--><g id="elem_Agent"><ellipse cx="1099" cy="57.5" fill="#F1F1F1" rx="8" ry="8" style="stroke:#181818;stroke-width:0.5;"/><path d="M1099,65.5 L1099,92.5 M1086,73.5 L1112,73.5 M1099,92.5 L1086,107.5 M1099,92.5 L1112,107.5 " fill="none" style="stroke:#181818;stroke-width:0.5;"/><text fill="#000000" font-family="sans-serif" font-size="20" lengthAdjust="spacing" textLength="56" x="1071" y="128.3359">Agent</text></g><g id="elem_UC1"><ellipse cx="206.0026" cy="239.9465" fill="#F1F1F1" rx="183.3826" ry="39.0765" style="stroke:#181818;stroke-width:0.5;"/><text fill="#000000" font-family="sans-serif" font-size="20" lengthAdjust="spacing" textLength="329" x="41.5026" y="245.5051">UC1 - To display listed properties</text></g><!--entity UnregisteredUser--><g id="elem_UnregisteredUser"><ellipse cx="427" cy="57.5" fill="#F1F1F1" rx="8" ry="8" style="stroke:#181818;stroke-width:0.5;"/><path d="M427,65.5 L427,92.5 M414,73.5 L440,73.5 M427,92.5 L414,107.5 M427,92.5 L440,107.5 " fill="none" style="stroke:#181818;stroke-width:0.5;"/><text fill="#000000" font-family="sans-serif" font-size="20" lengthAdjust="spacing" textLength="166" x="344" y="128.3359">UnregisteredUser</text></g><g id="elem_UC7"><ellipse cx="649.0042" cy="239.9508" fill="#F1F1F1" rx="224.9542" ry="47.3908" style="stroke:#181818;stroke-width:0.5;"/><text fill="#000000" font-family="sans-serif" font-size="20" lengthAdjust="spacing" textLength="416" x="441.0042" y="245.5094">UC7 -  To register a new user in the system</text></g><!--link Owner to UC4--><g id="link_Owner_UC4"><path d="M2167,132.78 C2167,154.23 2167,180.32 2167,201.27 " fill="none" id="Owner-to-UC4" style="stroke:#181818;stroke-width:1.0;"/><polygon fill="#181818" points="2167,206.03,2171,197.03,2167,201.03,2163,197.03,2167,206.03" style="stroke:#181818;stroke-width:1.0;"/></g><!--link SystemAdministrator to UC3--><g id="link_SystemAdministrator_UC3"><path d="M1617.81,132.78 C1592.77,154.07 1562.37,179.94 1537.84,200.8 " fill="none" id="SystemAdministrator-to-UC3" style="stroke:#181818;stroke-width:1.0;"/><polygon fill="#181818" points="1534.33,204.64,1543.7787,201.861,1538.1404,201.4026,1538.5988,195.7643,1534.33,204.64" style="stroke:#181818;stroke-width:1.0;"/></g><!--link SystemAdministrator to UC5--><g id="link_SystemAdministrator_UC5"><path d="M1714.19,132.78 C1741.31,155.85 1774.74,184.28 1800.17,205.92 " fill="none" id="SystemAdministrator-to-UC5" style="stroke:#181818;stroke-width:1.0;"/><polygon fill="#181818" points="1803.5,209.6,1799.2312,200.7243,1799.6896,206.3626,1794.0513,206.821,1803.5,209.6" style="stroke:#181818;stroke-width:1.0;"/></g><!--link Agent to UC2--><g id="link_Agent_UC2"><path d="M1099,132.78 C1099,151.58 1099,173.95 1099,193.29 " fill="none" id="Agent-to-UC2" style="stroke:#181818;stroke-width:1.0;"/><polygon fill="#181818" points="1099,198.19,1103,189.19,1099,193.19,1095,189.19,1099,198.19" style="stroke:#181818;stroke-width:1.0;"/></g><!--link UnregisteredUser to UC1--><g id="link_UnregisteredUser_UC1"><path d="M365.15,132.97 C334.12,153.63 296.69,178.56 265.93,199.04 " fill="none" id="UnregisteredUser-to-UC1" style="stroke:#181818;stroke-width:1.0;"/><polygon fill="#181818" points="262.06,202.29,271.7673,200.6259,266.2203,199.5165,267.3297,193.9695,262.06,202.29" style="stroke:#181818;stroke-width:1.0;"/></g><!--link UnregisteredUser to UC7--><g id="link_UnregisteredUser_UC7"><path d="M489.13,132.97 C516.42,151.06 548.62,172.41 576.95,191.19 " fill="none" id="UnregisteredUser-to-UC7" style="stroke:#181818;stroke-width:1.0;"/><polygon fill="#181818" points="580.82,194.42,575.5305,186.1121,576.6532,191.6564,571.1088,192.779,580.82,194.42" style="stroke:#181818;stroke-width:1.0;"/></g><!--SRC=[XPB1JiCm38RlUGgBoqwJe6FQ3Ga6N3cCFO3Nc3PQ4fV4rHY8TyVjsZ5LGkGGAV7_V_cT9EzTR31Xy5pkoOAbDsozF7EKZViaAAxDB8yQ21ovh1C70aajcTzAW-KUAzh8qHCaAWLZvUdIcskqV72nWZVqcSo5-Qp_Cg3ZWPEbj6RF2Gwr4pBVnip4YQAtcM2DEZqwh3hlqmU6HayomWq8muv5E81r7THnDEPCXwlHdQy0CxIPocxnPVfZXwMgrhSmXrU6tEw24q0D-DvIbjwbrLx-SeYKO3w_E-zS01OdGABAPL4PHY2DoKUY0RBeBPkZbiEz3IwgCA7mY5nCaSif4hAgHzpo7znoYYjEkARTUPVhBY36o6qiAL0SEorwrtsbEmEdc79kJXphSkFn2BuBPw59t50IDzoqodhVDexnoUfRZE5kfj2LGYVDHZfqYWGkWjG4kMzreAzwm9_ybJczi7wZ7m00]--></g></svg>