<?xml version="1.0" encoding="us-ascii" standalone="no"?><svg xmlns="http://www.w3.org/2000/svg" xmlns:xlink="http://www.w3.org/1999/xlink" contentStyleType="text/css" height="1380px" preserveAspectRatio="none" style="width:1182px;height:1380px;background:#FFFFFF;" version="1.1" viewBox="0 0 1182 1380" width="1182px" zoomAndPan="magnify"><defs/><g><rect fill="#FFFFFF" height="1191.7813" style="stroke:#181818;stroke-width:1.0;" width="10" x="36" y="90.6406"/><rect fill="#FFFFFF" height="182.5469" style="stroke:#181818;stroke-width:1.0;" width="10" x="412" y="111.1641"/><rect fill="#FFFFFF" height="57.5703" style="stroke:#181818;stroke-width:1.0;" width="10" x="412" y="322.2344"/><rect fill="#FFFFFF" height="52.0469" style="stroke:#181818;stroke-width:1.0;" width="10" x="412" y="408.3281"/><rect fill="#FFFFFF" height="35.5234" style="stroke:#181818;stroke-width:1.0;" width="10" x="412" y="488.8984"/><rect fill="#FFFFFF" height="729.4766" style="stroke:#181818;stroke-width:1.0;" width="10" x="412" y="552.9453"/><rect fill="#FFFFFF" height="84.8594" style="stroke:#181818;stroke-width:1.0;" width="10" x="742" y="180.3281"/><rect fill="#FFFFFF" height="634.3828" style="stroke:#181818;stroke-width:1.0;" width="10" x="742" y="619.5156"/><rect fill="#FFFFFF" height="95.8594" style="stroke:#181818;stroke-width:1.0;" width="10" x="747" y="751.1328"/><rect fill="#FFFFFF" height="95.8594" style="stroke:#181818;stroke-width:1.0;" width="10" x="747" y="890.5156"/><rect fill="#FFFFFF" height="165.4297" style="stroke:#181818;stroke-width:1.0;" width="10" x="1023" y="1059.9453"/><rect fill="none" height="73.5703" style="stroke:#000000;stroke-width:1.5;" width="500" x="10" y="423.3281"/><rect fill="none" height="59.5703" style="stroke:#000000;stroke-width:1.5;" width="541" x="324" y="567.9453"/><rect fill="none" height="59.5703" style="stroke:#000000;stroke-width:1.5;" width="541" x="324" y="641.5156"/><rect fill="none" height="59.5703" style="stroke:#000000;stroke-width:1.5;" width="547.5" x="629" y="1008.375"/><rect fill="none" height="59.5703" style="stroke:#000000;stroke-width:1.5;" width="547.5" x="629" y="1081.9453"/><line style="stroke:#181818;stroke-width:0.5;stroke-dasharray:5.0,5.0;" x1="41" x2="41" y1="80.6406" y2="1300.4219"/><line style="stroke:#181818;stroke-width:0.5;stroke-dasharray:5.0,5.0;" x1="417" x2="417" y1="80.6406" y2="1300.4219"/><line style="stroke:#181818;stroke-width:0.5;stroke-dasharray:5.0,5.0;" x1="747" x2="747" y1="149.4844" y2="1300.4219"/><line style="stroke:#181818;stroke-width:0.5;stroke-dasharray:5.0,5.0;" x1="1027.5" x2="1027.5" y1="80.6406" y2="1300.4219"/><text fill="#000000" font-family="sans-serif" font-size="14" lengthAdjust="spacing" textLength="36" x="20" y="77.6738">Client</text><ellipse cx="41" cy="13.5" fill="#E3E3E3" rx="8" ry="8" style="stroke:#181818;stroke-width:0.5;"/><path d="M41,21.5 L41,48.5 M28,29.5 L54,29.5 M41,48.5 L28,63.5 M41,48.5 L54,63.5 " fill="none" style="stroke:#181818;stroke-width:0.5;"/><text fill="#000000" font-family="sans-serif" font-size="14" lengthAdjust="spacing" textLength="36" x="20" y="1312.0957">Client</text><ellipse cx="41" cy="1323.5625" fill="#E3E3E3" rx="8" ry="8" style="stroke:#181818;stroke-width:0.5;"/><path d="M41,1331.5625 L41,1358.5625 M28,1339.5625 L54,1339.5625 M41,1358.5625 L28,1373.5625 M41,1358.5625 L54,1373.5625 " fill="none" style="stroke:#181818;stroke-width:0.5;"/><rect fill="#E3E3E3" height="29.6406" rx="2.5" ry="2.5" style="stroke:#181818;stroke-width:0.5;" width="166" x="334" y="50"/><text fill="#000000" font-family="sans-serif" font-size="14" lengthAdjust="spacing" textLength="152" x="341" y="69.6738">:RespondAppointmentUI</text><rect fill="#E3E3E3" height="29.6406" rx="2.5" ry="2.5" style="stroke:#181818;stroke-width:0.5;" width="166" x="334" y="1299.4219"/><text fill="#000000" font-family="sans-serif" font-size="14" lengthAdjust="spacing" textLength="152" x="341" y="1319.0957">:RespondAppointmentUI</text><rect fill="#E3E3E3" height="29.6406" rx="2.5" ry="2.5" style="stroke:#181818;stroke-width:0.5;" width="216" x="639" y="1299.4219"/><text fill="#000000" font-family="sans-serif" font-size="14" lengthAdjust="spacing" textLength="202" x="646" y="1319.0957">:RespondAppointmentController</text><rect fill="#E3E3E3" height="45.2813" rx="2.5" ry="2.5" style="stroke:#181818;stroke-width:0.5;" width="277" x="889.5" y="34.3594"/><text fill="#000000" font-family="sans-serif" font-size="14" lengthAdjust="spacing" textLength="259" x="898.5" y="54.0332">responseAppointmentRequestRepository</text><text fill="#000000" font-family="sans-serif" font-size="14" lengthAdjust="spacing" textLength="263" x="896.5" y="69.6738">:responseAppointmentRequestRepository</text><rect fill="#E3E3E3" height="45.2813" rx="2.5" ry="2.5" style="stroke:#181818;stroke-width:0.5;" width="277" x="889.5" y="1299.4219"/><text fill="#000000" font-family="sans-serif" font-size="14" lengthAdjust="spacing" textLength="259" x="898.5" y="1319.0957">responseAppointmentRequestRepository</text><text fill="#000000" font-family="sans-serif" font-size="14" lengthAdjust="spacing" textLength="263" x="896.5" y="1334.7363">:responseAppointmentRequestRepository</text><rect fill="#FFFFFF" height="1191.7813" style="stroke:#181818;stroke-width:1.0;" width="10" x="36" y="90.6406"/><rect fill="#FFFFFF" height="182.5469" style="stroke:#181818;stroke-width:1.0;" width="10" x="412" y="111.1641"/><rect fill="#FFFFFF" height="57.5703" style="stroke:#181818;stroke-width:1.0;" width="10" x="412" y="322.2344"/><rect fill="#FFFFFF" height="52.0469" style="stroke:#181818;stroke-width:1.0;" width="10" x="412" y="408.3281"/><rect fill="#FFFFFF" height="35.5234" style="stroke:#181818;stroke-width:1.0;" width="10" x="412" y="488.8984"/><rect fill="#FFFFFF" height="729.4766" style="stroke:#181818;stroke-width:1.0;" width="10" x="412" y="552.9453"/><rect fill="#FFFFFF" height="84.8594" style="stroke:#181818;stroke-width:1.0;" width="10" x="742" y="180.3281"/><rect fill="#FFFFFF" height="634.3828" style="stroke:#181818;stroke-width:1.0;" width="10" x="742" y="619.5156"/><rect fill="#FFFFFF" height="95.8594" style="stroke:#181818;stroke-width:1.0;" width="10" x="747" y="751.1328"/><rect fill="#FFFFFF" height="95.8594" style="stroke:#181818;stroke-width:1.0;" width="10" x="747" y="890.5156"/><rect fill="#FFFFFF" height="165.4297" style="stroke:#181818;stroke-width:1.0;" width="10" x="1023" y="1059.9453"/><polygon fill="#181818" points="400,107.1641,410,111.1641,400,115.1641,404,111.1641" style="stroke:#181818;stroke-width:1.0;"/><line style="stroke:#181818;stroke-width:1.0;" x1="46" x2="406" y1="111.1641" y2="111.1641"/><text fill="#000000" font-family="sans-serif" font-size="13" font-weight="bold" lengthAdjust="spacing" textLength="7" x="53" y="106.4092">1</text><text fill="#000000" font-family="sans-serif" font-size="13" lengthAdjust="spacing" textLength="281" x="64" y="106.4092">asks to accept or reject the appointment request</text><polygon fill="#181818" points="627,135.6875,637,139.6875,627,143.6875,631,139.6875" style="stroke:#181818;stroke-width:1.0;"/><line style="stroke:#181818;stroke-width:1.0;" x1="422" x2="633" y1="139.6875" y2="139.6875"/><text fill="#000000" font-family="sans-serif" font-size="13" font-weight="bold" lengthAdjust="spacing" textLength="18" x="429" y="134.9326">1.1</text><text fill="#000000" font-family="sans-serif" font-size="13" lengthAdjust="spacing" textLength="46" x="451" y="134.9326">respond</text><rect fill="#E3E3E3" height="29.6406" rx="2.5" ry="2.5" style="stroke:#181818;stroke-width:0.5;" width="216" x="639" y="119.1641"/><text fill="#000000" font-family="sans-serif" font-size="14" lengthAdjust="spacing" textLength="202" x="646" y="138.8379">:RespondAppointmentController</text><polygon fill="#181818" points="730,176.3281,740,180.3281,730,184.3281,734,180.3281" style="stroke:#181818;stroke-width:1.0;"/><line style="stroke:#181818;stroke-width:1.0;" x1="422" x2="736" y1="180.3281" y2="180.3281"/><text fill="#000000" font-family="sans-serif" font-size="13" font-weight="bold" lengthAdjust="spacing" textLength="18" x="429" y="175.5732">1.2</text><text fill="#000000" font-family="sans-serif" font-size="13" lengthAdjust="spacing" textLength="154" x="451" y="175.5732">getAppointmentRequests()</text><rect fill="none" height="51.3359" style="stroke:#000000;stroke-width:1.5;" width="222" x="636" y="188.3281"/><path d="M636,188.3281 L698,188.3281 L698,194.3281 L688,204.3281 L636,204.3281 L636,188.3281 " fill="#EEEEEE" style="stroke:#000000;stroke-width:2.0;"/><text fill="#000000" font-family="sans-serif" font-size="13" font-weight="bold" lengthAdjust="spacing" textLength="17" x="649" y="202.0967">ref</text><text fill="#000000" font-family="sans-serif" font-size="12" lengthAdjust="spacing" textLength="164" x="665" y="219.1914">Get Appointment Request List</text><text fill="#000000" font-family="sans-serif" font-size="12" lengthAdjust="spacing" textLength="3" x="745.5" y="232.5977">&#160;</text><polygon fill="#181818" points="433,261.1875,423,265.1875,433,269.1875,429,265.1875" style="stroke:#181818;stroke-width:1.0;"/><line style="stroke:#181818;stroke-width:1.0;stroke-dasharray:2.0,2.0;" x1="427" x2="746" y1="265.1875" y2="265.1875"/><text fill="#000000" font-family="sans-serif" font-size="13" font-weight="bold" lengthAdjust="spacing" textLength="18" x="439" y="260.4326">1.3</text><text fill="#000000" font-family="sans-serif" font-size="13" lengthAdjust="spacing" textLength="140" x="461" y="260.4326">appointmentRequestList</text><polygon fill="#181818" points="57,289.7109,47,293.7109,57,297.7109,53,293.7109" style="stroke:#181818;stroke-width:1.0;"/><line style="stroke:#181818;stroke-width:1.0;stroke-dasharray:2.0,2.0;" x1="51" x2="416" y1="293.7109" y2="293.7109"/><text fill="#000000" font-family="sans-serif" font-size="13" font-weight="bold" lengthAdjust="spacing" textLength="7" x="63" y="288.9561">2</text><text fill="#000000" font-family="sans-serif" font-size="13" lengthAdjust="spacing" textLength="316" x="74" y="288.9561">shows appointment request list and asks to select one</text><polygon fill="#181818" points="400,318.2344,410,322.2344,400,326.2344,404,322.2344" style="stroke:#181818;stroke-width:1.0;"/><line style="stroke:#181818;stroke-width:1.0;" x1="46" x2="406" y1="322.2344" y2="322.2344"/><text fill="#000000" font-family="sans-serif" font-size="13" font-weight="bold" lengthAdjust="spacing" textLength="7" x="53" y="317.4795">3</text><text fill="#000000" font-family="sans-serif" font-size="13" lengthAdjust="spacing" textLength="196" x="64" y="317.4795">selects a appointment request list</text><polygon fill="#181818" points="57,375.8047,47,379.8047,57,383.8047,53,379.8047" style="stroke:#181818;stroke-width:1.0;"/><line style="stroke:#181818;stroke-width:1.0;stroke-dasharray:2.0,2.0;" x1="51" x2="416" y1="379.8047" y2="379.8047"/><text fill="#000000" font-family="sans-serif" font-size="13" font-weight="bold" lengthAdjust="spacing" textLength="7" x="63" y="360.5264">4</text><text fill="#000000" font-family="sans-serif" font-size="13" lengthAdjust="spacing" textLength="314" x="74" y="346.0029">shows appointment request data (property information,</text><text fill="#000000" font-family="sans-serif" font-size="13" lengthAdjust="spacing" textLength="327" x="74" y="360.5264">date of the appointment, agent name and phone number)</text><text fill="#000000" font-family="sans-serif" font-size="13" lengthAdjust="spacing" textLength="162" x="74" y="375.0498">and asks to accept or reject</text><polygon fill="#181818" points="400,404.3281,410,408.3281,400,412.3281,404,408.3281" style="stroke:#181818;stroke-width:1.0;"/><line style="stroke:#181818;stroke-width:1.0;" x1="46" x2="406" y1="408.3281" y2="408.3281"/><text fill="#000000" font-family="sans-serif" font-size="13" font-weight="bold" lengthAdjust="spacing" textLength="7" x="53" y="403.5732">5</text><text fill="#000000" font-family="sans-serif" font-size="13" lengthAdjust="spacing" textLength="248" x="64" y="403.5732">accepts or rejects the appointment request</text><path d="M10,423.3281 L71,423.3281 L71,429.8516 L61,439.8516 L10,439.8516 L10,423.3281 " fill="#EEEEEE" style="stroke:#000000;stroke-width:1.5;"/><rect fill="none" height="73.5703" style="stroke:#000000;stroke-width:1.5;" width="500" x="10" y="423.3281"/><text fill="#000000" font-family="sans-serif" font-size="13" font-weight="bold" lengthAdjust="spacing" textLength="16" x="25" y="436.0967">alt</text><text fill="#000000" font-family="sans-serif" font-size="11" font-weight="bold" lengthAdjust="spacing" textLength="181" x="86" y="435.2861">[reject the appointment request]</text><polygon fill="#181818" points="57,456.375,47,460.375,57,464.375,53,460.375" style="stroke:#181818;stroke-width:1.0;"/><line style="stroke:#181818;stroke-width:1.0;stroke-dasharray:2.0,2.0;" x1="51" x2="416" y1="460.375" y2="460.375"/><text fill="#000000" font-family="sans-serif" font-size="13" font-weight="bold" lengthAdjust="spacing" textLength="7" x="63" y="455.6201">6</text><text fill="#000000" font-family="sans-serif" font-size="13" lengthAdjust="spacing" textLength="130" x="74" y="455.6201">requests data (reason)</text><polygon fill="#181818" points="400,484.8984,410,488.8984,400,492.8984,404,488.8984" style="stroke:#181818;stroke-width:1.0;"/><line style="stroke:#181818;stroke-width:1.0;" x1="46" x2="406" y1="488.8984" y2="488.8984"/><text fill="#000000" font-family="sans-serif" font-size="13" font-weight="bold" lengthAdjust="spacing" textLength="7" x="53" y="484.1436">7</text><text fill="#000000" font-family="sans-serif" font-size="13" lengthAdjust="spacing" textLength="122" x="64" y="484.1436">types requested data</text><polygon fill="#181818" points="57,520.4219,47,524.4219,57,528.4219,53,524.4219" style="stroke:#181818;stroke-width:1.0;"/><line style="stroke:#181818;stroke-width:1.0;stroke-dasharray:2.0,2.0;" x1="51" x2="416" y1="524.4219" y2="524.4219"/><text fill="#000000" font-family="sans-serif" font-size="13" font-weight="bold" lengthAdjust="spacing" textLength="7" x="63" y="519.667">8</text><text fill="#000000" font-family="sans-serif" font-size="13" lengthAdjust="spacing" textLength="184" x="74" y="519.667">shows data and asks to confirm</text><polygon fill="#181818" points="400,548.9453,410,552.9453,400,556.9453,404,552.9453" style="stroke:#181818;stroke-width:1.0;"/><line style="stroke:#181818;stroke-width:1.0;" x1="46" x2="406" y1="552.9453" y2="552.9453"/><text fill="#000000" font-family="sans-serif" font-size="13" font-weight="bold" lengthAdjust="spacing" textLength="7" x="53" y="548.1904">9</text><text fill="#000000" font-family="sans-serif" font-size="13" lengthAdjust="spacing" textLength="78" x="64" y="548.1904">confirms data</text><path d="M324,567.9453 L385,567.9453 L385,574.4688 L375,584.4688 L324,584.4688 L324,567.9453 " fill="#EEEEEE" style="stroke:#000000;stroke-width:1.5;"/><rect fill="none" height="59.5703" style="stroke:#000000;stroke-width:1.5;" width="541" x="324" y="567.9453"/><text fill="#000000" font-family="sans-serif" font-size="13" font-weight="bold" lengthAdjust="spacing" textLength="16" x="339" y="580.7139">alt</text><text fill="#000000" font-family="sans-serif" font-size="11" font-weight="bold" lengthAdjust="spacing" textLength="155" x="400" y="579.9033">[acceptAppointment = false]</text><polygon fill="#181818" points="730,615.5156,740,619.5156,730,623.5156,734,619.5156" style="stroke:#181818;stroke-width:1.0;"/><line style="stroke:#181818;stroke-width:1.0;" x1="422" x2="736" y1="619.5156" y2="619.5156"/><text fill="#000000" font-family="sans-serif" font-size="13" font-weight="bold" lengthAdjust="spacing" textLength="18" x="429" y="607.499">9.1</text><text fill="#000000" font-family="sans-serif" font-size="13" lengthAdjust="spacing" textLength="270" x="451" y="600.2373">createResponse(appointmentRequestProperty,</text><text fill="#000000" font-family="sans-serif" font-size="13" lengthAdjust="spacing" textLength="163" x="451" y="614.7607">acceptAppointment, reason)</text><path d="M324,641.5156 L385,641.5156 L385,648.0391 L375,658.0391 L324,658.0391 L324,641.5156 " fill="#EEEEEE" style="stroke:#000000;stroke-width:1.5;"/><rect fill="none" height="59.5703" style="stroke:#000000;stroke-width:1.5;" width="541" x="324" y="641.5156"/><text fill="#000000" font-family="sans-serif" font-size="13" font-weight="bold" lengthAdjust="spacing" textLength="16" x="339" y="654.2842">alt</text><text fill="#000000" font-family="sans-serif" font-size="11" font-weight="bold" lengthAdjust="spacing" textLength="151" x="400" y="653.4736">[acceptAppointment = true]</text><polygon fill="#181818" points="730,689.0859,740,693.0859,730,697.0859,734,693.0859" style="stroke:#181818;stroke-width:1.0;"/><line style="stroke:#181818;stroke-width:1.0;" x1="422" x2="736" y1="693.0859" y2="693.0859"/><text fill="#000000" font-family="sans-serif" font-size="13" font-weight="bold" lengthAdjust="spacing" textLength="18" x="429" y="681.0693">9.1</text><text fill="#000000" font-family="sans-serif" font-size="13" lengthAdjust="spacing" textLength="270" x="451" y="673.8076">createResponse(appointmentRequestProperty,</text><text fill="#000000" font-family="sans-serif" font-size="13" lengthAdjust="spacing" textLength="116" x="451" y="688.3311">acceptAppointment)</text><line style="stroke:#181818;stroke-width:1.0;" x1="752" x2="799" y1="738.1328" y2="738.1328"/><line style="stroke:#181818;stroke-width:1.0;" x1="799" x2="799" y1="738.1328" y2="751.1328"/><line style="stroke:#181818;stroke-width:1.0;" x1="758" x2="799" y1="751.1328" y2="751.1328"/><polygon fill="#181818" points="768,747.1328,758,751.1328,768,755.1328,764,751.1328" style="stroke:#181818;stroke-width:1.0;"/><text fill="#000000" font-family="sans-serif" font-size="13" font-weight="bold" lengthAdjust="spacing" textLength="18" x="764" y="726.1162">9.2</text><text fill="#000000" font-family="sans-serif" font-size="13" lengthAdjust="spacing" textLength="204" x="786" y="718.8545">getAppointmentRequestByProperty</text><text fill="#000000" font-family="sans-serif" font-size="13" lengthAdjust="spacing" textLength="176" x="786" y="733.3779">(appointmentRequestProperty)</text><rect fill="none" height="51.3359" style="stroke:#000000;stroke-width:1.5;" width="222" x="636" y="764.1328"/><path d="M636,764.1328 L698,764.1328 L698,770.1328 L688,780.1328 L636,780.1328 L636,764.1328 " fill="#EEEEEE" style="stroke:#000000;stroke-width:2.0;"/><text fill="#000000" font-family="sans-serif" font-size="13" font-weight="bold" lengthAdjust="spacing" textLength="17" x="649" y="777.9014">ref</text><text fill="#000000" font-family="sans-serif" font-size="12" lengthAdjust="spacing" textLength="141" x="676.5" y="794.9961">Get Appointment Request</text><text fill="#000000" font-family="sans-serif" font-size="12" lengthAdjust="spacing" textLength="3" x="745.5" y="808.4023">&#160;</text><line style="stroke:#181818;stroke-width:1.0;stroke-dasharray:2.0,2.0;" x1="757" x2="799" y1="845.9922" y2="845.9922"/><line style="stroke:#181818;stroke-width:1.0;stroke-dasharray:2.0,2.0;" x1="799" x2="799" y1="845.9922" y2="858.9922"/><line style="stroke:#181818;stroke-width:1.0;stroke-dasharray:2.0,2.0;" x1="752" x2="799" y1="858.9922" y2="858.9922"/><polygon fill="#181818" points="762,854.9922,752,858.9922,762,862.9922,758,858.9922" style="stroke:#181818;stroke-width:1.0;"/><text fill="#000000" font-family="sans-serif" font-size="13" font-weight="bold" lengthAdjust="spacing" textLength="18" x="764" y="841.2373">9.3</text><text fill="#000000" font-family="sans-serif" font-size="13" lengthAdjust="spacing" textLength="119" x="786" y="841.2373">appointmentRequest</text><line style="stroke:#181818;stroke-width:1.0;" x1="752" x2="799" y1="877.5156" y2="877.5156"/><line style="stroke:#181818;stroke-width:1.0;" x1="799" x2="799" y1="877.5156" y2="890.5156"/><line style="stroke:#181818;stroke-width:1.0;" x1="758" x2="799" y1="890.5156" y2="890.5156"/><polygon fill="#181818" points="768,886.5156,758,890.5156,768,894.5156,764,890.5156" style="stroke:#181818;stroke-width:1.0;"/><text fill="#000000" font-family="sans-serif" font-size="13" font-weight="bold" lengthAdjust="spacing" textLength="18" x="764" y="872.7607">9.4</text><text fill="#000000" font-family="sans-serif" font-size="13" lengthAdjust="spacing" textLength="136" x="786" y="872.7607">getClientFromSession()</text><rect fill="none" height="51.3359" style="stroke:#000000;stroke-width:1.5;" width="222" x="636" y="903.5156"/><path d="M636,903.5156 L698,903.5156 L698,909.5156 L688,919.5156 L636,919.5156 L636,903.5156 " fill="#EEEEEE" style="stroke:#000000;stroke-width:2.0;"/><text fill="#000000" font-family="sans-serif" font-size="13" font-weight="bold" lengthAdjust="spacing" textLength="17" x="649" y="917.2842">ref</text><text fill="#000000" font-family="sans-serif" font-size="12" lengthAdjust="spacing" textLength="54" x="720" y="934.3789">Get Client</text><text fill="#000000" font-family="sans-serif" font-size="12" lengthAdjust="spacing" textLength="3" x="745.5" y="947.7852">&#160;</text><line style="stroke:#181818;stroke-width:1.0;" x1="757" x2="799" y1="985.375" y2="985.375"/><line style="stroke:#181818;stroke-width:1.0;" x1="799" x2="799" y1="985.375" y2="998.375"/><line style="stroke:#181818;stroke-width:1.0;" x1="752" x2="799" y1="998.375" y2="998.375"/><polygon fill="#181818" points="762,994.375,752,998.375,762,1002.375,758,998.375" style="stroke:#181818;stroke-width:1.0;"/><text fill="#000000" font-family="sans-serif" font-size="13" font-weight="bold" lengthAdjust="spacing" textLength="18" x="764" y="980.6201">9.5</text><text fill="#000000" font-family="sans-serif" font-size="13" lengthAdjust="spacing" textLength="31" x="786" y="980.6201">client</text><path d="M629,1008.375 L690,1008.375 L690,1014.8984 L680,1024.8984 L629,1024.8984 L629,1008.375 " fill="#EEEEEE" style="stroke:#000000;stroke-width:1.5;"/><rect fill="none" height="59.5703" style="stroke:#000000;stroke-width:1.5;" width="547.5" x="629" y="1008.375"/><text fill="#000000" font-family="sans-serif" font-size="13" font-weight="bold" lengthAdjust="spacing" textLength="16" x="644" y="1021.1436">alt</text><text fill="#000000" font-family="sans-serif" font-size="11" font-weight="bold" lengthAdjust="spacing" textLength="155" x="705" y="1020.333">[acceptAppointment = false]</text><polygon fill="#181818" points="1011,1055.9453,1021,1059.9453,1011,1063.9453,1015,1059.9453" style="stroke:#181818;stroke-width:1.0;"/><line style="stroke:#181818;stroke-width:1.0;" x1="752" x2="1017" y1="1059.9453" y2="1059.9453"/><text fill="#000000" font-family="sans-serif" font-size="13" font-weight="bold" lengthAdjust="spacing" textLength="18" x="759" y="1047.9287">9.6</text><text fill="#000000" font-family="sans-serif" font-size="13" lengthAdjust="spacing" textLength="221" x="781" y="1040.667">createResponse(appointmentRequest,</text><text fill="#000000" font-family="sans-serif" font-size="13" lengthAdjust="spacing" textLength="202" x="781" y="1055.1904">acceptAppointment, reason, client)</text><path d="M629,1081.9453 L690,1081.9453 L690,1088.4688 L680,1098.4688 L629,1098.4688 L629,1081.9453 " fill="#EEEEEE" style="stroke:#000000;stroke-width:1.5;"/><rect fill="none" height="59.5703" style="stroke:#000000;stroke-width:1.5;" width="547.5" x="629" y="1081.9453"/><text fill="#000000" font-family="sans-serif" font-size="13" font-weight="bold" lengthAdjust="spacing" textLength="16" x="644" y="1094.7139">alt</text><text fill="#000000" font-family="sans-serif" font-size="11" font-weight="bold" lengthAdjust="spacing" textLength="151" x="705" y="1093.9033">[acceptAppointment = true]</text><polygon fill="#181818" points="1011,1129.5156,1021,1133.5156,1011,1137.5156,1015,1133.5156" style="stroke:#181818;stroke-width:1.0;"/><line style="stroke:#181818;stroke-width:1.0;" x1="752" x2="1017" y1="1133.5156" y2="1133.5156"/><text fill="#000000" font-family="sans-serif" font-size="13" font-weight="bold" lengthAdjust="spacing" textLength="18" x="759" y="1121.499">9.6</text><text fill="#000000" font-family="sans-serif" font-size="13" lengthAdjust="spacing" textLength="221" x="781" y="1114.2373">createResponse(appointmentRequest,</text><text fill="#000000" font-family="sans-serif" font-size="13" lengthAdjust="spacing" textLength="155" x="781" y="1128.7607">acceptAppointment, client)</text><rect fill="none" height="51.3359" style="stroke:#000000;stroke-width:1.5;" width="283" x="886.5" y="1148.5156"/><path d="M886.5,1148.5156 L948.5,1148.5156 L948.5,1154.5156 L938.5,1164.5156 L886.5,1164.5156 L886.5,1148.5156 " fill="#EEEEEE" style="stroke:#000000;stroke-width:2.0;"/><text fill="#000000" font-family="sans-serif" font-size="13" font-weight="bold" lengthAdjust="spacing" textLength="17" x="899.5" y="1162.2842">ref</text><text fill="#000000" font-family="sans-serif" font-size="12" lengthAdjust="spacing" textLength="235" x="910.5" y="1179.3789">Create Response Of Appointment Request</text><text fill="#000000" font-family="sans-serif" font-size="12" lengthAdjust="spacing" textLength="3" x="1026.5" y="1192.7852">&#160;</text><polygon fill="#181818" points="763,1221.375,753,1225.375,763,1229.375,759,1225.375" style="stroke:#181818;stroke-width:1.0;"/><line style="stroke:#181818;stroke-width:1.0;stroke-dasharray:2.0,2.0;" x1="757" x2="1027" y1="1225.375" y2="1225.375"/><text fill="#000000" font-family="sans-serif" font-size="13" font-weight="bold" lengthAdjust="spacing" textLength="18" x="769" y="1220.6201">9.7</text><text fill="#000000" font-family="sans-serif" font-size="13" lengthAdjust="spacing" textLength="53" x="791" y="1220.6201">response</text><polygon fill="#181818" points="433,1249.8984,423,1253.8984,433,1257.8984,429,1253.8984" style="stroke:#181818;stroke-width:1.0;"/><line style="stroke:#181818;stroke-width:1.0;stroke-dasharray:2.0,2.0;" x1="427" x2="746" y1="1253.8984" y2="1253.8984"/><text fill="#000000" font-family="sans-serif" font-size="13" font-weight="bold" lengthAdjust="spacing" textLength="18" x="439" y="1249.1436">9.8</text><text fill="#000000" font-family="sans-serif" font-size="13" lengthAdjust="spacing" textLength="53" x="461" y="1249.1436">response</text><polygon fill="#181818" points="52,1278.4219,42,1282.4219,52,1286.4219,48,1282.4219" style="stroke:#181818;stroke-width:1.0;"/><line style="stroke:#181818;stroke-width:1.0;stroke-dasharray:2.0,2.0;" x1="46" x2="416" y1="1282.4219" y2="1282.4219"/><text fill="#000000" font-family="sans-serif" font-size="13" font-weight="bold" lengthAdjust="spacing" textLength="14" x="58" y="1277.667">10</text><text fill="#000000" font-family="sans-serif" font-size="13" lengthAdjust="spacing" textLength="147" x="76" y="1277.667">shows operation success</text><!--SRC=[jLRVRzCm47xFNt7Q2-tK8SO34fM619EO9aqQwjXRNxpaqfebTh3TZVxtdECaTMed3GBoqihsVVVTTpzi_Sn5nHGhePH2fbibImIZTfZeRgTYwJFRu8FP5mWAKyF4fl0Fw2tBv2iN6yXPeJ59sCv8iIkVK2N9cotF478fpPFybR3KI0LdrmL7OSw0QN1_4q8oFEKL4mREbYlKbHJPvwgIN9YI3ZpUrgSVRq-Ul9R2A5aKg1p-zzLTtqRL9XezcnN-tA6cdqfgJWptQx6SSgpsSB-wIMnW_8KPRED9W3xt7ou-4MzOqjbd3KO2IrEi390G2d-Gdc2s2EpWXfPhFmwaGwROtKAdBbo-lNHhzYCVvCd6UtvEtXp_BB9DcniqOLnwDkzEAyn1lf2BMZ_mlXiquDb2Omntl6LiFnIPnJWi70IoW3t4cjD5frB0gqPk3sSOGV8aUTyNn8Riih2aEfMlEYOq5EG1655kKwIni8cH0fCZfsqMZdBh30Xz43-Up3_ZcJ73O5OfMQ4oU-0YbwfaXaknWBN8BB3CZyjf0TIz128OzRODijfINE3qcfET7_XnRKu9VzbOwOEP7gpfU4aNPb8l16ejsttTQAEGQIdciNA9KpVx2dMBWbaD4oT99Jt8mgMifk2hcKgHSrLEPzCOw14QNgr_RDlVwkTou7VcLJEFenCW9QKChfeXDmkxxbjJPRQo0km570iTwSfEi2FAOuphkoSa_BTyvmT6uUGPdufVzYtoMeoudVU0HwRT-7GzCML3g63G1bEr2IwatZE9pjLXdLpPVgNtmWDgJGDezXy4yE_IMCpna0ybxinFHZcjUtm7TELFgCZHpbaqz0PagnyLmqtq8PdUHV-CU4iu2HkfbrFBFPRIwzelj8xXFfzSuk4YEV6hktsj3MMxqpFow3Xj7HQn_mXxrzk9tWnsHjJtDEWT2Qjrx5xr7RhI_Gq0]--></g></svg>