<?xml version="1.0" encoding="us-ascii" standalone="no"?><svg xmlns="http://www.w3.org/2000/svg" xmlns:xlink="http://www.w3.org/1999/xlink" contentStyleType="text/css" height="870px" preserveAspectRatio="none" style="width:2539px;height:870px;background:#FFFFFF;" version="1.1" viewBox="0 0 2539 870" width="2539px" zoomAndPan="magnify"><defs/><g><!--class ApplicationSession--><g id="elem_ApplicationSession"><rect codeLine="11" fill="#F1F1F1" height="79.2813" id="ApplicationSession" rx="2.5" ry="2.5" style="stroke:#181818;stroke-width:0.5;" width="151" x="642.5" y="301.7549"/><ellipse cx="657.5" cy="317.7549" fill="#ADD1B2" rx="11" ry="11" style="stroke:#181818;stroke-width:1.0;"/><path d="M659.5,314.2549 Q659.7031,313.7549 659.9375,313.5049 Q660.1719,313.2549 660.4375,313.2549 Q660.9063,313.2549 661.2031,313.5361 Q661.5,313.8174 661.5,314.4736 L661.5,316.0361 Q661.5,316.6924 661.2188,316.9736 Q660.9375,317.2549 660.5,317.2549 Q660.1094,317.2549 659.8594,317.083 Q659.6094,316.9111 659.5,316.458 Q659.4531,316.1455 659.2813,315.9736 Q658.9688,315.6455 658.4063,315.458 Q657.8438,315.2549 657.2813,315.2549 Q656.5781,315.2549 655.9844,315.5361 Q655.4063,315.8174 654.9531,316.4424 Q654.5,317.0674 654.5,317.9268 L654.5,318.8486 Q654.5,319.8799 655.3438,320.5674 Q656.1875,321.2549 657.6875,321.2549 Q658.5781,321.2549 659.2031,321.0518 Q659.5625,320.9424 659.9688,320.583 Q660.2344,320.3799 660.375,320.3174 Q660.5156,320.2549 660.6875,320.2549 Q661.0156,320.2549 661.25,320.5205 Q661.5,320.7705 661.5,321.1299 Q661.5,321.4736 661.1563,321.8799 Q660.6563,322.4736 659.8594,322.8018 Q658.8125,323.2549 657.5313,323.2549 Q656.0313,323.2549 654.8281,322.6611 Q653.8594,322.1924 653.1719,321.1768 Q652.5,320.1611 652.5,318.958 L652.5,317.8643 Q652.5,316.6143 653.0938,315.5205 Q653.7031,314.4268 654.75,313.8486 Q655.8125,313.2549 657,313.2549 Q657.7188,313.2549 658.3438,313.5049 Q658.9688,313.7549 659.5,314.2549 Z " fill="#000000"/><text fill="#000000" font-family="sans-serif" font-size="14" lengthAdjust="spacing" textLength="119" x="671.5" y="322.6084">ApplicationSession</text><line style="stroke:#181818;stroke-width:0.5;" x1="643.5" x2="792.5" y1="333.7549" y2="333.7549"/><line style="stroke:#181818;stroke-width:0.5;" x1="643.5" x2="792.5" y1="341.7549" y2="341.7549"/><text fill="#000000" font-family="sans-serif" font-size="14" lengthAdjust="spacing" textLength="128" x="648.5" y="358.4287">+static getInstance()</text><text fill="#000000" font-family="sans-serif" font-size="14" lengthAdjust="spacing" textLength="136" x="648.5" y="374.0693">+getCurrentSession()</text></g><!--class UserSession--><g id="elem_UserSession"><rect codeLine="17" fill="#F1F1F1" height="63.6406" id="UserSession" rx="2.5" ry="2.5" style="stroke:#181818;stroke-width:0.5;" width="113" x="565.5" y="542.7549"/><ellipse cx="581.4" cy="558.7549" fill="#ADD1B2" rx="11" ry="11" style="stroke:#181818;stroke-width:1.0;"/><path d="M583.4,555.2549 Q583.6031,554.7549 583.8375,554.5049 Q584.0719,554.2549 584.3375,554.2549 Q584.8063,554.2549 585.1031,554.5361 Q585.4,554.8174 585.4,555.4736 L585.4,557.0361 Q585.4,557.6924 585.1188,557.9736 Q584.8375,558.2549 584.4,558.2549 Q584.0094,558.2549 583.7594,558.083 Q583.5094,557.9111 583.4,557.458 Q583.3531,557.1455 583.1813,556.9736 Q582.8688,556.6455 582.3063,556.458 Q581.7438,556.2549 581.1813,556.2549 Q580.4781,556.2549 579.8844,556.5361 Q579.3063,556.8174 578.8531,557.4424 Q578.4,558.0674 578.4,558.9268 L578.4,559.8486 Q578.4,560.8799 579.2438,561.5674 Q580.0875,562.2549 581.5875,562.2549 Q582.4781,562.2549 583.1031,562.0518 Q583.4625,561.9424 583.8688,561.583 Q584.1344,561.3799 584.275,561.3174 Q584.4156,561.2549 584.5875,561.2549 Q584.9156,561.2549 585.15,561.5205 Q585.4,561.7705 585.4,562.1299 Q585.4,562.4736 585.0563,562.8799 Q584.5563,563.4736 583.7594,563.8018 Q582.7125,564.2549 581.4313,564.2549 Q579.9313,564.2549 578.7281,563.6611 Q577.7594,563.1924 577.0719,562.1768 Q576.4,561.1611 576.4,559.958 L576.4,558.8643 Q576.4,557.6143 576.9938,556.5205 Q577.6031,555.4268 578.65,554.8486 Q579.7125,554.2549 580.9,554.2549 Q581.6188,554.2549 582.2438,554.5049 Q582.8688,554.7549 583.4,555.2549 Z " fill="#000000"/><text fill="#000000" font-family="sans-serif" font-size="14" lengthAdjust="spacing" textLength="79" x="595.6" y="563.6084">UserSession</text><line style="stroke:#181818;stroke-width:0.5;" x1="566.5" x2="677.5" y1="574.7549" y2="574.7549"/><line style="stroke:#181818;stroke-width:0.5;" x1="566.5" x2="677.5" y1="582.7549" y2="582.7549"/><text fill="#000000" font-family="sans-serif" font-size="14" lengthAdjust="spacing" textLength="101" x="571.5" y="599.4287">+getUserEmail()</text></g><!--class Client--><g id="elem_Client"><rect codeLine="22" fill="#F1F1F1" height="110.5625" id="Client" rx="2.5" ry="2.5" style="stroke:#181818;stroke-width:0.5;" width="68" x="1092" y="519.2549"/><ellipse cx="1107" cy="535.2549" fill="#ADD1B2" rx="11" ry="11" style="stroke:#181818;stroke-width:1.0;"/><path d="M1109,531.7549 Q1109.2031,531.2549 1109.4375,531.0049 Q1109.6719,530.7549 1109.9375,530.7549 Q1110.4063,530.7549 1110.7031,531.0361 Q1111,531.3174 1111,531.9736 L1111,533.5361 Q1111,534.1924 1110.7188,534.4736 Q1110.4375,534.7549 1110,534.7549 Q1109.6094,534.7549 1109.3594,534.583 Q1109.1094,534.4111 1109,533.958 Q1108.9531,533.6455 1108.7813,533.4736 Q1108.4688,533.1455 1107.9063,532.958 Q1107.3438,532.7549 1106.7813,532.7549 Q1106.0781,532.7549 1105.4844,533.0361 Q1104.9063,533.3174 1104.4531,533.9424 Q1104,534.5674 1104,535.4268 L1104,536.3486 Q1104,537.3799 1104.8438,538.0674 Q1105.6875,538.7549 1107.1875,538.7549 Q1108.0781,538.7549 1108.7031,538.5518 Q1109.0625,538.4424 1109.4688,538.083 Q1109.7344,537.8799 1109.875,537.8174 Q1110.0156,537.7549 1110.1875,537.7549 Q1110.5156,537.7549 1110.75,538.0205 Q1111,538.2705 1111,538.6299 Q1111,538.9736 1110.6563,539.3799 Q1110.1563,539.9736 1109.3594,540.3018 Q1108.3125,540.7549 1107.0313,540.7549 Q1105.5313,540.7549 1104.3281,540.1611 Q1103.3594,539.6924 1102.6719,538.6768 Q1102,537.6611 1102,536.458 L1102,535.3643 Q1102,534.1143 1102.5938,533.0205 Q1103.2031,531.9268 1104.25,531.3486 Q1105.3125,530.7549 1106.5,530.7549 Q1107.2188,530.7549 1107.8438,531.0049 Q1108.4688,531.2549 1109,531.7549 Z " fill="#000000"/><text fill="#000000" font-family="sans-serif" font-size="14" lengthAdjust="spacing" textLength="36" x="1121" y="540.1084">Client</text><line style="stroke:#181818;stroke-width:0.5;" x1="1093" x2="1159" y1="551.2549" y2="551.2549"/><text fill="#000000" font-family="sans-serif" font-size="14" lengthAdjust="spacing" textLength="40" x="1098" y="567.9287">-name</text><text fill="#000000" font-family="sans-serif" font-size="14" lengthAdjust="spacing" textLength="38" x="1098" y="583.5693">-email</text><text fill="#000000" font-family="sans-serif" font-size="14" lengthAdjust="spacing" textLength="54" x="1098" y="599.21">-position</text><text fill="#000000" font-family="sans-serif" font-size="14" lengthAdjust="spacing" textLength="45" x="1098" y="614.8506">-phone</text><line style="stroke:#181818;stroke-width:0.5;" x1="1093" x2="1159" y1="621.8174" y2="621.8174"/></g><!--class ResponseOfAppointmentRequest--><g id="elem_ResponseOfAppointmentRequest"><rect codeLine="29" fill="#F1F1F1" height="141.8438" id="ResponseOfAppointmentRequest" rx="2.5" ry="2.5" style="stroke:#181818;stroke-width:0.5;" width="375" x="1315.5" y="270.2549"/><ellipse cx="1393.25" cy="286.2549" fill="#ADD1B2" rx="11" ry="11" style="stroke:#181818;stroke-width:1.0;"/><path d="M1395.25,282.7549 Q1395.4531,282.2549 1395.6875,282.0049 Q1395.9219,281.7549 1396.1875,281.7549 Q1396.6563,281.7549 1396.9531,282.0361 Q1397.25,282.3174 1397.25,282.9736 L1397.25,284.5361 Q1397.25,285.1924 1396.9688,285.4736 Q1396.6875,285.7549 1396.25,285.7549 Q1395.8594,285.7549 1395.6094,285.583 Q1395.3594,285.4111 1395.25,284.958 Q1395.2031,284.6455 1395.0313,284.4736 Q1394.7188,284.1455 1394.1563,283.958 Q1393.5938,283.7549 1393.0313,283.7549 Q1392.3281,283.7549 1391.7344,284.0361 Q1391.1563,284.3174 1390.7031,284.9424 Q1390.25,285.5674 1390.25,286.4268 L1390.25,287.3486 Q1390.25,288.3799 1391.0938,289.0674 Q1391.9375,289.7549 1393.4375,289.7549 Q1394.3281,289.7549 1394.9531,289.5518 Q1395.3125,289.4424 1395.7188,289.083 Q1395.9844,288.8799 1396.125,288.8174 Q1396.2656,288.7549 1396.4375,288.7549 Q1396.7656,288.7549 1397,289.0205 Q1397.25,289.2705 1397.25,289.6299 Q1397.25,289.9736 1396.9063,290.3799 Q1396.4063,290.9736 1395.6094,291.3018 Q1394.5625,291.7549 1393.2813,291.7549 Q1391.7813,291.7549 1390.5781,291.1611 Q1389.6094,290.6924 1388.9219,289.6768 Q1388.25,288.6611 1388.25,287.458 L1388.25,286.3643 Q1388.25,285.1143 1388.8438,284.0205 Q1389.4531,282.9268 1390.5,282.3486 Q1391.5625,281.7549 1392.75,281.7549 Q1393.4688,281.7549 1394.0938,282.0049 Q1394.7188,282.2549 1395.25,282.7549 Z " fill="#000000"/><text fill="#000000" font-family="sans-serif" font-size="14" lengthAdjust="spacing" textLength="211" x="1413.75" y="291.1084">ResponseOfAppointmentRequest</text><line style="stroke:#181818;stroke-width:0.5;" x1="1316.5" x2="1689.5" y1="302.2549" y2="302.2549"/><text fill="#000000" font-family="sans-serif" font-size="14" lengthAdjust="spacing" textLength="182" x="1321.5" y="318.9287">-Boolean acceptAppointment</text><text fill="#000000" font-family="sans-serif" font-size="14" lengthAdjust="spacing" textLength="90" x="1321.5" y="334.5693">-String reason</text><line style="stroke:#181818;stroke-width:0.5;" x1="1316.5" x2="1689.5" y1="341.5361" y2="341.5361"/><text fill="#000000" font-family="sans-serif" font-size="14" lengthAdjust="spacing" textLength="219" x="1321.5" y="358.21">+ResponseOfAppointmentRequest</text><text fill="#000000" font-family="sans-serif" font-size="14" lengthAdjust="spacing" textLength="311" x="1321.5" y="373.8506">(appointmentRequest, acceptAppointment, client)</text><text fill="#000000" font-family="sans-serif" font-size="14" lengthAdjust="spacing" textLength="359" x="1321.5" y="389.4912">+ResponseOfAppointmentRequest(appointmentRequest,</text><text fill="#000000" font-family="sans-serif" font-size="14" lengthAdjust="spacing" textLength="219" x="1321.5" y="405.1318">acceptAppointment, reason, client)</text></g><!--class AppointmentRequest--><g id="elem_AppointmentRequest"><rect codeLine="37" fill="#F1F1F1" height="79.2813" id="AppointmentRequest" rx="2.5" ry="2.5" style="stroke:#181818;stroke-width:0.5;" width="612" x="1197" y="535.2549"/><ellipse cx="1432.75" cy="551.2549" fill="#ADD1B2" rx="11" ry="11" style="stroke:#181818;stroke-width:1.0;"/><path d="M1434.75,547.7549 Q1434.9531,547.2549 1435.1875,547.0049 Q1435.4219,546.7549 1435.6875,546.7549 Q1436.1563,546.7549 1436.4531,547.0361 Q1436.75,547.3174 1436.75,547.9736 L1436.75,549.5361 Q1436.75,550.1924 1436.4688,550.4736 Q1436.1875,550.7549 1435.75,550.7549 Q1435.3594,550.7549 1435.1094,550.583 Q1434.8594,550.4111 1434.75,549.958 Q1434.7031,549.6455 1434.5313,549.4736 Q1434.2188,549.1455 1433.6563,548.958 Q1433.0938,548.7549 1432.5313,548.7549 Q1431.8281,548.7549 1431.2344,549.0361 Q1430.6563,549.3174 1430.2031,549.9424 Q1429.75,550.5674 1429.75,551.4268 L1429.75,552.3486 Q1429.75,553.3799 1430.5938,554.0674 Q1431.4375,554.7549 1432.9375,554.7549 Q1433.8281,554.7549 1434.4531,554.5518 Q1434.8125,554.4424 1435.2188,554.083 Q1435.4844,553.8799 1435.625,553.8174 Q1435.7656,553.7549 1435.9375,553.7549 Q1436.2656,553.7549 1436.5,554.0205 Q1436.75,554.2705 1436.75,554.6299 Q1436.75,554.9736 1436.4063,555.3799 Q1435.9063,555.9736 1435.1094,556.3018 Q1434.0625,556.7549 1432.7813,556.7549 Q1431.2813,556.7549 1430.0781,556.1611 Q1429.1094,555.6924 1428.4219,554.6768 Q1427.75,553.6611 1427.75,552.458 L1427.75,551.3643 Q1427.75,550.1143 1428.3438,549.0205 Q1428.9531,547.9268 1430,547.3486 Q1431.0625,546.7549 1432.25,546.7549 Q1432.9688,546.7549 1433.5938,547.0049 Q1434.2188,547.2549 1434.75,547.7549 Z " fill="#000000"/><text fill="#000000" font-family="sans-serif" font-size="14" lengthAdjust="spacing" textLength="132" x="1453.25" y="556.1084">AppointmentRequest</text><line style="stroke:#181818;stroke-width:0.5;" x1="1198" x2="1808" y1="567.2549" y2="567.2549"/><text fill="#000000" font-family="sans-serif" font-size="14" lengthAdjust="spacing" textLength="214" x="1203" y="583.9287">-Date dateOfAppointmentRequest</text><line style="stroke:#181818;stroke-width:0.5;" x1="1198" x2="1808" y1="590.8955" y2="590.8955"/><text fill="#000000" font-family="sans-serif" font-size="14" lengthAdjust="spacing" textLength="600" x="1203" y="607.5693">+AppointmentRequest(property, dateOfAppointmentRequest, agentName, agentPhoneNumber)</text></g><!--class Property--><g id="elem_Property"><rect codeLine="43" fill="#F1F1F1" height="79.2813" id="Property" rx="2.5" ry="2.5" style="stroke:#181818;stroke-width:0.5;" width="170" x="2145" y="301.7549"/><ellipse cx="2198.75" cy="317.7549" fill="#ADD1B2" rx="11" ry="11" style="stroke:#181818;stroke-width:1.0;"/><path d="M2200.75,314.2549 Q2200.9531,313.7549 2201.1875,313.5049 Q2201.4219,313.2549 2201.6875,313.2549 Q2202.1563,313.2549 2202.4531,313.5361 Q2202.75,313.8174 2202.75,314.4736 L2202.75,316.0361 Q2202.75,316.6924 2202.4688,316.9736 Q2202.1875,317.2549 2201.75,317.2549 Q2201.3594,317.2549 2201.1094,317.083 Q2200.8594,316.9111 2200.75,316.458 Q2200.7031,316.1455 2200.5313,315.9736 Q2200.2188,315.6455 2199.6563,315.458 Q2199.0938,315.2549 2198.5313,315.2549 Q2197.8281,315.2549 2197.2344,315.5361 Q2196.6563,315.8174 2196.2031,316.4424 Q2195.75,317.0674 2195.75,317.9268 L2195.75,318.8486 Q2195.75,319.8799 2196.5938,320.5674 Q2197.4375,321.2549 2198.9375,321.2549 Q2199.8281,321.2549 2200.4531,321.0518 Q2200.8125,320.9424 2201.2188,320.583 Q2201.4844,320.3799 2201.625,320.3174 Q2201.7656,320.2549 2201.9375,320.2549 Q2202.2656,320.2549 2202.5,320.5205 Q2202.75,320.7705 2202.75,321.1299 Q2202.75,321.4736 2202.4063,321.8799 Q2201.9063,322.4736 2201.1094,322.8018 Q2200.0625,323.2549 2198.7813,323.2549 Q2197.2813,323.2549 2196.0781,322.6611 Q2195.1094,322.1924 2194.4219,321.1768 Q2193.75,320.1611 2193.75,318.958 L2193.75,317.8643 Q2193.75,316.6143 2194.3438,315.5205 Q2194.9531,314.4268 2196,313.8486 Q2197.0625,313.2549 2198.25,313.2549 Q2198.9688,313.2549 2199.5938,313.5049 Q2200.2188,313.7549 2200.75,314.2549 Z " fill="#000000"/><text fill="#000000" font-family="sans-serif" font-size="14" lengthAdjust="spacing" textLength="54" x="2219.25" y="322.6084">Property</text><line style="stroke:#181818;stroke-width:0.5;" x1="2146" x2="2314" y1="333.7549" y2="333.7549"/><text fill="#000000" font-family="sans-serif" font-size="14" lengthAdjust="spacing" textLength="34" x="2151" y="350.4287">-area</text><text fill="#000000" font-family="sans-serif" font-size="14" lengthAdjust="spacing" textLength="158" x="2151" y="366.0693">-distanceFromCityCentre</text><line style="stroke:#181818;stroke-width:0.5;" x1="2146" x2="2314" y1="373.0361" y2="373.0361"/></g><!--class Land--><g id="elem_Land"><rect codeLine="48" fill="#F1F1F1" height="48" id="Land" rx="2.5" ry="2.5" style="stroke:#181818;stroke-width:0.5;" width="64" x="2391" y="550.7549"/><ellipse cx="2406" cy="566.7549" fill="#ADD1B2" rx="11" ry="11" style="stroke:#181818;stroke-width:1.0;"/><path d="M2408,563.2549 Q2408.2031,562.7549 2408.4375,562.5049 Q2408.6719,562.2549 2408.9375,562.2549 Q2409.4063,562.2549 2409.7031,562.5361 Q2410,562.8174 2410,563.4736 L2410,565.0361 Q2410,565.6924 2409.7188,565.9736 Q2409.4375,566.2549 2409,566.2549 Q2408.6094,566.2549 2408.3594,566.083 Q2408.1094,565.9111 2408,565.458 Q2407.9531,565.1455 2407.7813,564.9736 Q2407.4688,564.6455 2406.9063,564.458 Q2406.3438,564.2549 2405.7813,564.2549 Q2405.0781,564.2549 2404.4844,564.5361 Q2403.9063,564.8174 2403.4531,565.4424 Q2403,566.0674 2403,566.9268 L2403,567.8486 Q2403,568.8799 2403.8438,569.5674 Q2404.6875,570.2549 2406.1875,570.2549 Q2407.0781,570.2549 2407.7031,570.0518 Q2408.0625,569.9424 2408.4688,569.583 Q2408.7344,569.3799 2408.875,569.3174 Q2409.0156,569.2549 2409.1875,569.2549 Q2409.5156,569.2549 2409.75,569.5205 Q2410,569.7705 2410,570.1299 Q2410,570.4736 2409.6563,570.8799 Q2409.1563,571.4736 2408.3594,571.8018 Q2407.3125,572.2549 2406.0313,572.2549 Q2404.5313,572.2549 2403.3281,571.6611 Q2402.3594,571.1924 2401.6719,570.1768 Q2401,569.1611 2401,567.958 L2401,566.8643 Q2401,565.6143 2401.5938,564.5205 Q2402.2031,563.4268 2403.25,562.8486 Q2404.3125,562.2549 2405.5,562.2549 Q2406.2188,562.2549 2406.8438,562.5049 Q2407.4688,562.7549 2408,563.2549 Z " fill="#000000"/><text fill="#000000" font-family="sans-serif" font-size="14" lengthAdjust="spacing" textLength="32" x="2420" y="571.6084">Land</text><line style="stroke:#181818;stroke-width:0.5;" x1="2392" x2="2454" y1="582.7549" y2="582.7549"/><line style="stroke:#181818;stroke-width:0.5;" x1="2392" x2="2454" y1="590.7549" y2="590.7549"/></g><!--class Apartment--><g id="elem_Apartment"><rect codeLine="51" fill="#F1F1F1" height="126.2031" id="Apartment" rx="2.5" ry="2.5" style="stroke:#181818;stroke-width:0.5;" width="175" x="1849.5" y="511.7549"/><ellipse cx="1900.25" cy="527.7549" fill="#ADD1B2" rx="11" ry="11" style="stroke:#181818;stroke-width:1.0;"/><path d="M1902.25,524.2549 Q1902.4531,523.7549 1902.6875,523.5049 Q1902.9219,523.2549 1903.1875,523.2549 Q1903.6563,523.2549 1903.9531,523.5361 Q1904.25,523.8174 1904.25,524.4736 L1904.25,526.0361 Q1904.25,526.6924 1903.9688,526.9736 Q1903.6875,527.2549 1903.25,527.2549 Q1902.8594,527.2549 1902.6094,527.083 Q1902.3594,526.9111 1902.25,526.458 Q1902.2031,526.1455 1902.0313,525.9736 Q1901.7188,525.6455 1901.1563,525.458 Q1900.5938,525.2549 1900.0313,525.2549 Q1899.3281,525.2549 1898.7344,525.5361 Q1898.1563,525.8174 1897.7031,526.4424 Q1897.25,527.0674 1897.25,527.9268 L1897.25,528.8486 Q1897.25,529.8799 1898.0938,530.5674 Q1898.9375,531.2549 1900.4375,531.2549 Q1901.3281,531.2549 1901.9531,531.0518 Q1902.3125,530.9424 1902.7188,530.583 Q1902.9844,530.3799 1903.125,530.3174 Q1903.2656,530.2549 1903.4375,530.2549 Q1903.7656,530.2549 1904,530.5205 Q1904.25,530.7705 1904.25,531.1299 Q1904.25,531.4736 1903.9063,531.8799 Q1903.4063,532.4736 1902.6094,532.8018 Q1901.5625,533.2549 1900.2813,533.2549 Q1898.7813,533.2549 1897.5781,532.6611 Q1896.6094,532.1924 1895.9219,531.1768 Q1895.25,530.1611 1895.25,528.958 L1895.25,527.8643 Q1895.25,526.6143 1895.8438,525.5205 Q1896.4531,524.4268 1897.5,523.8486 Q1898.5625,523.2549 1899.75,523.2549 Q1900.4688,523.2549 1901.0938,523.5049 Q1901.7188,523.7549 1902.25,524.2549 Z " fill="#000000"/><text fill="#000000" font-family="sans-serif" font-size="14" lengthAdjust="spacing" textLength="65" x="1920.75" y="532.6084">Apartment</text><line style="stroke:#181818;stroke-width:0.5;" x1="1850.5" x2="2023.5" y1="543.7549" y2="543.7549"/><text fill="#000000" font-family="sans-serif" font-size="14" lengthAdjust="spacing" textLength="132" x="1855.5" y="560.4287">-numberOfBedrooms</text><text fill="#000000" font-family="sans-serif" font-size="14" lengthAdjust="spacing" textLength="136" x="1855.5" y="576.0693">-numberOfBathrooms</text><text fill="#000000" font-family="sans-serif" font-size="14" lengthAdjust="spacing" textLength="163" x="1855.5" y="591.71">-numberOfParkingSpaces</text><text fill="#000000" font-family="sans-serif" font-size="14" lengthAdjust="spacing" textLength="96" x="1855.5" y="607.3506">-centralHeating</text><text fill="#000000" font-family="sans-serif" font-size="14" lengthAdjust="spacing" textLength="100" x="1855.5" y="622.9912">-airConditioning</text><line style="stroke:#181818;stroke-width:0.5;" x1="1850.5" x2="2023.5" y1="629.958" y2="629.958"/></g><!--class House--><g id="elem_House"><rect codeLine="59" fill="#F1F1F1" height="173.125" id="House" rx="2.5" ry="2.5" style="stroke:#181818;stroke-width:0.5;" width="175" x="2059.5" y="488.2549"/><ellipse cx="2122.75" cy="504.2549" fill="#ADD1B2" rx="11" ry="11" style="stroke:#181818;stroke-width:1.0;"/><path d="M2124.75,500.7549 Q2124.9531,500.2549 2125.1875,500.0049 Q2125.4219,499.7549 2125.6875,499.7549 Q2126.1563,499.7549 2126.4531,500.0361 Q2126.75,500.3174 2126.75,500.9736 L2126.75,502.5361 Q2126.75,503.1924 2126.4688,503.4736 Q2126.1875,503.7549 2125.75,503.7549 Q2125.3594,503.7549 2125.1094,503.583 Q2124.8594,503.4111 2124.75,502.958 Q2124.7031,502.6455 2124.5313,502.4736 Q2124.2188,502.1455 2123.6563,501.958 Q2123.0938,501.7549 2122.5313,501.7549 Q2121.8281,501.7549 2121.2344,502.0361 Q2120.6563,502.3174 2120.2031,502.9424 Q2119.75,503.5674 2119.75,504.4268 L2119.75,505.3486 Q2119.75,506.3799 2120.5938,507.0674 Q2121.4375,507.7549 2122.9375,507.7549 Q2123.8281,507.7549 2124.4531,507.5518 Q2124.8125,507.4424 2125.2188,507.083 Q2125.4844,506.8799 2125.625,506.8174 Q2125.7656,506.7549 2125.9375,506.7549 Q2126.2656,506.7549 2126.5,507.0205 Q2126.75,507.2705 2126.75,507.6299 Q2126.75,507.9736 2126.4063,508.3799 Q2125.9063,508.9736 2125.1094,509.3018 Q2124.0625,509.7549 2122.7813,509.7549 Q2121.2813,509.7549 2120.0781,509.1611 Q2119.1094,508.6924 2118.4219,507.6768 Q2117.75,506.6611 2117.75,505.458 L2117.75,504.3643 Q2117.75,503.1143 2118.3438,502.0205 Q2118.9531,500.9268 2120,500.3486 Q2121.0625,499.7549 2122.25,499.7549 Q2122.9688,499.7549 2123.5938,500.0049 Q2124.2188,500.2549 2124.75,500.7549 Z " fill="#000000"/><text fill="#000000" font-family="sans-serif" font-size="14" lengthAdjust="spacing" textLength="40" x="2143.25" y="509.1084">House</text><line style="stroke:#181818;stroke-width:0.5;" x1="2060.5" x2="2233.5" y1="520.2549" y2="520.2549"/><text fill="#000000" font-family="sans-serif" font-size="14" lengthAdjust="spacing" textLength="132" x="2065.5" y="536.9287">-numberOfBedrooms</text><text fill="#000000" font-family="sans-serif" font-size="14" lengthAdjust="spacing" textLength="136" x="2065.5" y="552.5693">-numberOfBathrooms</text><text fill="#000000" font-family="sans-serif" font-size="14" lengthAdjust="spacing" textLength="163" x="2065.5" y="568.21">-numberOfParkingSpaces</text><text fill="#000000" font-family="sans-serif" font-size="14" lengthAdjust="spacing" textLength="96" x="2065.5" y="583.8506">-centralHeating</text><text fill="#000000" font-family="sans-serif" font-size="14" lengthAdjust="spacing" textLength="100" x="2065.5" y="599.4912">-airConditioning</text><text fill="#000000" font-family="sans-serif" font-size="14" lengthAdjust="spacing" textLength="159" x="2065.5" y="615.1318">-existenceOfAnBasement</text><text fill="#000000" font-family="sans-serif" font-size="14" lengthAdjust="spacing" textLength="98" x="2065.5" y="630.7725">-inhabitableLoft</text><text fill="#000000" font-family="sans-serif" font-size="14" lengthAdjust="spacing" textLength="87" x="2065.5" y="646.4131">-sunExposure</text><line style="stroke:#181818;stroke-width:0.5;" x1="2060.5" x2="2233.5" y1="653.3799" y2="653.3799"/></g><!--class Location--><g id="elem_Location"><rect codeLine="70" fill="#F1F1F1" height="110.5625" id="Location" rx="2.5" ry="2.5" style="stroke:#181818;stroke-width:0.5;" width="86" x="2270" y="519.2549"/><ellipse cx="2285" cy="535.2549" fill="#ADD1B2" rx="11" ry="11" style="stroke:#181818;stroke-width:1.0;"/><path d="M2287,531.7549 Q2287.2031,531.2549 2287.4375,531.0049 Q2287.6719,530.7549 2287.9375,530.7549 Q2288.4063,530.7549 2288.7031,531.0361 Q2289,531.3174 2289,531.9736 L2289,533.5361 Q2289,534.1924 2288.7188,534.4736 Q2288.4375,534.7549 2288,534.7549 Q2287.6094,534.7549 2287.3594,534.583 Q2287.1094,534.4111 2287,533.958 Q2286.9531,533.6455 2286.7813,533.4736 Q2286.4688,533.1455 2285.9063,532.958 Q2285.3438,532.7549 2284.7813,532.7549 Q2284.0781,532.7549 2283.4844,533.0361 Q2282.9063,533.3174 2282.4531,533.9424 Q2282,534.5674 2282,535.4268 L2282,536.3486 Q2282,537.3799 2282.8438,538.0674 Q2283.6875,538.7549 2285.1875,538.7549 Q2286.0781,538.7549 2286.7031,538.5518 Q2287.0625,538.4424 2287.4688,538.083 Q2287.7344,537.8799 2287.875,537.8174 Q2288.0156,537.7549 2288.1875,537.7549 Q2288.5156,537.7549 2288.75,538.0205 Q2289,538.2705 2289,538.6299 Q2289,538.9736 2288.6563,539.3799 Q2288.1563,539.9736 2287.3594,540.3018 Q2286.3125,540.7549 2285.0313,540.7549 Q2283.5313,540.7549 2282.3281,540.1611 Q2281.3594,539.6924 2280.6719,538.6768 Q2280,537.6611 2280,536.458 L2280,535.3643 Q2280,534.1143 2280.5938,533.0205 Q2281.2031,531.9268 2282.25,531.3486 Q2283.3125,530.7549 2284.5,530.7549 Q2285.2188,530.7549 2285.8438,531.0049 Q2286.4688,531.2549 2287,531.7549 Z " fill="#000000"/><text fill="#000000" font-family="sans-serif" font-size="14" lengthAdjust="spacing" textLength="54" x="2299" y="540.1084">Location</text><line style="stroke:#181818;stroke-width:0.5;" x1="2271" x2="2355" y1="551.2549" y2="551.2549"/><text fill="#000000" font-family="sans-serif" font-size="14" lengthAdjust="spacing" textLength="41" x="2276" y="567.9287">-street</text><text fill="#000000" font-family="sans-serif" font-size="14" lengthAdjust="spacing" textLength="26" x="2276" y="583.5693">-city</text><text fill="#000000" font-family="sans-serif" font-size="14" lengthAdjust="spacing" textLength="36" x="2276" y="599.21">-state</text><text fill="#000000" font-family="sans-serif" font-size="14" lengthAdjust="spacing" textLength="56" x="2276" y="614.8506">-zipCode</text><line style="stroke:#181818;stroke-width:0.5;" x1="2271" x2="2355" y1="621.8174" y2="621.8174"/></g><!--class Agent--><g id="elem_Agent"><rect codeLine="77" fill="#F1F1F1" height="126.2031" id="Agent" rx="2.5" ry="2.5" style="stroke:#181818;stroke-width:0.5;" width="106" x="1450" y="737.2549"/><ellipse cx="1481.65" cy="753.2549" fill="#ADD1B2" rx="11" ry="11" style="stroke:#181818;stroke-width:1.0;"/><path d="M1483.65,749.7549 Q1483.8531,749.2549 1484.0875,749.0049 Q1484.3219,748.7549 1484.5875,748.7549 Q1485.0563,748.7549 1485.3531,749.0361 Q1485.65,749.3174 1485.65,749.9736 L1485.65,751.5361 Q1485.65,752.1924 1485.3688,752.4736 Q1485.0875,752.7549 1484.65,752.7549 Q1484.2594,752.7549 1484.0094,752.583 Q1483.7594,752.4111 1483.65,751.958 Q1483.6031,751.6455 1483.4313,751.4736 Q1483.1188,751.1455 1482.5563,750.958 Q1481.9938,750.7549 1481.4313,750.7549 Q1480.7281,750.7549 1480.1344,751.0361 Q1479.5563,751.3174 1479.1031,751.9424 Q1478.65,752.5674 1478.65,753.4268 L1478.65,754.3486 Q1478.65,755.3799 1479.4938,756.0674 Q1480.3375,756.7549 1481.8375,756.7549 Q1482.7281,756.7549 1483.3531,756.5518 Q1483.7125,756.4424 1484.1188,756.083 Q1484.3844,755.8799 1484.525,755.8174 Q1484.6656,755.7549 1484.8375,755.7549 Q1485.1656,755.7549 1485.4,756.0205 Q1485.65,756.2705 1485.65,756.6299 Q1485.65,756.9736 1485.3063,757.3799 Q1484.8063,757.9736 1484.0094,758.3018 Q1482.9625,758.7549 1481.6813,758.7549 Q1480.1813,758.7549 1478.9781,758.1611 Q1478.0094,757.6924 1477.3219,756.6768 Q1476.65,755.6611 1476.65,754.458 L1476.65,753.3643 Q1476.65,752.1143 1477.2438,751.0205 Q1477.8531,749.9268 1478.9,749.3486 Q1479.9625,748.7549 1481.15,748.7549 Q1481.8688,748.7549 1482.4938,749.0049 Q1483.1188,749.2549 1483.65,749.7549 Z " fill="#000000"/><text fill="#000000" font-family="sans-serif" font-size="14" lengthAdjust="spacing" textLength="37" x="1499.35" y="758.1084">Agent</text><line style="stroke:#181818;stroke-width:0.5;" x1="1451" x2="1555" y1="769.2549" y2="769.2549"/><text fill="#000000" font-family="sans-serif" font-size="14" lengthAdjust="spacing" textLength="40" x="1456" y="785.9287">-name</text><text fill="#000000" font-family="sans-serif" font-size="14" lengthAdjust="spacing" textLength="68" x="1456" y="801.5693">-ccNumber</text><text fill="#000000" font-family="sans-serif" font-size="14" lengthAdjust="spacing" textLength="72" x="1456" y="817.21">-taxNumber</text><text fill="#000000" font-family="sans-serif" font-size="14" lengthAdjust="spacing" textLength="90" x="1456" y="832.8506">-emailAddress</text><text fill="#000000" font-family="sans-serif" font-size="14" lengthAdjust="spacing" textLength="94" x="1456" y="848.4912">-phoneNumber</text><line style="stroke:#181818;stroke-width:0.5;" x1="1451" x2="1555" y1="855.458" y2="855.458"/></g><!--class ResponseOfAppointmentRequestRepository--><g id="elem_ResponseOfAppointmentRequestRepository"><rect codeLine="85" fill="#F1F1F1" height="110.5625" id="ResponseOfAppointmentRequestRepository" rx="2.5" ry="2.5" style="stroke:#181818;stroke-width:0.5;" width="556" x="1572" y="67.7549"/><ellipse cx="1706.25" cy="83.7549" fill="#ADD1B2" rx="11" ry="11" style="stroke:#181818;stroke-width:1.0;"/><path d="M1708.25,80.2549 Q1708.4531,79.7549 1708.6875,79.5049 Q1708.9219,79.2549 1709.1875,79.2549 Q1709.6563,79.2549 1709.9531,79.5361 Q1710.25,79.8174 1710.25,80.4736 L1710.25,82.0361 Q1710.25,82.6924 1709.9688,82.9736 Q1709.6875,83.2549 1709.25,83.2549 Q1708.8594,83.2549 1708.6094,83.083 Q1708.3594,82.9111 1708.25,82.458 Q1708.2031,82.1455 1708.0313,81.9736 Q1707.7188,81.6455 1707.1563,81.458 Q1706.5938,81.2549 1706.0313,81.2549 Q1705.3281,81.2549 1704.7344,81.5361 Q1704.1563,81.8174 1703.7031,82.4424 Q1703.25,83.0674 1703.25,83.9268 L1703.25,84.8486 Q1703.25,85.8799 1704.0938,86.5674 Q1704.9375,87.2549 1706.4375,87.2549 Q1707.3281,87.2549 1707.9531,87.0518 Q1708.3125,86.9424 1708.7188,86.583 Q1708.9844,86.3799 1709.125,86.3174 Q1709.2656,86.2549 1709.4375,86.2549 Q1709.7656,86.2549 1710,86.5205 Q1710.25,86.7705 1710.25,87.1299 Q1710.25,87.4736 1709.9063,87.8799 Q1709.4063,88.4736 1708.6094,88.8018 Q1707.5625,89.2549 1706.2813,89.2549 Q1704.7813,89.2549 1703.5781,88.6611 Q1702.6094,88.1924 1701.9219,87.1768 Q1701.25,86.1611 1701.25,84.958 L1701.25,83.8643 Q1701.25,82.6143 1701.8438,81.5205 Q1702.4531,80.4268 1703.5,79.8486 Q1704.5625,79.2549 1705.75,79.2549 Q1706.4688,79.2549 1707.0938,79.5049 Q1707.7188,79.7549 1708.25,80.2549 Z " fill="#000000"/><text fill="#000000" font-family="sans-serif" font-size="14" lengthAdjust="spacing" textLength="279" x="1726.75" y="88.6084">ResponseOfAppointmentRequestRepository</text><line style="stroke:#181818;stroke-width:0.5;" x1="1573" x2="2127" y1="99.7549" y2="99.7549"/><line style="stroke:#181818;stroke-width:0.5;" x1="1573" x2="2127" y1="107.7549" y2="107.7549"/><text fill="#000000" font-family="sans-serif" font-size="14" lengthAdjust="spacing" textLength="309" x="1578" y="124.4287">-addResponse(responseOfAppointmentRequest)</text><text fill="#000000" font-family="sans-serif" font-size="14" lengthAdjust="spacing" textLength="339" x="1578" y="140.0693">-validateResponse(responseOfAppointmentRequest))</text><text fill="#000000" font-family="sans-serif" font-size="14" lengthAdjust="spacing" textLength="495" x="1578" y="155.71">+createResponseAccepted(appointmentRequestLocation, acceptAppointment)</text><text fill="#000000" font-family="sans-serif" font-size="14" lengthAdjust="spacing" textLength="544" x="1578" y="171.3506">+createResponseRejected(appointmentRequestLocation, acceptAppointment, reason)</text></g><!--class AppointmentRequestRepository--><g id="elem_AppointmentRequestRepository"><rect codeLine="93" fill="#F1F1F1" height="63.6406" id="AppointmentRequestRepository" rx="2.5" ry="2.5" style="stroke:#181818;stroke-width:0.5;" width="305" x="2163.5" y="91.2549"/><ellipse cx="2211.75" cy="107.2549" fill="#ADD1B2" rx="11" ry="11" style="stroke:#181818;stroke-width:1.0;"/><path d="M2213.75,103.7549 Q2213.9531,103.2549 2214.1875,103.0049 Q2214.4219,102.7549 2214.6875,102.7549 Q2215.1563,102.7549 2215.4531,103.0361 Q2215.75,103.3174 2215.75,103.9736 L2215.75,105.5361 Q2215.75,106.1924 2215.4688,106.4736 Q2215.1875,106.7549 2214.75,106.7549 Q2214.3594,106.7549 2214.1094,106.583 Q2213.8594,106.4111 2213.75,105.958 Q2213.7031,105.6455 2213.5313,105.4736 Q2213.2188,105.1455 2212.6563,104.958 Q2212.0938,104.7549 2211.5313,104.7549 Q2210.8281,104.7549 2210.2344,105.0361 Q2209.6563,105.3174 2209.2031,105.9424 Q2208.75,106.5674 2208.75,107.4268 L2208.75,108.3486 Q2208.75,109.3799 2209.5938,110.0674 Q2210.4375,110.7549 2211.9375,110.7549 Q2212.8281,110.7549 2213.4531,110.5518 Q2213.8125,110.4424 2214.2188,110.083 Q2214.4844,109.8799 2214.625,109.8174 Q2214.7656,109.7549 2214.9375,109.7549 Q2215.2656,109.7549 2215.5,110.0205 Q2215.75,110.2705 2215.75,110.6299 Q2215.75,110.9736 2215.4063,111.3799 Q2214.9063,111.9736 2214.1094,112.3018 Q2213.0625,112.7549 2211.7813,112.7549 Q2210.2813,112.7549 2209.0781,112.1611 Q2208.1094,111.6924 2207.4219,110.6768 Q2206.75,109.6611 2206.75,108.458 L2206.75,107.3643 Q2206.75,106.1143 2207.3438,105.0205 Q2207.9531,103.9268 2209,103.3486 Q2210.0625,102.7549 2211.25,102.7549 Q2211.9688,102.7549 2212.5938,103.0049 Q2213.2188,103.2549 2213.75,103.7549 Z " fill="#000000"/><text fill="#000000" font-family="sans-serif" font-size="14" lengthAdjust="spacing" textLength="200" x="2232.25" y="112.1084">AppointmentRequestRepository</text><line style="stroke:#181818;stroke-width:0.5;" x1="2164.5" x2="2467.5" y1="123.2549" y2="123.2549"/><line style="stroke:#181818;stroke-width:0.5;" x1="2164.5" x2="2467.5" y1="131.2549" y2="131.2549"/><text fill="#000000" font-family="sans-serif" font-size="14" lengthAdjust="spacing" textLength="293" x="2169.5" y="147.9287">+getAppointmentRequestByProperty(property)</text></g><!--class ClientRepository--><g id="elem_ClientRepository"><rect codeLine="97" fill="#F1F1F1" height="63.6406" id="ClientRepository" rx="2.5" ry="2.5" style="stroke:#181818;stroke-width:0.5;" width="169" x="1037.5" y="309.2549"/><ellipse cx="1067.35" cy="325.2549" fill="#ADD1B2" rx="11" ry="11" style="stroke:#181818;stroke-width:1.0;"/><path d="M1069.35,321.7549 Q1069.5531,321.2549 1069.7875,321.0049 Q1070.0219,320.7549 1070.2875,320.7549 Q1070.7563,320.7549 1071.0531,321.0361 Q1071.35,321.3174 1071.35,321.9736 L1071.35,323.5361 Q1071.35,324.1924 1071.0688,324.4736 Q1070.7875,324.7549 1070.35,324.7549 Q1069.9594,324.7549 1069.7094,324.583 Q1069.4594,324.4111 1069.35,323.958 Q1069.3031,323.6455 1069.1313,323.4736 Q1068.8188,323.1455 1068.2563,322.958 Q1067.6938,322.7549 1067.1313,322.7549 Q1066.4281,322.7549 1065.8344,323.0361 Q1065.2563,323.3174 1064.8031,323.9424 Q1064.35,324.5674 1064.35,325.4268 L1064.35,326.3486 Q1064.35,327.3799 1065.1938,328.0674 Q1066.0375,328.7549 1067.5375,328.7549 Q1068.4281,328.7549 1069.0531,328.5518 Q1069.4125,328.4424 1069.8188,328.083 Q1070.0844,327.8799 1070.225,327.8174 Q1070.3656,327.7549 1070.5375,327.7549 Q1070.8656,327.7549 1071.1,328.0205 Q1071.35,328.2705 1071.35,328.6299 Q1071.35,328.9736 1071.0063,329.3799 Q1070.5063,329.9736 1069.7094,330.3018 Q1068.6625,330.7549 1067.3813,330.7549 Q1065.8813,330.7549 1064.6781,330.1611 Q1063.7094,329.6924 1063.0219,328.6768 Q1062.35,327.6611 1062.35,326.458 L1062.35,325.3643 Q1062.35,324.1143 1062.9438,323.0205 Q1063.5531,321.9268 1064.6,321.3486 Q1065.6625,320.7549 1066.85,320.7549 Q1067.5688,320.7549 1068.1938,321.0049 Q1068.8188,321.2549 1069.35,321.7549 Z " fill="#000000"/><text fill="#000000" font-family="sans-serif" font-size="14" lengthAdjust="spacing" textLength="104" x="1084.65" y="330.1084">ClientRepository</text><line style="stroke:#181818;stroke-width:0.5;" x1="1038.5" x2="1205.5" y1="341.2549" y2="341.2549"/><line style="stroke:#181818;stroke-width:0.5;" x1="1038.5" x2="1205.5" y1="349.2549" y2="349.2549"/><text fill="#000000" font-family="sans-serif" font-size="14" lengthAdjust="spacing" textLength="157" x="1043.5" y="365.9287">+getClientFromSession()</text></g><!--class Repositories--><g id="elem_Repositories"><rect codeLine="101" fill="#F1F1F1" height="126.2031" id="Repositories" rx="2.5" ry="2.5" style="stroke:#181818;stroke-width:0.5;" width="314" x="1144" y="60.2549"/><ellipse cx="1257.25" cy="76.2549" fill="#ADD1B2" rx="11" ry="11" style="stroke:#181818;stroke-width:1.0;"/><path d="M1259.25,72.7549 Q1259.4531,72.2549 1259.6875,72.0049 Q1259.9219,71.7549 1260.1875,71.7549 Q1260.6563,71.7549 1260.9531,72.0361 Q1261.25,72.3174 1261.25,72.9736 L1261.25,74.5361 Q1261.25,75.1924 1260.9688,75.4736 Q1260.6875,75.7549 1260.25,75.7549 Q1259.8594,75.7549 1259.6094,75.583 Q1259.3594,75.4111 1259.25,74.958 Q1259.2031,74.6455 1259.0313,74.4736 Q1258.7188,74.1455 1258.1563,73.958 Q1257.5938,73.7549 1257.0313,73.7549 Q1256.3281,73.7549 1255.7344,74.0361 Q1255.1563,74.3174 1254.7031,74.9424 Q1254.25,75.5674 1254.25,76.4268 L1254.25,77.3486 Q1254.25,78.3799 1255.0938,79.0674 Q1255.9375,79.7549 1257.4375,79.7549 Q1258.3281,79.7549 1258.9531,79.5518 Q1259.3125,79.4424 1259.7188,79.083 Q1259.9844,78.8799 1260.125,78.8174 Q1260.2656,78.7549 1260.4375,78.7549 Q1260.7656,78.7549 1261,79.0205 Q1261.25,79.2705 1261.25,79.6299 Q1261.25,79.9736 1260.9063,80.3799 Q1260.4063,80.9736 1259.6094,81.3018 Q1258.5625,81.7549 1257.2813,81.7549 Q1255.7813,81.7549 1254.5781,81.1611 Q1253.6094,80.6924 1252.9219,79.6768 Q1252.25,78.6611 1252.25,77.458 L1252.25,76.3643 Q1252.25,75.1143 1252.8438,74.0205 Q1253.4531,72.9268 1254.5,72.3486 Q1255.5625,71.7549 1256.75,71.7549 Q1257.4688,71.7549 1258.0938,72.0049 Q1258.7188,72.2549 1259.25,72.7549 Z " fill="#000000"/><text fill="#000000" font-family="sans-serif" font-size="14" lengthAdjust="spacing" textLength="79" x="1277.75" y="81.1084">Repositories</text><line style="stroke:#181818;stroke-width:0.5;" x1="1145" x2="1457" y1="92.2549" y2="92.2549"/><line style="stroke:#181818;stroke-width:0.5;" x1="1145" x2="1457" y1="100.2549" y2="100.2549"/><text fill="#000000" font-family="sans-serif" font-size="14" lengthAdjust="spacing" textLength="94" x="1150" y="116.9287">-Repositories()</text><text fill="#000000" font-family="sans-serif" font-size="14" lengthAdjust="spacing" textLength="182" x="1150" y="132.5693">+getInstance() : Repositories</text><text fill="#000000" font-family="sans-serif" font-size="14" lengthAdjust="spacing" textLength="238" x="1150" y="148.21">+getAppointmentRequestRepository()</text><text fill="#000000" font-family="sans-serif" font-size="14" lengthAdjust="spacing" textLength="302" x="1150" y="163.8506">+getResponseAppointmentRequestRepository()</text><text fill="#000000" font-family="sans-serif" font-size="14" lengthAdjust="spacing" textLength="142" x="1150" y="179.4912">+getClientRepository()</text></g><!--class RespondAppointmentController--><g id="elem_RespondAppointmentController"><rect codeLine="109" fill="#F1F1F1" height="141.8438" id="RespondAppointmentController" rx="2.5" ry="2.5" style="stroke:#181818;stroke-width:0.5;" width="818" x="222" y="52.2549"/><ellipse cx="527.75" cy="68.2549" fill="#ADD1B2" rx="11" ry="11" style="stroke:#181818;stroke-width:1.0;"/><path d="M529.75,64.7549 Q529.9531,64.2549 530.1875,64.0049 Q530.4219,63.7549 530.6875,63.7549 Q531.1563,63.7549 531.4531,64.0361 Q531.75,64.3174 531.75,64.9736 L531.75,66.5361 Q531.75,67.1924 531.4688,67.4736 Q531.1875,67.7549 530.75,67.7549 Q530.3594,67.7549 530.1094,67.583 Q529.8594,67.4111 529.75,66.958 Q529.7031,66.6455 529.5313,66.4736 Q529.2188,66.1455 528.6563,65.958 Q528.0938,65.7549 527.5313,65.7549 Q526.8281,65.7549 526.2344,66.0361 Q525.6563,66.3174 525.2031,66.9424 Q524.75,67.5674 524.75,68.4268 L524.75,69.3486 Q524.75,70.3799 525.5938,71.0674 Q526.4375,71.7549 527.9375,71.7549 Q528.8281,71.7549 529.4531,71.5518 Q529.8125,71.4424 530.2188,71.083 Q530.4844,70.8799 530.625,70.8174 Q530.7656,70.7549 530.9375,70.7549 Q531.2656,70.7549 531.5,71.0205 Q531.75,71.2705 531.75,71.6299 Q531.75,71.9736 531.4063,72.3799 Q530.9063,72.9736 530.1094,73.3018 Q529.0625,73.7549 527.7813,73.7549 Q526.2813,73.7549 525.0781,73.1611 Q524.1094,72.6924 523.4219,71.6768 Q522.75,70.6611 522.75,69.458 L522.75,68.3643 Q522.75,67.1143 523.3438,66.0205 Q523.9531,64.9268 525,64.3486 Q526.0625,63.7549 527.25,63.7549 Q527.9688,63.7549 528.5938,64.0049 Q529.2188,64.2549 529.75,64.7549 Z " fill="#000000"/><text fill="#000000" font-family="sans-serif" font-size="14" lengthAdjust="spacing" textLength="198" x="548.25" y="73.1084">RespondAppointmentController</text><line style="stroke:#181818;stroke-width:0.5;" x1="223" x2="1039" y1="84.2549" y2="84.2549"/><line style="stroke:#181818;stroke-width:0.5;" x1="223" x2="1039" y1="92.2549" y2="92.2549"/><text fill="#000000" font-family="sans-serif" font-size="14" lengthAdjust="spacing" textLength="806" x="228" y="108.9287">+RespondAppointmentController(appointmentRequestRepository, responseOfAppointmentRequestRepository, clientRepository)</text><text fill="#000000" font-family="sans-serif" font-size="14" lengthAdjust="spacing" textLength="138" x="228" y="124.5693">+getTaskCategories()</text><text fill="#000000" font-family="sans-serif" font-size="14" lengthAdjust="spacing" textLength="495" x="228" y="140.21">+createResponseAccepted(appointmentRequestLocation, acceptAppointment)</text><text fill="#000000" font-family="sans-serif" font-size="14" lengthAdjust="spacing" textLength="544" x="228" y="155.8506">+createResponseRejected(appointmentRequestLocation, acceptAppointment, reason)</text><text fill="#000000" font-family="sans-serif" font-size="14" lengthAdjust="spacing" textLength="290" x="228" y="171.4912">-getAppointmentRequestByProperty(property)</text><text fill="#000000" font-family="sans-serif" font-size="14" lengthAdjust="spacing" textLength="154" x="228" y="187.1318">-getClientFromSession()</text></g><g id="elem_GMN18"><path d="M2350,321.7549 L2350,360.8018 A0,0 0 0 0 2350,360.8018 L2532,360.8018 A0,0 0 0 0 2532,360.8018 L2532,331.7549 L2522,321.7549 L2434.19,321.7549 L2334.18,155.6649 L2426.19,321.7549 L2350,321.7549 A0,0 0 0 0 2350,321.7549 " fill="#FEFFDD" style="stroke:#181818;stroke-width:0.5;"/><path d="M2522,321.7549 L2522,331.7549 L2532,331.7549 L2522,321.7549 " fill="#FEFFDD" style="stroke:#181818;stroke-width:0.5;"/><text fill="#000000" font-family="sans-serif" font-size="13" lengthAdjust="spacing" textLength="116" x="2356" y="338.5234">- used for displaying</text><text fill="#000000" font-family="sans-serif" font-size="13" lengthAdjust="spacing" textLength="161" x="2356" y="353.0469">the appointment request list</text></g><!--class RespondAppointmentUI--><g id="elem_RespondAppointmentUI"><rect codeLine="125" fill="#F1F1F1" height="48" id="RespondAppointmentUI" rx="2.5" ry="2.5" style="stroke:#181818;stroke-width:0.5;" width="180" x="7" y="99.2549"/><ellipse cx="22" cy="115.2549" fill="#ADD1B2" rx="11" ry="11" style="stroke:#181818;stroke-width:1.0;"/><path d="M24,111.7549 Q24.2031,111.2549 24.4375,111.0049 Q24.6719,110.7549 24.9375,110.7549 Q25.4063,110.7549 25.7031,111.0361 Q26,111.3174 26,111.9736 L26,113.5361 Q26,114.1924 25.7188,114.4736 Q25.4375,114.7549 25,114.7549 Q24.6094,114.7549 24.3594,114.583 Q24.1094,114.4111 24,113.958 Q23.9531,113.6455 23.7813,113.4736 Q23.4688,113.1455 22.9063,112.958 Q22.3438,112.7549 21.7813,112.7549 Q21.0781,112.7549 20.4844,113.0361 Q19.9063,113.3174 19.4531,113.9424 Q19,114.5674 19,115.4268 L19,116.3486 Q19,117.3799 19.8438,118.0674 Q20.6875,118.7549 22.1875,118.7549 Q23.0781,118.7549 23.7031,118.5518 Q24.0625,118.4424 24.4688,118.083 Q24.7344,117.8799 24.875,117.8174 Q25.0156,117.7549 25.1875,117.7549 Q25.5156,117.7549 25.75,118.0205 Q26,118.2705 26,118.6299 Q26,118.9736 25.6563,119.3799 Q25.1563,119.9736 24.3594,120.3018 Q23.3125,120.7549 22.0313,120.7549 Q20.5313,120.7549 19.3281,120.1611 Q18.3594,119.6924 17.6719,118.6768 Q17,117.6611 17,116.458 L17,115.3643 Q17,114.1143 17.5938,113.0205 Q18.2031,111.9268 19.25,111.3486 Q20.3125,110.7549 21.5,110.7549 Q22.2188,110.7549 22.8438,111.0049 Q23.4688,111.2549 24,111.7549 Z " fill="#000000"/><text fill="#000000" font-family="sans-serif" font-size="14" lengthAdjust="spacing" textLength="148" x="36" y="120.1084">RespondAppointmentUI</text><line style="stroke:#181818;stroke-width:0.5;" x1="8" x2="186" y1="131.2549" y2="131.2549"/><line style="stroke:#181818;stroke-width:0.5;" x1="8" x2="186" y1="139.2549" y2="139.2549"/></g><!--link Repositories to Repositories--><g id="link_Repositories_Repositories"><path codeLine="128" d="M1458.07,105.3449 C1479.05,108.3749 1493,114.3449 1493,123.2549 C1493,131.4049 1481.35,137.0849 1463.32,140.3249 " fill="none" id="Repositories-to-Repositories" style="stroke:#181818;stroke-width:1.0;"/><polygon fill="#181818" points="1458.07,141.1649,1467.5875,143.6981,1463.0076,140.3777,1466.328,135.7979,1458.07,141.1649" style="stroke:#181818;stroke-width:1.0;"/><text fill="#000000" font-family="sans-serif" font-size="13" lengthAdjust="spacing" textLength="49" x="1499" y="128.0234">instance</text></g><!--link ApplicationSession to ApplicationSession--><g id="link_ApplicationSession_ApplicationSession"><path codeLine="129" d="M793.66,321.1949 C813.5,322.3849 828.5,329.0749 828.5,341.2549 C828.5,352.3849 815.97,358.9349 798.66,360.8849 " fill="none" id="ApplicationSession-to-ApplicationSession" style="stroke:#181818;stroke-width:1.0;"/><polygon fill="#181818" points="793.66,361.3149,802.9703,364.5271,798.6415,360.8854,802.2832,356.5567,793.66,361.3149" style="stroke:#181818;stroke-width:1.0;"/><text fill="#000000" font-family="sans-serif" font-size="13" lengthAdjust="spacing" textLength="49" x="834.5" y="346.0234">instance</text></g><!--link RespondAppointmentUI to RespondAppointmentController--><g id="link_RespondAppointmentUI_RespondAppointmentController"><path codeLine="131" d="M187.04,123.2549 C197.08,123.2549 207.11,123.2549 216.6,123.2549 " fill="none" id="RespondAppointmentUI-to-RespondAppointmentController" style="stroke:#181818;stroke-width:1.0;stroke-dasharray:7.0,7.0;"/><polygon fill="#181818" points="221.82,123.2549,212.82,119.2549,216.82,123.2549,212.82,127.2549,221.82,123.2549" style="stroke:#181818;stroke-width:1.0;"/></g><!--link RespondAppointmentController to Repositories--><g id="link_RespondAppointmentController_Repositories"><path codeLine="133" d="M1040.04,123.2549 C1074.42,123.2549 1107.71,123.2549 1138.36,123.2549 " fill="none" id="RespondAppointmentController-to-Repositories" style="stroke:#181818;stroke-width:1.0;stroke-dasharray:7.0,7.0;"/><polygon fill="#181818" points="1143.65,123.2549,1134.65,119.2549,1138.65,123.2549,1134.65,127.2549,1143.65,123.2549" style="stroke:#181818;stroke-width:1.0;"/><text fill="#000000" font-family="sans-serif" font-size="13" lengthAdjust="spacing" textLength="67" x="1058.5" y="117.0234">repositories</text></g><!--link Repositories to AppointmentRequestRepository--><g id="link_Repositories_AppointmentRequestRepository"><path codeLine="135" d="M1458.15,73.4749 C1518.19,54.4549 1572.5,37.2549 1572.5,37.2549 C1572.5,37.2549 2128.5,37.2549 2128.5,37.2549 C2128.5,37.2549 2189.16,65.0749 2241.47,89.0749 " fill="none" id="Repositories-to-AppointmentRequestRepository" style="stroke:#181818;stroke-width:1.0;"/><polygon fill="#181818" points="2246.18,91.2349,2239.6698,83.8445,2241.636,89.1487,2236.3319,91.1149,2246.18,91.2349" style="stroke:#181818;stroke-width:1.0;"/><text fill="#000000" font-family="sans-serif" font-size="13" lengthAdjust="spacing" textLength="7" x="2223.1412" y="80.5644">1</text></g><!--link RespondAppointmentController to AppointmentRequest--><g id="link_RespondAppointmentController_AppointmentRequest"><path codeLine="137" d="M915.34,194.2649 C1067.53,231.7349 1224,270.2549 1224,270.2549 C1224,270.2549 1282,458.2549 1282,458.2549 C1282,458.2549 1361.02,499.5549 1424.56,532.7549 " fill="none" id="RespondAppointmentController-to-AppointmentRequest" style="stroke:#181818;stroke-width:1.0;stroke-dasharray:7.0,7.0;"/><polygon fill="#181818" points="1429.1,535.1349,1422.9761,527.4214,1424.6686,532.8191,1419.2709,534.5116,1429.1,535.1349" style="stroke:#181818;stroke-width:1.0;"/></g><!--link RespondAppointmentController to ClientRepository--><g id="link_RespondAppointmentController_ClientRepository"><path codeLine="138" d="M790.41,194.3849 C876.42,232.2149 978.55,277.1549 1046.52,307.0549 " fill="none" id="RespondAppointmentController-to-ClientRepository" style="stroke:#181818;stroke-width:1.0;stroke-dasharray:7.0,7.0;"/><polygon fill="#181818" points="1051.36,309.1749,1044.7369,301.8855,1046.7845,307.1588,1041.5112,309.2063,1051.36,309.1749" style="stroke:#181818;stroke-width:1.0;"/><text fill="#000000" font-family="sans-serif" font-size="13" lengthAdjust="spacing" textLength="93" x="893" y="237.0234">clientRepository</text></g><!--link RespondAppointmentController to AppointmentRequestRepository--><g id="link_RespondAppointmentController_AppointmentRequestRepository"><path codeLine="139" d="M1040.06,64.5849 C1091.2,57.2449 1126,52.2549 1126,52.2549 C1126,52.2549 1707.5,24.2549 1707.5,24.2549 C1707.5,24.2549 1892.5,24.2549 1892.5,24.2549 C1892.5,24.2549 2146,52.2549 2146,52.2549 C2146,52.2549 2190.66,70.9049 2234.21,89.0949 " fill="none" id="RespondAppointmentController-to-AppointmentRequestRepository" style="stroke:#181818;stroke-width:1.0;stroke-dasharray:7.0,7.0;"/><polygon fill="#181818" points="2238.96,91.0749,2232.1986,83.9136,2234.3467,89.1467,2229.1136,91.2948,2238.96,91.0749" style="stroke:#181818;stroke-width:1.0;"/><text fill="#000000" font-family="sans-serif" font-size="13" lengthAdjust="spacing" textLength="183" x="1708.5" y="19.0234">AppointmentRequestRepository</text></g><!--link Repositories to ClientRepository--><g id="link_Repositories_ClientRepository"><path codeLine="141" d="M1249.47,186.4449 C1217.64,224.8449 1177.95,272.7449 1151.39,304.7949 " fill="none" id="Repositories-to-ClientRepository" style="stroke:#181818;stroke-width:1.0;"/><polygon fill="#181818" points="1147.89,309.0049,1156.7133,304.629,1151.0811,305.1556,1150.5545,299.5233,1147.89,309.0049" style="stroke:#181818;stroke-width:1.0;"/><text fill="#000000" font-family="sans-serif" font-size="13" lengthAdjust="spacing" textLength="7" x="1145.7878" y="298.2841">1</text></g><!--link ClientRepository to Client--><g id="link_ClientRepository_Client"><path codeLine="143" d="M1122.54,373.4749 C1123.16,409.3649 1124.19,469.0949 1124.97,514.0049 " fill="none" id="ClientRepository-to-Client" style="stroke:#181818;stroke-width:1.0;"/><polygon fill="#181818" points="1125.06,519.1249,1128.9051,510.0576,1124.9743,514.1256,1120.9063,510.1948,1125.06,519.1249" style="stroke:#181818;stroke-width:1.0;"/><text fill="#000000" font-family="sans-serif" font-size="13" lengthAdjust="spacing" textLength="5" x="1119.5978" y="508.5421">*</text></g><!--link ApplicationSession to UserSession--><g id="link_ApplicationSession_UserSession"><path codeLine="144" d="M701.93,381.0049 C683.79,424.7549 654.51,495.3649 636.87,537.8949 " fill="none" id="ApplicationSession-to-UserSession" style="stroke:#181818;stroke-width:1.0;"/><polygon fill="#181818" points="634.89,542.6749,642.0334,535.8946,636.806,538.0565,634.6441,532.8291,634.89,542.6749" style="stroke:#181818;stroke-width:1.0;"/><text fill="#000000" font-family="sans-serif" font-size="13" lengthAdjust="spacing" textLength="72" x="677" y="455.0234">userSession</text><text fill="#000000" font-family="sans-serif" font-size="13" lengthAdjust="spacing" textLength="7" x="629.9441" y="531.9912">1</text></g><!--link RespondAppointmentController to ResponseOfAppointmentRequestRepository--><g id="link_RespondAppointmentController_ResponseOfAppointmentRequestRepository"><path codeLine="146" d="M1025.24,52.2249 C1112.96,36.4249 1180.5,24.2549 1180.5,24.2549 C1180.5,24.2549 1431.5,24.2549 1431.5,24.2549 C1431.5,24.2549 1555,52.2549 1555,52.2549 C1555,52.2549 1579.4,58.1249 1614.17,66.4949 " fill="none" id="RespondAppointmentController-to-ResponseOfAppointmentRequestRepository" style="stroke:#181818;stroke-width:1.0;stroke-dasharray:7.0,7.0;"/><polygon fill="#181818" points="1619.37,67.7449,1611.5587,61.7463,1614.5094,66.5726,1609.683,69.5233,1619.37,67.7449" style="stroke:#181818;stroke-width:1.0;"/><text fill="#000000" font-family="sans-serif" font-size="13" lengthAdjust="spacing" textLength="249" x="1181.5" y="19.0234">responseOfAppointmentRequestRepository</text><text fill="#000000" font-family="sans-serif" font-size="13" lengthAdjust="spacing" textLength="7" x="1580.9088" y="57.1782">1</text></g><!--link RespondAppointmentController to ApplicationSession--><g id="link_RespondAppointmentController_ApplicationSession"><path codeLine="147" d="M659.25,194.3849 C672.8,228.0349 688.62,267.3049 700.42,296.6249 " fill="none" id="RespondAppointmentController-to-ApplicationSession" style="stroke:#181818;stroke-width:1.0;stroke-dasharray:7.0,7.0;"/><polygon fill="#181818" points="702.43,301.6049,702.7753,291.7621,700.5608,296.9674,695.3554,294.7529,702.43,301.6049" style="stroke:#181818;stroke-width:1.0;"/></g><!--link RespondAppointmentController to UserSession--><g id="link_RespondAppointmentController_UserSession"><path codeLine="148" d="M628.12,194.2649 C626.58,231.7349 625,270.2549 625,270.2549 C625,270.2549 623.15,457.0549 622.36,537.5549 " fill="none" id="RespondAppointmentController-to-UserSession" style="stroke:#181818;stroke-width:1.0;stroke-dasharray:7.0,7.0;"/><polygon fill="#181818" points="622.31,542.7049,626.387,533.7395,622.3529,537.7051,618.3873,533.6709,622.31,542.7049" style="stroke:#181818;stroke-width:1.0;"/></g><!--link ResponseOfAppointmentRequest to AppointmentRequest--><g id="link_ResponseOfAppointmentRequest_AppointmentRequest"><path codeLine="149" d="M1503,412.3449 C1503,450.6149 1503,496.8249 1503,529.9749 " fill="none" id="ResponseOfAppointmentRequest-to-AppointmentRequest" style="stroke:#181818;stroke-width:1.0;"/><polygon fill="#181818" points="1503,535.1849,1507,526.1849,1503,530.1849,1499,526.1849,1503,535.1849" style="stroke:#181818;stroke-width:1.0;"/><text fill="#000000" font-family="sans-serif" font-size="13" lengthAdjust="spacing" textLength="119" x="1504" y="455.0234">appointmentRequest</text><text fill="#000000" font-family="sans-serif" font-size="13" lengthAdjust="spacing" textLength="5" x="1497.7539" y="431.8339">*</text><text fill="#000000" font-family="sans-serif" font-size="13" lengthAdjust="spacing" textLength="7" x="1495.3547" y="524.3894">1</text></g><!--link AppointmentRequestRepository to AppointmentRequest--><g id="link_AppointmentRequestRepository_AppointmentRequest"><path codeLine="150" d="M2250.09,155.3949 C2159.34,198.2749 2007,270.2549 2007,270.2549 C2007,270.2549 1709.33,449.5049 1571.52,532.4949 " fill="none" id="AppointmentRequestRepository-to-AppointmentRequest" style="stroke:#181818;stroke-width:1.0;"/><polygon fill="#181818" points="1567.09,535.1649,1576.8654,533.9644,1571.3775,532.5924,1572.7495,527.1044,1567.09,535.1649" style="stroke:#181818;stroke-width:1.0;"/><text fill="#000000" font-family="sans-serif" font-size="13" lengthAdjust="spacing" textLength="119" x="2008" y="346.0234">appointmentRequest</text><text fill="#000000" font-family="sans-serif" font-size="13" lengthAdjust="spacing" textLength="7" x="2229.8587" y="174.7086">1</text><text fill="#000000" font-family="sans-serif" font-size="13" lengthAdjust="spacing" textLength="5" x="1573.4457" y="524.3657">*</text></g><!--link AppointmentRequest to Agent--><g id="link_AppointmentRequest_Agent"><path codeLine="151" d="M1503,614.4349 C1503,646.7149 1503,693.4849 1503,731.9049 " fill="none" id="AppointmentRequest-to-Agent" style="stroke:#181818;stroke-width:1.0;"/><polygon fill="#181818" points="1503,737.0249,1507,728.0249,1503,732.0249,1499,728.0249,1503,737.0249" style="stroke:#181818;stroke-width:1.0;"/><text fill="#000000" font-family="sans-serif" font-size="13" lengthAdjust="spacing" textLength="59" x="1504" y="704.0234">createdBy</text></g><!--link ResponseOfAppointmentRequestRepository to ResponseOfAppointmentRequest--><g id="link_ResponseOfAppointmentRequestRepository_ResponseOfAppointmentRequest"><path codeLine="152" d="M1762.44,178.7649 C1719.26,205.6349 1666.58,238.4349 1620,267.4249 " fill="none" id="ResponseOfAppointmentRequestRepository-to-ResponseOfAppointmentRequest" style="stroke:#181818;stroke-width:1.0;"/><polygon fill="#181818" points="1615.51,270.2149,1625.2641,268.8517,1619.754,267.5713,1621.0343,262.0613,1615.51,270.2149" style="stroke:#181818;stroke-width:1.0;"/><text fill="#000000" font-family="sans-serif" font-size="13" lengthAdjust="spacing" textLength="7" x="1744.3421" y="198.2104">1</text><text fill="#000000" font-family="sans-serif" font-size="13" lengthAdjust="spacing" textLength="5" x="1622.5423" y="259.485">*</text></g><!--link ResponseOfAppointmentRequest to Client--><g id="link_ResponseOfAppointmentRequest_Client"><path codeLine="153" d="M1347.64,412.2649 C1264.49,449.7349 1179,488.2549 1179,488.2549 C1179,488.2549 1171.69,500.0449 1162.5,514.8649 " fill="none" id="ResponseOfAppointmentRequest-to-Client" style="stroke:#181818;stroke-width:1.0;"/><polygon fill="#181818" points="1159.87,519.1249,1168.0018,513.5685,1162.4969,514.8705,1161.1948,509.3655,1159.87,519.1249" style="stroke:#181818;stroke-width:1.0;"/><text fill="#000000" font-family="sans-serif" font-size="13" lengthAdjust="spacing" textLength="59" x="1276" y="455.0234">createdBy</text></g><!--link AppointmentRequestRepository to Property--><g id="link_AppointmentRequestRepository_Property"><path codeLine="155" d="M2303.49,155.6649 C2288.69,192.8449 2263.96,254.9749 2247.32,296.7649 " fill="none" id="AppointmentRequestRepository-to-Property" style="stroke:#181818;stroke-width:1.0;stroke-dasharray:7.0,7.0;"/><polygon fill="#181818" points="2245.43,301.5049,2252.4791,294.6267,2247.282,296.8605,2245.0482,291.6634,2245.43,301.5049" style="stroke:#181818;stroke-width:1.0;"/><text fill="#000000" font-family="sans-serif" font-size="13" lengthAdjust="spacing" textLength="47" x="2276" y="237.0234">property</text></g><!--link Property to Location--><g id="link_Property_Location"><path codeLine="156" d="M2243.89,381.0049 C2256.91,417.3149 2276.57,472.1349 2291.59,514.0449 " fill="none" id="Property-to-Location" style="stroke:#181818;stroke-width:1.0;"/><polygon fill="#181818" points="2293.31,518.8249,2294.0462,509.0036,2291.6265,514.1168,2286.5133,511.6972,2293.31,518.8249" style="stroke:#181818;stroke-width:1.0;"/><text fill="#000000" font-family="sans-serif" font-size="13" lengthAdjust="spacing" textLength="26" x="2272" y="455.0234">have</text><text fill="#000000" font-family="sans-serif" font-size="13" lengthAdjust="spacing" textLength="7" x="2238.6758" y="400.8294">1</text><text fill="#000000" font-family="sans-serif" font-size="13" lengthAdjust="spacing" textLength="7" x="2283.3388" y="508.5921">1</text></g><!--link Property to Land--><g id="link_Property_Land"><path codeLine="157" d="M2268.21,380.9949 C2310.87,424.2549 2374,488.2549 2374,488.2549 C2374,488.2549 2387.01,510.9549 2399.62,532.9649 " fill="none" id="Property-to-Land" style="stroke:#181818;stroke-width:1.0;"/><polygon fill="none" points="2405.74,529.5549,2409.61,550.3949,2393.59,536.5249,2405.74,529.5549" style="stroke:#181818;stroke-width:1.0;"/></g><!--link Property to Apartment--><g id="link_Property_Apartment"><path codeLine="158" d="M2180.11,380.9949 C2124.42,424.2549 2042,488.2549 2042,488.2549 C2042,488.2549 2036.91,492.4049 2028.97,498.8649 " fill="none" id="Property-to-Apartment" style="stroke:#181818;stroke-width:1.0;"/><polygon fill="none" points="2033.24,504.4149,2013.31,511.6149,2024.4,493.5649,2033.24,504.4149" style="stroke:#181818;stroke-width:1.0;"/></g><!--link Property to House--><g id="link_Property_House"><path codeLine="159" d="M2216.11,381.0049 C2207.39,405.3149 2195.7,437.9149 2184.42,469.3849 " fill="none" id="Property-to-House" style="stroke:#181818;stroke-width:1.0;"/><polygon fill="none" points="2191,471.7649,2177.66,488.2349,2177.82,467.0449,2191,471.7649" style="stroke:#181818;stroke-width:1.0;"/></g><!--SRC=[pLTDSzis4BtZLs1oiTrOcVRgWsSaDPru9fDuhEQM2qIiADGWm09WQYRDV- -214XGf2WsbzO7cLpiFkp7smLuPP-5AfbX1IsqqjdHw0AeCnMGVgLasJFBOUTg2TH0vfZAPQfWZuphluJAwO59cwv8eS3L9T1Iozg_aAk9HMsS9ebL9fcrQ-UCs5SE7ZAjTk8hq9y9kP9mSDHfQaH-T9GBxuxGYf36XgxBKegCUT4EhFKhtmZ5lzVKEXHdD0VteF1PPN1z4vPGjgsC0UM24QvyZv2VB9XJB3JmuhS54pBLtKg18BHLMr752WYFu5N3SwcjQ9mEhqUDUUamdi2MMbduUC1Wj52kGCWd-BC2soDlj9R056LP1gLB5CFw3dE7vJ30h4zEw_KSycTrpKR2sp7-BHR7ntYp07CIyREQm6pzxB6_9_Kybu9VcGFAyMTgwnZoX5EbqIKOLz-UDSQmStpxWDKBZu- -H1-gOWycSUun84MF68OH7hbeAVORzjDMk7gB82Ofydkc-BSqJ6OQ3phcD7jzF6o06wqBUofcxZWbVsG6coZVOST2NClyrao-0wI_ogEhmcoruWqDlRJpv9skBFnNNeHMUS7a0IOFQwCsp4B2Qw6ER2ySsqjuhmzHQYlrzWMxgXgaMBTp80PZiG0GBJAiIIT76eJdhwBSQfw0hFEqA7qxPrdBXl3gsClWlUdsDUS6vqRQvK5fKQy_GJCdjAcHyZ5Xd4UJQpDZUnFqlp0fFCkN6SMUpf37lSswQLVW4zqSKpmn9wQndk0FdDV_5YlEXzcvC4XNDwN7Ufiwjcqt2KO3lCTAeDebtz0JXqHd8S1s4oeLfcTDV_xGku7IdD-zJobKLwI5-gVn3MFmM3o1mkPqHai9filfdD94LVkTV16Na3qU0hqaSVztPf-toATycDF_Bs5R8YmdOgT_Xcs4A8t7tbuxfmkg3xED4D1me7DwqCOVIgLaTPoqxWWq2GjzRWzOYUENWEBKRtMU79yUQ7E23QY_kX-smXrEx9RiP7mryzeJqiI6J6xxvdwMXbDM2PFVZ5mqQGkEuddrowlvB5_SRk9wCc-2DgUDYcwUziKFx3l0knHKceQGXrEl21dvsQZ-55Kdgnx0aeirUbCbr-oBaNdpXMVdtSAvSxaa4zyM5stIZuVPYxrFsUeisp2AyG0Yit5xe5YB7mTi89fBa2TWCnhvfYOBSv_wC6SodngF43wiKX_cm_V9Z_CLpUA49Psiymt_nr6EYaVs1NgbrUhl- -QkVYBgxkidykRs_0y0]--></g></svg>