<?xml version="1.0" encoding="us-ascii" standalone="no"?><svg xmlns="http://www.w3.org/2000/svg" xmlns:xlink="http://www.w3.org/1999/xlink" contentStyleType="text/css" height="548px" preserveAspectRatio="none" style="width:1278px;height:548px;background:#FFFFFF;" version="1.1" viewBox="0 0 1278 548" width="1278px" zoomAndPan="magnify"><defs/><g><rect fill="#FFFFFF" height="398.75" style="stroke:#181818;stroke-width:1.0;" width="10" x="602" y="81.8047"/><rect fill="#FFFFFF" height="122.5703" style="stroke:#181818;stroke-width:1.0;" width="10" x="607" y="315.4609"/><rect fill="#FFFFFF" height="39.5234" style="stroke:#181818;stroke-width:1.0;" width="10" x="612" y="356.9844"/><rect fill="none" height="356.2266" style="stroke:#000000;stroke-width:1.5;" width="826" x="446" y="96.8047"/><rect fill="none" height="72.8047" style="stroke:#000000;stroke-width:1.5;" width="806" x="456" y="120.3281"/><rect fill="none" height="72.8047" style="stroke:#000000;stroke-width:1.5;" width="806" x="456" y="207.1328"/><line style="stroke:#181818;stroke-width:0.5;stroke-dasharray:5.0,5.0;" x1="607" x2="607" y1="51.2813" y2="498.5547"/><line style="stroke:#181818;stroke-width:0.5;stroke-dasharray:5.0,5.0;" x1="1145" x2="1145" y1="261.7969" y2="498.5547"/><rect fill="#E3E3E3" height="45.2813" rx="2.5" ry="2.5" style="stroke:#181818;stroke-width:0.5;" width="282" x="466" y="5"/><text fill="#000000" font-family="sans-serif" font-size="14" lengthAdjust="spacing" textLength="259" x="477.5" y="24.6738">responseAppointmentRequestRepository</text><text fill="#000000" font-family="sans-serif" font-size="14" lengthAdjust="spacing" textLength="268" x="473" y="40.3145">:ResponseAppointmentRequestRepository</text><rect fill="#E3E3E3" height="45.2813" rx="2.5" ry="2.5" style="stroke:#181818;stroke-width:0.5;" width="282" x="466" y="497.5547"/><text fill="#000000" font-family="sans-serif" font-size="14" lengthAdjust="spacing" textLength="259" x="477.5" y="517.2285">responseAppointmentRequestRepository</text><text fill="#000000" font-family="sans-serif" font-size="14" lengthAdjust="spacing" textLength="268" x="473" y="532.8691">:ResponseAppointmentRequestRepository</text><rect fill="#E3E3E3" height="45.2813" rx="2.5" ry="2.5" style="stroke:#181818;stroke-width:0.5;" width="214" x="1038" y="497.5547"/><text fill="#000000" font-family="sans-serif" font-size="14" lengthAdjust="spacing" textLength="191" x="1049.5" y="517.2285">responseAppointmentRequest</text><text fill="#000000" font-family="sans-serif" font-size="14" lengthAdjust="spacing" textLength="200" x="1045" y="532.8691">:ResponseAppointmentRequest</text><rect fill="#FFFFFF" height="398.75" style="stroke:#181818;stroke-width:1.0;" width="10" x="602" y="81.8047"/><rect fill="#FFFFFF" height="122.5703" style="stroke:#181818;stroke-width:1.0;" width="10" x="607" y="315.4609"/><rect fill="#FFFFFF" height="39.5234" style="stroke:#181818;stroke-width:1.0;" width="10" x="612" y="356.9844"/><polygon fill="#181818" points="590,77.8047,600,81.8047,590,85.8047,594,81.8047" style="stroke:#181818;stroke-width:1.0;"/><line style="stroke:#181818;stroke-width:1.0;" x1="0" x2="596" y1="81.8047" y2="81.8047"/><text fill="#000000" font-family="sans-serif" font-size="13" font-weight="bold" lengthAdjust="spacing" textLength="18" x="7" y="77.0498">9.6</text><text fill="#000000" font-family="sans-serif" font-size="13" lengthAdjust="spacing" textLength="561" x="29" y="77.0498">createResponseOfAppointmentRequest(appointmentRequest, acceptAppointment, reason, client)</text><path d="M446,96.8047 L756,96.8047 L756,103.3281 L746,113.3281 L446,113.3281 L446,96.8047 " fill="#EEEEEE" style="stroke:#000000;stroke-width:1.5;"/><rect fill="none" height="356.2266" style="stroke:#000000;stroke-width:1.5;" width="826" x="446" y="96.8047"/><text fill="#000000" font-family="sans-serif" font-size="13" font-weight="bold" lengthAdjust="spacing" textLength="265" x="461" y="109.5732">Create Response Of Appointment Request</text><path d="M456,120.3281 L517,120.3281 L517,126.8516 L507,136.8516 L456,136.8516 L456,120.3281 " fill="#EEEEEE" style="stroke:#000000;stroke-width:1.5;"/><rect fill="none" height="72.8047" style="stroke:#000000;stroke-width:1.5;" width="806" x="456" y="120.3281"/><text fill="#000000" font-family="sans-serif" font-size="13" font-weight="bold" lengthAdjust="spacing" textLength="16" x="471" y="133.0967">alt</text><text fill="#000000" font-family="sans-serif" font-size="11" font-weight="bold" lengthAdjust="spacing" textLength="151" x="532" y="132.2861">[acceptAppointment = true]</text><polygon fill="#181818" points="1026,153.375,1036,157.375,1026,161.375,1030,157.375" style="stroke:#181818;stroke-width:1.0;"/><line style="stroke:#181818;stroke-width:1.0;" x1="612" x2="1032" y1="157.375" y2="157.375"/><text fill="#000000" font-family="sans-serif" font-size="13" font-weight="bold" lengthAdjust="spacing" textLength="29" x="619" y="152.6201">9.6.1</text><text fill="#000000" font-family="sans-serif" font-size="13" lengthAdjust="spacing" textLength="322" x="652" y="152.6201">create(appointmentRequest, acceptAppointment, client)</text><rect fill="#E3E3E3" height="45.2813" rx="2.5" ry="2.5" style="stroke:#181818;stroke-width:0.5;" width="214" x="1038" y="136.8516"/><text fill="#000000" font-family="sans-serif" font-size="14" lengthAdjust="spacing" textLength="191" x="1049.5" y="156.5254">responseAppointmentRequest</text><text fill="#000000" font-family="sans-serif" font-size="14" lengthAdjust="spacing" textLength="200" x="1045" y="172.166">:ResponseAppointmentRequest</text><path d="M456,207.1328 L517,207.1328 L517,213.6563 L507,223.6563 L456,223.6563 L456,207.1328 " fill="#EEEEEE" style="stroke:#000000;stroke-width:1.5;"/><rect fill="none" height="72.8047" style="stroke:#000000;stroke-width:1.5;" width="806" x="456" y="207.1328"/><text fill="#000000" font-family="sans-serif" font-size="13" font-weight="bold" lengthAdjust="spacing" textLength="16" x="471" y="219.9014">alt</text><text fill="#000000" font-family="sans-serif" font-size="11" font-weight="bold" lengthAdjust="spacing" textLength="155" x="532" y="219.0908">[acceptAppointment = false]</text><polygon fill="#181818" points="1026,240.1797,1036,244.1797,1026,248.1797,1030,244.1797" style="stroke:#181818;stroke-width:1.0;"/><line style="stroke:#181818;stroke-width:1.0;" x1="612" x2="1032" y1="244.1797" y2="244.1797"/><text fill="#000000" font-family="sans-serif" font-size="13" font-weight="bold" lengthAdjust="spacing" textLength="29" x="619" y="239.4248">9.6.1</text><text fill="#000000" font-family="sans-serif" font-size="13" lengthAdjust="spacing" textLength="369" x="652" y="239.4248">create(appointmentRequest, acceptAppointment, reason, client)</text><rect fill="#E3E3E3" height="45.2813" rx="2.5" ry="2.5" style="stroke:#181818;stroke-width:0.5;" width="214" x="1038" y="223.6563"/><text fill="#000000" font-family="sans-serif" font-size="14" lengthAdjust="spacing" textLength="191" x="1049.5" y="243.3301">responseAppointmentRequest</text><text fill="#000000" font-family="sans-serif" font-size="14" lengthAdjust="spacing" textLength="200" x="1045" y="258.9707">:ResponseAppointmentRequest</text><line style="stroke:#181818;stroke-width:1.0;" x1="612" x2="659" y1="302.4609" y2="302.4609"/><line style="stroke:#181818;stroke-width:1.0;" x1="659" x2="659" y1="302.4609" y2="315.4609"/><line style="stroke:#181818;stroke-width:1.0;" x1="618" x2="659" y1="315.4609" y2="315.4609"/><polygon fill="#181818" points="628,311.4609,618,315.4609,628,319.4609,624,315.4609" style="stroke:#181818;stroke-width:1.0;"/><text fill="#000000" font-family="sans-serif" font-size="13" font-weight="bold" lengthAdjust="spacing" textLength="29" x="624" y="297.7061">9.6.2</text><text fill="#000000" font-family="sans-serif" font-size="13" lengthAdjust="spacing" textLength="274" x="657" y="297.7061">addResponse(responseOfAppointmentRequest)</text><line style="stroke:#181818;stroke-width:1.0;" x1="617" x2="664" y1="343.9844" y2="343.9844"/><line style="stroke:#181818;stroke-width:1.0;" x1="664" x2="664" y1="343.9844" y2="356.9844"/><line style="stroke:#181818;stroke-width:1.0;" x1="623" x2="664" y1="356.9844" y2="356.9844"/><polygon fill="#181818" points="633,352.9844,623,356.9844,633,360.9844,629,356.9844" style="stroke:#181818;stroke-width:1.0;"/><text fill="#000000" font-family="sans-serif" font-size="13" font-weight="bold" lengthAdjust="spacing" textLength="29" x="629" y="339.2295">9.6.3</text><text fill="#000000" font-family="sans-serif" font-size="13" lengthAdjust="spacing" textLength="296" x="662" y="339.2295">validateResponse(responseOfAppointmentRequest)</text><line style="stroke:#181818;stroke-width:1.0;stroke-dasharray:2.0,2.0;" x1="622" x2="664" y1="395.5078" y2="395.5078"/><line style="stroke:#181818;stroke-width:1.0;stroke-dasharray:2.0,2.0;" x1="664" x2="664" y1="395.5078" y2="408.5078"/><line style="stroke:#181818;stroke-width:1.0;stroke-dasharray:2.0,2.0;" x1="617" x2="664" y1="408.5078" y2="408.5078"/><polygon fill="#181818" points="627,404.5078,617,408.5078,627,412.5078,623,408.5078" style="stroke:#181818;stroke-width:1.0;"/><text fill="#000000" font-family="sans-serif" font-size="13" font-weight="bold" lengthAdjust="spacing" textLength="29" x="629" y="390.7529">9.6.4</text><text fill="#000000" font-family="sans-serif" font-size="13" lengthAdjust="spacing" textLength="4" x="662" y="390.7529">&#160;</text><line style="stroke:#181818;stroke-width:1.0;stroke-dasharray:2.0,2.0;" x1="617" x2="659" y1="437.0313" y2="437.0313"/><line style="stroke:#181818;stroke-width:1.0;stroke-dasharray:2.0,2.0;" x1="659" x2="659" y1="437.0313" y2="450.0313"/><line style="stroke:#181818;stroke-width:1.0;stroke-dasharray:2.0,2.0;" x1="612" x2="659" y1="450.0313" y2="450.0313"/><polygon fill="#181818" points="622,446.0313,612,450.0313,622,454.0313,618,450.0313" style="stroke:#181818;stroke-width:1.0;"/><text fill="#000000" font-family="sans-serif" font-size="13" font-weight="bold" lengthAdjust="spacing" textLength="29" x="624" y="432.2764">9.6.5</text><text fill="#000000" font-family="sans-serif" font-size="13" lengthAdjust="spacing" textLength="4" x="657" y="432.2764">&#160;</text><polygon fill="#181818" points="11,476.5547,1,480.5547,11,484.5547,7,480.5547" style="stroke:#181818;stroke-width:1.0;"/><line style="stroke:#181818;stroke-width:1.0;stroke-dasharray:2.0,2.0;" x1="5" x2="606" y1="480.5547" y2="480.5547"/><text fill="#000000" font-family="sans-serif" font-size="13" font-weight="bold" lengthAdjust="spacing" textLength="18" x="17" y="475.7998">9.7</text><text fill="#000000" font-family="sans-serif" font-size="13" lengthAdjust="spacing" textLength="187" x="39" y="475.7998">responseOfAppointmentRequest</text><!--SRC=[hPB1Ri8m38RlUGgB4o10scNJq3O9JTkEIDsEktYfAH5jaYKk4s-_42WhBHGEowMgOt-_Vpj-fRH5XmKKHXkvTAOWO5UIy8SRYtA56Rtp9YTm91brbjSJ_19JywDq1WlCFGaHmgoaigWPUewyDThJp5gZD1UaEQ7ladpuMECL6xVvrDFaYhGUe8TvydQjG2SsmZvcoSlhJ0WisUYo-287zvDRCNxQoan1EaAcYZ5Vj2bzR8L6W5AIvLhoACmDlT4ZaBaA_uEcukH6e6Ir3chH88IJELDQU8ujGDK3p1TG0yDUKyGApBcj3O-xXSQCxGby20PtreV3okMrJYe7MnJfTA_STDFLplwL_5C_pSaUzLNZnuLYcbQJxBkEjGx-objxESLTOwxIsbEv0AzZpl8F6ZkHexkKZih4fPf6_ldTtSNGmtWSCLFeyY6QNVm2]--></g></svg>