<?xml version="1.0" encoding="us-ascii" standalone="no"?><svg xmlns="http://www.w3.org/2000/svg" xmlns:xlink="http://www.w3.org/1999/xlink" contentStyleType="text/css" height="796px" preserveAspectRatio="none" style="width:414px;height:796px;background:#FFFFFF;" version="1.1" viewBox="0 0 414 796" width="414px" zoomAndPan="magnify"><defs/><g><text fill="#000000" font-family="sans-serif" font-size="14" font-weight="bold" lengthAdjust="spacing" textLength="228" x="94.5" y="27.6738">System Sequence Diagram (SSD)</text><rect fill="#FFFFFF" height="579.9922" style="stroke:#181818;stroke-width:1.0;" width="10" x="46" y="127.2813"/><rect fill="#FFFFFF" height="28.5234" style="stroke:#181818;stroke-width:1.0;" width="10" x="351" y="162.3281"/><rect fill="#FFFFFF" height="43.0469" style="stroke:#181818;stroke-width:1.0;" width="10" x="351" y="219.375"/><rect fill="#FFFFFF" height="52.0469" style="stroke:#181818;stroke-width:1.0;" width="10" x="351" y="290.9453"/><rect fill="#FFFFFF" height="118.0938" style="stroke:#181818;stroke-width:1.0;" width="10" x="351" y="371.5156"/><rect fill="#FFFFFF" height="28.5234" style="stroke:#181818;stroke-width:1.0;" width="10" x="351" y="518.1328"/><rect fill="#FFFFFF" height="28.5234" style="stroke:#181818;stroke-width:1.0;" width="10" x="351" y="598.7031"/><rect fill="#FFFFFF" height="28.5234" style="stroke:#181818;stroke-width:1.0;" width="10" x="351" y="669.75"/><rect fill="none" height="132.6172" style="stroke:#000000;stroke-width:1.5;" width="398" x="10" y="305.9453"/><rect fill="none" height="45.0469" style="stroke:#000000;stroke-width:1.5;" width="378" x="20" y="386.5156"/><rect fill="none" height="189.6641" style="stroke:#000000;stroke-width:1.5;" width="398" x="10" y="452.5625"/><rect fill="none" height="73.5703" style="stroke:#000000;stroke-width:1.5;" width="378" x="20" y="561.6563"/><line style="stroke:#181818;stroke-width:0.5;stroke-dasharray:5.0,5.0;" x1="51" x2="51" y1="117.2813" y2="716.2734"/><line style="stroke:#181818;stroke-width:0.5;stroke-dasharray:5.0,5.0;" x1="356" x2="356" y1="117.2813" y2="716.2734"/><text fill="#000000" font-family="sans-serif" font-size="14" lengthAdjust="spacing" textLength="36" x="30" y="114.3145">Client</text><ellipse cx="51" cy="50.1406" fill="#E3E3E3" rx="8" ry="8" style="stroke:#181818;stroke-width:0.5;"/><path d="M51,58.1406 L51,85.1406 M38,66.1406 L64,66.1406 M51,85.1406 L38,100.1406 M51,85.1406 L64,100.1406 " fill="none" style="stroke:#181818;stroke-width:0.5;"/><text fill="#000000" font-family="sans-serif" font-size="14" lengthAdjust="spacing" textLength="36" x="30" y="727.9473">Client</text><ellipse cx="51" cy="739.4141" fill="#E3E3E3" rx="8" ry="8" style="stroke:#181818;stroke-width:0.5;"/><path d="M51,747.4141 L51,774.4141 M38,755.4141 L64,755.4141 M51,774.4141 L38,789.4141 M51,774.4141 L64,789.4141 " fill="none" style="stroke:#181818;stroke-width:0.5;"/><rect fill="#E3E3E3" height="29.6406" rx="2.5" ry="2.5" style="stroke:#181818;stroke-width:0.5;" width="64" x="324" y="86.6406"/><text fill="#000000" font-family="sans-serif" font-size="14" lengthAdjust="spacing" textLength="50" x="331" y="106.3145">:System</text><rect fill="#E3E3E3" height="29.6406" rx="2.5" ry="2.5" style="stroke:#181818;stroke-width:0.5;" width="64" x="324" y="715.2734"/><text fill="#000000" font-family="sans-serif" font-size="14" lengthAdjust="spacing" textLength="50" x="331" y="734.9473">:System</text><rect fill="#FFFFFF" height="579.9922" style="stroke:#181818;stroke-width:1.0;" width="10" x="46" y="127.2813"/><rect fill="#FFFFFF" height="28.5234" style="stroke:#181818;stroke-width:1.0;" width="10" x="351" y="162.3281"/><rect fill="#FFFFFF" height="43.0469" style="stroke:#181818;stroke-width:1.0;" width="10" x="351" y="219.375"/><rect fill="#FFFFFF" height="52.0469" style="stroke:#181818;stroke-width:1.0;" width="10" x="351" y="290.9453"/><rect fill="#FFFFFF" height="118.0938" style="stroke:#181818;stroke-width:1.0;" width="10" x="351" y="371.5156"/><rect fill="#FFFFFF" height="28.5234" style="stroke:#181818;stroke-width:1.0;" width="10" x="351" y="518.1328"/><rect fill="#FFFFFF" height="28.5234" style="stroke:#181818;stroke-width:1.0;" width="10" x="351" y="598.7031"/><rect fill="#FFFFFF" height="28.5234" style="stroke:#181818;stroke-width:1.0;" width="10" x="351" y="669.75"/><polygon fill="#181818" points="339,158.3281,349,162.3281,339,166.3281,343,162.3281" style="stroke:#181818;stroke-width:1.0;"/><line style="stroke:#181818;stroke-width:1.0;" x1="56" x2="345" y1="162.3281" y2="162.3281"/><text fill="#000000" font-family="sans-serif" font-size="13" font-weight="bold" lengthAdjust="spacing" textLength="7" x="63" y="150.3115">1</text><text fill="#000000" font-family="sans-serif" font-size="13" lengthAdjust="spacing" textLength="243" x="74" y="143.0498">request a list of available properties sorted</text><text fill="#000000" font-family="sans-serif" font-size="13" lengthAdjust="spacing" textLength="239" x="78" y="157.5732">from the most recent entries to the oldest</text><polygon fill="#181818" points="67,186.8516,57,190.8516,67,194.8516,63,190.8516" style="stroke:#181818;stroke-width:1.0;"/><line style="stroke:#181818;stroke-width:1.0;stroke-dasharray:2.0,2.0;" x1="61" x2="355" y1="190.8516" y2="190.8516"/><text fill="#000000" font-family="sans-serif" font-size="13" font-weight="bold" lengthAdjust="spacing" textLength="7" x="73" y="186.0967">2</text><text fill="#000000" font-family="sans-serif" font-size="13" lengthAdjust="spacing" textLength="208" x="84" y="186.0967">shows the list of available properties</text><polygon fill="#181818" points="339,215.375,349,219.375,339,223.375,343,219.375" style="stroke:#181818;stroke-width:1.0;"/><line style="stroke:#181818;stroke-width:1.0;" x1="56" x2="345" y1="219.375" y2="219.375"/><text fill="#000000" font-family="sans-serif" font-size="13" font-weight="bold" lengthAdjust="spacing" textLength="7" x="63" y="214.6201">3</text><text fill="#000000" font-family="sans-serif" font-size="13" lengthAdjust="spacing" textLength="104" x="74" y="214.6201">choose a property</text><polygon fill="#181818" points="67,258.4219,57,262.4219,67,266.4219,63,262.4219" style="stroke:#181818;stroke-width:1.0;"/><line style="stroke:#181818;stroke-width:1.0;stroke-dasharray:2.0,2.0;" x1="61" x2="355" y1="262.4219" y2="262.4219"/><text fill="#000000" font-family="sans-serif" font-size="13" font-weight="bold" lengthAdjust="spacing" textLength="7" x="73" y="250.4053">4</text><text fill="#000000" font-family="sans-serif" font-size="13" lengthAdjust="spacing" textLength="244" x="84" y="243.1436">requests property visit data (client's name,</text><text fill="#000000" font-family="sans-serif" font-size="13" lengthAdjust="spacing" textLength="256" x="88" y="257.667">phone number , preferred date and time slot)</text><polygon fill="#181818" points="339,286.9453,349,290.9453,339,294.9453,343,290.9453" style="stroke:#181818;stroke-width:1.0;"/><line style="stroke:#181818;stroke-width:1.0;" x1="56" x2="345" y1="290.9453" y2="290.9453"/><text fill="#000000" font-family="sans-serif" font-size="13" font-weight="bold" lengthAdjust="spacing" textLength="7" x="63" y="286.1904">5</text><text fill="#000000" font-family="sans-serif" font-size="13" lengthAdjust="spacing" textLength="122" x="74" y="286.1904">types requested data</text><path d="M10,305.9453 L75,305.9453 L75,312.4688 L65,322.4688 L10,322.4688 L10,305.9453 " fill="#EEEEEE" style="stroke:#000000;stroke-width:1.5;"/><rect fill="none" height="132.6172" style="stroke:#000000;stroke-width:1.5;" width="398" x="10" y="305.9453"/><text fill="#000000" font-family="sans-serif" font-size="13" font-weight="bold" lengthAdjust="spacing" textLength="20" x="25" y="318.7139">opt</text><text fill="#000000" font-family="sans-serif" font-size="11" font-weight="bold" lengthAdjust="spacing" textLength="217" x="90" y="317.9033">[the requests don't overlap each other]</text><polygon fill="#181818" points="67,338.9922,57,342.9922,67,346.9922,63,342.9922" style="stroke:#181818;stroke-width:1.0;"/><line style="stroke:#181818;stroke-width:1.0;stroke-dasharray:2.0,2.0;" x1="61" x2="355" y1="342.9922" y2="342.9922"/><text fill="#000000" font-family="sans-serif" font-size="13" font-weight="bold" lengthAdjust="spacing" textLength="7" x="73" y="338.2373">6</text><text fill="#000000" font-family="sans-serif" font-size="13" lengthAdjust="spacing" textLength="118" x="84" y="338.2373">asks to confirm data</text><polygon fill="#181818" points="339,367.5156,349,371.5156,339,375.5156,343,371.5156" style="stroke:#181818;stroke-width:1.0;"/><line style="stroke:#181818;stroke-width:1.0;" x1="56" x2="345" y1="371.5156" y2="371.5156"/><text fill="#000000" font-family="sans-serif" font-size="13" font-weight="bold" lengthAdjust="spacing" textLength="7" x="63" y="366.7607">7</text><text fill="#000000" font-family="sans-serif" font-size="13" lengthAdjust="spacing" textLength="71" x="74" y="366.7607">confirm data</text><path d="M20,386.5156 L85,386.5156 L85,393.0391 L75,403.0391 L20,403.0391 L20,386.5156 " fill="#EEEEEE" style="stroke:#000000;stroke-width:1.5;"/><rect fill="none" height="45.0469" style="stroke:#000000;stroke-width:1.5;" width="378" x="20" y="386.5156"/><text fill="#000000" font-family="sans-serif" font-size="13" font-weight="bold" lengthAdjust="spacing" textLength="20" x="35" y="399.2842">opt</text><text fill="#000000" font-family="sans-serif" font-size="11" font-weight="bold" lengthAdjust="spacing" textLength="118" x="100" y="398.4736">[request is acecpted]</text><polygon fill="#181818" points="67,419.5625,57,423.5625,67,427.5625,63,423.5625" style="stroke:#181818;stroke-width:1.0;"/><line style="stroke:#181818;stroke-width:1.0;stroke-dasharray:2.0,2.0;" x1="61" x2="350" y1="423.5625" y2="423.5625"/><text fill="#000000" font-family="sans-serif" font-size="13" font-weight="bold" lengthAdjust="spacing" textLength="7" x="73" y="418.8076">8</text><text fill="#000000" font-family="sans-serif" font-size="13" lengthAdjust="spacing" textLength="149" x="84" y="418.8076">sends a sucess message</text><path d="M10,452.5625 L75,452.5625 L75,459.0859 L65,469.0859 L10,469.0859 L10,452.5625 " fill="#EEEEEE" style="stroke:#000000;stroke-width:1.5;"/><rect fill="none" height="189.6641" style="stroke:#000000;stroke-width:1.5;" width="398" x="10" y="452.5625"/><text fill="#000000" font-family="sans-serif" font-size="13" font-weight="bold" lengthAdjust="spacing" textLength="20" x="25" y="465.3311">opt</text><text fill="#000000" font-family="sans-serif" font-size="11" font-weight="bold" lengthAdjust="spacing" textLength="165" x="90" y="464.5205">[requests overlap each other]</text><polygon fill="#181818" points="67,485.6094,57,489.6094,67,493.6094,63,489.6094" style="stroke:#181818;stroke-width:1.0;"/><line style="stroke:#181818;stroke-width:1.0;stroke-dasharray:2.0,2.0;" x1="61" x2="355" y1="489.6094" y2="489.6094"/><text fill="#000000" font-family="sans-serif" font-size="13" font-weight="bold" lengthAdjust="spacing" textLength="7" x="73" y="484.8545">9</text><text fill="#000000" font-family="sans-serif" font-size="13" lengthAdjust="spacing" textLength="233" x="84" y="484.8545">send a message to choose another data</text><polygon fill="#181818" points="339,514.1328,349,518.1328,339,522.1328,343,518.1328" style="stroke:#181818;stroke-width:1.0;"/><line style="stroke:#181818;stroke-width:1.0;" x1="56" x2="345" y1="518.1328" y2="518.1328"/><text fill="#000000" font-family="sans-serif" font-size="13" font-weight="bold" lengthAdjust="spacing" textLength="14" x="63" y="513.3779">10</text><text fill="#000000" font-family="sans-serif" font-size="13" lengthAdjust="spacing" textLength="183" x="81" y="513.3779">types a different time slot / date</text><polygon fill="#181818" points="67,542.6563,57,546.6563,67,550.6563,63,546.6563" style="stroke:#181818;stroke-width:1.0;"/><line style="stroke:#181818;stroke-width:1.0;stroke-dasharray:2.0,2.0;" x1="61" x2="355" y1="546.6563" y2="546.6563"/><text fill="#000000" font-family="sans-serif" font-size="13" font-weight="bold" lengthAdjust="spacing" textLength="14" x="73" y="541.9014">11</text><text fill="#000000" font-family="sans-serif" font-size="13" lengthAdjust="spacing" textLength="118" x="91" y="541.9014">asks to confirm data</text><path d="M20,561.6563 L85,561.6563 L85,568.1797 L75,578.1797 L20,578.1797 L20,561.6563 " fill="#EEEEEE" style="stroke:#000000;stroke-width:1.5;"/><rect fill="none" height="73.5703" style="stroke:#000000;stroke-width:1.5;" width="378" x="20" y="561.6563"/><text fill="#000000" font-family="sans-serif" font-size="13" font-weight="bold" lengthAdjust="spacing" textLength="20" x="35" y="574.4248">opt</text><text fill="#000000" font-family="sans-serif" font-size="11" font-weight="bold" lengthAdjust="spacing" textLength="270" x="100" y="573.6143">[requests don't overlap and request is acecpted]</text><polygon fill="#181818" points="339,594.7031,349,598.7031,339,602.7031,343,598.7031" style="stroke:#181818;stroke-width:1.0;"/><line style="stroke:#181818;stroke-width:1.0;" x1="56" x2="345" y1="598.7031" y2="598.7031"/><text fill="#000000" font-family="sans-serif" font-size="13" font-weight="bold" lengthAdjust="spacing" textLength="14" x="63" y="593.9482">12</text><text fill="#000000" font-family="sans-serif" font-size="13" lengthAdjust="spacing" textLength="71" x="81" y="593.9482">confirm data</text><polygon fill="#181818" points="67,623.2266,57,627.2266,67,631.2266,63,627.2266" style="stroke:#181818;stroke-width:1.0;"/><line style="stroke:#181818;stroke-width:1.0;stroke-dasharray:2.0,2.0;" x1="61" x2="355" y1="627.2266" y2="627.2266"/><text fill="#000000" font-family="sans-serif" font-size="13" font-weight="bold" lengthAdjust="spacing" textLength="14" x="73" y="622.4717">13</text><text fill="#000000" font-family="sans-serif" font-size="13" lengthAdjust="spacing" textLength="149" x="91" y="622.4717">sends a sucess message</text><polygon fill="#181818" points="339,665.75,349,669.75,339,673.75,343,669.75" style="stroke:#181818;stroke-width:1.0;"/><line style="stroke:#181818;stroke-width:1.0;" x1="56" x2="345" y1="669.75" y2="669.75"/><text fill="#000000" font-family="sans-serif" font-size="13" font-weight="bold" lengthAdjust="spacing" textLength="14" x="63" y="664.9951">14</text><text fill="#000000" font-family="sans-serif" font-size="13" lengthAdjust="spacing" textLength="71" x="81" y="664.9951">confirm data</text><polygon fill="#181818" points="67,694.2734,57,698.2734,67,702.2734,63,698.2734" style="stroke:#181818;stroke-width:1.0;"/><line style="stroke:#181818;stroke-width:1.0;stroke-dasharray:2.0,2.0;" x1="61" x2="355" y1="698.2734" y2="698.2734"/><text fill="#000000" font-family="sans-serif" font-size="13" font-weight="bold" lengthAdjust="spacing" textLength="14" x="73" y="693.5186">15</text><text fill="#000000" font-family="sans-serif" font-size="13" lengthAdjust="spacing" textLength="144" x="91" y="693.5186">display operation sucess</text><!--SRC=[hLJ1Rjim3BthAuXSsW8jTizXb_KFSjs5bUXOY2rg8fqYVpzQTh8KjRDcc00xYaa-lVT8MmunPIpOGy-9VLku9z0oa9DB9AC_u9vsUke82dd5jE-k4wJ5mEynxQ71JiWvZMgfkvCezR2ZNmCbJ_0QSJ-cF-vshq_EuQ2SXlwDYkszSe7DZovIqWsWmBHrTe167pCcXSrsGgpnQLihun6LpWNEWQtf3xnyFvFO6d6Z8Ge8NRGVRW2F63jyCwQvS2OxY0I4YrBucQ0nAq1RCcCitMIFW7QLCKkvXhWB1bbFlF0u4uDvpGHUZClCQck6yRjKX5jSAaIWHUG5WU1RPY4JE4ESxYSscoGN23X6YGe15U7HrxG7WOGzFPj7kUL4C3KHdgs86Yg5mfXlH580ZJPFqh4-tQb6JzbydlbCYBYiXxDMAo_S0wS7C_L8fSCCTc8BR0dbjdIKG-shvzJ4qlyvyEkSFvKkSZqFOXIBay-cpgsG4ah1ia06JoBGsyrUH6TFwtKD9wk25mVGoWrt1goov-59jV9Vr4yTGmYniIaOevVcmxSw4Ulp-3yQyi6CZpCmJkAQxL_jvNdTypwjzEyQxhEOyMdjRhtT4FnNskusuJNZGvJSuGd6Bm1gv3JpTyk4VmC0]--></g></svg>