<?xml version="1.0" encoding="UTF-8" standalone="no"?><svg xmlns="http://www.w3.org/2000/svg" xmlns:xlink="http://www.w3.org/1999/xlink" contentStyleType="text/css" height="305px" preserveAspectRatio="none" style="width:1917px;height:305px;background:#FFFFFF;" version="1.1" viewBox="0 0 1917 305" width="1917px" zoomAndPan="magnify"><defs/><g><!--cluster usecases--><g id="cluster_usecases"><rect fill="none" height="292.02" rx="2.5" ry="2.5" style="stroke:#FFFFFF;stroke-width:1.0;" width="1904" x="7" y="7"/><text fill="#000000" font-family="sans-serif" font-size="20" font-weight="bold" lengthAdjust="spacing" textLength="105" x="906.5" y="28.3359">Use Cases</text></g><g id="elem_UC4"><ellipse cx="1745.0006" cy="237.7881" fill="#F1F1F1" rx="150.4406" ry="32.4881" style="stroke:#181818;stroke-width:0.5;"/><text fill="#000000" font-family="sans-serif" font-size="20" lengthAdjust="spacing" textLength="258" x="1613.286" y="244.5914">UC4 - To submit a request</text></g><!--entity Owner--><g id="elem_Owner"><ellipse cx="1745" cy="57.5" fill="#F1F1F1" rx="8" ry="8" style="stroke:#181818;stroke-width:0.5;"/><path d="M1745,65.5 L1745,92.5 M1732,73.5 L1758,73.5 M1745,92.5 L1732,107.5 M1745,92.5 L1758,107.5 " fill="none" style="stroke:#181818;stroke-width:0.5;"/><text fill="#000000" font-family="sans-serif" font-size="20" lengthAdjust="spacing" textLength="62" x="1714" y="128.3359">Owner</text></g><g id="elem_UC3"><ellipse cx="1071.0018" cy="237.7884" fill="#F1F1F1" rx="168.3418" ry="36.0684" style="stroke:#181818;stroke-width:0.5;"/><text fill="#000000" font-family="sans-serif" font-size="20" lengthAdjust="spacing" textLength="297" x="922.5018" y="243.3469">UC3 - To register an employee</text></g><!--entity SystemAdministrator--><g id="elem_SystemAdministrator"><ellipse cx="1244" cy="57.5" fill="#F1F1F1" rx="8" ry="8" style="stroke:#181818;stroke-width:0.5;"/><path d="M1244,65.5 L1244,92.5 M1231,73.5 L1257,73.5 M1244,92.5 L1231,107.5 M1244,92.5 L1257,107.5 " fill="none" style="stroke:#181818;stroke-width:0.5;"/><text fill="#000000" font-family="sans-serif" font-size="20" lengthAdjust="spacing" textLength="201" x="1143.5" y="128.3359">SystemAdministrator</text></g><g id="elem_UC5"><ellipse cx="1416.9994" cy="237.7879" fill="#F1F1F1" rx="142.4394" ry="30.8879" style="stroke:#181818;stroke-width:0.5;"/><text fill="#000000" font-family="sans-serif" font-size="20" lengthAdjust="spacing" textLength="240" x="1293.9994" y="244.7058">UC5 - To register a store</text></g><g id="elem_UC2"><ellipse cx="676.9977" cy="237.7875" fill="#F1F1F1" rx="190.4877" ry="40.4975" style="stroke:#181818;stroke-width:0.5;"/><text fill="#000000" font-family="sans-serif" font-size="20" lengthAdjust="spacing" textLength="344" x="504.9977" y="243.3461">UC2 - To publish an announcement</text></g><!--entity Agent--><g id="elem_Agent"><ellipse cx="677" cy="57.5" fill="#F1F1F1" rx="8" ry="8" style="stroke:#181818;stroke-width:0.5;"/><path d="M677,65.5 L677,92.5 M664,73.5 L690,73.5 M677,92.5 L664,107.5 M677,92.5 L690,107.5 " fill="none" style="stroke:#181818;stroke-width:0.5;"/><text fill="#000000" font-family="sans-serif" font-size="20" lengthAdjust="spacing" textLength="56" x="649" y="128.3359">Agent</text></g><g id="elem_UC1"><ellipse cx="236.9987" cy="237.7917" fill="#F1F1F1" rx="214.1587" ry="45.2317" style="stroke:#181818;stroke-width:0.5;"/><text fill="#000000" font-family="sans-serif" font-size="20" lengthAdjust="spacing" textLength="329" x="66.4987" y="232.9324">UC1 - To display listed properties</text><text fill="#000000" font-family="sans-serif" font-size="20" lengthAdjust="spacing" textLength="182" x="142.9987" y="256.4871">(unregistered user)</text></g><!--entity UnregisteredUser--><g id="elem_UnregisteredUser"><ellipse cx="237" cy="57.5" fill="#F1F1F1" rx="8" ry="8" style="stroke:#181818;stroke-width:0.5;"/><path d="M237,65.5 L237,92.5 M224,73.5 L250,73.5 M237,92.5 L224,107.5 M237,92.5 L250,107.5 " fill="none" style="stroke:#181818;stroke-width:0.5;"/><text fill="#000000" font-family="sans-serif" font-size="20" lengthAdjust="spacing" textLength="166" x="154" y="128.3359">UnregisteredUser</text></g><!--link Owner to UC4--><g id="link_Owner_UC4"><path d="M1745,132.95 C1745,153.83 1745,179 1745,199.34 " fill="none" id="Owner-to-UC4" style="stroke:#181818;stroke-width:1.0;"/><polygon fill="#181818" points="1745,204.21,1749,195.21,1745,199.21,1741,195.21,1745,204.21" style="stroke:#181818;stroke-width:1.0;"/></g><!--link SystemAdministrator to UC3--><g id="link_SystemAdministrator_UC3"><path d="M1194.89,132.95 C1170.25,153.6 1140.6,178.45 1116.48,198.66 " fill="none" id="SystemAdministrator-to-UC3" style="stroke:#181818;stroke-width:1.0;"/><polygon fill="#181818" points="1113.05,202.38,1122.5148,199.6566,1116.8794,199.165,1117.3709,193.5296,1113.05,202.38" style="stroke:#181818;stroke-width:1.0;"/></g><!--link SystemAdministrator to UC5--><g id="link_SystemAdministrator_UC5"><path d="M1293.11,132.95 C1319.82,155.33 1352.42,182.65 1377.47,203.65 " fill="none" id="SystemAdministrator-to-UC5" style="stroke:#181818;stroke-width:1.0;"/><polygon fill="#181818" points="1381.06,207.5,1376.7229,198.6575,1377.2247,204.2921,1371.5902,204.7939,1381.06,207.5" style="stroke:#181818;stroke-width:1.0;"/></g><!--link Agent to UC2--><g id="link_Agent_UC2"><path d="M677,132.95 C677,151.16 677,172.64 677,191.32 " fill="none" id="Agent-to-UC2" style="stroke:#181818;stroke-width:1.0;"/><polygon fill="#181818" points="677,196.02,681,187.02,677,191.02,673,187.02,677,196.02" style="stroke:#181818;stroke-width:1.0;"/></g><!--link UnregisteredUser to UC1--><g id="link_UnregisteredUser_UC1"><path d="M237,132.95 C237,149.57 237,168.92 237,186.38 " fill="none" id="UnregisteredUser-to-UC1" style="stroke:#181818;stroke-width:1.0;"/><polygon fill="#181818" points="237,191.22,241,182.22,237,186.22,233,182.22,237,191.22" style="stroke:#181818;stroke-width:1.0;"/></g><!--SRC=[XP4nJyCm48Lt_ufJby9GYRPqHIe5LeRIZUMQN1EhjY_O5vM0-EzSagP4NV1WoNxlVVSifwCD5KRqZhCZvP3J0MidBnnaQxy85dTccWOFU0wSbP4zWSIQp9zIONR4WhRIE898cM0e78spgSISJpOKS42No8p25_-t0LsF77EA6tOSuLHQ8VDZp5IiA7gN23QesvF5eiq-VwAlT98Hha0OzYp27dBRGYq7Oovqc0pfD05CK2VAsaC_zNnIq-OUPl36aEgzjmAe_JvgIjA5LEtihwT04MQpXylD2B3i0P4AcqHj682q9JT4PyYoYsmRbVqwzpQeCQBmW5nU8rVNI4Zg7d2hVt2hQzoYnrNrtjbKjWKn1Av3Hfx2yD95breNUdFcBAuvyvwJsrGvRC2rvNAe8bSKnLA2zt1JXw6rIfgDjsV-lAFjHh9-q52v5_NdVm40]--></g></svg>