<?xml version="1.0" encoding="us-ascii" standalone="no"?><svg xmlns="http://www.w3.org/2000/svg" xmlns:xlink="http://www.w3.org/1999/xlink" contentStyleType="text/css" height="445px" preserveAspectRatio="none" style="width:530px;height:445px;background:#FFFFFF;" version="1.1" viewBox="0 0 530 445" width="530px" zoomAndPan="magnify"><defs/><g><text fill="#000000" font-family="sans-serif" font-size="14" font-weight="bold" lengthAdjust="spacing" textLength="228" x="150" y="27.6738">System Sequence Diagram (SSD)</text><rect fill="#FFFFFF" height="229.1875" style="stroke:#181818;stroke-width:1.0;" width="10" x="76" y="127.2813"/><rect fill="#FFFFFF" height="28.5234" style="stroke:#181818;stroke-width:1.0;" width="10" x="487" y="147.8047"/><rect fill="#FFFFFF" height="28.5234" style="stroke:#181818;stroke-width:1.0;" width="10" x="487" y="204.8516"/><rect fill="#FFFFFF" height="28.5234" style="stroke:#181818;stroke-width:1.0;" width="10" x="487" y="261.8984"/><rect fill="#FFFFFF" height="28.5234" style="stroke:#181818;stroke-width:1.0;" width="10" x="487" y="318.9453"/><line style="stroke:#181818;stroke-width:0.5;stroke-dasharray:5.0,5.0;" x1="81" x2="81" y1="117.2813" y2="365.4688"/><line style="stroke:#181818;stroke-width:0.5;stroke-dasharray:5.0,5.0;" x1="492" x2="492" y1="117.2813" y2="365.4688"/><text fill="#000000" font-family="sans-serif" font-size="14" lengthAdjust="spacing" textLength="146" x="5" y="114.3145">Organization Employee</text><ellipse cx="81" cy="50.1406" fill="#E3E3E3" rx="8" ry="8" style="stroke:#181818;stroke-width:0.5;"/><path d="M81,58.1406 L81,85.1406 M68,66.1406 L94,66.1406 M81,85.1406 L68,100.1406 M81,85.1406 L94,100.1406 " fill="none" style="stroke:#181818;stroke-width:0.5;"/><text fill="#000000" font-family="sans-serif" font-size="14" lengthAdjust="spacing" textLength="146" x="5" y="377.1426">Organization Employee</text><ellipse cx="81" cy="388.6094" fill="#E3E3E3" rx="8" ry="8" style="stroke:#181818;stroke-width:0.5;"/><path d="M81,396.6094 L81,423.6094 M68,404.6094 L94,404.6094 M81,423.6094 L68,438.6094 M81,423.6094 L94,438.6094 " fill="none" style="stroke:#181818;stroke-width:0.5;"/><rect fill="#E3E3E3" height="29.6406" rx="2.5" ry="2.5" style="stroke:#181818;stroke-width:0.5;" width="64" x="460" y="86.6406"/><text fill="#000000" font-family="sans-serif" font-size="14" lengthAdjust="spacing" textLength="50" x="467" y="106.3145">:System</text><rect fill="#E3E3E3" height="29.6406" rx="2.5" ry="2.5" style="stroke:#181818;stroke-width:0.5;" width="64" x="460" y="364.4688"/><text fill="#000000" font-family="sans-serif" font-size="14" lengthAdjust="spacing" textLength="50" x="467" y="384.1426">:System</text><rect fill="#FFFFFF" height="229.1875" style="stroke:#181818;stroke-width:1.0;" width="10" x="76" y="127.2813"/><rect fill="#FFFFFF" height="28.5234" style="stroke:#181818;stroke-width:1.0;" width="10" x="487" y="147.8047"/><rect fill="#FFFFFF" height="28.5234" style="stroke:#181818;stroke-width:1.0;" width="10" x="487" y="204.8516"/><rect fill="#FFFFFF" height="28.5234" style="stroke:#181818;stroke-width:1.0;" width="10" x="487" y="261.8984"/><rect fill="#FFFFFF" height="28.5234" style="stroke:#181818;stroke-width:1.0;" width="10" x="487" y="318.9453"/><polygon fill="#181818" points="475,143.8047,485,147.8047,475,151.8047,479,147.8047" style="stroke:#181818;stroke-width:1.0;"/><line style="stroke:#181818;stroke-width:1.0;" x1="86" x2="481" y1="147.8047" y2="147.8047"/><text fill="#000000" font-family="sans-serif" font-size="13" font-weight="bold" lengthAdjust="spacing" textLength="7" x="93" y="143.0498">1</text><text fill="#000000" font-family="sans-serif" font-size="13" lengthAdjust="spacing" textLength="371" x="104" y="143.0498">request a list of booking requests for properties managed by him</text><polygon fill="#181818" points="97,172.3281,87,176.3281,97,180.3281,93,176.3281" style="stroke:#181818;stroke-width:1.0;"/><line style="stroke:#181818;stroke-width:1.0;stroke-dasharray:2.0,2.0;" x1="91" x2="491" y1="176.3281" y2="176.3281"/><text fill="#000000" font-family="sans-serif" font-size="13" font-weight="bold" lengthAdjust="spacing" textLength="7" x="103" y="171.5732">2</text><text fill="#000000" font-family="sans-serif" font-size="13" lengthAdjust="spacing" textLength="219" x="114" y="171.5732">request the begin date of the requests</text><polygon fill="#181818" points="475,200.8516,485,204.8516,475,208.8516,479,204.8516" style="stroke:#181818;stroke-width:1.0;"/><line style="stroke:#181818;stroke-width:1.0;" x1="86" x2="481" y1="204.8516" y2="204.8516"/><text fill="#000000" font-family="sans-serif" font-size="13" font-weight="bold" lengthAdjust="spacing" textLength="7" x="93" y="200.0967">3</text><text fill="#000000" font-family="sans-serif" font-size="13" lengthAdjust="spacing" textLength="215" x="104" y="200.0967">submit the begin date of the requests</text><polygon fill="#181818" points="97,229.375,87,233.375,97,237.375,93,233.375" style="stroke:#181818;stroke-width:1.0;"/><line style="stroke:#181818;stroke-width:1.0;stroke-dasharray:2.0,2.0;" x1="91" x2="491" y1="233.375" y2="233.375"/><text fill="#000000" font-family="sans-serif" font-size="13" font-weight="bold" lengthAdjust="spacing" textLength="7" x="103" y="228.6201">4</text><text fill="#000000" font-family="sans-serif" font-size="13" lengthAdjust="spacing" textLength="209" x="114" y="228.6201">request the end date of the requests</text><polygon fill="#181818" points="475,257.8984,485,261.8984,475,265.8984,479,261.8984" style="stroke:#181818;stroke-width:1.0;"/><line style="stroke:#181818;stroke-width:1.0;" x1="86" x2="481" y1="261.8984" y2="261.8984"/><text fill="#000000" font-family="sans-serif" font-size="13" font-weight="bold" lengthAdjust="spacing" textLength="7" x="93" y="257.1436">5</text><text fill="#000000" font-family="sans-serif" font-size="13" lengthAdjust="spacing" textLength="205" x="104" y="257.1436">submit the end date of the requests</text><polygon fill="#181818" points="97,286.4219,87,290.4219,97,294.4219,93,290.4219" style="stroke:#181818;stroke-width:1.0;"/><line style="stroke:#181818;stroke-width:1.0;stroke-dasharray:2.0,2.0;" x1="91" x2="491" y1="290.4219" y2="290.4219"/><text fill="#000000" font-family="sans-serif" font-size="13" font-weight="bold" lengthAdjust="spacing" textLength="7" x="103" y="285.667">6</text><text fill="#000000" font-family="sans-serif" font-size="13" lengthAdjust="spacing" textLength="292" x="114" y="285.667">shows sorting algorithm through a configuration file</text><polygon fill="#181818" points="475,314.9453,485,318.9453,475,322.9453,479,318.9453" style="stroke:#181818;stroke-width:1.0;"/><line style="stroke:#181818;stroke-width:1.0;stroke-dasharray:2.0,2.0;" x1="86" x2="481" y1="318.9453" y2="318.9453"/><text fill="#000000" font-family="sans-serif" font-size="13" font-weight="bold" lengthAdjust="spacing" textLength="7" x="93" y="314.1904">7</text><text fill="#000000" font-family="sans-serif" font-size="13" lengthAdjust="spacing" textLength="166" x="104" y="314.1904">selects two sorting algorithm</text><polygon fill="#181818" points="97,343.4688,87,347.4688,97,351.4688,93,347.4688" style="stroke:#181818;stroke-width:1.0;"/><line style="stroke:#181818;stroke-width:1.0;stroke-dasharray:2.0,2.0;" x1="91" x2="491" y1="347.4688" y2="347.4688"/><text fill="#000000" font-family="sans-serif" font-size="13" font-weight="bold" lengthAdjust="spacing" textLength="7" x="103" y="342.7139">8</text><text fill="#000000" font-family="sans-serif" font-size="13" lengthAdjust="spacing" textLength="234" x="114" y="342.7139">shows the list sorted by date(ascending)</text><!--SRC=[hP9DSeCm38NtFeKcgsIH2tJHLRhkWXC88umdsAAsQ8QUlW82QQUqasdh3TYMt_Vqayy-TfWmGE38jaaS22JrPF9wqw4zewD2XfOWaHMChlqOa1ki-EAZWnhRJCQ85mqjXYmKeA2Ndg8bE7bqO_Y-A4u7Wxrmx4D9oHYqmWbspybXz6yedYCyXQxbWMW7cDUDKQ1uwpkC0hk7cJ15pB-Jb7z5eTiJ0xgM7HmV5ryFceiwom88hTSFrr0odySyhZSPQlNL9Uv8iPGXODHAL50EqFWmAQ_0nG5SrnLpLE9Alp6b8IZ9-GZL-5ZPuyd2dKGgsjJUJ2NtPV1tgVx1ByNgtzt-gBcfkEqpDtp9a5dxfFt3rd7oqWJLJDoxHdjiETRUzMaUhzhh2D_b-vDnQdN-CyY5lx9-PtbCUXg_KMyUhR4UUynMQwE0mtSspJi0]--></g></svg>