<?xml version="1.0" encoding="us-ascii" standalone="no"?><svg xmlns="http://www.w3.org/2000/svg" xmlns:xlink="http://www.w3.org/1999/xlink" contentStyleType="text/css" height="439px" preserveAspectRatio="none" style="width:500px;height:439px;background:#FFFFFF;" version="1.1" viewBox="0 0 500 439" width="500px" zoomAndPan="magnify"><defs/><g><text fill="#000000" font-family="sans-serif" font-size="14" font-weight="bold" lengthAdjust="spacing" textLength="100" x="193" y="22.6738">Domain Model</text><!--class Agent--><g id="elem_Agent"><rect codeLine="15" fill="#F1F1F1" height="64.9219" id="Agent" rx="2.5" ry="2.5" style="stroke:#181818;stroke-width:0.5;" width="101" x="372" y="367.6406"/><text fill="#000000" font-family="sans-serif" font-size="14" lengthAdjust="spacing" textLength="37" x="404" y="385.3145">Agent</text><line style="stroke:#181818;stroke-width:0.5;" x1="373" x2="472" y1="393.2813" y2="393.2813"/><text fill="#000000" font-family="sans-serif" font-size="14" lengthAdjust="spacing" textLength="64" x="378" y="409.9551">userName</text><text fill="#000000" font-family="sans-serif" font-size="14" lengthAdjust="spacing" textLength="89" x="378" y="425.5957">phoneNumber</text></g><!--class Property--><g id="elem_Property"><rect codeLine="20" fill="#F1F1F1" height="127.4844" id="Property" rx="2.5" ry="2.5" style="stroke:#181818;stroke-width:0.5;" width="141" x="352" y="43.6406"/><text fill="#000000" font-family="sans-serif" font-size="14" lengthAdjust="spacing" textLength="54" x="395.5" y="61.3145">Property</text><line style="stroke:#181818;stroke-width:0.5;" x1="353" x2="492" y1="69.2813" y2="69.2813"/><text fill="#000000" font-family="sans-serif" font-size="14" lengthAdjust="spacing" textLength="100" x="358" y="85.9551">type of property</text><text fill="#000000" font-family="sans-serif" font-size="14" lengthAdjust="spacing" textLength="29" x="358" y="101.5957">area</text><text fill="#000000" font-family="sans-serif" font-size="14" lengthAdjust="spacing" textLength="129" x="358" y="117.2363">distance from center</text><text fill="#000000" font-family="sans-serif" font-size="14" lengthAdjust="spacing" textLength="31" x="358" y="132.877">price</text><text fill="#000000" font-family="sans-serif" font-size="14" lengthAdjust="spacing" textLength="31" x="358" y="148.5176">state</text><text fill="#000000" font-family="sans-serif" font-size="14" lengthAdjust="spacing" textLength="51" x="358" y="164.1582">zipCode</text></g><!--class VisitRequest--><g id="elem_VisitRequest"><rect codeLine="30" fill="#F1F1F1" height="96.2031" id="VisitRequest" rx="2.5" ry="2.5" style="stroke:#181818;stroke-width:0.5;" width="101" x="372" y="221.1406"/><text fill="#000000" font-family="sans-serif" font-size="14" lengthAdjust="spacing" textLength="79" x="383" y="238.8145">VisitRequest</text><line style="stroke:#181818;stroke-width:0.5;" x1="373" x2="472" y1="246.7813" y2="246.7813"/><text fill="#000000" font-family="sans-serif" font-size="14" lengthAdjust="spacing" textLength="33" x="378" y="263.4551">client</text><text fill="#000000" font-family="sans-serif" font-size="14" lengthAdjust="spacing" textLength="89" x="378" y="279.0957">phoneNumber</text><text fill="#000000" font-family="sans-serif" font-size="14" lengthAdjust="spacing" textLength="50" x="378" y="294.7363">timeSlot</text><text fill="#000000" font-family="sans-serif" font-size="14" lengthAdjust="spacing" textLength="28" x="378" y="310.377">date</text></g><!--class Owner--><g id="elem_Owner"><rect codeLine="37" fill="#F1F1F1" height="64.9219" id="Owner" rx="2.5" ry="2.5" style="stroke:#181818;stroke-width:0.5;" width="101" x="143.5" y="367.6406"/><text fill="#000000" font-family="sans-serif" font-size="14" lengthAdjust="spacing" textLength="41" x="173.5" y="385.3145">Owner</text><line style="stroke:#181818;stroke-width:0.5;" x1="144.5" x2="243.5" y1="393.2813" y2="393.2813"/><text fill="#000000" font-family="sans-serif" font-size="14" lengthAdjust="spacing" textLength="64" x="149.5" y="409.9551">userName</text><text fill="#000000" font-family="sans-serif" font-size="14" lengthAdjust="spacing" textLength="89" x="149.5" y="425.5957">phoneNumber</text></g><!--class Response--><g id="elem_Response"><rect codeLine="53" fill="#F1F1F1" height="96.2031" id="Response" rx="2.5" ry="2.5" style="stroke:#181818;stroke-width:0.5;" width="106" x="141" y="221.1406"/><text fill="#000000" font-family="sans-serif" font-size="14" lengthAdjust="spacing" textLength="64" x="162" y="238.8145">Response</text><line style="stroke:#181818;stroke-width:0.5;" x1="142" x2="246" y1="246.7813" y2="246.7813"/><text fill="#000000" font-family="sans-serif" font-size="14" lengthAdjust="spacing" textLength="66" x="147" y="263.4551">-typeEmail</text><text fill="#000000" font-family="sans-serif" font-size="14" lengthAdjust="spacing" textLength="64" x="147" y="279.0957">-response</text><text fill="#000000" font-family="sans-serif" font-size="14" lengthAdjust="spacing" textLength="69" x="147" y="294.7363">-userName</text><text fill="#000000" font-family="sans-serif" font-size="14" lengthAdjust="spacing" textLength="94" x="147" y="310.377">-phoneNumber</text></g><!--class TypeEmail--><g id="elem_TypeEmail"><rect codeLine="49" fill="#F1F1F1" height="49.2813" id="TypeEmail" rx="2.5" ry="2.5" style="stroke:#181818;stroke-width:0.5;" width="73" x="7" y="244.6406"/><text fill="#000000" font-family="sans-serif" font-size="14" lengthAdjust="spacing" textLength="66" x="10.5" y="262.3145">TypeEmail</text><line style="stroke:#181818;stroke-width:0.5;" x1="8" x2="79" y1="270.2813" y2="270.2813"/><text fill="#000000" font-family="sans-serif" font-size="14" lengthAdjust="spacing" textLength="61" x="13" y="286.9551">typeEmail</text></g><!--reverse link VisitRequest to Agent--><g id="link_VisitRequest_Agent"><path codeLine="57" d="M422.5,322.3906 C422.5,337.6406 422.5,353.8006 422.5,367.4206 " fill="none" id="VisitRequest-backto-Agent" style="stroke:#181818;stroke-width:1.0;"/><polygon fill="#181818" points="422.5,317.2606,418.5,326.2606,422.5,322.2606,426.5,326.2606,422.5,317.2606" style="stroke:#181818;stroke-width:1.0;"/><text fill="#000000" font-family="sans-serif" font-size="13" lengthAdjust="spacing" textLength="24" x="399.5" y="347.1592">view</text></g><!--link Agent to Response--><g id="link_Agent_Response"><path codeLine="58" d="M371.85,371.4206 C336.4,350.9206 288.65,323.3006 251.7,301.9306 " fill="none" id="Agent-to-Response" style="stroke:#181818;stroke-width:1.0;"/><polygon fill="#181818" points="247.25,299.3606,253.043,307.3256,251.5797,301.8613,257.0441,300.398,247.25,299.3606" style="stroke:#181818;stroke-width:1.0;"/><text fill="#000000" font-family="sans-serif" font-size="13" lengthAdjust="spacing" textLength="27" x="286" y="315.9092">write</text></g><!--link Response to Owner--><g id="link_Response_Owner"><path codeLine="59" d="M194,317.2606 C194,332.1306 194,348.2806 194,362.3406 " fill="none" id="Response-to-Owner" style="stroke:#181818;stroke-width:1.0;"/><polygon fill="#181818" points="194,367.4206,198,358.4206,194,362.4206,190,358.4206,194,367.4206" style="stroke:#181818;stroke-width:1.0;"/><text fill="#000000" font-family="sans-serif" font-size="13" lengthAdjust="spacing" textLength="39" x="163.5" y="347.1592">is sent</text></g><!--reverse link TypeEmail to Response--><g id="link_TypeEmail_Response"><path codeLine="60" d="M85.29,269.1406 C102.46,269.1406 122.63,269.1406 140.86,269.1406 " fill="none" id="TypeEmail-backto-Response" style="stroke:#181818;stroke-width:1.0;"/><polygon fill="#181818" points="80.07,269.1406,89.07,273.1406,85.07,269.1406,89.07,265.1406,80.07,269.1406" style="stroke:#181818;stroke-width:1.0;"/></g><!--link Property to VisitRequest--><g id="link_Property_VisitRequest"><path codeLine="61" d="M422.5,170.7306 C422.5,185.6206 422.5,201.3406 422.5,215.7306 " fill="none" id="Property-to-VisitRequest" style="stroke:#181818;stroke-width:1.0;"/><polygon fill="#181818" points="422.5,220.9706,426.5,211.9706,422.5,215.9706,418.5,211.9706,422.5,220.9706" style="stroke:#181818;stroke-width:1.0;"/><text fill="#000000" font-family="sans-serif" font-size="13" lengthAdjust="spacing" textLength="21" x="401" y="200.6592">has</text></g><!--link Owner to VisitRequest--><g id="link_Owner_VisitRequest"><path codeLine="62" d="M244.62,393.4606 C269.08,388.6506 298.32,380.5706 322,367.1406 C342.88,355.2906 362.49,337.9506 378.7,321.1406 " fill="none" id="Owner-to-VisitRequest" style="stroke:#181818;stroke-width:1.0;"/><polygon fill="#181818" points="382.31,317.3306,373.2136,321.1063,378.8685,320.9578,379.017,326.6127,382.31,317.3306" style="stroke:#181818;stroke-width:1.0;"/><text fill="#000000" font-family="sans-serif" font-size="13" lengthAdjust="spacing" textLength="43" x="278" y="363.9092">request</text></g><!--link VisitRequest to Response--><g id="link_VisitRequest_Response"><path codeLine="63" d="M371.85,269.1406 C336.68,269.1406 289.42,269.1406 252.6,269.1406 " fill="none" id="VisitRequest-to-Response" style="stroke:#181818;stroke-width:1.0;"/><polygon fill="#181818" points="247.25,269.1406,256.25,273.1406,252.25,269.1406,256.25,265.1406,247.25,269.1406" style="stroke:#181818;stroke-width:1.0;"/><text fill="#000000" font-family="sans-serif" font-size="13" lengthAdjust="spacing" textLength="21" x="289" y="265.9092">has</text></g><!--SRC=[ZL7BJWCn3BpdA_m3At7keL8573XGK8kufucxQpMR1CVBgaNyEzbdMxK7Sh8zzipOIGVoKREkeGu-c8f3ZI3Se4ep4hKvw1AtSdG8Z4QqBzrbGwgq3Itv4lRQ9LJAuLv00Z2LbO2bReY2LnSpnkcKLY9CkqRmnGI_fHF2Wr8LMGH3RB967zSeLR19AI793fv2hSd3Qx3eb58z4QnAzFAZ8Byc8QzrZNqIg-1ntTGxPFKxDRzpYCXo7FhpasD427k88p3LDQEUOaifBsuGzlb6OB9SfXono6HmIdARpCc9ucCssccFuf-KI3RurM0Q3Hj7cUt6Rc-CQjowC82suvsNU6izydyttc2AmIU4OQ3e5dxEPtH3oYCyP5TqnLs-Zsb-u3lJtLFiYlt_GE6AvTK1O07mJTXE-F8yju2MAIyy5pBOxvmHIf2wavsn9gEpAJLzCDpALJgfWQQmjoWFaReg5tpXgsVu0m00]--></g></svg>