<?xml version="1.0" encoding="us-ascii" standalone="no"?><svg xmlns="http://www.w3.org/2000/svg" xmlns:xlink="http://www.w3.org/1999/xlink" contentStyleType="text/css" height="417px" preserveAspectRatio="none" style="width:356px;height:417px;background:#FFFFFF;" version="1.1" viewBox="0 0 356 417" width="356px" zoomAndPan="magnify"><defs/><g><text fill="#000000" font-family="sans-serif" font-size="14" font-weight="bold" lengthAdjust="spacing" textLength="228" x="63.25" y="27.6738">System Sequence Diagram (SSD)</text><rect fill="#FFFFFF" height="201.1875" style="stroke:#181818;stroke-width:1.0;" width="10" x="69.5" y="127.2813"/><rect fill="#FFFFFF" height="28.5234" style="stroke:#181818;stroke-width:1.0;" width="10" x="313.5" y="147.8047"/><rect fill="#FFFFFF" height="28.5234" style="stroke:#181818;stroke-width:1.0;" width="10" x="313.5" y="233.8984"/><rect fill="#FFFFFF" height="28.5234" style="stroke:#181818;stroke-width:1.0;" width="10" x="313.5" y="290.9453"/><line style="stroke:#181818;stroke-width:0.5;stroke-dasharray:5.0,5.0;" x1="74" x2="74" y1="117.2813" y2="337.4688"/><line style="stroke:#181818;stroke-width:0.5;stroke-dasharray:5.0,5.0;" x1="318.5" x2="318.5" y1="117.2813" y2="337.4688"/><text fill="#000000" font-family="sans-serif" font-size="14" lengthAdjust="spacing" textLength="133" x="5" y="114.3145">System Administrator</text><ellipse cx="74.5" cy="50.1406" fill="#E3E3E3" rx="8" ry="8" style="stroke:#181818;stroke-width:0.5;"/><path d="M74.5,58.1406 L74.5,85.1406 M61.5,66.1406 L87.5,66.1406 M74.5,85.1406 L61.5,100.1406 M74.5,85.1406 L87.5,100.1406 " fill="none" style="stroke:#181818;stroke-width:0.5;"/><text fill="#000000" font-family="sans-serif" font-size="14" lengthAdjust="spacing" textLength="133" x="5" y="349.1426">System Administrator</text><ellipse cx="74.5" cy="360.6094" fill="#E3E3E3" rx="8" ry="8" style="stroke:#181818;stroke-width:0.5;"/><path d="M74.5,368.6094 L74.5,395.6094 M61.5,376.6094 L87.5,376.6094 M74.5,395.6094 L61.5,410.6094 M74.5,395.6094 L87.5,410.6094 " fill="none" style="stroke:#181818;stroke-width:0.5;"/><rect fill="#E3E3E3" height="29.6406" rx="2.5" ry="2.5" style="stroke:#181818;stroke-width:0.5;" width="64" x="286.5" y="86.6406"/><text fill="#000000" font-family="sans-serif" font-size="14" lengthAdjust="spacing" textLength="50" x="293.5" y="106.3145">:System</text><rect fill="#E3E3E3" height="29.6406" rx="2.5" ry="2.5" style="stroke:#181818;stroke-width:0.5;" width="64" x="286.5" y="336.4688"/><text fill="#000000" font-family="sans-serif" font-size="14" lengthAdjust="spacing" textLength="50" x="293.5" y="356.1426">:System</text><rect fill="#FFFFFF" height="201.1875" style="stroke:#181818;stroke-width:1.0;" width="10" x="69.5" y="127.2813"/><rect fill="#FFFFFF" height="28.5234" style="stroke:#181818;stroke-width:1.0;" width="10" x="313.5" y="147.8047"/><rect fill="#FFFFFF" height="28.5234" style="stroke:#181818;stroke-width:1.0;" width="10" x="313.5" y="233.8984"/><rect fill="#FFFFFF" height="28.5234" style="stroke:#181818;stroke-width:1.0;" width="10" x="313.5" y="290.9453"/><polygon fill="#181818" points="301.5,143.8047,311.5,147.8047,301.5,151.8047,305.5,147.8047" style="stroke:#181818;stroke-width:1.0;"/><line style="stroke:#181818;stroke-width:1.0;" x1="79.5" x2="307.5" y1="147.8047" y2="147.8047"/><text fill="#000000" font-family="sans-serif" font-size="13" font-weight="bold" lengthAdjust="spacing" textLength="7" x="86.5" y="143.0498">1</text><text fill="#000000" font-family="sans-serif" font-size="13" lengthAdjust="spacing" textLength="154" x="97.5" y="143.0498">asks to create a new store</text><polygon fill="#181818" points="90.5,172.3281,80.5,176.3281,90.5,180.3281,86.5,176.3281" style="stroke:#181818;stroke-width:1.0;"/><line style="stroke:#181818;stroke-width:1.0;stroke-dasharray:2.0,2.0;" x1="84.5" x2="317.5" y1="176.3281" y2="176.3281"/><text fill="#000000" font-family="sans-serif" font-size="13" font-weight="bold" lengthAdjust="spacing" textLength="7" x="96.5" y="171.5732">2</text><text fill="#000000" font-family="sans-serif" font-size="13" lengthAdjust="spacing" textLength="79" x="107.5" y="171.5732">requests data</text><polygon fill="#181818" points="301.5,229.8984,311.5,233.8984,301.5,237.8984,305.5,233.8984" style="stroke:#181818;stroke-width:1.0;"/><line style="stroke:#181818;stroke-width:1.0;" x1="79.5" x2="307.5" y1="233.8984" y2="233.8984"/><text fill="#000000" font-family="sans-serif" font-size="13" font-weight="bold" lengthAdjust="spacing" textLength="7" x="86.5" y="214.6201">3</text><text fill="#000000" font-family="sans-serif" font-size="13" lengthAdjust="spacing" textLength="200" x="97.5" y="200.0967">types requested data (designation,</text><text fill="#000000" font-family="sans-serif" font-size="13" lengthAdjust="spacing" textLength="163" x="97.5" y="214.6201">location, e-mail address and</text><text fill="#000000" font-family="sans-serif" font-size="13" lengthAdjust="spacing" textLength="154" x="97.5" y="229.1436">contact telephone number)</text><polygon fill="#181818" points="90.5,258.4219,80.5,262.4219,90.5,266.4219,86.5,262.4219" style="stroke:#181818;stroke-width:1.0;"/><line style="stroke:#181818;stroke-width:1.0;stroke-dasharray:2.0,2.0;" x1="84.5" x2="317.5" y1="262.4219" y2="262.4219"/><text fill="#000000" font-family="sans-serif" font-size="13" font-weight="bold" lengthAdjust="spacing" textLength="7" x="96.5" y="257.667">4</text><text fill="#000000" font-family="sans-serif" font-size="13" lengthAdjust="spacing" textLength="127" x="107.5" y="257.667">shows requested data</text><polygon fill="#181818" points="301.5,286.9453,311.5,290.9453,301.5,294.9453,305.5,290.9453" style="stroke:#181818;stroke-width:1.0;"/><line style="stroke:#181818;stroke-width:1.0;" x1="79.5" x2="307.5" y1="290.9453" y2="290.9453"/><text fill="#000000" font-family="sans-serif" font-size="13" font-weight="bold" lengthAdjust="spacing" textLength="7" x="86.5" y="286.1904">5</text><text fill="#000000" font-family="sans-serif" font-size="13" lengthAdjust="spacing" textLength="75" x="97.5" y="286.1904">submits data</text><polygon fill="#181818" points="90.5,315.4688,80.5,319.4688,90.5,323.4688,86.5,319.4688" style="stroke:#181818;stroke-width:1.0;"/><line style="stroke:#181818;stroke-width:1.0;stroke-dasharray:2.0,2.0;" x1="84.5" x2="317.5" y1="319.4688" y2="319.4688"/><text fill="#000000" font-family="sans-serif" font-size="13" font-weight="bold" lengthAdjust="spacing" textLength="7" x="96.5" y="314.7139">6</text><text fill="#000000" font-family="sans-serif" font-size="13" lengthAdjust="spacing" textLength="149" x="107.5" y="314.7139">Shows operation success</text><!--SRC=[dL51Ri903BplAonE89KFv52f4Z_8jHUpwmQBh3TTEutuVKq823Yq4dkox9dnU5QFB0DMp92Bb7Ye9HDO7IdeRJ9WF697hPrwWahHKBh-7g07J6LYwU0BUwKGZCsXxKcDChJqFP94WXrZTuQlstQt2G57ApBcFLMlevKAguNnaJ8BgrNqxWfG7pl1jnf77b0CLis5DCCkPPZr-0UDdeW1_3sqOFj-zTcumb712iHAPow2q0JgA9g9Dz5b3InluMzTwb6xyRJyTZM5X8OtGg9dgN-CsMaWlOfHcjLWdKYv4pGkyWQVqfUurBJDo3rWIfLK0INvE1OnNmj6FGs78WINy3SltTRufvVfsTFh5-guptoVqmjXjxEZCb2TSt3D6Ft-Fqpz0W00]--></g></svg>