<?xml version="1.0" encoding="UTF-8" standalone="no"?><svg xmlns="http://www.w3.org/2000/svg" xmlns:xlink="http://www.w3.org/1999/xlink" contentStyleType="text/css" height="1509px" preserveAspectRatio="none" style="width:874px;height:1509px;background:#FFFFFF;" version="1.1" viewBox="0 0 874 1509" width="874px" zoomAndPan="magnify"><defs/><g><text fill="#000000" font-family="sans-serif" font-size="14" font-weight="bold" lengthAdjust="spacing" textLength="363" x="257" y="28.5352">System Sequence Diagram (SSD) - Alternative One</text><rect fill="#FFFFFF" height="1276.6328" style="stroke:#181818;stroke-width:1.0;" width="10" x="69" y="136.043"/><rect fill="#FFFFFF" height="37.5547" style="stroke:#181818;stroke-width:1.0;" width="10" x="789" y="165.5977"/><rect fill="#FFFFFF" height="37.5547" style="stroke:#181818;stroke-width:1.0;" width="10" x="789" y="240.707"/><rect fill="#FFFFFF" height="37.5547" style="stroke:#181818;stroke-width:1.0;" width="10" x="789" y="315.8164"/><rect fill="#FFFFFF" height="266.5469" style="stroke:#181818;stroke-width:1.0;" width="10" x="789" y="479.1445"/><rect fill="#FFFFFF" height="37.5547" style="stroke:#181818;stroke-width:1.0;" width="10" x="789" y="783.2461"/><rect fill="#FFFFFF" height="37.5547" style="stroke:#181818;stroke-width:1.0;" width="10" x="789" y="858.3555"/><rect fill="#FFFFFF" height="58.5547" style="stroke:#181818;stroke-width:1.0;" width="10" x="789" y="933.4648"/><rect fill="#FFFFFF" height="116.2188" style="stroke:#181818;stroke-width:1.0;" width="10" x="789" y="1029.5742"/><rect fill="#FFFFFF" height="63.1094" style="stroke:#181818;stroke-width:1.0;" width="10" x="789" y="1183.3477"/><rect fill="#FFFFFF" height="44.5547" style="stroke:#181818;stroke-width:1.0;" width="10" x="789" y="1284.0117"/><rect fill="#FFFFFF" height="37.5547" style="stroke:#181818;stroke-width:1.0;" width="10" x="789" y="1366.1211"/><rect fill="none" height="587.0938" style="stroke:#000000;stroke-width:1.5;" width="858" x="10" y="368.3711"/><rect fill="none" height="71.6641" style="stroke:#000000;stroke-width:1.5;" width="818" x="30" y="494.1445"/><rect fill="none" height="368.6563" style="stroke:#000000;stroke-width:1.5;" width="838" x="20" y="579.8086"/><rect fill="none" height="259.4375" style="stroke:#000000;stroke-width:1.5;" width="818" x="30" y="682.0273"/><rect fill="none" height="209.8828" style="stroke:#000000;stroke-width:1.5;" width="818" x="30" y="1082.1289"/><line style="stroke:#181818;stroke-width:0.5;stroke-dasharray:5.0,5.0;" x1="74" x2="74" y1="126.043" y2="1421.6758"/><line style="stroke:#181818;stroke-width:0.5;stroke-dasharray:5.0,5.0;" x1="794" x2="794" y1="126.043" y2="1421.6758"/><text fill="#000000" font-family="sans-serif" font-size="20" lengthAdjust="spacing" textLength="62" x="40" y="121.8242">Owner</text><ellipse cx="74" cy="50.9883" fill="#E3E3E3" rx="8" ry="8" style="stroke:#181818;stroke-width:0.5;"/><path d="M74,58.9883 L74,85.9883 M61,66.9883 L87,66.9883 M74,85.9883 L61,100.9883 M74,85.9883 L87,100.9883 " fill="none" style="stroke:#181818;stroke-width:0.5;"/><text fill="#000000" font-family="sans-serif" font-size="20" lengthAdjust="spacing" textLength="62" x="40" y="1440.0117">Owner</text><ellipse cx="74" cy="1452.7305" fill="#E3E3E3" rx="8" ry="8" style="stroke:#181818;stroke-width:0.5;"/><path d="M74,1460.7305 L74,1487.7305 M61,1468.7305 L87,1468.7305 M74,1487.7305 L61,1502.7305 M74,1487.7305 L87,1502.7305 " fill="none" style="stroke:#181818;stroke-width:0.5;"/><rect fill="#E3E3E3" height="37.5547" rx="2.5" ry="2.5" style="stroke:#181818;stroke-width:0.5;" width="88" x="750" y="87.4883"/><text fill="#000000" font-family="sans-serif" font-size="20" lengthAdjust="spacing" textLength="74" x="757" y="113.8242">:System</text><rect fill="#E3E3E3" height="37.5547" rx="2.5" ry="2.5" style="stroke:#181818;stroke-width:0.5;" width="88" x="750" y="1420.6758"/><text fill="#000000" font-family="sans-serif" font-size="20" lengthAdjust="spacing" textLength="74" x="757" y="1447.0117">:System</text><rect fill="#FFFFFF" height="1276.6328" style="stroke:#181818;stroke-width:1.0;" width="10" x="69" y="136.043"/><rect fill="#FFFFFF" height="37.5547" style="stroke:#181818;stroke-width:1.0;" width="10" x="789" y="165.5977"/><rect fill="#FFFFFF" height="37.5547" style="stroke:#181818;stroke-width:1.0;" width="10" x="789" y="240.707"/><rect fill="#FFFFFF" height="37.5547" style="stroke:#181818;stroke-width:1.0;" width="10" x="789" y="315.8164"/><rect fill="#FFFFFF" height="266.5469" style="stroke:#181818;stroke-width:1.0;" width="10" x="789" y="479.1445"/><rect fill="#FFFFFF" height="37.5547" style="stroke:#181818;stroke-width:1.0;" width="10" x="789" y="783.2461"/><rect fill="#FFFFFF" height="37.5547" style="stroke:#181818;stroke-width:1.0;" width="10" x="789" y="858.3555"/><rect fill="#FFFFFF" height="58.5547" style="stroke:#181818;stroke-width:1.0;" width="10" x="789" y="933.4648"/><rect fill="#FFFFFF" height="116.2188" style="stroke:#181818;stroke-width:1.0;" width="10" x="789" y="1029.5742"/><rect fill="#FFFFFF" height="63.1094" style="stroke:#181818;stroke-width:1.0;" width="10" x="789" y="1183.3477"/><rect fill="#FFFFFF" height="44.5547" style="stroke:#181818;stroke-width:1.0;" width="10" x="789" y="1284.0117"/><rect fill="#FFFFFF" height="37.5547" style="stroke:#181818;stroke-width:1.0;" width="10" x="789" y="1366.1211"/><polygon fill="#181818" points="777,161.5977,787,165.5977,777,169.5977,781,165.5977" style="stroke:#181818;stroke-width:1.0;"/><line style="stroke:#181818;stroke-width:1.0;" x1="79" x2="783" y1="165.5977" y2="165.5977"/><text fill="#000000" font-family="sans-serif" font-size="20" font-weight="bold" lengthAdjust="spacing" textLength="13" x="86" y="159.3789">1</text><text fill="#000000" font-family="sans-serif" font-size="20" lengthAdjust="spacing" textLength="271" x="103" y="159.3789">asks to create a new request</text><polygon fill="#181818" points="90,199.1523,80,203.1523,90,207.1523,86,203.1523" style="stroke:#181818;stroke-width:1.0;"/><line style="stroke:#181818;stroke-width:1.0;stroke-dasharray:2.0,2.0;" x1="84" x2="793" y1="203.1523" y2="203.1523"/><text fill="#000000" font-family="sans-serif" font-size="20" font-weight="bold" lengthAdjust="spacing" textLength="13" x="96" y="196.9336">2</text><text fill="#000000" font-family="sans-serif" font-size="20" lengthAdjust="spacing" textLength="244" x="113" y="196.9336">shows type of request list</text><polygon fill="#181818" points="777,236.707,787,240.707,777,244.707,781,240.707" style="stroke:#181818;stroke-width:1.0;"/><line style="stroke:#181818;stroke-width:1.0;" x1="79" x2="783" y1="240.707" y2="240.707"/><text fill="#000000" font-family="sans-serif" font-size="20" font-weight="bold" lengthAdjust="spacing" textLength="13" x="86" y="234.4883">3</text><text fill="#000000" font-family="sans-serif" font-size="20" lengthAdjust="spacing" textLength="215" x="103" y="234.4883">selects type of request</text><polygon fill="#181818" points="90,274.2617,80,278.2617,90,282.2617,86,278.2617" style="stroke:#181818;stroke-width:1.0;"/><line style="stroke:#181818;stroke-width:1.0;stroke-dasharray:2.0,2.0;" x1="84" x2="793" y1="278.2617" y2="278.2617"/><text fill="#000000" font-family="sans-serif" font-size="20" font-weight="bold" lengthAdjust="spacing" textLength="13" x="96" y="272.043">4</text><text fill="#000000" font-family="sans-serif" font-size="20" lengthAdjust="spacing" textLength="254" x="113" y="272.043">shows type of property list</text><polygon fill="#181818" points="777,311.8164,787,315.8164,777,319.8164,781,315.8164" style="stroke:#181818;stroke-width:1.0;"/><line style="stroke:#181818;stroke-width:1.0;" x1="79" x2="783" y1="315.8164" y2="315.8164"/><text fill="#000000" font-family="sans-serif" font-size="20" font-weight="bold" lengthAdjust="spacing" textLength="13" x="86" y="309.5977">5</text><text fill="#000000" font-family="sans-serif" font-size="20" lengthAdjust="spacing" textLength="225" x="103" y="309.5977">selects type of property</text><polygon fill="#181818" points="90,349.3711,80,353.3711,90,357.3711,86,353.3711" style="stroke:#181818;stroke-width:1.0;"/><line style="stroke:#181818;stroke-width:1.0;stroke-dasharray:2.0,2.0;" x1="84" x2="793" y1="353.3711" y2="353.3711"/><text fill="#000000" font-family="sans-serif" font-size="20" font-weight="bold" lengthAdjust="spacing" textLength="13" x="96" y="347.1523">6</text><text fill="#000000" font-family="sans-serif" font-size="20" lengthAdjust="spacing" textLength="120" x="113" y="347.1523">request data</text><path d="M10,368.3711 L89,368.3711 L89,383.9258 L79,393.9258 L10,393.9258 L10,368.3711 " fill="#EEEEEE" style="stroke:#000000;stroke-width:1.5;"/><rect fill="none" height="587.0938" style="stroke:#000000;stroke-width:1.5;" width="858" x="10" y="368.3711"/><text fill="#000000" font-family="sans-serif" font-size="20" font-weight="bold" lengthAdjust="spacing" textLength="34" x="25" y="388.707">opt</text><text fill="#000000" font-family="sans-serif" font-size="20" font-weight="bold" lengthAdjust="spacing" textLength="408" x="104" y="389.707">[Property (land or house or apartment)]</text><polygon fill="#181818" points="777,475.1445,787,479.1445,777,483.1445,781,479.1445" style="stroke:#181818;stroke-width:1.0;"/><line style="stroke:#181818;stroke-width:1.0;" x1="79" x2="783" y1="479.1445" y2="479.1445"/><text fill="#000000" font-family="sans-serif" font-size="20" font-weight="bold" lengthAdjust="spacing" textLength="13" x="86" y="449.3711">7</text><text fill="#000000" font-family="sans-serif" font-size="20" lengthAdjust="spacing" textLength="269" x="103" y="425.8164">the area in m2, the location,</text><text fill="#000000" font-family="sans-serif" font-size="20" lengthAdjust="spacing" textLength="350" x="103" y="449.3711">the distance from the city centre, the</text><text fill="#000000" font-family="sans-serif" font-size="20" lengthAdjust="spacing" textLength="443" x="103" y="472.9258">requested price and one or more photographs</text><path d="M30,494.1445 L121,494.1445 L121,509.6992 L111,519.6992 L30,519.6992 L30,494.1445 " fill="#EEEEEE" style="stroke:#000000;stroke-width:1.5;"/><rect fill="none" height="71.6641" style="stroke:#000000;stroke-width:1.5;" width="818" x="30" y="494.1445"/><text fill="#000000" font-family="sans-serif" font-size="20" font-weight="bold" lengthAdjust="spacing" textLength="46" x="45" y="514.4805">loop</text><text fill="#000000" font-family="sans-serif" font-size="20" font-weight="bold" lengthAdjust="spacing" textLength="85" x="136" y="515.4805">[photos]</text><polygon fill="#181818" points="777,553.8086,787,557.8086,777,561.8086,781,557.8086" style="stroke:#181818;stroke-width:1.0;"/><line style="stroke:#181818;stroke-width:1.0;" x1="79" x2="783" y1="557.8086" y2="557.8086"/><text fill="#000000" font-family="sans-serif" font-size="20" font-weight="bold" lengthAdjust="spacing" textLength="13" x="86" y="551.5898">8</text><text fill="#000000" font-family="sans-serif" font-size="20" lengthAdjust="spacing" textLength="523" x="103" y="551.5898">add photos to the list(more than one and less than 30)</text><path d="M20,579.8086 L99,579.8086 L99,595.3633 L89,605.3633 L20,605.3633 L20,579.8086 " fill="#EEEEEE" style="stroke:#000000;stroke-width:1.5;"/><rect fill="none" height="368.6563" style="stroke:#000000;stroke-width:1.5;" width="838" x="20" y="579.8086"/><text fill="#000000" font-family="sans-serif" font-size="20" font-weight="bold" lengthAdjust="spacing" textLength="34" x="35" y="600.1445">opt</text><text fill="#000000" font-family="sans-serif" font-size="20" font-weight="bold" lengthAdjust="spacing" textLength="221" x="114" y="601.1445">[House or apartment]</text><polygon fill="#181818" points="777,663.0273,787,667.0273,777,671.0273,781,667.0273" style="stroke:#181818;stroke-width:1.0;"/><line style="stroke:#181818;stroke-width:1.0;" x1="79" x2="783" y1="667.0273" y2="667.0273"/><text fill="#000000" font-family="sans-serif" font-size="20" font-weight="bold" lengthAdjust="spacing" textLength="13" x="86" y="649.0313">9</text><text fill="#000000" font-family="sans-serif" font-size="20" lengthAdjust="spacing" textLength="589" x="103" y="637.2539">types of data (numbers of bedrooms, bathrooms and parking</text><text fill="#000000" font-family="sans-serif" font-size="20" lengthAdjust="spacing" textLength="663" x="109" y="660.8086">spaces  and the exisence  of a central heating and/or air conditioning</text><path d="M30,682.0273 L109,682.0273 L109,697.582 L99,707.582 L30,707.582 L30,682.0273 " fill="#EEEEEE" style="stroke:#000000;stroke-width:1.5;"/><rect fill="none" height="259.4375" style="stroke:#000000;stroke-width:1.5;" width="818" x="30" y="682.0273"/><text fill="#000000" font-family="sans-serif" font-size="20" font-weight="bold" lengthAdjust="spacing" textLength="34" x="45" y="702.3633">opt</text><text fill="#000000" font-family="sans-serif" font-size="20" font-weight="bold" lengthAdjust="spacing" textLength="128" x="124" y="703.3633">[only house]</text><polygon fill="#181818" points="90,741.6914,80,745.6914,90,749.6914,86,745.6914" style="stroke:#181818;stroke-width:1.0;"/><line style="stroke:#181818;stroke-width:1.0;stroke-dasharray:2.0,2.0;" x1="84" x2="793" y1="745.6914" y2="745.6914"/><text fill="#000000" font-family="sans-serif" font-size="20" font-weight="bold" lengthAdjust="spacing" textLength="26" x="96" y="739.4727">10</text><text fill="#000000" font-family="sans-serif" font-size="20" lengthAdjust="spacing" textLength="237" x="126" y="739.4727">shows basement options</text><polygon fill="#181818" points="777,779.2461,787,783.2461,777,787.2461,781,783.2461" style="stroke:#181818;stroke-width:1.0;"/><line style="stroke:#181818;stroke-width:1.0;" x1="79" x2="783" y1="783.2461" y2="783.2461"/><text fill="#000000" font-family="sans-serif" font-size="20" font-weight="bold" lengthAdjust="spacing" textLength="26" x="86" y="777.0273">11</text><text fill="#000000" font-family="sans-serif" font-size="20" lengthAdjust="spacing" textLength="133" x="116" y="777.0273">selects option</text><polygon fill="#181818" points="90,816.8008,80,820.8008,90,824.8008,86,820.8008" style="stroke:#181818;stroke-width:1.0;"/><line style="stroke:#181818;stroke-width:1.0;stroke-dasharray:2.0,2.0;" x1="84" x2="793" y1="820.8008" y2="820.8008"/><text fill="#000000" font-family="sans-serif" font-size="20" font-weight="bold" lengthAdjust="spacing" textLength="26" x="96" y="814.582">12</text><text fill="#000000" font-family="sans-serif" font-size="20" lengthAdjust="spacing" textLength="289" x="126" y="814.582">shows inhabitable loft options</text><polygon fill="#181818" points="777,854.3555,787,858.3555,777,862.3555,781,858.3555" style="stroke:#181818;stroke-width:1.0;"/><line style="stroke:#181818;stroke-width:1.0;" x1="79" x2="783" y1="858.3555" y2="858.3555"/><text fill="#000000" font-family="sans-serif" font-size="20" font-weight="bold" lengthAdjust="spacing" textLength="26" x="86" y="852.1367">13</text><text fill="#000000" font-family="sans-serif" font-size="20" lengthAdjust="spacing" textLength="133" x="116" y="852.1367">selects option</text><polygon fill="#181818" points="90,891.9102,80,895.9102,90,899.9102,86,895.9102" style="stroke:#181818;stroke-width:1.0;"/><line style="stroke:#181818;stroke-width:1.0;stroke-dasharray:2.0,2.0;" x1="84" x2="793" y1="895.9102" y2="895.9102"/><text fill="#000000" font-family="sans-serif" font-size="20" font-weight="bold" lengthAdjust="spacing" textLength="26" x="96" y="889.6914">14</text><text fill="#000000" font-family="sans-serif" font-size="20" lengthAdjust="spacing" textLength="229" x="126" y="889.6914">shows sun exposure list</text><polygon fill="#181818" points="777,929.4648,787,933.4648,777,937.4648,781,933.4648" style="stroke:#181818;stroke-width:1.0;"/><line style="stroke:#181818;stroke-width:1.0;" x1="79" x2="783" y1="933.4648" y2="933.4648"/><text fill="#000000" font-family="sans-serif" font-size="20" font-weight="bold" lengthAdjust="spacing" textLength="26" x="86" y="927.2461">15</text><text fill="#000000" font-family="sans-serif" font-size="20" lengthAdjust="spacing" textLength="133" x="116" y="927.2461">selects option</text><polygon fill="#181818" points="90,988.0195,80,992.0195,90,996.0195,86,992.0195" style="stroke:#181818;stroke-width:1.0;"/><line style="stroke:#181818;stroke-width:1.0;stroke-dasharray:2.0,2.0;" x1="84" x2="793" y1="992.0195" y2="992.0195"/><text fill="#000000" font-family="sans-serif" font-size="20" font-weight="bold" lengthAdjust="spacing" textLength="26" x="96" y="985.8008">16</text><text fill="#000000" font-family="sans-serif" font-size="20" lengthAdjust="spacing" textLength="153" x="126" y="985.8008">shows agent list</text><polygon fill="#181818" points="777,1025.5742,787,1029.5742,777,1033.5742,781,1029.5742" style="stroke:#181818;stroke-width:1.0;"/><line style="stroke:#181818;stroke-width:1.0;" x1="79" x2="783" y1="1029.5742" y2="1029.5742"/><text fill="#000000" font-family="sans-serif" font-size="20" font-weight="bold" lengthAdjust="spacing" textLength="26" x="86" y="1023.3555">17</text><text fill="#000000" font-family="sans-serif" font-size="20" lengthAdjust="spacing" textLength="124" x="116" y="1023.3555">selects agent</text><polygon fill="#181818" points="90,1063.1289,80,1067.1289,90,1071.1289,86,1067.1289" style="stroke:#181818;stroke-width:1.0;"/><line style="stroke:#181818;stroke-width:1.0;stroke-dasharray:2.0,2.0;" x1="84" x2="788" y1="1067.1289" y2="1067.1289"/><text fill="#000000" font-family="sans-serif" font-size="20" font-weight="bold" lengthAdjust="spacing" textLength="26" x="96" y="1060.9102">18</text><text fill="#000000" font-family="sans-serif" font-size="20" lengthAdjust="spacing" textLength="384" x="126" y="1060.9102">shows all the data related to the request</text><path d="M30,1082.1289 L102,1082.1289 L102,1097.6836 L92,1107.6836 L30,1107.6836 L30,1082.1289 " fill="#EEEEEE" style="stroke:#000000;stroke-width:1.5;"/><rect fill="none" height="209.8828" style="stroke:#000000;stroke-width:1.5;" width="818" x="30" y="1082.1289"/><text fill="#000000" font-family="sans-serif" font-size="20" font-weight="bold" lengthAdjust="spacing" textLength="27" x="45" y="1102.4648">alt</text><text fill="#000000" font-family="sans-serif" font-size="20" font-weight="bold" lengthAdjust="spacing" textLength="171" x="117" y="1103.4648">[rent a property]</text><polygon fill="#181818" points="90,1141.793,80,1145.793,90,1149.793,86,1145.793" style="stroke:#181818;stroke-width:1.0;"/><line style="stroke:#181818;stroke-width:1.0;stroke-dasharray:2.0,2.0;" x1="84" x2="793" y1="1145.793" y2="1145.793"/><text fill="#000000" font-family="sans-serif" font-size="20" font-weight="bold" lengthAdjust="spacing" textLength="26" x="96" y="1139.5742">19</text><text fill="#000000" font-family="sans-serif" font-size="20" lengthAdjust="spacing" textLength="541" x="126" y="1139.5742">asks for the contract duration and the price (per month))</text><polygon fill="#181818" points="777,1179.3477,787,1183.3477,777,1187.3477,781,1183.3477" style="stroke:#181818;stroke-width:1.0;"/><line style="stroke:#181818;stroke-width:1.0;" x1="79" x2="783" y1="1183.3477" y2="1183.3477"/><text fill="#000000" font-family="sans-serif" font-size="20" font-weight="bold" lengthAdjust="spacing" textLength="26" x="86" y="1177.1289">20</text><text fill="#000000" font-family="sans-serif" font-size="20" lengthAdjust="spacing" textLength="125" x="116" y="1177.1289">submits data</text><line style="stroke:#000000;stroke-width:1.0;stroke-dasharray:2.0,2.0;" x1="30" x2="848" y1="1192.3477" y2="1192.3477"/><text fill="#000000" font-family="sans-serif" font-size="20" font-weight="bold" lengthAdjust="spacing" textLength="166" x="35" y="1211.6836">[sell a property]</text><polygon fill="#181818" points="90,1242.457,80,1246.457,90,1250.457,86,1246.457" style="stroke:#181818;stroke-width:1.0;"/><line style="stroke:#181818;stroke-width:1.0;stroke-dasharray:2.0,2.0;" x1="84" x2="793" y1="1246.457" y2="1246.457"/><text fill="#000000" font-family="sans-serif" font-size="20" font-weight="bold" lengthAdjust="spacing" textLength="26" x="96" y="1240.2383">21</text><text fill="#000000" font-family="sans-serif" font-size="20" lengthAdjust="spacing" textLength="218" x="126" y="1240.2383">asks for property price</text><polygon fill="#181818" points="777,1280.0117,787,1284.0117,777,1288.0117,781,1284.0117" style="stroke:#181818;stroke-width:1.0;"/><line style="stroke:#181818;stroke-width:1.0;" x1="79" x2="783" y1="1284.0117" y2="1284.0117"/><text fill="#000000" font-family="sans-serif" font-size="20" font-weight="bold" lengthAdjust="spacing" textLength="26" x="86" y="1277.793">22</text><text fill="#000000" font-family="sans-serif" font-size="20" lengthAdjust="spacing" textLength="125" x="116" y="1277.793">submits data</text><polygon fill="#181818" points="90,1324.5664,80,1328.5664,90,1332.5664,86,1328.5664" style="stroke:#181818;stroke-width:1.0;"/><line style="stroke:#181818;stroke-width:1.0;stroke-dasharray:2.0,2.0;" x1="84" x2="793" y1="1328.5664" y2="1328.5664"/><text fill="#000000" font-family="sans-serif" font-size="20" font-weight="bold" lengthAdjust="spacing" textLength="26" x="96" y="1322.3477">23</text><text fill="#000000" font-family="sans-serif" font-size="20" lengthAdjust="spacing" textLength="209" x="126" y="1322.3477">shows requested data</text><polygon fill="#181818" points="777,1362.1211,787,1366.1211,777,1370.1211,781,1366.1211" style="stroke:#181818;stroke-width:1.0;"/><line style="stroke:#181818;stroke-width:1.0;" x1="79" x2="783" y1="1366.1211" y2="1366.1211"/><text fill="#000000" font-family="sans-serif" font-size="20" font-weight="bold" lengthAdjust="spacing" textLength="26" x="86" y="1359.9023">24</text><text fill="#000000" font-family="sans-serif" font-size="20" lengthAdjust="spacing" textLength="122" x="116" y="1359.9023">confirm data</text><polygon fill="#181818" points="90,1399.6758,80,1403.6758,90,1407.6758,86,1403.6758" style="stroke:#181818;stroke-width:1.0;"/><line style="stroke:#181818;stroke-width:1.0;stroke-dasharray:2.0,2.0;" x1="84" x2="793" y1="1403.6758" y2="1403.6758"/><text fill="#000000" font-family="sans-serif" font-size="20" font-weight="bold" lengthAdjust="spacing" textLength="26" x="96" y="1397.457">25</text><text fill="#000000" font-family="sans-serif" font-size="20" lengthAdjust="spacing" textLength="236" x="126" y="1397.457">display operation sucess</text><!--SRC=[jLN1Rjim3BtxAuYU4g35YkxMmu01tR1R1-IQ2sqpiH1PqYIwcVVreoGxoHR77HBCW05P9X-Vo4Sgx9HnwB7LjjfH3JLjiDFyrHfUgLy4Juz564sWjSPMZRSj0VkEJluuh7QufHNtci1JnMYs-jGWD5ZRlJ9RsA0EL1IiM4nNVM1gOKK_EZ8LmOl2RJHVh5OlItY0pvh96sJrHl1gn0qxjgPhI_AohjXwk7lT6_9tW06-j4xRdgYGcAmgvT0mt3td8CaYBvEhUaEceqi1yenVyF1ffFOiRhi0RA7o53qG3EtbZC8uSF8wW8teC3m3n8EW7P2V9HLsBu2z8x2R4GYq6j1gciIRf1P8IwxFm6vdvRnrvBdFj6xcDS8Lrp0RCrGZuoKcrZ5y7palD9eQH1gDxGB51KP1j6HucO9DSkP6QYib1cMWVRfFtz8KeZrhxjScVjQI38motKWF98DAIRnAW3qbZxKPs4ehEQ_4D54nYKLhFO5hB5lHk6l2vMHeQrss33EwhEl19gepqHL-YnI56pGfR0olAOIyy_5ncV38r3bdtyuoD5FLMCqGonah0OlSXccZfDfRsuPxA96Rj4oH1LGcm7Pj8CY44EUq6wdIJnLInqTtp2b43OsqM1mIOlOXib8UAcjg5OiW-qLcROtkSt6BzoLTOg1uC11FGGc3ouI8XZ-pYiuWW-LaxUQuADDWgHXB7RMrkP7JtwJcMCssM2ONEYDbSJPqdexZw6BZJvFwjpn5_OtlW7RLk98hnrmvEW_9InWtaT0wIJfrXIUDiVc7ZXm7yZ3uDCkECCRZH7otEFd-sKWtf85ZOwDKCWqxdqRJeQFok5a8QhodkLakZzZdYJaDEotuhcoLfESmTSVd8XB9lJui9RVwoaCURfvqdZyy_-SfJeuHDNc1w5Zouv1Fm7FYc-ObPTmetvwuNz6syJvo6dk86SjY29rCsM6Sd1Fw3G00]--></g></svg>