<?xml version="1.0" encoding="UTF-8" standalone="no"?><svg xmlns="http://www.w3.org/2000/svg" xmlns:xlink="http://www.w3.org/1999/xlink" contentStyleType="text/css" height="989px" preserveAspectRatio="none" style="width:1418px;height:989px;background:#FFFFFF;" version="1.1" viewBox="0 0 1418 989" width="1418px" zoomAndPan="magnify"><defs/><g><text fill="#000000" font-family="sans-serif" font-size="14" font-weight="bold" lengthAdjust="spacing" textLength="356" x="532.5" y="28.5352">User Story 008 - System Sequence Diagram (SSD)</text><rect fill="#FFFFFF" height="756.7578" style="stroke:#181818;stroke-width:1.0;" width="10" x="111" y="136.043"/><rect fill="#FFFFFF" height="70.6641" style="stroke:#181818;stroke-width:1.0;" width="10" x="1346" y="136.043"/><rect fill="#FFFFFF" height="130.2188" style="stroke:#181818;stroke-width:1.0;" width="10" x="1346" y="244.2617"/><rect fill="#FFFFFF" height="37.5547" style="stroke:#181818;stroke-width:1.0;" width="10" x="1346" y="412.0352"/><rect fill="#FFFFFF" height="37.5547" style="stroke:#181818;stroke-width:1.0;" width="10" x="1346" y="487.1445"/><rect fill="#FFFFFF" height="37.5547" style="stroke:#181818;stroke-width:1.0;" width="10" x="1346" y="562.2539"/><rect fill="#FFFFFF" height="78.6641" style="stroke:#181818;stroke-width:1.0;" width="10" x="1346" y="637.3633"/><rect fill="#FFFFFF" height="130.2188" style="stroke:#181818;stroke-width:1.0;" width="10" x="1346" y="753.582"/><rect fill="none" height="194.8828" style="stroke:#000000;stroke-width:1.5;" width="1402" x="10" y="143.043"/><rect fill="none" height="71.6641" style="stroke:#000000;stroke-width:1.5;" width="1382" x="20" y="259.2617"/><rect fill="none" height="194.8828" style="stroke:#000000;stroke-width:1.5;" width="1402" x="10" y="652.3633"/><rect fill="none" height="71.6641" style="stroke:#000000;stroke-width:1.5;" width="1382" x="20" y="768.582"/><line style="stroke:#181818;stroke-width:0.5;stroke-dasharray:5.0,5.0;" x1="116" x2="116" y1="126.043" y2="901.8008"/><line style="stroke:#181818;stroke-width:0.5;stroke-dasharray:5.0,5.0;" x1="1351" x2="1351" y1="126.043" y2="901.8008"/><text fill="#000000" font-family="sans-serif" font-size="20" lengthAdjust="spacing" textLength="166" x="30" y="121.8242">Real Estate Agent</text><ellipse cx="116" cy="50.9883" fill="#E3E3E3" rx="8" ry="8" style="stroke:#181818;stroke-width:0.5;"/><path d="M116,58.9883 L116,85.9883 M103,66.9883 L129,66.9883 M116,85.9883 L103,100.9883 M116,85.9883 L129,100.9883 " fill="none" style="stroke:#181818;stroke-width:0.5;"/><text fill="#000000" font-family="sans-serif" font-size="20" lengthAdjust="spacing" textLength="166" x="30" y="920.1367">Real Estate Agent</text><ellipse cx="116" cy="932.8555" fill="#E3E3E3" rx="8" ry="8" style="stroke:#181818;stroke-width:0.5;"/><path d="M116,940.8555 L116,967.8555 M103,948.8555 L129,948.8555 M116,967.8555 L103,982.8555 M116,967.8555 L129,982.8555 " fill="none" style="stroke:#181818;stroke-width:0.5;"/><rect fill="#E3E3E3" height="37.5547" rx="2.5" ry="2.5" style="stroke:#181818;stroke-width:0.5;" width="82" x="1310" y="87.4883"/><text fill="#000000" font-family="sans-serif" font-size="20" lengthAdjust="spacing" textLength="68" x="1317" y="113.8242">System</text><rect fill="#E3E3E3" height="37.5547" rx="2.5" ry="2.5" style="stroke:#181818;stroke-width:0.5;" width="82" x="1310" y="900.8008"/><text fill="#000000" font-family="sans-serif" font-size="20" lengthAdjust="spacing" textLength="68" x="1317" y="927.1367">System</text><rect fill="#FFFFFF" height="756.7578" style="stroke:#181818;stroke-width:1.0;" width="10" x="111" y="136.043"/><rect fill="#FFFFFF" height="70.6641" style="stroke:#181818;stroke-width:1.0;" width="10" x="1346" y="136.043"/><rect fill="#FFFFFF" height="130.2188" style="stroke:#181818;stroke-width:1.0;" width="10" x="1346" y="244.2617"/><rect fill="#FFFFFF" height="37.5547" style="stroke:#181818;stroke-width:1.0;" width="10" x="1346" y="412.0352"/><rect fill="#FFFFFF" height="37.5547" style="stroke:#181818;stroke-width:1.0;" width="10" x="1346" y="487.1445"/><rect fill="#FFFFFF" height="37.5547" style="stroke:#181818;stroke-width:1.0;" width="10" x="1346" y="562.2539"/><rect fill="#FFFFFF" height="78.6641" style="stroke:#181818;stroke-width:1.0;" width="10" x="1346" y="637.3633"/><rect fill="#FFFFFF" height="130.2188" style="stroke:#181818;stroke-width:1.0;" width="10" x="1346" y="753.582"/><path d="M10,143.043 L101,143.043 L101,158.5977 L91,168.5977 L10,168.5977 L10,143.043 " fill="#EEEEEE" style="stroke:#000000;stroke-width:1.5;"/><rect fill="none" height="194.8828" style="stroke:#000000;stroke-width:1.5;" width="1402" x="10" y="143.043"/><text fill="#000000" font-family="sans-serif" font-size="20" font-weight="bold" lengthAdjust="spacing" textLength="46" x="25" y="163.3789">loop</text><text fill="#000000" font-family="sans-serif" font-size="20" font-weight="bold" lengthAdjust="spacing" textLength="314" x="116" y="164.3789">[While login data is  not valid]</text><polygon fill="#181818" points="132,202.707,122,206.707,132,210.707,128,206.707" style="stroke:#181818;stroke-width:1.0;"/><line style="stroke:#181818;stroke-width:1.0;stroke-dasharray:2.0,2.0;" x1="126" x2="1350" y1="206.707" y2="206.707"/><text fill="#000000" font-family="sans-serif" font-size="20" font-weight="bold" lengthAdjust="spacing" textLength="13" x="138" y="200.4883">1</text><text fill="#000000" font-family="sans-serif" font-size="20" lengthAdjust="spacing" textLength="136" x="155" y="200.4883">requests login</text><polygon fill="#181818" points="1334,240.2617,1344,244.2617,1334,248.2617,1338,244.2617" style="stroke:#181818;stroke-width:1.0;"/><line style="stroke:#181818;stroke-width:1.0;" x1="121" x2="1340" y1="244.2617" y2="244.2617"/><text fill="#000000" font-family="sans-serif" font-size="20" font-weight="bold" lengthAdjust="spacing" textLength="13" x="128" y="238.043">2</text><text fill="#000000" font-family="sans-serif" font-size="20" lengthAdjust="spacing" textLength="384" x="145" y="238.043">inserts loign data (id/email , password )</text><path d="M20,259.2617 L92,259.2617 L92,274.8164 L82,284.8164 L20,284.8164 L20,259.2617 " fill="#EEEEEE" style="stroke:#000000;stroke-width:1.5;"/><rect fill="none" height="71.6641" style="stroke:#000000;stroke-width:1.5;" width="1382" x="20" y="259.2617"/><text fill="#000000" font-family="sans-serif" font-size="20" font-weight="bold" lengthAdjust="spacing" textLength="27" x="35" y="279.5977">alt</text><text fill="#000000" font-family="sans-serif" font-size="20" font-weight="bold" lengthAdjust="spacing" textLength="191" x="107" y="280.5977">[login is not valid]</text><polygon fill="#181818" points="132,318.9258,122,322.9258,132,326.9258,128,322.9258" style="stroke:#181818;stroke-width:1.0;"/><line style="stroke:#181818;stroke-width:1.0;stroke-dasharray:2.0,2.0;" x1="126" x2="1345" y1="322.9258" y2="322.9258"/><text fill="#000000" font-family="sans-serif" font-size="20" font-weight="bold" lengthAdjust="spacing" textLength="13" x="138" y="316.707">3</text><text fill="#000000" font-family="sans-serif" font-size="20" lengthAdjust="spacing" textLength="222" x="155" y="316.707">displays error message</text><polygon fill="#181818" points="132,370.4805,122,374.4805,132,378.4805,128,374.4805" style="stroke:#181818;stroke-width:1.0;"/><line style="stroke:#181818;stroke-width:1.0;stroke-dasharray:2.0,2.0;" x1="126" x2="1350" y1="374.4805" y2="374.4805"/><text fill="#000000" font-family="sans-serif" font-size="20" font-weight="bold" lengthAdjust="spacing" textLength="13" x="138" y="368.2617">4</text><text fill="#000000" font-family="sans-serif" font-size="20" lengthAdjust="spacing" textLength="198" x="155" y="368.2617">displays agent menu</text><polygon fill="#181818" points="1334,408.0352,1344,412.0352,1334,416.0352,1338,412.0352" style="stroke:#181818;stroke-width:1.0;"/><line style="stroke:#181818;stroke-width:1.0;" x1="121" x2="1340" y1="412.0352" y2="412.0352"/><text fill="#000000" font-family="sans-serif" font-size="20" font-weight="bold" lengthAdjust="spacing" textLength="13" x="128" y="405.8164">5</text><text fill="#000000" font-family="sans-serif" font-size="20" lengthAdjust="spacing" textLength="440" x="145" y="405.8164">selects to see property announcment requests</text><polygon fill="#181818" points="132,445.5898,122,449.5898,132,453.5898,128,449.5898" style="stroke:#181818;stroke-width:1.0;"/><line style="stroke:#181818;stroke-width:1.0;stroke-dasharray:2.0,2.0;" x1="126" x2="1350" y1="449.5898" y2="449.5898"/><text fill="#000000" font-family="sans-serif" font-size="20" font-weight="bold" lengthAdjust="spacing" textLength="13" x="138" y="443.3711">6</text><text fill="#000000" font-family="sans-serif" font-size="20" lengthAdjust="spacing" textLength="1184" x="155" y="443.3711">displays the announcments request list (sorted by the date they were created, with the most recent requests appearing first)</text><polygon fill="#181818" points="1334,483.1445,1344,487.1445,1334,491.1445,1338,487.1445" style="stroke:#181818;stroke-width:1.0;"/><line style="stroke:#181818;stroke-width:1.0;" x1="121" x2="1340" y1="487.1445" y2="487.1445"/><text fill="#000000" font-family="sans-serif" font-size="20" font-weight="bold" lengthAdjust="spacing" textLength="13" x="128" y="480.9258">7</text><text fill="#000000" font-family="sans-serif" font-size="20" lengthAdjust="spacing" textLength="384" x="145" y="480.9258">selects a property announcment request</text><polygon fill="#181818" points="132,520.6992,122,524.6992,132,528.6992,128,524.6992" style="stroke:#181818;stroke-width:1.0;"/><line style="stroke:#181818;stroke-width:1.0;stroke-dasharray:2.0,2.0;" x1="126" x2="1350" y1="524.6992" y2="524.6992"/><text fill="#000000" font-family="sans-serif" font-size="20" font-weight="bold" lengthAdjust="spacing" textLength="13" x="138" y="518.4805">8</text><text fill="#000000" font-family="sans-serif" font-size="20" lengthAdjust="spacing" textLength="266" x="155" y="518.4805">asks for request acceptance</text><polygon fill="#181818" points="1334,558.2539,1344,562.2539,1334,566.2539,1338,562.2539" style="stroke:#181818;stroke-width:1.0;"/><line style="stroke:#181818;stroke-width:1.0;" x1="121" x2="1340" y1="562.2539" y2="562.2539"/><text fill="#000000" font-family="sans-serif" font-size="20" font-weight="bold" lengthAdjust="spacing" textLength="13" x="128" y="556.0352">9</text><text fill="#000000" font-family="sans-serif" font-size="20" lengthAdjust="spacing" textLength="150" x="145" y="556.0352">accepts request</text><polygon fill="#181818" points="132,595.8086,122,599.8086,132,603.8086,128,599.8086" style="stroke:#181818;stroke-width:1.0;"/><line style="stroke:#181818;stroke-width:1.0;stroke-dasharray:2.0,2.0;" x1="126" x2="1350" y1="599.8086" y2="599.8086"/><text fill="#000000" font-family="sans-serif" font-size="20" font-weight="bold" lengthAdjust="spacing" textLength="26" x="138" y="593.5898">10</text><text fill="#000000" font-family="sans-serif" font-size="20" lengthAdjust="spacing" textLength="497" x="168" y="593.5898">Asks for the type of comission (fixed or percentage)</text><polygon fill="#181818" points="1334,633.3633,1344,637.3633,1334,641.3633,1338,637.3633" style="stroke:#181818;stroke-width:1.0;"/><line style="stroke:#181818;stroke-width:1.0;" x1="121" x2="1340" y1="637.3633" y2="637.3633"/><text fill="#000000" font-family="sans-serif" font-size="20" font-weight="bold" lengthAdjust="spacing" textLength="26" x="128" y="631.1445">11</text><text fill="#000000" font-family="sans-serif" font-size="20" lengthAdjust="spacing" textLength="282" x="158" y="631.1445">selects the type of comission.</text><path d="M10,652.3633 L101,652.3633 L101,667.918 L91,677.918 L10,677.918 L10,652.3633 " fill="#EEEEEE" style="stroke:#000000;stroke-width:1.5;"/><rect fill="none" height="194.8828" style="stroke:#000000;stroke-width:1.5;" width="1402" x="10" y="652.3633"/><text fill="#000000" font-family="sans-serif" font-size="20" font-weight="bold" lengthAdjust="spacing" textLength="46" x="25" y="672.6992">loop</text><text fill="#000000" font-family="sans-serif" font-size="20" font-weight="bold" lengthAdjust="spacing" textLength="307" x="116" y="673.6992">[While comission is not valid]</text><polygon fill="#181818" points="132,712.0273,122,716.0273,132,720.0273,128,716.0273" style="stroke:#181818;stroke-width:1.0;"/><line style="stroke:#181818;stroke-width:1.0;stroke-dasharray:2.0,2.0;" x1="126" x2="1350" y1="716.0273" y2="716.0273"/><text fill="#000000" font-family="sans-serif" font-size="20" font-weight="bold" lengthAdjust="spacing" textLength="26" x="138" y="709.8086">12</text><text fill="#000000" font-family="sans-serif" font-size="20" lengthAdjust="spacing" textLength="240" x="168" y="709.8086">Asks to insert comission.</text><polygon fill="#181818" points="1334,749.582,1344,753.582,1334,757.582,1338,753.582" style="stroke:#181818;stroke-width:1.0;"/><line style="stroke:#181818;stroke-width:1.0;" x1="121" x2="1340" y1="753.582" y2="753.582"/><text fill="#000000" font-family="sans-serif" font-size="20" font-weight="bold" lengthAdjust="spacing" textLength="26" x="128" y="747.3633">13</text><text fill="#000000" font-family="sans-serif" font-size="20" lengthAdjust="spacing" textLength="173" x="158" y="747.3633">inserts comission.</text><path d="M20,768.582 L92,768.582 L92,784.1367 L82,794.1367 L20,794.1367 L20,768.582 " fill="#EEEEEE" style="stroke:#000000;stroke-width:1.5;"/><rect fill="none" height="71.6641" style="stroke:#000000;stroke-width:1.5;" width="1382" x="20" y="768.582"/><text fill="#000000" font-family="sans-serif" font-size="20" font-weight="bold" lengthAdjust="spacing" textLength="27" x="35" y="788.918">alt</text><text fill="#000000" font-family="sans-serif" font-size="20" font-weight="bold" lengthAdjust="spacing" textLength="191" x="107" y="789.918">[login is not valid]</text><polygon fill="#181818" points="132,828.2461,122,832.2461,132,836.2461,128,832.2461" style="stroke:#181818;stroke-width:1.0;"/><line style="stroke:#181818;stroke-width:1.0;stroke-dasharray:2.0,2.0;" x1="126" x2="1345" y1="832.2461" y2="832.2461"/><text fill="#000000" font-family="sans-serif" font-size="20" font-weight="bold" lengthAdjust="spacing" textLength="26" x="138" y="826.0273">14</text><text fill="#000000" font-family="sans-serif" font-size="20" lengthAdjust="spacing" textLength="222" x="168" y="826.0273">displays error message</text><polygon fill="#181818" points="132,879.8008,122,883.8008,132,887.8008,128,883.8008" style="stroke:#181818;stroke-width:1.0;"/><line style="stroke:#181818;stroke-width:1.0;stroke-dasharray:2.0,2.0;" x1="126" x2="1350" y1="883.8008" y2="883.8008"/><text fill="#000000" font-family="sans-serif" font-size="20" font-weight="bold" lengthAdjust="spacing" textLength="26" x="138" y="877.582">15</text><text fill="#000000" font-family="sans-serif" font-size="20" lengthAdjust="spacing" textLength="535" x="168" y="877.582">informs the agent the announcment has been published</text><!--SRC=[ZLHDRzim3BthLn0zfK2x5JiDEGmeqEq7p1XsPYJ65Y9BdaWtytxzwA_4JPss1XBB5ldu7iLdFlZOOCOw97iW1uxss0RvaQ8K_X_1bmV3SmZKAIPRvLGJI6vfiTEWFM19XNI189CLZ6LO1d25BXrzB66FWSaOyQAXlvWo599o1myFN-4UYew5QYZeJqlH4ZnvBFlyJL4ytHfZi9KKstf7sVHFLbFXvYTXWEyiA0IF9KMv0UHnPRIyUEiRZ08t8_gmEoud4FzyIZq_JX4XfGP-LrxPXbJw20u5mJD0J0BF6BmpPg9zV_zjH86jTa4biF2OPHnT0e-1cZ4bRy57RSUGuSkfpiQxprIZ3t2dJMO-fkpWrc2GYOqIEVEuBB52otbk0dOCbBFshYPcFJXZABhXzox60W87p9fYko9lHHzJqD5WaAHBWYQdHlLsW36cDjgwZv_RPbup0RtUO2CLBP5uXeBWzM_3AOiE-AuR0bsFguiEZfG9R2PzuUxWwAKQ0kh4FHcxv0JOD8Hvc6AVMMu7IYlIX_VNzUERqiViLvXdzGlno0U6lPxZh1MjfKRTPsb8M24tCpiHsqv9fuQPbV9hdN-SY_VzaguXI7kmgVRCFaNOxFrVRRZkgzI-ZpekVSS-HEaqAclGdzOPmiAgPnel309NTUXCZlQxABFAzl9ijt3oxijik69KM1S07pTi7ztxTRwRSUe-y0NmKS-idlmolBjm3bJwVTmHHMZQdPgd8hVcxzFr7m00]--></g></svg>