<?xml version="1.0" encoding="us-ascii" standalone="no"?><svg xmlns="http://www.w3.org/2000/svg" xmlns:xlink="http://www.w3.org/1999/xlink" contentStyleType="text/css" height="1282px" preserveAspectRatio="none" style="width:1117px;height:1282px;background:#FFFFFF;" version="1.1" viewBox="0 0 1117 1282" width="1117px" zoomAndPan="magnify"><defs/><g><text fill="#000000" font-family="sans-serif" font-size="14" font-weight="bold" lengthAdjust="spacing" textLength="100" x="501.5" y="25.1074">Domain Model</text><!--class Employee--><g id="elem_Employee"><rect codeLine="13" fill="#F1F1F1" height="166.9688" id="Employee" rx="2.5" ry="2.5" style="stroke:#181818;stroke-width:0.5;" width="143" x="728.5" y="389.6211"/><text fill="#000000" font-family="sans-serif" font-size="14" lengthAdjust="spacing" textLength="62" x="769" y="409.7285">Employee</text><line style="stroke:#181818;stroke-width:0.5;" x1="729.5" x2="870.5" y1="418.2422" y2="418.2422"/><text fill="#000000" font-family="sans-serif" font-size="14" lengthAdjust="spacing" textLength="35" x="734.5" y="437.3496">name</text><text fill="#000000" font-family="sans-serif" font-size="14" lengthAdjust="spacing" textLength="131" x="734.5" y="455.9707">citizen_card_number</text><text fill="#000000" font-family="sans-serif" font-size="14" lengthAdjust="spacing" textLength="74" x="734.5" y="474.5918">tax_number</text><text fill="#000000" font-family="sans-serif" font-size="14" lengthAdjust="spacing" textLength="51" x="734.5" y="493.2129">address</text><text fill="#000000" font-family="sans-serif" font-size="14" lengthAdjust="spacing" textLength="92" x="734.5" y="511.834">email_address</text><text fill="#000000" font-family="sans-serif" font-size="14" lengthAdjust="spacing" textLength="46" x="734.5" y="530.4551">contact</text><text fill="#000000" font-family="sans-serif" font-size="14" lengthAdjust="spacing" textLength="90" x="734.5" y="549.0762">employeeRole</text></g><!--class SystemAdministrator--><g id="elem_SystemAdministrator"><rect codeLine="23" fill="#F1F1F1" height="36.6211" id="SystemAdministrator" rx="2.5" ry="2.5" style="stroke:#181818;stroke-width:0.5;" width="135" x="625.5" y="227.1211"/><text fill="#000000" font-family="sans-serif" font-size="14" lengthAdjust="spacing" textLength="129" x="628.5" y="247.2285">SystemAdministrator</text><line style="stroke:#181818;stroke-width:0.5;" x1="626.5" x2="759.5" y1="255.7422" y2="255.7422"/></g><!--class EmployeeRole--><g id="elem_EmployeeRole"><rect codeLine="26" fill="#F1F1F1" height="55.2422" id="EmployeeRole" rx="2.5" ry="2.5" style="stroke:#181818;stroke-width:0.5;" width="97" x="607.5" y="682.1211"/><text fill="#000000" font-family="sans-serif" font-size="14" lengthAdjust="spacing" textLength="91" x="610.5" y="702.2285">EmployeeRole</text><line style="stroke:#181818;stroke-width:0.5;" x1="608.5" x2="703.5" y1="710.7422" y2="710.7422"/><text fill="#000000" font-family="sans-serif" font-size="14" lengthAdjust="spacing" textLength="69" x="613.5" y="729.8496">description</text></g><!--class Company--><g id="elem_Company"><rect codeLine="30" fill="#F1F1F1" height="55.2422" id="Company" rx="2.5" ry="2.5" style="stroke:#181818;stroke-width:0.5;" width="81" x="856.5" y="46.6211"/><text fill="#000000" font-family="sans-serif" font-size="14" lengthAdjust="spacing" textLength="60" x="867" y="66.7285">Company</text><line style="stroke:#181818;stroke-width:0.5;" x1="857.5" x2="936.5" y1="75.2422" y2="75.2422"/><text fill="#000000" font-family="sans-serif" font-size="14" lengthAdjust="spacing" textLength="69" x="862.5" y="94.3496">description</text></g><!--class Agency--><g id="elem_Agency"><rect codeLine="34" fill="#F1F1F1" height="148.3477" id="Agency" rx="2.5" ry="2.5" style="stroke:#181818;stroke-width:0.5;" width="108" x="926" y="635.6211"/><text fill="#000000" font-family="sans-serif" font-size="14" lengthAdjust="spacing" textLength="47" x="956.5" y="655.7285">Agency</text><line style="stroke:#181818;stroke-width:0.5;" x1="927" x2="1033" y1="664.2422" y2="664.2422"/><text fill="#000000" font-family="sans-serif" font-size="14" lengthAdjust="spacing" textLength="13" x="932" y="683.3496">ID</text><text fill="#000000" font-family="sans-serif" font-size="14" lengthAdjust="spacing" textLength="73" x="932" y="701.9707">designation</text><text fill="#000000" font-family="sans-serif" font-size="14" lengthAdjust="spacing" textLength="49" x="932" y="720.5918">location</text><text fill="#000000" font-family="sans-serif" font-size="14" lengthAdjust="spacing" textLength="93" x="932" y="739.2129">local_manager</text><text fill="#000000" font-family="sans-serif" font-size="14" lengthAdjust="spacing" textLength="96" x="932" y="757.834">phone_number</text><text fill="#000000" font-family="sans-serif" font-size="14" lengthAdjust="spacing" textLength="33" x="932" y="776.4551">email</text></g><!--class User--><g id="elem_User"><rect codeLine="43" fill="#F1F1F1" height="92.4844" id="User" rx="2.5" ry="2.5" style="stroke:#181818;stroke-width:0.5;" width="72" x="766" y="1136.6211"/><text fill="#000000" font-family="sans-serif" font-size="14" lengthAdjust="spacing" textLength="29" x="787.5" y="1156.7285">User</text><line style="stroke:#181818;stroke-width:0.5;" x1="767" x2="837" y1="1165.2422" y2="1165.2422"/><text fill="#000000" font-family="sans-serif" font-size="14" lengthAdjust="spacing" textLength="35" x="772" y="1184.3496">name</text><text fill="#000000" font-family="sans-serif" font-size="14" lengthAdjust="spacing" textLength="33" x="772" y="1202.9707">email</text><text fill="#000000" font-family="sans-serif" font-size="14" lengthAdjust="spacing" textLength="60" x="772" y="1221.5918">password</text></g><!--class Store--><g id="elem_Store"><rect codeLine="49" fill="#F1F1F1" height="129.7266" id="Store" rx="2.5" ry="2.5" style="stroke:#181818;stroke-width:0.5;" width="108" x="988" y="180.6211"/><text fill="#000000" font-family="sans-serif" font-size="14" lengthAdjust="spacing" textLength="34" x="1025" y="200.7285">Store</text><line style="stroke:#181818;stroke-width:0.5;" x1="989" x2="1095" y1="209.2422" y2="209.2422"/><text fill="#000000" font-family="sans-serif" font-size="14" lengthAdjust="spacing" textLength="11" x="994" y="228.3496">id</text><text fill="#000000" font-family="sans-serif" font-size="14" lengthAdjust="spacing" textLength="73" x="994" y="246.9707">designation</text><text fill="#000000" font-family="sans-serif" font-size="14" lengthAdjust="spacing" textLength="49" x="994" y="265.5918">location</text><text fill="#000000" font-family="sans-serif" font-size="14" lengthAdjust="spacing" textLength="92" x="994" y="284.2129">email_address</text><text fill="#000000" font-family="sans-serif" font-size="14" lengthAdjust="spacing" textLength="96" x="994" y="302.834">phone_number</text></g><!--class Property--><g id="elem_Property"><rect codeLine="57" fill="#F1F1F1" height="148.3477" id="Property" rx="2.5" ry="2.5" style="stroke:#181818;stroke-width:0.5;" width="206" x="280" y="862.6211"/><text fill="#000000" font-family="sans-serif" font-size="14" lengthAdjust="spacing" textLength="54" x="356" y="882.7285">Property</text><line style="stroke:#181818;stroke-width:0.5;" x1="281" x2="485" y1="891.2422" y2="891.2422"/><text fill="#000000" font-family="sans-serif" font-size="14" lengthAdjust="spacing" textLength="27" x="286" y="910.3496">type</text><text fill="#000000" font-family="sans-serif" font-size="14" lengthAdjust="spacing" textLength="29" x="286" y="928.9707">area</text><text fill="#000000" font-family="sans-serif" font-size="14" lengthAdjust="spacing" textLength="49" x="286" y="947.5918">location</text><text fill="#000000" font-family="sans-serif" font-size="14" lengthAdjust="spacing" textLength="194" x="286" y="966.2129">distance_from_the_city_centre</text><text fill="#000000" font-family="sans-serif" font-size="14" lengthAdjust="spacing" textLength="103" x="286" y="984.834">requested_price</text><text fill="#000000" font-family="sans-serif" font-size="14" lengthAdjust="spacing" textLength="43" x="286" y="1003.4551">photos</text></g><!--class Announcement--><g id="elem_Announcement"><rect codeLine="66" fill="#F1F1F1" height="73.8633" id="Announcement" rx="2.5" ry="2.5" style="stroke:#181818;stroke-width:0.5;" width="101" x="918.5" y="1145.6211"/><text fill="#000000" font-family="sans-serif" font-size="14" lengthAdjust="spacing" textLength="95" x="921.5" y="1165.7285">Announcement</text><line style="stroke:#181818;stroke-width:0.5;" x1="919.5" x2="1018.5" y1="1174.2422" y2="1174.2422"/><text fill="#000000" font-family="sans-serif" font-size="14" lengthAdjust="spacing" textLength="69" x="924.5" y="1193.3496">description</text><text fill="#000000" font-family="sans-serif" font-size="14" lengthAdjust="spacing" textLength="62" x="924.5" y="1211.9707">comission</text></g><!--class Apartment--><g id="elem_Apartment"><rect codeLine="71" fill="#F1F1F1" height="129.7266" id="Apartment" rx="2.5" ry="2.5" style="stroke:#181818;stroke-width:0.5;" width="199" x="323.5" y="1117.6211"/><text fill="#000000" font-family="sans-serif" font-size="14" lengthAdjust="spacing" textLength="65" x="390.5" y="1137.7285">Apartment</text><line style="stroke:#181818;stroke-width:0.5;" x1="324.5" x2="521.5" y1="1146.2422" y2="1146.2422"/><text fill="#000000" font-family="sans-serif" font-size="14" lengthAdjust="spacing" textLength="139" x="329.5" y="1165.3496">number_of_bedrooms</text><text fill="#000000" font-family="sans-serif" font-size="14" lengthAdjust="spacing" textLength="143" x="329.5" y="1183.9707">number_of_bathrooms</text><text fill="#000000" font-family="sans-serif" font-size="14" lengthAdjust="spacing" textLength="176" x="329.5" y="1202.5918">number_of_parking_spaces</text><text fill="#000000" font-family="sans-serif" font-size="14" lengthAdjust="spacing" textLength="185" x="329.5" y="1221.2129">existence_of_central_heating</text><text fill="#000000" font-family="sans-serif" font-size="14" lengthAdjust="spacing" textLength="187" x="329.5" y="1239.834">existence_of_air_conditioning</text></g><!--class House--><g id="elem_House"><rect codeLine="79" fill="#F1F1F1" height="185.5898" id="House" rx="2.5" ry="2.5" style="stroke:#181818;stroke-width:0.5;" width="219" x="69.5" y="1089.6211"/><text fill="#000000" font-family="sans-serif" font-size="14" lengthAdjust="spacing" textLength="40" x="159" y="1109.7285">House</text><line style="stroke:#181818;stroke-width:0.5;" x1="70.5" x2="287.5" y1="1118.2422" y2="1118.2422"/><text fill="#000000" font-family="sans-serif" font-size="14" lengthAdjust="spacing" textLength="139" x="75.5" y="1137.3496">number_of_bedrooms</text><text fill="#000000" font-family="sans-serif" font-size="14" lengthAdjust="spacing" textLength="143" x="75.5" y="1155.9707">number_of_bathrooms</text><text fill="#000000" font-family="sans-serif" font-size="14" lengthAdjust="spacing" textLength="172" x="75.5" y="1174.5918">number_of_parking spaces</text><text fill="#000000" font-family="sans-serif" font-size="14" lengthAdjust="spacing" textLength="181" x="75.5" y="1193.2129">existence_of_central heating</text><text fill="#000000" font-family="sans-serif" font-size="14" lengthAdjust="spacing" textLength="187" x="75.5" y="1211.834">existence_of_air_conditioning</text><text fill="#000000" font-family="sans-serif" font-size="14" lengthAdjust="spacing" textLength="165" x="75.5" y="1230.4551">existence_of_a_basement</text><text fill="#000000" font-family="sans-serif" font-size="14" lengthAdjust="spacing" textLength="207" x="75.5" y="1249.0762">existence_of_an_inhabitable_loft</text><text fill="#000000" font-family="sans-serif" font-size="14" lengthAdjust="spacing" textLength="176" x="75.5" y="1267.6973">existence_of_sun_exposure</text></g><!--class Database--><g id="elem_Database"><rect codeLine="90" fill="#F1F1F1" height="73.8633" id="Database" rx="2.5" ry="2.5" style="stroke:#181818;stroke-width:0.5;" width="104" x="69" y="899.6211"/><text fill="#000000" font-family="sans-serif" font-size="14" lengthAdjust="spacing" textLength="61" x="90.5" y="919.7285">Database</text><line style="stroke:#181818;stroke-width:0.5;" x1="70" x2="172" y1="928.2422" y2="928.2422"/><text fill="#000000" font-family="sans-serif" font-size="14" lengthAdjust="spacing" textLength="92" x="75" y="947.3496">proprety_table</text><text fill="#000000" font-family="sans-serif" font-size="14" lengthAdjust="spacing" textLength="67" x="75" y="965.9707">user_table</text></g><!--class UnregisteredUser--><g id="elem_UnregisteredUser"><rect fill="#F1F1F1" height="36.6211" id="UnregisteredUser" rx="2.5" ry="2.5" style="stroke:#181818;stroke-width:0.5;" width="116" x="7" y="691.1211"/><text fill="#000000" font-family="sans-serif" font-size="14" lengthAdjust="spacing" textLength="110" x="10" y="711.2285">UnregisteredUser</text><line style="stroke:#181818;stroke-width:0.5;" x1="8" x2="122" y1="719.7422" y2="719.7422"/></g><!--class PropertyController--><g id="elem_PropertyController"><rect fill="#F1F1F1" height="36.6211" id="PropertyController" rx="2.5" ry="2.5" style="stroke:#181818;stroke-width:0.5;" width="122" x="216" y="691.1211"/><text fill="#000000" font-family="sans-serif" font-size="14" lengthAdjust="spacing" textLength="116" x="219" y="711.2285">PropertyController</text><line style="stroke:#181818;stroke-width:0.5;" x1="217" x2="337" y1="719.7422" y2="719.7422"/></g><!--class Agent--><g id="elem_Agent"><rect fill="#F1F1F1" height="36.6211" id="Agent" rx="2.5" ry="2.5" style="stroke:#181818;stroke-width:0.5;" width="43" x="927.5" y="918.1211"/><text fill="#000000" font-family="sans-serif" font-size="14" lengthAdjust="spacing" textLength="37" x="930.5" y="938.2285">Agent</text><line style="stroke:#181818;stroke-width:0.5;" x1="928.5" x2="969.5" y1="946.7422" y2="946.7422"/></g><!--class Owner--><g id="elem_Owner"><rect fill="#F1F1F1" height="36.6211" id="Owner" rx="2.5" ry="2.5" style="stroke:#181818;stroke-width:0.5;" width="47" x="822.5" y="691.1211"/><text fill="#000000" font-family="sans-serif" font-size="14" lengthAdjust="spacing" textLength="41" x="825.5" y="711.2285">Owner</text><line style="stroke:#181818;stroke-width:0.5;" x1="823.5" x2="868.5" y1="719.7422" y2="719.7422"/></g><!--class StoreManager--><g id="elem_StoreManager"><rect fill="#F1F1F1" height="36.6211" id="StoreManager" rx="2.5" ry="2.5" style="stroke:#181818;stroke-width:0.5;" width="96" x="994" y="55.6211"/><text fill="#000000" font-family="sans-serif" font-size="14" lengthAdjust="spacing" textLength="90" x="997" y="75.7285">StoreManager</text><line style="stroke:#181818;stroke-width:0.5;" x1="995" x2="1089" y1="84.2422" y2="84.2422"/></g><!--link UnregisteredUser to PropertyController--><g id="link_UnregisteredUser_PropertyController"><path codeLine="95" d="M123.21,709.6211 C152.02,709.6211 186.78,709.6211 215.96,709.6211 " fill="none" id="UnregisteredUser-PropertyController" style="stroke:#181818;stroke-width:1.0;"/><polygon fill="#000000" points="150.5,697.2666,141.4549,694.3277,141.4549,700.2055,150.5,697.2666" style="stroke:#000000;stroke-width:1.0;"/><text fill="#000000" font-family="sans-serif" font-size="13" lengthAdjust="spacing" textLength="43" x="154.5" y="702.6494">request</text><text fill="#000000" font-family="sans-serif" font-size="13" lengthAdjust="spacing" textLength="7" x="131.1166" y="705.6033">1</text><text fill="#000000" font-family="sans-serif" font-size="13" lengthAdjust="spacing" textLength="20" x="188.19" y="724.6157">0..*</text></g><!--link PropertyController to Database--><g id="link_PropertyController_Database"><path codeLine="96" d="M274.38,728.4711 C270.06,753.4511 259.66,799.4911 238,832.6211 C221.04,858.5511 195.85,881.8911 173.18,899.7711 " fill="none" id="PropertyController-Database" style="stroke:#181818;stroke-width:1.0;"/><polygon fill="#000000" points="251.4568,827.5715,258.5879,821.2787,253.5272,818.289,251.4568,827.5715" style="stroke:#000000;stroke-width:1.0;"/><text fill="#000000" font-family="sans-serif" font-size="13" lengthAdjust="spacing" textLength="43" x="263" y="828.6494">request</text><text fill="#000000" font-family="sans-serif" font-size="13" lengthAdjust="spacing" textLength="11" x="261.1978" y="749.9397">1.</text><text fill="#000000" font-family="sans-serif" font-size="13" lengthAdjust="spacing" textLength="5" x="180.8694" y="890.4521">*</text></g><!--link PropertyController to Database--><g id="link_PropertyController_Database"><path codeLine="97" d="M248.47,728.1511 C221.34,744.2511 179,767.9211 140,783.6211 C94.58,801.9011 63.53,774.5711 34,813.6211 C12.35,842.2511 39.32,875.4711 68.78,900.0011 " fill="none" id="PropertyController-Database-1" style="stroke:#181818;stroke-width:1.0;"/><polygon fill="#000000" points="42.6135,819.8108,34.0453,823.9385,38.1079,828.1864,42.6135,819.8108" style="stroke:#000000;stroke-width:1.0;"/><text fill="#000000" font-family="sans-serif" font-size="13" lengthAdjust="spacing" textLength="181" x="48" y="828.6494">sends necessary information to</text><text fill="#000000" font-family="sans-serif" font-size="13" lengthAdjust="spacing" textLength="11" x="227.8991" y="749.8758">1.</text><text fill="#000000" font-family="sans-serif" font-size="13" lengthAdjust="spacing" textLength="5" x="56.085" y="890.7145">*</text></g><!--link PropertyController to Property--><g id="link_PropertyController_Property"><path codeLine="98" d="M288.3,728.4111 C300.86,748.5911 321.31,782.7311 336,813.6211 C343.41,829.2011 350.56,846.2811 356.96,862.6011 " fill="none" id="PropertyController-Property" style="stroke:#181818;stroke-width:1.0;"/><polygon fill="#000000" points="351.2775,827.7178,349.7738,818.3268,344.5411,821.0042,351.2775,827.7178" style="stroke:#000000;stroke-width:1.0;"/><text fill="#000000" font-family="sans-serif" font-size="13" lengthAdjust="spacing" textLength="49" x="358" y="828.6494">contains</text><text fill="#000000" font-family="sans-serif" font-size="13" lengthAdjust="spacing" textLength="5" x="285.665" y="749.8636">*</text><text fill="#000000" font-family="sans-serif" font-size="13" lengthAdjust="spacing" textLength="7" x="346.9137" y="851.1166">1</text></g><!--link Agent to Announcement--><g id="link_Agent_Announcement"><path codeLine="99" d="M950.44,955.1711 C953.69,994.8311 961.66,1092.0811 966.03,1145.3311 " fill="none" id="Agent-Announcement" style="stroke:#181818;stroke-width:1.0;"/><polygon fill="#000000" points="964.4085,1055.2499,966.5986,1045.9949,960.7404,1046.4752,964.4085,1055.2499" style="stroke:#000000;stroke-width:1.0;"/><text fill="#000000" font-family="sans-serif" font-size="13" lengthAdjust="spacing" textLength="55" x="973" y="1055.6494">publishes</text><text fill="#000000" font-family="sans-serif" font-size="13" lengthAdjust="spacing" textLength="7" x="942.8606" y="976.9014">1</text><text fill="#000000" font-family="sans-serif" font-size="13" lengthAdjust="spacing" textLength="20" x="943.7197" y="1134.2412">1..*</text></g><!--link Agency to Agent--><g id="link_Agency_Agent"><path codeLine="100" d="M969.94,783.6711 C963.39,831.1511 955.37,889.3611 951.43,918.0011 " fill="none" id="Agency-Agent" style="stroke:#181818;stroke-width:1.0;"/><polygon fill="#000000" points="969.3175,828.2198,973.4636,819.6606,967.6408,818.8582,969.3175,828.2198" style="stroke:#000000;stroke-width:1.0;"/><text fill="#000000" font-family="sans-serif" font-size="13" lengthAdjust="spacing" textLength="21" x="979" y="828.6494">has</text><text fill="#000000" font-family="sans-serif" font-size="13" lengthAdjust="spacing" textLength="7" x="961.5416" y="806.2095">1</text><text fill="#000000" font-family="sans-serif" font-size="13" lengthAdjust="spacing" textLength="20" x="955.2367" y="906.8265">1..*</text></g><!--link SystemAdministrator to Employee--><g id="link_SystemAdministrator_Employee"><path codeLine="101" d="M701.4,264.3111 C714.13,291.1511 739.14,343.8611 760.79,389.4811 " fill="none" id="SystemAdministrator-Employee" style="stroke:#181818;stroke-width:1.0;"/><polygon fill="#000000" points="753.1433,354.7839,751.9212,345.3522,746.6108,347.8719,753.1433,354.7839" style="stroke:#000000;stroke-width:1.0;"/><text fill="#000000" font-family="sans-serif" font-size="13" lengthAdjust="spacing" textLength="50" x="760" y="355.6494">registers</text><text fill="#000000" font-family="sans-serif" font-size="13" lengthAdjust="spacing" textLength="7" x="695.7169" y="285.7367">1</text><text fill="#000000" font-family="sans-serif" font-size="13" lengthAdjust="spacing" textLength="5" x="752.0752" y="378.3175">*</text></g><!--link Employee to Agency--><g id="link_Employee_Agency"><path codeLine="102" d="M794.71,556.6811 C797.1,574.1711 802.49,591.5711 813,605.6211 C834.25,634.0411 856.3,617.8211 887,635.6211 C900.14,643.2411 913.46,652.5511 925.75,661.9411 " fill="none" id="Employee-Agency" style="stroke:#181818;stroke-width:1.0;"/><polygon fill="#000000" points="821.8981,599.3978,816.6868,591.4421,813.0059,596.0246,821.8981,599.3978" style="stroke:#000000;stroke-width:1.0;"/><text fill="#000000" font-family="sans-serif" font-size="13" lengthAdjust="spacing" textLength="81" x="827" y="601.6494">is assigned to</text><text fill="#000000" font-family="sans-serif" font-size="13" lengthAdjust="spacing" textLength="5" x="789.0405" y="578.6347">*</text><text fill="#000000" font-family="sans-serif" font-size="13" lengthAdjust="spacing" textLength="7" x="910.9898" y="651.4164">1</text></g><!--link Employee to EmployeeRole--><g id="link_Employee_EmployeeRole"><path codeLine="103" d="M728.41,542.4211 C716.46,556.2311 705.03,571.2611 696,586.6211 C678.15,616.9811 667.1,656.3411 661.25,682.0211 " fill="none" id="Employee-EmployeeRole" style="stroke:#181818;stroke-width:1.0;"/><polygon fill="#000000" points="698.8324,600.7723,705.402,593.8955,700.1053,591.3473,698.8324,600.7723" style="stroke:#000000;stroke-width:1.0;"/><text fill="#000000" font-family="sans-serif" font-size="13" lengthAdjust="spacing" textLength="21" x="710" y="601.6494">has</text><text fill="#000000" font-family="sans-serif" font-size="13" lengthAdjust="spacing" textLength="7" x="713.6663" y="545.736">1</text><text fill="#000000" font-family="sans-serif" font-size="13" lengthAdjust="spacing" textLength="7" x="654.6547" y="670.7069">1</text></g><!--link SystemAdministrator to EmployeeRole--><g id="link_SystemAdministrator_EmployeeRole"><path codeLine="104" d="M686.68,264.3811 C677.52,291.1211 661.02,343.5211 655,389.6211 C640.94,497.2611 649,627.0711 653.54,682.0011 " fill="none" id="SystemAdministrator-EmployeeRole" style="stroke:#181818;stroke-width:1.0;"/><polygon fill="#000000" points="659.6045,478.2509,663.2497,469.4667,657.3903,469.0017,659.6045,478.2509" style="stroke:#000000;stroke-width:1.0;"/><text fill="#000000" font-family="sans-serif" font-size="13" lengthAdjust="spacing" textLength="41" x="669" y="478.6494">defines</text><text fill="#000000" font-family="sans-serif" font-size="13" lengthAdjust="spacing" textLength="7" x="677.0409" y="285.8256">1</text><text fill="#000000" font-family="sans-serif" font-size="13" lengthAdjust="spacing" textLength="5" x="647.393" y="670.6823">*</text></g><!--link Owner to Property--><g id="link_Owner_Property"><path codeLine="105" d="M822.21,725.6911 C797.57,741.0511 757.73,765.1611 722,783.6211 C644.35,823.7311 553.93,863.9611 486.01,892.9511 " fill="none" id="Owner-Property" style="stroke:#181818;stroke-width:1.0;"/><polygon fill="#000000" points="658.5234,825.4937,667.9307,824.0961,665.3126,818.8335,658.5234,825.4937" style="stroke:#000000;stroke-width:1.0;"/><text fill="#000000" font-family="sans-serif" font-size="13" lengthAdjust="spacing" textLength="30" x="672" y="828.6494">owns</text><text fill="#000000" font-family="sans-serif" font-size="13" lengthAdjust="spacing" textLength="7" x="807.5347" y="724.9427">1</text><text fill="#000000" font-family="sans-serif" font-size="13" lengthAdjust="spacing" textLength="20" x="493.956" y="886.3092">1..*</text></g><!--link Property to House--><g id="link_Property_House"><path codeLine="106" d="M321.79,1010.8311 C301.14,1035.5311 277.81,1063.4411 256.09,1089.4211 " fill="none" id="Property-House" style="stroke:#181818;stroke-width:1.0;"/><polygon fill="#000000" points="295.7931,1054.1027,303.8493,1049.0481,299.3396,1045.2782,295.7931,1054.1027" style="stroke:#000000;stroke-width:1.0;"/><text fill="#000000" font-family="sans-serif" font-size="13" lengthAdjust="spacing" textLength="39" x="308" y="1055.6494">can be</text><text fill="#000000" font-family="sans-serif" font-size="13" lengthAdjust="spacing" textLength="7" x="308.4201" y="1032.9984">1</text><text fill="#000000" font-family="sans-serif" font-size="13" lengthAdjust="spacing" textLength="5" x="257.0339" y="1078.3731">*</text></g><!--link Property to Apartment--><g id="link_Property_Apartment"><path codeLine="107" d="M395,1010.8311 C400.57,1044.8011 407.13,1084.8111 412.5,1117.5711 " fill="none" id="Property-Apartment" style="stroke:#181818;stroke-width:1.0;"/><polygon fill="#000000" points="408.8089,1055.2007,410.2458,1045.7993,404.4453,1046.7503,408.8089,1055.2007" style="stroke:#000000;stroke-width:1.0;"/><text fill="#000000" font-family="sans-serif" font-size="13" lengthAdjust="spacing" textLength="39" x="417" y="1055.6494">can be</text><text fill="#000000" font-family="sans-serif" font-size="13" lengthAdjust="spacing" textLength="7" x="388.8367" y="1032.9984">1</text><text fill="#000000" font-family="sans-serif" font-size="13" lengthAdjust="spacing" textLength="5" x="406.0781" y="1106.5858">*</text></g><!--link Owner to Agent--><g id="link_Owner_Agent"><path codeLine="108" d="M853.1,728.1311 C862.83,751.9511 881.06,795.8111 898,832.6211 C911.93,862.8911 929.39,897.5011 939.85,917.9011 " fill="none" id="Owner-Agent" style="stroke:#181818;stroke-width:1.0;"/><polygon fill="#000000" points="905.0788,827.814,903.9911,818.3658,898.6454,820.8095,905.0788,827.814" style="stroke:#000000;stroke-width:1.0;"/><text fill="#000000" font-family="sans-serif" font-size="13" lengthAdjust="spacing" textLength="42" x="912" y="828.6494">selects</text><text fill="#000000" font-family="sans-serif" font-size="13" lengthAdjust="spacing" textLength="7" x="847.1125" y="749.8502">1</text><text fill="#000000" font-family="sans-serif" font-size="13" lengthAdjust="spacing" textLength="7" x="928.9759" y="906.6959">1</text></g><!--link SystemAdministrator to Store--><g id="link_SystemAdministrator_Store"><path codeLine="109" d="M760.7,245.6211 C827.01,245.6211 926.74,245.6211 987.92,245.6211 " fill="none" id="SystemAdministrator-Store" style="stroke:#181818;stroke-width:1.0;"/><polygon fill="#000000" points="851.75,233.2666,842.7049,230.3277,842.7049,236.2055,851.75,233.2666" style="stroke:#000000;stroke-width:1.0;"/><text fill="#000000" font-family="sans-serif" font-size="13" lengthAdjust="spacing" textLength="50" x="855.75" y="238.6494">registers</text><text fill="#000000" font-family="sans-serif" font-size="13" lengthAdjust="spacing" textLength="7" x="768.4875" y="241.7564">1</text><text fill="#000000" font-family="sans-serif" font-size="13" lengthAdjust="spacing" textLength="5" x="974.9634" y="241.4938">*</text></g><!--link StoreManager to Store--><g id="link_StoreManager_Store"><path codeLine="110" d="M1042,92.6211 C1042,113.2611 1042,148.7511 1042,180.2411 " fill="none" id="StoreManager-Store" style="stroke:#181818;stroke-width:1.0;"/><polygon fill="#000000" points="1047,146.2666,1049.9389,137.2215,1044.0611,137.2215,1047,146.2666" style="stroke:#000000;stroke-width:1.0;"/><text fill="#000000" font-family="sans-serif" font-size="13" lengthAdjust="spacing" textLength="53" x="1056" y="146.6494">manages</text><text fill="#000000" font-family="sans-serif" font-size="13" lengthAdjust="spacing" textLength="7" x="1034.0156" y="114.3374">1</text><text fill="#000000" font-family="sans-serif" font-size="13" lengthAdjust="spacing" textLength="20" x="1020.9063" y="169.2197">1..*</text></g><!--link Store to Agency--><g id="link_Store_Agency"><path codeLine="111" d="M1033.38,310.8611 C1021.95,396.0311 1001.83,545.9511 989.83,635.4111 " fill="none" id="Store-Agency" style="stroke:#181818;stroke-width:1.0;"/><polygon fill="#000000" points="1026.335,478.2222,1030.4508,469.6483,1024.6252,468.8666,1026.335,478.2222" style="stroke:#000000;stroke-width:1.0;"/><text fill="#000000" font-family="sans-serif" font-size="13" lengthAdjust="spacing" textLength="10" x="1036" y="478.6494">is</text><text fill="#000000" font-family="sans-serif" font-size="13" lengthAdjust="spacing" textLength="7" x="1025.1301" y="332.523">1</text><text fill="#000000" font-family="sans-serif" font-size="13" lengthAdjust="spacing" textLength="7" x="983.4531" y="624.2949">1</text></g><!--link Company to Agency--><g id="link_Company_Agency"><path codeLine="112" d="M900.51,101.9411 C912.49,193.3711 952.01,494.9911 970.41,635.4511 " fill="none" id="Company-Agency" style="stroke:#181818;stroke-width:1.0;"/><polygon fill="#000000" points="938.6495,355.2242,940.3885,345.874,934.5605,346.6376,938.6495,355.2242" style="stroke:#000000;stroke-width:1.0;"/><text fill="#000000" font-family="sans-serif" font-size="13" lengthAdjust="spacing" textLength="21" x="947" y="355.6494">has</text><text fill="#000000" font-family="sans-serif" font-size="13" lengthAdjust="spacing" textLength="7" x="893.5122" y="123.9198">1</text><text fill="#000000" font-family="sans-serif" font-size="13" lengthAdjust="spacing" textLength="20" x="948.4816" y="624.3388">1..*</text></g><!--link Company to SystemAdministrator--><g id="link_Company_SystemAdministrator"><path codeLine="113" d="M864.68,101.9811 C822.54,136.9811 750.04,197.2311 714.25,226.9711 " fill="none" id="Company-SystemAdministrator" style="stroke:#181818;stroke-width:1.0;"/><polygon fill="#000000" points="826.1543,144.462,834.9894,140.942,831.2331,136.421,826.1543,144.462" style="stroke:#000000;stroke-width:1.0;"/><text fill="#000000" font-family="sans-serif" font-size="13" lengthAdjust="spacing" textLength="21" x="839" y="146.6494">has</text><text fill="#000000" font-family="sans-serif" font-size="13" lengthAdjust="spacing" textLength="7" x="849.8444" y="123.9685">1</text><text fill="#000000" font-family="sans-serif" font-size="13" lengthAdjust="spacing" textLength="7" x="712.6859" y="215.7873">1</text></g><!--link SystemAdministrator to User--><g id="link_SystemAdministrator_User"><path codeLine="114" d="M671.14,264.2411 C630.41,299.2211 547,381.8711 547,472.1211 C547,472.1211 547,472.1211 547,937.6211 C547,1057.2611 695.33,1136.3411 765.74,1167.1311 " fill="none" id="SystemAdministrator-User" style="stroke:#181818;stroke-width:1.0;"/><polygon fill="#000000" points="552.521,714.7394,554.5014,705.4373,548.6556,706.0498,552.521,714.7394" style="stroke:#000000;stroke-width:1.0;"/><text fill="#000000" font-family="sans-serif" font-size="13" lengthAdjust="spacing" textLength="10" x="561" y="715.1494">is</text><text fill="#000000" font-family="sans-serif" font-size="13" lengthAdjust="spacing" textLength="7" x="657.3245" y="285.6479">1</text><text fill="#000000" font-family="sans-serif" font-size="13" lengthAdjust="spacing" textLength="7" x="750.9123" y="1159.4173">1</text></g><!--link Employee to User--><g id="link_Employee_User"><path codeLine="115" d="M795.09,556.7411 C794.64,566.8011 794.26,576.9411 794,586.6211 C793.78,595.0611 793.94,597.1811 794,605.6211 C795.37,803.3811 799.4,1039.3211 801.16,1136.4411 " fill="none" id="Employee-User" style="stroke:#181818;stroke-width:1.0;"/><polygon fill="#000000" points="801.0524,828.2663,803.8964,819.191,798.0189,819.2525,801.0524,828.2663" style="stroke:#000000;stroke-width:1.0;"/><text fill="#000000" font-family="sans-serif" font-size="13" lengthAdjust="spacing" textLength="10" x="810" y="828.6494">is</text><text fill="#000000" font-family="sans-serif" font-size="13" lengthAdjust="spacing" textLength="7" x="794.9688" y="578.6998">1</text><text fill="#000000" font-family="sans-serif" font-size="13" lengthAdjust="spacing" textLength="7" x="793.5226" y="1125.4241">1</text></g><!--link Agent to User--><g id="link_Agent_User"><path codeLine="116" d="M938.43,955.1711 C915.78,992.7611 861.98,1082.0611 829.11,1136.6211 " fill="none" id="Agent-User" style="stroke:#181818;stroke-width:1.0;"/><polygon fill="#000000" points="886.4197,1054.5494,893.6048,1048.3184,888.5701,1045.2851,886.4197,1054.5494" style="stroke:#000000;stroke-width:1.0;"/><text fill="#000000" font-family="sans-serif" font-size="13" lengthAdjust="spacing" textLength="10" x="898" y="1055.6494">is</text><text fill="#000000" font-family="sans-serif" font-size="13" lengthAdjust="spacing" textLength="7" x="927.4728" y="976.9014">1</text><text fill="#000000" font-family="sans-serif" font-size="13" lengthAdjust="spacing" textLength="7" x="825.7253" y="1125.2893">1</text></g><!--link Owner to User--><g id="link_Owner_User"><path codeLine="117" d="M844.36,728.2211 C838.1,795.1911 815.66,1035.3811 806.23,1136.3711 " fill="none" id="Owner-User" style="stroke:#181818;stroke-width:1.0;"/><polygon fill="#000000" points="835.5349,941.7449,839.3024,933.0124,833.4501,932.4657,835.5349,941.7449" style="stroke:#000000;stroke-width:1.0;"/><text fill="#000000" font-family="sans-serif" font-size="13" lengthAdjust="spacing" textLength="10" x="845" y="942.1494">is</text><text fill="#000000" font-family="sans-serif" font-size="13" lengthAdjust="spacing" textLength="7" x="835.9786" y="749.6226">1</text><text fill="#000000" font-family="sans-serif" font-size="13" lengthAdjust="spacing" textLength="7" x="807.3653" y="1125.3438">1</text></g><!--SRC=[hLLBQnmn3BxxLvYz108DoJMKG4W2pI6qDEHilBPsnjIFgUmXcOR-zygUv-vEshHqBpkMFdrwM9BZD-CRYT9n5tnGDGO7F64BB4wQHgflieB7r5dW22f9Nzab8DPIXsVZAxwJDW8xcLNMU4XT0pnWgWCxiR1BF0MEfgeJroRJcU0NPChA6AzJGhDj4zohu1_D3-3dh3OQk3Aeo7VvTa2KEZAMJAB8ReEJnlE7eC4onWeFltED3Ht0A_FI0LCc4PaNIg8MldLRG9Rao_WfjKQ8aG4nMJ6UA8GaLI9fp_KrK0G_Hm-FNKpWhhKptiI4CWLydRLt2vjNfY4gD4t9U8BS1DT8txsXlQx0ArBUtsQzgRmiUXlK_665avvk25bJ1mzZDYMBcUaf0Wvbw3KDIPy3waKk53pmLyRfPtJvMphDvybnFkpNAKls0fXuls1e05CtKEU6A1yIGHwpQggZz0h4ZhfHf1e4NLid5FY4lHt2znQex5eqQ1ICdbFeWvYBvtreYScHwU1xo6agz2XJmPaOPydCGMsPCa5ltwScmaviGMC8BXwAPQhNv4H3FLw9IEC4lH9UA5F8cPA-f4TNMGDLmbV706bGK2jga-FEY2d4Jw6Dy7_2uty8Zxy_l6C4EO_bBbPqNXXVowr9Scj1sB1R0SNM2tXfGcnnCO2taco8UBZWXdeDQUU8mbH4L1qSZcJrv16gp8gWyqpmpSM6V-2RyxEpqytKgZSqz1Yi9Vtbs6_yYgseDnTdP4y4P3t5ycys4RoEt0FTG9JOSUDt0LsPZBmqFwvIdVPCbCGyPvUyB2tZ8_dFAoJrMMPSINDlCYvvqswjYJMCSDKTugiUMCiCMTbv4vx0uz8hLUXBdQqcyIBamTabDv7JPTAg0PrJNQ8l9lHocvBDtqKp66dOqPkKxJu_Uy23F1SL3C-bUfDaGLa6BWUWfETRU0CrROuzv87NkRGHB3s6lqseqFPBUh-qHVRGFm876Otm_ecOm8SHZ9TmnORtQAK12gQl-H5ei_OGlgjXwA-CuU1-xTwN-eDktbSU5NUf_0K0]--></g></svg>