<?xml version="1.0" encoding="UTF-8" standalone="no"?><svg xmlns="http://www.w3.org/2000/svg" xmlns:xlink="http://www.w3.org/1999/xlink" contentStyleType="text/css" height="1385px" preserveAspectRatio="none" style="width:1792px;height:1385px;background:#FFFFFF;" version="1.1" viewBox="0 0 1792 1385" width="1792px" zoomAndPan="magnify"><defs/><g><text fill="#000000" font-family="sans-serif" font-size="14" font-weight="bold" lengthAdjust="spacing" textLength="105" x="836.63" y="23.5352">Domain Model</text><!--class Employee--><g id="elem_Employee"><rect codeLine="13" fill="#F1F1F1" height="206.4375" id="Employee" rx="2.5" ry="2.5" style="stroke:#181818;stroke-width:0.5;" width="212" x="1290.26" y="321.1483"/><text fill="#000000" font-family="sans-serif" font-size="20" lengthAdjust="spacing" textLength="93" x="1349.76" y="345.4842">Employee</text><line style="stroke:#181818;stroke-width:0.5;" x1="1291.26" x2="1501.26" y1="354.703" y2="354.703"/><text fill="#000000" font-family="sans-serif" font-size="20" lengthAdjust="spacing" textLength="53" x="1296.26" y="378.0389">name</text><text fill="#000000" font-family="sans-serif" font-size="20" lengthAdjust="spacing" textLength="200" x="1296.26" y="401.5936">citizen_card_number</text><text fill="#000000" font-family="sans-serif" font-size="20" lengthAdjust="spacing" textLength="115" x="1296.26" y="425.1483">tax_number</text><text fill="#000000" font-family="sans-serif" font-size="20" lengthAdjust="spacing" textLength="76" x="1296.26" y="448.703">address</text><text fill="#000000" font-family="sans-serif" font-size="20" lengthAdjust="spacing" textLength="139" x="1296.26" y="472.2577">email_address</text><text fill="#000000" font-family="sans-serif" font-size="20" lengthAdjust="spacing" textLength="69" x="1296.26" y="495.8123">contact</text><text fill="#000000" font-family="sans-serif" font-size="20" lengthAdjust="spacing" textLength="135" x="1296.26" y="519.367">employeeRole</text></g><!--class SystemAdministrator--><g id="elem_SystemAdministrator"><rect codeLine="23" fill="#F1F1F1" height="41.5547" id="SystemAdministrator" rx="2.5" ry="2.5" style="stroke:#181818;stroke-width:0.5;" width="207" x="1370.76" y="194.5983"/><text fill="#000000" font-family="sans-serif" font-size="20" lengthAdjust="spacing" textLength="201" x="1373.76" y="218.9342">SystemAdministrator</text><line style="stroke:#181818;stroke-width:0.5;" x1="1371.76" x2="1576.76" y1="228.153" y2="228.153"/></g><!--class NetworkManager--><g id="elem_NetworkManager"><rect codeLine="26" fill="#F1F1F1" height="41.5547" id="NetworkManager" rx="2.5" ry="2.5" style="stroke:#181818;stroke-width:0.5;" width="168" x="1109.26" y="194.5983"/><text fill="#000000" font-family="sans-serif" font-size="20" lengthAdjust="spacing" textLength="162" x="1112.26" y="218.9342">NetworkManager</text><line style="stroke:#181818;stroke-width:0.5;" x1="1110.26" x2="1276.26" y1="228.153" y2="228.153"/></g><!--class EmployeeRole--><g id="elem_EmployeeRole"><rect codeLine="29" fill="#F1F1F1" height="65.1094" id="EmployeeRole" rx="2.5" ry="2.5" style="stroke:#181818;stroke-width:0.5;" width="141" x="1490.76" y="671.4783"/><text fill="#000000" font-family="sans-serif" font-size="20" lengthAdjust="spacing" textLength="135" x="1493.76" y="695.8142">EmployeeRole</text><line style="stroke:#181818;stroke-width:0.5;" x1="1491.76" x2="1630.76" y1="705.033" y2="705.033"/><text fill="#000000" font-family="sans-serif" font-size="20" lengthAdjust="spacing" textLength="108" x="1496.76" y="728.3689">description</text></g><!--class Company--><g id="elem_Company"><rect codeLine="33" fill="#F1F1F1" height="65.1094" id="Company" rx="2.5" ry="2.5" style="stroke:#181818;stroke-width:0.5;" width="120" x="774.26" y="44.4883"/><text fill="#000000" font-family="sans-serif" font-size="20" lengthAdjust="spacing" textLength="91" x="788.76" y="68.8242">Company</text><line style="stroke:#181818;stroke-width:0.5;" x1="775.26" x2="893.26" y1="78.043" y2="78.043"/><text fill="#000000" font-family="sans-serif" font-size="20" lengthAdjust="spacing" textLength="108" x="780.26" y="101.3789">description</text></g><!--class Agency--><g id="elem_Agency"><rect codeLine="37" fill="#F1F1F1" height="182.8828" id="Agency" rx="2.5" ry="2.5" style="stroke:#181818;stroke-width:0.5;" width="157" x="791.76" y="612.5883"/><text fill="#000000" font-family="sans-serif" font-size="20" lengthAdjust="spacing" textLength="69" x="835.76" y="636.9242">Agency</text><line style="stroke:#181818;stroke-width:0.5;" x1="792.76" x2="947.76" y1="646.143" y2="646.143"/><text fill="#000000" font-family="sans-serif" font-size="20" lengthAdjust="spacing" textLength="21" x="797.76" y="669.4789">ID</text><text fill="#000000" font-family="sans-serif" font-size="20" lengthAdjust="spacing" textLength="112" x="797.76" y="693.0336">designation</text><text fill="#000000" font-family="sans-serif" font-size="20" lengthAdjust="spacing" textLength="76" x="797.76" y="716.5883">location</text><text fill="#000000" font-family="sans-serif" font-size="20" lengthAdjust="spacing" textLength="139" x="797.76" y="740.143">local_manager</text><text fill="#000000" font-family="sans-serif" font-size="20" lengthAdjust="spacing" textLength="145" x="797.76" y="763.6977">phone_number</text><text fill="#000000" font-family="sans-serif" font-size="20" lengthAdjust="spacing" textLength="53" x="797.76" y="787.2523">email</text></g><!--class User--><g id="elem_User"><rect codeLine="46" fill="#F1F1F1" height="112.2188" id="User" rx="2.5" ry="2.5" style="stroke:#181818;stroke-width:0.5;" width="104" x="1141.26" y="1207.2383"/><text fill="#000000" font-family="sans-serif" font-size="20" lengthAdjust="spacing" textLength="43" x="1171.76" y="1231.5742">User</text><line style="stroke:#181818;stroke-width:0.5;" x1="1142.26" x2="1244.26" y1="1240.793" y2="1240.793"/><text fill="#000000" font-family="sans-serif" font-size="20" lengthAdjust="spacing" textLength="53" x="1147.26" y="1264.1289">name</text><text fill="#000000" font-family="sans-serif" font-size="20" lengthAdjust="spacing" textLength="53" x="1147.26" y="1287.6836">email</text><text fill="#000000" font-family="sans-serif" font-size="20" lengthAdjust="spacing" textLength="92" x="1147.26" y="1311.2383">password</text></g><!--class Store--><g id="elem_Store"><rect codeLine="52" fill="#F1F1F1" height="159.3281" id="Store" rx="2.5" ry="2.5" style="stroke:#181818;stroke-width:0.5;" width="157" x="920.76" y="344.7083"/><text fill="#000000" font-family="sans-serif" font-size="20" lengthAdjust="spacing" textLength="49" x="974.76" y="369.0442">Store</text><line style="stroke:#181818;stroke-width:0.5;" x1="921.76" x2="1076.76" y1="378.263" y2="378.263"/><text fill="#000000" font-family="sans-serif" font-size="20" lengthAdjust="spacing" textLength="19" x="926.76" y="401.5989">id</text><text fill="#000000" font-family="sans-serif" font-size="20" lengthAdjust="spacing" textLength="112" x="926.76" y="425.1536">designation</text><text fill="#000000" font-family="sans-serif" font-size="20" lengthAdjust="spacing" textLength="76" x="926.76" y="448.7083">location</text><text fill="#000000" font-family="sans-serif" font-size="20" lengthAdjust="spacing" textLength="139" x="926.76" y="472.263">email_address</text><text fill="#000000" font-family="sans-serif" font-size="20" lengthAdjust="spacing" textLength="145" x="926.76" y="495.8177">phone_number</text></g><!--class Property--><g id="elem_Property"><rect codeLine="60" fill="#F1F1F1" height="182.8828" id="Property" rx="2.5" ry="2.5" style="stroke:#181818;stroke-width:0.5;" width="300" x="464.26" y="880.4683"/><text fill="#000000" font-family="sans-serif" font-size="20" lengthAdjust="spacing" textLength="80" x="574.26" y="904.8042">Property</text><line style="stroke:#181818;stroke-width:0.5;" x1="465.26" x2="763.26" y1="914.023" y2="914.023"/><text fill="#000000" font-family="sans-serif" font-size="20" lengthAdjust="spacing" textLength="41" x="470.26" y="937.3589">type</text><text fill="#000000" font-family="sans-serif" font-size="20" lengthAdjust="spacing" textLength="41" x="470.26" y="960.9136">area</text><text fill="#000000" font-family="sans-serif" font-size="20" lengthAdjust="spacing" textLength="76" x="470.26" y="984.4683">location</text><text fill="#000000" font-family="sans-serif" font-size="20" lengthAdjust="spacing" textLength="288" x="470.26" y="1008.023">distance_from_the_city_centre</text><text fill="#000000" font-family="sans-serif" font-size="20" lengthAdjust="spacing" textLength="154" x="470.26" y="1031.5777">requested_price</text><text fill="#000000" font-family="sans-serif" font-size="20" lengthAdjust="spacing" textLength="66" x="470.26" y="1055.1323">photos</text></g><!--class Announcement--><g id="elem_Announcement"><rect codeLine="69" fill="#F1F1F1" height="88.6641" id="Announcement" rx="2.5" ry="2.5" style="stroke:#181818;stroke-width:0.5;" width="150" x="811.26" y="1219.0183"/><text fill="#000000" font-family="sans-serif" font-size="20" lengthAdjust="spacing" textLength="144" x="814.26" y="1243.3542">Announcement</text><line style="stroke:#181818;stroke-width:0.5;" x1="812.26" x2="960.26" y1="1252.573" y2="1252.573"/><text fill="#000000" font-family="sans-serif" font-size="20" lengthAdjust="spacing" textLength="108" x="817.26" y="1275.9089">description</text><text fill="#000000" font-family="sans-serif" font-size="20" lengthAdjust="spacing" textLength="97" x="817.26" y="1299.4636">comission</text></g><!--class Apartment--><g id="elem_Apartment"><rect codeLine="74" fill="#F1F1F1" height="159.3281" id="Apartment" rx="2.5" ry="2.5" style="stroke:#181818;stroke-width:0.5;" width="296" x="121.26" y="1183.6883"/><text fill="#000000" font-family="sans-serif" font-size="20" lengthAdjust="spacing" textLength="102" x="218.26" y="1208.0242">Apartment</text><line style="stroke:#181818;stroke-width:0.5;" x1="122.26" x2="416.26" y1="1217.243" y2="1217.243"/><text fill="#000000" font-family="sans-serif" font-size="20" lengthAdjust="spacing" textLength="212" x="127.26" y="1240.5789">number_of_bedrooms</text><text fill="#000000" font-family="sans-serif" font-size="20" lengthAdjust="spacing" textLength="218" x="127.26" y="1264.1336">number_of_bathrooms</text><text fill="#000000" font-family="sans-serif" font-size="20" lengthAdjust="spacing" textLength="263" x="127.26" y="1287.6883">number_of_parking_spaces</text><text fill="#000000" font-family="sans-serif" font-size="20" lengthAdjust="spacing" textLength="275" x="127.26" y="1311.243">existence_of_central_heating</text><text fill="#000000" font-family="sans-serif" font-size="20" lengthAdjust="spacing" textLength="284" x="127.26" y="1334.7977">existence_of_air_conditioning</text></g><!--class House--><g id="elem_House"><rect codeLine="82" fill="#F1F1F1" height="229.9922" id="House" rx="2.5" ry="2.5" style="stroke:#181818;stroke-width:0.5;" width="324" x="452.26" y="1148.3583"/><text fill="#000000" font-family="sans-serif" font-size="20" lengthAdjust="spacing" textLength="60" x="584.26" y="1172.6942">House</text><line style="stroke:#181818;stroke-width:0.5;" x1="453.26" x2="775.26" y1="1181.913" y2="1181.913"/><text fill="#000000" font-family="sans-serif" font-size="20" lengthAdjust="spacing" textLength="212" x="458.26" y="1205.2489">number_of_bedrooms</text><text fill="#000000" font-family="sans-serif" font-size="20" lengthAdjust="spacing" textLength="218" x="458.26" y="1228.8036">number_of_bathrooms</text><text fill="#000000" font-family="sans-serif" font-size="20" lengthAdjust="spacing" textLength="259" x="458.26" y="1252.3583">number_of_parking spaces</text><text fill="#000000" font-family="sans-serif" font-size="20" lengthAdjust="spacing" textLength="271" x="458.26" y="1275.913">existence_of_central heating</text><text fill="#000000" font-family="sans-serif" font-size="20" lengthAdjust="spacing" textLength="284" x="458.26" y="1299.4677">existence_of_air_conditioning</text><text fill="#000000" font-family="sans-serif" font-size="20" lengthAdjust="spacing" textLength="244" x="458.26" y="1323.0223">existence_of_a_basement</text><text fill="#000000" font-family="sans-serif" font-size="20" lengthAdjust="spacing" textLength="312" x="458.26" y="1346.577">existence_of_an_inhabitable_loft</text><text fill="#000000" font-family="sans-serif" font-size="20" lengthAdjust="spacing" textLength="262" x="458.26" y="1370.1317">existence_of_sun_exposure</text></g><!--class Database--><g id="elem_Database"><rect codeLine="93" fill="#F1F1F1" height="88.6641" id="Database" rx="2.5" ry="2.5" style="stroke:#181818;stroke-width:0.5;" width="152" x="125.26" y="927.5783"/><text fill="#000000" font-family="sans-serif" font-size="20" lengthAdjust="spacing" textLength="89" x="156.76" y="951.9142">Database</text><line style="stroke:#181818;stroke-width:0.5;" x1="126.26" x2="276.26" y1="961.133" y2="961.133"/><text fill="#000000" font-family="sans-serif" font-size="20" lengthAdjust="spacing" textLength="140" x="131.26" y="984.4689">proprety_table</text><text fill="#000000" font-family="sans-serif" font-size="20" lengthAdjust="spacing" textLength="99" x="131.26" y="1008.0236">user_table</text></g><!--class UnregisteredUser--><g id="elem_UnregisteredUser"><rect fill="#F1F1F1" height="41.5547" id="UnregisteredUser" rx="2.5" ry="2.5" style="stroke:#181818;stroke-width:0.5;" width="172" x="17.26" y="683.2583"/><text fill="#000000" font-family="sans-serif" font-size="20" lengthAdjust="spacing" textLength="166" x="20.26" y="707.5942">UnregisteredUser</text><line style="stroke:#181818;stroke-width:0.5;" x1="18.26" x2="188.26" y1="716.813" y2="716.813"/></g><!--class PropertyController--><g id="elem_PropertyController"><rect fill="#F1F1F1" height="41.5547" id="PropertyController" rx="2.5" ry="2.5" style="stroke:#181818;stroke-width:0.5;" width="182" x="318.26" y="683.2583"/><text fill="#000000" font-family="sans-serif" font-size="20" lengthAdjust="spacing" textLength="176" x="321.26" y="707.5942">PropertyController</text><line style="stroke:#181818;stroke-width:0.5;" x1="319.26" x2="499.26" y1="716.813" y2="716.813"/></g><!--class Agent--><g id="elem_Agent"><rect fill="#F1F1F1" height="41.5547" id="Agent" rx="2.5" ry="2.5" style="stroke:#181818;stroke-width:0.5;" width="62" x="913.26" y="951.1383"/><text fill="#000000" font-family="sans-serif" font-size="20" lengthAdjust="spacing" textLength="56" x="916.26" y="975.4742">Agent</text><line style="stroke:#181818;stroke-width:0.5;" x1="914.26" x2="974.26" y1="984.693" y2="984.693"/></g><!--class Owner--><g id="elem_Owner"><rect fill="#F1F1F1" height="41.5547" id="Owner" rx="2.5" ry="2.5" style="stroke:#181818;stroke-width:0.5;" width="68" x="984.26" y="683.2583"/><text fill="#000000" font-family="sans-serif" font-size="20" lengthAdjust="spacing" textLength="62" x="987.26" y="707.5942">Owner</text><line style="stroke:#181818;stroke-width:0.5;" x1="985.26" x2="1051.26" y1="716.813" y2="716.813"/></g><!--class StoreManager--><g id="elem_StoreManager"><rect fill="#F1F1F1" height="41.5547" id="StoreManager" rx="2.5" ry="2.5" style="stroke:#181818;stroke-width:0.5;" width="137" x="858.76" y="194.5983"/><text fill="#000000" font-family="sans-serif" font-size="20" lengthAdjust="spacing" textLength="131" x="861.76" y="218.9342">StoreManager</text><line style="stroke:#181818;stroke-width:0.5;" x1="859.76" x2="994.76" y1="228.153" y2="228.153"/></g><!--link UnregisteredUser to PropertyController--><g id="link_UnregisteredUser_PropertyController"><path codeLine="98" d="M189.72,704.0283 C229.75,704.0283 277.33,704.0283 317.94,704.0283 " fill="none" id="UnregisteredUser-PropertyController" style="stroke:#181818;stroke-width:1.0;"/><polygon fill="#000000" points="222.76,688.8056,208.2879,684.1033,208.2879,693.5079,222.76,688.8056" style="stroke:#000000;stroke-width:1.0;"/><text fill="#000000" font-family="sans-serif" font-size="20" lengthAdjust="spacing" textLength="72" x="227.76" y="696.3642">request</text><text fill="#000000" font-family="sans-serif" font-size="20" lengthAdjust="spacing" textLength="13" x="197.1278" y="699.4693">1</text><text fill="#000000" font-family="sans-serif" font-size="20" lengthAdjust="spacing" textLength="35" x="275.2886" y="724.1918">0..*</text></g><!--link PropertyController to Database--><g id="link_PropertyController_Database"><path codeLine="99" d="M408.13,725.1583 C405.57,754.9883 397.24,811.5983 370.26,850.4683 C346.74,884.3583 310.45,912.0283 277.52,932.2583 " fill="none" id="PropertyController-Database" style="stroke:#181818;stroke-width:1.0;"/><polygon fill="#000000" points="387.9925,845.0123,399.6899,835.2796,391.7351,830.2629,387.9925,845.0123" style="stroke:#000000;stroke-width:1.0;"/><text fill="#000000" font-family="sans-serif" font-size="20" lengthAdjust="spacing" textLength="72" x="405.26" y="845.8042">request</text><text fill="#000000" font-family="sans-serif" font-size="20" lengthAdjust="spacing" textLength="19" x="386.6718" y="752.1023">1.</text><text fill="#000000" font-family="sans-serif" font-size="20" lengthAdjust="spacing" textLength="10" x="285.2651" y="923.7452">*</text></g><!--link PropertyController to Database--><g id="link_PropertyController_Database"><path codeLine="100" d="M371.61,725.2083 C331.82,745.7283 266.72,777.0583 207.26,795.4683 C136.06,817.5283 90.02,768.2483 42.26,825.4683 C6,868.9183 68.09,911.7983 124.97,939.6083 " fill="none" id="PropertyController-Database-1" style="stroke:#181818;stroke-width:1.0;"/><polygon fill="#000000" points="56.2977,832.9972,42.2904,838.9429,48.4604,846.0406,56.2977,832.9972" style="stroke:#000000;stroke-width:1.0;"/><text fill="#000000" font-family="sans-serif" font-size="20" lengthAdjust="spacing" textLength="298" x="63.26" y="845.8042">sends necessary information to</text><text fill="#000000" font-family="sans-serif" font-size="20" lengthAdjust="spacing" textLength="19" x="341.7066" y="752.1639">1.</text><text fill="#000000" font-family="sans-serif" font-size="20" lengthAdjust="spacing" textLength="10" x="107.222" y="931.7958">*</text></g><!--link PropertyController to Property--><g id="link_PropertyController_Property"><path codeLine="101" d="M425.19,724.9683 C444.16,748.7783 476.75,789.8583 504.26,825.4683 C517.9,843.1383 532.38,862.0983 546.18,880.3083 " fill="none" id="PropertyController-Property" style="stroke:#181818;stroke-width:1.0;"/><polygon fill="#000000" points="536.1758,844.5571,530.9928,830.2501,523.5732,836.029,536.1758,844.5571" style="stroke:#000000;stroke-width:1.0;"/><text fill="#000000" font-family="sans-serif" font-size="20" lengthAdjust="spacing" textLength="80" x="544.26" y="845.8042">contains</text><text fill="#000000" font-family="sans-serif" font-size="20" lengthAdjust="spacing" textLength="10" x="417.8542" y="752.2773">*</text><text fill="#000000" font-family="sans-serif" font-size="20" lengthAdjust="spacing" textLength="13" x="527.0038" y="868.1291">1</text></g><!--link Agent to Announcement--><g id="link_Agent_Announcement"><path codeLine="102" d="M930.29,993.0783 C915.26,1016.1083 892.3,1055.5083 883.26,1093.3583 C873.31,1135.0283 875.68,1184.1383 879.56,1218.6383 " fill="none" id="Agent-Announcement" style="stroke:#181818;stroke-width:1.0;"/><polygon fill="#000000" points="889.5046,1113.9407,897.2678,1100.853,888.0925,1098.7894,889.5046,1113.9407" style="stroke:#000000;stroke-width:1.0;"/><text fill="#000000" font-family="sans-serif" font-size="20" lengthAdjust="spacing" textLength="93" x="904.26" y="1113.6942">publishes</text><text fill="#000000" font-family="sans-serif" font-size="20" lengthAdjust="spacing" textLength="13" x="912.5563" y="1020.0316">1</text><text fill="#000000" font-family="sans-serif" font-size="20" lengthAdjust="spacing" textLength="35" x="841.0056" y="1206.7588">1..*</text></g><!--link Agency to Agent--><g id="link_Agency_Agent"><path codeLine="103" d="M881.92,795.7483 C885.19,814.0383 889.26,833.0083 894.26,850.4683 C904.72,887.0383 922.98,927.4883 934.3,950.9683 " fill="none" id="Agency-Agent" style="stroke:#181818;stroke-width:1.0;"/><polygon fill="#000000" points="904.8179,845.8257,904.646,830.6097,895.7352,833.6168,904.8179,845.8257" style="stroke:#000000;stroke-width:1.0;"/><text fill="#000000" font-family="sans-serif" font-size="20" lengthAdjust="spacing" textLength="33" x="915.26" y="845.8042">has</text><text fill="#000000" font-family="sans-serif" font-size="20" lengthAdjust="spacing" textLength="13" x="869.2989" y="822.6847">1</text><text fill="#000000" font-family="sans-serif" font-size="20" lengthAdjust="spacing" textLength="35" x="892.2634" y="939.0607">1..*</text></g><!--link SystemAdministrator to Employee--><g id="link_SystemAdministrator_Employee"><path codeLine="104" d="M1466.64,236.5983 C1459.09,256.6383 1446.93,288.9083 1434.82,321.0283 " fill="none" id="SystemAdministrator-Employee" style="stroke:#181818;stroke-width:1.0;"/><polygon fill="#000000" points="1460.4387,286.4116,1469.9427,274.5277,1461.1423,271.211,1460.4387,286.4116" style="stroke:#000000;stroke-width:1.0;"/><text fill="#000000" font-family="sans-serif" font-size="20" lengthAdjust="spacing" textLength="83" x="1476.26" y="286.4842">registers</text><text fill="#000000" font-family="sans-serif" font-size="20" lengthAdjust="spacing" textLength="13" x="1450.3748" y="263.5655">1</text><text fill="#000000" font-family="sans-serif" font-size="20" lengthAdjust="spacing" textLength="10" x="1427.2846" y="308.9511">*</text></g><!--link Employee to Agency--><g id="link_Employee_Agency"><path codeLine="105" d="M1289.82,460.3583 C1199.79,492.5583 1069.5,545.4683 967.26,612.5883 C961.2,616.5683 955.16,620.9383 949.23,625.5483 " fill="none" id="Employee-Agency" style="stroke:#181818;stroke-width:1.0;"/><polygon fill="#000000" points="1056.0619,573.8568,1071.1354,571.7721,1067.0313,563.3103,1056.0619,573.8568" style="stroke:#000000;stroke-width:1.0;"/><text fill="#000000" font-family="sans-serif" font-size="20" lengthAdjust="spacing" textLength="132" x="1076.26" y="577.9242">is assigned to</text><text fill="#000000" font-family="sans-serif" font-size="20" lengthAdjust="spacing" textLength="10" x="1272.3326" y="458.3584">*</text><text fill="#000000" font-family="sans-serif" font-size="20" lengthAdjust="spacing" textLength="13" x="956.8422" y="613.895">1</text></g><!--link Employee to EmployeeRole--><g id="link_Employee_EmployeeRole"><path codeLine="106" d="M1457.23,527.9683 C1487.34,578.6483 1521.57,636.2383 1542.28,671.0883 " fill="none" id="Employee-EmployeeRole" style="stroke:#181818;stroke-width:1.0;"/><polygon fill="#000000" points="1500.3469,577.2429,1496.996,562.3996,1488.9113,567.204,1500.3469,577.2429" style="stroke:#000000;stroke-width:1.0;"/><text fill="#000000" font-family="sans-serif" font-size="20" lengthAdjust="spacing" textLength="33" x="1509.26" y="577.9242">has</text><text fill="#000000" font-family="sans-serif" font-size="20" lengthAdjust="spacing" textLength="13" x="1447.8897" y="555.0562">1</text><text fill="#000000" font-family="sans-serif" font-size="20" lengthAdjust="spacing" textLength="13" x="1524.5821" y="659.2809">1</text></g><!--link SystemAdministrator to EmployeeRole--><g id="link_SystemAdministrator_EmployeeRole"><path codeLine="107" d="M1535.17,236.3883 C1548.3,243.6483 1560.55,253.3383 1568.26,266.1483 C1647.49,397.7583 1596.99,594.5183 1572.43,671.0083 " fill="none" id="SystemAdministrator-EmployeeRole" style="stroke:#181818;stroke-width:1.0;"/><polygon fill="#000000" points="1618.9433,432.6164,1622.3923,417.7955,1613.0221,418.5988,1618.9433,432.6164" style="stroke:#000000;stroke-width:1.0;"/><text fill="#000000" font-family="sans-serif" font-size="20" lengthAdjust="spacing" textLength="70" x="1631.26" y="432.2042">defines</text><text fill="#000000" font-family="sans-serif" font-size="20" lengthAdjust="spacing" textLength="13" x="1534.7523" y="263.3069">1</text><text fill="#000000" font-family="sans-serif" font-size="20" lengthAdjust="spacing" textLength="10" x="1563.5676" y="659.1861">*</text></g><!--link Owner to Property--><g id="link_Owner_Property"><path codeLine="108" d="M1012.31,724.9983 C1004.99,745.9683 990.45,778.2383 966.26,795.4683 C908.4,836.6883 874.28,796.8383 809.26,825.4683 C777.57,839.4283 746.17,859.3683 718.13,880.0283 " fill="none" id="Owner-Property" style="stroke:#181818;stroke-width:1.0;"/><polygon fill="#000000" points="810.1826,841.9753,825.178,839.3882,820.7935,831.0682,810.1826,841.9753" style="stroke:#000000;stroke-width:1.0;"/><text fill="#000000" font-family="sans-serif" font-size="20" lengthAdjust="spacing" textLength="49" x="830.26" y="845.8042">owns</text><text fill="#000000" font-family="sans-serif" font-size="20" lengthAdjust="spacing" textLength="13" x="996.2753" y="752.3146">1</text><text fill="#000000" font-family="sans-serif" font-size="20" lengthAdjust="spacing" textLength="35" x="690.0126" y="868.1481">1..*</text></g><!--link Property to House--><g id="link_Property_House"><path codeLine="109" d="M614.26,1063.6983 C614.26,1090.3883 614.26,1119.9383 614.26,1147.9083 " fill="none" id="Property-House" style="stroke:#181818;stroke-width:1.0;"/><polygon fill="#000000" points="622.26,1114.1356,626.9623,1099.6635,617.5577,1099.6635,622.26,1114.1356" style="stroke:#000000;stroke-width:1.0;"/><text fill="#000000" font-family="sans-serif" font-size="20" lengthAdjust="spacing" textLength="63" x="635.26" y="1113.6942">can be</text><text fill="#000000" font-family="sans-serif" font-size="20" lengthAdjust="spacing" textLength="13" x="600.7827" y="1090.6398">1</text><text fill="#000000" font-family="sans-serif" font-size="20" lengthAdjust="spacing" textLength="10" x="603.9397" y="1136.1295">*</text></g><!--link Property to Apartment--><g id="link_Property_Apartment"><path codeLine="110" d="M506.05,1063.6983 C460.3,1102.0783 407.51,1146.3683 363.41,1183.3683 " fill="none" id="Property-Apartment" style="stroke:#181818;stroke-width:1.0;"/><polygon fill="#000000" points="465.1312,1111.2774,479.2406,1105.5782,473.196,1098.3734,465.1312,1111.2774" style="stroke:#000000;stroke-width:1.0;"/><text fill="#000000" font-family="sans-serif" font-size="20" lengthAdjust="spacing" textLength="63" x="484.26" y="1113.6942">can be</text><text fill="#000000" font-family="sans-serif" font-size="20" lengthAdjust="spacing" textLength="13" x="484.626" y="1090.6398">1</text><text fill="#000000" font-family="sans-serif" font-size="20" lengthAdjust="spacing" textLength="10" x="361.3499" y="1171.5811">*</text></g><!--link Owner to Agent--><g id="link_Owner_Agent"><path codeLine="111" d="M1012.7,725.0183 C998.98,774.2883 963.67,901.1783 949.89,950.6983 " fill="none" id="Owner-Agent" style="stroke:#181818;stroke-width:1.0;"/><polygon fill="#000000" points="989.115,845.9527,997.5254,833.2713,988.4652,830.7497,989.115,845.9527" style="stroke:#000000;stroke-width:1.0;"/><text fill="#000000" font-family="sans-serif" font-size="20" lengthAdjust="spacing" textLength="65" x="1004.26" y="845.8042">selects</text><text fill="#000000" font-family="sans-serif" font-size="20" lengthAdjust="spacing" textLength="13" x="1012.9291" y="752.3395">1</text><text fill="#000000" font-family="sans-serif" font-size="20" lengthAdjust="spacing" textLength="13" x="936.6671" y="938.7215">1</text></g><!--link SystemAdministrator to Store--><g id="link_SystemAdministrator_Store"><path codeLine="112" d="M1370.27,230.7483 C1329.94,238.3983 1284,249.7283 1244.26,266.1483 C1184.94,290.6683 1124.18,329.5483 1078.01,362.5083 " fill="none" id="SystemAdministrator-Store" style="stroke:#181818;stroke-width:1.0;"/><polygon fill="#000000" points="1244.9669,282.2136,1260.0929,280.5524,1256.2276,271.9788,1244.9669,282.2136" style="stroke:#000000;stroke-width:1.0;"/><text fill="#000000" font-family="sans-serif" font-size="20" lengthAdjust="spacing" textLength="83" x="1265.26" y="286.4842">registers</text><text fill="#000000" font-family="sans-serif" font-size="20" lengthAdjust="spacing" textLength="13" x="1349.8465" y="227.363">1</text><text fill="#000000" font-family="sans-serif" font-size="20" lengthAdjust="spacing" textLength="10" x="1085.7307" y="352.1065">*</text></g><!--link StoreManager to Store--><g id="link_StoreManager_Store"><path codeLine="113" d="M917.45,236.5983 C911.4,251.7783 905.77,272.9783 911.26,291.1483 C916.81,309.4983 925.83,327.6283 936.03,344.3083 " fill="none" id="StoreManager-Store" style="stroke:#181818;stroke-width:1.0;"/><polygon fill="#000000" points="920.6199,286.8092,922.7936,271.7483,913.526,273.347,920.6199,286.8092" style="stroke:#000000;stroke-width:1.0;"/><text fill="#000000" font-family="sans-serif" font-size="20" lengthAdjust="spacing" textLength="86" x="932.26" y="286.4842">manages</text><text fill="#000000" font-family="sans-serif" font-size="20" lengthAdjust="spacing" textLength="13" x="900.6783" y="263.5655">1</text><text fill="#000000" font-family="sans-serif" font-size="20" lengthAdjust="spacing" textLength="35" x="893.84" y="332.514">1..*</text></g><!--link Store to Agency--><g id="link_Store_Agency"><path codeLine="114" d="M945.18,504.2983 C934.75,521.4183 924.51,539.7583 916.26,557.5883 C908.25,574.8983 901.11,593.9683 894.98,612.4483 " fill="none" id="Store-Agency" style="stroke:#181818;stroke-width:1.0;"/><polygon fill="#000000" points="920.8918,577.622,931.2501,566.4749,922.7197,562.5153,920.8918,577.622" style="stroke:#000000;stroke-width:1.0;"/><text fill="#000000" font-family="sans-serif" font-size="20" lengthAdjust="spacing" textLength="16" x="937.26" y="577.9242">is</text><text fill="#000000" font-family="sans-serif" font-size="20" lengthAdjust="spacing" textLength="13" x="926.9739" y="531.515">1</text><text fill="#000000" font-family="sans-serif" font-size="20" lengthAdjust="spacing" textLength="13" x="883.4888" y="600.2708">1</text></g><!--link Company to Agency--><g id="link_Company_Agency"><path codeLine="115" d="M835.5,109.8483 C836.79,141.7883 838.93,192.3883 841.26,236.1483 C848.22,366.9183 857.91,518.1883 864.14,612.2483 " fill="none" id="Company-Agency" style="stroke:#181818;stroke-width:1.0;"/><polygon fill="#000000" points="851.7153,286.9127,855.5863,272.1964,846.197,272.7316,851.7153,286.9127" style="stroke:#000000;stroke-width:1.0;"/><text fill="#000000" font-family="sans-serif" font-size="20" lengthAdjust="spacing" textLength="33" x="864.26" y="286.4842">has</text><text fill="#000000" font-family="sans-serif" font-size="20" lengthAdjust="spacing" textLength="13" x="821.5959" y="136.8469">1</text><text fill="#000000" font-family="sans-serif" font-size="20" lengthAdjust="spacing" textLength="35" x="827.2578" y="600.3761">1..*</text></g><!--link Company to SystemAdministrator--><g id="link_Company_SystemAdministrator"><path codeLine="116" d="M894.76,90.9283 C1006.39,114.7083 1245.52,165.6483 1379.07,194.0983 " fill="none" id="Company-SystemAdministrator" style="stroke:#181818;stroke-width:1.0;"/><polygon fill="#000000" points="1246.0844,154.0424,1232.9096,146.4281,1230.9502,155.6262,1246.0844,154.0424" style="stroke:#000000;stroke-width:1.0;"/><text fill="#000000" font-family="sans-serif" font-size="20" lengthAdjust="spacing" textLength="33" x="1251.26" y="159.9342">has</text><text fill="#000000" font-family="sans-serif" font-size="20" lengthAdjust="spacing" textLength="13" x="902.0881" y="87.5554">1</text><text fill="#000000" font-family="sans-serif" font-size="20" lengthAdjust="spacing" textLength="13" x="1349.8632" y="185.2545">1</text></g><!--link SystemAdministrator to User--><g id="link_SystemAdministrator_User"><path codeLine="117" d="M1563.65,236.6183 C1613.11,252.0983 1672.11,278.2883 1710.26,321.1483 C1742.38,357.2483 1747.26,375.0583 1747.26,423.3683 C1747.26,423.3683 1747.26,423.3683 1747.26,972.9183 C1747.26,1198.0883 1383.29,1248.3883 1245.38,1259.3683 " fill="none" id="SystemAdministrator-User" style="stroke:#181818;stroke-width:1.0;"/><polygon fill="#000000" points="1752.8829,711.9443,1761.673,699.523,1752.6932,696.7286,1752.8829,711.9443" style="stroke:#000000;stroke-width:1.0;"/><text fill="#000000" font-family="sans-serif" font-size="20" lengthAdjust="spacing" textLength="16" x="1768.26" y="711.8642">is</text><text fill="#000000" font-family="sans-serif" font-size="20" lengthAdjust="spacing" textLength="13" x="1569.8183" y="263.5901">1</text><text fill="#000000" font-family="sans-serif" font-size="20" lengthAdjust="spacing" textLength="13" x="1253.2571" y="1253.6614">1</text></g><!--link Employee to User--><g id="link_Employee_User"><path codeLine="118" d="M1371.37,527.9983 C1328.07,706.5383 1240.29,1068.4383 1206.73,1206.8283 " fill="none" id="Employee-User" style="stroke:#181818;stroke-width:1.0;"/><polygon fill="#000000" points="1302.3744,846.0202,1310.3553,833.0642,1301.2157,830.8475,1302.3744,846.0202" style="stroke:#000000;stroke-width:1.0;"/><text fill="#000000" font-family="sans-serif" font-size="20" lengthAdjust="spacing" textLength="16" x="1317.26" y="845.8042">is</text><text fill="#000000" font-family="sans-serif" font-size="20" lengthAdjust="spacing" textLength="13" x="1356.261" y="555.0882">1</text><text fill="#000000" font-family="sans-serif" font-size="20" lengthAdjust="spacing" textLength="13" x="1194.5795" y="1194.9082">1</text></g><!--link Agent to User--><g id="link_Agent_User"><path codeLine="119" d="M955,992.7983 C971.14,1021.8383 1003.48,1076.8983 1038.26,1118.3583 C1069.3,1155.3583 1109.35,1192.3483 1140.96,1219.5583 " fill="none" id="Agent-User" style="stroke:#181818;stroke-width:1.0;"/><polygon fill="#000000" points="1051.3329,1112.3215,1045.7919,1098.1493,1038.5199,1104.1129,1051.3329,1112.3215" style="stroke:#000000;stroke-width:1.0;"/><text fill="#000000" font-family="sans-serif" font-size="20" lengthAdjust="spacing" textLength="16" x="1059.26" y="1113.6942">is</text><text fill="#000000" font-family="sans-serif" font-size="20" lengthAdjust="spacing" textLength="13" x="943.0335" y="1020.0951">1</text><text fill="#000000" font-family="sans-serif" font-size="20" lengthAdjust="spacing" textLength="13" x="1120.4263" y="1208.8458">1</text></g><!--link Owner to User--><g id="link_Owner_User"><path codeLine="120" d="M1030.3,725.2283 C1043.77,748.6183 1065.37,788.6483 1078.26,825.4683 C1113.98,927.5283 1101.34,958.8983 1129.26,1063.3583 C1142.38,1112.4383 1160.29,1167.3483 1173.83,1207.0383 " fill="none" id="Owner-User" style="stroke:#181818;stroke-width:1.0;"/><polygon fill="#000000" points="1139.544,979.8627,1139.9188,964.6504,1130.9056,967.3354,1139.544,979.8627" style="stroke:#000000;stroke-width:1.0;"/><text fill="#000000" font-family="sans-serif" font-size="20" lengthAdjust="spacing" textLength="16" x="1150.26" y="979.7542">is</text><text fill="#000000" font-family="sans-serif" font-size="20" lengthAdjust="spacing" textLength="13" x="1018.5811" y="752.1885">1</text><text fill="#000000" font-family="sans-serif" font-size="20" lengthAdjust="spacing" textLength="13" x="1157.6698" y="1195.1438">1</text></g><!--link NetworkManager to User--><g id="link_NetworkManager_User"><path codeLine="121" d="M1193.26,236.6483 C1193.26,273.7183 1193.26,354.9083 1193.26,423.3683 C1193.26,423.3683 1193.26,423.3683 1193.26,972.9183 C1193.26,1054.3183 1193.26,1148.5983 1193.26,1206.8683 " fill="none" id="NetworkManager-User" style="stroke:#181818;stroke-width:1.0;"/><polygon fill="#000000" points="1201.26,712.3056,1205.9623,697.8335,1196.5577,697.8335,1201.26,712.3056" style="stroke:#000000;stroke-width:1.0;"/><text fill="#000000" font-family="sans-serif" font-size="20" lengthAdjust="spacing" textLength="16" x="1214.26" y="711.8642">is</text><text fill="#000000" font-family="sans-serif" font-size="20" lengthAdjust="spacing" textLength="13" x="1178.7569" y="263.627">1</text><text fill="#000000" font-family="sans-serif" font-size="20" lengthAdjust="spacing" textLength="13" x="1179.4678" y="1194.953">1</text></g><!--link NetworkManager to Employee--><g id="link_NetworkManager_Employee"><path codeLine="122" d="M1277.63,224.9583 C1306.38,231.8983 1336.46,244.2583 1357.26,266.1483 C1371.59,281.2383 1380.9,300.7483 1386.88,320.8483 " fill="none" id="NetworkManager-Employee" style="stroke:#181818;stroke-width:1.0;"/><polygon fill="#000000" points="1388.2725,284.2029,1380.4977,271.1222,1374.2939,278.1903,1388.2725,284.2029" style="stroke:#000000;stroke-width:1.0;"/><text fill="#000000" font-family="sans-serif" font-size="20" lengthAdjust="spacing" textLength="16" x="1395.26" y="286.4842">is</text><text fill="#000000" font-family="sans-serif" font-size="20" lengthAdjust="spacing" textLength="13" x="1285.1552" y="221.1584">1</text><text fill="#000000" font-family="sans-serif" font-size="20" lengthAdjust="spacing" textLength="13" x="1372.7138" y="308.7579">1</text></g><!--link NetworkManager to Store--><g id="link_NetworkManager_Store"><path codeLine="123" d="M1108.94,235.3383 C1090.82,242.5783 1073.01,252.5283 1059.26,266.1483 C1037.99,287.2283 1024.14,316.6383 1015.17,344.3183 " fill="none" id="NetworkManager-Store" style="stroke:#181818;stroke-width:1.0;"/><polygon fill="#000000" points="1062.0422,284.9898,1075.0457,277.0866,1067.9169,270.9526,1062.0422,284.9898" style="stroke:#000000;stroke-width:1.0;"/><text fill="#000000" font-family="sans-serif" font-size="20" lengthAdjust="spacing" textLength="86" x="1080.26" y="286.4842">manages</text><text fill="#000000" font-family="sans-serif" font-size="20" lengthAdjust="spacing" textLength="13" x="1088.1352" y="232.4253">1</text><text fill="#000000" font-family="sans-serif" font-size="20" lengthAdjust="spacing" textLength="35" x="980.0284" y="332.5249">1..*</text></g><!--link Agency to Property--><g id="link_Agency_Property"><path codeLine="124" d="M791.53,742.2983 C754.69,762.7883 712.39,791.0583 682.26,825.4683 C669.42,840.1383 658.52,857.6383 649.46,875.3383 " fill="none" id="Agency-to-Property" style="stroke:#181818;stroke-width:1.0;"/><polygon fill="#181818" points="646.95,879.3383,654.5606,873.087,649.1918,874.869,647.4098,869.5002,646.95,879.3383" style="stroke:#181818;stroke-width:1.0;"/><polygon fill="#000000" points="684.4206,843.7139,698.1983,837.254,691.77,830.3894,684.4206,843.7139" style="stroke:#000000;stroke-width:1.0;"/><text fill="#000000" font-family="sans-serif" font-size="20" lengthAdjust="spacing" textLength="39" x="703.26" y="845.8042">lists</text><text fill="#000000" font-family="sans-serif" font-size="20" lengthAdjust="spacing" textLength="13" x="770.6729" y="741.1275">1</text><text fill="#000000" font-family="sans-serif" font-size="20" lengthAdjust="spacing" textLength="35" x="613.2079" y="868.1616">1..*</text></g><!--SRC=[hLLBJzmm4BxxLrXxGK8gWXvHXOI0gXnegoBEbjUUJQnrngdj25BK_zwnyzpTGA7gNZQU-UQRfyTXQx2MNbRMgIrehc4Z6ni_EuptvXVmZwSi311UENIgzAu27dq3CqqjrLOMS1zR2zo3YX8BEmU4KchtQB3W6sa3iAD9PGr2R6lWpiVIiICBcyYZuzuKPUJQ93hZS4Qch0pXCaPlras4M-KmnthAIgE1A-CL-SxV5H2b3en54ocoQrT9W_pEQR2CiSp3RwhQkXRWcQ6iW2aJYGo5abuBRAerU1Rbq_0fjVOG0WDYic8uKGXHgaZIZkk7emX-3nxksn2XkjILGHEYbz7vvqdx5UAZyzixYLJ1kU9cHlRCD0JbJPrBCKAkN5LBR5_GNXQ0YfItrqbl2fHPJwsUFgoeEiUiBXt2a6PERs9w22coN9zEKvEKejQp92ahuC-Cqy_e_3TtciwZutJOBM2Ix0GmydxthWOVsvuwJKh-a1xa8Qkc0ajK83OqfYAM8AYVhL20qNTs7dusGFtGelP6mU0vkYw8gNY8hY6cYanxttrEOw47cNAL2M6IJ1mqhp4HTFPTQi9jn1gqTwuA-s8PooKvqT3m5oBGFODE2K-KAQHCIP_JerQMG9N0uX0WZHSqezgak1DY3F6BQmByd_3uNyBZRm_l447EG-x5WWw5mLAkJPHh2yAwpG8eD2ZWgNQXyRERUIt9XeZx1jSqQvwMaSXCMKJLyVsHh1xGGv5OFUXq9_ZgRCK_yDNfoSdnQXpLAze6tbbB-lDXtlW5Mr2lpax8dWZ8Uepbtsm2e0uSWJeGf6-vmOtpLRuPQPj-MgGwxfWeYUcUdVEypGm6yfzMIEooJBYSvixDEETrixOcb330LRkFBpfWAHDaOHcEU08FIozNeIjriXh5iv1xP-VS14xDf5L33nYbEaUVZUZvDYMRzqNJ6z7hI8zLillsYE3tyfnLq3tcwesI6MM-S2a09P6luGNKk3bsa7jUfz86iFHAlffGfksMz6vfiwn_VVOo6k3T4p62zoCOcd31-lTeOG0ofglv0MYrz4A-QM3eBr_3tlrIt-VwlMdULHuKTwxSVQJVZvgDzQl85yg-Swyk5WQERc1g_ny0]--></g></svg>