<?xml version="1.0" encoding="us-ascii" standalone="no"?><svg xmlns="http://www.w3.org/2000/svg" xmlns:xlink="http://www.w3.org/1999/xlink" contentStyleType="text/css" height="1053px" preserveAspectRatio="none" style="width:1117px;height:1053px;background:#FFFFFF;" version="1.1" viewBox="0 0 1117 1053" width="1117px" zoomAndPan="magnify"><defs/><g><text fill="#000000" font-family="sans-serif" font-size="14" font-weight="bold" lengthAdjust="spacing" textLength="100" x="501.5" y="22.6738">Domain Model</text><!--class Employee--><g id="elem_Employee"><rect codeLine="13" fill="#F1F1F1" height="127.4844" id="Employee" rx="2.5" ry="2.5" style="stroke:#181818;stroke-width:0.5;" width="143" x="728.5" y="356.6406"/><text fill="#000000" font-family="sans-serif" font-size="14" lengthAdjust="spacing" textLength="62" x="769" y="374.3145">Employee</text><line style="stroke:#181818;stroke-width:0.5;" x1="729.5" x2="870.5" y1="382.2813" y2="382.2813"/><text fill="#000000" font-family="sans-serif" font-size="14" lengthAdjust="spacing" textLength="35" x="734.5" y="398.9551">name</text><text fill="#000000" font-family="sans-serif" font-size="14" lengthAdjust="spacing" textLength="131" x="734.5" y="414.5957">citizen_card_number</text><text fill="#000000" font-family="sans-serif" font-size="14" lengthAdjust="spacing" textLength="74" x="734.5" y="430.2363">tax_number</text><text fill="#000000" font-family="sans-serif" font-size="14" lengthAdjust="spacing" textLength="51" x="734.5" y="445.877">address</text><text fill="#000000" font-family="sans-serif" font-size="14" lengthAdjust="spacing" textLength="92" x="734.5" y="461.5176">email_address</text><text fill="#000000" font-family="sans-serif" font-size="14" lengthAdjust="spacing" textLength="46" x="734.5" y="477.1582">contact</text></g><!--class EmployeeRole--><g id="elem_EmployeeRole"><rect codeLine="22" fill="#F1F1F1" height="49.2813" id="EmployeeRole" rx="2.5" ry="2.5" style="stroke:#181818;stroke-width:0.5;" width="97" x="607.5" y="559.6406"/><text fill="#000000" font-family="sans-serif" font-size="14" lengthAdjust="spacing" textLength="91" x="610.5" y="577.3145">EmployeeRole</text><line style="stroke:#181818;stroke-width:0.5;" x1="608.5" x2="703.5" y1="585.2813" y2="585.2813"/><text fill="#000000" font-family="sans-serif" font-size="14" lengthAdjust="spacing" textLength="69" x="613.5" y="601.9551">description</text></g><!--class Company--><g id="elem_Company"><rect codeLine="26" fill="#F1F1F1" height="49.2813" id="Company" rx="2.5" ry="2.5" style="stroke:#181818;stroke-width:0.5;" width="81" x="856.5" y="43.6406"/><text fill="#000000" font-family="sans-serif" font-size="14" lengthAdjust="spacing" textLength="60" x="867" y="61.3145">Company</text><line style="stroke:#181818;stroke-width:0.5;" x1="857.5" x2="936.5" y1="69.2813" y2="69.2813"/><text fill="#000000" font-family="sans-serif" font-size="14" lengthAdjust="spacing" textLength="69" x="862.5" y="85.9551">description</text></g><!--class User--><g id="elem_User"><rect codeLine="31" fill="#F1F1F1" height="80.5625" id="User" rx="2.5" ry="2.5" style="stroke:#181818;stroke-width:0.5;" width="72" x="766" y="926.6406"/><text fill="#000000" font-family="sans-serif" font-size="14" lengthAdjust="spacing" textLength="29" x="787.5" y="944.3145">User</text><line style="stroke:#181818;stroke-width:0.5;" x1="767" x2="837" y1="952.2813" y2="952.2813"/><text fill="#000000" font-family="sans-serif" font-size="14" lengthAdjust="spacing" textLength="35" x="772" y="968.9551">name</text><text fill="#000000" font-family="sans-serif" font-size="14" lengthAdjust="spacing" textLength="33" x="772" y="984.5957">email</text><text fill="#000000" font-family="sans-serif" font-size="14" lengthAdjust="spacing" textLength="60" x="772" y="1000.2363">password</text></g><!--class Store--><g id="elem_Store"><rect codeLine="37" fill="#F1F1F1" height="111.8438" id="Store" rx="2.5" ry="2.5" style="stroke:#181818;stroke-width:0.5;" width="108" x="988" y="168.6406"/><text fill="#000000" font-family="sans-serif" font-size="14" lengthAdjust="spacing" textLength="34" x="1025" y="186.3145">Store</text><line style="stroke:#181818;stroke-width:0.5;" x1="989" x2="1095" y1="194.2813" y2="194.2813"/><text fill="#000000" font-family="sans-serif" font-size="14" lengthAdjust="spacing" textLength="11" x="994" y="210.9551">id</text><text fill="#000000" font-family="sans-serif" font-size="14" lengthAdjust="spacing" textLength="73" x="994" y="226.5957">designation</text><text fill="#000000" font-family="sans-serif" font-size="14" lengthAdjust="spacing" textLength="49" x="994" y="242.2363">location</text><text fill="#000000" font-family="sans-serif" font-size="14" lengthAdjust="spacing" textLength="92" x="994" y="257.877">email_address</text><text fill="#000000" font-family="sans-serif" font-size="14" lengthAdjust="spacing" textLength="96" x="994" y="273.5176">phone_number</text></g><!--class Property--><g id="elem_Property"><rect codeLine="45" fill="#F1F1F1" height="127.4844" id="Property" rx="2.5" ry="2.5" style="stroke:#181818;stroke-width:0.5;" width="206" x="280" y="684.6406"/><text fill="#000000" font-family="sans-serif" font-size="14" lengthAdjust="spacing" textLength="54" x="356" y="702.3145">Property</text><line style="stroke:#181818;stroke-width:0.5;" x1="281" x2="485" y1="710.2813" y2="710.2813"/><text fill="#000000" font-family="sans-serif" font-size="14" lengthAdjust="spacing" textLength="27" x="286" y="726.9551">type</text><text fill="#000000" font-family="sans-serif" font-size="14" lengthAdjust="spacing" textLength="29" x="286" y="742.5957">area</text><text fill="#000000" font-family="sans-serif" font-size="14" lengthAdjust="spacing" textLength="49" x="286" y="758.2363">location</text><text fill="#000000" font-family="sans-serif" font-size="14" lengthAdjust="spacing" textLength="194" x="286" y="773.877">distance_from_the_city_centre</text><text fill="#000000" font-family="sans-serif" font-size="14" lengthAdjust="spacing" textLength="103" x="286" y="789.5176">requested_price</text><text fill="#000000" font-family="sans-serif" font-size="14" lengthAdjust="spacing" textLength="43" x="286" y="805.1582">photos</text></g><!--class Announcement--><g id="elem_Announcement"><rect codeLine="54" fill="#F1F1F1" height="64.9219" id="Announcement" rx="2.5" ry="2.5" style="stroke:#181818;stroke-width:0.5;" width="101" x="918.5" y="934.6406"/><text fill="#000000" font-family="sans-serif" font-size="14" lengthAdjust="spacing" textLength="95" x="921.5" y="952.3145">Announcement</text><line style="stroke:#181818;stroke-width:0.5;" x1="919.5" x2="1018.5" y1="960.2813" y2="960.2813"/><text fill="#000000" font-family="sans-serif" font-size="14" lengthAdjust="spacing" textLength="69" x="924.5" y="976.9551">description</text><text fill="#000000" font-family="sans-serif" font-size="14" lengthAdjust="spacing" textLength="62" x="924.5" y="992.5957">comission</text></g><!--class Apartment--><g id="elem_Apartment"><rect codeLine="59" fill="#F1F1F1" height="111.8438" id="Apartment" rx="2.5" ry="2.5" style="stroke:#181818;stroke-width:0.5;" width="199" x="326.5" y="911.1406"/><text fill="#000000" font-family="sans-serif" font-size="14" lengthAdjust="spacing" textLength="65" x="393.5" y="928.8145">Apartment</text><line style="stroke:#181818;stroke-width:0.5;" x1="327.5" x2="524.5" y1="936.7813" y2="936.7813"/><text fill="#000000" font-family="sans-serif" font-size="14" lengthAdjust="spacing" textLength="139" x="332.5" y="953.4551">number_of_bedrooms</text><text fill="#000000" font-family="sans-serif" font-size="14" lengthAdjust="spacing" textLength="143" x="332.5" y="969.0957">number_of_bathrooms</text><text fill="#000000" font-family="sans-serif" font-size="14" lengthAdjust="spacing" textLength="176" x="332.5" y="984.7363">number_of_parking_spaces</text><text fill="#000000" font-family="sans-serif" font-size="14" lengthAdjust="spacing" textLength="185" x="332.5" y="1000.377">existence_of_central_heating</text><text fill="#000000" font-family="sans-serif" font-size="14" lengthAdjust="spacing" textLength="187" x="332.5" y="1016.0176">existence_of_air_conditioning</text></g><!--class House--><g id="elem_House"><rect codeLine="67" fill="#F1F1F1" height="158.7656" id="House" rx="2.5" ry="2.5" style="stroke:#181818;stroke-width:0.5;" width="219" x="72.5" y="887.6406"/><text fill="#000000" font-family="sans-serif" font-size="14" lengthAdjust="spacing" textLength="40" x="162" y="905.3145">House</text><line style="stroke:#181818;stroke-width:0.5;" x1="73.5" x2="290.5" y1="913.2813" y2="913.2813"/><text fill="#000000" font-family="sans-serif" font-size="14" lengthAdjust="spacing" textLength="139" x="78.5" y="929.9551">number_of_bedrooms</text><text fill="#000000" font-family="sans-serif" font-size="14" lengthAdjust="spacing" textLength="143" x="78.5" y="945.5957">number_of_bathrooms</text><text fill="#000000" font-family="sans-serif" font-size="14" lengthAdjust="spacing" textLength="172" x="78.5" y="961.2363">number_of_parking spaces</text><text fill="#000000" font-family="sans-serif" font-size="14" lengthAdjust="spacing" textLength="181" x="78.5" y="976.877">existence_of_central heating</text><text fill="#000000" font-family="sans-serif" font-size="14" lengthAdjust="spacing" textLength="187" x="78.5" y="992.5176">existence_of_air_conditioning</text><text fill="#000000" font-family="sans-serif" font-size="14" lengthAdjust="spacing" textLength="165" x="78.5" y="1008.1582">existence_of_a_basement</text><text fill="#000000" font-family="sans-serif" font-size="14" lengthAdjust="spacing" textLength="207" x="78.5" y="1023.7988">existence_of_an_inhabitable_loft</text><text fill="#000000" font-family="sans-serif" font-size="14" lengthAdjust="spacing" textLength="176" x="78.5" y="1039.4395">existence_of_sun_exposure</text></g><!--class Database--><g id="elem_Database"><rect codeLine="78" fill="#F1F1F1" height="64.9219" id="Database" rx="2.5" ry="2.5" style="stroke:#181818;stroke-width:0.5;" width="104" x="69" y="715.6406"/><text fill="#000000" font-family="sans-serif" font-size="14" lengthAdjust="spacing" textLength="61" x="90.5" y="733.3145">Database</text><line style="stroke:#181818;stroke-width:0.5;" x1="70" x2="172" y1="741.2813" y2="741.2813"/><text fill="#000000" font-family="sans-serif" font-size="14" lengthAdjust="spacing" textLength="92" x="75" y="757.9551">proprety_table</text><text fill="#000000" font-family="sans-serif" font-size="14" lengthAdjust="spacing" textLength="67" x="75" y="773.5957">user_table</text></g><!--class UnregisteredUser--><g id="elem_UnregisteredUser"><rect fill="#F1F1F1" height="33.6406" id="UnregisteredUser" rx="2.5" ry="2.5" style="stroke:#181818;stroke-width:0.5;" width="116" x="7" y="567.1406"/><text fill="#000000" font-family="sans-serif" font-size="14" lengthAdjust="spacing" textLength="110" x="10" y="584.8145">UnregisteredUser</text><line style="stroke:#181818;stroke-width:0.5;" x1="8" x2="122" y1="592.7813" y2="592.7813"/></g><!--class PropertyController--><g id="elem_PropertyController"><rect fill="#F1F1F1" height="33.6406" id="PropertyController" rx="2.5" ry="2.5" style="stroke:#181818;stroke-width:0.5;" width="122" x="216" y="567.1406"/><text fill="#000000" font-family="sans-serif" font-size="14" lengthAdjust="spacing" textLength="116" x="219" y="584.8145">PropertyController</text><line style="stroke:#181818;stroke-width:0.5;" x1="217" x2="337" y1="592.7813" y2="592.7813"/></g><!--class Agent--><g id="elem_Agent"><rect fill="#F1F1F1" height="33.6406" id="Agent" rx="2.5" ry="2.5" style="stroke:#181818;stroke-width:0.5;" width="43" x="927.5" y="731.1406"/><text fill="#000000" font-family="sans-serif" font-size="14" lengthAdjust="spacing" textLength="37" x="930.5" y="748.8145">Agent</text><line style="stroke:#181818;stroke-width:0.5;" x1="928.5" x2="969.5" y1="756.7813" y2="756.7813"/></g><!--class Agency--><g id="elem_Agency"><rect fill="#F1F1F1" height="33.6406" id="Agency" rx="2.5" ry="2.5" style="stroke:#181818;stroke-width:0.5;" width="53" x="941.5" y="567.1406"/><text fill="#000000" font-family="sans-serif" font-size="14" lengthAdjust="spacing" textLength="47" x="944.5" y="584.8145">Agency</text><line style="stroke:#181818;stroke-width:0.5;" x1="942.5" x2="993.5" y1="592.7813" y2="592.7813"/></g><!--class SystemAdministrator--><g id="elem_SystemAdministrator"><rect fill="#F1F1F1" height="33.6406" id="SystemAdministrator" rx="2.5" ry="2.5" style="stroke:#181818;stroke-width:0.5;" width="135" x="625.5" y="207.6406"/><text fill="#000000" font-family="sans-serif" font-size="14" lengthAdjust="spacing" textLength="129" x="628.5" y="225.3145">SystemAdministrator</text><line style="stroke:#181818;stroke-width:0.5;" x1="626.5" x2="759.5" y1="233.2813" y2="233.2813"/></g><!--class Owner--><g id="elem_Owner"><rect fill="#F1F1F1" height="33.6406" id="Owner" rx="2.5" ry="2.5" style="stroke:#181818;stroke-width:0.5;" width="47" x="822.5" y="567.1406"/><text fill="#000000" font-family="sans-serif" font-size="14" lengthAdjust="spacing" textLength="41" x="825.5" y="584.8145">Owner</text><line style="stroke:#181818;stroke-width:0.5;" x1="823.5" x2="868.5" y1="592.7813" y2="592.7813"/></g><!--class StoreManager--><g id="elem_StoreManager"><rect fill="#F1F1F1" height="33.6406" id="StoreManager" rx="2.5" ry="2.5" style="stroke:#181818;stroke-width:0.5;" width="96" x="994" y="51.1406"/><text fill="#000000" font-family="sans-serif" font-size="14" lengthAdjust="spacing" textLength="90" x="997" y="68.8145">StoreManager</text><line style="stroke:#181818;stroke-width:0.5;" x1="995" x2="1089" y1="76.7813" y2="76.7813"/></g><!--link UnregisteredUser to PropertyController--><g id="link_UnregisteredUser_PropertyController"><path codeLine="83" d="M123.21,584.1406 C152.02,584.1406 186.78,584.1406 215.96,584.1406 " fill="none" id="UnregisteredUser-PropertyController" style="stroke:#181818;stroke-width:1.0;"/><polygon fill="#000000" points="150.5,573.4023,141.4549,570.4634,141.4549,576.3413,150.5,573.4023" style="stroke:#000000;stroke-width:1.0;"/><text fill="#000000" font-family="sans-serif" font-size="13" lengthAdjust="spacing" textLength="43" x="154.5" y="577.9092">request</text><text fill="#000000" font-family="sans-serif" font-size="13" lengthAdjust="spacing" textLength="7" x="131.1166" y="581.0689">1</text><text fill="#000000" font-family="sans-serif" font-size="13" lengthAdjust="spacing" textLength="20" x="188.19" y="596.7231">0..*</text></g><!--link PropertyController to Database--><g id="link_PropertyController_Database"><path codeLine="84" d="M270.21,601.1506 C263.43,616.0106 252.01,638.2206 238,654.6406 C218.25,677.7806 191.98,699.1706 169.34,715.5306 " fill="none" id="PropertyController-Database" style="stroke:#181818;stroke-width:1.0;"/><polygon fill="#000000" points="250.6929,650.6524,258.8797,645.8124,254.4713,641.9246,250.6929,650.6524" style="stroke:#000000;stroke-width:1.0;"/><text fill="#000000" font-family="sans-serif" font-size="13" lengthAdjust="spacing" textLength="43" x="263" y="651.4092">request</text><text fill="#000000" font-family="sans-serif" font-size="13" lengthAdjust="spacing" textLength="11" x="255.4462" y="620.4074">1.</text><text fill="#000000" font-family="sans-serif" font-size="13" lengthAdjust="spacing" textLength="5" x="174.3675" y="704.7003">*</text></g><!--link PropertyController to Database--><g id="link_PropertyController_Database"><path codeLine="85" d="M215.72,596.6606 C145.64,610.1206 39.77,631.4606 34,638.6406 C13.2,664.5206 39.84,693.9006 68.96,715.5506 " fill="none" id="PropertyController-Database-1" style="stroke:#181818;stroke-width:1.0;"/><polygon fill="#000000" points="42.8851,643.755,34.0069,647.165,37.7068,651.7322,42.8851,643.755" style="stroke:#000000;stroke-width:1.0;"/><text fill="#000000" font-family="sans-serif" font-size="13" lengthAdjust="spacing" textLength="181" x="48" y="651.4092">sends necessary information to</text><text fill="#000000" font-family="sans-serif" font-size="13" lengthAdjust="spacing" textLength="11" x="196.9986" y="610.7372">1.</text><text fill="#000000" font-family="sans-serif" font-size="13" lengthAdjust="spacing" textLength="5" x="55.9494" y="707.5486">*</text></g><!--link PropertyController to Property--><g id="link_PropertyController_Property"><path codeLine="86" d="M299.06,601.3306 C311.17,611.0806 325.78,624.3606 336,638.6406 C345.92,652.4906 354.35,668.7706 361.21,684.4406 " fill="none" id="PropertyController-Property" style="stroke:#181818;stroke-width:1.0;"/><polygon fill="#000000" points="351.9944,650.9066,348.9311,641.9028,344.2239,645.4229,351.9944,650.9066" style="stroke:#000000;stroke-width:1.0;"/><text fill="#000000" font-family="sans-serif" font-size="13" lengthAdjust="spacing" textLength="49" x="358" y="651.4092">contains</text><text fill="#000000" font-family="sans-serif" font-size="13" lengthAdjust="spacing" textLength="5" x="300.0503" y="620.6425">*</text><text fill="#000000" font-family="sans-serif" font-size="13" lengthAdjust="spacing" textLength="7" x="351.2858" y="674.0368">1</text></g><!--link Agent to Announcement--><g id="link_Agent_Announcement"><path codeLine="87" d="M950.5,765.4506 C953.81,801.3306 961.76,887.6306 966.09,934.5206 " fill="none" id="Agent-Announcement" style="stroke:#181818;stroke-width:1.0;"/><polygon fill="#000000" points="964.4591,854.8812,966.5551,845.6045,960.7021,846.1442,964.4591,854.8812" style="stroke:#000000;stroke-width:1.0;"/><text fill="#000000" font-family="sans-serif" font-size="13" lengthAdjust="spacing" textLength="55" x="973" y="854.4092">publishes</text><text fill="#000000" font-family="sans-serif" font-size="13" lengthAdjust="spacing" textLength="7" x="942.9125" y="784.4899">1</text><text fill="#000000" font-family="sans-serif" font-size="13" lengthAdjust="spacing" textLength="20" x="943.2659" y="923.6881">1..*</text></g><!--link Agency to Agent--><g id="link_Agency_Agent"><path codeLine="88" d="M966.86,601.1706 C965.8,615.2806 964.07,636.3506 962,654.6406 C958.95,681.5506 954.35,712.7106 951.52,731.1306 " fill="none" id="Agency-Agent" style="stroke:#181818;stroke-width:1.0;"/><polygon fill="#000000" points="967.4139,651.8679,971.3928,643.2297,965.5555,642.5406,967.4139,651.8679" style="stroke:#000000;stroke-width:1.0;"/><text fill="#000000" font-family="sans-serif" font-size="13" lengthAdjust="spacing" textLength="21" x="977" y="651.4092">has</text><text fill="#000000" font-family="sans-serif" font-size="13" lengthAdjust="spacing" textLength="7" x="958.439" y="620.4335">1</text><text fill="#000000" font-family="sans-serif" font-size="13" lengthAdjust="spacing" textLength="20" x="955.9803" y="720.5029">1..*</text></g><!--link SystemAdministrator to Employee--><g id="link_SystemAdministrator_Employee"><path codeLine="89" d="M701.94,241.8006 C715.75,266.7806 743.02,316.0906 765.3,356.3806 " fill="none" id="SystemAdministrator-Employee" style="stroke:#181818;stroke-width:1.0;"/><polygon fill="#000000" points="753.4196,323.2779,751.6144,313.9402,746.4706,316.7846,753.4196,323.2779" style="stroke:#000000;stroke-width:1.0;"/><text fill="#000000" font-family="sans-serif" font-size="13" lengthAdjust="spacing" textLength="50" x="760" y="323.4092">registers</text><text fill="#000000" font-family="sans-serif" font-size="13" lengthAdjust="spacing" textLength="7" x="696.606" y="261.1034">1</text><text fill="#000000" font-family="sans-serif" font-size="13" lengthAdjust="spacing" textLength="5" x="755.9988" y="345.9698">*</text></g><!--link Employee to Agency--><g id="link_Employee_Agency"><path codeLine="90" d="M795.97,483.7706 C797.82,500.1506 802.64,516.7906 813,529.6406 C821.31,539.9406 899.37,563.5206 941.43,575.6406 " fill="none" id="Employee-Agency" style="stroke:#181818;stroke-width:1.0;"/><polygon fill="#000000" points="822.2274,524.5723,816.1493,517.2575,813.0106,522.2271,822.2274,524.5723" style="stroke:#000000;stroke-width:1.0;"/><text fill="#000000" font-family="sans-serif" font-size="13" lengthAdjust="spacing" textLength="81" x="827" y="526.4092">is assigned to</text><text fill="#000000" font-family="sans-serif" font-size="13" lengthAdjust="spacing" textLength="5" x="795.7931" y="503.708">*</text><text fill="#000000" font-family="sans-serif" font-size="13" lengthAdjust="spacing" textLength="7" x="926.3487" y="569.3622">1</text></g><!--link Employee to EmployeeRole--><g id="link_Employee_EmployeeRole"><path codeLine="91" d="M728.45,479.2006 C716.96,490.0506 705.68,501.7406 696,513.6406 C684.58,527.6806 674.44,545.3806 667.23,559.4106 " fill="none" id="Employee-EmployeeRole" style="stroke:#181818;stroke-width:1.0;"/><polygon fill="#000000" points="697.9664,525.8769,705.7904,520.4699,701.118,516.9037,697.9664,525.8769" style="stroke:#000000;stroke-width:1.0;"/><text fill="#000000" font-family="sans-serif" font-size="13" lengthAdjust="spacing" textLength="21" x="710" y="526.4092">has</text><text fill="#000000" font-family="sans-serif" font-size="13" lengthAdjust="spacing" textLength="7" x="713.7105" y="482.3399">1</text><text fill="#000000" font-family="sans-serif" font-size="13" lengthAdjust="spacing" textLength="7" x="662.2108" y="549.0794">1</text></g><!--link SystemAdministrator to EmployeeRole--><g id="link_SystemAdministrator_EmployeeRole"><path codeLine="92" d="M686.68,241.8606 C677.53,266.2906 661.03,314.2006 655,356.6406 C647.06,412.5206 654.72,427.2006 655,483.6406 C655.13,509.5506 655.45,539.2606 655.69,559.4206 " fill="none" id="SystemAdministrator-EmployeeRole" style="stroke:#181818;stroke-width:1.0;"/><polygon fill="#000000" points="659.5144,425.3787,663.3179,416.6618,657.4679,416.0909,659.5144,425.3787" style="stroke:#000000;stroke-width:1.0;"/><text fill="#000000" font-family="sans-serif" font-size="13" lengthAdjust="spacing" textLength="41" x="669" y="424.9092">defines</text><text fill="#000000" font-family="sans-serif" font-size="13" lengthAdjust="spacing" textLength="7" x="676.6726" y="261.1817">1</text><text fill="#000000" font-family="sans-serif" font-size="13" lengthAdjust="spacing" textLength="5" x="649.9348" y="548.697">*</text></g><!--link Owner to Property--><g id="link_Owner_Property"><path codeLine="93" d="M822.5,591.7506 C788.6,601.4006 724.11,620.2106 670,638.6406 C608.48,659.5906 540.42,685.2206 486.02,706.3006 " fill="none" id="Owner-Property" style="stroke:#181818;stroke-width:1.0;"/><polygon fill="#000000" points="670.2668,648.5137,679.7764,648.3808,677.8821,642.8166,670.2668,648.5137" style="stroke:#000000;stroke-width:1.0;"/><text fill="#000000" font-family="sans-serif" font-size="13" lengthAdjust="spacing" textLength="30" x="684" y="651.4092">owns</text><text fill="#000000" font-family="sans-serif" font-size="13" lengthAdjust="spacing" textLength="7" x="807.5688" y="589.828">1</text><text fill="#000000" font-family="sans-serif" font-size="13" lengthAdjust="spacing" textLength="20" x="493.9667" y="700.6365">1..*</text></g><!--link Property to House--><g id="link_Property_House"><path codeLine="94" d="M324.86,811.9106 C303.07,835.4406 278.01,862.4806 255.04,887.2906 " fill="none" id="Property-House" style="stroke:#181818;stroke-width:1.0;"/><polygon fill="#000000" points="295.6023,853.5706,303.9049,848.9318,299.5926,844.9376,295.6023,853.5706" style="stroke:#000000;stroke-width:1.0;"/><text fill="#000000" font-family="sans-serif" font-size="13" lengthAdjust="spacing" textLength="39" x="308" y="854.4092">can be</text><text fill="#000000" font-family="sans-serif" font-size="13" lengthAdjust="spacing" textLength="7" x="310.7329" y="831.8642">1</text><text fill="#000000" font-family="sans-serif" font-size="13" lengthAdjust="spacing" textLength="5" x="256.7633" y="876.8174">*</text></g><!--link Property to Apartment--><g id="link_Property_Apartment"><path codeLine="95" d="M395.44,811.9106 C401.64,843.2006 409.07,880.7006 415.05,910.8906 " fill="none" id="Property-Apartment" style="stroke:#181818;stroke-width:1.0;"/><polygon fill="#000000" points="409.9717,854.807,411.0968,845.3632,405.331,846.5055,409.9717,854.807" style="stroke:#000000;stroke-width:1.0;"/><text fill="#000000" font-family="sans-serif" font-size="13" lengthAdjust="spacing" textLength="39" x="418" y="854.4092">can be</text><text fill="#000000" font-family="sans-serif" font-size="13" lengthAdjust="spacing" textLength="7" x="389.4737" y="831.8642">1</text><text fill="#000000" font-family="sans-serif" font-size="13" lengthAdjust="spacing" textLength="5" x="408.2427" y="900.2056">*</text></g><!--link Owner to Agent--><g id="link_Owner_Agent"><path codeLine="96" d="M856.25,601.2706 C876,632.3206 919.08,700.0806 938.79,731.0806 " fill="none" id="Owner-Agent" style="stroke:#181818;stroke-width:1.0;"/><polygon fill="#000000" points="895.6828,651.1216,893.3096,641.9119,888.3495,645.0658,895.6828,651.1216" style="stroke:#000000;stroke-width:1.0;"/><text fill="#000000" font-family="sans-serif" font-size="13" lengthAdjust="spacing" textLength="42" x="902" y="651.4092">selects</text><text fill="#000000" font-family="sans-serif" font-size="13" lengthAdjust="spacing" textLength="7" x="851.3172" y="620.5642">1</text><text fill="#000000" font-family="sans-serif" font-size="13" lengthAdjust="spacing" textLength="7" x="926.9058" y="720.4351">1</text></g><!--link SystemAdministrator to Store--><g id="link_SystemAdministrator_Store"><path codeLine="97" d="M760.7,224.6406 C827.01,224.6406 926.74,224.6406 987.92,224.6406 " fill="none" id="SystemAdministrator-Store" style="stroke:#181818;stroke-width:1.0;"/><polygon fill="#000000" points="851.75,213.9023,842.7049,210.9634,842.7049,216.8413,851.75,213.9023" style="stroke:#000000;stroke-width:1.0;"/><text fill="#000000" font-family="sans-serif" font-size="13" lengthAdjust="spacing" textLength="50" x="855.75" y="218.4092">registers</text><text fill="#000000" font-family="sans-serif" font-size="13" lengthAdjust="spacing" textLength="7" x="768.4875" y="221.6918">1</text><text fill="#000000" font-family="sans-serif" font-size="13" lengthAdjust="spacing" textLength="5" x="974.9634" y="221.4726">*</text></g><!--link StoreManager to Store--><g id="link_StoreManager_Store"><path codeLine="98" d="M1042,85.3806 C1042,104.9806 1042,138.9706 1042,168.3406 " fill="none" id="StoreManager-Store" style="stroke:#181818;stroke-width:1.0;"/><polygon fill="#000000" points="1047,135.9023,1049.9389,126.8573,1044.0611,126.8573,1047,135.9023" style="stroke:#000000;stroke-width:1.0;"/><text fill="#000000" font-family="sans-serif" font-size="13" lengthAdjust="spacing" textLength="53" x="1056" y="135.4092">manages</text><text fill="#000000" font-family="sans-serif" font-size="13" lengthAdjust="spacing" textLength="7" x="1033.9719" y="104.3993">1</text><text fill="#000000" font-family="sans-serif" font-size="13" lengthAdjust="spacing" textLength="20" x="1020.7188" y="158.0424">1..*</text></g><!--link Store to Agency--><g id="link_Store_Agency"><path codeLine="99" d="M1030.6,280.7206 C1013.37,363.9606 981.61,517.3806 971.32,567.1206 " fill="none" id="Store-Agency" style="stroke:#181818;stroke-width:1.0;"/><polygon fill="#000000" points="1017.9866,425.2986,1022.6978,417.0369,1016.942,415.8455,1017.9866,425.2986" style="stroke:#000000;stroke-width:1.0;"/><text fill="#000000" font-family="sans-serif" font-size="13" lengthAdjust="spacing" textLength="10" x="1028" y="424.9092">is</text><text fill="#000000" font-family="sans-serif" font-size="13" lengthAdjust="spacing" textLength="7" x="1021.7841" y="300.2185">1</text><text fill="#000000" font-family="sans-serif" font-size="13" lengthAdjust="spacing" textLength="7" x="973.7496" y="556.4893">1</text></g><!--link Company to Agency--><g id="link_Company_Agency"><path codeLine="100" d="M900.28,92.9006 C912.53,181.5506 955.37,491.7306 965.73,566.7306 " fill="none" id="Company-Agency" style="stroke:#181818;stroke-width:1.0;"/><polygon fill="#000000" points="937.6842,323.8553,939.3578,314.4932,933.5352,315.2974,937.6842,323.8553" style="stroke:#000000;stroke-width:1.0;"/><text fill="#000000" font-family="sans-serif" font-size="13" lengthAdjust="spacing" textLength="21" x="946" y="323.4092">has</text><text fill="#000000" font-family="sans-serif" font-size="13" lengthAdjust="spacing" textLength="7" x="893.2236" y="112.8387">1</text><text fill="#000000" font-family="sans-serif" font-size="13" lengthAdjust="spacing" textLength="20" x="941.5122" y="556.26">1..*</text></g><!--link Company to SystemAdministrator--><g id="link_Company_SystemAdministrator"><path codeLine="101" d="M865.57,92.9406 C823.55,124.7706 750.18,180.3406 714.16,207.6106 " fill="none" id="Company-SystemAdministrator" style="stroke:#181818;stroke-width:1.0;"/><polygon fill="#000000" points="826.0141,133.9211,834.999,130.803,831.4503,126.1173,826.0141,133.9211" style="stroke:#000000;stroke-width:1.0;"/><text fill="#000000" font-family="sans-serif" font-size="13" lengthAdjust="spacing" textLength="21" x="839" y="135.4092">has</text><text fill="#000000" font-family="sans-serif" font-size="13" lengthAdjust="spacing" textLength="7" x="849.6192" y="112.889">1</text><text fill="#000000" font-family="sans-serif" font-size="13" lengthAdjust="spacing" textLength="7" x="713.4514" y="196.9757">1</text></g><!--link SystemAdministrator to User--><g id="link_SystemAdministrator_User"><path codeLine="102" d="M668.89,241.6506 C627.42,271.3206 547,339.1806 547,419.1406 C547,419.1406 547,419.1406 547,749.1406 C547,862.6406 695.33,929.2406 765.74,954.4506 " fill="none" id="SystemAdministrator-User" style="stroke:#181818;stroke-width:1.0;"/><polygon fill="#000000" points="552.6732,589.3568,554.3676,579.9984,548.5432,580.7898,552.6732,589.3568" style="stroke:#000000;stroke-width:1.0;"/><text fill="#000000" font-family="sans-serif" font-size="13" lengthAdjust="spacing" textLength="10" x="561" y="588.9092">is</text><text fill="#000000" font-family="sans-serif" font-size="13" lengthAdjust="spacing" textLength="7" x="653.4344" y="260.9074">1</text><text fill="#000000" font-family="sans-serif" font-size="13" lengthAdjust="spacing" textLength="7" x="750.9123" y="948.4373">1</text></g><!--link Employee to User--><g id="link_Employee_User"><path codeLine="103" d="M796.15,483.8206 C795.67,493.7906 795.26,503.9906 795,513.6406 C794.81,520.7506 794.94,522.5306 795,529.6406 C796.17,675.9106 799.56,849.7306 801.15,926.4206 " fill="none" id="Employee-User" style="stroke:#181818;stroke-width:1.0;"/><polygon fill="#000000" points="801.0565,651.902,803.893,642.8243,798.0156,642.8907,801.0565,651.902" style="stroke:#000000;stroke-width:1.0;"/><text fill="#000000" font-family="sans-serif" font-size="13" lengthAdjust="spacing" textLength="10" x="810" y="651.4092">is</text><text fill="#000000" font-family="sans-serif" font-size="13" lengthAdjust="spacing" textLength="7" x="788.3002" y="503.7638">1</text><text fill="#000000" font-family="sans-serif" font-size="13" lengthAdjust="spacing" textLength="7" x="793.3752" y="915.7746">1</text></g><!--link Agent to User--><g id="link_Agent_User"><path codeLine="104" d="M937.95,765.4506 C914.98,799.3606 861.51,878.3006 828.89,926.4506 " fill="none" id="Agent-User" style="stroke:#181818;stroke-width:1.0;"/><polygon fill="#000000" points="886.1958,854.042,893.7018,848.2015,888.8354,844.9051,886.1958,854.042" style="stroke:#000000;stroke-width:1.0;"/><text fill="#000000" font-family="sans-serif" font-size="13" lengthAdjust="spacing" textLength="10" x="898" y="854.4092">is</text><text fill="#000000" font-family="sans-serif" font-size="13" lengthAdjust="spacing" textLength="7" x="926.6759" y="784.4899">1</text><text fill="#000000" font-family="sans-serif" font-size="13" lengthAdjust="spacing" textLength="7" x="826.0563" y="915.81">1</text></g><!--link Owner to User--><g id="link_Owner_User"><path codeLine="105" d="M844.11,601.5106 C837.61,657.7706 816.08,844.2506 806.57,926.5306 " fill="none" id="Owner-User" style="stroke:#181818;stroke-width:1.0;"/><polygon fill="#000000" points="837.4263,753.3693,841.3836,744.7212,835.5446,744.0468,837.4263,753.3693" style="stroke:#000000;stroke-width:1.0;"/><text fill="#000000" font-family="sans-serif" font-size="13" lengthAdjust="spacing" textLength="10" x="847" y="752.9092">is</text><text fill="#000000" font-family="sans-serif" font-size="13" lengthAdjust="spacing" textLength="7" x="835.5267" y="620.5675">1</text><text fill="#000000" font-family="sans-serif" font-size="13" lengthAdjust="spacing" textLength="7" x="808.0075" y="915.9042">1</text></g><!--SRC=[hLLBQnin4BxhLmXV0e66v6fA82I5zX1QQd8MiZJU5T5ZEzBYR4F_UqVQXzVsjarBVV5gvfjl7fePnMVZ6udISHTyK3K61pnX2onEcaQgPrd19dKME89AqbTs3eYrr65lVCLtqaPW5mULDHvIrm0FcEh0BYpi4a-1ewdgnBN9T2Ru6PcoCiQxbD1ismIVLF0RyntuDQkD1guCAl9TlXqGfOwC9PCeieVWfF7yCMYmZB72mp-uneOEu9LvwO0fauZC2oLH2z-wBI1BycNyb5eZnCY0cAmOJnH2aYgn7wUaNuCbOWrHeMbA6XFaFhX6-kvCEwYV8k0GKl756fBk0-e3moO51FxAEFsCBd_4PIel2rS-sw0EX-EOiwIfWuSnjOdt2uO6C7K3TRwSyY4Hv3chDf6kMu7OKMU8L8EW4dP2WK_Oso5yQo4cqA91es3qd48VnEJtpllG4fCZqy7taDDKdr6cWZCn7YG73cgHb0bw-pur4NPY2nf3SF5KB5Ez92SQwhTAH6fjw9NmGfb2pfJq9JrfHGrK2L-T0wH1GMsXJOux8wOGFuOsmly9Z_yXFFxsyCuHv3oMkrZGUM5yBRScoQq5OSDk0HHRB-2b2R6bFfYoVv1aGyJ31JVKQqZpBmfJ4L5rS3YIrPD7g38hWiupmLStA_wEhwwlhYvNKwlUqm1Yi9Rqwx7V-2rRKAzkhiYU2CXwYkNVR29u7Ra7ke4eiUF6xmAwCXbvWRrVfBhicIY9mvojULaWnaVoVrVbzYzPPbn9ysWorhnfjzR46aQuwaxnLG-iPOPiEYgVkzFEU2eaIbeR4vx0uwugLUXBdQqcyIpamTcQcyZfCcdLWCwfpj4t4tg-1Cdcxw8PZ3Jiw7t8Tf_t7l0apra5mxvKRvBCACl0vG2Kz7mBlq1Dc-C8UUBrKDe8bXwctoPKQFibVLpQ8dkKdfxCqun6k2lQ2NmQmNW9jsnuHXOQe63wcf-1oD52r6zf6FehOpYuNxhtkVwacu-LPyMTAty2]--></g></svg>