<?xml version="1.0" encoding="us-ascii" standalone="no"?><svg xmlns="http://www.w3.org/2000/svg" xmlns:xlink="http://www.w3.org/1999/xlink" contentStyleType="text/css" height="372px" preserveAspectRatio="none" style="width:2757px;height:372px;background:#FFFFFF;" version="1.1" viewBox="0 0 2757 372" width="2757px" zoomAndPan="magnify"><defs/><g><!--class SystemAdministrator--><g id="elem_SystemAdministrator"><rect codeLine="5" fill="#F1F1F1" height="48" id="SystemAdministrator" rx="2.5" ry="2.5" style="stroke:#181818;stroke-width:0.5;" width="161" x="7" y="195.96"/><ellipse cx="22" cy="211.96" fill="#C2C2C2" rx="11" ry="11" style="stroke:#181818;stroke-width:1.0;"/><path d="M24.7656,207.835 Q24.9219,207.6162 25.1094,207.5069 Q25.2969,207.3975 25.5156,207.3975 Q25.8906,207.3975 26.125,207.6631 Q26.3594,207.9131 26.3594,208.5225 L26.3594,209.9756 Q26.3594,210.585 26.125,210.8506 Q25.8906,211.1162 25.5156,211.1162 Q25.1719,211.1162 24.9688,210.9131 Q24.7656,210.7256 24.6563,210.21 Q24.6094,209.8506 24.4219,209.6631 Q24.0938,209.2881 23.4844,209.0694 Q22.875,208.8506 22.25,208.8506 Q21.4844,208.8506 20.8438,209.1787 Q20.2188,209.5069 19.7188,210.2569 Q19.2344,211.0069 19.2344,212.0381 L19.2344,213.1319 Q19.2344,214.3662 20.125,215.1944 Q21.0156,216.0069 22.6094,216.0069 Q23.5469,216.0069 24.2031,215.7569 Q24.5938,215.6006 25.0156,215.1631 Q25.2813,214.8975 25.4219,214.8194 Q25.5781,214.7412 25.7813,214.7412 Q26.1094,214.7412 26.3594,215.0069 Q26.625,215.2569 26.625,215.6006 Q26.625,215.9444 26.2813,216.3506 Q25.7813,216.9287 24.9844,217.2569 Q23.9063,217.71 22.6094,217.71 Q21.0938,217.71 19.8906,217.085 Q18.9063,216.585 18.2188,215.5225 Q17.5313,214.4444 17.5313,213.1631 L17.5313,212.0069 Q17.5313,210.6787 18.1406,209.5381 Q18.7656,208.3819 19.8594,207.7725 Q20.9531,207.1475 22.1875,207.1475 Q22.9219,207.1475 23.5625,207.3194 Q24.2188,207.4756 24.7656,207.835 Z " fill="#000000"/><text fill="#000000" font-family="sans-serif" font-size="14" lengthAdjust="spacing" textLength="129" x="36" y="217.7569">SystemAdministrator</text><line style="stroke:#181818;stroke-width:0.5;" x1="8" x2="167" y1="227.96" y2="227.96"/><line style="stroke:#181818;stroke-width:0.5;" x1="8" x2="167" y1="235.96" y2="235.96"/></g><!--class RegisterEmployeeUI--><g id="elem_RegisterEmployeeUI"><rect codeLine="8" fill="#F1F1F1" height="103.8633" id="RegisterEmployeeUI" rx="2.5" ry="2.5" style="stroke:#181818;stroke-width:0.5;" width="245" x="203" y="167.96"/><ellipse cx="257.75" cy="183.96" fill="#C2C2C2" rx="11" ry="11" style="stroke:#181818;stroke-width:1.0;"/><path d="M260.5156,179.835 Q260.6719,179.6162 260.8594,179.5069 Q261.0469,179.3975 261.2656,179.3975 Q261.6406,179.3975 261.875,179.6631 Q262.1094,179.9131 262.1094,180.5225 L262.1094,181.9756 Q262.1094,182.585 261.875,182.8506 Q261.6406,183.1162 261.2656,183.1162 Q260.9219,183.1162 260.7188,182.9131 Q260.5156,182.7256 260.4063,182.21 Q260.3594,181.8506 260.1719,181.6631 Q259.8438,181.2881 259.2344,181.0694 Q258.625,180.8506 258,180.8506 Q257.2344,180.8506 256.5938,181.1787 Q255.9688,181.5069 255.4688,182.2569 Q254.9844,183.0069 254.9844,184.0381 L254.9844,185.1319 Q254.9844,186.3662 255.875,187.1944 Q256.7656,188.0069 258.3594,188.0069 Q259.2969,188.0069 259.9531,187.7569 Q260.3438,187.6006 260.7656,187.1631 Q261.0313,186.8975 261.1719,186.8194 Q261.3281,186.7412 261.5313,186.7412 Q261.8594,186.7412 262.1094,187.0069 Q262.375,187.2569 262.375,187.6006 Q262.375,187.9444 262.0313,188.3506 Q261.5313,188.9287 260.7344,189.2569 Q259.6563,189.71 258.3594,189.71 Q256.8438,189.71 255.6406,189.085 Q254.6563,188.585 253.9688,187.5225 Q253.2813,186.4444 253.2813,185.1631 L253.2813,184.0069 Q253.2813,182.6787 253.8906,181.5381 Q254.5156,180.3819 255.6094,179.7725 Q256.7031,179.1475 257.9375,179.1475 Q258.6719,179.1475 259.3125,179.3194 Q259.9688,179.4756 260.5156,179.835 Z " fill="#000000"/><text fill="#000000" font-family="sans-serif" font-size="14" lengthAdjust="spacing" textLength="127" x="278.25" y="189.7569">RegisterEmployeeUI</text><line style="stroke:#181818;stroke-width:0.5;" x1="204" x2="447" y1="199.96" y2="199.96"/><line style="stroke:#181818;stroke-width:0.5;" x1="204" x2="447" y1="207.96" y2="207.96"/><ellipse cx="214" cy="222.7705" fill="#A6A6A6" rx="3" ry="3" style="stroke:#545454;stroke-width:1.0;"/><text fill="#000000" font-family="sans-serif" font-size="14" lengthAdjust="spacing" textLength="50" x="223" y="227.0674">create()</text><ellipse cx="214" cy="241.3916" fill="#A6A6A6" rx="3" ry="3" style="stroke:#545454;stroke-width:1.0;"/><text fill="#000000" font-family="sans-serif" font-size="14" lengthAdjust="spacing" textLength="219" x="223" y="245.6885">display(employee, roles, agencies)</text><ellipse cx="214" cy="260.0127" fill="#A6A6A6" rx="3" ry="3" style="stroke:#545454;stroke-width:1.0;"/><text fill="#000000" font-family="sans-serif" font-size="14" lengthAdjust="spacing" textLength="122" x="223" y="264.3096">getEmployeeData()</text></g><!--class EmployeeController--><g id="elem_EmployeeController"><rect codeLine="14" fill="#F1F1F1" height="122.4844" id="EmployeeController" rx="2.5" ry="2.5" style="stroke:#181818;stroke-width:0.5;" width="304" x="483.5" y="158.96"/><ellipse cx="569.25" cy="174.96" fill="#C2C2C2" rx="11" ry="11" style="stroke:#181818;stroke-width:1.0;"/><path d="M572.0156,170.835 Q572.1719,170.6162 572.3594,170.5069 Q572.5469,170.3975 572.7656,170.3975 Q573.1406,170.3975 573.375,170.6631 Q573.6094,170.9131 573.6094,171.5225 L573.6094,172.9756 Q573.6094,173.585 573.375,173.8506 Q573.1406,174.1162 572.7656,174.1162 Q572.4219,174.1162 572.2188,173.9131 Q572.0156,173.7256 571.9063,173.21 Q571.8594,172.8506 571.6719,172.6631 Q571.3438,172.2881 570.7344,172.0694 Q570.125,171.8506 569.5,171.8506 Q568.7344,171.8506 568.0938,172.1787 Q567.4688,172.5069 566.9688,173.2569 Q566.4844,174.0069 566.4844,175.0381 L566.4844,176.1319 Q566.4844,177.3662 567.375,178.1944 Q568.2656,179.0069 569.8594,179.0069 Q570.7969,179.0069 571.4531,178.7569 Q571.8438,178.6006 572.2656,178.1631 Q572.5313,177.8975 572.6719,177.8194 Q572.8281,177.7412 573.0313,177.7412 Q573.3594,177.7412 573.6094,178.0069 Q573.875,178.2569 573.875,178.6006 Q573.875,178.9444 573.5313,179.3506 Q573.0313,179.9287 572.2344,180.2569 Q571.1563,180.71 569.8594,180.71 Q568.3438,180.71 567.1406,180.085 Q566.1563,179.585 565.4688,178.5225 Q564.7813,177.4444 564.7813,176.1631 L564.7813,175.0069 Q564.7813,173.6787 565.3906,172.5381 Q566.0156,171.3819 567.1094,170.7725 Q568.2031,170.1475 569.4375,170.1475 Q570.1719,170.1475 570.8125,170.3194 Q571.4688,170.4756 572.0156,170.835 Z " fill="#000000"/><text fill="#000000" font-family="sans-serif" font-size="14" lengthAdjust="spacing" textLength="124" x="589.75" y="180.7569">EmployeeController</text><line style="stroke:#181818;stroke-width:0.5;" x1="484.5" x2="786.5" y1="190.96" y2="190.96"/><rect fill="none" height="6" style="stroke:#595959;stroke-width:1.0;" width="6" x="491.5" y="202.7705"/><text fill="#000000" font-family="sans-serif" font-size="14" lengthAdjust="spacing" textLength="92" x="503.5" y="210.0674">roleRepository</text><rect fill="none" height="6" style="stroke:#595959;stroke-width:1.0;" width="6" x="491.5" y="221.3916"/><text fill="#000000" font-family="sans-serif" font-size="14" lengthAdjust="spacing" textLength="114" x="503.5" y="228.6885">agencyRepository</text><rect fill="none" height="6" style="stroke:#595959;stroke-width:1.0;" width="6" x="491.5" y="240.0127"/><text fill="#000000" font-family="sans-serif" font-size="14" lengthAdjust="spacing" textLength="129" x="503.5" y="247.3096">employeeRepository</text><line style="stroke:#181818;stroke-width:0.5;" x1="484.5" x2="786.5" y1="254.8233" y2="254.8233"/><ellipse cx="494.5" cy="269.6338" fill="#A6A6A6" rx="3" ry="3" style="stroke:#545454;stroke-width:1.0;"/><text fill="#000000" font-family="sans-serif" font-size="14" lengthAdjust="spacing" textLength="278" x="503.5" y="273.9307">create(name, email, role, agency, startDate)</text></g><!--class EmployeeRepository--><g id="elem_EmployeeRepository"><rect codeLine="22" fill="#F1F1F1" height="103.8633" id="EmployeeRepository" rx="2.5" ry="2.5" style="stroke:#181818;stroke-width:0.5;" width="336" x="1925.5" y="167.96"/><ellipse cx="2024.25" cy="183.96" fill="#C2C2C2" rx="11" ry="11" style="stroke:#181818;stroke-width:1.0;"/><path d="M2027.0156,179.835 Q2027.1719,179.6162 2027.3594,179.5069 Q2027.5469,179.3975 2027.7656,179.3975 Q2028.1406,179.3975 2028.375,179.6631 Q2028.6094,179.9131 2028.6094,180.5225 L2028.6094,181.9756 Q2028.6094,182.585 2028.375,182.8506 Q2028.1406,183.1162 2027.7656,183.1162 Q2027.4219,183.1162 2027.2188,182.9131 Q2027.0156,182.7256 2026.9063,182.21 Q2026.8594,181.8506 2026.6719,181.6631 Q2026.3438,181.2881 2025.7344,181.0694 Q2025.125,180.8506 2024.5,180.8506 Q2023.7344,180.8506 2023.0938,181.1787 Q2022.4688,181.5069 2021.9688,182.2569 Q2021.4844,183.0069 2021.4844,184.0381 L2021.4844,185.1319 Q2021.4844,186.3662 2022.375,187.1944 Q2023.2656,188.0069 2024.8594,188.0069 Q2025.7969,188.0069 2026.4531,187.7569 Q2026.8438,187.6006 2027.2656,187.1631 Q2027.5313,186.8975 2027.6719,186.8194 Q2027.8281,186.7412 2028.0313,186.7412 Q2028.3594,186.7412 2028.6094,187.0069 Q2028.875,187.2569 2028.875,187.6006 Q2028.875,187.9444 2028.5313,188.3506 Q2028.0313,188.9287 2027.2344,189.2569 Q2026.1563,189.71 2024.8594,189.71 Q2023.3438,189.71 2022.1406,189.085 Q2021.1563,188.585 2020.4688,187.5225 Q2019.7813,186.4444 2019.7813,185.1631 L2019.7813,184.0069 Q2019.7813,182.6787 2020.3906,181.5381 Q2021.0156,180.3819 2022.1094,179.7725 Q2023.2031,179.1475 2024.4375,179.1475 Q2025.1719,179.1475 2025.8125,179.3194 Q2026.4688,179.4756 2027.0156,179.835 Z " fill="#000000"/><text fill="#000000" font-family="sans-serif" font-size="14" lengthAdjust="spacing" textLength="130" x="2044.75" y="189.7569">EmployeeRepository</text><line style="stroke:#181818;stroke-width:0.5;" x1="1926.5" x2="2260.5" y1="199.96" y2="199.96"/><line style="stroke:#181818;stroke-width:0.5;" x1="1926.5" x2="2260.5" y1="207.96" y2="207.96"/><ellipse cx="1936.5" cy="222.7705" fill="#A6A6A6" rx="3" ry="3" style="stroke:#545454;stroke-width:1.0;"/><text fill="#000000" font-family="sans-serif" font-size="14" lengthAdjust="spacing" textLength="111" x="1945.5" y="227.0674">create(employee)</text><ellipse cx="1936.5" cy="241.3916" fill="#A6A6A6" rx="3" ry="3" style="stroke:#545454;stroke-width:1.0;"/><text fill="#000000" font-family="sans-serif" font-size="14" lengthAdjust="spacing" textLength="116" x="1945.5" y="245.6885">findByEmail(email)</text><ellipse cx="1936.5" cy="260.0127" fill="#A6A6A6" rx="3" ry="3" style="stroke:#545454;stroke-width:1.0;"/><text fill="#000000" font-family="sans-serif" font-size="14" lengthAdjust="spacing" textLength="310" x="1945.5" y="264.3096">update(employee, name, role, agency, startDate)</text></g><!--class Employee--><g id="elem_Employee"><rect codeLine="28" fill="#F1F1F1" height="290.0742" id="Employee" rx="2.5" ry="2.5" style="stroke:#181818;stroke-width:0.5;" width="243" x="2297" y="74.96"/><ellipse cx="2383.25" cy="90.96" fill="#C2C2C2" rx="11" ry="11" style="stroke:#181818;stroke-width:1.0;"/><path d="M2386.0156,86.835 Q2386.1719,86.6162 2386.3594,86.5069 Q2386.5469,86.3975 2386.7656,86.3975 Q2387.1406,86.3975 2387.375,86.6631 Q2387.6094,86.9131 2387.6094,87.5225 L2387.6094,88.9756 Q2387.6094,89.585 2387.375,89.8506 Q2387.1406,90.1162 2386.7656,90.1162 Q2386.4219,90.1162 2386.2188,89.9131 Q2386.0156,89.7256 2385.9063,89.21 Q2385.8594,88.8506 2385.6719,88.6631 Q2385.3438,88.2881 2384.7344,88.0694 Q2384.125,87.8506 2383.5,87.8506 Q2382.7344,87.8506 2382.0938,88.1787 Q2381.4688,88.5069 2380.9688,89.2569 Q2380.4844,90.0069 2380.4844,91.0381 L2380.4844,92.1319 Q2380.4844,93.3662 2381.375,94.1944 Q2382.2656,95.0069 2383.8594,95.0069 Q2384.7969,95.0069 2385.4531,94.7569 Q2385.8438,94.6006 2386.2656,94.1631 Q2386.5313,93.8975 2386.6719,93.8194 Q2386.8281,93.7412 2387.0313,93.7412 Q2387.3594,93.7412 2387.6094,94.0069 Q2387.875,94.2569 2387.875,94.6006 Q2387.875,94.9444 2387.5313,95.3506 Q2387.0313,95.9287 2386.2344,96.2569 Q2385.1563,96.71 2383.8594,96.71 Q2382.3438,96.71 2381.1406,96.085 Q2380.1563,95.585 2379.4688,94.5225 Q2378.7813,93.4444 2378.7813,92.1631 L2378.7813,91.0069 Q2378.7813,89.6787 2379.3906,88.5381 Q2380.0156,87.3819 2381.1094,86.7725 Q2382.2031,86.1475 2383.4375,86.1475 Q2384.1719,86.1475 2384.8125,86.3194 Q2385.4688,86.4756 2386.0156,86.835 Z " fill="#000000"/><text fill="#000000" font-family="sans-serif" font-size="14" lengthAdjust="spacing" textLength="62" x="2403.75" y="96.7569">Employee</text><line style="stroke:#181818;stroke-width:0.5;" x1="2298" x2="2539" y1="106.96" y2="106.96"/><rect fill="none" height="6" style="stroke:#595959;stroke-width:1.0;" width="6" x="2305" y="118.7705"/><text fill="#000000" font-family="sans-serif" font-size="14" lengthAdjust="spacing" textLength="35" x="2317" y="126.0674">name</text><rect fill="none" height="6" style="stroke:#595959;stroke-width:1.0;" width="6" x="2305" y="137.3916"/><text fill="#000000" font-family="sans-serif" font-size="14" lengthAdjust="spacing" textLength="131" x="2317" y="144.6885">citizen_card_number</text><rect fill="none" height="6" style="stroke:#595959;stroke-width:1.0;" width="6" x="2305" y="156.0127"/><text fill="#000000" font-family="sans-serif" font-size="14" lengthAdjust="spacing" textLength="74" x="2317" y="163.3096">tax_number</text><rect fill="none" height="6" style="stroke:#595959;stroke-width:1.0;" width="6" x="2305" y="174.6338"/><text fill="#000000" font-family="sans-serif" font-size="14" lengthAdjust="spacing" textLength="51" x="2317" y="181.9307">address</text><rect fill="none" height="6" style="stroke:#595959;stroke-width:1.0;" width="6" x="2305" y="193.2549"/><text fill="#000000" font-family="sans-serif" font-size="14" lengthAdjust="spacing" textLength="92" x="2317" y="200.5518">email_address</text><rect fill="none" height="6" style="stroke:#595959;stroke-width:1.0;" width="6" x="2305" y="211.876"/><text fill="#000000" font-family="sans-serif" font-size="14" lengthAdjust="spacing" textLength="46" x="2317" y="219.1729">contact</text><line style="stroke:#181818;stroke-width:0.5;" x1="2298" x2="2539" y1="226.6866" y2="226.6866"/><ellipse cx="2308" cy="241.4971" fill="#A6A6A6" rx="3" ry="3" style="stroke:#545454;stroke-width:1.0;"/><text fill="#000000" font-family="sans-serif" font-size="14" lengthAdjust="spacing" textLength="100" x="2317" y="245.794">setName(name)</text><ellipse cx="2308" cy="260.1182" fill="#A6A6A6" rx="3" ry="3" style="stroke:#545454;stroke-width:1.0;"/><text fill="#000000" font-family="sans-serif" font-size="14" lengthAdjust="spacing" textLength="217" x="2317" y="264.4151">setCCNumber(citizenCardNumber)</text><ellipse cx="2308" cy="278.7393" fill="#A6A6A6" rx="3" ry="3" style="stroke:#545454;stroke-width:1.0;"/><text fill="#000000" font-family="sans-serif" font-size="14" lengthAdjust="spacing" textLength="168" x="2317" y="283.0362">setTaxNumber(taxNumber)</text><ellipse cx="2308" cy="297.3604" fill="#A6A6A6" rx="3" ry="3" style="stroke:#545454;stroke-width:1.0;"/><text fill="#000000" font-family="sans-serif" font-size="14" lengthAdjust="spacing" textLength="132" x="2317" y="301.6573">setAddress(address)</text><ellipse cx="2308" cy="315.9815" fill="#A6A6A6" rx="3" ry="3" style="stroke:#545454;stroke-width:1.0;"/><text fill="#000000" font-family="sans-serif" font-size="14" lengthAdjust="spacing" textLength="82" x="2317" y="320.2784">setRole(role)</text><ellipse cx="2308" cy="334.6026" fill="#A6A6A6" rx="3" ry="3" style="stroke:#545454;stroke-width:1.0;"/><text fill="#000000" font-family="sans-serif" font-size="14" lengthAdjust="spacing" textLength="122" x="2317" y="338.8995">setAgency(agency)</text><ellipse cx="2308" cy="353.2237" fill="#A6A6A6" rx="3" ry="3" style="stroke:#545454;stroke-width:1.0;"/><text fill="#000000" font-family="sans-serif" font-size="14" lengthAdjust="spacing" textLength="147" x="2317" y="357.5205">setStartDate(startDate)</text></g><!--class RoleRepository--><g id="elem_RoleRepository"><rect codeLine="45" fill="#F1F1F1" height="66.6211" id="RoleRepository" rx="2.5" ry="2.5" style="stroke:#181818;stroke-width:0.5;" width="129" x="1761" y="186.46"/><ellipse cx="1776" cy="202.46" fill="#C2C2C2" rx="11" ry="11" style="stroke:#181818;stroke-width:1.0;"/><path d="M1778.7656,198.335 Q1778.9219,198.1162 1779.1094,198.0069 Q1779.2969,197.8975 1779.5156,197.8975 Q1779.8906,197.8975 1780.125,198.1631 Q1780.3594,198.4131 1780.3594,199.0225 L1780.3594,200.4756 Q1780.3594,201.085 1780.125,201.3506 Q1779.8906,201.6162 1779.5156,201.6162 Q1779.1719,201.6162 1778.9688,201.4131 Q1778.7656,201.2256 1778.6563,200.71 Q1778.6094,200.3506 1778.4219,200.1631 Q1778.0938,199.7881 1777.4844,199.5694 Q1776.875,199.3506 1776.25,199.3506 Q1775.4844,199.3506 1774.8438,199.6787 Q1774.2188,200.0069 1773.7188,200.7569 Q1773.2344,201.5069 1773.2344,202.5381 L1773.2344,203.6319 Q1773.2344,204.8662 1774.125,205.6944 Q1775.0156,206.5069 1776.6094,206.5069 Q1777.5469,206.5069 1778.2031,206.2569 Q1778.5938,206.1006 1779.0156,205.6631 Q1779.2813,205.3975 1779.4219,205.3194 Q1779.5781,205.2412 1779.7813,205.2412 Q1780.1094,205.2412 1780.3594,205.5069 Q1780.625,205.7569 1780.625,206.1006 Q1780.625,206.4444 1780.2813,206.8506 Q1779.7813,207.4287 1778.9844,207.7569 Q1777.9063,208.21 1776.6094,208.21 Q1775.0938,208.21 1773.8906,207.585 Q1772.9063,207.085 1772.2188,206.0225 Q1771.5313,204.9444 1771.5313,203.6631 L1771.5313,202.5069 Q1771.5313,201.1787 1772.1406,200.0381 Q1772.7656,198.8819 1773.8594,198.2725 Q1774.9531,197.6475 1776.1875,197.6475 Q1776.9219,197.6475 1777.5625,197.8194 Q1778.2188,197.9756 1778.7656,198.335 Z " fill="#000000"/><text fill="#000000" font-family="sans-serif" font-size="14" lengthAdjust="spacing" textLength="97" x="1790" y="208.2569">RoleRepository</text><line style="stroke:#181818;stroke-width:0.5;" x1="1762" x2="1889" y1="218.46" y2="218.46"/><line style="stroke:#181818;stroke-width:0.5;" x1="1762" x2="1889" y1="226.46" y2="226.46"/><ellipse cx="1772" cy="241.2705" fill="#A6A6A6" rx="3" ry="3" style="stroke:#545454;stroke-width:1.0;"/><text fill="#000000" font-family="sans-serif" font-size="14" lengthAdjust="spacing" textLength="66" x="1781" y="245.5674">getRoles()</text></g><!--class AgencyRepository--><g id="elem_AgencyRepository"><rect codeLine="49" fill="#F1F1F1" height="66.6211" id="AgencyRepository" rx="2.5" ry="2.5" style="stroke:#181818;stroke-width:0.5;" width="147" x="1579" y="186.46"/><ellipse cx="1594" cy="202.46" fill="#C2C2C2" rx="11" ry="11" style="stroke:#181818;stroke-width:1.0;"/><path d="M1596.7656,198.335 Q1596.9219,198.1162 1597.1094,198.0069 Q1597.2969,197.8975 1597.5156,197.8975 Q1597.8906,197.8975 1598.125,198.1631 Q1598.3594,198.4131 1598.3594,199.0225 L1598.3594,200.4756 Q1598.3594,201.085 1598.125,201.3506 Q1597.8906,201.6162 1597.5156,201.6162 Q1597.1719,201.6162 1596.9688,201.4131 Q1596.7656,201.2256 1596.6563,200.71 Q1596.6094,200.3506 1596.4219,200.1631 Q1596.0938,199.7881 1595.4844,199.5694 Q1594.875,199.3506 1594.25,199.3506 Q1593.4844,199.3506 1592.8438,199.6787 Q1592.2188,200.0069 1591.7188,200.7569 Q1591.2344,201.5069 1591.2344,202.5381 L1591.2344,203.6319 Q1591.2344,204.8662 1592.125,205.6944 Q1593.0156,206.5069 1594.6094,206.5069 Q1595.5469,206.5069 1596.2031,206.2569 Q1596.5938,206.1006 1597.0156,205.6631 Q1597.2813,205.3975 1597.4219,205.3194 Q1597.5781,205.2412 1597.7813,205.2412 Q1598.1094,205.2412 1598.3594,205.5069 Q1598.625,205.7569 1598.625,206.1006 Q1598.625,206.4444 1598.2813,206.8506 Q1597.7813,207.4287 1596.9844,207.7569 Q1595.9063,208.21 1594.6094,208.21 Q1593.0938,208.21 1591.8906,207.585 Q1590.9063,207.085 1590.2188,206.0225 Q1589.5313,204.9444 1589.5313,203.6631 L1589.5313,202.5069 Q1589.5313,201.1787 1590.1406,200.0381 Q1590.7656,198.8819 1591.8594,198.2725 Q1592.9531,197.6475 1594.1875,197.6475 Q1594.9219,197.6475 1595.5625,197.8194 Q1596.2188,197.9756 1596.7656,198.335 Z " fill="#000000"/><text fill="#000000" font-family="sans-serif" font-size="14" lengthAdjust="spacing" textLength="115" x="1608" y="208.2569">AgencyRepository</text><line style="stroke:#181818;stroke-width:0.5;" x1="1580" x2="1725" y1="218.46" y2="218.46"/><line style="stroke:#181818;stroke-width:0.5;" x1="1580" x2="1725" y1="226.46" y2="226.46"/><ellipse cx="1590" cy="241.2705" fill="#A6A6A6" rx="3" ry="3" style="stroke:#545454;stroke-width:1.0;"/><text fill="#000000" font-family="sans-serif" font-size="14" lengthAdjust="spacing" textLength="88" x="1599" y="245.5674">getAgencies()</text></g><!--class ApplicationSession--><g id="elem_ApplicationSession"><rect codeLine="53" fill="#F1F1F1" height="66.6211" id="ApplicationSession" rx="2.5" ry="2.5" style="stroke:#181818;stroke-width:0.5;" width="151" x="1393" y="186.46"/><ellipse cx="1408" cy="202.46" fill="#C2C2C2" rx="11" ry="11" style="stroke:#181818;stroke-width:1.0;"/><path d="M1410.7656,198.335 Q1410.9219,198.1162 1411.1094,198.0069 Q1411.2969,197.8975 1411.5156,197.8975 Q1411.8906,197.8975 1412.125,198.1631 Q1412.3594,198.4131 1412.3594,199.0225 L1412.3594,200.4756 Q1412.3594,201.085 1412.125,201.3506 Q1411.8906,201.6162 1411.5156,201.6162 Q1411.1719,201.6162 1410.9688,201.4131 Q1410.7656,201.2256 1410.6563,200.71 Q1410.6094,200.3506 1410.4219,200.1631 Q1410.0938,199.7881 1409.4844,199.5694 Q1408.875,199.3506 1408.25,199.3506 Q1407.4844,199.3506 1406.8438,199.6787 Q1406.2188,200.0069 1405.7188,200.7569 Q1405.2344,201.5069 1405.2344,202.5381 L1405.2344,203.6319 Q1405.2344,204.8662 1406.125,205.6944 Q1407.0156,206.5069 1408.6094,206.5069 Q1409.5469,206.5069 1410.2031,206.2569 Q1410.5938,206.1006 1411.0156,205.6631 Q1411.2813,205.3975 1411.4219,205.3194 Q1411.5781,205.2412 1411.7813,205.2412 Q1412.1094,205.2412 1412.3594,205.5069 Q1412.625,205.7569 1412.625,206.1006 Q1412.625,206.4444 1412.2813,206.8506 Q1411.7813,207.4287 1410.9844,207.7569 Q1409.9063,208.21 1408.6094,208.21 Q1407.0938,208.21 1405.8906,207.585 Q1404.9063,207.085 1404.2188,206.0225 Q1403.5313,204.9444 1403.5313,203.6631 L1403.5313,202.5069 Q1403.5313,201.1787 1404.1406,200.0381 Q1404.7656,198.8819 1405.8594,198.2725 Q1406.9531,197.6475 1408.1875,197.6475 Q1408.9219,197.6475 1409.5625,197.8194 Q1410.2188,197.9756 1410.7656,198.335 Z " fill="#000000"/><text fill="#000000" font-family="sans-serif" font-size="14" lengthAdjust="spacing" textLength="119" x="1422" y="208.2569">ApplicationSession</text><line style="stroke:#181818;stroke-width:0.5;" x1="1394" x2="1543" y1="218.46" y2="218.46"/><line style="stroke:#181818;stroke-width:0.5;" x1="1394" x2="1543" y1="226.46" y2="226.46"/><ellipse cx="1404" cy="241.2705" fill="#A6A6A6" rx="3" ry="3" style="stroke:#545454;stroke-width:1.0;"/><text fill="#000000" font-family="sans-serif" font-size="14" lengthAdjust="spacing" textLength="93" x="1413" y="245.5674">getUserEmail()</text></g><!--class Organization--><g id="elem_Organization"><rect codeLine="57" fill="#F1F1F1" height="271.4531" id="Organization" rx="2.5" ry="2.5" style="stroke:#181818;stroke-width:0.5;" width="535" x="823" y="84.46"/><ellipse cx="1046.25" cy="100.46" fill="#C2C2C2" rx="11" ry="11" style="stroke:#181818;stroke-width:1.0;"/><path d="M1049.0156,96.335 Q1049.1719,96.1162 1049.3594,96.0069 Q1049.5469,95.8975 1049.7656,95.8975 Q1050.1406,95.8975 1050.375,96.1631 Q1050.6094,96.4131 1050.6094,97.0225 L1050.6094,98.4756 Q1050.6094,99.085 1050.375,99.3506 Q1050.1406,99.6162 1049.7656,99.6162 Q1049.4219,99.6162 1049.2188,99.4131 Q1049.0156,99.2256 1048.9063,98.71 Q1048.8594,98.3506 1048.6719,98.1631 Q1048.3438,97.7881 1047.7344,97.5694 Q1047.125,97.3506 1046.5,97.3506 Q1045.7344,97.3506 1045.0938,97.6787 Q1044.4688,98.0069 1043.9688,98.7569 Q1043.4844,99.5069 1043.4844,100.5381 L1043.4844,101.6319 Q1043.4844,102.8662 1044.375,103.6944 Q1045.2656,104.5069 1046.8594,104.5069 Q1047.7969,104.5069 1048.4531,104.2569 Q1048.8438,104.1006 1049.2656,103.6631 Q1049.5313,103.3975 1049.6719,103.3194 Q1049.8281,103.2412 1050.0313,103.2412 Q1050.3594,103.2412 1050.6094,103.5069 Q1050.875,103.7569 1050.875,104.1006 Q1050.875,104.4444 1050.5313,104.8506 Q1050.0313,105.4287 1049.2344,105.7569 Q1048.1563,106.21 1046.8594,106.21 Q1045.3438,106.21 1044.1406,105.585 Q1043.1563,105.085 1042.4688,104.0225 Q1041.7813,102.9444 1041.7813,101.6631 L1041.7813,100.5069 Q1041.7813,99.1787 1042.3906,98.0381 Q1043.0156,96.8819 1044.1094,96.2725 Q1045.2031,95.6475 1046.4375,95.6475 Q1047.1719,95.6475 1047.8125,95.8194 Q1048.4688,95.9756 1049.0156,96.335 Z " fill="#000000"/><text fill="#000000" font-family="sans-serif" font-size="14" lengthAdjust="spacing" textLength="80" x="1066.75" y="106.2569">Organization</text><line style="stroke:#181818;stroke-width:0.5;" x1="824" x2="1357" y1="116.46" y2="116.46"/><rect fill="none" height="6" style="stroke:#595959;stroke-width:1.0;" width="6" x="831" y="128.2705"/><text fill="#000000" font-family="sans-serif" font-size="14" lengthAdjust="spacing" textLength="76" x="843" y="135.5674">String name</text><rect fill="none" height="6" style="stroke:#595959;stroke-width:1.0;" width="6" x="831" y="146.8916"/><text fill="#000000" font-family="sans-serif" font-size="14" lengthAdjust="spacing" textLength="109" x="843" y="154.1885">String vatNumber</text><rect fill="none" height="6" style="stroke:#595959;stroke-width:1.0;" width="6" x="831" y="165.5127"/><text fill="#000000" font-family="sans-serif" font-size="14" lengthAdjust="spacing" textLength="88" x="843" y="172.8096">String website</text><rect fill="none" height="6" style="stroke:#595959;stroke-width:1.0;" width="6" x="831" y="184.1338"/><text fill="#000000" font-family="sans-serif" font-size="14" lengthAdjust="spacing" textLength="81" x="843" y="191.4307">String phone</text><rect fill="none" height="6" style="stroke:#595959;stroke-width:1.0;" width="6" x="831" y="202.7549"/><text fill="#000000" font-family="sans-serif" font-size="14" lengthAdjust="spacing" textLength="74" x="843" y="210.0518">String email</text><line style="stroke:#181818;stroke-width:0.5;" x1="824" x2="1357" y1="217.5655" y2="217.5655"/><rect fill="#808080" height="6" style="stroke:#595959;stroke-width:1.0;" width="6" x="831" y="229.376"/><text fill="#000000" font-family="sans-serif" font-size="14" lengthAdjust="spacing" textLength="91" x="843" y="236.6729">addTask(task)</text><rect fill="#808080" height="6" style="stroke:#595959;stroke-width:1.0;" width="6" x="831" y="247.9971"/><text fill="#000000" font-family="sans-serif" font-size="14" lengthAdjust="spacing" textLength="116" x="843" y="255.294">validateTask(task)</text><ellipse cx="834" cy="269.6182" fill="#A6A6A6" rx="3" ry="3" style="stroke:#545454;stroke-width:1.0;"/><text fill="#000000" font-family="sans-serif" font-size="14" lengthAdjust="spacing" textLength="186" x="843" y="273.9151">anyEmployeeHasEmail(email)</text><ellipse cx="834" cy="288.2393" fill="#A6A6A6" rx="3" ry="3" style="stroke:#545454;stroke-width:1.0;"/><text fill="#000000" font-family="sans-serif" font-size="14" lengthAdjust="spacing" textLength="509" x="843" y="292.5362">Organization(name, vatNumber, webSite, phone, email, postalAddress, manager)</text><ellipse cx="834" cy="316.1709" fill="#A6A6A6" rx="3" ry="3" style="stroke:#545454;stroke-width:1.0;"/><text fill="#000000" font-family="sans-serif" font-size="14" lengthAdjust="spacing" textLength="354" x="843" y="311.1573">createTask(reference, description, informalDesccription,</text><text fill="#000000" font-family="sans-serif" font-size="14" lengthAdjust="spacing" textLength="389" x="843" y="329.7784">technicalDescription, duration, cost, taskCategoryDescription)</text><rect fill="#808080" height="6" style="stroke:#595959;stroke-width:1.0;" width="6" x="831" y="341.1026"/><text fill="#000000" font-family="sans-serif" font-size="14" lengthAdjust="spacing" textLength="175" x="843" y="348.3995">getEmployeeByEmail(email)</text></g><!--class Role--><g id="elem_Role"><rect fill="#F1F1F1" height="48" id="Role" rx="2.5" ry="2.5" style="stroke:#181818;stroke-width:0.5;" width="61" x="2689" y="195.96"/><ellipse cx="2704" cy="211.96" fill="#C2C2C2" rx="11" ry="11" style="stroke:#181818;stroke-width:1.0;"/><path d="M2706.7656,207.835 Q2706.9219,207.6162 2707.1094,207.5069 Q2707.2969,207.3975 2707.5156,207.3975 Q2707.8906,207.3975 2708.125,207.6631 Q2708.3594,207.9131 2708.3594,208.5225 L2708.3594,209.9756 Q2708.3594,210.585 2708.125,210.8506 Q2707.8906,211.1162 2707.5156,211.1162 Q2707.1719,211.1162 2706.9688,210.9131 Q2706.7656,210.7256 2706.6563,210.21 Q2706.6094,209.8506 2706.4219,209.6631 Q2706.0938,209.2881 2705.4844,209.0694 Q2704.875,208.8506 2704.25,208.8506 Q2703.4844,208.8506 2702.8438,209.1787 Q2702.2188,209.5069 2701.7188,210.2569 Q2701.2344,211.0069 2701.2344,212.0381 L2701.2344,213.1319 Q2701.2344,214.3662 2702.125,215.1944 Q2703.0156,216.0069 2704.6094,216.0069 Q2705.5469,216.0069 2706.2031,215.7569 Q2706.5938,215.6006 2707.0156,215.1631 Q2707.2813,214.8975 2707.4219,214.8194 Q2707.5781,214.7412 2707.7813,214.7412 Q2708.1094,214.7412 2708.3594,215.0069 Q2708.625,215.2569 2708.625,215.6006 Q2708.625,215.9444 2708.2813,216.3506 Q2707.7813,216.9287 2706.9844,217.2569 Q2705.9063,217.71 2704.6094,217.71 Q2703.0938,217.71 2701.8906,217.085 Q2700.9063,216.585 2700.2188,215.5225 Q2699.5313,214.4444 2699.5313,213.1631 L2699.5313,212.0069 Q2699.5313,210.6787 2700.1406,209.5381 Q2700.7656,208.3819 2701.8594,207.7725 Q2702.9531,207.1475 2704.1875,207.1475 Q2704.9219,207.1475 2705.5625,207.3194 Q2706.2188,207.4756 2706.7656,207.835 Z " fill="#000000"/><text fill="#000000" font-family="sans-serif" font-size="14" lengthAdjust="spacing" textLength="29" x="2718" y="217.7569">Role</text><line style="stroke:#181818;stroke-width:0.5;" x1="2690" x2="2749" y1="227.96" y2="227.96"/><line style="stroke:#181818;stroke-width:0.5;" x1="2690" x2="2749" y1="235.96" y2="235.96"/></g><!--class Agency--><g id="elem_Agency"><rect fill="#F1F1F1" height="48" id="Agency" rx="2.5" ry="2.5" style="stroke:#181818;stroke-width:0.5;" width="79" x="2575" y="195.96"/><ellipse cx="2590" cy="211.96" fill="#C2C2C2" rx="11" ry="11" style="stroke:#181818;stroke-width:1.0;"/><path d="M2592.7656,207.835 Q2592.9219,207.6162 2593.1094,207.5069 Q2593.2969,207.3975 2593.5156,207.3975 Q2593.8906,207.3975 2594.125,207.6631 Q2594.3594,207.9131 2594.3594,208.5225 L2594.3594,209.9756 Q2594.3594,210.585 2594.125,210.8506 Q2593.8906,211.1162 2593.5156,211.1162 Q2593.1719,211.1162 2592.9688,210.9131 Q2592.7656,210.7256 2592.6563,210.21 Q2592.6094,209.8506 2592.4219,209.6631 Q2592.0938,209.2881 2591.4844,209.0694 Q2590.875,208.8506 2590.25,208.8506 Q2589.4844,208.8506 2588.8438,209.1787 Q2588.2188,209.5069 2587.7188,210.2569 Q2587.2344,211.0069 2587.2344,212.0381 L2587.2344,213.1319 Q2587.2344,214.3662 2588.125,215.1944 Q2589.0156,216.0069 2590.6094,216.0069 Q2591.5469,216.0069 2592.2031,215.7569 Q2592.5938,215.6006 2593.0156,215.1631 Q2593.2813,214.8975 2593.4219,214.8194 Q2593.5781,214.7412 2593.7813,214.7412 Q2594.1094,214.7412 2594.3594,215.0069 Q2594.625,215.2569 2594.625,215.6006 Q2594.625,215.9444 2594.2813,216.3506 Q2593.7813,216.9287 2592.9844,217.2569 Q2591.9063,217.71 2590.6094,217.71 Q2589.0938,217.71 2587.8906,217.085 Q2586.9063,216.585 2586.2188,215.5225 Q2585.5313,214.4444 2585.5313,213.1631 L2585.5313,212.0069 Q2585.5313,210.6787 2586.1406,209.5381 Q2586.7656,208.3819 2587.8594,207.7725 Q2588.9531,207.1475 2590.1875,207.1475 Q2590.9219,207.1475 2591.5625,207.3194 Q2592.2188,207.4756 2592.7656,207.835 Z " fill="#000000"/><text fill="#000000" font-family="sans-serif" font-size="14" lengthAdjust="spacing" textLength="47" x="2604" y="217.7569">Agency</text><line style="stroke:#181818;stroke-width:0.5;" x1="2576" x2="2653" y1="227.96" y2="227.96"/><line style="stroke:#181818;stroke-width:0.5;" x1="2576" x2="2653" y1="235.96" y2="235.96"/></g><!--link SystemAdministrator to RegisterEmployeeUI--><g id="link_SystemAdministrator_RegisterEmployeeUI"><path codeLine="74" d="M168.38,219.96 C178.14,219.96 187.89,219.96 197.65,219.96 " fill="none" id="SystemAdministrator-to-RegisterEmployeeUI" style="stroke:#181818;stroke-width:1.0;"/><polygon fill="#181818" points="202.75,219.96,193.75,215.96,197.75,219.96,193.75,223.96,202.75,219.96" style="stroke:#181818;stroke-width:1.0;"/></g><!--link RegisterEmployeeUI to EmployeeController--><g id="link_RegisterEmployeeUI_EmployeeController"><path codeLine="75" d="M448.11,219.96 C458.08,219.96 468.05,219.96 478.03,219.96 " fill="none" id="RegisterEmployeeUI-to-EmployeeController" style="stroke:#181818;stroke-width:1.0;"/><polygon fill="#181818" points="483.24,219.96,474.24,215.96,478.24,219.96,474.24,223.96,483.24,219.96" style="stroke:#181818;stroke-width:1.0;"/></g><!--link EmployeeController to EmployeeRepository--><g id="link_EmployeeController_EmployeeRepository"><path codeLine="76" d="M680.38,158.81 C714.37,118.01 765,67.82 823,44.96 C878.15,23.22 1834.42,24.35 1890,44.96 C1953.83,68.63 2011.08,122.27 2048.47,163.98 " fill="none" id="EmployeeController-to-EmployeeRepository" style="stroke:#181818;stroke-width:1.0;"/><polygon fill="#181818" points="2051.8,167.72,2048.8081,158.3366,2048.4773,163.9837,2042.8301,163.6529,2051.8,167.72" style="stroke:#181818;stroke-width:1.0;"/></g><!--link EmployeeRepository to Employee--><g id="link_EmployeeRepository_Employee"><path codeLine="77" d="M2261.71,219.96 C2271.71,219.96 2281.71,219.96 2291.7,219.96 " fill="none" id="EmployeeRepository-to-Employee" style="stroke:#181818;stroke-width:1.0;"/><polygon fill="#181818" points="2296.93,219.96,2287.93,215.96,2291.93,219.96,2287.93,223.96,2296.93,219.96" style="stroke:#181818;stroke-width:1.0;"/></g><!--link EmployeeController to RoleRepository--><g id="link_EmployeeController_RoleRepository"><path codeLine="78" d="M680.38,158.81 C714.37,118.01 765,67.82 823,44.96 C869.67,26.56 1682.5,19.97 1726,44.96 C1776.38,73.9 1803.29,139.05 1815.96,181.18 " fill="none" id="EmployeeController-to-RoleRepository" style="stroke:#181818;stroke-width:1.0;"/><polygon fill="#181818" points="1817.44,186.2,1818.76,176.44,1816.04,181.4,1811.08,178.68,1817.44,186.2" style="stroke:#181818;stroke-width:1.0;"/></g><!--link EmployeeController to AgencyRepository--><g id="link_EmployeeController_AgencyRepository"><path codeLine="79" d="M680.38,158.81 C714.37,118.01 765,67.82 823,44.96 C897.53,15.58 1474,6 1544,44.96 C1596.03,73.92 1626.29,139.29 1641.08,181.42 " fill="none" id="EmployeeController-to-AgencyRepository" style="stroke:#181818;stroke-width:1.0;"/><polygon fill="#181818" points="1642.72,186.19,1643.5712,176.378,1641.0918,181.4625,1636.0073,178.9831,1642.72,186.19" style="stroke:#181818;stroke-width:1.0;"/></g><!--link Employee to Role--><g id="link_Employee_Role"><path codeLine="80" d="M2526.24,74.89 C2565.14,40.32 2610.27,19.84 2654,44.96 C2704.72,74.09 2716.48,148.99 2719.01,190.74 " fill="none" id="Employee-to-Role" style="stroke:#181818;stroke-width:1.0;"/><polygon fill="#181818" points="2719.28,195.91,2722.7863,186.7064,2719.009,190.9174,2714.798,187.1401,2719.28,195.91" style="stroke:#181818;stroke-width:1.0;"/></g><!--link Employee to Agency--><g id="link_Employee_Agency"><path codeLine="81" d="M2540.23,219.96 C2550.03,219.96 2559.83,219.96 2569.63,219.96 " fill="none" id="Employee-to-Agency" style="stroke:#181818;stroke-width:1.0;"/><polygon fill="#181818" points="2574.76,219.96,2565.76,215.96,2569.76,219.96,2565.76,223.96,2574.76,219.96" style="stroke:#181818;stroke-width:1.0;"/></g><!--link EmployeeController to ApplicationSession--><g id="link_EmployeeController_ApplicationSession"><path codeLine="82" d="M680.38,158.81 C714.37,118.01 765,67.82 823,44.96 C878.3,23.16 1305.94,16.26 1358,44.96 C1410.42,73.86 1441.41,139.24 1456.66,181.4 " fill="none" id="EmployeeController-to-ApplicationSession" style="stroke:#181818;stroke-width:1.0;"/><polygon fill="#181818" points="1458.35,186.16,1459.1126,176.3407,1456.6792,181.4474,1451.5725,179.014,1458.35,186.16" style="stroke:#181818;stroke-width:1.0;"/></g><!--link EmployeeController to Organization--><g id="link_EmployeeController_Organization"><path codeLine="83" d="M787.91,219.96 C797.8,219.96 807.7,219.96 817.6,219.96 " fill="none" id="EmployeeController-to-Organization" style="stroke:#181818;stroke-width:1.0;"/><polygon fill="#181818" points="822.78,219.96,813.78,215.96,817.78,219.96,813.78,223.96,822.78,219.96" style="stroke:#181818;stroke-width:1.0;"/></g><!--SRC=[ZLJ1Rjim3BtxAtIRWxg_C21B2soN38ZRsu20bHb7Y2mPafBM7VRlesr9aHq7Q2wn7v_8vqTIzYHK2mOQrcYb-T7e1fapPyniZBJ0Jr1ZwJg9p21te6gP4kmHAlqkLCqE82rc6PTWBIixwx1PLurGmZe3JXlsD_iNmZki2KRptBHITuYlloZAwFV0k45mcA_yQoLiAw7BqJCBPhH4Mp1IfRX06uWrkf3j2HnGWbWju1kj79sMQ7orno7P3bjj1IdiF3YaxcxW8249J3KhQ4WVDY3aADEhx0fc7HX7kd11rZKVoOh9GhNmVGUXgX_TSvyy7qg4mBcjKdx1HXbVhn_Dw0_wHowS-4Irvs2glJetRsXynC77582gCcXjD8caxQSO9z-1k-2MHRUbIeDTgokssMo7jBcllQ7I8vAGNk33irnuIgBhiMpkooUH7RcHzvQaxC6RVBGemSlWLRxascuoCN5iwx66JUTkFPkZbBpsuplXjwqK79pGgYJvz9UUUBNzllJjJuxyDZKeyJcSYNqidUaNCccdHoxWjcdhFFoERoHmncsFMisWeRVPjUqlO4_K1tjQUUm2KlJ3E0iyC51TcBQVO1U6EFqElqTHRD4BB4bWCOgAAqQ-Ef2-wGLhG54lupoCUpH8CNX0GtxJqGejDwBjwnHCg8Cs3SWd0YFwHpdaHqMD6F18hiu6nYTETGlMVz-6AjJKsOGOl4ZkezdQPjz8deLBQXCrTEdAVFo-S5Lc2xSd4MzlkMpXuak8oJssS1Kbn3jvffjmXpJVWKWB6IR0oBwNwcOzxX3JOVeF]--></g></svg>