<?xml version="1.0" encoding="UTF-8" standalone="no"?><svg xmlns="http://www.w3.org/2000/svg" xmlns:xlink="http://www.w3.org/1999/xlink" contentStyleType="text/css" height="440px" preserveAspectRatio="none" style="width:3836px;height:440px;background:#FFFFFF;" version="1.1" viewBox="0 0 3836 440" width="3836px" zoomAndPan="magnify"><defs/><g><!--class SystemAdministrator--><g id="elem_SystemAdministrator"><rect codeLine="5" fill="#F1F1F1" height="50" id="SystemAdministrator" rx="2.5" ry="2.5" style="stroke:#181818;stroke-width:0.5;" width="235" x="7" y="230.69"/><ellipse cx="23" cy="247.69" fill="#C2C2C2" rx="12" ry="12" style="stroke:#181818;stroke-width:1.0;"/><path d="M25.8066,254.7701 Q25.123,255.1216 24.3711,255.2974 Q23.6191,255.4732 22.7891,255.4732 Q19.8398,255.4732 18.2871,253.5298 Q16.7344,251.5865 16.7344,247.9146 Q16.7344,244.233 18.2871,242.2896 Q19.8398,240.3463 22.7891,240.3463 Q23.6191,240.3463 24.3809,240.522 Q25.1426,240.6978 25.8066,241.0494 L25.8066,244.2525 Q25.0645,243.5689 24.3662,243.2515 Q23.668,242.9341 22.9258,242.9341 Q21.3438,242.9341 20.5381,244.189 Q19.7324,245.4439 19.7324,247.9146 Q19.7324,250.3755 20.5381,251.6304 Q21.3438,252.8853 22.9258,252.8853 Q23.668,252.8853 24.3662,252.5679 Q25.0645,252.2505 25.8066,251.567 Z " fill="#000000"/><text fill="#000000" font-family="sans-serif" font-size="20" lengthAdjust="spacing" textLength="201" x="38" y="255.2486">SystemAdministrator</text><line style="stroke:#181818;stroke-width:0.5;" x1="8" x2="241" y1="264.69" y2="264.69"/><line style="stroke:#181818;stroke-width:0.5;" x1="8" x2="241" y1="272.69" y2="272.69"/></g><!--class RegisterEmployeeUI--><g id="elem_RegisterEmployeeUI"><rect codeLine="8" fill="#F1F1F1" height="120.6641" id="RegisterEmployeeUI" rx="2.5" ry="2.5" style="stroke:#181818;stroke-width:0.5;" width="357" x="277" y="195.36"/><ellipse cx="355.5" cy="212.36" fill="#C2C2C2" rx="12" ry="12" style="stroke:#181818;stroke-width:1.0;"/><path d="M358.3066,219.4401 Q357.623,219.7916 356.8711,219.9674 Q356.1191,220.1432 355.2891,220.1432 Q352.3398,220.1432 350.7871,218.1998 Q349.2344,216.2565 349.2344,212.5846 Q349.2344,208.903 350.7871,206.9596 Q352.3398,205.0163 355.2891,205.0163 Q356.1191,205.0163 356.8809,205.192 Q357.6426,205.3678 358.3066,205.7194 L358.3066,208.9225 Q357.5645,208.2389 356.8662,207.9215 Q356.168,207.6041 355.4258,207.6041 Q353.8438,207.6041 353.0381,208.859 Q352.2324,210.1139 352.2324,212.5846 Q352.2324,215.0455 353.0381,216.3004 Q353.8438,217.5553 355.4258,217.5553 Q356.168,217.5553 356.8662,217.2379 Q357.5645,216.9205 358.3066,216.237 Z " fill="#000000"/><text fill="#000000" font-family="sans-serif" font-size="20" lengthAdjust="spacing" textLength="191" x="377.5" y="219.9186">RegisterEmployeeUI</text><line style="stroke:#181818;stroke-width:0.5;" x1="278" x2="633" y1="229.36" y2="229.36"/><line style="stroke:#181818;stroke-width:0.5;" x1="278" x2="633" y1="237.36" y2="237.36"/><ellipse cx="288" cy="254.6373" fill="#A6A6A6" rx="3" ry="3" style="stroke:#545454;stroke-width:1.0;"/><text fill="#000000" font-family="sans-serif" font-size="20" lengthAdjust="spacing" textLength="72" x="298" y="260.6959">create()</text><ellipse cx="288" cy="278.192" fill="#A6A6A6" rx="3" ry="3" style="stroke:#545454;stroke-width:1.0;"/><text fill="#000000" font-family="sans-serif" font-size="20" lengthAdjust="spacing" textLength="330" x="298" y="284.2506">display(employee, roles, agencies)</text><ellipse cx="288" cy="301.7467" fill="#A6A6A6" rx="3" ry="3" style="stroke:#545454;stroke-width:1.0;"/><text fill="#000000" font-family="sans-serif" font-size="20" lengthAdjust="spacing" textLength="181" x="298" y="307.8053">getEmployeeData()</text></g><!--class EmployeeController--><g id="elem_EmployeeController"><rect codeLine="14" fill="#F1F1F1" height="144.2188" id="EmployeeController" rx="2.5" ry="2.5" style="stroke:#181818;stroke-width:0.5;" width="443" x="669" y="183.59"/><ellipse cx="791.5" cy="200.59" fill="#C2C2C2" rx="12" ry="12" style="stroke:#181818;stroke-width:1.0;"/><path d="M794.3066,207.6701 Q793.623,208.0216 792.8711,208.1974 Q792.1191,208.3732 791.2891,208.3732 Q788.3398,208.3732 786.7871,206.4298 Q785.2344,204.4865 785.2344,200.8146 Q785.2344,197.133 786.7871,195.1896 Q788.3398,193.2463 791.2891,193.2463 Q792.1191,193.2463 792.8809,193.422 Q793.6426,193.5978 794.3066,193.9494 L794.3066,197.1525 Q793.5645,196.4689 792.8662,196.1515 Q792.168,195.8341 791.4258,195.8341 Q789.8438,195.8341 789.0381,197.089 Q788.2324,198.3439 788.2324,200.8146 Q788.2324,203.2755 789.0381,204.5304 Q789.8438,205.7853 791.4258,205.7853 Q792.168,205.7853 792.8662,205.4679 Q793.5645,205.1505 794.3066,204.467 Z " fill="#000000"/><text fill="#000000" font-family="sans-serif" font-size="20" lengthAdjust="spacing" textLength="189" x="813.5" y="208.1486">EmployeeController</text><line style="stroke:#181818;stroke-width:0.5;" x1="670" x2="1111" y1="217.59" y2="217.59"/><rect fill="none" height="6" style="stroke:#595959;stroke-width:1.0;" width="6" x="677" y="231.8673"/><text fill="#000000" font-family="sans-serif" font-size="20" lengthAdjust="spacing" textLength="139" x="690" y="240.9259">roleRepository</text><rect fill="none" height="6" style="stroke:#595959;stroke-width:1.0;" width="6" x="677" y="255.422"/><text fill="#000000" font-family="sans-serif" font-size="20" lengthAdjust="spacing" textLength="168" x="690" y="264.4806">agencyRepository</text><rect fill="none" height="6" style="stroke:#595959;stroke-width:1.0;" width="6" x="677" y="278.9767"/><text fill="#000000" font-family="sans-serif" font-size="20" lengthAdjust="spacing" textLength="195" x="690" y="288.0353">employeeRepository</text><line style="stroke:#181818;stroke-width:0.5;" x1="670" x2="1111" y1="296.2541" y2="296.2541"/><ellipse cx="680" cy="313.5314" fill="#A6A6A6" rx="3" ry="3" style="stroke:#545454;stroke-width:1.0;"/><text fill="#000000" font-family="sans-serif" font-size="20" lengthAdjust="spacing" textLength="416" x="690" y="319.59">create(name, email, role, agency, startDate)</text></g><!--class EmployeeRepository--><g id="elem_EmployeeRepository"><rect codeLine="22" fill="#F1F1F1" height="120.6641" id="EmployeeRepository" rx="2.5" ry="2.5" style="stroke:#181818;stroke-width:0.5;" width="492" x="2690.5" y="195.36"/><ellipse cx="2834.5" cy="212.36" fill="#C2C2C2" rx="12" ry="12" style="stroke:#181818;stroke-width:1.0;"/><path d="M2837.3066,219.4401 Q2836.623,219.7916 2835.8711,219.9674 Q2835.1191,220.1432 2834.2891,220.1432 Q2831.3398,220.1432 2829.7871,218.1998 Q2828.2344,216.2565 2828.2344,212.5846 Q2828.2344,208.903 2829.7871,206.9596 Q2831.3398,205.0163 2834.2891,205.0163 Q2835.1191,205.0163 2835.8809,205.192 Q2836.6426,205.3678 2837.3066,205.7194 L2837.3066,208.9225 Q2836.5645,208.2389 2835.8662,207.9215 Q2835.168,207.6041 2834.4258,207.6041 Q2832.8438,207.6041 2832.0381,208.859 Q2831.2324,210.1139 2831.2324,212.5846 Q2831.2324,215.0455 2832.0381,216.3004 Q2832.8438,217.5553 2834.4258,217.5553 Q2835.168,217.5553 2835.8662,217.2379 Q2836.5645,216.9205 2837.3066,216.237 Z " fill="#000000"/><text fill="#000000" font-family="sans-serif" font-size="20" lengthAdjust="spacing" textLength="195" x="2856.5" y="219.9186">EmployeeRepository</text><line style="stroke:#181818;stroke-width:0.5;" x1="2691.5" x2="3181.5" y1="229.36" y2="229.36"/><line style="stroke:#181818;stroke-width:0.5;" x1="2691.5" x2="3181.5" y1="237.36" y2="237.36"/><ellipse cx="2701.5" cy="254.6373" fill="#A6A6A6" rx="3" ry="3" style="stroke:#545454;stroke-width:1.0;"/><text fill="#000000" font-family="sans-serif" font-size="20" lengthAdjust="spacing" textLength="165" x="2711.5" y="260.6959">create(employee)</text><ellipse cx="2701.5" cy="278.192" fill="#A6A6A6" rx="3" ry="3" style="stroke:#545454;stroke-width:1.0;"/><text fill="#000000" font-family="sans-serif" font-size="20" lengthAdjust="spacing" textLength="180" x="2711.5" y="284.2506">findByEmail(email)</text><ellipse cx="2701.5" cy="301.7467" fill="#A6A6A6" rx="3" ry="3" style="stroke:#545454;stroke-width:1.0;"/><text fill="#000000" font-family="sans-serif" font-size="20" lengthAdjust="spacing" textLength="465" x="2711.5" y="307.8053">update(employee, name, role, agency, startDate)</text></g><!--class Employee--><g id="elem_Employee"><rect codeLine="28" fill="#F1F1F1" height="356.2109" id="Employee" rx="2.5" ry="2.5" style="stroke:#181818;stroke-width:0.5;" width="362" x="3217.5" y="77.59"/><ellipse cx="3347.5" cy="94.59" fill="#C2C2C2" rx="12" ry="12" style="stroke:#181818;stroke-width:1.0;"/><path d="M3350.3066,101.6701 Q3349.623,102.0216 3348.8711,102.1974 Q3348.1191,102.3732 3347.2891,102.3732 Q3344.3398,102.3732 3342.7871,100.4298 Q3341.2344,98.4865 3341.2344,94.8146 Q3341.2344,91.133 3342.7871,89.1896 Q3344.3398,87.2463 3347.2891,87.2463 Q3348.1191,87.2463 3348.8809,87.422 Q3349.6426,87.5978 3350.3066,87.9494 L3350.3066,91.1525 Q3349.5645,90.4689 3348.8662,90.1515 Q3348.168,89.8341 3347.4258,89.8341 Q3345.8438,89.8341 3345.0381,91.089 Q3344.2324,92.3439 3344.2324,94.8146 Q3344.2324,97.2755 3345.0381,98.5304 Q3345.8438,99.7853 3347.4258,99.7853 Q3348.168,99.7853 3348.8662,99.4679 Q3349.5645,99.1505 3350.3066,98.467 Z " fill="#000000"/><text fill="#000000" font-family="sans-serif" font-size="20" lengthAdjust="spacing" textLength="93" x="3369.5" y="102.1486">Employee</text><line style="stroke:#181818;stroke-width:0.5;" x1="3218.5" x2="3578.5" y1="111.59" y2="111.59"/><rect fill="none" height="6" style="stroke:#595959;stroke-width:1.0;" width="6" x="3225.5" y="125.8673"/><text fill="#000000" font-family="sans-serif" font-size="20" lengthAdjust="spacing" textLength="53" x="3238.5" y="134.9259">name</text><rect fill="none" height="6" style="stroke:#595959;stroke-width:1.0;" width="6" x="3225.5" y="149.422"/><text fill="#000000" font-family="sans-serif" font-size="20" lengthAdjust="spacing" textLength="200" x="3238.5" y="158.4806">citizen_card_number</text><rect fill="none" height="6" style="stroke:#595959;stroke-width:1.0;" width="6" x="3225.5" y="172.9767"/><text fill="#000000" font-family="sans-serif" font-size="20" lengthAdjust="spacing" textLength="115" x="3238.5" y="182.0353">tax_number</text><rect fill="none" height="6" style="stroke:#595959;stroke-width:1.0;" width="6" x="3225.5" y="196.5314"/><text fill="#000000" font-family="sans-serif" font-size="20" lengthAdjust="spacing" textLength="76" x="3238.5" y="205.59">address</text><rect fill="none" height="6" style="stroke:#595959;stroke-width:1.0;" width="6" x="3225.5" y="220.0861"/><text fill="#000000" font-family="sans-serif" font-size="20" lengthAdjust="spacing" textLength="139" x="3238.5" y="229.1447">email_address</text><rect fill="none" height="6" style="stroke:#595959;stroke-width:1.0;" width="6" x="3225.5" y="243.6408"/><text fill="#000000" font-family="sans-serif" font-size="20" lengthAdjust="spacing" textLength="69" x="3238.5" y="252.6994">contact</text><line style="stroke:#181818;stroke-width:0.5;" x1="3218.5" x2="3578.5" y1="260.9181" y2="260.9181"/><ellipse cx="3228.5" cy="278.1955" fill="#A6A6A6" rx="3" ry="3" style="stroke:#545454;stroke-width:1.0;"/><text fill="#000000" font-family="sans-serif" font-size="20" lengthAdjust="spacing" textLength="151" x="3238.5" y="284.2541">setName(name)</text><ellipse cx="3228.5" cy="301.7502" fill="#A6A6A6" rx="3" ry="3" style="stroke:#545454;stroke-width:1.0;"/><text fill="#000000" font-family="sans-serif" font-size="20" lengthAdjust="spacing" textLength="335" x="3238.5" y="307.8088">setCCNumber(citizenCardNumber)</text><ellipse cx="3228.5" cy="325.3048" fill="#A6A6A6" rx="3" ry="3" style="stroke:#545454;stroke-width:1.0;"/><text fill="#000000" font-family="sans-serif" font-size="20" lengthAdjust="spacing" textLength="264" x="3238.5" y="331.3634">setTaxNumber(taxNumber)</text><ellipse cx="3228.5" cy="348.8595" fill="#A6A6A6" rx="3" ry="3" style="stroke:#545454;stroke-width:1.0;"/><text fill="#000000" font-family="sans-serif" font-size="20" lengthAdjust="spacing" textLength="197" x="3238.5" y="354.9181">setAddress(address)</text><ellipse cx="3228.5" cy="372.4142" fill="#A6A6A6" rx="3" ry="3" style="stroke:#545454;stroke-width:1.0;"/><text fill="#000000" font-family="sans-serif" font-size="20" lengthAdjust="spacing" textLength="121" x="3238.5" y="378.4728">setRole(role)</text><ellipse cx="3228.5" cy="395.9689" fill="#A6A6A6" rx="3" ry="3" style="stroke:#545454;stroke-width:1.0;"/><text fill="#000000" font-family="sans-serif" font-size="20" lengthAdjust="spacing" textLength="177" x="3238.5" y="402.0275">setAgency(agency)</text><ellipse cx="3228.5" cy="419.5236" fill="#A6A6A6" rx="3" ry="3" style="stroke:#545454;stroke-width:1.0;"/><text fill="#000000" font-family="sans-serif" font-size="20" lengthAdjust="spacing" textLength="217" x="3238.5" y="425.5822">setStartDate(startDate)</text></g><!--class RoleRepository--><g id="elem_RoleRepository"><rect codeLine="45" fill="#F1F1F1" height="73.5547" id="RoleRepository" rx="2.5" ry="2.5" style="stroke:#181818;stroke-width:0.5;" width="178" x="2477.5" y="218.92"/><ellipse cx="2493.5" cy="235.92" fill="#C2C2C2" rx="12" ry="12" style="stroke:#181818;stroke-width:1.0;"/><path d="M2496.3066,243.0001 Q2495.623,243.3516 2494.8711,243.5274 Q2494.1191,243.7032 2493.2891,243.7032 Q2490.3398,243.7032 2488.7871,241.7598 Q2487.2344,239.8165 2487.2344,236.1446 Q2487.2344,232.463 2488.7871,230.5196 Q2490.3398,228.5763 2493.2891,228.5763 Q2494.1191,228.5763 2494.8809,228.752 Q2495.6426,228.9278 2496.3066,229.2794 L2496.3066,232.4825 Q2495.5645,231.7989 2494.8662,231.4815 Q2494.168,231.1641 2493.4258,231.1641 Q2491.8438,231.1641 2491.0381,232.419 Q2490.2324,233.6739 2490.2324,236.1446 Q2490.2324,238.6055 2491.0381,239.8604 Q2491.8438,241.1153 2493.4258,241.1153 Q2494.168,241.1153 2494.8662,240.7979 Q2495.5645,240.4805 2496.3066,239.797 Z " fill="#000000"/><text fill="#000000" font-family="sans-serif" font-size="20" lengthAdjust="spacing" textLength="144" x="2508.5" y="243.4786">RoleRepository</text><line style="stroke:#181818;stroke-width:0.5;" x1="2478.5" x2="2654.5" y1="252.92" y2="252.92"/><line style="stroke:#181818;stroke-width:0.5;" x1="2478.5" x2="2654.5" y1="260.92" y2="260.92"/><ellipse cx="2488.5" cy="278.1973" fill="#A6A6A6" rx="3" ry="3" style="stroke:#545454;stroke-width:1.0;"/><text fill="#000000" font-family="sans-serif" font-size="20" lengthAdjust="spacing" textLength="96" x="2498.5" y="284.2559">getRoles()</text></g><!--class AgencyRepository--><g id="elem_AgencyRepository"><rect codeLine="49" fill="#F1F1F1" height="73.5547" id="AgencyRepository" rx="2.5" ry="2.5" style="stroke:#181818;stroke-width:0.5;" width="205" x="2238" y="218.92"/><ellipse cx="2254" cy="235.92" fill="#C2C2C2" rx="12" ry="12" style="stroke:#181818;stroke-width:1.0;"/><path d="M2256.8066,243.0001 Q2256.123,243.3516 2255.3711,243.5274 Q2254.6191,243.7032 2253.7891,243.7032 Q2250.8398,243.7032 2249.2871,241.7598 Q2247.7344,239.8165 2247.7344,236.1446 Q2247.7344,232.463 2249.2871,230.5196 Q2250.8398,228.5763 2253.7891,228.5763 Q2254.6191,228.5763 2255.3809,228.752 Q2256.1426,228.9278 2256.8066,229.2794 L2256.8066,232.4825 Q2256.0645,231.7989 2255.3662,231.4815 Q2254.668,231.1641 2253.9258,231.1641 Q2252.3438,231.1641 2251.5381,232.419 Q2250.7324,233.6739 2250.7324,236.1446 Q2250.7324,238.6055 2251.5381,239.8604 Q2252.3438,241.1153 2253.9258,241.1153 Q2254.668,241.1153 2255.3662,240.7979 Q2256.0645,240.4805 2256.8066,239.797 Z " fill="#000000"/><text fill="#000000" font-family="sans-serif" font-size="20" lengthAdjust="spacing" textLength="171" x="2269" y="243.4786">AgencyRepository</text><line style="stroke:#181818;stroke-width:0.5;" x1="2239" x2="2442" y1="252.92" y2="252.92"/><line style="stroke:#181818;stroke-width:0.5;" x1="2239" x2="2442" y1="260.92" y2="260.92"/><ellipse cx="2249" cy="278.1973" fill="#A6A6A6" rx="3" ry="3" style="stroke:#545454;stroke-width:1.0;"/><text fill="#000000" font-family="sans-serif" font-size="20" lengthAdjust="spacing" textLength="130" x="2259" y="284.2559">getAgencies()</text></g><!--class ApplicationSession--><g id="elem_ApplicationSession"><rect codeLine="53" fill="#F1F1F1" height="73.5547" id="ApplicationSession" rx="2.5" ry="2.5" style="stroke:#181818;stroke-width:0.5;" width="216" x="1987.5" y="218.92"/><ellipse cx="2003.5" cy="235.92" fill="#C2C2C2" rx="12" ry="12" style="stroke:#181818;stroke-width:1.0;"/><path d="M2006.3066,243.0001 Q2005.623,243.3516 2004.8711,243.5274 Q2004.1191,243.7032 2003.2891,243.7032 Q2000.3398,243.7032 1998.7871,241.7598 Q1997.2344,239.8165 1997.2344,236.1446 Q1997.2344,232.463 1998.7871,230.5196 Q2000.3398,228.5763 2003.2891,228.5763 Q2004.1191,228.5763 2004.8809,228.752 Q2005.6426,228.9278 2006.3066,229.2794 L2006.3066,232.4825 Q2005.5645,231.7989 2004.8662,231.4815 Q2004.168,231.1641 2003.4258,231.1641 Q2001.8438,231.1641 2001.0381,232.419 Q2000.2324,233.6739 2000.2324,236.1446 Q2000.2324,238.6055 2001.0381,239.8604 Q2001.8438,241.1153 2003.4258,241.1153 Q2004.168,241.1153 2004.8662,240.7979 Q2005.5645,240.4805 2006.3066,239.797 Z " fill="#000000"/><text fill="#000000" font-family="sans-serif" font-size="20" lengthAdjust="spacing" textLength="182" x="2018.5" y="243.4786">ApplicationSession</text><line style="stroke:#181818;stroke-width:0.5;" x1="1988.5" x2="2202.5" y1="252.92" y2="252.92"/><line style="stroke:#181818;stroke-width:0.5;" x1="1988.5" x2="2202.5" y1="260.92" y2="260.92"/><ellipse cx="1998.5" cy="278.1973" fill="#A6A6A6" rx="3" ry="3" style="stroke:#545454;stroke-width:1.0;"/><text fill="#000000" font-family="sans-serif" font-size="20" lengthAdjust="spacing" textLength="140" x="2008.5" y="284.2559">getUserEmail()</text></g><!--class Organization--><g id="elem_Organization"><rect codeLine="57" fill="#F1F1F1" height="332.6563" id="Organization" rx="2.5" ry="2.5" style="stroke:#181818;stroke-width:0.5;" width="805" x="1147" y="89.37"/><ellipse cx="1483" cy="106.37" fill="#C2C2C2" rx="12" ry="12" style="stroke:#181818;stroke-width:1.0;"/><path d="M1485.8066,113.4501 Q1485.123,113.8016 1484.3711,113.9774 Q1483.6191,114.1532 1482.7891,114.1532 Q1479.8398,114.1532 1478.2871,112.2098 Q1476.7344,110.2665 1476.7344,106.5946 Q1476.7344,102.913 1478.2871,100.9696 Q1479.8398,99.0263 1482.7891,99.0263 Q1483.6191,99.0263 1484.3809,99.202 Q1485.1426,99.3778 1485.8066,99.7294 L1485.8066,102.9325 Q1485.0645,102.2489 1484.3662,101.9315 Q1483.668,101.6141 1482.9258,101.6141 Q1481.3438,101.6141 1480.5381,102.869 Q1479.7324,104.1239 1479.7324,106.5946 Q1479.7324,109.0555 1480.5381,110.3104 Q1481.3438,111.5653 1482.9258,111.5653 Q1483.668,111.5653 1484.3662,111.2479 Q1485.0645,110.9305 1485.8066,110.247 Z " fill="#000000"/><text fill="#000000" font-family="sans-serif" font-size="20" lengthAdjust="spacing" textLength="124" x="1505" y="113.9286">Organization</text><line style="stroke:#181818;stroke-width:0.5;" x1="1148" x2="1951" y1="123.37" y2="123.37"/><rect fill="none" height="6" style="stroke:#595959;stroke-width:1.0;" width="6" x="1155" y="137.6473"/><text fill="#000000" font-family="sans-serif" font-size="20" lengthAdjust="spacing" textLength="115" x="1168" y="146.7059">String name</text><rect fill="none" height="6" style="stroke:#595959;stroke-width:1.0;" width="6" x="1155" y="161.202"/><text fill="#000000" font-family="sans-serif" font-size="20" lengthAdjust="spacing" textLength="168" x="1168" y="170.2606">String vatNumber</text><rect fill="none" height="6" style="stroke:#595959;stroke-width:1.0;" width="6" x="1155" y="184.7567"/><text fill="#000000" font-family="sans-serif" font-size="20" lengthAdjust="spacing" textLength="135" x="1168" y="193.8153">String website</text><rect fill="none" height="6" style="stroke:#595959;stroke-width:1.0;" width="6" x="1155" y="208.3114"/><text fill="#000000" font-family="sans-serif" font-size="20" lengthAdjust="spacing" textLength="122" x="1168" y="217.37">String phone</text><rect fill="none" height="6" style="stroke:#595959;stroke-width:1.0;" width="6" x="1155" y="231.8661"/><text fill="#000000" font-family="sans-serif" font-size="20" lengthAdjust="spacing" textLength="115" x="1168" y="240.9247">String email</text><line style="stroke:#181818;stroke-width:0.5;" x1="1148" x2="1951" y1="249.1434" y2="249.1434"/><rect fill="#808080" height="6" style="stroke:#595959;stroke-width:1.0;" width="6" x="1155" y="263.4208"/><text fill="#000000" font-family="sans-serif" font-size="20" lengthAdjust="spacing" textLength="137" x="1168" y="272.4794">addTask(task)</text><rect fill="#808080" height="6" style="stroke:#595959;stroke-width:1.0;" width="6" x="1155" y="286.9755"/><text fill="#000000" font-family="sans-serif" font-size="20" lengthAdjust="spacing" textLength="175" x="1168" y="296.0341">validateTask(task)</text><ellipse cx="1158" cy="313.5302" fill="#A6A6A6" rx="3" ry="3" style="stroke:#545454;stroke-width:1.0;"/><text fill="#000000" font-family="sans-serif" font-size="20" lengthAdjust="spacing" textLength="282" x="1168" y="319.5888">anyEmployeeHasEmail(email)</text><ellipse cx="1158" cy="337.0848" fill="#A6A6A6" rx="3" ry="3" style="stroke:#545454;stroke-width:1.0;"/><text fill="#000000" font-family="sans-serif" font-size="20" lengthAdjust="spacing" textLength="778" x="1168" y="343.1434">Organization(name, vatNumber, webSite, phone, email, postalAddress, manager)</text><ellipse cx="1158" cy="372.4169" fill="#A6A6A6" rx="3" ry="3" style="stroke:#545454;stroke-width:1.0;"/><text fill="#000000" font-family="sans-serif" font-size="20" lengthAdjust="spacing" textLength="539" x="1168" y="366.6981">createTask(reference, description, informalDesccription,</text><text fill="#000000" font-family="sans-serif" font-size="20" lengthAdjust="spacing" textLength="593" x="1168" y="390.2528">technicalDescription, duration, cost, taskCategoryDescription)</text><rect fill="#808080" height="6" style="stroke:#595959;stroke-width:1.0;" width="6" x="1155" y="404.7489"/><text fill="#000000" font-family="sans-serif" font-size="20" lengthAdjust="spacing" textLength="265" x="1168" y="413.8075">getEmployeeByEmail(email)</text></g><!--class Role--><g id="elem_Role"><rect fill="#F1F1F1" height="50" id="Role" rx="2.5" ry="2.5" style="stroke:#181818;stroke-width:0.5;" width="76" x="3753.5" y="230.69"/><ellipse cx="3769.5" cy="247.69" fill="#C2C2C2" rx="12" ry="12" style="stroke:#181818;stroke-width:1.0;"/><path d="M3772.3066,254.7701 Q3771.623,255.1216 3770.8711,255.2974 Q3770.1191,255.4732 3769.2891,255.4732 Q3766.3398,255.4732 3764.7871,253.5298 Q3763.2344,251.5865 3763.2344,247.9146 Q3763.2344,244.233 3764.7871,242.2896 Q3766.3398,240.3463 3769.2891,240.3463 Q3770.1191,240.3463 3770.8809,240.522 Q3771.6426,240.6978 3772.3066,241.0494 L3772.3066,244.2525 Q3771.5645,243.5689 3770.8662,243.2515 Q3770.168,242.9341 3769.4258,242.9341 Q3767.8438,242.9341 3767.0381,244.189 Q3766.2324,245.4439 3766.2324,247.9146 Q3766.2324,250.3755 3767.0381,251.6304 Q3767.8438,252.8853 3769.4258,252.8853 Q3770.168,252.8853 3770.8662,252.5679 Q3771.5645,252.2505 3772.3066,251.567 Z " fill="#000000"/><text fill="#000000" font-family="sans-serif" font-size="20" lengthAdjust="spacing" textLength="42" x="3784.5" y="255.2486">Role</text><line style="stroke:#181818;stroke-width:0.5;" x1="3754.5" x2="3828.5" y1="264.69" y2="264.69"/><line style="stroke:#181818;stroke-width:0.5;" x1="3754.5" x2="3828.5" y1="272.69" y2="272.69"/></g><!--class Agency--><g id="elem_Agency"><rect fill="#F1F1F1" height="50" id="Agency" rx="2.5" ry="2.5" style="stroke:#181818;stroke-width:0.5;" width="103" x="3615" y="230.69"/><ellipse cx="3631" cy="247.69" fill="#C2C2C2" rx="12" ry="12" style="stroke:#181818;stroke-width:1.0;"/><path d="M3633.8066,254.7701 Q3633.123,255.1216 3632.3711,255.2974 Q3631.6191,255.4732 3630.7891,255.4732 Q3627.8398,255.4732 3626.2871,253.5298 Q3624.7344,251.5865 3624.7344,247.9146 Q3624.7344,244.233 3626.2871,242.2896 Q3627.8398,240.3463 3630.7891,240.3463 Q3631.6191,240.3463 3632.3809,240.522 Q3633.1426,240.6978 3633.8066,241.0494 L3633.8066,244.2525 Q3633.0645,243.5689 3632.3662,243.2515 Q3631.668,242.9341 3630.9258,242.9341 Q3629.3438,242.9341 3628.5381,244.189 Q3627.7324,245.4439 3627.7324,247.9146 Q3627.7324,250.3755 3628.5381,251.6304 Q3629.3438,252.8853 3630.9258,252.8853 Q3631.668,252.8853 3632.3662,252.5679 Q3633.0645,252.2505 3633.8066,251.567 Z " fill="#000000"/><text fill="#000000" font-family="sans-serif" font-size="20" lengthAdjust="spacing" textLength="69" x="3646" y="255.2486">Agency</text><line style="stroke:#181818;stroke-width:0.5;" x1="3616" x2="3717" y1="264.69" y2="264.69"/><line style="stroke:#181818;stroke-width:0.5;" x1="3616" x2="3717" y1="272.69" y2="272.69"/></g><!--link SystemAdministrator to RegisterEmployeeUI--><g id="link_SystemAdministrator_RegisterEmployeeUI"><path codeLine="74" d="M242.48,255.69 C251.9,255.69 261.32,255.69 270.74,255.69 " fill="none" id="SystemAdministrator-to-RegisterEmployeeUI" style="stroke:#181818;stroke-width:1.0;"/><polygon fill="#181818" points="275.6,255.69,266.6,251.69,270.6,255.69,266.6,259.69,275.6,255.69" style="stroke:#181818;stroke-width:1.0;"/></g><!--link RegisterEmployeeUI to EmployeeController--><g id="link_RegisterEmployeeUI_EmployeeController"><path codeLine="75" d="M634.34,255.69 C643.8,255.69 653.26,255.69 662.72,255.69 " fill="none" id="RegisterEmployeeUI-to-EmployeeController" style="stroke:#181818;stroke-width:1.0;"/><polygon fill="#181818" points="667.61,255.69,658.61,251.69,662.61,255.69,658.61,259.69,667.61,255.69" style="stroke:#181818;stroke-width:1.0;"/></g><!--link EmployeeController to EmployeeRepository--><g id="link_EmployeeController_EmployeeRepository"><path codeLine="76" d="M953.65,183.28 C1001.22,134.57 1071.07,74.52 1147,47.59 C1225.96,19.59 2575.43,21.37 2655,47.59 C2740.51,75.77 2821.32,141.02 2874.24,191 " fill="none" id="EmployeeController-to-EmployeeRepository" style="stroke:#181818;stroke-width:1.0;"/><polygon fill="#181818" points="2877.31,193.88,2873.5523,184.7762,2873.6897,190.4314,2868.0345,190.5687,2877.31,193.88" style="stroke:#181818;stroke-width:1.0;"/></g><!--link EmployeeRepository to Employee--><g id="link_EmployeeRepository_Employee"><path codeLine="77" d="M3182.84,255.69 C3192.37,255.69 3201.91,255.69 3211.44,255.69 " fill="none" id="EmployeeRepository-to-Employee" style="stroke:#181818;stroke-width:1.0;"/><polygon fill="#181818" points="3216.38,255.69,3207.38,251.69,3211.38,255.69,3207.38,259.69,3216.38,255.69" style="stroke:#181818;stroke-width:1.0;"/></g><!--link EmployeeController to RoleRepository--><g id="link_EmployeeController_RoleRepository"><path codeLine="78" d="M953.65,183.28 C1001.22,134.57 1071.07,74.52 1147,47.59 C1214.86,23.52 2380.43,11.96 2443,47.59 C2505.05,82.92 2539.14,163.06 2555.05,212.94 " fill="none" id="EmployeeController-to-RoleRepository" style="stroke:#181818;stroke-width:1.0;"/><polygon fill="#181818" points="2556.81,217.57,2557.9268,207.7847,2555.3105,212.8001,2550.295,210.1839,2556.81,217.57" style="stroke:#181818;stroke-width:1.0;"/></g><!--link EmployeeController to AgencyRepository--><g id="link_EmployeeController_AgencyRepository"><path codeLine="79" d="M953.65,183.28 C1001.22,134.57 1071.07,74.52 1147,47.59 C1202.34,27.96 2152.33,19.69 2204,47.59 C2268.74,82.55 2307.75,163.09 2326.62,213.09 " fill="none" id="EmployeeController-to-AgencyRepository" style="stroke:#181818;stroke-width:1.0;"/><polygon fill="#181818" points="2328.6,217.43,2329.2115,207.6001,2326.8569,212.7437,2321.7134,210.3891,2328.6,217.43" style="stroke:#181818;stroke-width:1.0;"/></g><!--link Employee to Role--><g id="link_Employee_Role"><path codeLine="80" d="M3551.12,77.26 C3603.27,37.63 3662.46,15.69 3718,47.59 C3779.46,82.89 3790.48,175.83 3791.86,224.68 " fill="none" id="Employee-to-Role" style="stroke:#181818;stroke-width:1.0;"/><polygon fill="#181818" points="3791.98,229.42,3795.7987,220.3416,3791.8797,224.421,3787.8003,220.502,3791.98,229.42" style="stroke:#181818;stroke-width:1.0;"/></g><!--link Employee to Agency--><g id="link_Employee_Agency"><path codeLine="81" d="M3579.87,255.69 C3589.49,255.69 3599.11,255.69 3608.74,255.69 " fill="none" id="Employee-to-Agency" style="stroke:#181818;stroke-width:1.0;"/><polygon fill="#181818" points="3613.73,255.69,3604.73,251.69,3608.73,255.69,3604.73,259.69,3613.73,255.69" style="stroke:#181818;stroke-width:1.0;"/></g><!--link EmployeeController to ApplicationSession--><g id="link_EmployeeController_ApplicationSession"><path codeLine="82" d="M953.65,183.28 C1001.22,134.57 1071.07,74.52 1147,47.59 C1231.3,17.69 1872.81,6 1952,47.59 C2018.35,82.43 2060.04,163.4 2080.44,213.45 " fill="none" id="EmployeeController-to-ApplicationSession" style="stroke:#181818;stroke-width:1.0;"/><polygon fill="#181818" points="2082.59,217.79,2082.9614,207.9481,2080.733,213.1476,2075.5336,210.9193,2082.59,217.79" style="stroke:#181818;stroke-width:1.0;"/></g><!--link EmployeeController to Organization--><g id="link_EmployeeController_Organization"><path codeLine="83" d="M1112.2,255.69 C1121.75,255.69 1131.3,255.69 1140.85,255.69 " fill="none" id="EmployeeController-to-Organization" style="stroke:#181818;stroke-width:1.0;"/><polygon fill="#181818" points="1145.8,255.69,1136.8,251.69,1140.8,255.69,1136.8,259.69,1145.8,255.69" style="stroke:#181818;stroke-width:1.0;"/></g><!--SRC=[ZLJ1Rjim3BtxAtIRWxh0i0yOaAKTjai6nErjGC1AZ2D4bWn9IUiE-_VHjkJAZWEibpgFJ-JJ8obtahe12xKo_8I22Jp0MVdlHljIlYFxyZbpaS9gemq_MbCZy_QCIQG1Ve8AIzygP1Qv1rsfbE2E8Cohr1KxW7AOPLo1SwnidSTwBMgffVCMlB7iJ_OtXdTO4OpsiMwKQH6VVrAKqTyTunR1OxuAFuLqZO8sny0ic3KANS58bUOINIHMw6Es1_102SPg4T_GvUcqGXkgtVV9TjWO9qbX6y0-TNi5Hmb9OAfPGqtwi0Qf1fb1PLimvy5wqeKBiZxoaQmnMQmMxtUGMdnh7xlaULyY1iwDIFa56sJyV_tHZEvW-EJIqvJeFGShzlfSlw0D4GzlKm24iEZSQ199sqynJhu3zz4jXtvBbNgxLX_OPhFjq-QXzePA3qX2UeAtmFBnAuckXx9vA9z4TkH6tbcIidjlyi6Y12-ZL_cIQxl9n8nZMmqrN3ftwzaSfUHr6Dy9lscKvE2bqIN9ft_fYMVNxKlN_kJ8Brk1bk_zcR6FfRVTGYRj3CW5_3PjNO1VyOK4phZDqUWPrFSs-sZx4xWJzS6TLW6xW9BTCCu2Tmnq6wVj1xY58Kxl4VPe55jq0aiIM0oYnXKZNpseqFI2rQ2fb-Cy37lKIx5uG4j-qr61ZblPT7KA9lN1s1hK0u4Z-bjxv4TDZUZnaIpE5eOlJdKBrjrlGnKgwcn2Z5uaxz5iRRDF9C_19RM96hhqPDv_NNWgiuNNauZNhrosyF0bnEGTMtYA4kADFDDDk46Qxy18YnacmC2-bUfgFMuGqs7w1m00]--></g></svg>