<?xml version="1.0" encoding="UTF-8" standalone="no"?><svg xmlns="http://www.w3.org/2000/svg" xmlns:xlink="http://www.w3.org/1999/xlink" contentStyleType="text/css" height="1930px" preserveAspectRatio="none" style="width:2369px;height:1930px;background:#FFFFFF;" version="1.1" viewBox="0 0 2369 1930" width="2369px" zoomAndPan="magnify"><defs/><g><rect fill="#FFFFFF" height="1725.3984" style="stroke:#181818;stroke-width:1.0;" width="10" x="103.5" y="98.5547"/><rect fill="#FFFFFF" height="565.4297" style="stroke:#181818;stroke-width:1.0;" width="10" x="467.5" y="128.1094"/><rect fill="#FFFFFF" height="84.6641" style="stroke:#181818;stroke-width:1.0;" width="10" x="467.5" y="778.2031"/><rect fill="#FFFFFF" height="433.2109" style="stroke:#181818;stroke-width:1.0;" width="10" x="690" y="175.6641"/><rect fill="#FFFFFF" height="829.3125" style="stroke:#181818;stroke-width:1.0;" width="10" x="690" y="994.6406"/><rect fill="#FFFFFF" height="159.7734" style="stroke:#181818;stroke-width:1.0;" width="10" x="929" y="364.4375"/><rect fill="#FFFFFF" height="37.5547" style="stroke:#181818;stroke-width:1.0;" width="10" x="929" y="1107.3047"/><rect fill="#FFFFFF" height="37.5547" style="stroke:#181818;stroke-width:1.0;" width="10" x="1359.5" y="1032.1953"/><rect fill="#FFFFFF" height="37.5547" style="stroke:#181818;stroke-width:1.0;" width="10" x="1527" y="401.9922"/><rect fill="#FFFFFF" height="37.5547" style="stroke:#181818;stroke-width:1.0;" width="10" x="1675.5" y="214.2188"/><rect fill="#FFFFFF" height="37.5547" style="stroke:#181818;stroke-width:1.0;" width="10" x="1863" y="289.3281"/><rect fill="#FFFFFF" height="401.5469" style="stroke:#181818;stroke-width:1.0;" width="10" x="2040" y="1347.2969"/><line style="stroke:#181818;stroke-width:0.5;stroke-dasharray:5.0,5.0;" x1="108" x2="108" y1="88.5547" y2="1841.9531"/><line style="stroke:#181818;stroke-width:0.5;stroke-dasharray:5.0,5.0;" x1="472" x2="472" y1="88.5547" y2="1841.9531"/><line style="stroke:#181818;stroke-width:0.5;stroke-dasharray:5.0,5.0;" x1="694.5" x2="694.5" y1="170.3867" y2="1841.9531"/><line style="stroke:#181818;stroke-width:0.5;stroke-dasharray:5.0,5.0;" x1="933.5" x2="933.5" y1="88.5547" y2="1841.9531"/><line style="stroke:#181818;stroke-width:0.5;stroke-dasharray:5.0,5.0;" x1="1152.5" x2="1152.5" y1="88.5547" y2="1841.9531"/><line style="stroke:#181818;stroke-width:0.5;stroke-dasharray:5.0,5.0;" x1="1364.5" x2="1364.5" y1="88.5547" y2="1841.9531"/><line style="stroke:#181818;stroke-width:0.5;stroke-dasharray:5.0,5.0;" x1="1531.5" x2="1531.5" y1="88.5547" y2="1841.9531"/><line style="stroke:#181818;stroke-width:0.5;stroke-dasharray:5.0,5.0;" x1="1680.5" x2="1680.5" y1="88.5547" y2="1841.9531"/><line style="stroke:#181818;stroke-width:0.5;stroke-dasharray:5.0,5.0;" x1="1867.5" x2="1867.5" y1="88.5547" y2="1841.9531"/><line style="stroke:#181818;stroke-width:0.5;stroke-dasharray:5.0,5.0;" x1="2044.5" x2="2044.5" y1="88.5547" y2="1841.9531"/><text fill="#000000" font-family="sans-serif" font-size="20" lengthAdjust="spacing" textLength="201" x="5" y="84.3359">SystemAdministrator</text><ellipse cx="108.5" cy="13.5" fill="#E3E3E3" rx="8" ry="8" style="stroke:#181818;stroke-width:0.5;"/><path d="M108.5,21.5 L108.5,48.5 M95.5,29.5 L121.5,29.5 M108.5,48.5 L95.5,63.5 M108.5,48.5 L121.5,63.5 " fill="none" style="stroke:#181818;stroke-width:0.5;"/><text fill="#000000" font-family="sans-serif" font-size="20" lengthAdjust="spacing" textLength="201" x="5" y="1860.2891">SystemAdministrator</text><ellipse cx="108.5" cy="1873.0078" fill="#E3E3E3" rx="8" ry="8" style="stroke:#181818;stroke-width:0.5;"/><path d="M108.5,1881.0078 L108.5,1908.0078 M95.5,1889.0078 L121.5,1889.0078 M108.5,1908.0078 L95.5,1923.0078 M108.5,1908.0078 L121.5,1923.0078 " fill="none" style="stroke:#181818;stroke-width:0.5;"/><rect fill="#E3E3E3" height="37.5547" rx="2.5" ry="2.5" style="stroke:#181818;stroke-width:0.5;" width="211" x="367" y="50"/><text fill="#000000" font-family="sans-serif" font-size="20" lengthAdjust="spacing" textLength="197" x="374" y="76.3359">:RegisterEmployeeUI</text><rect fill="#E3E3E3" height="37.5547" rx="2.5" ry="2.5" style="stroke:#181818;stroke-width:0.5;" width="211" x="367" y="1840.9531"/><text fill="#000000" font-family="sans-serif" font-size="20" lengthAdjust="spacing" textLength="197" x="374" y="1867.2891">:RegisterEmployeeUI</text><rect fill="#E3E3E3" height="37.5547" rx="2.5" ry="2.5" style="stroke:#181818;stroke-width:0.5;" width="209" x="590.5" y="1840.9531"/><text fill="#000000" font-family="sans-serif" font-size="20" lengthAdjust="spacing" textLength="195" x="597.5" y="1867.2891">:EmployeeController</text><rect fill="#E3E3E3" height="37.5547" rx="2.5" ry="2.5" style="stroke:#181818;stroke-width:0.5;" width="215" x="826.5" y="50"/><text fill="#000000" font-family="sans-serif" font-size="20" lengthAdjust="spacing" textLength="201" x="833.5" y="76.3359">:EmployeeRepository</text><rect fill="#E3E3E3" height="37.5547" rx="2.5" ry="2.5" style="stroke:#181818;stroke-width:0.5;" width="215" x="826.5" y="1840.9531"/><text fill="#000000" font-family="sans-serif" font-size="20" lengthAdjust="spacing" textLength="201" x="833.5" y="1867.2891">:EmployeeRepository</text><rect fill="#E3E3E3" height="37.5547" rx="2.5" ry="2.5" style="stroke:#181818;stroke-width:0.5;" width="202" x="1051.5" y="50"/><text fill="#000000" font-family="sans-serif" font-size="20" lengthAdjust="spacing" textLength="188" x="1058.5" y="76.3359">:ApplicationSession</text><rect fill="#E3E3E3" height="37.5547" rx="2.5" ry="2.5" style="stroke:#181818;stroke-width:0.5;" width="202" x="1051.5" y="1840.9531"/><text fill="#000000" font-family="sans-serif" font-size="20" lengthAdjust="spacing" textLength="188" x="1058.5" y="1867.2891">:ApplicationSession</text><rect fill="#E3E3E3" height="61.1094" rx="2.5" ry="2.5" style="stroke:#181818;stroke-width:0.5;" width="202" x="1263.5" y="26.4453"/><text fill="#000000" font-family="sans-serif" font-size="20" lengthAdjust="spacing" textLength="109" x="1310" y="52.7813">appSession</text><text fill="#000000" font-family="sans-serif" font-size="20" lengthAdjust="spacing" textLength="188" x="1270.5" y="76.3359">:ApplicationSession</text><rect fill="#E3E3E3" height="61.1094" rx="2.5" ry="2.5" style="stroke:#181818;stroke-width:0.5;" width="202" x="1263.5" y="1840.9531"/><text fill="#000000" font-family="sans-serif" font-size="20" lengthAdjust="spacing" textLength="109" x="1310" y="1867.2891">appSession</text><text fill="#000000" font-family="sans-serif" font-size="20" lengthAdjust="spacing" textLength="188" x="1270.5" y="1890.8438">:ApplicationSession</text><rect fill="#E3E3E3" height="61.1094" rx="2.5" ry="2.5" style="stroke:#181818;stroke-width:0.5;" width="113" x="1475.5" y="26.4453"/><text fill="#000000" font-family="sans-serif" font-size="20" lengthAdjust="spacing" textLength="93" x="1485.5" y="52.7813">employee</text><text fill="#000000" font-family="sans-serif" font-size="20" lengthAdjust="spacing" textLength="99" x="1482.5" y="76.3359">:Employee</text><rect fill="#E3E3E3" height="61.1094" rx="2.5" ry="2.5" style="stroke:#181818;stroke-width:0.5;" width="113" x="1475.5" y="1840.9531"/><text fill="#000000" font-family="sans-serif" font-size="20" lengthAdjust="spacing" textLength="93" x="1485.5" y="1867.2891">employee</text><text fill="#000000" font-family="sans-serif" font-size="20" lengthAdjust="spacing" textLength="99" x="1482.5" y="1890.8438">:Employee</text><rect fill="#E3E3E3" height="37.5547" rx="2.5" ry="2.5" style="stroke:#181818;stroke-width:0.5;" width="164" x="1598.5" y="50"/><text fill="#000000" font-family="sans-serif" font-size="20" lengthAdjust="spacing" textLength="150" x="1605.5" y="76.3359">:RoleRepository</text><rect fill="#E3E3E3" height="37.5547" rx="2.5" ry="2.5" style="stroke:#181818;stroke-width:0.5;" width="164" x="1598.5" y="1840.9531"/><text fill="#000000" font-family="sans-serif" font-size="20" lengthAdjust="spacing" textLength="150" x="1605.5" y="1867.2891">:RoleRepository</text><rect fill="#E3E3E3" height="37.5547" rx="2.5" ry="2.5" style="stroke:#181818;stroke-width:0.5;" width="191" x="1772.5" y="50"/><text fill="#000000" font-family="sans-serif" font-size="20" lengthAdjust="spacing" textLength="177" x="1779.5" y="76.3359">:AgencyRepository</text><rect fill="#E3E3E3" height="37.5547" rx="2.5" ry="2.5" style="stroke:#181818;stroke-width:0.5;" width="191" x="1772.5" y="1840.9531"/><text fill="#000000" font-family="sans-serif" font-size="20" lengthAdjust="spacing" textLength="177" x="1779.5" y="1867.2891">:AgencyRepository</text><rect fill="#E3E3E3" height="37.5547" rx="2.5" ry="2.5" style="stroke:#181818;stroke-width:0.5;" width="143" x="1973.5" y="50"/><text fill="#000000" font-family="sans-serif" font-size="20" lengthAdjust="spacing" textLength="129" x="1980.5" y="76.3359">:Organisation</text><rect fill="#E3E3E3" height="37.5547" rx="2.5" ry="2.5" style="stroke:#181818;stroke-width:0.5;" width="143" x="1973.5" y="1840.9531"/><text fill="#000000" font-family="sans-serif" font-size="20" lengthAdjust="spacing" textLength="129" x="1980.5" y="1867.2891">:Organisation</text><rect fill="#FFFFFF" height="1725.3984" style="stroke:#181818;stroke-width:1.0;" width="10" x="103.5" y="98.5547"/><rect fill="#FFFFFF" height="565.4297" style="stroke:#181818;stroke-width:1.0;" width="10" x="467.5" y="128.1094"/><rect fill="#FFFFFF" height="84.6641" style="stroke:#181818;stroke-width:1.0;" width="10" x="467.5" y="778.2031"/><rect fill="#FFFFFF" height="433.2109" style="stroke:#181818;stroke-width:1.0;" width="10" x="690" y="175.6641"/><rect fill="#FFFFFF" height="829.3125" style="stroke:#181818;stroke-width:1.0;" width="10" x="690" y="994.6406"/><rect fill="#FFFFFF" height="159.7734" style="stroke:#181818;stroke-width:1.0;" width="10" x="929" y="364.4375"/><rect fill="#FFFFFF" height="37.5547" style="stroke:#181818;stroke-width:1.0;" width="10" x="929" y="1107.3047"/><rect fill="#FFFFFF" height="37.5547" style="stroke:#181818;stroke-width:1.0;" width="10" x="1359.5" y="1032.1953"/><rect fill="#FFFFFF" height="37.5547" style="stroke:#181818;stroke-width:1.0;" width="10" x="1527" y="401.9922"/><rect fill="#FFFFFF" height="37.5547" style="stroke:#181818;stroke-width:1.0;" width="10" x="1675.5" y="214.2188"/><rect fill="#FFFFFF" height="37.5547" style="stroke:#181818;stroke-width:1.0;" width="10" x="1863" y="289.3281"/><rect fill="#FFFFFF" height="401.5469" style="stroke:#181818;stroke-width:1.0;" width="10" x="2040" y="1347.2969"/><polygon fill="#181818" points="455.5,124.1094,465.5,128.1094,455.5,132.1094,459.5,128.1094" style="stroke:#181818;stroke-width:1.0;"/><line style="stroke:#181818;stroke-width:1.0;" x1="113.5" x2="461.5" y1="128.1094" y2="128.1094"/><text fill="#000000" font-family="sans-serif" font-size="20" font-weight="bold" lengthAdjust="spacing" textLength="13" x="120.5" y="121.8906">1</text><text fill="#000000" font-family="sans-serif" font-size="20" lengthAdjust="spacing" textLength="293" x="137.5" y="121.8906">opens Register Employee form</text><polygon fill="#181818" points="578.5,161.6641,588.5,165.6641,578.5,169.6641,582.5,165.6641" style="stroke:#181818;stroke-width:1.0;"/><line style="stroke:#181818;stroke-width:1.0;" x1="477.5" x2="584.5" y1="165.6641" y2="165.6641"/><text fill="#000000" font-family="sans-serif" font-size="20" font-weight="bold" lengthAdjust="spacing" textLength="13" x="484.5" y="159.4453">2</text><text fill="#000000" font-family="sans-serif" font-size="20" lengthAdjust="spacing" textLength="72" x="501.5" y="159.4453">create()</text><rect fill="#E3E3E3" height="37.5547" rx="2.5" ry="2.5" style="stroke:#181818;stroke-width:0.5;" width="209" x="590.5" y="136.1094"/><text fill="#000000" font-family="sans-serif" font-size="20" lengthAdjust="spacing" textLength="195" x="597.5" y="162.4453">:EmployeeController</text><polygon fill="#181818" points="1663.5,210.2188,1673.5,214.2188,1663.5,218.2188,1667.5,214.2188" style="stroke:#181818;stroke-width:1.0;"/><line style="stroke:#181818;stroke-width:1.0;" x1="700" x2="1669.5" y1="214.2188" y2="214.2188"/><text fill="#000000" font-family="sans-serif" font-size="20" font-weight="bold" lengthAdjust="spacing" textLength="13" x="707" y="208">3</text><text fill="#000000" font-family="sans-serif" font-size="20" lengthAdjust="spacing" textLength="96" x="724" y="208">getRoles()</text><polygon fill="#181818" points="711,247.7734,701,251.7734,711,255.7734,707,251.7734" style="stroke:#181818;stroke-width:1.0;"/><line style="stroke:#181818;stroke-width:1.0;stroke-dasharray:2.0,2.0;" x1="705" x2="1679.5" y1="251.7734" y2="251.7734"/><text fill="#000000" font-family="sans-serif" font-size="20" font-weight="bold" lengthAdjust="spacing" textLength="13" x="717" y="245.5547">4</text><text fill="#000000" font-family="sans-serif" font-size="20" lengthAdjust="spacing" textLength="47" x="734" y="245.5547">roles</text><polygon fill="#181818" points="1851,285.3281,1861,289.3281,1851,293.3281,1855,289.3281" style="stroke:#181818;stroke-width:1.0;"/><line style="stroke:#181818;stroke-width:1.0;" x1="700" x2="1857" y1="289.3281" y2="289.3281"/><text fill="#000000" font-family="sans-serif" font-size="20" font-weight="bold" lengthAdjust="spacing" textLength="13" x="707" y="283.1094">5</text><text fill="#000000" font-family="sans-serif" font-size="20" lengthAdjust="spacing" textLength="130" x="724" y="283.1094">getAgencies()</text><polygon fill="#181818" points="711,322.8828,701,326.8828,711,330.8828,707,326.8828" style="stroke:#181818;stroke-width:1.0;"/><line style="stroke:#181818;stroke-width:1.0;stroke-dasharray:2.0,2.0;" x1="705" x2="1867" y1="326.8828" y2="326.8828"/><text fill="#000000" font-family="sans-serif" font-size="20" font-weight="bold" lengthAdjust="spacing" textLength="13" x="717" y="320.6641">6</text><text fill="#000000" font-family="sans-serif" font-size="20" lengthAdjust="spacing" textLength="83" x="734" y="320.6641">agencies</text><polygon fill="#181818" points="917,360.4375,927,364.4375,917,368.4375,921,364.4375" style="stroke:#181818;stroke-width:1.0;"/><line style="stroke:#181818;stroke-width:1.0;" x1="700" x2="923" y1="364.4375" y2="364.4375"/><text fill="#000000" font-family="sans-serif" font-size="20" font-weight="bold" lengthAdjust="spacing" textLength="13" x="707" y="358.2188">7</text><text fill="#000000" font-family="sans-serif" font-size="20" lengthAdjust="spacing" textLength="72" x="724" y="358.2188">create()</text><polygon fill="#181818" points="1515,397.9922,1525,401.9922,1515,405.9922,1519,401.9922" style="stroke:#181818;stroke-width:1.0;"/><line style="stroke:#181818;stroke-width:1.0;" x1="939" x2="1521" y1="401.9922" y2="401.9922"/><text fill="#000000" font-family="sans-serif" font-size="20" font-weight="bold" lengthAdjust="spacing" textLength="13" x="946" y="395.7734">8</text><text fill="#000000" font-family="sans-serif" font-size="20" lengthAdjust="spacing" textLength="72" x="963" y="395.7734">create()</text><polygon fill="#181818" points="950,435.5469,940,439.5469,950,443.5469,946,439.5469" style="stroke:#181818;stroke-width:1.0;"/><line style="stroke:#181818;stroke-width:1.0;stroke-dasharray:2.0,2.0;" x1="944" x2="1531" y1="439.5469" y2="439.5469"/><text fill="#000000" font-family="sans-serif" font-size="20" font-weight="bold" lengthAdjust="spacing" textLength="13" x="956" y="433.3281">9</text><text fill="#000000" font-family="sans-serif" font-size="20" lengthAdjust="spacing" textLength="93" x="973" y="433.3281">employee</text><polygon fill="#181818" points="711,520.2109,701,524.2109,711,528.2109,707,524.2109" style="stroke:#181818;stroke-width:1.0;"/><line style="stroke:#181818;stroke-width:1.0;stroke-dasharray:2.0,2.0;" x1="705" x2="933" y1="524.2109" y2="524.2109"/><text fill="#000000" font-family="sans-serif" font-size="20" font-weight="bold" lengthAdjust="spacing" textLength="26" x="717" y="494.4375">10</text><text fill="#000000" font-family="sans-serif" font-size="20" lengthAdjust="spacing" textLength="99" x="747" y="470.8828">employee,</text><text fill="#000000" font-family="sans-serif" font-size="20" lengthAdjust="spacing" textLength="53" x="747" y="494.4375">roles,</text><text fill="#000000" font-family="sans-serif" font-size="20" lengthAdjust="spacing" textLength="83" x="747" y="517.9922">agencies</text><polygon fill="#181818" points="488.5,604.875,478.5,608.875,488.5,612.875,484.5,608.875" style="stroke:#181818;stroke-width:1.0;"/><line style="stroke:#181818;stroke-width:1.0;stroke-dasharray:2.0,2.0;" x1="482.5" x2="694" y1="608.875" y2="608.875"/><text fill="#000000" font-family="sans-serif" font-size="20" font-weight="bold" lengthAdjust="spacing" textLength="26" x="494.5" y="579.1016">11</text><text fill="#000000" font-family="sans-serif" font-size="20" lengthAdjust="spacing" textLength="99" x="524.5" y="555.5469">employee,</text><text fill="#000000" font-family="sans-serif" font-size="20" lengthAdjust="spacing" textLength="53" x="524.5" y="579.1016">roles,</text><text fill="#000000" font-family="sans-serif" font-size="20" lengthAdjust="spacing" textLength="83" x="524.5" y="602.6563">agencies</text><polygon fill="#181818" points="124.5,689.5391,114.5,693.5391,124.5,697.5391,120.5,693.5391" style="stroke:#181818;stroke-width:1.0;"/><line style="stroke:#181818;stroke-width:1.0;stroke-dasharray:2.0,2.0;" x1="118.5" x2="471.5" y1="693.5391" y2="693.5391"/><text fill="#000000" font-family="sans-serif" font-size="20" font-weight="bold" lengthAdjust="spacing" textLength="26" x="130.5" y="663.7656">12</text><text fill="#000000" font-family="sans-serif" font-size="20" lengthAdjust="spacing" textLength="300" x="160.5" y="640.2109">shows Register Employee form,</text><text fill="#000000" font-family="sans-serif" font-size="20" lengthAdjust="spacing" textLength="53" x="160.5" y="663.7656">roles,</text><text fill="#000000" font-family="sans-serif" font-size="20" lengthAdjust="spacing" textLength="83" x="160.5" y="687.3203">agencies</text><polygon fill="#181818" points="455.5,774.2031,465.5,778.2031,455.5,782.2031,459.5,778.2031" style="stroke:#181818;stroke-width:1.0;"/><line style="stroke:#181818;stroke-width:1.0;" x1="113.5" x2="461.5" y1="778.2031" y2="778.2031"/><text fill="#000000" font-family="sans-serif" font-size="20" font-weight="bold" lengthAdjust="spacing" textLength="26" x="120.5" y="748.4297">13</text><text fill="#000000" font-family="sans-serif" font-size="20" lengthAdjust="spacing" textLength="282" x="150.5" y="724.875">fills in employee information,</text><text fill="#000000" font-family="sans-serif" font-size="20" lengthAdjust="spacing" textLength="43" x="150.5" y="748.4297">role,</text><text fill="#000000" font-family="sans-serif" font-size="20" lengthAdjust="spacing" textLength="66" x="150.5" y="771.9844">agency</text><polygon fill="#181818" points="124.5,858.8672,114.5,862.8672,124.5,866.8672,120.5,862.8672" style="stroke:#181818;stroke-width:1.0;"/><line style="stroke:#181818;stroke-width:1.0;stroke-dasharray:2.0,2.0;" x1="118.5" x2="471.5" y1="862.8672" y2="862.8672"/><text fill="#000000" font-family="sans-serif" font-size="20" font-weight="bold" lengthAdjust="spacing" textLength="26" x="130.5" y="833.0938">14</text><text fill="#000000" font-family="sans-serif" font-size="20" lengthAdjust="spacing" textLength="209" x="160.5" y="809.5391">sends employee data,</text><text fill="#000000" font-family="sans-serif" font-size="20" lengthAdjust="spacing" textLength="43" x="160.5" y="833.0938">role,</text><text fill="#000000" font-family="sans-serif" font-size="20" lengthAdjust="spacing" textLength="66" x="160.5" y="856.6484">agency</text><polygon fill="#181818" points="678,990.6406,688,994.6406,678,998.6406,682,994.6406" style="stroke:#181818;stroke-width:1.0;"/><line style="stroke:#181818;stroke-width:1.0;" x1="113.5" x2="684" y1="994.6406" y2="994.6406"/><text fill="#000000" font-family="sans-serif" font-size="20" font-weight="bold" lengthAdjust="spacing" textLength="26" x="120.5" y="941.3125">15</text><text fill="#000000" font-family="sans-serif" font-size="20" lengthAdjust="spacing" textLength="232" x="150.5" y="894.2031">registerEmployee(name,</text><text fill="#000000" font-family="sans-serif" font-size="20" lengthAdjust="spacing" textLength="59" x="150.5" y="917.7578">email,</text><text fill="#000000" font-family="sans-serif" font-size="20" lengthAdjust="spacing" textLength="43" x="150.5" y="941.3125">role,</text><text fill="#000000" font-family="sans-serif" font-size="20" lengthAdjust="spacing" textLength="72" x="150.5" y="964.8672">agency,</text><text fill="#000000" font-family="sans-serif" font-size="20" lengthAdjust="spacing" textLength="94" x="150.5" y="988.4219">startDate)</text><polygon fill="#181818" points="1347.5,1028.1953,1357.5,1032.1953,1347.5,1036.1953,1351.5,1032.1953" style="stroke:#181818;stroke-width:1.0;"/><line style="stroke:#181818;stroke-width:1.0;" x1="700" x2="1353.5" y1="1032.1953" y2="1032.1953"/><text fill="#000000" font-family="sans-serif" font-size="20" font-weight="bold" lengthAdjust="spacing" textLength="26" x="707" y="1025.9766">16</text><text fill="#000000" font-family="sans-serif" font-size="20" lengthAdjust="spacing" textLength="140" x="737" y="1025.9766">getUserEmail()</text><polygon fill="#181818" points="711,1065.75,701,1069.75,711,1073.75,707,1069.75" style="stroke:#181818;stroke-width:1.0;"/><line style="stroke:#181818;stroke-width:1.0;stroke-dasharray:2.0,2.0;" x1="705" x2="1363.5" y1="1069.75" y2="1069.75"/><text fill="#000000" font-family="sans-serif" font-size="20" font-weight="bold" lengthAdjust="spacing" textLength="26" x="717" y="1063.5313">17</text><text fill="#000000" font-family="sans-serif" font-size="20" lengthAdjust="spacing" textLength="53" x="747" y="1063.5313">email</text><polygon fill="#181818" points="917,1103.3047,927,1107.3047,917,1111.3047,921,1107.3047" style="stroke:#181818;stroke-width:1.0;"/><line style="stroke:#181818;stroke-width:1.0;" x1="700" x2="923" y1="1107.3047" y2="1107.3047"/><text fill="#000000" font-family="sans-serif" font-size="20" font-weight="bold" lengthAdjust="spacing" textLength="26" x="707" y="1101.0859">18</text><text fill="#000000" font-family="sans-serif" font-size="20" lengthAdjust="spacing" textLength="180" x="737" y="1101.0859">findByEmail(email)</text><polygon fill="#181818" points="711,1140.8594,701,1144.8594,711,1148.8594,707,1144.8594" style="stroke:#181818;stroke-width:1.0;"/><line style="stroke:#181818;stroke-width:1.0;stroke-dasharray:2.0,2.0;" x1="705" x2="933" y1="1144.8594" y2="1144.8594"/><text fill="#000000" font-family="sans-serif" font-size="20" font-weight="bold" lengthAdjust="spacing" textLength="26" x="717" y="1138.6406">19</text><text fill="#000000" font-family="sans-serif" font-size="20" lengthAdjust="spacing" textLength="93" x="747" y="1138.6406">employee</text><polygon fill="#181818" points="2028,1343.2969,2038,1347.2969,2028,1351.2969,2032,1347.2969" style="stroke:#181818;stroke-width:1.0;"/><line style="stroke:#181818;stroke-width:1.0;" x1="700" x2="2034" y1="1347.2969" y2="1347.2969"/><text fill="#000000" font-family="sans-serif" font-size="20" font-weight="bold" lengthAdjust="spacing" textLength="26" x="707" y="1258.6367">20</text><text fill="#000000" font-family="sans-serif" font-size="20" lengthAdjust="spacing" textLength="158" x="737" y="1176.1953">createEmployee(</text><text fill="#000000" font-family="sans-serif" font-size="20" lengthAdjust="spacing" textLength="59" x="737" y="1199.75">name,</text><text fill="#000000" font-family="sans-serif" font-size="20" lengthAdjust="spacing" textLength="101" x="737" y="1223.3047">ccnumber,</text><text fill="#000000" font-family="sans-serif" font-size="20" lengthAdjust="spacing" textLength="111" x="737" y="1246.8594">taxnumber,</text><text fill="#000000" font-family="sans-serif" font-size="20" lengthAdjust="spacing" textLength="82" x="737" y="1270.4141">address,</text><text fill="#000000" font-family="sans-serif" font-size="20" lengthAdjust="spacing" textLength="43" x="737" y="1293.9688">role,</text><text fill="#000000" font-family="sans-serif" font-size="20" lengthAdjust="spacing" textLength="72" x="737" y="1317.5234">agency,</text><text fill="#000000" font-family="sans-serif" font-size="20" lengthAdjust="spacing" textLength="94" x="737" y="1341.0781">startDate)</text><polygon fill="#181818" points="1543,1380.8516,1533,1384.8516,1543,1388.8516,1539,1384.8516" style="stroke:#181818;stroke-width:1.0;"/><line style="stroke:#181818;stroke-width:1.0;" x1="1537" x2="2039" y1="1384.8516" y2="1384.8516"/><text fill="#000000" font-family="sans-serif" font-size="20" font-weight="bold" lengthAdjust="spacing" textLength="26" x="1549" y="1378.6328">21</text><text fill="#000000" font-family="sans-serif" font-size="20" lengthAdjust="spacing" textLength="151" x="1579" y="1378.6328">setName(name)</text><polygon fill="#181818" points="1543,1418.4063,1533,1422.4063,1543,1426.4063,1539,1422.4063" style="stroke:#181818;stroke-width:1.0;"/><line style="stroke:#181818;stroke-width:1.0;" x1="1537" x2="2039" y1="1422.4063" y2="1422.4063"/><text fill="#000000" font-family="sans-serif" font-size="20" font-weight="bold" lengthAdjust="spacing" textLength="26" x="1549" y="1416.1875">22</text><text fill="#000000" font-family="sans-serif" font-size="20" lengthAdjust="spacing" textLength="243" x="1579" y="1416.1875">setCCNumber(ccnumber)</text><polygon fill="#181818" points="1543,1455.9609,1533,1459.9609,1543,1463.9609,1539,1459.9609" style="stroke:#181818;stroke-width:1.0;"/><line style="stroke:#181818;stroke-width:1.0;" x1="1537" x2="2039" y1="1459.9609" y2="1459.9609"/><text fill="#000000" font-family="sans-serif" font-size="20" font-weight="bold" lengthAdjust="spacing" textLength="26" x="1549" y="1453.7422">23</text><text fill="#000000" font-family="sans-serif" font-size="20" lengthAdjust="spacing" textLength="261" x="1579" y="1453.7422">setTaxNumber(taxnumber)</text><polygon fill="#181818" points="1543,1493.5156,1533,1497.5156,1543,1501.5156,1539,1497.5156" style="stroke:#181818;stroke-width:1.0;"/><line style="stroke:#181818;stroke-width:1.0;" x1="1537" x2="2039" y1="1497.5156" y2="1497.5156"/><text fill="#000000" font-family="sans-serif" font-size="20" font-weight="bold" lengthAdjust="spacing" textLength="26" x="1549" y="1491.2969">24</text><text fill="#000000" font-family="sans-serif" font-size="20" lengthAdjust="spacing" textLength="197" x="1579" y="1491.2969">setAddress(address)</text><polygon fill="#181818" points="1543,1531.0703,1533,1535.0703,1543,1539.0703,1539,1535.0703" style="stroke:#181818;stroke-width:1.0;"/><line style="stroke:#181818;stroke-width:1.0;" x1="1537" x2="2039" y1="1535.0703" y2="1535.0703"/><text fill="#000000" font-family="sans-serif" font-size="20" font-weight="bold" lengthAdjust="spacing" textLength="26" x="1549" y="1528.8516">25</text><text fill="#000000" font-family="sans-serif" font-size="20" lengthAdjust="spacing" textLength="121" x="1579" y="1528.8516">setRole(role)</text><polygon fill="#181818" points="1543,1568.625,1533,1572.625,1543,1576.625,1539,1572.625" style="stroke:#181818;stroke-width:1.0;"/><line style="stroke:#181818;stroke-width:1.0;" x1="1537" x2="2039" y1="1572.625" y2="1572.625"/><text fill="#000000" font-family="sans-serif" font-size="20" font-weight="bold" lengthAdjust="spacing" textLength="26" x="1549" y="1566.4063">26</text><text fill="#000000" font-family="sans-serif" font-size="20" lengthAdjust="spacing" textLength="177" x="1579" y="1566.4063">setAgency(agency)</text><polygon fill="#181818" points="1543,1606.1797,1533,1610.1797,1543,1614.1797,1539,1610.1797" style="stroke:#181818;stroke-width:1.0;"/><line style="stroke:#181818;stroke-width:1.0;" x1="1537" x2="2039" y1="1610.1797" y2="1610.1797"/><text fill="#000000" font-family="sans-serif" font-size="20" font-weight="bold" lengthAdjust="spacing" textLength="26" x="1549" y="1603.9609">27</text><text fill="#000000" font-family="sans-serif" font-size="20" lengthAdjust="spacing" textLength="217" x="1579" y="1603.9609">setStartDate(startDate)</text><line style="stroke:#181818;stroke-width:1.0;" x1="2050" x2="2092" y1="1647.7344" y2="1647.7344"/><line style="stroke:#181818;stroke-width:1.0;" x1="2092" x2="2092" y1="1647.7344" y2="1660.7344"/><line style="stroke:#181818;stroke-width:1.0;" x1="2051" x2="2092" y1="1660.7344" y2="1660.7344"/><polygon fill="#181818" points="2061,1656.7344,2051,1660.7344,2061,1664.7344,2057,1660.7344" style="stroke:#181818;stroke-width:1.0;"/><text fill="#000000" font-family="sans-serif" font-size="20" font-weight="bold" lengthAdjust="spacing" textLength="26" x="2057" y="1641.5156">28</text><text fill="#000000" font-family="sans-serif" font-size="20" lengthAdjust="spacing" textLength="275" x="2087" y="1641.5156">validateEmployee(employee)</text><line style="stroke:#181818;stroke-width:1.0;" x1="2050" x2="2092" y1="1698.2891" y2="1698.2891"/><line style="stroke:#181818;stroke-width:1.0;" x1="2092" x2="2092" y1="1698.2891" y2="1711.2891"/><line style="stroke:#181818;stroke-width:1.0;" x1="2051" x2="2092" y1="1711.2891" y2="1711.2891"/><polygon fill="#181818" points="2061,1707.2891,2051,1711.2891,2061,1715.2891,2057,1711.2891" style="stroke:#181818;stroke-width:1.0;"/><text fill="#000000" font-family="sans-serif" font-size="20" font-weight="bold" lengthAdjust="spacing" textLength="26" x="2057" y="1692.0703">29</text><text fill="#000000" font-family="sans-serif" font-size="20" lengthAdjust="spacing" textLength="242" x="2087" y="1692.0703">saveEmployee(employee)</text><polygon fill="#181818" points="945,1744.8438,935,1748.8438,945,1752.8438,941,1748.8438" style="stroke:#181818;stroke-width:1.0;"/><line style="stroke:#181818;stroke-width:1.0;stroke-dasharray:2.0,2.0;" x1="939" x2="1531" y1="1748.8438" y2="1748.8438"/><text fill="#000000" font-family="sans-serif" font-size="20" font-weight="bold" lengthAdjust="spacing" textLength="26" x="951" y="1742.625">30</text><text fill="#000000" font-family="sans-serif" font-size="20" lengthAdjust="spacing" textLength="93" x="981" y="1742.625">employee</text><polygon fill="#181818" points="711,1782.3984,701,1786.3984,711,1790.3984,707,1786.3984" style="stroke:#181818;stroke-width:1.0;"/><line style="stroke:#181818;stroke-width:1.0;stroke-dasharray:2.0,2.0;" x1="705" x2="933" y1="1786.3984" y2="1786.3984"/><text fill="#000000" font-family="sans-serif" font-size="20" font-weight="bold" lengthAdjust="spacing" textLength="26" x="717" y="1780.1797">31</text><text fill="#000000" font-family="sans-serif" font-size="20" lengthAdjust="spacing" textLength="93" x="747" y="1780.1797">employee</text><polygon fill="#181818" points="119.5,1819.9531,109.5,1823.9531,119.5,1827.9531,115.5,1823.9531" style="stroke:#181818;stroke-width:1.0;"/><line style="stroke:#181818;stroke-width:1.0;stroke-dasharray:2.0,2.0;" x1="113.5" x2="694" y1="1823.9531" y2="1823.9531"/><text fill="#000000" font-family="sans-serif" font-size="20" font-weight="bold" lengthAdjust="spacing" textLength="26" x="125.5" y="1817.7344">32</text><text fill="#000000" font-family="sans-serif" font-size="20" lengthAdjust="spacing" textLength="373" x="155.5" y="1817.7344">displays employee registration success</text><!--SRC=[dLPTJzim57tFhx1uMK4WJNlimwIki0bfGDN0mwI-cEGsM3XsPBj0zkjtxSGXTZuAyqjS-zpZu_lbwcScAgfeoMNs33d9OKyFtFoKmgJiBv1lNnFj8QIKGcPFIfP0Z3f0RwUYsJCj83Kr1w8WCrGKl0_GJpINhqmKP4-vXYIX1oF5eNm4bIHVdbWEP2-bUPHl2SsCLEGahRM1SfMNJ31j5CN54q8rIV-agykR16aDorX5XI4dooqK209rLLPSrW0FrmxxS1tX_FuQxwSavz1mhk-tloUGMwYaPdXuxP33vSXkLLMSPTGmALBG6Z_ERhNPX41QLUt-JamPfLTfUdrt6nf2gm3Dl9X6sSqcTehaiVnmAPPUWCZgo29UZ6pkL44nFawwmzzjVoKsXEo56l31IWYEPauklcDOo9B82WGAQWFNEHRJG9KEtv5W5Ds27MYA13PUPsT8aYb0nEAqs- -CN4YxPJliYZKEVO0a1HYxfdiq0LNaj01aHqHuqGf4PcLf0tmE7wBrMcFlDshTAfiMF8ZPGFA0joUQjknJkkVPlV9XeOo5Av0zKbi3uIEqzh2RpHHxU0BMo63NqIB1nPHgNt43ovvJHfd7nBxxsTEUxuJB4_mUS_qn3pNEznNsaGDwv675s493ehPebzZ0vUjKkKuTq2FtDHmrWJtZN1CcEgqujuokdxIqdhMUxmg1M12vVkVCgQ6ZPBC2VGr7Jyj2qDBIG4aPZrbneWqso4kaF4rc6f8laxR5DtNzeEqnI3lMqFnZ40JScmTfXGHZyHqGp9RgdedyHzseSPGZaewbuyVoF_baedlP-D9qHTy5PoTSUCXEP5dpzyBE3Nrx_q7pNE4ZQwT7OXTSrZri_TlPyxlUey7Sui4kEKvdOUlrhPEoy0BduVVqhSLtbvWtM3NNMxJNd0VRDsXXlN24qpbeqVXf7ffw5ov6dDapmC-Il53EydxuV4vCcsZwCWPF_h-Rzz8kYF4dixVhlLqNofckEArxZQZf9SfrDw8FMOO1IaRRSBzk7Ty_]--></g></svg>