<?xml version="1.0" encoding="us-ascii" standalone="no"?><svg xmlns="http://www.w3.org/2000/svg" xmlns:xlink="http://www.w3.org/1999/xlink" contentStyleType="text/css" height="1589px" preserveAspectRatio="none" style="width:1606px;height:1589px;background:#FFFFFF;" version="1.1" viewBox="0 0 1606 1589" width="1606px" zoomAndPan="magnify"><defs/><g><rect fill="#FFFFFF" height="1394.7539" style="stroke:#181818;stroke-width:1.0;" width="10" x="67.5" y="93.6211"/><rect fill="#FFFFFF" height="460.2773" style="stroke:#181818;stroke-width:1.0;" width="10" x="303.5" y="116.9121"/><rect fill="#FFFFFF" height="65.873" style="stroke:#181818;stroke-width:1.0;" width="10" x="303.5" y="643.0625"/><rect fill="#FFFFFF" height="353.1133" style="stroke:#181818;stroke-width:1.0;" width="10" x="458.5" y="158.2031"/><rect fill="#FFFFFF" height="678.9844" style="stroke:#181818;stroke-width:1.0;" width="10" x="458.5" y="809.3906"/><rect fill="#FFFFFF" height="128.4551" style="stroke:#181818;stroke-width:1.0;" width="10" x="613.5" y="316.9883"/><rect fill="#FFFFFF" height="31.291" style="stroke:#181818;stroke-width:1.0;" width="10" x="613.5" y="903.2637"/><rect fill="#FFFFFF" height="31.291" style="stroke:#181818;stroke-width:1.0;" width="10" x="913" y="840.6816"/><rect fill="#FFFFFF" height="31.291" style="stroke:#181818;stroke-width:1.0;" width="10" x="1031.5" y="348.2793"/><rect fill="#FFFFFF" height="31.291" style="stroke:#181818;stroke-width:1.0;" width="10" x="1139" y="191.8242"/><rect fill="#FFFFFF" height="31.291" style="stroke:#181818;stroke-width:1.0;" width="10" x="1273" y="254.4063"/><rect fill="#FFFFFF" height="338.9102" style="stroke:#181818;stroke-width:1.0;" width="10" x="1399" y="1086.8828"/><line style="stroke:#181818;stroke-width:0.5;stroke-dasharray:5.0,5.0;" x1="72" x2="72" y1="83.6211" y2="1506.375"/><line style="stroke:#181818;stroke-width:0.5;stroke-dasharray:5.0,5.0;" x1="308" x2="308" y1="83.6211" y2="1506.375"/><line style="stroke:#181818;stroke-width:0.5;stroke-dasharray:5.0,5.0;" x1="463.5" x2="463.5" y1="156.7227" y2="1506.375"/><line style="stroke:#181818;stroke-width:0.5;stroke-dasharray:5.0,5.0;" x1="618.5" x2="618.5" y1="83.6211" y2="1506.375"/><line style="stroke:#181818;stroke-width:0.5;stroke-dasharray:5.0,5.0;" x1="770.5" x2="770.5" y1="83.6211" y2="1506.375"/><line style="stroke:#181818;stroke-width:0.5;stroke-dasharray:5.0,5.0;" x1="917.5" x2="917.5" y1="83.6211" y2="1506.375"/><line style="stroke:#181818;stroke-width:0.5;stroke-dasharray:5.0,5.0;" x1="1036.5" x2="1036.5" y1="83.6211" y2="1506.375"/><line style="stroke:#181818;stroke-width:0.5;stroke-dasharray:5.0,5.0;" x1="1143.5" x2="1143.5" y1="83.6211" y2="1506.375"/><line style="stroke:#181818;stroke-width:0.5;stroke-dasharray:5.0,5.0;" x1="1277.5" x2="1277.5" y1="83.6211" y2="1506.375"/><line style="stroke:#181818;stroke-width:0.5;stroke-dasharray:5.0,5.0;" x1="1403.5" x2="1403.5" y1="83.6211" y2="1506.375"/><text fill="#000000" font-family="sans-serif" font-size="14" lengthAdjust="spacing" textLength="129" x="5" y="80.1074">SystemAdministrator</text><ellipse cx="72.5" cy="13.5" fill="#E3E3E3" rx="8" ry="8" style="stroke:#181818;stroke-width:0.5;"/><path d="M72.5,21.5 L72.5,48.5 M59.5,29.5 L85.5,29.5 M72.5,48.5 L59.5,63.5 M72.5,48.5 L85.5,63.5 " fill="none" style="stroke:#181818;stroke-width:0.5;"/><text fill="#000000" font-family="sans-serif" font-size="14" lengthAdjust="spacing" textLength="129" x="5" y="1520.4824">SystemAdministrator</text><ellipse cx="72.5" cy="1532.4961" fill="#E3E3E3" rx="8" ry="8" style="stroke:#181818;stroke-width:0.5;"/><path d="M72.5,1540.4961 L72.5,1567.4961 M59.5,1548.4961 L85.5,1548.4961 M72.5,1567.4961 L59.5,1582.4961 M72.5,1567.4961 L85.5,1582.4961 " fill="none" style="stroke:#181818;stroke-width:0.5;"/><rect fill="#E3E3E3" height="32.6211" rx="2.5" ry="2.5" style="stroke:#181818;stroke-width:0.5;" width="145" x="236" y="50"/><text fill="#000000" font-family="sans-serif" font-size="14" lengthAdjust="spacing" textLength="131" x="243" y="72.1074">:RegisterEmployeeUI</text><rect fill="#E3E3E3" height="32.6211" rx="2.5" ry="2.5" style="stroke:#181818;stroke-width:0.5;" width="145" x="236" y="1505.375"/><text fill="#000000" font-family="sans-serif" font-size="14" lengthAdjust="spacing" textLength="131" x="243" y="1527.4824">:RegisterEmployeeUI</text><rect fill="#E3E3E3" height="32.6211" rx="2.5" ry="2.5" style="stroke:#181818;stroke-width:0.5;" width="142" x="392.5" y="1505.375"/><text fill="#000000" font-family="sans-serif" font-size="14" lengthAdjust="spacing" textLength="128" x="399.5" y="1527.4824">:EmployeeController</text><rect fill="#E3E3E3" height="32.6211" rx="2.5" ry="2.5" style="stroke:#181818;stroke-width:0.5;" width="148" x="544.5" y="50"/><text fill="#000000" font-family="sans-serif" font-size="14" lengthAdjust="spacing" textLength="134" x="551.5" y="72.1074">:EmployeeRepository</text><rect fill="#E3E3E3" height="32.6211" rx="2.5" ry="2.5" style="stroke:#181818;stroke-width:0.5;" width="148" x="544.5" y="1505.375"/><text fill="#000000" font-family="sans-serif" font-size="14" lengthAdjust="spacing" textLength="134" x="551.5" y="1527.4824">:EmployeeRepository</text><rect fill="#E3E3E3" height="32.6211" rx="2.5" ry="2.5" style="stroke:#181818;stroke-width:0.5;" width="137" x="702.5" y="50"/><text fill="#000000" font-family="sans-serif" font-size="14" lengthAdjust="spacing" textLength="123" x="709.5" y="72.1074">:ApplicationSession</text><rect fill="#E3E3E3" height="32.6211" rx="2.5" ry="2.5" style="stroke:#181818;stroke-width:0.5;" width="137" x="702.5" y="1505.375"/><text fill="#000000" font-family="sans-serif" font-size="14" lengthAdjust="spacing" textLength="123" x="709.5" y="1527.4824">:ApplicationSession</text><rect fill="#E3E3E3" height="51.2422" rx="2.5" ry="2.5" style="stroke:#181818;stroke-width:0.5;" width="137" x="849.5" y="31.3789"/><text fill="#000000" font-family="sans-serif" font-size="14" lengthAdjust="spacing" textLength="74" x="881" y="53.4863">appSession</text><text fill="#000000" font-family="sans-serif" font-size="14" lengthAdjust="spacing" textLength="123" x="856.5" y="72.1074">:ApplicationSession</text><rect fill="#E3E3E3" height="51.2422" rx="2.5" ry="2.5" style="stroke:#181818;stroke-width:0.5;" width="137" x="849.5" y="1505.375"/><text fill="#000000" font-family="sans-serif" font-size="14" lengthAdjust="spacing" textLength="74" x="881" y="1527.4824">appSession</text><text fill="#000000" font-family="sans-serif" font-size="14" lengthAdjust="spacing" textLength="123" x="856.5" y="1546.1035">:ApplicationSession</text><rect fill="#E3E3E3" height="51.2422" rx="2.5" ry="2.5" style="stroke:#181818;stroke-width:0.5;" width="80" x="996.5" y="31.3789"/><text fill="#000000" font-family="sans-serif" font-size="14" lengthAdjust="spacing" textLength="61" x="1006" y="53.4863">employee</text><text fill="#000000" font-family="sans-serif" font-size="14" lengthAdjust="spacing" textLength="66" x="1003.5" y="72.1074">:Employee</text><rect fill="#E3E3E3" height="51.2422" rx="2.5" ry="2.5" style="stroke:#181818;stroke-width:0.5;" width="80" x="996.5" y="1505.375"/><text fill="#000000" font-family="sans-serif" font-size="14" lengthAdjust="spacing" textLength="61" x="1006" y="1527.4824">employee</text><text fill="#000000" font-family="sans-serif" font-size="14" lengthAdjust="spacing" textLength="66" x="1003.5" y="1546.1035">:Employee</text><rect fill="#E3E3E3" height="32.6211" rx="2.5" ry="2.5" style="stroke:#181818;stroke-width:0.5;" width="115" x="1086.5" y="50"/><text fill="#000000" font-family="sans-serif" font-size="14" lengthAdjust="spacing" textLength="101" x="1093.5" y="72.1074">:RoleRepository</text><rect fill="#E3E3E3" height="32.6211" rx="2.5" ry="2.5" style="stroke:#181818;stroke-width:0.5;" width="115" x="1086.5" y="1505.375"/><text fill="#000000" font-family="sans-serif" font-size="14" lengthAdjust="spacing" textLength="101" x="1093.5" y="1527.4824">:RoleRepository</text><rect fill="#E3E3E3" height="32.6211" rx="2.5" ry="2.5" style="stroke:#181818;stroke-width:0.5;" width="133" x="1211.5" y="50"/><text fill="#000000" font-family="sans-serif" font-size="14" lengthAdjust="spacing" textLength="119" x="1218.5" y="72.1074">:AgencyRepository</text><rect fill="#E3E3E3" height="32.6211" rx="2.5" ry="2.5" style="stroke:#181818;stroke-width:0.5;" width="133" x="1211.5" y="1505.375"/><text fill="#000000" font-family="sans-serif" font-size="14" lengthAdjust="spacing" textLength="119" x="1218.5" y="1527.4824">:AgencyRepository</text><rect fill="#E3E3E3" height="32.6211" rx="2.5" ry="2.5" style="stroke:#181818;stroke-width:0.5;" width="99" x="1354.5" y="50"/><text fill="#000000" font-family="sans-serif" font-size="14" lengthAdjust="spacing" textLength="85" x="1361.5" y="72.1074">:Organisation</text><rect fill="#E3E3E3" height="32.6211" rx="2.5" ry="2.5" style="stroke:#181818;stroke-width:0.5;" width="99" x="1354.5" y="1505.375"/><text fill="#000000" font-family="sans-serif" font-size="14" lengthAdjust="spacing" textLength="85" x="1361.5" y="1527.4824">:Organisation</text><rect fill="#FFFFFF" height="1394.7539" style="stroke:#181818;stroke-width:1.0;" width="10" x="67.5" y="93.6211"/><rect fill="#FFFFFF" height="460.2773" style="stroke:#181818;stroke-width:1.0;" width="10" x="303.5" y="116.9121"/><rect fill="#FFFFFF" height="65.873" style="stroke:#181818;stroke-width:1.0;" width="10" x="303.5" y="643.0625"/><rect fill="#FFFFFF" height="353.1133" style="stroke:#181818;stroke-width:1.0;" width="10" x="458.5" y="158.2031"/><rect fill="#FFFFFF" height="678.9844" style="stroke:#181818;stroke-width:1.0;" width="10" x="458.5" y="809.3906"/><rect fill="#FFFFFF" height="128.4551" style="stroke:#181818;stroke-width:1.0;" width="10" x="613.5" y="316.9883"/><rect fill="#FFFFFF" height="31.291" style="stroke:#181818;stroke-width:1.0;" width="10" x="613.5" y="903.2637"/><rect fill="#FFFFFF" height="31.291" style="stroke:#181818;stroke-width:1.0;" width="10" x="913" y="840.6816"/><rect fill="#FFFFFF" height="31.291" style="stroke:#181818;stroke-width:1.0;" width="10" x="1031.5" y="348.2793"/><rect fill="#FFFFFF" height="31.291" style="stroke:#181818;stroke-width:1.0;" width="10" x="1139" y="191.8242"/><rect fill="#FFFFFF" height="31.291" style="stroke:#181818;stroke-width:1.0;" width="10" x="1273" y="254.4063"/><rect fill="#FFFFFF" height="338.9102" style="stroke:#181818;stroke-width:1.0;" width="10" x="1399" y="1086.8828"/><polygon fill="#181818" points="291.5,112.9121,301.5,116.9121,291.5,120.9121,295.5,116.9121" style="stroke:#181818;stroke-width:1.0;"/><line style="stroke:#181818;stroke-width:1.0;" x1="77.5" x2="297.5" y1="116.9121" y2="116.9121"/><text fill="#000000" font-family="sans-serif" font-size="13" font-weight="bold" lengthAdjust="spacing" textLength="7" x="84.5" y="111.6494">1</text><text fill="#000000" font-family="sans-serif" font-size="13" lengthAdjust="spacing" textLength="178" x="95.5" y="111.6494">opens Register Employee form</text><polygon fill="#181818" points="380.5,144.2031,390.5,148.2031,380.5,152.2031,384.5,148.2031" style="stroke:#181818;stroke-width:1.0;"/><line style="stroke:#181818;stroke-width:1.0;" x1="313.5" x2="386.5" y1="148.2031" y2="148.2031"/><text fill="#000000" font-family="sans-serif" font-size="13" font-weight="bold" lengthAdjust="spacing" textLength="7" x="320.5" y="142.9404">2</text><text fill="#000000" font-family="sans-serif" font-size="13" lengthAdjust="spacing" textLength="44" x="331.5" y="142.9404">create()</text><rect fill="#E3E3E3" height="32.6211" rx="2.5" ry="2.5" style="stroke:#181818;stroke-width:0.5;" width="142" x="392.5" y="124.9121"/><text fill="#000000" font-family="sans-serif" font-size="14" lengthAdjust="spacing" textLength="128" x="399.5" y="147.0195">:EmployeeController</text><polygon fill="#181818" points="1127,187.8242,1137,191.8242,1127,195.8242,1131,191.8242" style="stroke:#181818;stroke-width:1.0;"/><line style="stroke:#181818;stroke-width:1.0;" x1="468.5" x2="1133" y1="191.8242" y2="191.8242"/><text fill="#000000" font-family="sans-serif" font-size="13" font-weight="bold" lengthAdjust="spacing" textLength="7" x="475.5" y="186.5615">3</text><text fill="#000000" font-family="sans-serif" font-size="13" lengthAdjust="spacing" textLength="59" x="486.5" y="186.5615">getRoles()</text><polygon fill="#181818" points="479.5,219.1152,469.5,223.1152,479.5,227.1152,475.5,223.1152" style="stroke:#181818;stroke-width:1.0;"/><line style="stroke:#181818;stroke-width:1.0;stroke-dasharray:2.0,2.0;" x1="473.5" x2="1143" y1="223.1152" y2="223.1152"/><text fill="#000000" font-family="sans-serif" font-size="13" font-weight="bold" lengthAdjust="spacing" textLength="7" x="485.5" y="217.8525">4</text><text fill="#000000" font-family="sans-serif" font-size="13" lengthAdjust="spacing" textLength="28" x="496.5" y="217.8525">roles</text><polygon fill="#181818" points="1261,250.4063,1271,254.4063,1261,258.4063,1265,254.4063" style="stroke:#181818;stroke-width:1.0;"/><line style="stroke:#181818;stroke-width:1.0;" x1="468.5" x2="1267" y1="254.4063" y2="254.4063"/><text fill="#000000" font-family="sans-serif" font-size="13" font-weight="bold" lengthAdjust="spacing" textLength="7" x="475.5" y="249.1436">5</text><text fill="#000000" font-family="sans-serif" font-size="13" lengthAdjust="spacing" textLength="80" x="486.5" y="249.1436">getAgencies()</text><polygon fill="#181818" points="479.5,281.6973,469.5,285.6973,479.5,289.6973,475.5,285.6973" style="stroke:#181818;stroke-width:1.0;"/><line style="stroke:#181818;stroke-width:1.0;stroke-dasharray:2.0,2.0;" x1="473.5" x2="1277" y1="285.6973" y2="285.6973"/><text fill="#000000" font-family="sans-serif" font-size="13" font-weight="bold" lengthAdjust="spacing" textLength="7" x="485.5" y="280.4346">6</text><text fill="#000000" font-family="sans-serif" font-size="13" lengthAdjust="spacing" textLength="52" x="496.5" y="280.4346">agencies</text><polygon fill="#181818" points="601.5,312.9883,611.5,316.9883,601.5,320.9883,605.5,316.9883" style="stroke:#181818;stroke-width:1.0;"/><line style="stroke:#181818;stroke-width:1.0;" x1="468.5" x2="607.5" y1="316.9883" y2="316.9883"/><text fill="#000000" font-family="sans-serif" font-size="13" font-weight="bold" lengthAdjust="spacing" textLength="7" x="475.5" y="311.7256">7</text><text fill="#000000" font-family="sans-serif" font-size="13" lengthAdjust="spacing" textLength="44" x="486.5" y="311.7256">create()</text><polygon fill="#181818" points="1019.5,344.2793,1029.5,348.2793,1019.5,352.2793,1023.5,348.2793" style="stroke:#181818;stroke-width:1.0;"/><line style="stroke:#181818;stroke-width:1.0;" x1="623.5" x2="1025.5" y1="348.2793" y2="348.2793"/><text fill="#000000" font-family="sans-serif" font-size="13" font-weight="bold" lengthAdjust="spacing" textLength="7" x="630.5" y="343.0166">8</text><text fill="#000000" font-family="sans-serif" font-size="13" lengthAdjust="spacing" textLength="44" x="641.5" y="343.0166">create()</text><polygon fill="#181818" points="634.5,375.5703,624.5,379.5703,634.5,383.5703,630.5,379.5703" style="stroke:#181818;stroke-width:1.0;"/><line style="stroke:#181818;stroke-width:1.0;stroke-dasharray:2.0,2.0;" x1="628.5" x2="1035.5" y1="379.5703" y2="379.5703"/><text fill="#000000" font-family="sans-serif" font-size="13" font-weight="bold" lengthAdjust="spacing" textLength="7" x="640.5" y="374.3076">9</text><text fill="#000000" font-family="sans-serif" font-size="13" lengthAdjust="spacing" textLength="56" x="651.5" y="374.3076">employee</text><polygon fill="#181818" points="479.5,441.4434,469.5,445.4434,479.5,449.4434,475.5,445.4434" style="stroke:#181818;stroke-width:1.0;"/><line style="stroke:#181818;stroke-width:1.0;stroke-dasharray:2.0,2.0;" x1="473.5" x2="617.5" y1="445.4434" y2="445.4434"/><text fill="#000000" font-family="sans-serif" font-size="13" font-weight="bold" lengthAdjust="spacing" textLength="14" x="485.5" y="422.8896">10</text><text fill="#000000" font-family="sans-serif" font-size="13" lengthAdjust="spacing" textLength="60" x="503.5" y="405.5986">employee,</text><text fill="#000000" font-family="sans-serif" font-size="13" lengthAdjust="spacing" textLength="32" x="503.5" y="422.8896">roles,</text><text fill="#000000" font-family="sans-serif" font-size="13" lengthAdjust="spacing" textLength="52" x="503.5" y="440.1807">agencies</text><polygon fill="#181818" points="324.5,507.3164,314.5,511.3164,324.5,515.3164,320.5,511.3164" style="stroke:#181818;stroke-width:1.0;"/><line style="stroke:#181818;stroke-width:1.0;stroke-dasharray:2.0,2.0;" x1="318.5" x2="462.5" y1="511.3164" y2="511.3164"/><text fill="#000000" font-family="sans-serif" font-size="13" font-weight="bold" lengthAdjust="spacing" textLength="14" x="330.5" y="488.7627">11</text><text fill="#000000" font-family="sans-serif" font-size="13" lengthAdjust="spacing" textLength="60" x="348.5" y="471.4717">employee,</text><text fill="#000000" font-family="sans-serif" font-size="13" lengthAdjust="spacing" textLength="32" x="348.5" y="488.7627">roles,</text><text fill="#000000" font-family="sans-serif" font-size="13" lengthAdjust="spacing" textLength="52" x="348.5" y="506.0537">agencies</text><polygon fill="#181818" points="88.5,573.1895,78.5,577.1895,88.5,581.1895,84.5,577.1895" style="stroke:#181818;stroke-width:1.0;"/><line style="stroke:#181818;stroke-width:1.0;stroke-dasharray:2.0,2.0;" x1="82.5" x2="307.5" y1="577.1895" y2="577.1895"/><text fill="#000000" font-family="sans-serif" font-size="13" font-weight="bold" lengthAdjust="spacing" textLength="14" x="94.5" y="554.6357">12</text><text fill="#000000" font-family="sans-serif" font-size="13" lengthAdjust="spacing" textLength="184" x="112.5" y="537.3447">shows Register Employee form,</text><text fill="#000000" font-family="sans-serif" font-size="13" lengthAdjust="spacing" textLength="32" x="112.5" y="554.6357">roles,</text><text fill="#000000" font-family="sans-serif" font-size="13" lengthAdjust="spacing" textLength="52" x="112.5" y="571.9268">agencies</text><polygon fill="#181818" points="291.5,639.0625,301.5,643.0625,291.5,647.0625,295.5,643.0625" style="stroke:#181818;stroke-width:1.0;"/><line style="stroke:#181818;stroke-width:1.0;" x1="77.5" x2="297.5" y1="643.0625" y2="643.0625"/><text fill="#000000" font-family="sans-serif" font-size="13" font-weight="bold" lengthAdjust="spacing" textLength="14" x="84.5" y="620.5088">13</text><text fill="#000000" font-family="sans-serif" font-size="13" lengthAdjust="spacing" textLength="164" x="102.5" y="603.2178">fills in employee information,</text><text fill="#000000" font-family="sans-serif" font-size="13" lengthAdjust="spacing" textLength="25" x="102.5" y="620.5088">role,</text><text fill="#000000" font-family="sans-serif" font-size="13" lengthAdjust="spacing" textLength="42" x="102.5" y="637.7998">agency</text><polygon fill="#181818" points="88.5,704.9355,78.5,708.9355,88.5,712.9355,84.5,708.9355" style="stroke:#181818;stroke-width:1.0;"/><line style="stroke:#181818;stroke-width:1.0;stroke-dasharray:2.0,2.0;" x1="82.5" x2="307.5" y1="708.9355" y2="708.9355"/><text fill="#000000" font-family="sans-serif" font-size="13" font-weight="bold" lengthAdjust="spacing" textLength="14" x="94.5" y="686.3818">14</text><text fill="#000000" font-family="sans-serif" font-size="13" lengthAdjust="spacing" textLength="128" x="112.5" y="669.0908">sends employee data,</text><text fill="#000000" font-family="sans-serif" font-size="13" lengthAdjust="spacing" textLength="25" x="112.5" y="686.3818">role,</text><text fill="#000000" font-family="sans-serif" font-size="13" lengthAdjust="spacing" textLength="42" x="112.5" y="703.6729">agency</text><polygon fill="#181818" points="446.5,805.3906,456.5,809.3906,446.5,813.3906,450.5,809.3906" style="stroke:#181818;stroke-width:1.0;"/><line style="stroke:#181818;stroke-width:1.0;" x1="77.5" x2="452.5" y1="809.3906" y2="809.3906"/><text fill="#000000" font-family="sans-serif" font-size="13" font-weight="bold" lengthAdjust="spacing" textLength="14" x="84.5" y="769.5459">15</text><text fill="#000000" font-family="sans-serif" font-size="13" lengthAdjust="spacing" textLength="141" x="102.5" y="734.9639">registerEmployee(name,</text><text fill="#000000" font-family="sans-serif" font-size="13" lengthAdjust="spacing" textLength="35" x="102.5" y="752.2549">email,</text><text fill="#000000" font-family="sans-serif" font-size="13" lengthAdjust="spacing" textLength="25" x="102.5" y="769.5459">role,</text><text fill="#000000" font-family="sans-serif" font-size="13" lengthAdjust="spacing" textLength="46" x="102.5" y="786.8369">agency,</text><text fill="#000000" font-family="sans-serif" font-size="13" lengthAdjust="spacing" textLength="57" x="102.5" y="804.1279">startDate)</text><polygon fill="#181818" points="901,836.6816,911,840.6816,901,844.6816,905,840.6816" style="stroke:#181818;stroke-width:1.0;"/><line style="stroke:#181818;stroke-width:1.0;" x1="468.5" x2="907" y1="840.6816" y2="840.6816"/><text fill="#000000" font-family="sans-serif" font-size="13" font-weight="bold" lengthAdjust="spacing" textLength="14" x="475.5" y="835.4189">16</text><text fill="#000000" font-family="sans-serif" font-size="13" lengthAdjust="spacing" textLength="86" x="493.5" y="835.4189">getUserEmail()</text><polygon fill="#181818" points="479.5,867.9727,469.5,871.9727,479.5,875.9727,475.5,871.9727" style="stroke:#181818;stroke-width:1.0;"/><line style="stroke:#181818;stroke-width:1.0;stroke-dasharray:2.0,2.0;" x1="473.5" x2="917" y1="871.9727" y2="871.9727"/><text fill="#000000" font-family="sans-serif" font-size="13" font-weight="bold" lengthAdjust="spacing" textLength="14" x="485.5" y="866.71">17</text><text fill="#000000" font-family="sans-serif" font-size="13" lengthAdjust="spacing" textLength="31" x="503.5" y="866.71">email</text><polygon fill="#181818" points="601.5,899.2637,611.5,903.2637,601.5,907.2637,605.5,903.2637" style="stroke:#181818;stroke-width:1.0;"/><line style="stroke:#181818;stroke-width:1.0;" x1="468.5" x2="607.5" y1="903.2637" y2="903.2637"/><text fill="#000000" font-family="sans-serif" font-size="13" font-weight="bold" lengthAdjust="spacing" textLength="14" x="475.5" y="898.001">18</text><text fill="#000000" font-family="sans-serif" font-size="13" lengthAdjust="spacing" textLength="108" x="493.5" y="898.001">findByEmail(email)</text><polygon fill="#181818" points="479.5,930.5547,469.5,934.5547,479.5,938.5547,475.5,934.5547" style="stroke:#181818;stroke-width:1.0;"/><line style="stroke:#181818;stroke-width:1.0;stroke-dasharray:2.0,2.0;" x1="473.5" x2="617.5" y1="934.5547" y2="934.5547"/><text fill="#000000" font-family="sans-serif" font-size="13" font-weight="bold" lengthAdjust="spacing" textLength="14" x="485.5" y="929.292">19</text><text fill="#000000" font-family="sans-serif" font-size="13" lengthAdjust="spacing" textLength="56" x="503.5" y="929.292">employee</text><polygon fill="#181818" points="1387,1082.8828,1397,1086.8828,1387,1090.8828,1391,1086.8828" style="stroke:#181818;stroke-width:1.0;"/><line style="stroke:#181818;stroke-width:1.0;" x1="468.5" x2="1393" y1="1086.8828" y2="1086.8828"/><text fill="#000000" font-family="sans-serif" font-size="13" font-weight="bold" lengthAdjust="spacing" textLength="14" x="475.5" y="1021.1016">20</text><text fill="#000000" font-family="sans-serif" font-size="13" lengthAdjust="spacing" textLength="98" x="493.5" y="960.583">createEmployee(</text><text fill="#000000" font-family="sans-serif" font-size="13" lengthAdjust="spacing" textLength="36" x="493.5" y="977.874">name,</text><text fill="#000000" font-family="sans-serif" font-size="13" lengthAdjust="spacing" textLength="61" x="493.5" y="995.165">ccnumber,</text><text fill="#000000" font-family="sans-serif" font-size="13" lengthAdjust="spacing" textLength="65" x="493.5" y="1012.4561">taxnumber,</text><text fill="#000000" font-family="sans-serif" font-size="13" lengthAdjust="spacing" textLength="50" x="493.5" y="1029.7471">address,</text><text fill="#000000" font-family="sans-serif" font-size="13" lengthAdjust="spacing" textLength="25" x="493.5" y="1047.0381">role,</text><text fill="#000000" font-family="sans-serif" font-size="13" lengthAdjust="spacing" textLength="46" x="493.5" y="1064.3291">agency,</text><text fill="#000000" font-family="sans-serif" font-size="13" lengthAdjust="spacing" textLength="57" x="493.5" y="1081.6201">startDate)</text><polygon fill="#181818" points="1047.5,1114.1738,1037.5,1118.1738,1047.5,1122.1738,1043.5,1118.1738" style="stroke:#181818;stroke-width:1.0;"/><line style="stroke:#181818;stroke-width:1.0;" x1="1041.5" x2="1398" y1="1118.1738" y2="1118.1738"/><text fill="#000000" font-family="sans-serif" font-size="13" font-weight="bold" lengthAdjust="spacing" textLength="14" x="1053.5" y="1112.9111">21</text><text fill="#000000" font-family="sans-serif" font-size="13" lengthAdjust="spacing" textLength="92" x="1071.5" y="1112.9111">setName(name)</text><polygon fill="#181818" points="1047.5,1145.4648,1037.5,1149.4648,1047.5,1153.4648,1043.5,1149.4648" style="stroke:#181818;stroke-width:1.0;"/><line style="stroke:#181818;stroke-width:1.0;" x1="1041.5" x2="1398" y1="1149.4648" y2="1149.4648"/><text fill="#000000" font-family="sans-serif" font-size="13" font-weight="bold" lengthAdjust="spacing" textLength="14" x="1053.5" y="1144.2021">22</text><text fill="#000000" font-family="sans-serif" font-size="13" lengthAdjust="spacing" textLength="146" x="1071.5" y="1144.2021">setCCNumber(ccnumber)</text><polygon fill="#181818" points="1047.5,1176.7559,1037.5,1180.7559,1047.5,1184.7559,1043.5,1180.7559" style="stroke:#181818;stroke-width:1.0;"/><line style="stroke:#181818;stroke-width:1.0;" x1="1041.5" x2="1398" y1="1180.7559" y2="1180.7559"/><text fill="#000000" font-family="sans-serif" font-size="13" font-weight="bold" lengthAdjust="spacing" textLength="14" x="1053.5" y="1175.4932">23</text><text fill="#000000" font-family="sans-serif" font-size="13" lengthAdjust="spacing" textLength="153" x="1071.5" y="1175.4932">setTaxNumber(taxnumber)</text><polygon fill="#181818" points="1047.5,1208.0469,1037.5,1212.0469,1047.5,1216.0469,1043.5,1212.0469" style="stroke:#181818;stroke-width:1.0;"/><line style="stroke:#181818;stroke-width:1.0;" x1="1041.5" x2="1398" y1="1212.0469" y2="1212.0469"/><text fill="#000000" font-family="sans-serif" font-size="13" font-weight="bold" lengthAdjust="spacing" textLength="14" x="1053.5" y="1206.7842">24</text><text fill="#000000" font-family="sans-serif" font-size="13" lengthAdjust="spacing" textLength="120" x="1071.5" y="1206.7842">setAddress(address)</text><polygon fill="#181818" points="1047.5,1239.3379,1037.5,1243.3379,1047.5,1247.3379,1043.5,1243.3379" style="stroke:#181818;stroke-width:1.0;"/><line style="stroke:#181818;stroke-width:1.0;" x1="1041.5" x2="1398" y1="1243.3379" y2="1243.3379"/><text fill="#000000" font-family="sans-serif" font-size="13" font-weight="bold" lengthAdjust="spacing" textLength="14" x="1053.5" y="1238.0752">25</text><text fill="#000000" font-family="sans-serif" font-size="13" lengthAdjust="spacing" textLength="73" x="1071.5" y="1238.0752">setRole(role)</text><polygon fill="#181818" points="1047.5,1270.6289,1037.5,1274.6289,1047.5,1278.6289,1043.5,1274.6289" style="stroke:#181818;stroke-width:1.0;"/><line style="stroke:#181818;stroke-width:1.0;" x1="1041.5" x2="1398" y1="1274.6289" y2="1274.6289"/><text fill="#000000" font-family="sans-serif" font-size="13" font-weight="bold" lengthAdjust="spacing" textLength="14" x="1053.5" y="1269.3662">26</text><text fill="#000000" font-family="sans-serif" font-size="13" lengthAdjust="spacing" textLength="112" x="1071.5" y="1269.3662">setAgency(agency)</text><polygon fill="#181818" points="1047.5,1301.9199,1037.5,1305.9199,1047.5,1309.9199,1043.5,1305.9199" style="stroke:#181818;stroke-width:1.0;"/><line style="stroke:#181818;stroke-width:1.0;" x1="1041.5" x2="1398" y1="1305.9199" y2="1305.9199"/><text fill="#000000" font-family="sans-serif" font-size="13" font-weight="bold" lengthAdjust="spacing" textLength="14" x="1053.5" y="1300.6572">27</text><text fill="#000000" font-family="sans-serif" font-size="13" lengthAdjust="spacing" textLength="134" x="1071.5" y="1300.6572">setStartDate(startDate)</text><line style="stroke:#181818;stroke-width:1.0;" x1="1409" x2="1451" y1="1337.2109" y2="1337.2109"/><line style="stroke:#181818;stroke-width:1.0;" x1="1451" x2="1451" y1="1337.2109" y2="1350.2109"/><line style="stroke:#181818;stroke-width:1.0;" x1="1410" x2="1451" y1="1350.2109" y2="1350.2109"/><polygon fill="#181818" points="1420,1346.2109,1410,1350.2109,1420,1354.2109,1416,1350.2109" style="stroke:#181818;stroke-width:1.0;"/><text fill="#000000" font-family="sans-serif" font-size="13" font-weight="bold" lengthAdjust="spacing" textLength="14" x="1416" y="1331.9482">28</text><text fill="#000000" font-family="sans-serif" font-size="13" lengthAdjust="spacing" textLength="165" x="1434" y="1331.9482">validateEmployee(employee)</text><line style="stroke:#181818;stroke-width:1.0;" x1="1409" x2="1451" y1="1381.502" y2="1381.502"/><line style="stroke:#181818;stroke-width:1.0;" x1="1451" x2="1451" y1="1381.502" y2="1394.502"/><line style="stroke:#181818;stroke-width:1.0;" x1="1410" x2="1451" y1="1394.502" y2="1394.502"/><polygon fill="#181818" points="1420,1390.502,1410,1394.502,1420,1398.502,1416,1394.502" style="stroke:#181818;stroke-width:1.0;"/><text fill="#000000" font-family="sans-serif" font-size="13" font-weight="bold" lengthAdjust="spacing" textLength="14" x="1416" y="1376.2393">29</text><text fill="#000000" font-family="sans-serif" font-size="13" lengthAdjust="spacing" textLength="148" x="1434" y="1376.2393">saveEmployee(employee)</text><polygon fill="#181818" points="629.5,1421.793,619.5,1425.793,629.5,1429.793,625.5,1425.793" style="stroke:#181818;stroke-width:1.0;"/><line style="stroke:#181818;stroke-width:1.0;stroke-dasharray:2.0,2.0;" x1="623.5" x2="1035.5" y1="1425.793" y2="1425.793"/><text fill="#000000" font-family="sans-serif" font-size="13" font-weight="bold" lengthAdjust="spacing" textLength="14" x="635.5" y="1420.5303">30</text><text fill="#000000" font-family="sans-serif" font-size="13" lengthAdjust="spacing" textLength="56" x="653.5" y="1420.5303">employee</text><polygon fill="#181818" points="479.5,1453.084,469.5,1457.084,479.5,1461.084,475.5,1457.084" style="stroke:#181818;stroke-width:1.0;"/><line style="stroke:#181818;stroke-width:1.0;stroke-dasharray:2.0,2.0;" x1="473.5" x2="617.5" y1="1457.084" y2="1457.084"/><text fill="#000000" font-family="sans-serif" font-size="13" font-weight="bold" lengthAdjust="spacing" textLength="14" x="485.5" y="1451.8213">31</text><text fill="#000000" font-family="sans-serif" font-size="13" lengthAdjust="spacing" textLength="56" x="503.5" y="1451.8213">employee</text><polygon fill="#181818" points="83.5,1484.375,73.5,1488.375,83.5,1492.375,79.5,1488.375" style="stroke:#181818;stroke-width:1.0;"/><line style="stroke:#181818;stroke-width:1.0;stroke-dasharray:2.0,2.0;" x1="77.5" x2="462.5" y1="1488.375" y2="1488.375"/><text fill="#000000" font-family="sans-serif" font-size="13" font-weight="bold" lengthAdjust="spacing" textLength="14" x="89.5" y="1483.1123">32</text><text fill="#000000" font-family="sans-serif" font-size="13" lengthAdjust="spacing" textLength="229" x="107.5" y="1483.1123">displays employee registration success</text><!--SRC=[dPRDJkCm4CVlUGgBomQql40FAtKBGaWBL0qSLkfbIDnWuTYHxG9v-nqxSOYTZyBcajIU-Vdl6S-u-fM96XHKf992vYzALfGOTQI9xcTgo5-Xf9bfE2MAvWP4oOS6-WKA-Sv4IGx0DKqIE1efZjKpLKdouuKLb1oaDC_o8u7SI4NEiaORMgsBYWccZG8SF2EWIVOtMr_T9OWrB6Sr24FELZjQeX5LrrNDPKFfqwspVRgDxFpyHWgZ9EUqPMuUTtzcB7UqbfhXuesp70z7VkkwvYm7mwJ8gDRuSdxhxJOqXBhkvlTYpYcxphBRX_lGaNOAqCsBQPNTRUEWI1xB3uTYwIKLUHDvn8EHpuCg0VFZf3lxXzrDObF8ti1Gdwo4uDD-ayjVc1Qo8hAc0WLrYUi3YyT0LSw-Xs0MtO1zq1K1DbyN5mZ95KMBzBoVxvrSIljX-zWHwnp6024bDNPC3p01AWfQO6IV27ZP2KIoijZ0lg1VmdgjSVHRjMwKpGiUvMmaUSGTY8QEFgTxcUwLZmjbAbs1x8dQ6WcVmDh5xhPpz705h97HhCCYu79EjQ-uaUSWA9FaAR6VSVROdtlXpWc-JuN-L8JQuFiA-ye20tXOCRRG4DGLxGeRk7oVAzUv1GPmNyDH4pWmpZLXejUAtvRe-ac7zTHckIi4Ogaez2Up00EJi4M1leQZgoKLK5aChO3nc8eVsc23l4BaURBGa7oPT2s-hUidRPT1x5H3yvT1a73l7Xmh14pbTmHOBDK34yNlfbNZa1EIJXt7hvt_v9i7tSl6cwOl-ZuvU-7IG_OYpzk_5_RRmCVd3oWAXPUi_JoHks2pxc8Rxiwkt_SUJSqzBkmEn_cYsMPpxwIaNk2o-IDyTFRz9fOTrktsqcwRoyRs3afj54umNO3IDaxBffaFOJeHp843lbRa3JWhXkdpPsBUHSFRb7do_zrySEo277_pzFQzj-z21TCrXsRGYDfUebnt8_gOvvYWPB8D3-lMyVu1]--></g></svg>