<?xml version="1.0" encoding="us-ascii" standalone="no"?><svg xmlns="http://www.w3.org/2000/svg" xmlns:xlink="http://www.w3.org/1999/xlink" contentStyleType="text/css" height="349px" preserveAspectRatio="none" style="width:699px;height:349px;background:#FFFFFF;" version="1.1" viewBox="0 0 699 349" width="699px" zoomAndPan="magnify"><defs/><g><rect fill="#FFFFFF" height="229.1875" style="stroke:#181818;stroke-width:1.0;" width="10" x="63" y="61.2813"/><rect fill="#FFFFFF" height="199.6641" style="stroke:#181818;stroke-width:1.0;" width="10" x="219" y="81.8047"/><rect fill="#FFFFFF" height="28.5234" style="stroke:#181818;stroke-width:1.0;" width="10" x="354.5" y="110.3281"/><rect fill="#FFFFFF" height="28.5234" style="stroke:#181818;stroke-width:1.0;" width="10" x="461.5" y="167.375"/><rect fill="#FFFFFF" height="28.5234" style="stroke:#181818;stroke-width:1.0;" width="10" x="604" y="224.4219"/><line style="stroke:#181818;stroke-width:0.5;stroke-dasharray:5.0,5.0;" x1="68" x2="68" y1="51.2813" y2="299.4688"/><line style="stroke:#181818;stroke-width:0.5;stroke-dasharray:5.0,5.0;" x1="224" x2="224" y1="51.2813" y2="299.4688"/><line style="stroke:#181818;stroke-width:0.5;stroke-dasharray:5.0,5.0;" x1="359" x2="359" y1="51.2813" y2="299.4688"/><line style="stroke:#181818;stroke-width:0.5;stroke-dasharray:5.0,5.0;" x1="466" x2="466" y1="51.2813" y2="299.4688"/><line style="stroke:#181818;stroke-width:0.5;stroke-dasharray:5.0,5.0;" x1="609" x2="609" y1="51.2813" y2="299.4688"/><rect fill="#E3E3E3" height="29.6406" rx="2.5" ry="2.5" style="stroke:#181818;stroke-width:0.5;" width="126" x="5" y="20.6406"/><text fill="#000000" font-family="sans-serif" font-size="14" lengthAdjust="spacing" textLength="112" x="12" y="40.3145">:CreateRequestUI</text><rect fill="#E3E3E3" height="29.6406" rx="2.5" ry="2.5" style="stroke:#181818;stroke-width:0.5;" width="126" x="5" y="298.4688"/><text fill="#000000" font-family="sans-serif" font-size="14" lengthAdjust="spacing" textLength="112" x="12" y="318.1426">:CreateRequestUI</text><rect fill="#E3E3E3" height="29.6406" rx="2.5" ry="2.5" style="stroke:#181818;stroke-width:0.5;" width="154" x="147" y="20.6406"/><text fill="#000000" font-family="sans-serif" font-size="14" lengthAdjust="spacing" textLength="140" x="154" y="40.3145">:CreateTaskController</text><rect fill="#E3E3E3" height="29.6406" rx="2.5" ry="2.5" style="stroke:#181818;stroke-width:0.5;" width="154" x="147" y="298.4688"/><text fill="#000000" font-family="sans-serif" font-size="14" lengthAdjust="spacing" textLength="140" x="154" y="318.1426">:CreateTaskController</text><rect fill="#E3E3E3" height="29.6406" rx="2.5" ry="2.5" style="stroke:#181818;stroke-width:0.5;" width="97" x="311" y="20.6406"/><text fill="#000000" font-family="sans-serif" font-size="14" lengthAdjust="spacing" textLength="83" x="318" y="40.3145">:Repositories</text><rect fill="#E3E3E3" height="29.6406" rx="2.5" ry="2.5" style="stroke:#181818;stroke-width:0.5;" width="97" x="311" y="298.4688"/><text fill="#000000" font-family="sans-serif" font-size="14" lengthAdjust="spacing" textLength="83" x="318" y="318.1426">:Repositories</text><rect fill="#E3E3E3" height="45.2813" rx="2.5" ry="2.5" style="stroke:#181818;stroke-width:0.5;" width="97" x="418" y="5"/><text fill="#000000" font-family="sans-serif" font-size="14" lengthAdjust="spacing" textLength="74" x="429.5" y="24.6738">repositories</text><text fill="#000000" font-family="sans-serif" font-size="14" lengthAdjust="spacing" textLength="83" x="425" y="40.3145">:Repositories</text><rect fill="#E3E3E3" height="45.2813" rx="2.5" ry="2.5" style="stroke:#181818;stroke-width:0.5;" width="97" x="418" y="298.4688"/><text fill="#000000" font-family="sans-serif" font-size="14" lengthAdjust="spacing" textLength="74" x="429.5" y="318.1426">repositories</text><text fill="#000000" font-family="sans-serif" font-size="14" lengthAdjust="spacing" textLength="83" x="425" y="333.7832">:Repositories</text><rect fill="#E3E3E3" height="29.6406" rx="2.5" ry="2.5" style="stroke:#181818;stroke-width:0.5;" width="168" x="525" y="20.6406"/><text fill="#000000" font-family="sans-serif" font-size="14" lengthAdjust="spacing" textLength="154" x="532" y="40.3145">PropertyTypeRepository</text><rect fill="#E3E3E3" height="29.6406" rx="2.5" ry="2.5" style="stroke:#181818;stroke-width:0.5;" width="168" x="525" y="298.4688"/><text fill="#000000" font-family="sans-serif" font-size="14" lengthAdjust="spacing" textLength="154" x="532" y="318.1426">PropertyTypeRepository</text><rect fill="#FFFFFF" height="229.1875" style="stroke:#181818;stroke-width:1.0;" width="10" x="63" y="61.2813"/><rect fill="#FFFFFF" height="199.6641" style="stroke:#181818;stroke-width:1.0;" width="10" x="219" y="81.8047"/><rect fill="#FFFFFF" height="28.5234" style="stroke:#181818;stroke-width:1.0;" width="10" x="354.5" y="110.3281"/><rect fill="#FFFFFF" height="28.5234" style="stroke:#181818;stroke-width:1.0;" width="10" x="461.5" y="167.375"/><rect fill="#FFFFFF" height="28.5234" style="stroke:#181818;stroke-width:1.0;" width="10" x="604" y="224.4219"/><polygon fill="#181818" points="207,77.8047,217,81.8047,207,85.8047,211,81.8047" style="stroke:#181818;stroke-width:1.0;"/><line style="stroke:#181818;stroke-width:1.0;" x1="73" x2="213" y1="81.8047" y2="81.8047"/><text fill="#000000" font-family="sans-serif" font-size="13" font-weight="bold" lengthAdjust="spacing" textLength="14" x="80" y="77.0498">17</text><text fill="#000000" font-family="sans-serif" font-size="13" lengthAdjust="spacing" textLength="109" x="98" y="77.0498">get a property type</text><polygon fill="#181818" points="342.5,106.3281,352.5,110.3281,342.5,114.3281,346.5,110.3281" style="stroke:#181818;stroke-width:1.0;"/><line style="stroke:#181818;stroke-width:1.0;" x1="229" x2="348.5" y1="110.3281" y2="110.3281"/><text fill="#000000" font-family="sans-serif" font-size="13" font-weight="bold" lengthAdjust="spacing" textLength="14" x="236" y="105.5732">18</text><text fill="#000000" font-family="sans-serif" font-size="13" lengthAdjust="spacing" textLength="71" x="254" y="105.5732">get Instance</text><polygon fill="#181818" points="240,134.8516,230,138.8516,240,142.8516,236,138.8516" style="stroke:#181818;stroke-width:1.0;"/><line style="stroke:#181818;stroke-width:1.0;stroke-dasharray:2.0,2.0;" x1="234" x2="358.5" y1="138.8516" y2="138.8516"/><text fill="#000000" font-family="sans-serif" font-size="13" font-weight="bold" lengthAdjust="spacing" textLength="14" x="246" y="134.0967">19</text><text fill="#000000" font-family="sans-serif" font-size="13" lengthAdjust="spacing" textLength="67" x="264" y="134.0967">repositories</text><polygon fill="#181818" points="449.5,163.375,459.5,167.375,449.5,171.375,453.5,167.375" style="stroke:#181818;stroke-width:1.0;"/><line style="stroke:#181818;stroke-width:1.0;" x1="229" x2="455.5" y1="167.375" y2="167.375"/><text fill="#000000" font-family="sans-serif" font-size="13" font-weight="bold" lengthAdjust="spacing" textLength="14" x="236" y="162.6201">20</text><text fill="#000000" font-family="sans-serif" font-size="13" lengthAdjust="spacing" textLength="171" x="254" y="162.6201">Get Property- Type repository</text><polygon fill="#181818" points="240,191.8984,230,195.8984,240,199.8984,236,195.8984" style="stroke:#181818;stroke-width:1.0;"/><line style="stroke:#181818;stroke-width:1.0;stroke-dasharray:2.0,2.0;" x1="234" x2="465.5" y1="195.8984" y2="195.8984"/><text fill="#000000" font-family="sans-serif" font-size="13" font-weight="bold" lengthAdjust="spacing" textLength="14" x="246" y="191.1436">21</text><text fill="#000000" font-family="sans-serif" font-size="13" lengthAdjust="spacing" textLength="139" x="264" y="191.1436">PropertyTypeRepository</text><polygon fill="#181818" points="592,220.4219,602,224.4219,592,228.4219,596,224.4219" style="stroke:#181818;stroke-width:1.0;"/><line style="stroke:#181818;stroke-width:1.0;" x1="229" x2="598" y1="224.4219" y2="224.4219"/><text fill="#000000" font-family="sans-serif" font-size="13" font-weight="bold" lengthAdjust="spacing" textLength="14" x="236" y="219.667">22</text><text fill="#000000" font-family="sans-serif" font-size="13" lengthAdjust="spacing" textLength="98" x="254" y="219.667">get property type</text><polygon fill="#181818" points="240,248.9453,230,252.9453,240,256.9453,236,252.9453" style="stroke:#181818;stroke-width:1.0;"/><line style="stroke:#181818;stroke-width:1.0;stroke-dasharray:2.0,2.0;" x1="234" x2="608" y1="252.9453" y2="252.9453"/><text fill="#000000" font-family="sans-serif" font-size="13" font-weight="bold" lengthAdjust="spacing" textLength="14" x="246" y="248.1904">23</text><text fill="#000000" font-family="sans-serif" font-size="13" lengthAdjust="spacing" textLength="81" x="264" y="248.1904">Property Type</text><polygon fill="#181818" points="84,277.4688,74,281.4688,84,285.4688,80,281.4688" style="stroke:#181818;stroke-width:1.0;"/><line style="stroke:#181818;stroke-width:1.0;stroke-dasharray:2.0,2.0;" x1="78" x2="223" y1="281.4688" y2="281.4688"/><text fill="#000000" font-family="sans-serif" font-size="13" font-weight="bold" lengthAdjust="spacing" textLength="14" x="90" y="276.7139">24</text><text fill="#000000" font-family="sans-serif" font-size="13" lengthAdjust="spacing" textLength="97" x="108" y="276.7139">propert Type List</text><!--SRC=[RP4_Ry8m4CNtV8eJIwSCdIfbg5GnL94O48Ijon6EO97uNFlIDj- -jlE71F1u_Zs_Uy_kghH1YmqqhBcyM6u8nBQKkEd6O7d5YlRIrGIMIa5TrNF0NV34lqfNSCRQKUBFoqMT2CxCSkI_n6EYIcLG2woojIKKsj5tIquE-GhGmI5_2XNehclMOhckoKPoNUmsT-oE33ibR1MvoFZ14h4puai_2hQRZsAfs5esPAKhEaCJtlMmvJ1D4co5TTiSoSBhMuAbg1-_SyXoo25zZwj21XK989ZXGP1UEz8n3_WJQQ_oReCeryvtNNewt4-Aa2vE0faEFXdCCyRh4prAHfCGsBjyUfSnQGeXrUsPRkaQAugZg4rl-PvNTR_2JJ_jqFS8MSYwh6VfFFOTpGVH4_-u_uFjNDmxUwN_dsoqx6Dlb9DxRVoQVm00]--></g></svg>