<?xml version="1.0" encoding="us-ascii" standalone="no"?><svg xmlns="http://www.w3.org/2000/svg" xmlns:xlink="http://www.w3.org/1999/xlink" contentStyleType="text/css" height="279.2px" preserveAspectRatio="none" style="width:670px;height:279px;background:#FFFFFF;" version="1.1" viewBox="0 0 670 279" width="670.4px" zoomAndPan="magnify"><defs/><g><rect fill="#FFFFFF" height="166.9313" style="stroke:#181818;stroke-width:0.8000000000000002;" width="8" x="269.6" y="65.4438"/><rect fill="#FFFFFF" height="22.8188" style="stroke:#181818;stroke-width:0.8000000000000002;" width="8" x="392" y="88.2625"/><rect fill="#FFFFFF" height="22.8188" style="stroke:#181818;stroke-width:0.8000000000000002;" width="8" x="477.6" y="133.9"/><rect fill="#FFFFFF" height="22.8188" style="stroke:#181818;stroke-width:0.8000000000000002;" width="8" x="593.2" y="179.5375"/><line style="stroke:#181818;stroke-width:0.4000000000000001;stroke-dasharray:5.0,5.0;" x1="273.2" x2="273.2" y1="41.025" y2="239.575"/><line style="stroke:#181818;stroke-width:0.4000000000000001;stroke-dasharray:5.0,5.0;" x1="395.6" x2="395.6" y1="41.025" y2="239.575"/><line style="stroke:#181818;stroke-width:0.4000000000000001;stroke-dasharray:5.0,5.0;" x1="481.2" x2="481.2" y1="41.025" y2="239.575"/><line style="stroke:#181818;stroke-width:0.4000000000000001;stroke-dasharray:5.0,5.0;" x1="597.2" x2="597.2" y1="41.025" y2="239.575"/><rect fill="#E3E3E3" height="23.7125" rx="2" ry="2" style="stroke:#181818;stroke-width:0.4000000000000001;" width="151.2" x="198" y="16.5125"/><text fill="#000000" font-family="sans-serif" font-size="11.2" lengthAdjust="spacing" textLength="140" x="203.6" y="32.2516">:ImportInformationController</text><rect fill="#E3E3E3" height="23.7125" rx="2" ry="2" style="stroke:#181818;stroke-width:0.4000000000000001;" width="151.2" x="198" y="238.775"/><text fill="#000000" font-family="sans-serif" font-size="11.2" lengthAdjust="spacing" textLength="140" x="203.6" y="254.5141">:ImportInformationController</text><rect fill="#E3E3E3" height="23.7125" rx="2" ry="2" style="stroke:#181818;stroke-width:0.4000000000000001;" width="77.6" x="357.2" y="16.5125"/><text fill="#000000" font-family="sans-serif" font-size="11.2" lengthAdjust="spacing" textLength="66.4" x="362.8" y="32.2516">:Repositories</text><rect fill="#E3E3E3" height="23.7125" rx="2" ry="2" style="stroke:#181818;stroke-width:0.4000000000000001;" width="77.6" x="357.2" y="238.775"/><text fill="#000000" font-family="sans-serif" font-size="11.2" lengthAdjust="spacing" textLength="66.4" x="362.8" y="254.5141">:Repositories</text><rect fill="#E3E3E3" height="36.225" rx="2" ry="2" style="stroke:#181818;stroke-width:0.4000000000000001;" width="77.6" x="442.8" y="4"/><text fill="#000000" font-family="sans-serif" font-size="11.2" lengthAdjust="spacing" textLength="59.2" x="452" y="19.7391">repositories</text><text fill="#000000" font-family="sans-serif" font-size="11.2" lengthAdjust="spacing" textLength="66.4" x="448.4" y="32.2516">:Repositories</text><rect fill="#E3E3E3" height="36.225" rx="2" ry="2" style="stroke:#181818;stroke-width:0.4000000000000001;" width="77.6" x="442.8" y="238.775"/><text fill="#000000" font-family="sans-serif" font-size="11.2" lengthAdjust="spacing" textLength="59.2" x="452" y="254.5141">repositories</text><text fill="#000000" font-family="sans-serif" font-size="11.2" lengthAdjust="spacing" textLength="66.4" x="448.4" y="267.0266">:Repositories</text><rect fill="#E3E3E3" height="36.225" rx="2" ry="2" style="stroke:#181818;stroke-width:0.4000000000000001;" width="137.6" x="528.4" y="4"/><text fill="#000000" font-family="sans-serif" font-size="11.2" lengthAdjust="spacing" textLength="122.4" x="536" y="19.7391">propertyTypeRepository</text><text fill="#000000" font-family="sans-serif" font-size="11.2" lengthAdjust="spacing" textLength="126.4" x="534" y="32.2516">:PropertyTypeRepository</text><rect fill="#E3E3E3" height="36.225" rx="2" ry="2" style="stroke:#181818;stroke-width:0.4000000000000001;" width="137.6" x="528.4" y="238.775"/><text fill="#000000" font-family="sans-serif" font-size="11.2" lengthAdjust="spacing" textLength="122.4" x="536" y="254.5141">propertyTypeRepository</text><text fill="#000000" font-family="sans-serif" font-size="11.2" lengthAdjust="spacing" textLength="126.4" x="534" y="267.0266">:PropertyTypeRepository</text><rect fill="#FFFFFF" height="166.9313" style="stroke:#181818;stroke-width:0.8000000000000002;" width="8" x="269.6" y="65.4438"/><rect fill="#FFFFFF" height="22.8188" style="stroke:#181818;stroke-width:0.8000000000000002;" width="8" x="392" y="88.2625"/><rect fill="#FFFFFF" height="22.8188" style="stroke:#181818;stroke-width:0.8000000000000002;" width="8" x="477.6" y="133.9"/><rect fill="#FFFFFF" height="22.8188" style="stroke:#181818;stroke-width:0.8000000000000002;" width="8" x="593.2" y="179.5375"/><polygon fill="#181818" points="260,62.2438,268,65.4438,260,68.6438,263.2,65.4438" style="stroke:#181818;stroke-width:0.8000000000000002;"/><line style="stroke:#181818;stroke-width:0.8000000000000002;" x1="0" x2="264.8" y1="65.4438" y2="65.4438"/><text fill="#000000" font-family="sans-serif" font-size="10.4" font-weight="bold" lengthAdjust="spacing" textLength="11.2" x="5.6" y="61.6398">17</text><text fill="#000000" font-family="sans-serif" font-size="10.4" lengthAdjust="spacing" textLength="240" x="20" y="61.6398">getPropertyTypeByName(String propertyTypeName)</text><polygon fill="#181818" points="382.4,85.0625,390.4,88.2625,382.4,91.4625,385.6,88.2625" style="stroke:#181818;stroke-width:0.8000000000000002;"/><line style="stroke:#181818;stroke-width:0.8000000000000002;" x1="277.6" x2="387.2" y1="88.2625" y2="88.2625"/><text fill="#000000" font-family="sans-serif" font-size="10.4" font-weight="bold" lengthAdjust="spacing" textLength="11.2" x="283.2" y="84.4586">18</text><text fill="#000000" font-family="sans-serif" font-size="10.4" lengthAdjust="spacing" textLength="60" x="297.6" y="84.4586">getInstance()</text><polygon fill="#181818" points="286.4,107.8813,278.4,111.0813,286.4,114.2813,283.2,111.0813" style="stroke:#181818;stroke-width:0.8000000000000002;"/><line style="stroke:#181818;stroke-width:0.8000000000000002;stroke-dasharray:2.0,2.0;" x1="281.6" x2="395.2" y1="111.0813" y2="111.0813"/><text fill="#000000" font-family="sans-serif" font-size="10.4" font-weight="bold" lengthAdjust="spacing" textLength="11.2" x="291.2" y="107.2773">19</text><text fill="#000000" font-family="sans-serif" font-size="10.4" lengthAdjust="spacing" textLength="53.6" x="305.6" y="107.2773">repositories</text><polygon fill="#181818" points="468,130.7,476,133.9,468,137.1,471.2,133.9" style="stroke:#181818;stroke-width:0.8000000000000002;"/><line style="stroke:#181818;stroke-width:0.8000000000000002;" x1="277.6" x2="472.8" y1="133.9" y2="133.9"/><text fill="#000000" font-family="sans-serif" font-size="10.4" font-weight="bold" lengthAdjust="spacing" textLength="11.2" x="283.2" y="130.0961">20</text><text fill="#000000" font-family="sans-serif" font-size="10.4" lengthAdjust="spacing" textLength="132" x="297.6" y="130.0961">getPropertyTypeRepository()</text><polygon fill="#181818" points="286.4,153.5188,278.4,156.7188,286.4,159.9188,283.2,156.7188" style="stroke:#181818;stroke-width:0.8000000000000002;"/><line style="stroke:#181818;stroke-width:0.8000000000000002;stroke-dasharray:2.0,2.0;" x1="281.6" x2="480.8" y1="156.7188" y2="156.7188"/><text fill="#000000" font-family="sans-serif" font-size="10.4" font-weight="bold" lengthAdjust="spacing" textLength="11.2" x="291.2" y="152.9148">21</text><text fill="#000000" font-family="sans-serif" font-size="10.4" lengthAdjust="spacing" textLength="109.6" x="305.6" y="152.9148">propertyTypeRepository</text><polygon fill="#181818" points="583.6,176.3375,591.6,179.5375,583.6,182.7375,586.8,179.5375" style="stroke:#181818;stroke-width:0.8000000000000002;"/><line style="stroke:#181818;stroke-width:0.8000000000000002;" x1="277.6" x2="588.4" y1="179.5375" y2="179.5375"/><text fill="#000000" font-family="sans-serif" font-size="10.4" font-weight="bold" lengthAdjust="spacing" textLength="11.2" x="283.2" y="175.7336">22</text><text fill="#000000" font-family="sans-serif" font-size="10.4" lengthAdjust="spacing" textLength="240" x="297.6" y="175.7336">getPropertyTypeByName(String propertyTypeName)</text><polygon fill="#181818" points="286.4,199.1563,278.4,202.3563,286.4,205.5563,283.2,202.3563" style="stroke:#181818;stroke-width:0.8000000000000002;"/><line style="stroke:#181818;stroke-width:0.8000000000000002;stroke-dasharray:2.0,2.0;" x1="281.6" x2="596.4" y1="202.3563" y2="202.3563"/><text fill="#000000" font-family="sans-serif" font-size="10.4" font-weight="bold" lengthAdjust="spacing" textLength="11.2" x="291.2" y="198.5523">23</text><text fill="#000000" font-family="sans-serif" font-size="10.4" lengthAdjust="spacing" textLength="60" x="305.6" y="198.5523">propertyType</text><polygon fill="#181818" points="8.8,221.975,0.8,225.175,8.8,228.375,5.6,225.175" style="stroke:#181818;stroke-width:0.8000000000000002;"/><line style="stroke:#181818;stroke-width:0.8000000000000002;stroke-dasharray:2.0,2.0;" x1="4" x2="268.8" y1="225.175" y2="225.175"/><text fill="#000000" font-family="sans-serif" font-size="10.4" font-weight="bold" lengthAdjust="spacing" textLength="11.2" x="13.6" y="221.3711">24</text><text fill="#000000" font-family="sans-serif" font-size="10.4" lengthAdjust="spacing" textLength="60" x="28" y="221.3711">propertyType</text><!--SRC=[bL4zRy8m4DtzAquifKE6JfLGLQbbYeGg18nTJ3Y2HUAppaVR_FlQXeI4qA6PhBltTI_-QApJh6keoL9nOAeHX4-eVBTnkZZg4jVIL0YCXMXRLds0F-WTVHjRmbvN7fNI9o5xghV8IZqSp0vXJoHR-b4gCCGKncahC9dbjIEMtEw9Qos6x9oiC5KLyWIqX_bcjRYXhD2HDq9iq2TC60mXt4DysZ5XkNZR31cEoI5BisaSTl0cS9Tt5sSLfZZj7mjFpofxJQ5dKABqsU_DXwvnkXQEFVKDu_mno1HYlhJW-MO8Ntn0q0l6aFHowqFt1Ku3F08wIgmWJI8qwoBqYqZh7OufhKji1KQnhqS7qu5dQZ6D4hDr3HBtsxmDSELt2SwDmkoVrGrZjRyb9Rie_X5k5AdblcJPfS8-_1S0]--></g></svg>