<?xml version="1.0" encoding="us-ascii" standalone="no"?><svg xmlns="http://www.w3.org/2000/svg" xmlns:xlink="http://www.w3.org/1999/xlink" contentStyleType="text/css" height="279.2px" preserveAspectRatio="none" style="width:775px;height:279px;background:#FFFFFF;" version="1.1" viewBox="0 0 775 279" width="775.2px" zoomAndPan="magnify"><defs/><g><rect fill="#FFFFFF" height="159.7313" style="stroke:#181818;stroke-width:0.8000000000000002;" width="8" x="297.6" y="65.4438"/><rect fill="#FFFFFF" height="22.8188" style="stroke:#181818;stroke-width:0.8000000000000002;" width="8" x="420" y="88.2625"/><rect fill="#FFFFFF" height="22.8188" style="stroke:#181818;stroke-width:0.8000000000000002;" width="8" x="505.6" y="133.9"/><rect fill="#FFFFFF" height="22.8188" style="stroke:#181818;stroke-width:0.8000000000000002;" width="8" x="739.6" y="179.5375"/><line style="stroke:#181818;stroke-width:0.4000000000000001;stroke-dasharray:5.0,5.0;" x1="301.2" x2="301.2" y1="41.025" y2="239.575"/><line style="stroke:#181818;stroke-width:0.4000000000000001;stroke-dasharray:5.0,5.0;" x1="423.6" x2="423.6" y1="41.025" y2="239.575"/><line style="stroke:#181818;stroke-width:0.4000000000000001;stroke-dasharray:5.0,5.0;" x1="509.2" x2="509.2" y1="41.025" y2="239.575"/><line style="stroke:#181818;stroke-width:0.4000000000000001;stroke-dasharray:5.0,5.0;" x1="632.4" x2="632.4" y1="41.025" y2="239.575"/><line style="stroke:#181818;stroke-width:0.4000000000000001;stroke-dasharray:5.0,5.0;" x1="743.6" x2="743.6" y1="41.025" y2="239.575"/><rect fill="#E3E3E3" height="23.7125" rx="2" ry="2" style="stroke:#181818;stroke-width:0.4000000000000001;" width="151.2" x="226" y="16.5125"/><text fill="#000000" font-family="sans-serif" font-size="11.2" lengthAdjust="spacing" textLength="140" x="231.6" y="32.2516">:ImportInformationController</text><rect fill="#E3E3E3" height="23.7125" rx="2" ry="2" style="stroke:#181818;stroke-width:0.4000000000000001;" width="151.2" x="226" y="238.775"/><text fill="#000000" font-family="sans-serif" font-size="11.2" lengthAdjust="spacing" textLength="140" x="231.6" y="254.5141">:ImportInformationController</text><rect fill="#E3E3E3" height="23.7125" rx="2" ry="2" style="stroke:#181818;stroke-width:0.4000000000000001;" width="77.6" x="385.2" y="16.5125"/><text fill="#000000" font-family="sans-serif" font-size="11.2" lengthAdjust="spacing" textLength="66.4" x="390.8" y="32.2516">:Repositories</text><rect fill="#E3E3E3" height="23.7125" rx="2" ry="2" style="stroke:#181818;stroke-width:0.4000000000000001;" width="77.6" x="385.2" y="238.775"/><text fill="#000000" font-family="sans-serif" font-size="11.2" lengthAdjust="spacing" textLength="66.4" x="390.8" y="254.5141">:Repositories</text><rect fill="#E3E3E3" height="36.225" rx="2" ry="2" style="stroke:#181818;stroke-width:0.4000000000000001;" width="77.6" x="470.8" y="4"/><text fill="#000000" font-family="sans-serif" font-size="11.2" lengthAdjust="spacing" textLength="59.2" x="480" y="19.7391">repositories</text><text fill="#000000" font-family="sans-serif" font-size="11.2" lengthAdjust="spacing" textLength="66.4" x="476.4" y="32.2516">:Repositories</text><rect fill="#E3E3E3" height="36.225" rx="2" ry="2" style="stroke:#181818;stroke-width:0.4000000000000001;" width="77.6" x="470.8" y="238.775"/><text fill="#000000" font-family="sans-serif" font-size="11.2" lengthAdjust="spacing" textLength="59.2" x="480" y="254.5141">repositories</text><text fill="#000000" font-family="sans-serif" font-size="11.2" lengthAdjust="spacing" textLength="66.4" x="476.4" y="267.0266">:Repositories</text><rect fill="#E3E3E3" height="36.225" rx="2" ry="2" style="stroke:#181818;stroke-width:0.4000000000000001;" width="152" x="556.4" y="4"/><text fill="#000000" font-family="sans-serif" font-size="11.2" lengthAdjust="spacing" textLength="133.6" x="565.6" y="19.7391">typeOfBusinessRepository</text><text fill="#000000" font-family="sans-serif" font-size="11.2" lengthAdjust="spacing" textLength="140.8" x="562" y="32.2516">:TypeOfBusinessRepository</text><rect fill="#E3E3E3" height="36.225" rx="2" ry="2" style="stroke:#181818;stroke-width:0.4000000000000001;" width="152" x="556.4" y="238.775"/><text fill="#000000" font-family="sans-serif" font-size="11.2" lengthAdjust="spacing" textLength="133.6" x="565.6" y="254.5141">typeOfBusinessRepository</text><text fill="#000000" font-family="sans-serif" font-size="11.2" lengthAdjust="spacing" textLength="140.8" x="562" y="267.0266">:TypeOfBusinessRepository</text><rect fill="#E3E3E3" height="23.7125" rx="2" ry="2" style="stroke:#181818;stroke-width:0.4000000000000001;" width="54.4" x="716.4" y="16.5125"/><text fill="#000000" font-family="sans-serif" font-size="11.2" lengthAdjust="spacing" textLength="43.2" x="722" y="32.2516">ProType</text><rect fill="#E3E3E3" height="23.7125" rx="2" ry="2" style="stroke:#181818;stroke-width:0.4000000000000001;" width="54.4" x="716.4" y="238.775"/><text fill="#000000" font-family="sans-serif" font-size="11.2" lengthAdjust="spacing" textLength="43.2" x="722" y="254.5141">ProType</text><rect fill="#FFFFFF" height="159.7313" style="stroke:#181818;stroke-width:0.8000000000000002;" width="8" x="297.6" y="65.4438"/><rect fill="#FFFFFF" height="22.8188" style="stroke:#181818;stroke-width:0.8000000000000002;" width="8" x="420" y="88.2625"/><rect fill="#FFFFFF" height="22.8188" style="stroke:#181818;stroke-width:0.8000000000000002;" width="8" x="505.6" y="133.9"/><rect fill="#FFFFFF" height="22.8188" style="stroke:#181818;stroke-width:0.8000000000000002;" width="8" x="739.6" y="179.5375"/><polygon fill="#181818" points="288,62.2438,296,65.4438,288,68.6438,291.2,65.4438" style="stroke:#181818;stroke-width:0.8000000000000002;"/><line style="stroke:#181818;stroke-width:0.8000000000000002;" x1="0" x2="292.8" y1="65.4438" y2="65.4438"/><text fill="#000000" font-family="sans-serif" font-size="10.4" font-weight="bold" lengthAdjust="spacing" textLength="11.2" x="5.6" y="61.6398">17</text><text fill="#000000" font-family="sans-serif" font-size="10.4" lengthAdjust="spacing" textLength="268" x="20" y="61.6398">getTypeOfBusinessByName(String typeOfBusinessName)</text><polygon fill="#181818" points="410.4,85.0625,418.4,88.2625,410.4,91.4625,413.6,88.2625" style="stroke:#181818;stroke-width:0.8000000000000002;"/><line style="stroke:#181818;stroke-width:0.8000000000000002;" x1="305.6" x2="415.2" y1="88.2625" y2="88.2625"/><text fill="#000000" font-family="sans-serif" font-size="10.4" font-weight="bold" lengthAdjust="spacing" textLength="11.2" x="311.2" y="84.4586">18</text><text fill="#000000" font-family="sans-serif" font-size="10.4" lengthAdjust="spacing" textLength="60" x="325.6" y="84.4586">getInstance()</text><polygon fill="#181818" points="314.4,107.8813,306.4,111.0813,314.4,114.2813,311.2,111.0813" style="stroke:#181818;stroke-width:0.8000000000000002;"/><line style="stroke:#181818;stroke-width:0.8000000000000002;stroke-dasharray:2.0,2.0;" x1="309.6" x2="423.2" y1="111.0813" y2="111.0813"/><text fill="#000000" font-family="sans-serif" font-size="10.4" font-weight="bold" lengthAdjust="spacing" textLength="11.2" x="319.2" y="107.2773">19</text><text fill="#000000" font-family="sans-serif" font-size="10.4" lengthAdjust="spacing" textLength="53.6" x="333.6" y="107.2773">repositories</text><polygon fill="#181818" points="496,130.7,504,133.9,496,137.1,499.2,133.9" style="stroke:#181818;stroke-width:0.8000000000000002;"/><line style="stroke:#181818;stroke-width:0.8000000000000002;" x1="305.6" x2="500.8" y1="133.9" y2="133.9"/><text fill="#000000" font-family="sans-serif" font-size="10.4" font-weight="bold" lengthAdjust="spacing" textLength="11.2" x="311.2" y="130.0961">20</text><text fill="#000000" font-family="sans-serif" font-size="10.4" lengthAdjust="spacing" textLength="146.4" x="325.6" y="130.0961">getTypeOfBusinessRepository()</text><polygon fill="#181818" points="314.4,153.5188,306.4,156.7188,314.4,159.9188,311.2,156.7188" style="stroke:#181818;stroke-width:0.8000000000000002;"/><line style="stroke:#181818;stroke-width:0.8000000000000002;stroke-dasharray:2.0,2.0;" x1="309.6" x2="508.8" y1="156.7188" y2="156.7188"/><text fill="#000000" font-family="sans-serif" font-size="10.4" font-weight="bold" lengthAdjust="spacing" textLength="11.2" x="319.2" y="152.9148">21</text><text fill="#000000" font-family="sans-serif" font-size="10.4" lengthAdjust="spacing" textLength="123.2" x="333.6" y="152.9148">typeOfBusinessRepository</text><polygon fill="#181818" points="730,176.3375,738,179.5375,730,182.7375,733.2,179.5375" style="stroke:#181818;stroke-width:0.8000000000000002;"/><line style="stroke:#181818;stroke-width:0.8000000000000002;" x1="305.6" x2="734.8" y1="179.5375" y2="179.5375"/><text fill="#000000" font-family="sans-serif" font-size="10.4" font-weight="bold" lengthAdjust="spacing" textLength="11.2" x="311.2" y="175.7336">22</text><text fill="#000000" font-family="sans-serif" font-size="10.4" lengthAdjust="spacing" textLength="268" x="325.6" y="175.7336">getTypeOfBusinessByName(String typeOfBusinessName)</text><polygon fill="#181818" points="314.4,199.1563,306.4,202.3563,314.4,205.5563,311.2,202.3563" style="stroke:#181818;stroke-width:0.8000000000000002;"/><line style="stroke:#181818;stroke-width:0.8000000000000002;stroke-dasharray:2.0,2.0;" x1="309.6" x2="742.8" y1="202.3563" y2="202.3563"/><text fill="#000000" font-family="sans-serif" font-size="10.4" font-weight="bold" lengthAdjust="spacing" textLength="11.2" x="319.2" y="198.5523">23</text><text fill="#000000" font-family="sans-serif" font-size="10.4" lengthAdjust="spacing" textLength="73.6" x="333.6" y="198.5523">typeOfBusiness</text><polygon fill="#181818" points="8.8,221.975,0.8,225.175,8.8,228.375,5.6,225.175" style="stroke:#181818;stroke-width:0.8000000000000002;"/><line style="stroke:#181818;stroke-width:0.8000000000000002;stroke-dasharray:2.0,2.0;" x1="4" x2="300.8" y1="225.175" y2="225.175"/><text fill="#000000" font-family="sans-serif" font-size="10.4" font-weight="bold" lengthAdjust="spacing" textLength="11.2" x="13.6" y="221.3711">24</text><text fill="#000000" font-family="sans-serif" font-size="10.4" lengthAdjust="spacing" textLength="73.6" x="28" y="221.3711">typeOfBusiness</text><!--SRC=[dP4nRy8m48Lt_ufJbz8XGwTAgAfKc91GMm5ZboDSWaNiY-nBs_pxsWP20itIJ9RlVU-UN_n1sneT6Z1iETyxDWJY6bA-czIO7x2ajRGLWQDSq9PLN-3tkEDlRKieiFAa53R2jZ5RSahTx_MEe62MBVye5GZHkQxH2jnD5wPc9mjRi3CecksShJYkAd9tW1xcczNo2bbHpLuBEqq-QSB5KE9wYazx2tmiNpT3GjgQtejPuxKbxpkW3VHcP9ISnhX-0_3ufBANz98fb2H3mrdxXeOcQt6nlg5Vd3m4grpq5meTou3mnGC4px0GakV2-l1JSfe4UHHqIEmctKHfriNeDvJ6Exf5pbjYNV17zCjpmzh1rbHmkahiUMym6ItiAiJ5eKlXEAw7wJyg78Ox6ftodLn78zu4EzFFMNOgymheYUFy5m00]--></g></svg>