<?xml version="1.0" encoding="us-ascii" standalone="no"?><svg xmlns="http://www.w3.org/2000/svg" xmlns:xlink="http://www.w3.org/1999/xlink" contentStyleType="text/css" height="344.8px" preserveAspectRatio="none" style="width:485px;height:344px;background:#FFFFFF;" version="1.1" viewBox="0 0 485 344" width="485.6px" zoomAndPan="magnify"><defs/><g><rect fill="#FFFFFF" height="225.1375" style="stroke:#181818;stroke-width:0.8000000000000002;" width="8" x="150.4" y="65.4438"/><rect fill="#FFFFFF" height="98.0563" style="stroke:#181818;stroke-width:0.8000000000000002;" width="8" x="154.4" y="158.5063"/><rect fill="#FFFFFF" height="31.6188" style="stroke:#181818;stroke-width:0.8000000000000002;" width="8" x="158.4" y="191.725"/><rect fill="none" height="191.1188" style="stroke:#000000;stroke-width:1.2000000000000002;" width="387.6" x="93.2" y="77.4438"/><line style="stroke:#181818;stroke-width:0.4000000000000001;stroke-dasharray:5.0,5.0;" x1="154" x2="154" y1="41.025" y2="304.9813"/><line style="stroke:#181818;stroke-width:0.4000000000000001;stroke-dasharray:5.0,5.0;" x1="446.4" x2="446.4" y1="121.175" y2="304.9813"/><rect fill="#E3E3E3" height="36.225" rx="2" ry="2" style="stroke:#181818;stroke-width:0.4000000000000001;" width="106.4" x="101.2" y="4"/><text fill="#000000" font-family="sans-serif" font-size="11.2" lengthAdjust="spacing" textLength="91.2" x="108.8" y="19.7391">agencyRepository</text><text fill="#000000" font-family="sans-serif" font-size="11.2" lengthAdjust="spacing" textLength="95.2" x="106.8" y="32.2516">:AgencyRepository</text><rect fill="#E3E3E3" height="36.225" rx="2" ry="2" style="stroke:#181818;stroke-width:0.4000000000000001;" width="106.4" x="101.2" y="304.1813"/><text fill="#000000" font-family="sans-serif" font-size="11.2" lengthAdjust="spacing" textLength="91.2" x="108.8" y="319.9203">agencyRepository</text><text fill="#000000" font-family="sans-serif" font-size="11.2" lengthAdjust="spacing" textLength="95.2" x="106.8" y="332.4328">:AgencyRepository</text><rect fill="#E3E3E3" height="36.225" rx="2" ry="2" style="stroke:#181818;stroke-width:0.4000000000000001;" width="52" x="420.8" y="304.1813"/><text fill="#000000" font-family="sans-serif" font-size="11.2" lengthAdjust="spacing" textLength="36.8" x="428.4" y="319.9203">agency</text><text fill="#000000" font-family="sans-serif" font-size="11.2" lengthAdjust="spacing" textLength="40.8" x="426.4" y="332.4328">:Agency</text><rect fill="#FFFFFF" height="225.1375" style="stroke:#181818;stroke-width:0.8000000000000002;" width="8" x="150.4" y="65.4438"/><rect fill="#FFFFFF" height="98.0563" style="stroke:#181818;stroke-width:0.8000000000000002;" width="8" x="154.4" y="158.5063"/><rect fill="#FFFFFF" height="31.6188" style="stroke:#181818;stroke-width:0.8000000000000002;" width="8" x="158.4" y="191.725"/><polygon fill="#181818" points="140.8,62.2438,148.8,65.4438,140.8,68.6438,144,65.4438" style="stroke:#181818;stroke-width:0.8000000000000002;"/><line style="stroke:#181818;stroke-width:0.8000000000000002;" x1="0" x2="145.6" y1="65.4438" y2="65.4438"/><text fill="#000000" font-family="sans-serif" font-size="10.4" font-weight="bold" lengthAdjust="spacing" textLength="11.2" x="5.6" y="61.6398">10</text><text fill="#000000" font-family="sans-serif" font-size="10.4" lengthAdjust="spacing" textLength="120.8" x="20" y="61.6398">createAgency(information)</text><path d="M93.2,77.4438 L203.6,77.4438 L203.6,82.6625 L195.6,90.6625 L93.2,90.6625 L93.2,77.4438 " fill="#EEEEEE" style="stroke:#000000;stroke-width:1.2000000000000002;"/><rect fill="none" height="191.1188" style="stroke:#000000;stroke-width:1.2000000000000002;" width="387.6" x="93.2" y="77.4438"/><text fill="#000000" font-family="sans-serif" font-size="10.4" font-weight="bold" lengthAdjust="spacing" textLength="74.4" x="105.2" y="87.6586">Create Agency</text><polygon fill="#181818" points="411.2,115.5,419.2,118.7,411.2,121.9,414.4,118.7" style="stroke:#181818;stroke-width:0.8000000000000002;"/><line style="stroke:#181818;stroke-width:0.8000000000000002;" x1="158.4" x2="416" y1="118.7" y2="118.7"/><text fill="#000000" font-family="sans-serif" font-size="10.4" font-weight="bold" lengthAdjust="spacing" textLength="20" x="164" y="109.0867">10.1</text><text fill="#000000" font-family="sans-serif" font-size="10.4" lengthAdjust="spacing" textLength="180" x="187.2" y="103.2773">createAgency(id, designation, location,</text><text fill="#000000" font-family="sans-serif" font-size="10.4" lengthAdjust="spacing" textLength="220" x="187.2" y="114.8961">emailAddress, telephoneNumber, administrator)</text><rect fill="#E3E3E3" height="36.225" rx="2" ry="2" style="stroke:#181818;stroke-width:0.4000000000000001;" width="52" x="420.8" y="90.6625"/><text fill="#000000" font-family="sans-serif" font-size="11.2" lengthAdjust="spacing" textLength="36.8" x="428.4" y="106.4016">agency</text><text fill="#000000" font-family="sans-serif" font-size="11.2" lengthAdjust="spacing" textLength="40.8" x="426.4" y="118.9141">:Agency</text><line style="stroke:#181818;stroke-width:0.8000000000000002;" x1="162.4" x2="196" y1="152.1063" y2="152.1063"/><line style="stroke:#181818;stroke-width:0.8000000000000002;" x1="196" x2="196" y1="152.1063" y2="162.5063"/><line style="stroke:#181818;stroke-width:0.8000000000000002;" x1="163.2" x2="196" y1="162.5063" y2="162.5063"/><polygon fill="#181818" points="171.2,159.3063,163.2,162.5063,171.2,165.7063,168,162.5063" style="stroke:#181818;stroke-width:0.8000000000000002;"/><text fill="#000000" font-family="sans-serif" font-size="10.4" font-weight="bold" lengthAdjust="spacing" textLength="20" x="168" y="148.3023">10.2</text><text fill="#000000" font-family="sans-serif" font-size="10.4" lengthAdjust="spacing" textLength="92" x="191.2" y="148.3023">addAgency(agency)</text><line style="stroke:#181818;stroke-width:0.8000000000000002;" x1="162.4" x2="200" y1="181.325" y2="181.325"/><line style="stroke:#181818;stroke-width:0.8000000000000002;" x1="200" x2="200" y1="181.325" y2="191.725"/><line style="stroke:#181818;stroke-width:0.8000000000000002;" x1="167.2" x2="200" y1="191.725" y2="191.725"/><polygon fill="#181818" points="175.2,188.525,167.2,191.725,175.2,194.925,172,191.725" style="stroke:#181818;stroke-width:0.8000000000000002;"/><text fill="#000000" font-family="sans-serif" font-size="10.4" font-weight="bold" lengthAdjust="spacing" textLength="20" x="172" y="177.5211">10.3</text><text fill="#000000" font-family="sans-serif" font-size="10.4" lengthAdjust="spacing" textLength="109.6" x="195.2" y="177.5211">validateAgency(agency)</text><line style="stroke:#181818;stroke-width:0.8000000000000002;stroke-dasharray:2.0,2.0;" x1="166.4" x2="200" y1="222.5438" y2="222.5438"/><line style="stroke:#181818;stroke-width:0.8000000000000002;stroke-dasharray:2.0,2.0;" x1="200" x2="200" y1="222.5438" y2="232.9438"/><line style="stroke:#181818;stroke-width:0.8000000000000002;stroke-dasharray:2.0,2.0;" x1="162.4" x2="200" y1="232.9438" y2="232.9438"/><polygon fill="#181818" points="170.4,229.7438,162.4,232.9438,170.4,236.1438,167.2,232.9438" style="stroke:#181818;stroke-width:0.8000000000000002;"/><text fill="#000000" font-family="sans-serif" font-size="10.4" font-weight="bold" lengthAdjust="spacing" textLength="20" x="172" y="218.7398">10.4</text><text fill="#000000" font-family="sans-serif" font-size="10.4" lengthAdjust="spacing" textLength="3.2" x="195.2" y="218.7398">&#160;</text><line style="stroke:#181818;stroke-width:0.8000000000000002;stroke-dasharray:2.0,2.0;" x1="162.4" x2="196" y1="255.7625" y2="255.7625"/><line style="stroke:#181818;stroke-width:0.8000000000000002;stroke-dasharray:2.0,2.0;" x1="196" x2="196" y1="255.7625" y2="266.1625"/><line style="stroke:#181818;stroke-width:0.8000000000000002;stroke-dasharray:2.0,2.0;" x1="158.4" x2="196" y1="266.1625" y2="266.1625"/><polygon fill="#181818" points="166.4,262.9625,158.4,266.1625,166.4,269.3625,163.2,266.1625" style="stroke:#181818;stroke-width:0.8000000000000002;"/><text fill="#000000" font-family="sans-serif" font-size="10.4" font-weight="bold" lengthAdjust="spacing" textLength="20" x="168" y="251.9586">10.5</text><text fill="#000000" font-family="sans-serif" font-size="10.4" lengthAdjust="spacing" textLength="3.2" x="191.2" y="251.9586">&#160;</text><polygon fill="#181818" points="8.8,287.3813,0.8,290.5813,8.8,293.7813,5.6,290.5813" style="stroke:#181818;stroke-width:0.8000000000000002;"/><line style="stroke:#181818;stroke-width:0.8000000000000002;stroke-dasharray:2.0,2.0;" x1="4" x2="153.6" y1="290.5813" y2="290.5813"/><text fill="#000000" font-family="sans-serif" font-size="10.4" font-weight="bold" lengthAdjust="spacing" textLength="11.2" x="13.6" y="286.7773">11</text><text fill="#000000" font-family="sans-serif" font-size="10.4" lengthAdjust="spacing" textLength="33.6" x="28" y="286.7773">agency</text><!--SRC=[dP91JyCm38Nl-HNMJcpg4BjE26dYpW6kkvZ4QwqbJfIaG_ltb7OgfQqg8AVAzdllYzDqPWaOqO7pudKLlIF8iIQL-av0VSQItlBL4aJI6QMqmu5KeV4VB2MSq2PIgYbdrXnGCgmQgUZhAmMVEFjuFSh-C2gj01ECYtCklNQWK0hhxALsxnHXzw2sJnEhFUX8cAchtx6SV7IOsSjwfBxVATIPBytm50YQKqPV1tXkxNe0k9sn0dgMpMRCO0embBYKbgC0w_NjwoZaaEt1c4Wf5P39KgYyq4jBMG0Qny8fHsn2rdtwCi5m6sZC3QDRwqyFGwCLzDtbrVoDuOAMpVS-va1-5pSVEPEvVCd1dFg_zPBjLv_4TFR3lsxNLXwtssbOyrRT4opoVW80]--></g></svg>