<?xml version="1.0" encoding="us-ascii" standalone="no"?><svg xmlns="http://www.w3.org/2000/svg" xmlns:xlink="http://www.w3.org/1999/xlink" contentStyleType="text/css" height="544.8px" preserveAspectRatio="none" style="width:585px;height:544px;background:#FFFFFF;" version="1.1" viewBox="0 0 585 544" width="585.6px" zoomAndPan="magnify"><defs/><g><rect fill="#FFFFFF" height="425.3625" style="stroke:#181818;stroke-width:0.8000000000000002;" width="8" x="154.4" y="65.4438"/><rect fill="#FFFFFF" height="98.0563" style="stroke:#181818;stroke-width:0.8000000000000002;" width="8" x="158.4" y="358.7313"/><rect fill="#FFFFFF" height="31.6188" style="stroke:#181818;stroke-width:0.8000000000000002;" width="8" x="162.4" y="391.95"/><rect fill="none" height="391.3438" style="stroke:#000000;stroke-width:1.2000000000000002;" width="494" x="86.8" y="77.4438"/><rect fill="none" height="58.2438" style="stroke:#000000;stroke-width:1.2000000000000002;" width="349.2" x="94.8" y="96.2625"/><rect fill="none" height="70.8938" style="stroke:#000000;stroke-width:1.2000000000000002;" width="423.6" x="94.8" y="165.7063"/><rect fill="none" height="82.5125" style="stroke:#000000;stroke-width:1.2000000000000002;" width="478" x="94.8" y="247.8"/><line style="stroke:#181818;stroke-width:0.4000000000000001;stroke-dasharray:5.0,5.0;" x1="158" x2="158" y1="41.025" y2="505.2063"/><line style="stroke:#181818;stroke-width:0.4000000000000001;stroke-dasharray:5.0,5.0;" x1="416" x2="416" y1="139.9938" y2="505.2063"/><line style="stroke:#181818;stroke-width:0.4000000000000001;stroke-dasharray:5.0,5.0;" x1="476.8" x2="476.8" y1="215.7625" y2="505.2063"/><line style="stroke:#181818;stroke-width:0.4000000000000001;stroke-dasharray:5.0,5.0;" x1="541.6" x2="541.6" y1="303.6656" y2="505.2063"/><rect fill="#E3E3E3" height="36.225" rx="2" ry="2" style="stroke:#181818;stroke-width:0.4000000000000001;" width="111.2" x="102.8" y="4"/><text fill="#000000" font-family="sans-serif" font-size="11.2" lengthAdjust="spacing" textLength="96.8" x="110" y="19.7391">propertyRepository</text><text fill="#000000" font-family="sans-serif" font-size="11.2" lengthAdjust="spacing" textLength="100" x="108.4" y="32.2516">:propertyRepository</text><rect fill="#E3E3E3" height="36.225" rx="2" ry="2" style="stroke:#181818;stroke-width:0.4000000000000001;" width="111.2" x="102.8" y="504.4063"/><text fill="#000000" font-family="sans-serif" font-size="11.2" lengthAdjust="spacing" textLength="96.8" x="110" y="520.1453">propertyRepository</text><text fill="#000000" font-family="sans-serif" font-size="11.2" lengthAdjust="spacing" textLength="100" x="108.4" y="532.6578">:propertyRepository</text><rect fill="#E3E3E3" height="36.225" rx="2" ry="2" style="stroke:#181818;stroke-width:0.4000000000000001;" width="40" x="396" y="504.4063"/><text fill="#000000" font-family="sans-serif" font-size="11.2" lengthAdjust="spacing" textLength="21.6" x="405.2" y="520.1453">land</text><text fill="#000000" font-family="sans-serif" font-size="11.2" lengthAdjust="spacing" textLength="28.8" x="401.6" y="532.6578">:Land</text><rect fill="#E3E3E3" height="36.225" rx="2" ry="2" style="stroke:#181818;stroke-width:0.4000000000000001;" width="66.4" x="444" y="504.4063"/><text fill="#000000" font-family="sans-serif" font-size="11.2" lengthAdjust="spacing" textLength="51.2" x="451.6" y="520.1453">apartment</text><text fill="#000000" font-family="sans-serif" font-size="11.2" lengthAdjust="spacing" textLength="55.2" x="449.6" y="532.6578">:Apartment</text><rect fill="#E3E3E3" height="36.225" rx="2" ry="2" style="stroke:#181818;stroke-width:0.4000000000000001;" width="46.4" x="518.4" y="504.4063"/><text fill="#000000" font-family="sans-serif" font-size="11.2" lengthAdjust="spacing" textLength="31.2" x="526" y="520.1453">house</text><text fill="#000000" font-family="sans-serif" font-size="11.2" lengthAdjust="spacing" textLength="35.2" x="524" y="532.6578">:House</text><rect fill="#FFFFFF" height="425.3625" style="stroke:#181818;stroke-width:0.8000000000000002;" width="8" x="154.4" y="65.4438"/><rect fill="#FFFFFF" height="98.0563" style="stroke:#181818;stroke-width:0.8000000000000002;" width="8" x="158.4" y="358.7313"/><rect fill="#FFFFFF" height="31.6188" style="stroke:#181818;stroke-width:0.8000000000000002;" width="8" x="162.4" y="391.95"/><polygon fill="#181818" points="144.8,62.2438,152.8,65.4438,144.8,68.6438,148,65.4438" style="stroke:#181818;stroke-width:0.8000000000000002;"/><line style="stroke:#181818;stroke-width:0.8000000000000002;" x1="0" x2="149.6" y1="65.4438" y2="65.4438"/><text fill="#000000" font-family="sans-serif" font-size="10.4" font-weight="bold" lengthAdjust="spacing" textLength="11.2" x="5.6" y="61.6398">10</text><text fill="#000000" font-family="sans-serif" font-size="10.4" lengthAdjust="spacing" textLength="124.8" x="20" y="61.6398">createProperty(information)</text><path d="M86.8,77.4438 L202.8,77.4438 L202.8,82.6625 L194.8,90.6625 L86.8,90.6625 L86.8,77.4438 " fill="#EEEEEE" style="stroke:#000000;stroke-width:1.2000000000000002;"/><rect fill="none" height="391.3438" style="stroke:#000000;stroke-width:1.2000000000000002;" width="494" x="86.8" y="77.4438"/><text fill="#000000" font-family="sans-serif" font-size="10.4" font-weight="bold" lengthAdjust="spacing" textLength="80" x="98.8" y="87.6586">Create Property</text><path d="M94.8,96.2625 L146.8,96.2625 L146.8,101.4813 L138.8,109.4813 L94.8,109.4813 L94.8,96.2625 " fill="#EEEEEE" style="stroke:#000000;stroke-width:1.2000000000000002;"/><rect fill="none" height="58.2438" style="stroke:#000000;stroke-width:1.2000000000000002;" width="349.2" x="94.8" y="96.2625"/><text fill="#000000" font-family="sans-serif" font-size="10.4" font-weight="bold" lengthAdjust="spacing" textLength="16" x="106.8" y="106.4773">opt</text><text fill="#000000" font-family="sans-serif" font-size="8.8" font-weight="bold" lengthAdjust="spacing" textLength="24.8" x="158.8" y="105.8289">[land]</text><polygon fill="#181818" points="386.4,134.3188,394.4,137.5188,386.4,140.7188,389.6,137.5188" style="stroke:#181818;stroke-width:0.8000000000000002;"/><line style="stroke:#181818;stroke-width:0.8000000000000002;" x1="162.4" x2="391.2" y1="137.5188" y2="137.5188"/><text fill="#000000" font-family="sans-serif" font-size="10.4" font-weight="bold" lengthAdjust="spacing" textLength="20" x="168" y="127.9055">10.1</text><text fill="#000000" font-family="sans-serif" font-size="10.4" lengthAdjust="spacing" textLength="144" x="191.2" y="122.0961">createLand(propertyType, area,</text><text fill="#000000" font-family="sans-serif" font-size="10.4" lengthAdjust="spacing" textLength="191.2" x="191.2" y="133.7148">location, distanceFromCityCentre, owner)</text><rect fill="#E3E3E3" height="36.225" rx="2" ry="2" style="stroke:#181818;stroke-width:0.4000000000000001;" width="40" x="396" y="109.4813"/><text fill="#000000" font-family="sans-serif" font-size="11.2" lengthAdjust="spacing" textLength="21.6" x="405.2" y="125.2203">land</text><text fill="#000000" font-family="sans-serif" font-size="11.2" lengthAdjust="spacing" textLength="28.8" x="401.6" y="137.7328">:Land</text><path d="M94.8,165.7063 L146.8,165.7063 L146.8,170.925 L138.8,178.925 L94.8,178.925 L94.8,165.7063 " fill="#EEEEEE" style="stroke:#000000;stroke-width:1.2000000000000002;"/><rect fill="none" height="70.8938" style="stroke:#000000;stroke-width:1.2000000000000002;" width="423.6" x="94.8" y="165.7063"/><text fill="#000000" font-family="sans-serif" font-size="10.4" font-weight="bold" lengthAdjust="spacing" textLength="16" x="106.8" y="175.9211">opt</text><text fill="#000000" font-family="sans-serif" font-size="8.8" font-weight="bold" lengthAdjust="spacing" textLength="52" x="158.8" y="175.2727">[apartment]</text><polygon fill="#181818" points="434.4,227,442.4,230.2,434.4,233.4,437.6,230.2" style="stroke:#181818;stroke-width:0.8000000000000002;"/><line style="stroke:#181818;stroke-width:0.8000000000000002;" x1="162.4" x2="439.2" y1="230.2" y2="230.2"/><text fill="#000000" font-family="sans-serif" font-size="10.4" font-weight="bold" lengthAdjust="spacing" textLength="20" x="168" y="208.968">10.1</text><text fill="#000000" font-family="sans-serif" font-size="10.4" lengthAdjust="spacing" textLength="212" x="191.2" y="191.5398">createApartment(propertyType, area, location,</text><text fill="#000000" font-family="sans-serif" font-size="10.4" lengthAdjust="spacing" textLength="213.6" x="191.2" y="203.1586">distanceFromCityCentre, numberOfBedrooms,</text><text fill="#000000" font-family="sans-serif" font-size="10.4" lengthAdjust="spacing" textLength="220" x="191.2" y="214.7773">numberOfBathrooms, numberOfParkingSpaces,</text><text fill="#000000" font-family="sans-serif" font-size="10.4" lengthAdjust="spacing" textLength="177.6" x="191.2" y="226.3961">centralHeating, airConditioning, owner)</text><rect fill="#E3E3E3" height="36.225" rx="2" ry="2" style="stroke:#181818;stroke-width:0.4000000000000001;" width="66.4" x="444" y="191.575"/><text fill="#000000" font-family="sans-serif" font-size="11.2" lengthAdjust="spacing" textLength="51.2" x="451.6" y="207.3141">apartment</text><text fill="#000000" font-family="sans-serif" font-size="11.2" lengthAdjust="spacing" textLength="55.2" x="449.6" y="219.8266">:Apartment</text><path d="M94.8,247.8 L146.8,247.8 L146.8,253.0188 L138.8,261.0188 L94.8,261.0188 L94.8,247.8 " fill="#EEEEEE" style="stroke:#000000;stroke-width:1.2000000000000002;"/><rect fill="none" height="82.5125" style="stroke:#000000;stroke-width:1.2000000000000002;" width="478" x="94.8" y="247.8"/><text fill="#000000" font-family="sans-serif" font-size="10.4" font-weight="bold" lengthAdjust="spacing" textLength="16" x="106.8" y="258.0148">opt</text><text fill="#000000" font-family="sans-serif" font-size="8.8" font-weight="bold" lengthAdjust="spacing" textLength="34.4" x="158.8" y="257.3664">[house]</text><polygon fill="#181818" points="508.8,320.7125,516.8,323.9125,508.8,327.1125,512,323.9125" style="stroke:#181818;stroke-width:0.8000000000000002;"/><line style="stroke:#181818;stroke-width:0.8000000000000002;" x1="162.4" x2="513.6" y1="323.9125" y2="323.9125"/><text fill="#000000" font-family="sans-serif" font-size="10.4" font-weight="bold" lengthAdjust="spacing" textLength="20" x="168" y="296.8711">10.1</text><text fill="#000000" font-family="sans-serif" font-size="10.4" lengthAdjust="spacing" textLength="193.6" x="191.2" y="273.6336">createHouse(propertyType, area, location,</text><text fill="#000000" font-family="sans-serif" font-size="10.4" lengthAdjust="spacing" textLength="213.6" x="191.2" y="285.2523">distanceFromCityCentre, numberOfBedrooms,</text><text fill="#000000" font-family="sans-serif" font-size="10.4" lengthAdjust="spacing" textLength="220" x="191.2" y="296.8711">numberOfBathrooms, numberOfParkingSpaces,</text><text fill="#000000" font-family="sans-serif" font-size="10.4" lengthAdjust="spacing" textLength="144" x="191.2" y="308.4898">centralHeating, airConditioning,</text><text fill="#000000" font-family="sans-serif" font-size="10.4" lengthAdjust="spacing" textLength="170.4" x="191.2" y="320.1086">inhabitableLoft, sunExposure, owner)</text><rect fill="#E3E3E3" height="36.225" rx="2" ry="2" style="stroke:#181818;stroke-width:0.4000000000000001;" width="46.4" x="518.4" y="285.2875"/><text fill="#000000" font-family="sans-serif" font-size="11.2" lengthAdjust="spacing" textLength="31.2" x="526" y="301.0266">house</text><text fill="#000000" font-family="sans-serif" font-size="11.2" lengthAdjust="spacing" textLength="35.2" x="524" y="313.5391">:House</text><line style="stroke:#181818;stroke-width:0.8000000000000002;" x1="162.4" x2="200" y1="348.3313" y2="348.3313"/><line style="stroke:#181818;stroke-width:0.8000000000000002;" x1="200" x2="200" y1="348.3313" y2="358.7313"/><line style="stroke:#181818;stroke-width:0.8000000000000002;" x1="167.2" x2="200" y1="358.7313" y2="358.7313"/><polygon fill="#181818" points="175.2,355.5313,167.2,358.7313,175.2,361.9313,172,358.7313" style="stroke:#181818;stroke-width:0.8000000000000002;"/><text fill="#000000" font-family="sans-serif" font-size="10.4" font-weight="bold" lengthAdjust="spacing" textLength="20" x="172" y="344.5273">10.2</text><text fill="#000000" font-family="sans-serif" font-size="10.4" lengthAdjust="spacing" textLength="100" x="195.2" y="344.5273">addProperty(property)</text><line style="stroke:#181818;stroke-width:0.8000000000000002;" x1="166.4" x2="204" y1="381.55" y2="381.55"/><line style="stroke:#181818;stroke-width:0.8000000000000002;" x1="204" x2="204" y1="381.55" y2="391.95"/><line style="stroke:#181818;stroke-width:0.8000000000000002;" x1="171.2" x2="204" y1="391.95" y2="391.95"/><polygon fill="#181818" points="179.2,388.75,171.2,391.95,179.2,395.15,176,391.95" style="stroke:#181818;stroke-width:0.8000000000000002;"/><text fill="#000000" font-family="sans-serif" font-size="10.4" font-weight="bold" lengthAdjust="spacing" textLength="20" x="176" y="377.7461">10.3</text><text fill="#000000" font-family="sans-serif" font-size="10.4" lengthAdjust="spacing" textLength="117.6" x="199.2" y="377.7461">validateProperty(property)</text><line style="stroke:#181818;stroke-width:0.8000000000000002;stroke-dasharray:2.0,2.0;" x1="170.4" x2="204" y1="422.7688" y2="422.7688"/><line style="stroke:#181818;stroke-width:0.8000000000000002;stroke-dasharray:2.0,2.0;" x1="204" x2="204" y1="422.7688" y2="433.1688"/><line style="stroke:#181818;stroke-width:0.8000000000000002;stroke-dasharray:2.0,2.0;" x1="166.4" x2="204" y1="433.1688" y2="433.1688"/><polygon fill="#181818" points="174.4,429.9688,166.4,433.1688,174.4,436.3688,171.2,433.1688" style="stroke:#181818;stroke-width:0.8000000000000002;"/><text fill="#000000" font-family="sans-serif" font-size="10.4" font-weight="bold" lengthAdjust="spacing" textLength="20" x="176" y="418.9648">10.4</text><text fill="#000000" font-family="sans-serif" font-size="10.4" lengthAdjust="spacing" textLength="3.2" x="199.2" y="418.9648">&#160;</text><line style="stroke:#181818;stroke-width:0.8000000000000002;stroke-dasharray:2.0,2.0;" x1="166.4" x2="200" y1="455.9875" y2="455.9875"/><line style="stroke:#181818;stroke-width:0.8000000000000002;stroke-dasharray:2.0,2.0;" x1="200" x2="200" y1="455.9875" y2="466.3875"/><line style="stroke:#181818;stroke-width:0.8000000000000002;stroke-dasharray:2.0,2.0;" x1="162.4" x2="200" y1="466.3875" y2="466.3875"/><polygon fill="#181818" points="170.4,463.1875,162.4,466.3875,170.4,469.5875,167.2,466.3875" style="stroke:#181818;stroke-width:0.8000000000000002;"/><text fill="#000000" font-family="sans-serif" font-size="10.4" font-weight="bold" lengthAdjust="spacing" textLength="20" x="172" y="452.1836">10.5</text><text fill="#000000" font-family="sans-serif" font-size="10.4" lengthAdjust="spacing" textLength="3.2" x="195.2" y="452.1836">&#160;</text><polygon fill="#181818" points="8.8,487.6063,0.8,490.8063,8.8,494.0063,5.6,490.8063" style="stroke:#181818;stroke-width:0.8000000000000002;"/><line style="stroke:#181818;stroke-width:0.8000000000000002;stroke-dasharray:2.0,2.0;" x1="4" x2="157.6" y1="490.8063" y2="490.8063"/><text fill="#000000" font-family="sans-serif" font-size="10.4" font-weight="bold" lengthAdjust="spacing" textLength="20" x="13.6" y="487.0023">10.6</text><text fill="#000000" font-family="sans-serif" font-size="10.4" lengthAdjust="spacing" textLength="37.6" x="36.8" y="487.0023">property</text><!--SRC=[pLInRjim4Dtv5OTCSM0NpMeK1LgZHOO03PgENixIMI8YyGYIIgg_xv69QAcMOtUh5egFZ_VUFP7oJzfOTDX2ouQBsd5B45n7okSLYyKJLlGO-eR0KH7GLCsOu6ii-KMR2lROU59AuA0BRT44kBAEBRdG_oJBNWTs_TQiZy4hG0yFH_2qLeEcbDttCYH-V9aoCCvQCa5eNuRtnCspwOQQEqz2lejZ8gOtfR0BRBfsHmvkFwhLvnbpi8R24GOQbgwrsRDhCMWs2rKvxYni4YFlLbW4_Jn6HirED3_SAhO1OiyAO4vUJCK4Rcu67t5sFMJxgxUq19I59MnDmqMojOHIU_c41NsNZxtHeTz89awO_6B8BLJKWh-DH8nUVK0qbMDEoBor7FZ1NuPcJHuiRiqfaw-cVko_KkcOMn-v6SDGlu43z81EZcdrA6UO4hU8TR2v4pU2Yx9s6nQrg9k0jnI6Xa-c4LD8PoVDJgUGJjCXWJJzVxlVob3ZJWVSDNJF-x04tvbllwMZRdH69kcSxlqONGEMPRujGmoBNEUzom6ZvtAzPsnqERwYnwBdXCygpqfFTfLqaS2_5x-Wy71lu_DfjPh_ZmsfgBD5_m00]--></g></svg>