<?xml version="1.0" encoding="us-ascii" standalone="no"?><svg xmlns="http://www.w3.org/2000/svg" xmlns:xlink="http://www.w3.org/1999/xlink" contentStyleType="text/css" height="344.8px" preserveAspectRatio="none" style="width:771px;height:344px;background:#FFFFFF;" version="1.1" viewBox="0 0 771 344" width="771.2px" zoomAndPan="magnify"><defs/><g><rect fill="#FFFFFF" height="225.1375" style="stroke:#181818;stroke-width:0.8000000000000002;" width="8" x="184.8" y="65.4438"/><rect fill="#FFFFFF" height="98.0563" style="stroke:#181818;stroke-width:0.8000000000000002;" width="8" x="188.8" y="158.5063"/><rect fill="#FFFFFF" height="31.6188" style="stroke:#181818;stroke-width:0.8000000000000002;" width="8" x="192.8" y="191.725"/><rect fill="none" height="191.1188" style="stroke:#000000;stroke-width:1.2000000000000002;" width="658" x="108.4" y="77.4438"/><line style="stroke:#181818;stroke-width:0.4000000000000001;stroke-dasharray:5.0,5.0;" x1="188.4" x2="188.4" y1="41.025" y2="304.9813"/><line style="stroke:#181818;stroke-width:0.4000000000000001;stroke-dasharray:5.0,5.0;" x1="712.8" x2="712.8" y1="121.175" y2="304.9813"/><rect fill="#E3E3E3" height="36.225" rx="2" ry="2" style="stroke:#181818;stroke-width:0.4000000000000001;" width="144.8" x="116.4" y="4"/><text fill="#000000" font-family="sans-serif" font-size="11.2" lengthAdjust="spacing" textLength="129.6" x="124" y="19.7391">announcementRepository</text><text fill="#000000" font-family="sans-serif" font-size="11.2" lengthAdjust="spacing" textLength="133.6" x="122" y="32.2516">:AnnouncementRepository</text><rect fill="#E3E3E3" height="36.225" rx="2" ry="2" style="stroke:#181818;stroke-width:0.4000000000000001;" width="144.8" x="116.4" y="304.1813"/><text fill="#000000" font-family="sans-serif" font-size="11.2" lengthAdjust="spacing" textLength="129.6" x="124" y="319.9203">announcementRepository</text><text fill="#000000" font-family="sans-serif" font-size="11.2" lengthAdjust="spacing" textLength="133.6" x="122" y="332.4328">:AnnouncementRepository</text><rect fill="#E3E3E3" height="36.225" rx="2" ry="2" style="stroke:#181818;stroke-width:0.4000000000000001;" width="90.4" x="668" y="304.1813"/><text fill="#000000" font-family="sans-serif" font-size="11.2" lengthAdjust="spacing" textLength="75.2" x="675.6" y="319.9203">announcement</text><text fill="#000000" font-family="sans-serif" font-size="11.2" lengthAdjust="spacing" textLength="79.2" x="673.6" y="332.4328">:Announcement</text><rect fill="#FFFFFF" height="225.1375" style="stroke:#181818;stroke-width:0.8000000000000002;" width="8" x="184.8" y="65.4438"/><rect fill="#FFFFFF" height="98.0563" style="stroke:#181818;stroke-width:0.8000000000000002;" width="8" x="188.8" y="158.5063"/><rect fill="#FFFFFF" height="31.6188" style="stroke:#181818;stroke-width:0.8000000000000002;" width="8" x="192.8" y="191.725"/><polygon fill="#181818" points="175.2,62.2438,183.2,65.4438,175.2,68.6438,178.4,65.4438" style="stroke:#181818;stroke-width:0.8000000000000002;"/><line style="stroke:#181818;stroke-width:0.8000000000000002;" x1="0" x2="180" y1="65.4438" y2="65.4438"/><text fill="#000000" font-family="sans-serif" font-size="10.4" font-weight="bold" lengthAdjust="spacing" textLength="11.2" x="5.6" y="61.6398">10</text><text fill="#000000" font-family="sans-serif" font-size="10.4" lengthAdjust="spacing" textLength="155.2" x="20" y="61.6398">createAnnouncement(information)</text><path d="M108.4,77.4438 L258,77.4438 L258,82.6625 L250,90.6625 L108.4,90.6625 L108.4,77.4438 " fill="#EEEEEE" style="stroke:#000000;stroke-width:1.2000000000000002;"/><rect fill="none" height="191.1188" style="stroke:#000000;stroke-width:1.2000000000000002;" width="658" x="108.4" y="77.4438"/><text fill="#000000" font-family="sans-serif" font-size="10.4" font-weight="bold" lengthAdjust="spacing" textLength="113.6" x="120.4" y="87.6586">Create Announcement</text><polygon fill="#181818" points="658.4,103.8813,666.4,107.0813,658.4,110.2813,661.6,107.0813" style="stroke:#181818;stroke-width:0.8000000000000002;"/><line style="stroke:#181818;stroke-width:0.8000000000000002;" x1="192.8" x2="663.2" y1="107.0813" y2="107.0813"/><text fill="#000000" font-family="sans-serif" font-size="10.4" font-weight="bold" lengthAdjust="spacing" textLength="20" x="198.4" y="103.2773">10.1</text><text fill="#000000" font-family="sans-serif" font-size="10.4" lengthAdjust="spacing" textLength="432.8" x="221.6" y="103.2773">createAnnouncement(request, price, commission, dateOfAnnouncementRequest, dateOfSale)</text><rect fill="#E3E3E3" height="36.225" rx="2" ry="2" style="stroke:#181818;stroke-width:0.4000000000000001;" width="90.4" x="668" y="90.6625"/><text fill="#000000" font-family="sans-serif" font-size="11.2" lengthAdjust="spacing" textLength="75.2" x="675.6" y="106.4016">announcement</text><text fill="#000000" font-family="sans-serif" font-size="11.2" lengthAdjust="spacing" textLength="79.2" x="673.6" y="118.9141">:Announcement</text><line style="stroke:#181818;stroke-width:0.8000000000000002;" x1="196.8" x2="230.4" y1="152.1063" y2="152.1063"/><line style="stroke:#181818;stroke-width:0.8000000000000002;" x1="230.4" x2="230.4" y1="152.1063" y2="162.5063"/><line style="stroke:#181818;stroke-width:0.8000000000000002;" x1="197.6" x2="230.4" y1="162.5063" y2="162.5063"/><polygon fill="#181818" points="205.6,159.3063,197.6,162.5063,205.6,165.7063,202.4,162.5063" style="stroke:#181818;stroke-width:0.8000000000000002;"/><text fill="#000000" font-family="sans-serif" font-size="10.4" font-weight="bold" lengthAdjust="spacing" textLength="20" x="202.4" y="148.3023">10.2</text><text fill="#000000" font-family="sans-serif" font-size="10.4" lengthAdjust="spacing" textLength="160.8" x="225.6" y="148.3023">addAnnouncement(announcement)</text><line style="stroke:#181818;stroke-width:0.8000000000000002;" x1="196.8" x2="234.4" y1="181.325" y2="181.325"/><line style="stroke:#181818;stroke-width:0.8000000000000002;" x1="234.4" x2="234.4" y1="181.325" y2="191.725"/><line style="stroke:#181818;stroke-width:0.8000000000000002;" x1="201.6" x2="234.4" y1="191.725" y2="191.725"/><polygon fill="#181818" points="209.6,188.525,201.6,191.725,209.6,194.925,206.4,191.725" style="stroke:#181818;stroke-width:0.8000000000000002;"/><text fill="#000000" font-family="sans-serif" font-size="10.4" font-weight="bold" lengthAdjust="spacing" textLength="20" x="206.4" y="177.5211">10.3</text><text fill="#000000" font-family="sans-serif" font-size="10.4" lengthAdjust="spacing" textLength="178.4" x="229.6" y="177.5211">validateAnnouncement(announcement)</text><line style="stroke:#181818;stroke-width:0.8000000000000002;stroke-dasharray:2.0,2.0;" x1="200.8" x2="234.4" y1="222.5438" y2="222.5438"/><line style="stroke:#181818;stroke-width:0.8000000000000002;stroke-dasharray:2.0,2.0;" x1="234.4" x2="234.4" y1="222.5438" y2="232.9438"/><line style="stroke:#181818;stroke-width:0.8000000000000002;stroke-dasharray:2.0,2.0;" x1="196.8" x2="234.4" y1="232.9438" y2="232.9438"/><polygon fill="#181818" points="204.8,229.7438,196.8,232.9438,204.8,236.1438,201.6,232.9438" style="stroke:#181818;stroke-width:0.8000000000000002;"/><text fill="#000000" font-family="sans-serif" font-size="10.4" font-weight="bold" lengthAdjust="spacing" textLength="20" x="206.4" y="218.7398">10.4</text><text fill="#000000" font-family="sans-serif" font-size="10.4" lengthAdjust="spacing" textLength="3.2" x="229.6" y="218.7398">&#160;</text><line style="stroke:#181818;stroke-width:0.8000000000000002;stroke-dasharray:2.0,2.0;" x1="196.8" x2="230.4" y1="255.7625" y2="255.7625"/><line style="stroke:#181818;stroke-width:0.8000000000000002;stroke-dasharray:2.0,2.0;" x1="230.4" x2="230.4" y1="255.7625" y2="266.1625"/><line style="stroke:#181818;stroke-width:0.8000000000000002;stroke-dasharray:2.0,2.0;" x1="192.8" x2="230.4" y1="266.1625" y2="266.1625"/><polygon fill="#181818" points="200.8,262.9625,192.8,266.1625,200.8,269.3625,197.6,266.1625" style="stroke:#181818;stroke-width:0.8000000000000002;"/><text fill="#000000" font-family="sans-serif" font-size="10.4" font-weight="bold" lengthAdjust="spacing" textLength="20" x="202.4" y="251.9586">10.5</text><text fill="#000000" font-family="sans-serif" font-size="10.4" lengthAdjust="spacing" textLength="3.2" x="225.6" y="251.9586">&#160;</text><polygon fill="#181818" points="8.8,287.3813,0.8,290.5813,8.8,293.7813,5.6,290.5813" style="stroke:#181818;stroke-width:0.8000000000000002;"/><line style="stroke:#181818;stroke-width:0.8000000000000002;stroke-dasharray:2.0,2.0;" x1="4" x2="188" y1="290.5813" y2="290.5813"/><text fill="#000000" font-family="sans-serif" font-size="10.4" font-weight="bold" lengthAdjust="spacing" textLength="11.2" x="13.6" y="286.7773">11</text><text fill="#000000" font-family="sans-serif" font-size="10.4" lengthAdjust="spacing" textLength="33.6" x="28" y="286.7773">agency</text><!--SRC=[hPB1JiCm44Jl_efLJxHA4BbM20dr0v3ebSjYRrAhyJhOJb7-dj1MaHDY20WVFUFPvx7zKNE33WqOorOUd3K4mRKa_A0qA8zOqJvqDO4Z6P2hEZRu0ohxhhc24cjFGlJRGKlT80TO8RDjMP8X3i_KMA-3TTqBRnzdXHMWXtafdJj9-v8X1BR1ScjUoK5n9_A7n8WjI4SOA5PlD9VM6GpQydgIT5i8b46V-YCfQEXNvMpRmEuSFG63wve_3HFIpMQMqD5RIpvaq3WjAGDfZT7Uzy0PgDxyL8xZh-wBjCUQrWF7SfQuDLHg11G_pZXRqMnXWsT9dN_dF66jrRIzDEnlOBu3IX8jgIPoY_yPzlEWJnUnkWoCVtnnthdFyzJu_YzKnB8J2sxp0G00]--></g></svg>