<?xml version="1.0" encoding="us-ascii" standalone="no"?><svg xmlns="http://www.w3.org/2000/svg" xmlns:xlink="http://www.w3.org/1999/xlink" contentStyleType="text/css" height="395.2px" preserveAspectRatio="none" style="width:961px;height:395px;background:#FFFFFF;" version="1.1" viewBox="0 0 961 395" width="961.6px" zoomAndPan="magnify"><defs/><g><rect fill="#FFFFFF" height="275.425" style="stroke:#181818;stroke-width:0.8000000000000002;" width="8" x="173.6" y="65.4438"/><rect fill="#FFFFFF" height="22.8188" style="stroke:#181818;stroke-width:0.8000000000000002;" width="8" x="312" y="107.0813"/><rect fill="#FFFFFF" height="22.8188" style="stroke:#181818;stroke-width:0.8000000000000002;" width="8" x="429.6" y="152.7188"/><rect fill="#FFFFFF" height="22.8188" style="stroke:#181818;stroke-width:0.8000000000000002;" width="8" x="536" y="198.3563"/><rect fill="#FFFFFF" height="22.8188" style="stroke:#181818;stroke-width:0.8000000000000002;" width="8" x="712" y="243.9938"/><rect fill="#FFFFFF" height="22.8188" style="stroke:#181818;stroke-width:0.8000000000000002;" width="8" x="817.6" y="289.6313"/><rect fill="none" height="241.4063" style="stroke:#000000;stroke-width:1.2000000000000002;" width="863.2" x="94" y="77.4438"/><line style="stroke:#181818;stroke-width:0.4000000000000001;stroke-dasharray:5.0,5.0;" x1="177.2" x2="177.2" y1="41.025" y2="355.2688"/><line style="stroke:#181818;stroke-width:0.4000000000000001;stroke-dasharray:5.0,5.0;" x1="315.6" x2="315.6" y1="41.025" y2="355.2688"/><line style="stroke:#181818;stroke-width:0.4000000000000001;stroke-dasharray:5.0,5.0;" x1="433.2" x2="433.2" y1="41.025" y2="355.2688"/><line style="stroke:#181818;stroke-width:0.4000000000000001;stroke-dasharray:5.0,5.0;" x1="539.6" x2="539.6" y1="41.025" y2="355.2688"/><line style="stroke:#181818;stroke-width:0.4000000000000001;stroke-dasharray:5.0,5.0;" x1="630" x2="630" y1="41.025" y2="355.2688"/><line style="stroke:#181818;stroke-width:0.4000000000000001;stroke-dasharray:5.0,5.0;" x1="715.6" x2="715.6" y1="41.025" y2="355.2688"/><line style="stroke:#181818;stroke-width:0.4000000000000001;stroke-dasharray:5.0,5.0;" x1="821.2" x2="821.2" y1="41.025" y2="355.2688"/><line style="stroke:#181818;stroke-width:0.4000000000000001;stroke-dasharray:5.0,5.0;" x1="918.8" x2="918.8" y1="41.025" y2="355.2688"/><rect fill="#E3E3E3" height="23.7125" rx="2" ry="2" style="stroke:#181818;stroke-width:0.4000000000000001;" width="151.2" x="102" y="16.5125"/><text fill="#000000" font-family="sans-serif" font-size="11.2" lengthAdjust="spacing" textLength="140" x="107.6" y="32.2516">:ImportInformationController</text><rect fill="#E3E3E3" height="23.7125" rx="2" ry="2" style="stroke:#181818;stroke-width:0.4000000000000001;" width="151.2" x="102" y="354.4688"/><text fill="#000000" font-family="sans-serif" font-size="11.2" lengthAdjust="spacing" textLength="140" x="107.6" y="370.2078">:ImportInformationController</text><rect fill="#E3E3E3" height="23.7125" rx="2" ry="2" style="stroke:#181818;stroke-width:0.4000000000000001;" width="109.6" x="261.2" y="16.5125"/><text fill="#000000" font-family="sans-serif" font-size="11.2" lengthAdjust="spacing" textLength="98.4" x="266.8" y="32.2516">:ApplicationSession</text><rect fill="#E3E3E3" height="23.7125" rx="2" ry="2" style="stroke:#181818;stroke-width:0.4000000000000001;" width="109.6" x="261.2" y="354.4688"/><text fill="#000000" font-family="sans-serif" font-size="11.2" lengthAdjust="spacing" textLength="98.4" x="266.8" y="370.2078">:ApplicationSession</text><rect fill="#E3E3E3" height="36.225" rx="2" ry="2" style="stroke:#181818;stroke-width:0.4000000000000001;" width="109.6" x="378.8" y="4"/><text fill="#000000" font-family="sans-serif" font-size="11.2" lengthAdjust="spacing" textLength="59.2" x="404" y="19.7391">appSession</text><text fill="#000000" font-family="sans-serif" font-size="11.2" lengthAdjust="spacing" textLength="98.4" x="384.4" y="32.2516">:ApplicationSession</text><rect fill="#E3E3E3" height="36.225" rx="2" ry="2" style="stroke:#181818;stroke-width:0.4000000000000001;" width="109.6" x="378.8" y="354.4688"/><text fill="#000000" font-family="sans-serif" font-size="11.2" lengthAdjust="spacing" textLength="59.2" x="404" y="370.2078">appSession</text><text fill="#000000" font-family="sans-serif" font-size="11.2" lengthAdjust="spacing" textLength="98.4" x="384.4" y="382.7203">:ApplicationSession</text><rect fill="#E3E3E3" height="36.225" rx="2" ry="2" style="stroke:#181818;stroke-width:0.4000000000000001;" width="87.2" x="496.4" y="4"/><text fill="#000000" font-family="sans-serif" font-size="11.2" lengthAdjust="spacing" textLength="76" x="502" y="19.7391">currentSession</text><text fill="#000000" font-family="sans-serif" font-size="11.2" lengthAdjust="spacing" textLength="66.4" x="506.8" y="32.2516">:UserSession</text><rect fill="#E3E3E3" height="36.225" rx="2" ry="2" style="stroke:#181818;stroke-width:0.4000000000000001;" width="87.2" x="496.4" y="354.4688"/><text fill="#000000" font-family="sans-serif" font-size="11.2" lengthAdjust="spacing" textLength="76" x="502" y="370.2078">currentSession</text><text fill="#000000" font-family="sans-serif" font-size="11.2" lengthAdjust="spacing" textLength="66.4" x="506.8" y="382.7203">:UserSession</text><rect fill="#E3E3E3" height="23.7125" rx="2" ry="2" style="stroke:#181818;stroke-width:0.4000000000000001;" width="77.6" x="591.6" y="16.5125"/><text fill="#000000" font-family="sans-serif" font-size="11.2" lengthAdjust="spacing" textLength="66.4" x="597.2" y="32.2516">:Repositories</text><rect fill="#E3E3E3" height="23.7125" rx="2" ry="2" style="stroke:#181818;stroke-width:0.4000000000000001;" width="77.6" x="591.6" y="354.4688"/><text fill="#000000" font-family="sans-serif" font-size="11.2" lengthAdjust="spacing" textLength="66.4" x="597.2" y="370.2078">:Repositories</text><rect fill="#E3E3E3" height="36.225" rx="2" ry="2" style="stroke:#181818;stroke-width:0.4000000000000001;" width="77.6" x="677.2" y="4"/><text fill="#000000" font-family="sans-serif" font-size="11.2" lengthAdjust="spacing" textLength="59.2" x="686.4" y="19.7391">repositories</text><text fill="#000000" font-family="sans-serif" font-size="11.2" lengthAdjust="spacing" textLength="66.4" x="682.8" y="32.2516">:Repositories</text><rect fill="#E3E3E3" height="36.225" rx="2" ry="2" style="stroke:#181818;stroke-width:0.4000000000000001;" width="77.6" x="677.2" y="354.4688"/><text fill="#000000" font-family="sans-serif" font-size="11.2" lengthAdjust="spacing" textLength="59.2" x="686.4" y="370.2078">repositories</text><text fill="#000000" font-family="sans-serif" font-size="11.2" lengthAdjust="spacing" textLength="66.4" x="682.8" y="382.7203">:Repositories</text><rect fill="#E3E3E3" height="36.225" rx="2" ry="2" style="stroke:#181818;stroke-width:0.4000000000000001;" width="117.6" x="762.8" y="4"/><text fill="#000000" font-family="sans-serif" font-size="11.2" lengthAdjust="spacing" textLength="106.4" x="768.4" y="19.7391">employeeRepository:</text><text fill="#000000" font-family="sans-serif" font-size="11.2" lengthAdjust="spacing" textLength="104" x="769.6" y="32.2516">EmployeeRepository</text><rect fill="#E3E3E3" height="36.225" rx="2" ry="2" style="stroke:#181818;stroke-width:0.4000000000000001;" width="117.6" x="762.8" y="354.4688"/><text fill="#000000" font-family="sans-serif" font-size="11.2" lengthAdjust="spacing" textLength="106.4" x="768.4" y="370.2078">employeeRepository:</text><text fill="#000000" font-family="sans-serif" font-size="11.2" lengthAdjust="spacing" textLength="104" x="769.6" y="382.7203">EmployeeRepository</text><rect fill="#E3E3E3" height="23.7125" rx="2" ry="2" style="stroke:#181818;stroke-width:0.4000000000000001;" width="60.8" x="888.4" y="16.5125"/><text fill="#000000" font-family="sans-serif" font-size="11.2" lengthAdjust="spacing" textLength="49.6" x="894" y="32.2516">Employee</text><rect fill="#E3E3E3" height="23.7125" rx="2" ry="2" style="stroke:#181818;stroke-width:0.4000000000000001;" width="60.8" x="888.4" y="354.4688"/><text fill="#000000" font-family="sans-serif" font-size="11.2" lengthAdjust="spacing" textLength="49.6" x="894" y="370.2078">Employee</text><rect fill="#FFFFFF" height="275.425" style="stroke:#181818;stroke-width:0.8000000000000002;" width="8" x="173.6" y="65.4438"/><rect fill="#FFFFFF" height="22.8188" style="stroke:#181818;stroke-width:0.8000000000000002;" width="8" x="312" y="107.0813"/><rect fill="#FFFFFF" height="22.8188" style="stroke:#181818;stroke-width:0.8000000000000002;" width="8" x="429.6" y="152.7188"/><rect fill="#FFFFFF" height="22.8188" style="stroke:#181818;stroke-width:0.8000000000000002;" width="8" x="536" y="198.3563"/><rect fill="#FFFFFF" height="22.8188" style="stroke:#181818;stroke-width:0.8000000000000002;" width="8" x="712" y="243.9938"/><rect fill="#FFFFFF" height="22.8188" style="stroke:#181818;stroke-width:0.8000000000000002;" width="8" x="817.6" y="289.6313"/><polygon fill="#181818" points="164,62.2438,172,65.4438,164,68.6438,167.2,65.4438" style="stroke:#181818;stroke-width:0.8000000000000002;"/><line style="stroke:#181818;stroke-width:0.8000000000000002;" x1="0" x2="168.8" y1="65.4438" y2="65.4438"/><text fill="#000000" font-family="sans-serif" font-size="10.4" font-weight="bold" lengthAdjust="spacing" textLength="11.2" x="5.6" y="61.6398">14</text><text fill="#000000" font-family="sans-serif" font-size="10.4" lengthAdjust="spacing" textLength="144" x="20" y="61.6398">getAdministratorFromSession()</text><path d="M94,77.4438 L218.8,77.4438 L218.8,82.6625 L210.8,90.6625 L94,90.6625 L94,77.4438 " fill="#EEEEEE" style="stroke:#000000;stroke-width:1.2000000000000002;"/><rect fill="none" height="241.4063" style="stroke:#000000;stroke-width:1.2000000000000002;" width="863.2" x="94" y="77.4438"/><text fill="#000000" font-family="sans-serif" font-size="10.4" font-weight="bold" lengthAdjust="spacing" textLength="88.8" x="106" y="87.6586">Get Administrator</text><polygon fill="#181818" points="302.4,103.8813,310.4,107.0813,302.4,110.2813,305.6,107.0813" style="stroke:#181818;stroke-width:0.8000000000000002;"/><line style="stroke:#181818;stroke-width:0.8000000000000002;" x1="181.6" x2="307.2" y1="107.0813" y2="107.0813"/><text fill="#000000" font-family="sans-serif" font-size="10.4" font-weight="bold" lengthAdjust="spacing" textLength="20" x="187.2" y="103.2773">14.1</text><text fill="#000000" font-family="sans-serif" font-size="10.4" lengthAdjust="spacing" textLength="60" x="210.4" y="103.2773">getInstance()</text><polygon fill="#181818" points="190.4,126.7,182.4,129.9,190.4,133.1,187.2,129.9" style="stroke:#181818;stroke-width:0.8000000000000002;"/><line style="stroke:#181818;stroke-width:0.8000000000000002;" x1="185.6" x2="315.2" y1="129.9" y2="129.9"/><text fill="#000000" font-family="sans-serif" font-size="10.4" font-weight="bold" lengthAdjust="spacing" textLength="20" x="195.2" y="126.0961">14.2</text><text fill="#000000" font-family="sans-serif" font-size="10.4" lengthAdjust="spacing" textLength="54.4" x="218.4" y="126.0961">appSession</text><polygon fill="#181818" points="420,149.5188,428,152.7188,420,155.9188,423.2,152.7188" style="stroke:#181818;stroke-width:0.8000000000000002;"/><line style="stroke:#181818;stroke-width:0.8000000000000002;" x1="181.6" x2="424.8" y1="152.7188" y2="152.7188"/><text fill="#000000" font-family="sans-serif" font-size="10.4" font-weight="bold" lengthAdjust="spacing" textLength="20" x="187.2" y="148.9148">14.3</text><text fill="#000000" font-family="sans-serif" font-size="10.4" lengthAdjust="spacing" textLength="92" x="210.4" y="148.9148">getCurrentSession()</text><polygon fill="#181818" points="190.4,172.3375,182.4,175.5375,190.4,178.7375,187.2,175.5375" style="stroke:#181818;stroke-width:0.8000000000000002;"/><line style="stroke:#181818;stroke-width:0.8000000000000002;stroke-dasharray:2.0,2.0;" x1="185.6" x2="432.8" y1="175.5375" y2="175.5375"/><text fill="#000000" font-family="sans-serif" font-size="10.4" font-weight="bold" lengthAdjust="spacing" textLength="20" x="195.2" y="171.7336">14.4</text><text fill="#000000" font-family="sans-serif" font-size="10.4" lengthAdjust="spacing" textLength="69.6" x="218.4" y="171.7336">currentSession</text><polygon fill="#181818" points="526.4,195.1563,534.4,198.3563,526.4,201.5563,529.6,198.3563" style="stroke:#181818;stroke-width:0.8000000000000002;"/><line style="stroke:#181818;stroke-width:0.8000000000000002;" x1="181.6" x2="531.2" y1="198.3563" y2="198.3563"/><text fill="#000000" font-family="sans-serif" font-size="10.4" font-weight="bold" lengthAdjust="spacing" textLength="20" x="187.2" y="194.5523">14.5</text><text fill="#000000" font-family="sans-serif" font-size="10.4" lengthAdjust="spacing" textLength="106.4" x="210.4" y="194.5523">email = getUserEmail()</text><polygon fill="#181818" points="190.4,217.975,182.4,221.175,190.4,224.375,187.2,221.175" style="stroke:#181818;stroke-width:0.8000000000000002;"/><line style="stroke:#181818;stroke-width:0.8000000000000002;stroke-dasharray:2.0,2.0;" x1="185.6" x2="539.2" y1="221.175" y2="221.175"/><text fill="#000000" font-family="sans-serif" font-size="10.4" font-weight="bold" lengthAdjust="spacing" textLength="20" x="195.2" y="217.3711">14.6</text><text fill="#000000" font-family="sans-serif" font-size="10.4" lengthAdjust="spacing" textLength="24.8" x="218.4" y="217.3711">email</text><polygon fill="#181818" points="702.4,240.7938,710.4,243.9938,702.4,247.1938,705.6,243.9938" style="stroke:#181818;stroke-width:0.8000000000000002;"/><line style="stroke:#181818;stroke-width:0.8000000000000002;" x1="181.6" x2="707.2" y1="243.9938" y2="243.9938"/><text fill="#000000" font-family="sans-serif" font-size="10.4" font-weight="bold" lengthAdjust="spacing" textLength="20" x="187.2" y="240.1898">14.7</text><text fill="#000000" font-family="sans-serif" font-size="10.4" lengthAdjust="spacing" textLength="141.6" x="210.4" y="240.1898">getEmployeeRepository(email)</text><polygon fill="#181818" points="190.4,263.6125,182.4,266.8125,190.4,270.0125,187.2,266.8125" style="stroke:#181818;stroke-width:0.8000000000000002;"/><line style="stroke:#181818;stroke-width:0.8000000000000002;stroke-dasharray:2.0,2.0;" x1="185.6" x2="715.2" y1="266.8125" y2="266.8125"/><text fill="#000000" font-family="sans-serif" font-size="10.4" font-weight="bold" lengthAdjust="spacing" textLength="20" x="195.2" y="263.0086">14.8</text><text fill="#000000" font-family="sans-serif" font-size="10.4" lengthAdjust="spacing" textLength="94.4" x="218.4" y="263.0086">employeeRepository</text><polygon fill="#181818" points="808,286.4313,816,289.6313,808,292.8313,811.2,289.6313" style="stroke:#181818;stroke-width:0.8000000000000002;"/><line style="stroke:#181818;stroke-width:0.8000000000000002;" x1="181.6" x2="812.8" y1="289.6313" y2="289.6313"/><text fill="#000000" font-family="sans-serif" font-size="10.4" font-weight="bold" lengthAdjust="spacing" textLength="20" x="187.2" y="285.8273">14.9</text><text fill="#000000" font-family="sans-serif" font-size="10.4" lengthAdjust="spacing" textLength="131.2" x="210.4" y="285.8273">getEmployeeByEmail(email)</text><polygon fill="#181818" points="190.4,309.25,182.4,312.45,190.4,315.65,187.2,312.45" style="stroke:#181818;stroke-width:0.8000000000000002;"/><line style="stroke:#181818;stroke-width:0.8000000000000002;stroke-dasharray:2.0,2.0;" x1="185.6" x2="918" y1="312.45" y2="312.45"/><text fill="#000000" font-family="sans-serif" font-size="10.4" font-weight="bold" lengthAdjust="spacing" textLength="25.6" x="195.2" y="308.6461">14.10</text><text fill="#000000" font-family="sans-serif" font-size="10.4" lengthAdjust="spacing" textLength="60" x="224" y="308.6461">administrator</text><polygon fill="#181818" points="8.8,337.6688,0.8,340.8688,8.8,344.0688,5.6,340.8688" style="stroke:#181818;stroke-width:0.8000000000000002;"/><line style="stroke:#181818;stroke-width:0.8000000000000002;stroke-dasharray:2.0,2.0;" x1="4" x2="176.8" y1="340.8688" y2="340.8688"/><text fill="#000000" font-family="sans-serif" font-size="10.4" font-weight="bold" lengthAdjust="spacing" textLength="11.2" x="13.6" y="337.0648">15</text><text fill="#000000" font-family="sans-serif" font-size="10.4" lengthAdjust="spacing" textLength="60" x="28" y="337.0648">administrator</text><!--SRC=[TPDDQ-Cm48Rl_XL3BziUKYXqBwPRS4Es10eRwkwjK5HxueXQ7qXok_dtAqrYHuhLkHYFvfrvh7bjFxZKp301GadLx8mI2CuCMDZfHBFcWtLOktsFOB1nJ7PzN61th5LVN7QmPRt5miUF7MyHjagvT_Mly6MEDrmpwU2YN0kjZ5lBhJA2EQxaKabdLD-ZkG1cOVdo_7GcgRJkUKF5DLhh7rJvLcqsQINJ-bZmAhzJpKJDO0nATnB-jMXYHRsgw-hF6TCpQcMvKuQZfQefiQzvk26dP2enaS9FcJNOF5KlgGA5xjKUyTIwV9MhMPBKytHHiC533E8T3TpS5ejxkbieeKDNjO9BRfrXllItt_lnWo-lKjNrJS4Qnp-PmyDc2l3H6JLeU4G7IHyw2q5p_Bom8HgtbjRxfa7VVgoPsj8Q8OgGW2Dj2QUTJaKjfkBPt77iCbbjRdWY3q6pf-6fDt80sVa7nvI0Wl4UVWMKOAfLUCrH71sMW1no4Giroo6SgqUAO2YwXhatBgbPXeHCc724J48nyra6AMqp0iqv4ho7_U62lcFBMJmc7SydMczrblLdHBhAVm_Abfxnp_2JCdUBHRvvr9J-bFy0]--></g></svg>