<?xml version="1.0" encoding="us-ascii" standalone="no"?><svg xmlns="http://www.w3.org/2000/svg" xmlns:xlink="http://www.w3.org/1999/xlink" contentStyleType="text/css" height="915.2px" preserveAspectRatio="none" style="width:509px;height:915px;background:#FFFFFF;" version="1.1" viewBox="0 0 509 915" width="509.6px" zoomAndPan="magnify"><defs/><g><rect fill="#FFFFFF" height="812.125" style="stroke:#181818;stroke-width:0.8000000000000002;" width="8" x="189.6" y="49.025"/><rect fill="#FFFFFF" height="98.0563" style="stroke:#181818;stroke-width:0.8000000000000002;" width="8" x="193.6" y="340.6313"/><rect fill="#FFFFFF" height="31.6188" style="stroke:#181818;stroke-width:0.8000000000000002;" width="8" x="197.6" y="373.85"/><rect fill="#FFFFFF" height="98.0563" style="stroke:#181818;stroke-width:0.8000000000000002;" width="8" x="193.6" y="729.075"/><rect fill="#FFFFFF" height="31.6188" style="stroke:#181818;stroke-width:0.8000000000000002;" width="8" x="197.6" y="762.2938"/><rect fill="none" height="377.2438" style="stroke:#000000;stroke-width:1.2000000000000002;" width="502.4" x="2.4" y="73.4438"/><rect fill="none" height="58.2438" style="stroke:#000000;stroke-width:1.2000000000000002;" width="366.8" x="130" y="115.0813"/><rect fill="none" height="58.2438" style="stroke:#000000;stroke-width:1.2000000000000002;" width="366.8" x="130" y="184.525"/><rect fill="none" height="58.2438" style="stroke:#000000;stroke-width:1.2000000000000002;" width="366.8" x="130" y="253.9688"/><rect fill="none" height="377.2438" style="stroke:#000000;stroke-width:1.2000000000000002;" width="502.4" x="2.4" y="461.8875"/><rect fill="none" height="58.2438" style="stroke:#000000;stroke-width:1.2000000000000002;" width="366.8" x="130" y="503.525"/><rect fill="none" height="58.2438" style="stroke:#000000;stroke-width:1.2000000000000002;" width="366.8" x="130" y="572.9688"/><rect fill="none" height="58.2438" style="stroke:#000000;stroke-width:1.2000000000000002;" width="366.8" x="130" y="642.4125"/><line style="stroke:#181818;stroke-width:0.4000000000000001;stroke-dasharray:5.0,5.0;" x1="193.2" x2="193.2" y1="41.025" y2="875.55"/><line style="stroke:#181818;stroke-width:0.4000000000000001;stroke-dasharray:5.0,5.0;" x1="460" x2="460" y1="686.1438" y2="875.55"/><rect fill="#E3E3E3" height="36.225" rx="2" ry="2" style="stroke:#181818;stroke-width:0.4000000000000001;" width="111.2" x="138" y="4"/><text fill="#000000" font-family="sans-serif" font-size="11.2" lengthAdjust="spacing" textLength="92.8" x="147.2" y="19.7391">requestRepository</text><text fill="#000000" font-family="sans-serif" font-size="11.2" lengthAdjust="spacing" textLength="100" x="143.6" y="32.2516">:RequestRepository</text><rect fill="#E3E3E3" height="36.225" rx="2" ry="2" style="stroke:#181818;stroke-width:0.4000000000000001;" width="111.2" x="138" y="874.75"/><text fill="#000000" font-family="sans-serif" font-size="11.2" lengthAdjust="spacing" textLength="92.8" x="147.2" y="890.4891">requestRepository</text><text fill="#000000" font-family="sans-serif" font-size="11.2" lengthAdjust="spacing" textLength="100" x="143.6" y="903.0016">:RequestRepository</text><rect fill="#E3E3E3" height="36.225" rx="2" ry="2" style="stroke:#181818;stroke-width:0.4000000000000001;" width="56.8" x="432" y="874.75"/><text fill="#000000" font-family="sans-serif" font-size="11.2" lengthAdjust="spacing" textLength="38.4" x="441.2" y="890.4891">request</text><text fill="#000000" font-family="sans-serif" font-size="11.2" lengthAdjust="spacing" textLength="45.6" x="437.6" y="903.0016">:Request</text><rect fill="#FFFFFF" height="812.125" style="stroke:#181818;stroke-width:0.8000000000000002;" width="8" x="189.6" y="49.025"/><rect fill="#FFFFFF" height="98.0563" style="stroke:#181818;stroke-width:0.8000000000000002;" width="8" x="193.6" y="340.6313"/><rect fill="#FFFFFF" height="31.6188" style="stroke:#181818;stroke-width:0.8000000000000002;" width="8" x="197.6" y="373.85"/><rect fill="#FFFFFF" height="98.0563" style="stroke:#181818;stroke-width:0.8000000000000002;" width="8" x="193.6" y="729.075"/><rect fill="#FFFFFF" height="31.6188" style="stroke:#181818;stroke-width:0.8000000000000002;" width="8" x="197.6" y="762.2938"/><path d="M2.4,73.4438 L54.4,73.4438 L54.4,78.6625 L46.4,86.6625 L2.4,86.6625 L2.4,73.4438 " fill="#EEEEEE" style="stroke:#000000;stroke-width:1.2000000000000002;"/><rect fill="none" height="377.2438" style="stroke:#000000;stroke-width:1.2000000000000002;" width="502.4" x="2.4" y="73.4438"/><text fill="#000000" font-family="sans-serif" font-size="10.4" font-weight="bold" lengthAdjust="spacing" textLength="16" x="14.4" y="83.6586">opt</text><text fill="#000000" font-family="sans-serif" font-size="8.8" font-weight="bold" lengthAdjust="spacing" textLength="24.8" x="66.4" y="83.0102">[sale]</text><polygon fill="#181818" points="180,99.8813,188,103.0813,180,106.2813,183.2,103.0813" style="stroke:#181818;stroke-width:0.8000000000000002;"/><line style="stroke:#181818;stroke-width:0.8000000000000002;" x1="0" x2="184.8" y1="103.0813" y2="103.0813"/><text fill="#000000" font-family="sans-serif" font-size="10.4" font-weight="bold" lengthAdjust="spacing" textLength="20" x="5.6" y="99.2773">10.1</text><text fill="#000000" font-family="sans-serif" font-size="10.4" lengthAdjust="spacing" textLength="144.8" x="28.8" y="99.2773">createSaleRequest(information)</text><path d="M130,115.0813 L182,115.0813 L182,120.3 L174,128.3 L130,128.3 L130,115.0813 " fill="#EEEEEE" style="stroke:#000000;stroke-width:1.2000000000000002;"/><rect fill="none" height="58.2438" style="stroke:#000000;stroke-width:1.2000000000000002;" width="366.8" x="130" y="115.0813"/><text fill="#000000" font-family="sans-serif" font-size="10.4" font-weight="bold" lengthAdjust="spacing" textLength="16" x="142" y="125.2961">opt</text><text fill="#000000" font-family="sans-serif" font-size="8.8" font-weight="bold" lengthAdjust="spacing" textLength="24.8" x="194" y="124.6477">[land]</text><polygon fill="#181818" points="422.4,153.1375,430.4,156.3375,422.4,159.5375,425.6,156.3375" style="stroke:#181818;stroke-width:0.8000000000000002;"/><line style="stroke:#181818;stroke-width:0.8000000000000002;" x1="197.6" x2="427.2" y1="156.3375" y2="156.3375"/><text fill="#000000" font-family="sans-serif" font-size="10.4" font-weight="bold" lengthAdjust="spacing" textLength="20" x="203.2" y="146.7242">10.2</text><text fill="#000000" font-family="sans-serif" font-size="10.4" lengthAdjust="spacing" textLength="136" x="226.4" y="140.9148">createSaleLandRequest(land,</text><text fill="#000000" font-family="sans-serif" font-size="10.4" lengthAdjust="spacing" textLength="186.4" x="226.4" y="152.5336">requestedPrice, typeOfBusiness, owner)</text><rect fill="#E3E3E3" height="36.225" rx="2" ry="2" style="stroke:#181818;stroke-width:0.4000000000000001;" width="56.8" x="432" y="128.3"/><text fill="#000000" font-family="sans-serif" font-size="11.2" lengthAdjust="spacing" textLength="38.4" x="441.2" y="144.0391">request</text><text fill="#000000" font-family="sans-serif" font-size="11.2" lengthAdjust="spacing" textLength="45.6" x="437.6" y="156.5516">:Request</text><path d="M130,184.525 L182,184.525 L182,189.7438 L174,197.7438 L130,197.7438 L130,184.525 " fill="#EEEEEE" style="stroke:#000000;stroke-width:1.2000000000000002;"/><rect fill="none" height="58.2438" style="stroke:#000000;stroke-width:1.2000000000000002;" width="366.8" x="130" y="184.525"/><text fill="#000000" font-family="sans-serif" font-size="10.4" font-weight="bold" lengthAdjust="spacing" textLength="16" x="142" y="194.7398">opt</text><text fill="#000000" font-family="sans-serif" font-size="8.8" font-weight="bold" lengthAdjust="spacing" textLength="52" x="194" y="194.0914">[apartment]</text><polygon fill="#181818" points="422.4,222.5813,430.4,225.7813,422.4,228.9813,425.6,225.7813" style="stroke:#181818;stroke-width:0.8000000000000002;"/><line style="stroke:#181818;stroke-width:0.8000000000000002;" x1="197.6" x2="427.2" y1="225.7813" y2="225.7813"/><text fill="#000000" font-family="sans-serif" font-size="10.4" font-weight="bold" lengthAdjust="spacing" textLength="20" x="203.2" y="216.168">10.2</text><text fill="#000000" font-family="sans-serif" font-size="10.4" lengthAdjust="spacing" textLength="188.8" x="226.4" y="210.3586">createSaleApartmentRequest(apartment,</text><text fill="#000000" font-family="sans-serif" font-size="10.4" lengthAdjust="spacing" textLength="186.4" x="226.4" y="221.9773">requestedPrice, typeOfBusiness, owner)</text><rect fill="#E3E3E3" height="36.225" rx="2" ry="2" style="stroke:#181818;stroke-width:0.4000000000000001;" width="56.8" x="432" y="197.7438"/><text fill="#000000" font-family="sans-serif" font-size="11.2" lengthAdjust="spacing" textLength="38.4" x="441.2" y="213.4828">request</text><text fill="#000000" font-family="sans-serif" font-size="11.2" lengthAdjust="spacing" textLength="45.6" x="437.6" y="225.9953">:Request</text><path d="M130,253.9688 L182,253.9688 L182,259.1875 L174,267.1875 L130,267.1875 L130,253.9688 " fill="#EEEEEE" style="stroke:#000000;stroke-width:1.2000000000000002;"/><rect fill="none" height="58.2438" style="stroke:#000000;stroke-width:1.2000000000000002;" width="366.8" x="130" y="253.9688"/><text fill="#000000" font-family="sans-serif" font-size="10.4" font-weight="bold" lengthAdjust="spacing" textLength="16" x="142" y="264.1836">opt</text><text fill="#000000" font-family="sans-serif" font-size="8.8" font-weight="bold" lengthAdjust="spacing" textLength="34.4" x="194" y="263.5352">[House]</text><polygon fill="#181818" points="422.4,292.025,430.4,295.225,422.4,298.425,425.6,295.225" style="stroke:#181818;stroke-width:0.8000000000000002;"/><line style="stroke:#181818;stroke-width:0.8000000000000002;" x1="197.6" x2="427.2" y1="295.225" y2="295.225"/><text fill="#000000" font-family="sans-serif" font-size="10.4" font-weight="bold" lengthAdjust="spacing" textLength="20" x="203.2" y="285.6117">10.2</text><text fill="#000000" font-family="sans-serif" font-size="10.4" lengthAdjust="spacing" textLength="152" x="226.4" y="279.8023">createSaleHouseRequest(house,</text><text fill="#000000" font-family="sans-serif" font-size="10.4" lengthAdjust="spacing" textLength="175.2" x="226.4" y="291.4211">requestPrice, typeOfBusiness, owner)</text><rect fill="#E3E3E3" height="36.225" rx="2" ry="2" style="stroke:#181818;stroke-width:0.4000000000000001;" width="56.8" x="432" y="267.1875"/><text fill="#000000" font-family="sans-serif" font-size="11.2" lengthAdjust="spacing" textLength="38.4" x="441.2" y="282.9266">request</text><text fill="#000000" font-family="sans-serif" font-size="11.2" lengthAdjust="spacing" textLength="45.6" x="437.6" y="295.4391">:Request</text><line style="stroke:#181818;stroke-width:0.8000000000000002;" x1="201.6" x2="235.2" y1="334.2313" y2="334.2313"/><line style="stroke:#181818;stroke-width:0.8000000000000002;" x1="235.2" x2="235.2" y1="334.2313" y2="344.6313"/><line style="stroke:#181818;stroke-width:0.8000000000000002;" x1="202.4" x2="235.2" y1="344.6313" y2="344.6313"/><polygon fill="#181818" points="210.4,341.4313,202.4,344.6313,210.4,347.8313,207.2,344.6313" style="stroke:#181818;stroke-width:0.8000000000000002;"/><text fill="#000000" font-family="sans-serif" font-size="10.4" font-weight="bold" lengthAdjust="spacing" textLength="20" x="207.2" y="330.4273">10.3</text><text fill="#000000" font-family="sans-serif" font-size="10.4" lengthAdjust="spacing" textLength="140" x="230.4" y="330.4273">addSaleRequest(saleRequest)</text><line style="stroke:#181818;stroke-width:0.8000000000000002;" x1="201.6" x2="239.2" y1="363.45" y2="363.45"/><line style="stroke:#181818;stroke-width:0.8000000000000002;" x1="239.2" x2="239.2" y1="363.45" y2="373.85"/><line style="stroke:#181818;stroke-width:0.8000000000000002;" x1="206.4" x2="239.2" y1="373.85" y2="373.85"/><polygon fill="#181818" points="214.4,370.65,206.4,373.85,214.4,377.05,211.2,373.85" style="stroke:#181818;stroke-width:0.8000000000000002;"/><text fill="#000000" font-family="sans-serif" font-size="10.4" font-weight="bold" lengthAdjust="spacing" textLength="20" x="211.2" y="359.6461">10.4</text><text fill="#000000" font-family="sans-serif" font-size="10.4" lengthAdjust="spacing" textLength="157.6" x="234.4" y="359.6461">validateSaleRequest(saleRequest)</text><line style="stroke:#181818;stroke-width:0.8000000000000002;stroke-dasharray:2.0,2.0;" x1="205.6" x2="239.2" y1="404.6688" y2="404.6688"/><line style="stroke:#181818;stroke-width:0.8000000000000002;stroke-dasharray:2.0,2.0;" x1="239.2" x2="239.2" y1="404.6688" y2="415.0688"/><line style="stroke:#181818;stroke-width:0.8000000000000002;stroke-dasharray:2.0,2.0;" x1="201.6" x2="239.2" y1="415.0688" y2="415.0688"/><polygon fill="#181818" points="209.6,411.8688,201.6,415.0688,209.6,418.2688,206.4,415.0688" style="stroke:#181818;stroke-width:0.8000000000000002;"/><text fill="#000000" font-family="sans-serif" font-size="10.4" font-weight="bold" lengthAdjust="spacing" textLength="20" x="211.2" y="400.8648">10.5</text><text fill="#000000" font-family="sans-serif" font-size="10.4" lengthAdjust="spacing" textLength="3.2" x="234.4" y="400.8648">&#160;</text><line style="stroke:#181818;stroke-width:0.8000000000000002;stroke-dasharray:2.0,2.0;" x1="201.6" x2="235.2" y1="437.8875" y2="437.8875"/><line style="stroke:#181818;stroke-width:0.8000000000000002;stroke-dasharray:2.0,2.0;" x1="235.2" x2="235.2" y1="437.8875" y2="448.2875"/><line style="stroke:#181818;stroke-width:0.8000000000000002;stroke-dasharray:2.0,2.0;" x1="197.6" x2="235.2" y1="448.2875" y2="448.2875"/><polygon fill="#181818" points="205.6,445.0875,197.6,448.2875,205.6,451.4875,202.4,448.2875" style="stroke:#181818;stroke-width:0.8000000000000002;"/><text fill="#000000" font-family="sans-serif" font-size="10.4" font-weight="bold" lengthAdjust="spacing" textLength="20" x="207.2" y="434.0836">10.6</text><text fill="#000000" font-family="sans-serif" font-size="10.4" lengthAdjust="spacing" textLength="3.2" x="230.4" y="434.0836">&#160;</text><path d="M2.4,461.8875 L54.4,461.8875 L54.4,467.1063 L46.4,475.1063 L2.4,475.1063 L2.4,461.8875 " fill="#EEEEEE" style="stroke:#000000;stroke-width:1.2000000000000002;"/><rect fill="none" height="377.2438" style="stroke:#000000;stroke-width:1.2000000000000002;" width="502.4" x="2.4" y="461.8875"/><text fill="#000000" font-family="sans-serif" font-size="10.4" font-weight="bold" lengthAdjust="spacing" textLength="16" x="14.4" y="472.1023">opt</text><text fill="#000000" font-family="sans-serif" font-size="8.8" font-weight="bold" lengthAdjust="spacing" textLength="24.8" x="66.4" y="471.4539">[rent]</text><polygon fill="#181818" points="180,488.325,188,491.525,180,494.725,183.2,491.525" style="stroke:#181818;stroke-width:0.8000000000000002;"/><line style="stroke:#181818;stroke-width:0.8000000000000002;" x1="0" x2="184.8" y1="491.525" y2="491.525"/><text fill="#000000" font-family="sans-serif" font-size="10.4" font-weight="bold" lengthAdjust="spacing" textLength="20" x="5.6" y="487.7211">10.1</text><text fill="#000000" font-family="sans-serif" font-size="10.4" lengthAdjust="spacing" textLength="145.6" x="28.8" y="487.7211">createRentRequest(information)</text><path d="M130,503.525 L182,503.525 L182,508.7438 L174,516.7438 L130,516.7438 L130,503.525 " fill="#EEEEEE" style="stroke:#000000;stroke-width:1.2000000000000002;"/><rect fill="none" height="58.2438" style="stroke:#000000;stroke-width:1.2000000000000002;" width="366.8" x="130" y="503.525"/><text fill="#000000" font-family="sans-serif" font-size="10.4" font-weight="bold" lengthAdjust="spacing" textLength="16" x="142" y="513.7398">opt</text><text fill="#000000" font-family="sans-serif" font-size="8.8" font-weight="bold" lengthAdjust="spacing" textLength="24.8" x="194" y="513.0914">[land]</text><polygon fill="#181818" points="422.4,541.5813,430.4,544.7813,422.4,547.9813,425.6,544.7813" style="stroke:#181818;stroke-width:0.8000000000000002;"/><line style="stroke:#181818;stroke-width:0.8000000000000002;" x1="197.6" x2="427.2" y1="544.7813" y2="544.7813"/><text fill="#000000" font-family="sans-serif" font-size="10.4" font-weight="bold" lengthAdjust="spacing" textLength="20" x="203.2" y="535.168">10.2</text><text fill="#000000" font-family="sans-serif" font-size="10.4" lengthAdjust="spacing" textLength="136" x="226.4" y="529.3586">createSaleLandRequest(land,</text><text fill="#000000" font-family="sans-serif" font-size="10.4" lengthAdjust="spacing" textLength="186.4" x="226.4" y="540.9773">requestedPrice, typeOfBusiness, owner)</text><rect fill="#E3E3E3" height="36.225" rx="2" ry="2" style="stroke:#181818;stroke-width:0.4000000000000001;" width="56.8" x="432" y="516.7438"/><text fill="#000000" font-family="sans-serif" font-size="11.2" lengthAdjust="spacing" textLength="38.4" x="441.2" y="532.4828">request</text><text fill="#000000" font-family="sans-serif" font-size="11.2" lengthAdjust="spacing" textLength="45.6" x="437.6" y="544.9953">:Request</text><path d="M130,572.9688 L182,572.9688 L182,578.1875 L174,586.1875 L130,586.1875 L130,572.9688 " fill="#EEEEEE" style="stroke:#000000;stroke-width:1.2000000000000002;"/><rect fill="none" height="58.2438" style="stroke:#000000;stroke-width:1.2000000000000002;" width="366.8" x="130" y="572.9688"/><text fill="#000000" font-family="sans-serif" font-size="10.4" font-weight="bold" lengthAdjust="spacing" textLength="16" x="142" y="583.1836">opt</text><text fill="#000000" font-family="sans-serif" font-size="8.8" font-weight="bold" lengthAdjust="spacing" textLength="52" x="194" y="582.5352">[apartment]</text><polygon fill="#181818" points="422.4,611.025,430.4,614.225,422.4,617.425,425.6,614.225" style="stroke:#181818;stroke-width:0.8000000000000002;"/><line style="stroke:#181818;stroke-width:0.8000000000000002;" x1="197.6" x2="427.2" y1="614.225" y2="614.225"/><text fill="#000000" font-family="sans-serif" font-size="10.4" font-weight="bold" lengthAdjust="spacing" textLength="20" x="203.2" y="604.6117">10.2</text><text fill="#000000" font-family="sans-serif" font-size="10.4" lengthAdjust="spacing" textLength="188.8" x="226.4" y="598.8023">createSaleApartmentRequest(apartment,</text><text fill="#000000" font-family="sans-serif" font-size="10.4" lengthAdjust="spacing" textLength="186.4" x="226.4" y="610.4211">requestedPrice, typeOfBusiness, owner)</text><rect fill="#E3E3E3" height="36.225" rx="2" ry="2" style="stroke:#181818;stroke-width:0.4000000000000001;" width="56.8" x="432" y="586.1875"/><text fill="#000000" font-family="sans-serif" font-size="11.2" lengthAdjust="spacing" textLength="38.4" x="441.2" y="601.9266">request</text><text fill="#000000" font-family="sans-serif" font-size="11.2" lengthAdjust="spacing" textLength="45.6" x="437.6" y="614.4391">:Request</text><path d="M130,642.4125 L182,642.4125 L182,647.6313 L174,655.6313 L130,655.6313 L130,642.4125 " fill="#EEEEEE" style="stroke:#000000;stroke-width:1.2000000000000002;"/><rect fill="none" height="58.2438" style="stroke:#000000;stroke-width:1.2000000000000002;" width="366.8" x="130" y="642.4125"/><text fill="#000000" font-family="sans-serif" font-size="10.4" font-weight="bold" lengthAdjust="spacing" textLength="16" x="142" y="652.6273">opt</text><text fill="#000000" font-family="sans-serif" font-size="8.8" font-weight="bold" lengthAdjust="spacing" textLength="34.4" x="194" y="651.9789">[House]</text><polygon fill="#181818" points="422.4,680.4688,430.4,683.6688,422.4,686.8688,425.6,683.6688" style="stroke:#181818;stroke-width:0.8000000000000002;"/><line style="stroke:#181818;stroke-width:0.8000000000000002;" x1="197.6" x2="427.2" y1="683.6688" y2="683.6688"/><text fill="#000000" font-family="sans-serif" font-size="10.4" font-weight="bold" lengthAdjust="spacing" textLength="20" x="203.2" y="674.0555">10.2</text><text fill="#000000" font-family="sans-serif" font-size="10.4" lengthAdjust="spacing" textLength="152" x="226.4" y="668.2461">createSaleHouseRequest(house,</text><text fill="#000000" font-family="sans-serif" font-size="10.4" lengthAdjust="spacing" textLength="175.2" x="226.4" y="679.8648">requestPrice, typeOfBusiness, owner)</text><rect fill="#E3E3E3" height="36.225" rx="2" ry="2" style="stroke:#181818;stroke-width:0.4000000000000001;" width="56.8" x="432" y="655.6313"/><text fill="#000000" font-family="sans-serif" font-size="11.2" lengthAdjust="spacing" textLength="38.4" x="441.2" y="671.3703">request</text><text fill="#000000" font-family="sans-serif" font-size="11.2" lengthAdjust="spacing" textLength="45.6" x="437.6" y="683.8828">:Request</text><line style="stroke:#181818;stroke-width:0.8000000000000002;" x1="201.6" x2="235.2" y1="722.675" y2="722.675"/><line style="stroke:#181818;stroke-width:0.8000000000000002;" x1="235.2" x2="235.2" y1="722.675" y2="733.075"/><line style="stroke:#181818;stroke-width:0.8000000000000002;" x1="202.4" x2="235.2" y1="733.075" y2="733.075"/><polygon fill="#181818" points="210.4,729.875,202.4,733.075,210.4,736.275,207.2,733.075" style="stroke:#181818;stroke-width:0.8000000000000002;"/><text fill="#000000" font-family="sans-serif" font-size="10.4" font-weight="bold" lengthAdjust="spacing" textLength="20" x="207.2" y="718.8711">10.3</text><text fill="#000000" font-family="sans-serif" font-size="10.4" lengthAdjust="spacing" textLength="139.2" x="230.4" y="718.8711">addRentRequest(rentRequest)</text><line style="stroke:#181818;stroke-width:0.8000000000000002;" x1="201.6" x2="239.2" y1="751.8938" y2="751.8938"/><line style="stroke:#181818;stroke-width:0.8000000000000002;" x1="239.2" x2="239.2" y1="751.8938" y2="762.2938"/><line style="stroke:#181818;stroke-width:0.8000000000000002;" x1="206.4" x2="239.2" y1="762.2938" y2="762.2938"/><polygon fill="#181818" points="214.4,759.0938,206.4,762.2938,214.4,765.4938,211.2,762.2938" style="stroke:#181818;stroke-width:0.8000000000000002;"/><text fill="#000000" font-family="sans-serif" font-size="10.4" font-weight="bold" lengthAdjust="spacing" textLength="20" x="211.2" y="748.0898">10.4</text><text fill="#000000" font-family="sans-serif" font-size="10.4" lengthAdjust="spacing" textLength="156.8" x="234.4" y="748.0898">validateRentRequest(rentRequest)</text><line style="stroke:#181818;stroke-width:0.8000000000000002;stroke-dasharray:2.0,2.0;" x1="205.6" x2="239.2" y1="793.1125" y2="793.1125"/><line style="stroke:#181818;stroke-width:0.8000000000000002;stroke-dasharray:2.0,2.0;" x1="239.2" x2="239.2" y1="793.1125" y2="803.5125"/><line style="stroke:#181818;stroke-width:0.8000000000000002;stroke-dasharray:2.0,2.0;" x1="201.6" x2="239.2" y1="803.5125" y2="803.5125"/><polygon fill="#181818" points="209.6,800.3125,201.6,803.5125,209.6,806.7125,206.4,803.5125" style="stroke:#181818;stroke-width:0.8000000000000002;"/><text fill="#000000" font-family="sans-serif" font-size="10.4" font-weight="bold" lengthAdjust="spacing" textLength="20" x="211.2" y="789.3086">10.5</text><text fill="#000000" font-family="sans-serif" font-size="10.4" lengthAdjust="spacing" textLength="3.2" x="234.4" y="789.3086">&#160;</text><line style="stroke:#181818;stroke-width:0.8000000000000002;stroke-dasharray:2.0,2.0;" x1="201.6" x2="235.2" y1="826.3313" y2="826.3313"/><line style="stroke:#181818;stroke-width:0.8000000000000002;stroke-dasharray:2.0,2.0;" x1="235.2" x2="235.2" y1="826.3313" y2="836.7313"/><line style="stroke:#181818;stroke-width:0.8000000000000002;stroke-dasharray:2.0,2.0;" x1="197.6" x2="235.2" y1="836.7313" y2="836.7313"/><polygon fill="#181818" points="205.6,833.5313,197.6,836.7313,205.6,839.9313,202.4,836.7313" style="stroke:#181818;stroke-width:0.8000000000000002;"/><text fill="#000000" font-family="sans-serif" font-size="10.4" font-weight="bold" lengthAdjust="spacing" textLength="20" x="207.2" y="822.5273">10.6</text><text fill="#000000" font-family="sans-serif" font-size="10.4" lengthAdjust="spacing" textLength="3.2" x="230.4" y="822.5273">&#160;</text><polygon fill="#181818" points="8.8,857.95,0.8,861.15,8.8,864.35,5.6,861.15" style="stroke:#181818;stroke-width:0.8000000000000002;"/><line style="stroke:#181818;stroke-width:0.8000000000000002;stroke-dasharray:2.0,2.0;" x1="4" x2="192.8" y1="861.15" y2="861.15"/><text fill="#000000" font-family="sans-serif" font-size="10.4" font-weight="bold" lengthAdjust="spacing" textLength="11.2" x="13.6" y="857.3461">11</text><text fill="#000000" font-family="sans-serif" font-size="10.4" lengthAdjust="spacing" textLength="34.4" x="28" y="857.3461">request</text><!--SRC=[xLGzRy8m4DtzAqvC3OAgT4HLfRPBXqgjO6MvnaUmIEpKTa3y-oPHFam2WK0xLAedvtptxZdtdirQo1WrHX0fgVoLLX61rGanKvt4wAyneBdTXGIQV8io2Dq4iqAkja86iCJG46Dfs0fVn2Wj33Hz9MJiZ69bX5Lwjv3JMJCs03JGYXu4gilT8iOmiKecqITfcDpTJbYWLHB3YoQqL6MXRyN62JYzc8ej64nlraGQFxRJf-3doFEqe3Yy4NAfT8HMAEdbQ25ApXWKguK1DV1mw0A-fNKbQ8OnWeKiRa_yGmkVHc1tCRqldnCZ91ap0hMLf3r6QSTz_lSv5Sn-PKJIdii7N49FPNN9geBx0MglAib4Sm6jlBAajCe-73gdoO2pkhgwKqVEtP6RUk_juN5gIgqwxj3W9Oms60hUKE9HMcVsFjB_484JjtODTWrw9tAMa0qqbvFEHDx7mZD7r_yM_hiMxcbZT-owtdijp0uhNs-fJakVJR47XqkjtS_Ul_k0k9DtvJYfeW_ZyO7-KoY4nJhxV0C0]--></g></svg>