<?xml version="1.0" encoding="us-ascii" standalone="no"?><svg xmlns="http://www.w3.org/2000/svg" xmlns:xlink="http://www.w3.org/1999/xlink" contentStyleType="text/css" height="1141.6px" preserveAspectRatio="none" style="width:1226px;height:1141px;background:#FFFFFF;" version="1.1" viewBox="0 0 1226 1141" width="1226.4px" zoomAndPan="magnify"><defs/><g><rect fill="#FFFFFF" height="991.2625" style="stroke:#181818;stroke-width:0.8000000000000002;" width="8" x="67.6" y="72.5125"/><rect fill="#FFFFFF" height="55.3313" style="stroke:#181818;stroke-width:0.8000000000000002;" width="8" x="322.8" y="88.9313"/><rect fill="#FFFFFF" height="22.8188" style="stroke:#181818;stroke-width:0.8000000000000002;" width="8" x="322.8" y="167.0813"/><rect fill="#FFFFFF" height="851.0563" style="stroke:#181818;stroke-width:0.8000000000000002;" width="8" x="322.8" y="212.7188"/><rect fill="#FFFFFF" height="805.4188" style="stroke:#181818;stroke-width:0.8000000000000002;" width="8" x="468" y="235.5375"/><rect fill="#FFFFFF" height="76.6875" style="stroke:#181818;stroke-width:0.8000000000000002;" width="8" x="472" y="264.7563"/><rect fill="#FFFFFF" height="76.6875" style="stroke:#181818;stroke-width:0.8000000000000002;" width="8" x="472" y="376.2625"/><rect fill="#FFFFFF" height="76.6875" style="stroke:#181818;stroke-width:0.8000000000000002;" width="8" x="472" y="487.7688"/><rect fill="#FFFFFF" height="413.2625" style="stroke:#181818;stroke-width:0.8000000000000002;" width="8" x="472" y="599.275"/><rect fill="#FFFFFF" height="67.8875" style="stroke:#181818;stroke-width:0.8000000000000002;" width="8" x="772.8" y="644.9125"/><rect fill="#FFFFFF" height="67.8875" style="stroke:#181818;stroke-width:0.8000000000000002;" width="8" x="892.4" y="735.6188"/><rect fill="#FFFFFF" height="67.8875" style="stroke:#181818;stroke-width:0.8000000000000002;" width="8" x="1028.4" y="826.325"/><rect fill="#FFFFFF" height="67.8875" style="stroke:#181818;stroke-width:0.8000000000000002;" width="8" x="1162" y="917.0313"/><line style="stroke:#181818;stroke-width:0.4000000000000001;stroke-dasharray:5.0,5.0;" x1="71.2" x2="71.2" y1="64.5125" y2="1078.175"/><line style="stroke:#181818;stroke-width:0.4000000000000001;stroke-dasharray:5.0,5.0;" x1="326.4" x2="326.4" y1="64.5125" y2="1078.175"/><line style="stroke:#181818;stroke-width:0.4000000000000001;stroke-dasharray:5.0,5.0;" x1="471.6" x2="471.6" y1="119.5875" y2="1078.175"/><line style="stroke:#181818;stroke-width:0.4000000000000001;stroke-dasharray:5.0,5.0;" x1="776.8" x2="776.8" y1="64.5125" y2="1078.175"/><line style="stroke:#181818;stroke-width:0.4000000000000001;stroke-dasharray:5.0,5.0;" x1="896" x2="896" y1="64.5125" y2="1078.175"/><line style="stroke:#181818;stroke-width:0.4000000000000001;stroke-dasharray:5.0,5.0;" x1="1032" x2="1032" y1="64.5125" y2="1078.175"/><line style="stroke:#181818;stroke-width:0.4000000000000001;stroke-dasharray:5.0,5.0;" x1="1165.6" x2="1165.6" y1="64.5125" y2="1078.175"/><text fill="#000000" font-family="sans-serif" font-size="11.2" lengthAdjust="spacing" textLength="106.4" x="16" y="62.1391">System Administrator</text><ellipse cx="71.6" cy="10.8" fill="#E3E3E3" rx="6.4" ry="6.4" style="stroke:#181818;stroke-width:0.4000000000000001;"/><path d="M71.6,17.2 L71.6,38.8 M61.2,23.6 L82,23.6 M71.6,38.8 L61.2,50.8 M71.6,38.8 L82,50.8 " fill="none" style="stroke:#181818;stroke-width:0.4000000000000001;"/><text fill="#000000" font-family="sans-serif" font-size="11.2" lengthAdjust="spacing" textLength="106.4" x="16" y="1087.5141">System Administrator</text><ellipse cx="71.6" cy="1096.6875" fill="#E3E3E3" rx="6.4" ry="6.4" style="stroke:#181818;stroke-width:0.4000000000000001;"/><path d="M71.6,1103.0875 L71.6,1124.6875 M61.2,1109.4875 L82,1109.4875 M71.6,1124.6875 L61.2,1136.6875 M71.6,1124.6875 L82,1136.6875 " fill="none" style="stroke:#181818;stroke-width:0.4000000000000001;"/><rect fill="#E3E3E3" height="23.7125" rx="2" ry="2" style="stroke:#181818;stroke-width:0.4000000000000001;" width="111.2" x="271.2" y="40"/><text fill="#000000" font-family="sans-serif" font-size="11.2" lengthAdjust="spacing" textLength="100" x="276.8" y="55.7391">:ImportInformationUI</text><rect fill="#E3E3E3" height="23.7125" rx="2" ry="2" style="stroke:#181818;stroke-width:0.4000000000000001;" width="111.2" x="271.2" y="1077.375"/><text fill="#000000" font-family="sans-serif" font-size="11.2" lengthAdjust="spacing" textLength="100" x="276.8" y="1093.1141">:ImportInformationUI</text><rect fill="#E3E3E3" height="23.7125" rx="2" ry="2" style="stroke:#181818;stroke-width:0.4000000000000001;" width="151.2" x="396.4" y="1077.375"/><text fill="#000000" font-family="sans-serif" font-size="11.2" lengthAdjust="spacing" textLength="140" x="402" y="1093.1141">:ImportInformationController</text><rect fill="#E3E3E3" height="36.225" rx="2" ry="2" style="stroke:#181818;stroke-width:0.4000000000000001;" width="112" x="720.8" y="27.4875"/><text fill="#000000" font-family="sans-serif" font-size="11.2" lengthAdjust="spacing" textLength="96.8" x="728.4" y="43.2266">propertyRepository</text><text fill="#000000" font-family="sans-serif" font-size="11.2" lengthAdjust="spacing" textLength="100.8" x="726.4" y="55.7391">:PropertyRepository</text><rect fill="#E3E3E3" height="36.225" rx="2" ry="2" style="stroke:#181818;stroke-width:0.4000000000000001;" width="112" x="720.8" y="1077.375"/><text fill="#000000" font-family="sans-serif" font-size="11.2" lengthAdjust="spacing" textLength="96.8" x="728.4" y="1093.1141">propertyRepository</text><text fill="#000000" font-family="sans-serif" font-size="11.2" lengthAdjust="spacing" textLength="100.8" x="726.4" y="1105.6266">:PropertyRepository</text><rect fill="#E3E3E3" height="36.225" rx="2" ry="2" style="stroke:#181818;stroke-width:0.4000000000000001;" width="111.2" x="840.8" y="27.4875"/><text fill="#000000" font-family="sans-serif" font-size="11.2" lengthAdjust="spacing" textLength="92.8" x="850" y="43.2266">requestRepository</text><text fill="#000000" font-family="sans-serif" font-size="11.2" lengthAdjust="spacing" textLength="100" x="846.4" y="55.7391">:RequestRepository</text><rect fill="#E3E3E3" height="36.225" rx="2" ry="2" style="stroke:#181818;stroke-width:0.4000000000000001;" width="111.2" x="840.8" y="1077.375"/><text fill="#000000" font-family="sans-serif" font-size="11.2" lengthAdjust="spacing" textLength="92.8" x="850" y="1093.1141">requestRepository</text><text fill="#000000" font-family="sans-serif" font-size="11.2" lengthAdjust="spacing" textLength="100" x="846.4" y="1105.6266">:RequestRepository</text><rect fill="#E3E3E3" height="36.225" rx="2" ry="2" style="stroke:#181818;stroke-width:0.4000000000000001;" width="144.8" x="960" y="27.4875"/><text fill="#000000" font-family="sans-serif" font-size="11.2" lengthAdjust="spacing" textLength="129.6" x="967.6" y="43.2266">announcementRepository</text><text fill="#000000" font-family="sans-serif" font-size="11.2" lengthAdjust="spacing" textLength="133.6" x="965.6" y="55.7391">:AnnouncementRepository</text><rect fill="#E3E3E3" height="36.225" rx="2" ry="2" style="stroke:#181818;stroke-width:0.4000000000000001;" width="144.8" x="960" y="1077.375"/><text fill="#000000" font-family="sans-serif" font-size="11.2" lengthAdjust="spacing" textLength="129.6" x="967.6" y="1093.1141">announcementRepository</text><text fill="#000000" font-family="sans-serif" font-size="11.2" lengthAdjust="spacing" textLength="133.6" x="965.6" y="1105.6266">:AnnouncementRepository</text><rect fill="#E3E3E3" height="36.225" rx="2" ry="2" style="stroke:#181818;stroke-width:0.4000000000000001;" width="106.4" x="1112.8" y="27.4875"/><text fill="#000000" font-family="sans-serif" font-size="11.2" lengthAdjust="spacing" textLength="91.2" x="1120.4" y="43.2266">agencyRepository</text><text fill="#000000" font-family="sans-serif" font-size="11.2" lengthAdjust="spacing" textLength="95.2" x="1118.4" y="55.7391">:AgencyRepository</text><rect fill="#E3E3E3" height="36.225" rx="2" ry="2" style="stroke:#181818;stroke-width:0.4000000000000001;" width="106.4" x="1112.8" y="1077.375"/><text fill="#000000" font-family="sans-serif" font-size="11.2" lengthAdjust="spacing" textLength="91.2" x="1120.4" y="1093.1141">agencyRepository</text><text fill="#000000" font-family="sans-serif" font-size="11.2" lengthAdjust="spacing" textLength="95.2" x="1118.4" y="1105.6266">:AgencyRepository</text><rect fill="#FFFFFF" height="991.2625" style="stroke:#181818;stroke-width:0.8000000000000002;" width="8" x="67.6" y="72.5125"/><rect fill="#FFFFFF" height="55.3313" style="stroke:#181818;stroke-width:0.8000000000000002;" width="8" x="322.8" y="88.9313"/><rect fill="#FFFFFF" height="22.8188" style="stroke:#181818;stroke-width:0.8000000000000002;" width="8" x="322.8" y="167.0813"/><rect fill="#FFFFFF" height="851.0563" style="stroke:#181818;stroke-width:0.8000000000000002;" width="8" x="322.8" y="212.7188"/><rect fill="#FFFFFF" height="805.4188" style="stroke:#181818;stroke-width:0.8000000000000002;" width="8" x="468" y="235.5375"/><rect fill="#FFFFFF" height="76.6875" style="stroke:#181818;stroke-width:0.8000000000000002;" width="8" x="472" y="264.7563"/><rect fill="#FFFFFF" height="76.6875" style="stroke:#181818;stroke-width:0.8000000000000002;" width="8" x="472" y="376.2625"/><rect fill="#FFFFFF" height="76.6875" style="stroke:#181818;stroke-width:0.8000000000000002;" width="8" x="472" y="487.7688"/><rect fill="#FFFFFF" height="413.2625" style="stroke:#181818;stroke-width:0.8000000000000002;" width="8" x="472" y="599.275"/><rect fill="#FFFFFF" height="67.8875" style="stroke:#181818;stroke-width:0.8000000000000002;" width="8" x="772.8" y="644.9125"/><rect fill="#FFFFFF" height="67.8875" style="stroke:#181818;stroke-width:0.8000000000000002;" width="8" x="892.4" y="735.6188"/><rect fill="#FFFFFF" height="67.8875" style="stroke:#181818;stroke-width:0.8000000000000002;" width="8" x="1028.4" y="826.325"/><rect fill="#FFFFFF" height="67.8875" style="stroke:#181818;stroke-width:0.8000000000000002;" width="8" x="1162" y="917.0313"/><polygon fill="#181818" points="313.2,85.7313,321.2,88.9313,313.2,92.1313,316.4,88.9313" style="stroke:#181818;stroke-width:0.8000000000000002;"/><line style="stroke:#181818;stroke-width:0.8000000000000002;" x1="75.6" x2="318" y1="88.9313" y2="88.9313"/><text fill="#000000" font-family="sans-serif" font-size="10.4" font-weight="bold" lengthAdjust="spacing" textLength="5.6" x="81.2" y="85.1273">1</text><text fill="#000000" font-family="sans-serif" font-size="10.4" lengthAdjust="spacing" textLength="223.2" x="90" y="85.1273">asks to import information from a legacy system</text><polygon fill="#181818" points="386.8,108.55,394.8,111.75,386.8,114.95,390,111.75" style="stroke:#181818;stroke-width:0.8000000000000002;"/><line style="stroke:#181818;stroke-width:0.8000000000000002;" x1="330.8" x2="391.6" y1="111.75" y2="111.75"/><text fill="#000000" font-family="sans-serif" font-size="10.4" font-weight="bold" lengthAdjust="spacing" textLength="14.4" x="336.4" y="107.9461">1.1</text><text fill="#000000" font-family="sans-serif" font-size="10.4" lengthAdjust="spacing" textLength="28.8" x="354" y="107.9461">import</text><rect fill="#E3E3E3" height="23.7125" rx="2" ry="2" style="stroke:#181818;stroke-width:0.4000000000000001;" width="151.2" x="396.4" y="95.3313"/><text fill="#000000" font-family="sans-serif" font-size="11.2" lengthAdjust="spacing" textLength="140" x="402" y="111.0703">:ImportInformationController</text><polygon fill="#181818" points="84.4,141.0625,76.4,144.2625,84.4,147.4625,81.2,144.2625" style="stroke:#181818;stroke-width:0.8000000000000002;"/><line style="stroke:#181818;stroke-width:0.8000000000000002;stroke-dasharray:2.0,2.0;" x1="79.6" x2="326" y1="144.2625" y2="144.2625"/><text fill="#000000" font-family="sans-serif" font-size="10.4" font-weight="bold" lengthAdjust="spacing" textLength="5.6" x="89.2" y="140.4586">2</text><text fill="#000000" font-family="sans-serif" font-size="10.4" lengthAdjust="spacing" textLength="63.2" x="98" y="140.4586">requests data</text><polygon fill="#181818" points="313.2,163.8813,321.2,167.0813,313.2,170.2813,316.4,167.0813" style="stroke:#181818;stroke-width:0.8000000000000002;"/><line style="stroke:#181818;stroke-width:0.8000000000000002;" x1="75.6" x2="318" y1="167.0813" y2="167.0813"/><text fill="#000000" font-family="sans-serif" font-size="10.4" font-weight="bold" lengthAdjust="spacing" textLength="5.6" x="81.2" y="163.2773">3</text><text fill="#000000" font-family="sans-serif" font-size="10.4" lengthAdjust="spacing" textLength="147.2" x="90" y="163.2773">types requested data (fileName)</text><polygon fill="#181818" points="84.4,186.7,76.4,189.9,84.4,193.1,81.2,189.9" style="stroke:#181818;stroke-width:0.8000000000000002;"/><line style="stroke:#181818;stroke-width:0.8000000000000002;stroke-dasharray:2.0,2.0;" x1="79.6" x2="326" y1="189.9" y2="189.9"/><text fill="#000000" font-family="sans-serif" font-size="10.4" font-weight="bold" lengthAdjust="spacing" textLength="5.6" x="89.2" y="186.0961">4</text><text fill="#000000" font-family="sans-serif" font-size="10.4" lengthAdjust="spacing" textLength="212.8" x="98" y="186.0961">shows selected data and asks to confirm data</text><polygon fill="#181818" points="313.2,209.5188,321.2,212.7188,313.2,215.9188,316.4,212.7188" style="stroke:#181818;stroke-width:0.8000000000000002;"/><line style="stroke:#181818;stroke-width:0.8000000000000002;" x1="75.6" x2="318" y1="212.7188" y2="212.7188"/><text fill="#000000" font-family="sans-serif" font-size="10.4" font-weight="bold" lengthAdjust="spacing" textLength="5.6" x="81.2" y="208.9148">5</text><text fill="#000000" font-family="sans-serif" font-size="10.4" lengthAdjust="spacing" textLength="62.4" x="90" y="208.9148">confirms data</text><polygon fill="#181818" points="458.4,232.3375,466.4,235.5375,458.4,238.7375,461.6,235.5375" style="stroke:#181818;stroke-width:0.8000000000000002;"/><line style="stroke:#181818;stroke-width:0.8000000000000002;" x1="330.8" x2="463.2" y1="235.5375" y2="235.5375"/><text fill="#000000" font-family="sans-serif" font-size="10.4" font-weight="bold" lengthAdjust="spacing" textLength="14.4" x="336.4" y="231.7336">5.1</text><text fill="#000000" font-family="sans-serif" font-size="10.4" lengthAdjust="spacing" textLength="83.2" x="354" y="231.7336">readFile(fileName)</text><line style="stroke:#181818;stroke-width:0.8000000000000002;" x1="476" x2="513.6" y1="254.3563" y2="254.3563"/><line style="stroke:#181818;stroke-width:0.8000000000000002;" x1="513.6" x2="513.6" y1="254.3563" y2="264.7563"/><line style="stroke:#181818;stroke-width:0.8000000000000002;" x1="480.8" x2="513.6" y1="264.7563" y2="264.7563"/><polygon fill="#181818" points="488.8,261.5563,480.8,264.7563,488.8,267.9563,485.6,264.7563" style="stroke:#181818;stroke-width:0.8000000000000002;"/><text fill="#000000" font-family="sans-serif" font-size="10.4" font-weight="bold" lengthAdjust="spacing" textLength="14.4" x="485.6" y="250.5523">5.2</text><text fill="#000000" font-family="sans-serif" font-size="10.4" lengthAdjust="spacing" textLength="240" x="503.2" y="250.5523">getPropertyTypeByName(String propertyTypeName)</text><rect fill="none" height="41.0688" style="stroke:#000000;stroke-width:1.2000000000000002;" width="156" x="394" y="275.1563"/><path d="M394,275.1563 L443.6,275.1563 L443.6,279.9563 L435.6,287.9563 L394,287.9563 L394,275.1563 " fill="#EEEEEE" style="stroke:#000000;stroke-width:1.6000000000000003;"/><text fill="#000000" font-family="sans-serif" font-size="10.4" font-weight="bold" lengthAdjust="spacing" textLength="13.6" x="404.4" y="286.1711">ref</text><text fill="#000000" font-family="sans-serif" font-size="9.6" lengthAdjust="spacing" textLength="76.8" x="433.6" y="299.8469">Get Property Type</text><text fill="#000000" font-family="sans-serif" font-size="9.6" lengthAdjust="spacing" textLength="2.4" x="470.8" y="310.5719">&#160;</text><line style="stroke:#181818;stroke-width:0.8000000000000002;stroke-dasharray:2.0,2.0;" x1="480" x2="513.6" y1="340.6438" y2="340.6438"/><line style="stroke:#181818;stroke-width:0.8000000000000002;stroke-dasharray:2.0,2.0;" x1="513.6" x2="513.6" y1="340.6438" y2="351.0438"/><line style="stroke:#181818;stroke-width:0.8000000000000002;stroke-dasharray:2.0,2.0;" x1="476" x2="513.6" y1="351.0438" y2="351.0438"/><polygon fill="#181818" points="484,347.8438,476,351.0438,484,354.2438,480.8,351.0438" style="stroke:#181818;stroke-width:0.8000000000000002;"/><text fill="#000000" font-family="sans-serif" font-size="10.4" font-weight="bold" lengthAdjust="spacing" textLength="14.4" x="485.6" y="336.8398">5.3</text><text fill="#000000" font-family="sans-serif" font-size="10.4" lengthAdjust="spacing" textLength="60" x="503.2" y="336.8398">propertyType</text><line style="stroke:#181818;stroke-width:0.8000000000000002;" x1="476" x2="513.6" y1="365.8625" y2="365.8625"/><line style="stroke:#181818;stroke-width:0.8000000000000002;" x1="513.6" x2="513.6" y1="365.8625" y2="376.2625"/><line style="stroke:#181818;stroke-width:0.8000000000000002;" x1="480.8" x2="513.6" y1="376.2625" y2="376.2625"/><polygon fill="#181818" points="488.8,373.0625,480.8,376.2625,488.8,379.4625,485.6,376.2625" style="stroke:#181818;stroke-width:0.8000000000000002;"/><text fill="#000000" font-family="sans-serif" font-size="10.4" font-weight="bold" lengthAdjust="spacing" textLength="14.4" x="485.6" y="362.0586">5.4</text><text fill="#000000" font-family="sans-serif" font-size="10.4" lengthAdjust="spacing" textLength="268" x="503.2" y="362.0586">getTypeOfBusinessByName(String typeOfBusinessName)</text><rect fill="none" height="41.0688" style="stroke:#000000;stroke-width:1.2000000000000002;" width="156" x="394" y="386.6625"/><path d="M394,386.6625 L443.6,386.6625 L443.6,391.4625 L435.6,399.4625 L394,399.4625 L394,386.6625 " fill="#EEEEEE" style="stroke:#000000;stroke-width:1.6000000000000003;"/><text fill="#000000" font-family="sans-serif" font-size="10.4" font-weight="bold" lengthAdjust="spacing" textLength="13.6" x="404.4" y="397.6773">ref</text><text fill="#000000" font-family="sans-serif" font-size="9.6" lengthAdjust="spacing" textLength="83.2" x="430.4" y="411.3531">Get Type Business</text><text fill="#000000" font-family="sans-serif" font-size="9.6" lengthAdjust="spacing" textLength="2.4" x="470.8" y="422.0781">&#160;</text><line style="stroke:#181818;stroke-width:0.8000000000000002;stroke-dasharray:2.0,2.0;" x1="480" x2="513.6" y1="452.15" y2="452.15"/><line style="stroke:#181818;stroke-width:0.8000000000000002;stroke-dasharray:2.0,2.0;" x1="513.6" x2="513.6" y1="452.15" y2="462.55"/><line style="stroke:#181818;stroke-width:0.8000000000000002;stroke-dasharray:2.0,2.0;" x1="476" x2="513.6" y1="462.55" y2="462.55"/><polygon fill="#181818" points="484,459.35,476,462.55,484,465.75,480.8,462.55" style="stroke:#181818;stroke-width:0.8000000000000002;"/><text fill="#000000" font-family="sans-serif" font-size="10.4" font-weight="bold" lengthAdjust="spacing" textLength="14.4" x="485.6" y="448.3461">5.5</text><text fill="#000000" font-family="sans-serif" font-size="10.4" lengthAdjust="spacing" textLength="63.2" x="503.2" y="448.3461">typeBusiness</text><line style="stroke:#181818;stroke-width:0.8000000000000002;" x1="476" x2="513.6" y1="477.3688" y2="477.3688"/><line style="stroke:#181818;stroke-width:0.8000000000000002;" x1="513.6" x2="513.6" y1="477.3688" y2="487.7688"/><line style="stroke:#181818;stroke-width:0.8000000000000002;" x1="480.8" x2="513.6" y1="487.7688" y2="487.7688"/><polygon fill="#181818" points="488.8,484.5688,480.8,487.7688,488.8,490.9688,485.6,487.7688" style="stroke:#181818;stroke-width:0.8000000000000002;"/><text fill="#000000" font-family="sans-serif" font-size="10.4" font-weight="bold" lengthAdjust="spacing" textLength="14.4" x="485.6" y="473.5648">5.6</text><text fill="#000000" font-family="sans-serif" font-size="10.4" lengthAdjust="spacing" textLength="144" x="503.2" y="473.5648">getAdministratorFromSession()</text><rect fill="none" height="41.0688" style="stroke:#000000;stroke-width:1.2000000000000002;" width="156" x="394" y="498.1688"/><path d="M394,498.1688 L443.6,498.1688 L443.6,502.9688 L435.6,510.9688 L394,510.9688 L394,498.1688 " fill="#EEEEEE" style="stroke:#000000;stroke-width:1.6000000000000003;"/><text fill="#000000" font-family="sans-serif" font-size="10.4" font-weight="bold" lengthAdjust="spacing" textLength="13.6" x="404.4" y="509.1836">ref</text><text fill="#000000" font-family="sans-serif" font-size="9.6" lengthAdjust="spacing" textLength="76" x="434" y="522.8594">Get Administrator</text><text fill="#000000" font-family="sans-serif" font-size="9.6" lengthAdjust="spacing" textLength="2.4" x="470.8" y="533.5844">&#160;</text><line style="stroke:#181818;stroke-width:0.8000000000000002;" x1="480" x2="513.6" y1="563.6563" y2="563.6563"/><line style="stroke:#181818;stroke-width:0.8000000000000002;" x1="513.6" x2="513.6" y1="563.6563" y2="574.0563"/><line style="stroke:#181818;stroke-width:0.8000000000000002;" x1="476" x2="513.6" y1="574.0563" y2="574.0563"/><polygon fill="#181818" points="484,570.8563,476,574.0563,484,577.2563,480.8,574.0563" style="stroke:#181818;stroke-width:0.8000000000000002;"/><text fill="#000000" font-family="sans-serif" font-size="10.4" font-weight="bold" lengthAdjust="spacing" textLength="14.4" x="485.6" y="559.8523">5.7</text><text fill="#000000" font-family="sans-serif" font-size="10.4" lengthAdjust="spacing" textLength="60" x="503.2" y="559.8523">administrator</text><line style="stroke:#181818;stroke-width:0.8000000000000002;" x1="476" x2="513.6" y1="588.875" y2="588.875"/><line style="stroke:#181818;stroke-width:0.8000000000000002;" x1="513.6" x2="513.6" y1="588.875" y2="599.275"/><line style="stroke:#181818;stroke-width:0.8000000000000002;" x1="480.8" x2="513.6" y1="599.275" y2="599.275"/><polygon fill="#181818" points="488.8,596.075,480.8,599.275,488.8,602.475,485.6,599.275" style="stroke:#181818;stroke-width:0.8000000000000002;"/><text fill="#000000" font-family="sans-serif" font-size="10.4" font-weight="bold" lengthAdjust="spacing" textLength="14.4" x="485.6" y="585.0711">5.8</text><text fill="#000000" font-family="sans-serif" font-size="10.4" lengthAdjust="spacing" textLength="83.2" x="503.2" y="585.0711">readFile(fileName)</text><polygon fill="#181818" points="763.2,641.7125,771.2,644.9125,763.2,648.1125,766.4,644.9125" style="stroke:#181818;stroke-width:0.8000000000000002;"/><line style="stroke:#181818;stroke-width:0.8000000000000002;" x1="480" x2="768" y1="644.9125" y2="644.9125"/><text fill="#000000" font-family="sans-serif" font-size="10.4" font-weight="bold" lengthAdjust="spacing" textLength="14.4" x="485.6" y="641.1086">5.9</text><text fill="#000000" font-family="sans-serif" font-size="10.4" lengthAdjust="spacing" textLength="124.8" x="503.2" y="641.1086">createProperty(information)</text><rect fill="none" height="41.0688" style="stroke:#000000;stroke-width:1.2000000000000002;" width="116.8" x="718.4" y="651.3125"/><path d="M718.4,651.3125 L768,651.3125 L768,656.1125 L760,664.1125 L718.4,664.1125 L718.4,651.3125 " fill="#EEEEEE" style="stroke:#000000;stroke-width:1.6000000000000003;"/><text fill="#000000" font-family="sans-serif" font-size="10.4" font-weight="bold" lengthAdjust="spacing" textLength="13.6" x="728.8" y="662.3273">ref</text><text fill="#000000" font-family="sans-serif" font-size="9.6" lengthAdjust="spacing" textLength="68" x="742.8" y="676.0031">Create Property</text><text fill="#000000" font-family="sans-serif" font-size="9.6" lengthAdjust="spacing" textLength="2.4" x="775.6" y="686.7281">&#160;</text><polygon fill="#181818" points="488.8,709.6,480.8,712.8,488.8,716,485.6,712.8" style="stroke:#181818;stroke-width:0.8000000000000002;"/><line style="stroke:#181818;stroke-width:0.8000000000000002;stroke-dasharray:2.0,2.0;" x1="484" x2="776" y1="712.8" y2="712.8"/><text fill="#000000" font-family="sans-serif" font-size="10.4" font-weight="bold" lengthAdjust="spacing" textLength="20" x="493.6" y="708.9961">5.10</text><text fill="#000000" font-family="sans-serif" font-size="10.4" lengthAdjust="spacing" textLength="37.6" x="516.8" y="708.9961">property</text><polygon fill="#181818" points="882.8,732.4188,890.8,735.6188,882.8,738.8188,886,735.6188" style="stroke:#181818;stroke-width:0.8000000000000002;"/><line style="stroke:#181818;stroke-width:0.8000000000000002;" x1="480" x2="887.6" y1="735.6188" y2="735.6188"/><text fill="#000000" font-family="sans-serif" font-size="10.4" font-weight="bold" lengthAdjust="spacing" textLength="20" x="485.6" y="731.8148">5.11</text><text fill="#000000" font-family="sans-serif" font-size="10.4" lengthAdjust="spacing" textLength="124" x="508.8" y="731.8148">createRequest(information)</text><rect fill="none" height="41.0688" style="stroke:#000000;stroke-width:1.2000000000000002;" width="116" x="838.4" y="742.0188"/><path d="M838.4,742.0188 L888,742.0188 L888,746.8188 L880,754.8188 L838.4,754.8188 L838.4,742.0188 " fill="#EEEEEE" style="stroke:#000000;stroke-width:1.6000000000000003;"/><text fill="#000000" font-family="sans-serif" font-size="10.4" font-weight="bold" lengthAdjust="spacing" textLength="13.6" x="848.8" y="753.0336">ref</text><text fill="#000000" font-family="sans-serif" font-size="9.6" lengthAdjust="spacing" textLength="69.6" x="861.6" y="766.7094">Create Request</text><text fill="#000000" font-family="sans-serif" font-size="9.6" lengthAdjust="spacing" textLength="2.4" x="895.2" y="777.4344">&#160;</text><polygon fill="#181818" points="488.8,800.3063,480.8,803.5063,488.8,806.7063,485.6,803.5063" style="stroke:#181818;stroke-width:0.8000000000000002;"/><line style="stroke:#181818;stroke-width:0.8000000000000002;stroke-dasharray:2.0,2.0;" x1="484" x2="895.6" y1="803.5063" y2="803.5063"/><text fill="#000000" font-family="sans-serif" font-size="10.4" font-weight="bold" lengthAdjust="spacing" textLength="20" x="493.6" y="799.7023">5.12</text><text fill="#000000" font-family="sans-serif" font-size="10.4" lengthAdjust="spacing" textLength="34.4" x="516.8" y="799.7023">request</text><polygon fill="#181818" points="1018.8,823.125,1026.8,826.325,1018.8,829.525,1022,826.325" style="stroke:#181818;stroke-width:0.8000000000000002;"/><line style="stroke:#181818;stroke-width:0.8000000000000002;" x1="480" x2="1023.6" y1="826.325" y2="826.325"/><text fill="#000000" font-family="sans-serif" font-size="10.4" font-weight="bold" lengthAdjust="spacing" textLength="20" x="485.6" y="822.5211">5.13</text><text fill="#000000" font-family="sans-serif" font-size="10.4" lengthAdjust="spacing" textLength="155.2" x="508.8" y="822.5211">createAnnouncement(information)</text><rect fill="none" height="41.0688" style="stroke:#000000;stroke-width:1.2000000000000002;" width="149.6" x="957.6" y="832.725"/><path d="M957.6,832.725 L1007.2,832.725 L1007.2,837.525 L999.2,845.525 L957.6,845.525 L957.6,832.725 " fill="#EEEEEE" style="stroke:#000000;stroke-width:1.6000000000000003;"/><text fill="#000000" font-family="sans-serif" font-size="10.4" font-weight="bold" lengthAdjust="spacing" textLength="13.6" x="968" y="843.7398">ref</text><text fill="#000000" font-family="sans-serif" font-size="9.6" lengthAdjust="spacing" textLength="98.4" x="983.2" y="857.4156">Create Announcement</text><text fill="#000000" font-family="sans-serif" font-size="9.6" lengthAdjust="spacing" textLength="2.4" x="1031.2" y="868.1406">&#160;</text><polygon fill="#181818" points="488.8,891.0125,480.8,894.2125,488.8,897.4125,485.6,894.2125" style="stroke:#181818;stroke-width:0.8000000000000002;"/><line style="stroke:#181818;stroke-width:0.8000000000000002;stroke-dasharray:2.0,2.0;" x1="484" x2="1031.6" y1="894.2125" y2="894.2125"/><text fill="#000000" font-family="sans-serif" font-size="10.4" font-weight="bold" lengthAdjust="spacing" textLength="20" x="493.6" y="890.4086">5.14</text><text fill="#000000" font-family="sans-serif" font-size="10.4" lengthAdjust="spacing" textLength="68" x="516.8" y="890.4086">announcement</text><polygon fill="#181818" points="1152.4,913.8313,1160.4,917.0313,1152.4,920.2313,1155.6,917.0313" style="stroke:#181818;stroke-width:0.8000000000000002;"/><line style="stroke:#181818;stroke-width:0.8000000000000002;" x1="480" x2="1157.2" y1="917.0313" y2="917.0313"/><text fill="#000000" font-family="sans-serif" font-size="10.4" font-weight="bold" lengthAdjust="spacing" textLength="20" x="485.6" y="913.2273">5.15</text><text fill="#000000" font-family="sans-serif" font-size="10.4" lengthAdjust="spacing" textLength="120.8" x="508.8" y="913.2273">createAgency(information)</text><rect fill="none" height="41.0688" style="stroke:#000000;stroke-width:1.2000000000000002;" width="111.2" x="1110.4" y="923.4313"/><path d="M1110.4,923.4313 L1160,923.4313 L1160,928.2313 L1152,936.2313 L1110.4,936.2313 L1110.4,923.4313 " fill="#EEEEEE" style="stroke:#000000;stroke-width:1.6000000000000003;"/><text fill="#000000" font-family="sans-serif" font-size="10.4" font-weight="bold" lengthAdjust="spacing" textLength="13.6" x="1120.8" y="934.4461">ref</text><text fill="#000000" font-family="sans-serif" font-size="9.6" lengthAdjust="spacing" textLength="63.2" x="1134.4" y="948.1219">Create Agency</text><text fill="#000000" font-family="sans-serif" font-size="9.6" lengthAdjust="spacing" textLength="2.4" x="1164.8" y="958.8469">&#160;</text><polygon fill="#181818" points="488.8,981.7188,480.8,984.9188,488.8,988.1188,485.6,984.9188" style="stroke:#181818;stroke-width:0.8000000000000002;"/><line style="stroke:#181818;stroke-width:0.8000000000000002;stroke-dasharray:2.0,2.0;" x1="484" x2="1165.2" y1="984.9188" y2="984.9188"/><text fill="#000000" font-family="sans-serif" font-size="10.4" font-weight="bold" lengthAdjust="spacing" textLength="20" x="493.6" y="981.1148">5.16</text><text fill="#000000" font-family="sans-serif" font-size="10.4" lengthAdjust="spacing" textLength="33.6" x="516.8" y="981.1148">agency</text><line style="stroke:#181818;stroke-width:0.8000000000000002;stroke-dasharray:2.0,2.0;" x1="480" x2="513.6" y1="1011.7375" y2="1011.7375"/><line style="stroke:#181818;stroke-width:0.8000000000000002;stroke-dasharray:2.0,2.0;" x1="513.6" x2="513.6" y1="1011.7375" y2="1022.1375"/><line style="stroke:#181818;stroke-width:0.8000000000000002;stroke-dasharray:2.0,2.0;" x1="476" x2="513.6" y1="1022.1375" y2="1022.1375"/><polygon fill="#181818" points="484,1018.9375,476,1022.1375,484,1025.3375,480.8,1022.1375" style="stroke:#181818;stroke-width:0.8000000000000002;"/><text fill="#000000" font-family="sans-serif" font-size="10.4" font-weight="bold" lengthAdjust="spacing" textLength="20" x="485.6" y="1007.9336">5.17</text><text fill="#000000" font-family="sans-serif" font-size="10.4" lengthAdjust="spacing" textLength="3.2" x="508.8" y="1007.9336">&#160;</text><polygon fill="#181818" points="339.6,1037.7563,331.6,1040.9563,339.6,1044.1563,336.4,1040.9563" style="stroke:#181818;stroke-width:0.8000000000000002;"/><line style="stroke:#181818;stroke-width:0.8000000000000002;stroke-dasharray:2.0,2.0;" x1="334.8" x2="471.2" y1="1040.9563" y2="1040.9563"/><text fill="#000000" font-family="sans-serif" font-size="10.4" font-weight="bold" lengthAdjust="spacing" textLength="20" x="344.4" y="1037.1523">5.18</text><text fill="#000000" font-family="sans-serif" font-size="10.4" lengthAdjust="spacing" textLength="3.2" x="367.6" y="1037.1523">&#160;</text><polygon fill="#181818" points="80.4,1060.575,72.4,1063.775,80.4,1066.975,77.2,1063.775" style="stroke:#181818;stroke-width:0.8000000000000002;"/><line style="stroke:#181818;stroke-width:0.8000000000000002;stroke-dasharray:2.0,2.0;" x1="75.6" x2="326" y1="1063.775" y2="1063.775"/><text fill="#000000" font-family="sans-serif" font-size="10.4" font-weight="bold" lengthAdjust="spacing" textLength="5.6" x="85.2" y="1059.9711">6</text><text fill="#000000" font-family="sans-serif" font-size="10.4" lengthAdjust="spacing" textLength="126.4" x="94" y="1059.9711">displays operation success</text><!--SRC=[jLV9Rjim4BthAmQvr0tG0YdG7dmeuAH8OQ0RukJM2oEDR28IgP9KKlrzHxGbao8bom6gap7Bcvdtk5a_SL4nnKeefP3fJiaImQWQ4zrxAfO-iIrkJ5CWA4mD4zl23T0xbiaNBhQGiq9Zah3QI56NZwYIvCsEPmYvbEPH_arOQgI2YqsZ3PQmoaekk3QAaVK2c8RLb-y9WHgUyee90nVBTLb9PTOYbwfaXalniBQH3-jJWJTI62MB0lVGD_Ttt_oKIiaAbMdki9AQKmlDRx7y5HXjTcZsiHJ-gL4R3-fkQBD8WTK7OaB8MgHOel3HLb77dhMeQu2xHP7wewu6fZtMm9Yqcl5dPj2Aam1zz0FUVIO9O4afJngC16xf1txa7t9QJS2Wm2rB6z1MStTnmDNxAulNLo1HhQ7z29rgjAfTNbATFRwN_i6BfU2shoKSfD2GCSDiI8P11NS4qrIekpJCR1uiSbxW3rRYs-aM-x9w9ryqQ2neXtGWJ6GzGQaKELVbxAuEySuORdZNWaF7nmERFdcM49RTqZI3aJn8kpjwS_lPv2F85ast1-w9h-kc1LfiZ6htVULu_08dYhIVmXpaCmrWtH3vlgBfDo2qDK8G9AO9A7JinpZEuRRg1Jjop26ZpV-PNzUQ2zJQfyDulf2GCyWvZwWXQMsJqFKn3JvAu1IPxQ0z_5ZIcSHwby8j7I4R0gVZPF4V5fLNQtnHnMdecsOUogj6dzoauRYkHrO62ZfeejZXjKK72vKos7aMpeazKZ9ozutp7GcEhYJRH1yTNtR4l-y8mVlLUDpPOmgSwCm_IQ_YMWMNTqVdmJ63pV3-7-NoTEW4jOVawAeER44bXzV3nPXCxEkmqIH2NloPqZ7eUiTfZ34wyloPSvAUdph1k0isUOx6572-U5EE8kuRSGh8KUZaeBr8W_TVBu-rpn8c9j7mLJcBrwDChqgVaie29lDmJiZb23TeqvLiNt0MZ2lR-E3UNPoCtpcH3EVzE1Nld8YVlCwFxzubP5nN1Miqj8Vh_jslwpJj7WI3Hwux6lsR-0S0]--></g></svg>