<?xml version="1.0" encoding="UTF-8" standalone="no"?><svg xmlns="http://www.w3.org/2000/svg" xmlns:xlink="http://www.w3.org/1999/xlink" contentStyleType="text/css" height="741px" preserveAspectRatio="none" style="width:1056px;height:741px;background:#FFFFFF;" version="1.1" viewBox="0 0 1056 741" width="1056px" zoomAndPan="magnify"><defs/><g><!--class Agent--><g id="elem_Agent"><rect codeLine="17" fill="#F1F1F1" height="88.6641" id="Agent" rx="2.5" ry="2.5" style="stroke:#181818;stroke-width:0.5;" width="104" x="382.83" y="239.55"/><text fill="#000000" font-family="sans-serif" font-size="20" lengthAdjust="spacing" textLength="56" x="406.83" y="263.8859">Agent</text><line style="stroke:#181818;stroke-width:0.5;" x1="383.83" x2="485.83" y1="273.1047" y2="273.1047"/><text fill="#000000" font-family="sans-serif" font-size="20" lengthAdjust="spacing" textLength="82" x="388.83" y="296.4406">id/email</text><text fill="#000000" font-family="sans-serif" font-size="20" lengthAdjust="spacing" textLength="92" x="388.83" y="319.9953">password</text></g><!--class AgentRequestList--><g id="elem_AgentRequestList"><rect codeLine="22" fill="#F1F1F1" height="65.1094" id="AgentRequestList" rx="2.5" ry="2.5" style="stroke:#181818;stroke-width:0.5;" width="173" x="186.33" y="633.99"/><text fill="#000000" font-family="sans-serif" font-size="20" lengthAdjust="spacing" textLength="167" x="189.33" y="658.3259">AgentRequestList</text><line style="stroke:#181818;stroke-width:0.5;" x1="187.33" x2="358.33" y1="667.5447" y2="667.5447"/><text fill="#000000" font-family="sans-serif" font-size="20" lengthAdjust="spacing" textLength="72" x="192.33" y="690.8806">request</text></g><!--class Request--><g id="elem_Request"><rect codeLine="26" fill="#F1F1F1" height="88.6641" id="Request" rx="2.5" ry="2.5" style="stroke:#181818;stroke-width:0.5;" width="94" x="650.83" y="424.99"/><text fill="#000000" font-family="sans-serif" font-size="20" lengthAdjust="spacing" textLength="77" x="659.33" y="449.3259">Request</text><line style="stroke:#181818;stroke-width:0.5;" x1="651.83" x2="743.83" y1="458.5447" y2="458.5447"/><text fill="#000000" font-family="sans-serif" font-size="20" lengthAdjust="spacing" textLength="42" x="656.83" y="481.8806">date</text><text fill="#000000" font-family="sans-serif" font-size="20" lengthAdjust="spacing" textLength="82" x="656.83" y="505.4353">property</text></g><!--class Location--><g id="elem_Location"><rect codeLine="32" fill="#F1F1F1" height="135.7734" id="Location" rx="2.5" ry="2.5" style="stroke:#181818;stroke-width:0.5;" width="94" x="685.83" y="7"/><text fill="#000000" font-family="sans-serif" font-size="20" lengthAdjust="spacing" textLength="81" x="692.33" y="31.3359">Location</text><line style="stroke:#181818;stroke-width:0.5;" x1="686.83" x2="778.83" y1="40.5547" y2="40.5547"/><text fill="#000000" font-family="sans-serif" font-size="20" lengthAdjust="spacing" textLength="54" x="691.83" y="63.8906">street</text><text fill="#000000" font-family="sans-serif" font-size="20" lengthAdjust="spacing" textLength="33" x="691.83" y="87.4453">city</text><text fill="#000000" font-family="sans-serif" font-size="20" lengthAdjust="spacing" textLength="46" x="691.83" y="111">state</text><text fill="#000000" font-family="sans-serif" font-size="20" lengthAdjust="spacing" textLength="82" x="691.83" y="134.5547">zip code</text></g><!--class Property--><g id="elem_Property"><rect codeLine="39" fill="#F1F1F1" height="112.2188" id="Property" rx="2.5" ry="2.5" style="stroke:#181818;stroke-width:0.5;" width="300" x="582.83" y="227.77"/><text fill="#000000" font-family="sans-serif" font-size="20" lengthAdjust="spacing" textLength="80" x="692.83" y="252.1059">Property</text><line style="stroke:#181818;stroke-width:0.5;" x1="583.83" x2="881.83" y1="261.3247" y2="261.3247"/><text fill="#000000" font-family="sans-serif" font-size="20" lengthAdjust="spacing" textLength="41" x="588.83" y="284.6606">area</text><text fill="#000000" font-family="sans-serif" font-size="20" lengthAdjust="spacing" textLength="76" x="588.83" y="308.2153">location</text><text fill="#000000" font-family="sans-serif" font-size="20" lengthAdjust="spacing" textLength="288" x="588.83" y="331.77">distance_from_the_city_center</text></g><!--class Announcement--><g id="elem_Announcement"><rect codeLine="45" fill="#F1F1F1" height="135.7734" id="Announcement" rx="2.5" ry="2.5" style="stroke:#181818;stroke-width:0.5;" width="189" x="623.33" y="598.66"/><text fill="#000000" font-family="sans-serif" font-size="20" lengthAdjust="spacing" textLength="144" x="645.83" y="622.9959">Announcement</text><line style="stroke:#181818;stroke-width:0.5;" x1="624.33" x2="811.33" y1="632.2147" y2="632.2147"/><text fill="#000000" font-family="sans-serif" font-size="20" lengthAdjust="spacing" textLength="82" x="629.33" y="655.5506">property</text><text fill="#000000" font-family="sans-serif" font-size="20" lengthAdjust="spacing" textLength="108" x="629.33" y="679.1053">description</text><text fill="#000000" font-family="sans-serif" font-size="20" lengthAdjust="spacing" textLength="177" x="629.33" y="702.66">type_of_comission</text><text fill="#000000" font-family="sans-serif" font-size="20" lengthAdjust="spacing" textLength="150" x="629.33" y="726.2147">comissionValue</text></g><!--class Agency--><g id="elem_Agency"><rect fill="#F1F1F1" height="41.5547" id="Agency" rx="2.5" ry="2.5" style="stroke:#181818;stroke-width:0.5;" width="75" x="313.33" y="448.55"/><text fill="#000000" font-family="sans-serif" font-size="20" lengthAdjust="spacing" textLength="69" x="316.33" y="472.8859">Agency</text><line style="stroke:#181818;stroke-width:0.5;" x1="314.33" x2="387.33" y1="482.1047" y2="482.1047"/></g><!--link Agent to Agency--><g id="link_Agent_Agency"><path codeLine="52" d="M382.53,315.21 C363.52,329.23 344.17,347.75 333.83,369.99 C322.07,395.28 331.82,427.66 340.68,448.2 " fill="none" id="Agent-Agency" style="stroke:#181818;stroke-width:1.0;"/><polygon fill="#000000" points="339.4286,390.3984,348.2582,378.0052,339.2873,375.1822,339.4286,390.3984" style="stroke:#000000;stroke-width:1.0;"/><text fill="#000000" font-family="sans-serif" font-size="20" lengthAdjust="spacing" textLength="90" x="354.83" y="390.3259">works for</text><text fill="#000000" font-family="sans-serif" font-size="20" lengthAdjust="spacing" textLength="35" x="339.8956" y="313.745">1..*</text><text fill="#000000" font-family="sans-serif" font-size="20" lengthAdjust="spacing" textLength="13" x="323.4134" y="436.2462">1</text></g><!--link Agent to Request--><g id="link_Agent_Request"><path codeLine="53" d="M481.65,328.61 C505.78,349.99 536.29,375.29 565.83,394.99 C589.97,411.09 598.41,410.99 623.83,424.99 C632.57,429.81 641.8,435.07 650.67,440.21 " fill="none" id="Agent-Request" style="stroke:#181818;stroke-width:1.0;"/><polygon fill="#000000" points="580.506,387.1754,571.02,375.2771,565.838,383.1252,580.506,387.1754" style="stroke:#000000;stroke-width:1.0;"/><text fill="#000000" font-family="sans-serif" font-size="20" lengthAdjust="spacing" textLength="94" x="586.83" y="390.3259">receives a</text><text fill="#000000" font-family="sans-serif" font-size="20" lengthAdjust="spacing" textLength="35" x="450.5899" y="355.5388">1..*</text><text fill="#000000" font-family="sans-serif" font-size="20" lengthAdjust="spacing" textLength="35" x="607.7896" y="431.6301">1..*</text></g><!--link Agent to AgentRequestList--><g id="link_Agent_AgentRequestList"><path codeLine="54" d="M382.51,286.88 C298.36,293.26 134.99,319.36 61.83,424.99 C6,505.6 127.45,589.4 208.27,633.68 " fill="none" id="Agent-AgentRequestList" style="stroke:#181818;stroke-width:1.0;"/><polygon fill="#000000" points="66.2384,476.7458,76.9374,465.9252,68.5339,461.703,66.2384,476.7458" style="stroke:#000000;stroke-width:1.0;"/><text fill="#000000" font-family="sans-serif" font-size="20" lengthAdjust="spacing" textLength="212" x="82.83" y="477.1559">selects a request from</text><text fill="#000000" font-family="sans-serif" font-size="20" lengthAdjust="spacing" textLength="35" x="339.8734" y="282.3164">1..*</text><text fill="#000000" font-family="sans-serif" font-size="20" lengthAdjust="spacing" textLength="13" x="182.1683" y="621.8873">1</text></g><!--link Property to Announcement--><g id="link_Property_Announcement"><path codeLine="55" d="M824.2,340.44 C832.85,349.26 840.4,359.11 845.83,369.99 C865.02,408.48 971.99,310.79 842.83,568.66 C835.51,583.26 824.84,596.31 812.78,607.74 " fill="none" id="Property-Announcement" style="stroke:#181818;stroke-width:1.0;"/><polygon fill="#000000" points="909.4885,477.5901,914.8043,463.3318,905.4083,462.9304,909.4885,477.5901" style="stroke:#000000;stroke-width:1.0;"/><text fill="#000000" font-family="sans-serif" font-size="20" lengthAdjust="spacing" textLength="126" x="922.83" y="477.1559">is needed for</text><text fill="#000000" font-family="sans-serif" font-size="20" lengthAdjust="spacing" textLength="13" x="820.4827" y="367.2504">1</text><text fill="#000000" font-family="sans-serif" font-size="20" lengthAdjust="spacing" textLength="35" x="820.3352" y="599.3708">1..*</text></g><!--link Property to Request--><g id="link_Property_Request"><path codeLine="56" d="M703.28,340.47 C699.37,350.08 695.98,360.15 693.83,369.99 C689.97,387.69 689.99,407.59 691.34,424.83 " fill="none" id="Property-Request" style="stroke:#181818;stroke-width:1.0;"/><polygon fill="#000000" points="700.7089,390.6884,707.3929,377.0181,698.0811,375.7001,700.7089,390.6884" style="stroke:#000000;stroke-width:1.0;"/><text fill="#000000" font-family="sans-serif" font-size="20" lengthAdjust="spacing" textLength="126" x="714.83" y="390.3259">is needed for</text><text fill="#000000" font-family="sans-serif" font-size="20" lengthAdjust="spacing" textLength="13" x="686.337" y="367.2837">1</text><text fill="#000000" font-family="sans-serif" font-size="20" lengthAdjust="spacing" textLength="13" x="676.3509" y="412.6346">1</text></g><!--link Request to AgentRequestList--><g id="link_Request_AgentRequestList"><path codeLine="57" d="M650.63,499.36 C641.85,504.37 632.65,509.34 623.83,513.66 C591.58,529.44 581.92,529.74 548.83,543.66 C478.58,573.21 399.02,608.54 343.44,633.54 " fill="none" id="Request-AgentRequestList" style="stroke:#181818;stroke-width:1.0;"/><polygon fill="#000000" points="549.4989,559.6396,564.6432,558.1558,560.8788,549.5375,549.4989,559.6396" style="stroke:#000000;stroke-width:1.0;"/><text fill="#000000" font-family="sans-serif" font-size="20" lengthAdjust="spacing" textLength="126" x="569.83" y="563.9959">is needed for</text><text fill="#000000" font-family="sans-serif" font-size="20" lengthAdjust="spacing" textLength="35" x="607.7447" y="523.7922">1..*</text><text fill="#000000" font-family="sans-serif" font-size="20" lengthAdjust="spacing" textLength="13" x="342.2603" y="621.7215">1</text></g><!--link Request to Announcement--><g id="link_Request_Announcement"><path codeLine="58" d="M702.32,514.14 C704.86,538.98 708.1,570.59 710.96,598.49 " fill="none" id="Request-Announcement" style="stroke:#181818;stroke-width:1.0;"/><polygon fill="#000000" points="716.6452,564.3957,719.8483,549.5197,710.4927,550.478,716.6452,564.3957" style="stroke:#000000;stroke-width:1.0;"/><text fill="#000000" font-family="sans-serif" font-size="20" lengthAdjust="spacing" textLength="105" x="728.83" y="563.9959">converts to</text><text fill="#000000" font-family="sans-serif" font-size="20" lengthAdjust="spacing" textLength="13" x="689.0499" y="541.0809">1</text><text fill="#000000" font-family="sans-serif" font-size="20" lengthAdjust="spacing" textLength="13" x="696.5812" y="586.6503">1</text></g><!--link Location to Property--><g id="link_Location_Property"><path codeLine="59" d="M732.83,143.09 C732.83,170.36 732.83,201.48 732.83,227.42 " fill="none" id="Location-Property" style="stroke:#181818;stroke-width:1.0;"/><polygon fill="#000000" points="740.83,193.5473,745.5323,179.0752,736.1277,179.0752,740.83,193.5473" style="stroke:#000000;stroke-width:1.0;"/><text fill="#000000" font-family="sans-serif" font-size="20" lengthAdjust="spacing" textLength="126" x="753.83" y="193.1059">is needed for</text><text fill="#000000" font-family="sans-serif" font-size="20" lengthAdjust="spacing" textLength="13" x="719.2105" y="170.0491">1</text><text fill="#000000" font-family="sans-serif" font-size="20" lengthAdjust="spacing" textLength="13" x="719.0378" y="215.5072">1</text></g><!--link Agent to Announcement--><g id="link_Agent_Announcement"><path codeLine="61" d="M442.84,328.68 C457.13,405.96 486.24,559.34 493.83,568.66 C526.08,608.24 577.6,632.02 623.1,646.11 " fill="none" id="Agent-Announcement" style="stroke:#181818;stroke-width:1.0;"/><polygon fill="#000000" points="491.7805,476.5539,488.723,461.6473,480.545,466.2914,491.7805,476.5539" style="stroke:#000000;stroke-width:1.0;"/><text fill="#000000" font-family="sans-serif" font-size="20" lengthAdjust="spacing" textLength="122" x="500.83" y="477.1559">publishes an</text><text fill="#000000" font-family="sans-serif" font-size="20" lengthAdjust="spacing" textLength="13" x="430.0429" y="355.6182">1</text><text fill="#000000" font-family="sans-serif" font-size="20" lengthAdjust="spacing" textLength="35" x="580.2088" y="640.2199">1..*</text></g><!--SRC=[VPDFQnin4CNl-XJ3NWm5fscFFWGCfL188JJGww98ixl2McchcKrmJBzxH_lFwzh49rdwlJVFJp8TNEXqqgsFve0MB5Qwz_mz1dvsxmXVxnND27JQ77IDptpq20aDwr1xN07KQ1lVNAYXqfvGgOt7Ye4Z95St3DPbbOj1hKJ6Qw8zSt8lFUCF4yCm-Lwfnba4uvAH8SEwHMwY9V5bnvBXMsor2_0pMlIoEJZ1azTSnTJ2IMq0jXR99DSDKpT_bHgXVOs1XN3sCug7LvtiliLarOACp2_yqoFneoC-gJH-KGADp7HwKbOpgYx53XCViyS4F4QZy-YJ8aw8h8oJS-AClxiEZ4G_ZtoQ32GOw8HQWP_q2gGyaGM3PPLYMtA3PVOgZOJ4TFROXn1xmThn1owPn63L1CmVFdPOngeqiNL45qVBrc_j-o7bs5hnvUxkKm7RhQoAeILpX1r8UmS2QHxWuGOvhAQ-X9Q7WEuL2VHjlBYgVmU4NfvFbamN0RaAaI-zYMuPjYvY1uuW85fvubF2AqqnpRh1ph57uv6-ZlU1RDPSH9AN_Ye9AFy_X9wVoeZd1fQ8_ti_dAzYtUx5rU-Wwr-yeoPt7BBa7m00]--></g></svg>