<?xml version="1.0" encoding="UTF-8" standalone="no"?><svg xmlns="http://www.w3.org/2000/svg" xmlns:xlink="http://www.w3.org/1999/xlink" contentStyleType="text/css" height="378px" preserveAspectRatio="none" style="width:820px;height:378px;background:#FFFFFF;" version="1.1" viewBox="0 0 820 378" width="820px" zoomAndPan="magnify"><defs/><g><rect fill="#FFFFFF" height="226.3281" style="stroke:#181818;stroke-width:1.0;" width="10" x="127.5" y="77.1094"/><rect fill="#FFFFFF" height="37.5547" style="stroke:#181818;stroke-width:1.0;" width="10" x="334.5" y="106.6641"/><rect fill="#FFFFFF" height="37.5547" style="stroke:#181818;stroke-width:1.0;" width="10" x="483.5" y="181.7734"/><rect fill="#FFFFFF" height="37.5547" style="stroke:#181818;stroke-width:1.0;" width="10" x="686" y="256.8828"/><line style="stroke:#181818;stroke-width:0.5;stroke-dasharray:5.0,5.0;" x1="132" x2="132" y1="67.1094" y2="312.4375"/><line style="stroke:#181818;stroke-width:0.5;stroke-dasharray:5.0,5.0;" x1="339" x2="339" y1="67.1094" y2="312.4375"/><line style="stroke:#181818;stroke-width:0.5;stroke-dasharray:5.0,5.0;" x1="488" x2="488" y1="67.1094" y2="312.4375"/><line style="stroke:#181818;stroke-width:0.5;stroke-dasharray:5.0,5.0;" x1="691" x2="691" y1="67.1094" y2="312.4375"/><rect fill="#E3E3E3" height="37.5547" rx="2.5" ry="2.5" style="stroke:#181818;stroke-width:0.5;" width="255" x="5" y="28.5547"/><text fill="#000000" font-family="sans-serif" font-size="20" lengthAdjust="spacing" textLength="241" x="12" y="54.8906">:CreateRequestController</text><rect fill="#E3E3E3" height="37.5547" rx="2.5" ry="2.5" style="stroke:#181818;stroke-width:0.5;" width="255" x="5" y="311.4375"/><text fill="#000000" font-family="sans-serif" font-size="20" lengthAdjust="spacing" textLength="241" x="12" y="337.7734">:CreateRequestController</text><rect fill="#E3E3E3" height="37.5547" rx="2.5" ry="2.5" style="stroke:#181818;stroke-width:0.5;" width="139" x="270" y="28.5547"/><text fill="#000000" font-family="sans-serif" font-size="20" lengthAdjust="spacing" textLength="125" x="277" y="54.8906">:Repositories</text><rect fill="#E3E3E3" height="37.5547" rx="2.5" ry="2.5" style="stroke:#181818;stroke-width:0.5;" width="139" x="270" y="311.4375"/><text fill="#000000" font-family="sans-serif" font-size="20" lengthAdjust="spacing" textLength="125" x="277" y="337.7734">:Repositories</text><rect fill="#E3E3E3" height="61.1094" rx="2.5" ry="2.5" style="stroke:#181818;stroke-width:0.5;" width="139" x="419" y="5"/><text fill="#000000" font-family="sans-serif" font-size="20" lengthAdjust="spacing" textLength="114" x="431.5" y="31.3359">repositories</text><text fill="#000000" font-family="sans-serif" font-size="20" lengthAdjust="spacing" textLength="125" x="426" y="54.8906">:Repositories</text><rect fill="#E3E3E3" height="61.1094" rx="2.5" ry="2.5" style="stroke:#181818;stroke-width:0.5;" width="139" x="419" y="311.4375"/><text fill="#000000" font-family="sans-serif" font-size="20" lengthAdjust="spacing" textLength="114" x="431.5" y="337.7734">repositories</text><text fill="#000000" font-family="sans-serif" font-size="20" lengthAdjust="spacing" textLength="125" x="426" y="361.3281">:Repositories</text><rect fill="#E3E3E3" height="61.1094" rx="2.5" ry="2.5" style="stroke:#181818;stroke-width:0.5;" width="246" x="568" y="5"/><text fill="#000000" font-family="sans-serif" font-size="20" lengthAdjust="spacing" textLength="232" x="575" y="31.3359">RequestTypeRepository:</text><text fill="#000000" font-family="sans-serif" font-size="20" lengthAdjust="spacing" textLength="226" x="578" y="54.8906">RequestTypeRepository</text><rect fill="#E3E3E3" height="61.1094" rx="2.5" ry="2.5" style="stroke:#181818;stroke-width:0.5;" width="246" x="568" y="311.4375"/><text fill="#000000" font-family="sans-serif" font-size="20" lengthAdjust="spacing" textLength="232" x="575" y="337.7734">RequestTypeRepository:</text><text fill="#000000" font-family="sans-serif" font-size="20" lengthAdjust="spacing" textLength="226" x="578" y="361.3281">RequestTypeRepository</text><rect fill="#FFFFFF" height="226.3281" style="stroke:#181818;stroke-width:1.0;" width="10" x="127.5" y="77.1094"/><rect fill="#FFFFFF" height="37.5547" style="stroke:#181818;stroke-width:1.0;" width="10" x="334.5" y="106.6641"/><rect fill="#FFFFFF" height="37.5547" style="stroke:#181818;stroke-width:1.0;" width="10" x="483.5" y="181.7734"/><rect fill="#FFFFFF" height="37.5547" style="stroke:#181818;stroke-width:1.0;" width="10" x="686" y="256.8828"/><polygon fill="#181818" points="322.5,102.6641,332.5,106.6641,322.5,110.6641,326.5,106.6641" style="stroke:#181818;stroke-width:1.0;"/><line style="stroke:#181818;stroke-width:1.0;" x1="137.5" x2="328.5" y1="106.6641" y2="106.6641"/><text fill="#000000" font-family="sans-serif" font-size="20" font-weight="bold" lengthAdjust="spacing" textLength="13" x="144.5" y="100.4453">3</text><text fill="#000000" font-family="sans-serif" font-size="20" lengthAdjust="spacing" textLength="123" x="161.5" y="100.4453">getInstance()</text><polygon fill="#181818" points="148.5,140.2188,138.5,144.2188,148.5,148.2188,144.5,144.2188" style="stroke:#181818;stroke-width:1.0;"/><line style="stroke:#181818;stroke-width:1.0;stroke-dasharray:2.0,2.0;" x1="142.5" x2="338.5" y1="144.2188" y2="144.2188"/><text fill="#000000" font-family="sans-serif" font-size="20" font-weight="bold" lengthAdjust="spacing" textLength="13" x="154.5" y="138">4</text><text fill="#000000" font-family="sans-serif" font-size="20" lengthAdjust="spacing" textLength="114" x="171.5" y="138">repositories</text><polygon fill="#181818" points="471.5,177.7734,481.5,181.7734,471.5,185.7734,475.5,181.7734" style="stroke:#181818;stroke-width:1.0;"/><line style="stroke:#181818;stroke-width:1.0;" x1="137.5" x2="477.5" y1="181.7734" y2="181.7734"/><text fill="#000000" font-family="sans-serif" font-size="20" font-weight="bold" lengthAdjust="spacing" textLength="13" x="144.5" y="175.5547">5</text><text fill="#000000" font-family="sans-serif" font-size="20" lengthAdjust="spacing" textLength="308" x="161.5" y="175.5547">getRequestCategoryRepository()</text><polygon fill="#181818" points="148.5,215.3281,138.5,219.3281,148.5,223.3281,144.5,219.3281" style="stroke:#181818;stroke-width:1.0;"/><line style="stroke:#181818;stroke-width:1.0;stroke-dasharray:2.0,2.0;" x1="142.5" x2="487.5" y1="219.3281" y2="219.3281"/><text fill="#000000" font-family="sans-serif" font-size="20" font-weight="bold" lengthAdjust="spacing" textLength="13" x="154.5" y="213.1094">6</text><text fill="#000000" font-family="sans-serif" font-size="20" lengthAdjust="spacing" textLength="259" x="171.5" y="213.1094">requestCategoryRepository</text><polygon fill="#181818" points="674,252.8828,684,256.8828,674,260.8828,678,256.8828" style="stroke:#181818;stroke-width:1.0;"/><line style="stroke:#181818;stroke-width:1.0;" x1="137.5" x2="680" y1="256.8828" y2="256.8828"/><text fill="#000000" font-family="sans-serif" font-size="20" font-weight="bold" lengthAdjust="spacing" textLength="13" x="144.5" y="250.6641">7</text><text fill="#000000" font-family="sans-serif" font-size="20" lengthAdjust="spacing" textLength="270" x="161.5" y="250.6641">getRequestTypeRepository()</text><polygon fill="#181818" points="148.5,290.4375,138.5,294.4375,148.5,298.4375,144.5,294.4375" style="stroke:#181818;stroke-width:1.0;"/><line style="stroke:#181818;stroke-width:1.0;stroke-dasharray:2.0,2.0;" x1="142.5" x2="690" y1="294.4375" y2="294.4375"/><text fill="#000000" font-family="sans-serif" font-size="20" font-weight="bold" lengthAdjust="spacing" textLength="13" x="154.5" y="288.2188">8</text><text fill="#000000" font-family="sans-serif" font-size="20" lengthAdjust="spacing" textLength="153" x="171.5" y="288.2188">requestTypeList</text><!--SRC=[VL4xJyCm4DxzAqwTOAY4OCk0X28X8ML0RSOkXtDDhJXsi2-WykknKrAIvk71mzrtt-FELyeqwB3MLbPKG457R3M_MiDxzKFm-21y3u7Q6YjFpjO4x5eQT1gK5PQqvxCcS2GPJQc707_2mduhKy8HjISXHAYpagf1mx19KaV8jAFFbZodGTrPhSbj03sa-IwxWU-eiLwnTOfyXmc5CSGD40Sp7NZFNlBnn9zuVcxeYZud1pDRxpXoz5KQR9UXyDyI0bksfgq_oC6JGCdgAu0kCU87s-Ve5n8eYT-C3ykIT7SluEPT9sEuIJU-oB8DR94rWM7a2RoWTRhUMDpBnLb_Z4d0DQlTMcUzTiH3imliQyxdsNlhy-SOXHaVSIt8qctdeYq8zs7XcZRAPyhpMiObuLy0]--></g></svg>