<?xml version="1.0" encoding="us-ascii" standalone="no"?><svg xmlns="http://www.w3.org/2000/svg" xmlns:xlink="http://www.w3.org/1999/xlink" contentStyleType="text/css" height="316px" preserveAspectRatio="none" style="width:562px;height:316px;background:#FFFFFF;" version="1.1" viewBox="0 0 562 316" width="562px" zoomAndPan="magnify"><defs/><g><text fill="#000000" font-family="sans-serif" font-size="14" font-weight="bold" lengthAdjust="spacing" textLength="100" x="224.25" y="22.6738">Domain Model</text><!--class System--><g id="elem_System"><rect codeLine="12" fill="#F1F1F1" height="33.6406" id="System" rx="2.5" ry="2.5" style="stroke:#181818;stroke-width:0.5;" width="52" x="234.5" y="74.6406"/><text fill="#000000" font-family="sans-serif" font-size="14" lengthAdjust="spacing" textLength="46" x="237.5" y="92.3145">System</text><line style="stroke:#181818;stroke-width:0.5;" x1="235.5" x2="285.5" y1="100.2813" y2="100.2813"/></g><!--class Database--><g id="elem_Database"><rect codeLine="16" fill="#F1F1F1" height="64.9219" id="Database" rx="2.5" ry="2.5" style="stroke:#181818;stroke-width:0.5;" width="100" x="363.5" y="244.6406"/><text fill="#000000" font-family="sans-serif" font-size="14" lengthAdjust="spacing" textLength="61" x="383" y="262.3145">Database</text><line style="stroke:#181818;stroke-width:0.5;" x1="364.5" x2="462.5" y1="270.2813" y2="270.2813"/><text fill="#000000" font-family="sans-serif" font-size="14" lengthAdjust="spacing" textLength="88" x="369.5" y="286.9551">proprety table</text><text fill="#000000" font-family="sans-serif" font-size="14" lengthAdjust="spacing" textLength="63" x="369.5" y="302.5957">user table</text></g><!--class Unregistered\nuser--><g id="elem_Unregistered\nuser"><rect codeLine="21" fill="#F1F1F1" height="96.2031" id="Unregistered\nuser" rx="2.5" ry="2.5" style="stroke:#181818;stroke-width:0.5;" width="101" x="7" y="43.6406"/><text fill="#000000" font-family="sans-serif" font-size="14" lengthAdjust="spacing" textLength="81" x="17" y="61.3145">Unregistered</text><text fill="#000000" font-family="sans-serif" font-size="14" lengthAdjust="spacing" textLength="28" x="43.5" y="76.9551">user</text><line style="stroke:#181818;stroke-width:0.5;" x1="8" x2="107" y1="84.9219" y2="84.9219"/><text fill="#000000" font-family="sans-serif" font-size="14" lengthAdjust="spacing" textLength="35" x="13" y="101.5957">name</text><text fill="#000000" font-family="sans-serif" font-size="14" lengthAdjust="spacing" textLength="89" x="13" y="117.2363">phoneNumber</text><text fill="#000000" font-family="sans-serif" font-size="14" lengthAdjust="spacing" textLength="33" x="13" y="132.877">email</text></g><!--class Property\ncontroller--><g id="elem_Property\ncontroller"><rect fill="#F1F1F1" height="49.2813" id="Property\ncontroller" rx="2.5" ry="2.5" style="stroke:#181818;stroke-width:0.5;" width="65" x="399" y="67.1406"/><text fill="#000000" font-family="sans-serif" font-size="14" lengthAdjust="spacing" textLength="54" x="404.5" y="84.8145">Property</text><text fill="#000000" font-family="sans-serif" font-size="14" lengthAdjust="spacing" textLength="59" x="402" y="100.4551">controller</text><line style="stroke:#181818;stroke-width:0.5;" x1="400" x2="463" y1="108.4219" y2="108.4219"/></g><!--link System to Property\ncontroller--><g id="link_System_Property\ncontroller"><path codeLine="27" d="M286.56,102.9506 C295.06,106.0906 304.66,109.0706 313.75,110.6406 C339.15,115.0406 346.28,114.5906 371.75,110.6406 C380.68,109.2506 390.1,106.7706 398.75,104.0506 " fill="none" id="System-Property\ncontroller" style="stroke:#181818;stroke-width:1.0;"/><polygon fill="#000000" points="323.7498,102.9514,314.7339,99.9239,314.6763,105.8015,323.7498,102.9514" style="stroke:#000000;stroke-width:1.0;"/><text fill="#000000" font-family="sans-serif" font-size="13" lengthAdjust="spacing" textLength="43" x="327.75" y="107.4092">request</text><text fill="#000000" font-family="sans-serif" font-size="13" lengthAdjust="spacing" textLength="7" x="294.5043" y="119.7586">1</text><text fill="#000000" font-family="sans-serif" font-size="13" lengthAdjust="spacing" textLength="20" x="370.868" y="102.839">0..*</text></g><!--link System to Property\ncontroller--><g id="link_System_Property\ncontroller"><path codeLine="28" d="M286.84,91.6406 C317.01,91.6406 366.45,91.6406 398.99,91.6406 " fill="none" id="System-Property\ncontroller-1" style="stroke:#181818;stroke-width:1.0;"/><text fill="#000000" font-family="sans-serif" font-size="13" lengthAdjust="spacing" textLength="37" x="324.25" y="70.4092">foward</text><polygon fill="#000000" points="304.75,80.4258,313.7951,83.3647,313.7951,77.4869,304.75,80.4258" style="stroke:#000000;stroke-width:1.0;"/><text fill="#000000" font-family="sans-serif" font-size="13" lengthAdjust="spacing" textLength="63" x="317.75" y="84.9326">information</text><text fill="#000000" font-family="sans-serif" font-size="13" lengthAdjust="spacing" textLength="7" x="294.4865" y="87.7285">1</text><text fill="#000000" font-family="sans-serif" font-size="13" lengthAdjust="spacing" textLength="20" x="370.8865" y="88.0979">0..*</text></g><!--link Database to System--><g id="link_Database_System"><path codeLine="29" d="M363.23,262.8206 C337.26,253.4406 307.19,238.2506 288.5,214.6406 C263.68,183.2906 260.08,133.9806 260.01,108.7206 " fill="none" id="Database-System" style="stroke:#181818;stroke-width:1.0;"/><text fill="#000000" font-family="sans-serif" font-size="13" lengthAdjust="spacing" textLength="107" x="289.5" y="189.4092">recives information</text><polygon fill="#000000" points="328.2174,195.2716,330.8094,204.4221,335.6929,201.151,328.2174,195.2716" style="stroke:#000000;stroke-width:1.0;"/><text fill="#000000" font-family="sans-serif" font-size="13" lengthAdjust="spacing" textLength="25" x="339" y="203.9326">from</text><text fill="#000000" font-family="sans-serif" font-size="13" lengthAdjust="spacing" textLength="15" x="340.4672" y="257.7647">1..</text><text fill="#000000" font-family="sans-serif" font-size="13" lengthAdjust="spacing" textLength="20" x="236.7974" y="127.9989">0..*</text></g><!--link Unregistered\nuser to System--><g id="link_Unregistered\nuser_System"><path codeLine="30" d="M108.2,91.6406 C148.25,91.6406 202.51,91.6406 234.28,91.6406 " fill="none" id="Unregistered\nuser-System" style="stroke:#181818;stroke-width:1.0;"/><polygon fill="#000000" points="135.25,80.9023,126.2049,77.9634,126.2049,83.8413,135.25,80.9023" style="stroke:#000000;stroke-width:1.0;"/><text fill="#000000" font-family="sans-serif" font-size="13" lengthAdjust="spacing" textLength="77" x="139.25" y="85.4092">interacts with</text><text fill="#000000" font-family="sans-serif" font-size="13" lengthAdjust="spacing" textLength="7" x="116.1606" y="88.4046">1</text><text fill="#000000" font-family="sans-serif" font-size="13" lengthAdjust="spacing" textLength="20" x="206.3569" y="105.037">0..*</text></g><!--link Property\ncontroller to Database--><g id="link_Property\ncontroller_Database"><path codeLine="31" d="M423.31,116.2406 C418.52,131.3006 412.95,151.3706 410.5,169.6406 C407.85,189.4606 410.01,194.6506 410.5,214.6406 C410.74,224.3606 411.18,234.9506 411.66,244.5506 " fill="none" id="Property\ncontroller-Database" style="stroke:#181818;stroke-width:1.0;"/><polygon fill="#000000" points="415.0479,197.3819,418.7927,188.6396,412.9389,188.1081,415.0479,197.3819" style="stroke:#000000;stroke-width:1.0;"/><text fill="#000000" font-family="sans-serif" font-size="13" lengthAdjust="spacing" textLength="43" x="424.5" y="196.9092">request</text><text fill="#000000" font-family="sans-serif" font-size="13" lengthAdjust="spacing" textLength="11" x="408.8019" y="136.1377">1.</text><text fill="#000000" font-family="sans-serif" font-size="13" lengthAdjust="spacing" textLength="5" x="405.7106" y="233.7247">*</text></g><!--link Property\ncontroller to Database--><g id="link_Property\ncontroller_Database"><path codeLine="32" d="M449.49,116.3206 C466,141.1206 486,181.0606 472.5,214.6406 C468.08,225.6206 460.67,235.7506 452.55,244.4806 " fill="none" id="Property\ncontroller-Database-1" style="stroke:#181818;stroke-width:1.0;"/><text fill="#000000" font-family="sans-serif" font-size="13" lengthAdjust="spacing" textLength="35" x="499" y="182.4092">sends</text><text fill="#000000" font-family="sans-serif" font-size="13" lengthAdjust="spacing" textLength="60" x="486.5" y="196.9326">necessary</text><polygon fill="#000000" points="483.3807,201.9506,480.6585,211.0633,486.5346,210.923,483.3807,201.9506" style="stroke:#000000;stroke-width:1.0;"/><text fill="#000000" font-family="sans-serif" font-size="13" lengthAdjust="spacing" textLength="63" x="491.5" y="211.4561">information</text><text fill="#000000" font-family="sans-serif" font-size="13" lengthAdjust="spacing" textLength="11" x="441.6906" y="136.2382">1.</text><text fill="#000000" font-family="sans-serif" font-size="13" lengthAdjust="spacing" textLength="5" x="455.0884" y="234.1313">*</text></g><!--SRC=[bP4_JmCn3CNtV0hhHYGgkYA4XDI50OHKiNLnSsulwiKvR1_LWVZkk7zre2xDb3Z-FR-Nw2PnXu8PSk4I6ocPmAIdeEUR3kC6rpIteIKGYeQyRiSDsc1TjedNiC9MAOokOekgJsQIbhtHSomyJry4To4qgIQ8IQ9BxVUPh2crXc39VD2iP4mCBwMcDeIz3im7DShm7SBFgJH3moKgUH5yTL8w8Hl0gowyA_LASZoUgNSMMYSN4weNlEyuy8pvG7LDONhjyv9aVoPtq-u4ZXwgQGMtKDrD9ZSLlFbK4XiMx05DIjkwuBs_rKTFQl1u3RGgMnGtbNXL9AEbml0GpZ6hwMGo4Za8xqR5z4aAOsh1A_zEdtuXxHyd9v74teBH5BR96WSlMdG7pZhivDdMEEmrb1BNkc2cIAeem__SuHS0]--></g></svg>