<?xml version="1.0" encoding="us-ascii" standalone="no"?><svg xmlns="http://www.w3.org/2000/svg" xmlns:xlink="http://www.w3.org/1999/xlink" contentStyleType="text/css" height="876px" preserveAspectRatio="none" style="width:1578px;height:876px;background:#FFFFFF;" version="1.1" viewBox="0 0 1578 876" width="1578px" zoomAndPan="magnify"><defs/><g><rect fill="#FFFFFF" height="681.6563" style="stroke:#181818;stroke-width:1.0;" width="10" x="58" y="93.6211"/><rect fill="#FFFFFF" height="31.291" style="stroke:#181818;stroke-width:1.0;" width="10" x="569" y="116.9121"/><rect fill="#FFFFFF" height="595.7832" style="stroke:#181818;stroke-width:1.0;" width="10" x="569" y="179.4941"/><rect fill="#FFFFFF" height="501.9102" style="stroke:#181818;stroke-width:1.0;" width="10" x="758" y="210.7852"/><rect fill="#FFFFFF" height="30" style="stroke:#181818;stroke-width:1.0;" width="10" x="1056" y="273.3672"/><rect fill="#FFFFFF" height="67.291" style="stroke:#181818;stroke-width:1.0;" width="10" x="1056" y="501.5313"/><rect fill="#FFFFFF" height="28" style="stroke:#181818;stroke-width:1.0;" width="10" x="1061" y="540.8223"/><rect fill="#FFFFFF" height="67.291" style="stroke:#181818;stroke-width:1.0;" width="10" x="1056" y="607.1133"/><rect fill="#FFFFFF" height="28" style="stroke:#181818;stroke-width:1.0;" width="10" x="1061" y="646.4043"/><rect fill="#FFFFFF" height="30" style="stroke:#181818;stroke-width:1.0;" width="10" x="1302" y="334.6582"/><rect fill="#FFFFFF" height="67.291" style="stroke:#181818;stroke-width:1.0;" width="10" x="1302" y="395.9492"/><rect fill="#FFFFFF" height="28" style="stroke:#181818;stroke-width:1.0;" width="10" x="1307" y="435.2402"/><rect fill="#FFFFFF" height="542.2012" style="stroke:#181818;stroke-width:1.0;" width="10" x="1519" y="242.0762"/><line style="stroke:#181818;stroke-width:0.5;stroke-dasharray:5.0,5.0;" x1="63" x2="63" y1="83.6211" y2="793.2773"/><line style="stroke:#181818;stroke-width:0.5;stroke-dasharray:5.0,5.0;" x1="574" x2="574" y1="83.6211" y2="793.2773"/><line style="stroke:#181818;stroke-width:0.5;stroke-dasharray:5.0,5.0;" x1="763" x2="763" y1="83.6211" y2="793.2773"/><line style="stroke:#181818;stroke-width:0.5;stroke-dasharray:5.0,5.0;" x1="1061" x2="1061" y1="83.6211" y2="793.2773"/><line style="stroke:#181818;stroke-width:0.5;stroke-dasharray:5.0,5.0;" x1="1306.5" x2="1306.5" y1="83.6211" y2="793.2773"/><line style="stroke:#181818;stroke-width:0.5;stroke-dasharray:5.0,5.0;" x1="1523.5" x2="1523.5" y1="83.6211" y2="793.2773"/><text fill="#000000" font-family="sans-serif" font-size="14" lengthAdjust="spacing" textLength="110" x="5" y="80.1074">Network Manager</text><ellipse cx="63" cy="13.5" fill="#E2E2F0" rx="8" ry="8" style="stroke:#181818;stroke-width:0.5;"/><path d="M63,21.5 L63,48.5 M50,29.5 L76,29.5 M63,48.5 L50,63.5 M63,48.5 L76,63.5 " fill="none" style="stroke:#181818;stroke-width:0.5;"/><text fill="#000000" font-family="sans-serif" font-size="14" lengthAdjust="spacing" textLength="110" x="5" y="807.3848">Network Manager</text><ellipse cx="63" cy="819.3984" fill="#E2E2F0" rx="8" ry="8" style="stroke:#181818;stroke-width:0.5;"/><path d="M63,827.3984 L63,854.3984 M50,835.3984 L76,835.3984 M63,854.3984 L50,869.3984 M63,854.3984 L76,869.3984 " fill="none" style="stroke:#181818;stroke-width:0.5;"/><rect fill="#E2E2F0" height="32.6211" rx="2.5" ry="2.5" style="stroke:#181818;stroke-width:0.5;" width="88" x="530" y="50"/><text fill="#000000" font-family="sans-serif" font-size="14" lengthAdjust="spacing" textLength="74" x="537" y="72.1074">:ListDealsUI</text><rect fill="#E2E2F0" height="32.6211" rx="2.5" ry="2.5" style="stroke:#181818;stroke-width:0.5;" width="88" x="530" y="792.2773"/><text fill="#000000" font-family="sans-serif" font-size="14" lengthAdjust="spacing" textLength="74" x="537" y="814.3848">:ListDealsUI</text><rect fill="#E2E2F0" height="32.6211" rx="2.5" ry="2.5" style="stroke:#181818;stroke-width:0.5;" width="138" x="694" y="50"/><text fill="#000000" font-family="sans-serif" font-size="14" lengthAdjust="spacing" textLength="124" x="701" y="72.1074">:ListDealsController</text><rect fill="#E2E2F0" height="32.6211" rx="2.5" ry="2.5" style="stroke:#181818;stroke-width:0.5;" width="138" x="694" y="792.2773"/><text fill="#000000" font-family="sans-serif" font-size="14" lengthAdjust="spacing" textLength="124" x="701" y="814.3848">:ListDealsController</text><rect fill="#E2E2F0" height="32.6211" rx="2.5" ry="2.5" style="stroke:#181818;stroke-width:0.5;" width="144" x="989" y="50"/><text fill="#000000" font-family="sans-serif" font-size="14" lengthAdjust="spacing" textLength="130" x="996" y="72.1074">:ListDealsRepository</text><rect fill="#E2E2F0" height="32.6211" rx="2.5" ry="2.5" style="stroke:#181818;stroke-width:0.5;" width="144" x="989" y="792.2773"/><text fill="#000000" font-family="sans-serif" font-size="14" lengthAdjust="spacing" textLength="130" x="996" y="814.3848">:ListDealsRepository</text><rect fill="#E2E2F0" height="32.6211" rx="2.5" ry="2.5" style="stroke:#181818;stroke-width:0.5;" width="133" x="1240.5" y="50"/><text fill="#000000" font-family="sans-serif" font-size="14" lengthAdjust="spacing" textLength="119" x="1247.5" y="72.1074">:AgencyRepository</text><rect fill="#E2E2F0" height="32.6211" rx="2.5" ry="2.5" style="stroke:#181818;stroke-width:0.5;" width="133" x="1240.5" y="792.2773"/><text fill="#000000" font-family="sans-serif" font-size="14" lengthAdjust="spacing" textLength="119" x="1247.5" y="814.3848">:AgencyRepository</text><rect fill="#E2E2F0" height="32.6211" rx="2.5" ry="2.5" style="stroke:#181818;stroke-width:0.5;" width="97" x="1475.5" y="50"/><text fill="#000000" font-family="sans-serif" font-size="14" lengthAdjust="spacing" textLength="83" x="1482.5" y="72.1074">:Repositories</text><rect fill="#E2E2F0" height="32.6211" rx="2.5" ry="2.5" style="stroke:#181818;stroke-width:0.5;" width="97" x="1475.5" y="792.2773"/><text fill="#000000" font-family="sans-serif" font-size="14" lengthAdjust="spacing" textLength="83" x="1482.5" y="814.3848">:Repositories</text><rect fill="#FFFFFF" height="681.6563" style="stroke:#181818;stroke-width:1.0;" width="10" x="58" y="93.6211"/><rect fill="#FFFFFF" height="31.291" style="stroke:#181818;stroke-width:1.0;" width="10" x="569" y="116.9121"/><rect fill="#FFFFFF" height="595.7832" style="stroke:#181818;stroke-width:1.0;" width="10" x="569" y="179.4941"/><rect fill="#FFFFFF" height="501.9102" style="stroke:#181818;stroke-width:1.0;" width="10" x="758" y="210.7852"/><rect fill="#FFFFFF" height="30" style="stroke:#181818;stroke-width:1.0;" width="10" x="1056" y="273.3672"/><rect fill="#FFFFFF" height="67.291" style="stroke:#181818;stroke-width:1.0;" width="10" x="1056" y="501.5313"/><rect fill="#FFFFFF" height="28" style="stroke:#181818;stroke-width:1.0;" width="10" x="1061" y="540.8223"/><rect fill="#FFFFFF" height="67.291" style="stroke:#181818;stroke-width:1.0;" width="10" x="1056" y="607.1133"/><rect fill="#FFFFFF" height="28" style="stroke:#181818;stroke-width:1.0;" width="10" x="1061" y="646.4043"/><rect fill="#FFFFFF" height="30" style="stroke:#181818;stroke-width:1.0;" width="10" x="1302" y="334.6582"/><rect fill="#FFFFFF" height="67.291" style="stroke:#181818;stroke-width:1.0;" width="10" x="1302" y="395.9492"/><rect fill="#FFFFFF" height="28" style="stroke:#181818;stroke-width:1.0;" width="10" x="1307" y="435.2402"/><rect fill="#FFFFFF" height="542.2012" style="stroke:#181818;stroke-width:1.0;" width="10" x="1519" y="242.0762"/><polygon fill="#181818" points="557,112.9121,567,116.9121,557,120.9121,561,116.9121" style="stroke:#181818;stroke-width:1.0;"/><line style="stroke:#181818;stroke-width:1.0;" x1="68" x2="563" y1="116.9121" y2="116.9121"/><text fill="#000000" font-family="sans-serif" font-size="13" lengthAdjust="spacing" textLength="152" x="75" y="111.6494">asks to list all deals made</text><polygon fill="#181818" points="79,144.2031,69,148.2031,79,152.2031,75,148.2031" style="stroke:#181818;stroke-width:1.0;"/><line style="stroke:#181818;stroke-width:1.0;stroke-dasharray:2.0,2.0;" x1="73" x2="573" y1="148.2031" y2="148.2031"/><text fill="#000000" font-family="sans-serif" font-size="13" lengthAdjust="spacing" textLength="477" x="85" y="142.9404">Asks to select sorting option Ascending/Descending by property area (square feet)</text><polygon fill="#181818" points="557,175.4941,567,179.4941,557,183.4941,561,179.4941" style="stroke:#181818;stroke-width:1.0;"/><line style="stroke:#181818;stroke-width:1.0;" x1="68" x2="563" y1="179.4941" y2="179.4941"/><text fill="#000000" font-family="sans-serif" font-size="13" lengthAdjust="spacing" textLength="158" x="75" y="174.2314">selects sorting option (A/D)</text><polygon fill="#181818" points="746,206.7852,756,210.7852,746,214.7852,750,210.7852" style="stroke:#181818;stroke-width:1.0;"/><line style="stroke:#181818;stroke-width:1.0;" x1="579" x2="752" y1="210.7852" y2="210.7852"/><text fill="#000000" font-family="sans-serif" font-size="13" lengthAdjust="spacing" textLength="118" x="586" y="205.5225">requestListOfDeals()</text><polygon fill="#181818" points="1507,238.0762,1517,242.0762,1507,246.0762,1511,242.0762" style="stroke:#181818;stroke-width:1.0;"/><line style="stroke:#181818;stroke-width:1.0;" x1="768" x2="1513" y1="242.0762" y2="242.0762"/><text fill="#000000" font-family="sans-serif" font-size="13" lengthAdjust="spacing" textLength="44" x="775" y="236.8135">create()</text><polygon fill="#181818" points="1077,269.3672,1067,273.3672,1077,277.3672,1073,273.3672" style="stroke:#181818;stroke-width:1.0;"/><line style="stroke:#181818;stroke-width:1.0;" x1="1071" x2="1518" y1="273.3672" y2="273.3672"/><text fill="#000000" font-family="sans-serif" font-size="13" lengthAdjust="spacing" textLength="44" x="1083" y="268.1045">create()</text><polygon fill="#181818" points="1323,330.6582,1313,334.6582,1323,338.6582,1319,334.6582" style="stroke:#181818;stroke-width:1.0;"/><line style="stroke:#181818;stroke-width:1.0;" x1="1317" x2="1518" y1="334.6582" y2="334.6582"/><text fill="#000000" font-family="sans-serif" font-size="13" lengthAdjust="spacing" textLength="44" x="1329" y="329.3955">create()</text><polygon fill="#181818" points="1290,391.9492,1300,395.9492,1290,399.9492,1294,395.9492" style="stroke:#181818;stroke-width:1.0;"/><line style="stroke:#181818;stroke-width:1.0;" x1="768" x2="1296" y1="395.9492" y2="395.9492"/><text fill="#000000" font-family="sans-serif" font-size="13" lengthAdjust="spacing" textLength="261" x="775" y="390.6865">agencies = getAgenciesByNetworkManager()</text><line style="stroke:#181818;stroke-width:1.0;" x1="1317" x2="1359" y1="427.2402" y2="427.2402"/><line style="stroke:#181818;stroke-width:1.0;" x1="1359" x2="1359" y1="427.2402" y2="440.2402"/><line style="stroke:#181818;stroke-width:1.0;" x1="1318" x2="1359" y1="440.2402" y2="440.2402"/><polygon fill="#181818" points="1328,436.2402,1318,440.2402,1328,444.2402,1324,440.2402" style="stroke:#181818;stroke-width:1.0;"/><text fill="#000000" font-family="sans-serif" font-size="13" lengthAdjust="spacing" textLength="193" x="1324" y="421.9775">getAgenciesByNetworkManager()</text><polygon fill="#181818" points="1044,497.5313,1054,501.5313,1044,505.5313,1048,501.5313" style="stroke:#181818;stroke-width:1.0;"/><line style="stroke:#181818;stroke-width:1.0;" x1="768" x2="1050" y1="501.5313" y2="501.5313"/><text fill="#000000" font-family="sans-serif" font-size="13" lengthAdjust="spacing" textLength="228" x="775" y="496.2686">deals = getDealsByAgencies(agencies)</text><line style="stroke:#181818;stroke-width:1.0;" x1="1071" x2="1113" y1="532.8223" y2="532.8223"/><line style="stroke:#181818;stroke-width:1.0;" x1="1113" x2="1113" y1="532.8223" y2="545.8223"/><line style="stroke:#181818;stroke-width:1.0;" x1="1072" x2="1113" y1="545.8223" y2="545.8223"/><polygon fill="#181818" points="1082,541.8223,1072,545.8223,1082,549.8223,1078,545.8223" style="stroke:#181818;stroke-width:1.0;"/><text fill="#000000" font-family="sans-serif" font-size="13" lengthAdjust="spacing" textLength="181" x="1078" y="527.5596">getDealsByAgencies(agencies)</text><polygon fill="#181818" points="1044,603.1133,1054,607.1133,1044,611.1133,1048,607.1133" style="stroke:#181818;stroke-width:1.0;"/><line style="stroke:#181818;stroke-width:1.0;" x1="768" x2="1050" y1="607.1133" y2="607.1133"/><text fill="#000000" font-family="sans-serif" font-size="13" lengthAdjust="spacing" textLength="269" x="775" y="601.8506">deals = sortDealsByArea(deals, sortingOption)</text><line style="stroke:#181818;stroke-width:1.0;" x1="1071" x2="1113" y1="638.4043" y2="638.4043"/><line style="stroke:#181818;stroke-width:1.0;" x1="1113" x2="1113" y1="638.4043" y2="651.4043"/><line style="stroke:#181818;stroke-width:1.0;" x1="1072" x2="1113" y1="651.4043" y2="651.4043"/><polygon fill="#181818" points="1082,647.4043,1072,651.4043,1082,655.4043,1078,651.4043" style="stroke:#181818;stroke-width:1.0;"/><text fill="#000000" font-family="sans-serif" font-size="13" lengthAdjust="spacing" textLength="222" x="1078" y="633.1416">sortDealsByArea(deals, sortingOption)</text><polygon fill="#181818" points="590,708.6953,580,712.6953,590,716.6953,586,712.6953" style="stroke:#181818;stroke-width:1.0;"/><line style="stroke:#181818;stroke-width:1.0;" x1="584" x2="762" y1="712.6953" y2="712.6953"/><text fill="#000000" font-family="sans-serif" font-size="13" lengthAdjust="spacing" textLength="155" x="596" y="707.4326">return deals sorted by area</text><polygon fill="#181818" points="79,739.9863,69,743.9863,79,747.9863,75,743.9863" style="stroke:#181818;stroke-width:1.0;"/><line style="stroke:#181818;stroke-width:1.0;stroke-dasharray:2.0,2.0;" x1="73" x2="568" y1="743.9863" y2="743.9863"/><text fill="#000000" font-family="sans-serif" font-size="13" lengthAdjust="spacing" textLength="155" x="85" y="738.7236">return deals sorted by area</text><polygon fill="#181818" points="74,771.2773,64,775.2773,74,779.2773,70,775.2773" style="stroke:#181818;stroke-width:1.0;"/><line style="stroke:#181818;stroke-width:1.0;stroke-dasharray:2.0,2.0;" x1="68" x2="573" y1="775.2773" y2="775.2773"/><text fill="#000000" font-family="sans-serif" font-size="13" lengthAdjust="spacing" textLength="226" x="80" y="770.0146">display operation (in)success message</text><!--SRC=[hLJ1Ri8m3BttAonEhJJ4lTAGO5oGjY5DuWEorA1eNL8Iiwb_FwUq45Ae48n3IMm_sy-EBIGP2wDtf5zZl-1DQB55EmBXkdDI2KjAgafeWb7-gXmjK9HklMoirijh1Yz6apLbsRexNQy1Fh0oJd4-TGE8P15gjaKjwmWI2oFCKQ7GDVQX84aI8Kdz2C8ZzVOVnbFccJFYom4PA3bZ46K9XKyHlaM19omNPBs4CKCwT0wp5kYmH4dW36Ubjs0gKaQpLg8kM31PO7U4pnegQogqL8EmA21rkpqVO8D8MSAHWu1HdeSmBewJpYQBh9VeDEXC3XPtUtJaUxBQD1r80qZGmzFHkmWBoNmb9qmO8iygVMRDwAZJb_3nOmZunwhOU_meBhdlFPp0VqztJZrMCttXHJxwCsoHPkrjNhTJrdPhC7xFw-L8zxeVedSxzQZodCzX81hQZN9UT-cbNL4oWEjjZJrU33Ba_AuNCw2wbR0VjIufVbrf8t_g9d3L363s8Ey7O_n70NXX-1r1UwjRwZuw5dvT-IqLUWgMHMyX3hY0ldMXN5MA6lmw58TLfdJczbAYu_NB7pQCLc9mwxOv__u0]--></g></svg>