<?xml version="1.0" encoding="us-ascii" standalone="no"?><svg xmlns="http://www.w3.org/2000/svg" xmlns:xlink="http://www.w3.org/1999/xlink" contentStyleType="text/css" height="417px" preserveAspectRatio="none" style="width:374px;height:417px;background:#FFFFFF;" version="1.1" viewBox="0 0 374 417" width="374px" zoomAndPan="magnify"><defs/><g><text fill="#000000" font-family="sans-serif" font-size="14" font-weight="bold" lengthAdjust="spacing" textLength="228" x="72.25" y="27.6738">System Sequence Diagram (SSD)</text><rect fill="#FFFFFF" height="201.1875" style="stroke:#181818;stroke-width:1.0;" width="10" x="69.5" y="127.2813"/><rect fill="#FFFFFF" height="28.5234" style="stroke:#181818;stroke-width:1.0;" width="10" x="331.5" y="147.8047"/><rect fill="#FFFFFF" height="28.5234" style="stroke:#181818;stroke-width:1.0;" width="10" x="331.5" y="233.8984"/><rect fill="#FFFFFF" height="28.5234" style="stroke:#181818;stroke-width:1.0;" width="10" x="331.5" y="290.9453"/><line style="stroke:#181818;stroke-width:0.5;stroke-dasharray:5.0,5.0;" x1="74" x2="74" y1="117.2813" y2="337.4688"/><line style="stroke:#181818;stroke-width:0.5;stroke-dasharray:5.0,5.0;" x1="336.5" x2="336.5" y1="117.2813" y2="337.4688"/><text fill="#000000" font-family="sans-serif" font-size="14" lengthAdjust="spacing" textLength="133" x="5" y="114.3145">System Administrator</text><ellipse cx="74.5" cy="50.1406" fill="#E3E3E3" rx="8" ry="8" style="stroke:#181818;stroke-width:0.5;"/><path d="M74.5,58.1406 L74.5,85.1406 M61.5,66.1406 L87.5,66.1406 M74.5,85.1406 L61.5,100.1406 M74.5,85.1406 L87.5,100.1406 " fill="none" style="stroke:#181818;stroke-width:0.5;"/><text fill="#000000" font-family="sans-serif" font-size="14" lengthAdjust="spacing" textLength="133" x="5" y="349.1426">System Administrator</text><ellipse cx="74.5" cy="360.6094" fill="#E3E3E3" rx="8" ry="8" style="stroke:#181818;stroke-width:0.5;"/><path d="M74.5,368.6094 L74.5,395.6094 M61.5,376.6094 L87.5,376.6094 M74.5,395.6094 L61.5,410.6094 M74.5,395.6094 L87.5,410.6094 " fill="none" style="stroke:#181818;stroke-width:0.5;"/><rect fill="#E3E3E3" height="29.6406" rx="2.5" ry="2.5" style="stroke:#181818;stroke-width:0.5;" width="64" x="304.5" y="86.6406"/><text fill="#000000" font-family="sans-serif" font-size="14" lengthAdjust="spacing" textLength="50" x="311.5" y="106.3145">:System</text><rect fill="#E3E3E3" height="29.6406" rx="2.5" ry="2.5" style="stroke:#181818;stroke-width:0.5;" width="64" x="304.5" y="336.4688"/><text fill="#000000" font-family="sans-serif" font-size="14" lengthAdjust="spacing" textLength="50" x="311.5" y="356.1426">:System</text><rect fill="#FFFFFF" height="201.1875" style="stroke:#181818;stroke-width:1.0;" width="10" x="69.5" y="127.2813"/><rect fill="#FFFFFF" height="28.5234" style="stroke:#181818;stroke-width:1.0;" width="10" x="331.5" y="147.8047"/><rect fill="#FFFFFF" height="28.5234" style="stroke:#181818;stroke-width:1.0;" width="10" x="331.5" y="233.8984"/><rect fill="#FFFFFF" height="28.5234" style="stroke:#181818;stroke-width:1.0;" width="10" x="331.5" y="290.9453"/><polygon fill="#181818" points="319.5,143.8047,329.5,147.8047,319.5,151.8047,323.5,147.8047" style="stroke:#181818;stroke-width:1.0;"/><line style="stroke:#181818;stroke-width:1.0;" x1="79.5" x2="325.5" y1="147.8047" y2="147.8047"/><text fill="#000000" font-family="sans-serif" font-size="13" font-weight="bold" lengthAdjust="spacing" textLength="7" x="86.5" y="143.0498">1</text><text fill="#000000" font-family="sans-serif" font-size="13" lengthAdjust="spacing" textLength="154" x="97.5" y="143.0498">asks to create a new store</text><polygon fill="#181818" points="90.5,172.3281,80.5,176.3281,90.5,180.3281,86.5,176.3281" style="stroke:#181818;stroke-width:1.0;"/><line style="stroke:#181818;stroke-width:1.0;stroke-dasharray:2.0,2.0;" x1="84.5" x2="335.5" y1="176.3281" y2="176.3281"/><text fill="#000000" font-family="sans-serif" font-size="13" font-weight="bold" lengthAdjust="spacing" textLength="7" x="96.5" y="171.5732">2</text><text fill="#000000" font-family="sans-serif" font-size="13" lengthAdjust="spacing" textLength="79" x="107.5" y="171.5732">requests data</text><polygon fill="#181818" points="319.5,229.8984,329.5,233.8984,319.5,237.8984,323.5,233.8984" style="stroke:#181818;stroke-width:1.0;"/><line style="stroke:#181818;stroke-width:1.0;" x1="79.5" x2="325.5" y1="233.8984" y2="233.8984"/><text fill="#000000" font-family="sans-serif" font-size="13" font-weight="bold" lengthAdjust="spacing" textLength="7" x="86.5" y="214.6201">3</text><text fill="#000000" font-family="sans-serif" font-size="13" lengthAdjust="spacing" textLength="218" x="97.5" y="200.0967">types requested data (id, designation,</text><text fill="#000000" font-family="sans-serif" font-size="13" lengthAdjust="spacing" textLength="163" x="97.5" y="214.6201">location, e-mail address and</text><text fill="#000000" font-family="sans-serif" font-size="13" lengthAdjust="spacing" textLength="154" x="97.5" y="229.1436">contact telephone number)</text><polygon fill="#181818" points="90.5,258.4219,80.5,262.4219,90.5,266.4219,86.5,262.4219" style="stroke:#181818;stroke-width:1.0;"/><line style="stroke:#181818;stroke-width:1.0;stroke-dasharray:2.0,2.0;" x1="84.5" x2="335.5" y1="262.4219" y2="262.4219"/><text fill="#000000" font-family="sans-serif" font-size="13" font-weight="bold" lengthAdjust="spacing" textLength="7" x="96.5" y="257.667">4</text><text fill="#000000" font-family="sans-serif" font-size="13" lengthAdjust="spacing" textLength="102" x="107.5" y="257.667">shows typed data</text><polygon fill="#181818" points="319.5,286.9453,329.5,290.9453,319.5,294.9453,323.5,290.9453" style="stroke:#181818;stroke-width:1.0;"/><line style="stroke:#181818;stroke-width:1.0;" x1="79.5" x2="325.5" y1="290.9453" y2="290.9453"/><text fill="#000000" font-family="sans-serif" font-size="13" font-weight="bold" lengthAdjust="spacing" textLength="7" x="86.5" y="286.1904">5</text><text fill="#000000" font-family="sans-serif" font-size="13" lengthAdjust="spacing" textLength="75" x="97.5" y="286.1904">submits data</text><polygon fill="#181818" points="90.5,315.4688,80.5,319.4688,90.5,323.4688,86.5,319.4688" style="stroke:#181818;stroke-width:1.0;"/><line style="stroke:#181818;stroke-width:1.0;stroke-dasharray:2.0,2.0;" x1="84.5" x2="335.5" y1="319.4688" y2="319.4688"/><text fill="#000000" font-family="sans-serif" font-size="13" font-weight="bold" lengthAdjust="spacing" textLength="7" x="96.5" y="314.7139">6</text><text fill="#000000" font-family="sans-serif" font-size="13" lengthAdjust="spacing" textLength="149" x="107.5" y="314.7139">Shows operation success</text><!--SRC=[fP71Ri8m38RlUGgB4qZm0ZrCciGRzBgBIRnYqJXTx0xnzZEb8E2mIImdo_R_-RUZ1vO1AsR8HKhSrv89h8uKz5OPC1wmezPEFK6bQ2XTVz-WUqpboDB19_PA8HYRjxOdDShGqjT84WcsZDsvVTcssrK8E5gHCU-eUXojL5ZCYlUKMLYjecSNWFgO2JxLEFA0Oh1eBgAfxHA6YSVVQFGa3E3l8GMRjwlFnWa71IiGAvsr2497KE-YINY3pcDWVhD-uwX7TkFNyjtL518QtWI9db5_6BFJG7g5KPfeiEIqTfHo9sXSP0qVqfSunxJ9o3rWIfLK0ILvEHOn7mr6FGtx8WIN3rYzj5_Z7r-EEhbB_znGnrtc-pkzSEnsSbC6gjCDd1cZx_wBgHy0]--></g></svg>