<?xml version="1.0" encoding="us-ascii" standalone="no"?><svg xmlns="http://www.w3.org/2000/svg" xmlns:xlink="http://www.w3.org/1999/xlink" contentStyleType="text/css" height="422.1px" preserveAspectRatio="none" style="width:261px;height:422px;background:#FFFFFF;" version="1.1" viewBox="0 0 261 422" width="261.8px" zoomAndPan="magnify"><defs/><g><text fill="#000000" font-family="sans-serif" font-size="9.8" font-weight="bold" lengthAdjust="spacing" textLength="159.6" x="50.575" y="19.3717">System Sequence Diagram (SSD)</text><rect fill="#FFFFFF" height="270.7961" style="stroke:#181818;stroke-width:0.6999999999999998;" width="7" x="48.65" y="89.0969"/><rect fill="#FFFFFF" height="19.9664" style="stroke:#181818;stroke-width:0.6999999999999998;" width="7" x="232.05" y="103.4633"/><rect fill="#FFFFFF" height="19.9664" style="stroke:#181818;stroke-width:0.6999999999999998;" width="7" x="232.05" y="173.8953"/><rect fill="#FFFFFF" height="19.9664" style="stroke:#181818;stroke-width:0.6999999999999998;" width="7" x="232.05" y="213.8281"/><rect fill="#FFFFFF" height="19.9664" style="stroke:#181818;stroke-width:0.6999999999999998;" width="7" x="232.05" y="253.7609"/><rect fill="#FFFFFF" height="19.9664" style="stroke:#181818;stroke-width:0.6999999999999998;" width="7" x="232.05" y="293.6937"/><rect fill="#FFFFFF" height="19.9664" style="stroke:#181818;stroke-width:0.6999999999999998;" width="7" x="232.05" y="333.6266"/><line style="stroke:#181818;stroke-width:0.3499999999999999;stroke-dasharray:5.0,5.0;" x1="51.8" x2="51.8" y1="82.0969" y2="366.193"/><line style="stroke:#181818;stroke-width:0.3499999999999999;stroke-dasharray:5.0,5.0;" x1="235.55" x2="235.55" y1="82.0969" y2="366.193"/><text fill="#000000" font-family="sans-serif" font-size="9.8" lengthAdjust="spacing" textLength="93.1" x="3.5" y="80.0201">System Administrator</text><ellipse cx="52.15" cy="35.0984" fill="#E3E3E3" rx="5.6" ry="5.6" style="stroke:#181818;stroke-width:0.3499999999999999;"/><path d="M52.15,40.6984 L52.15,59.5984 M43.05,46.2984 L61.25,46.2984 M52.15,59.5984 L43.05,70.0984 M52.15,59.5984 L61.25,70.0984 " fill="none" style="stroke:#181818;stroke-width:0.3499999999999999;"/><text fill="#000000" font-family="sans-serif" font-size="9.8" lengthAdjust="spacing" textLength="93.1" x="3.5" y="374.3646">System Administrator</text><ellipse cx="52.15" cy="382.3914" fill="#E3E3E3" rx="5.6" ry="5.6" style="stroke:#181818;stroke-width:0.3499999999999999;"/><path d="M52.15,387.9914 L52.15,406.8914 M43.05,393.5914 L61.25,393.5914 M52.15,406.8914 L43.05,417.3914 M52.15,406.8914 L61.25,417.3914 " fill="none" style="stroke:#181818;stroke-width:0.3499999999999999;"/><rect fill="#E3E3E3" height="20.7484" rx="1.75" ry="1.75" style="stroke:#181818;stroke-width:0.3499999999999999;" width="44.8" x="213.15" y="60.6484"/><text fill="#000000" font-family="sans-serif" font-size="9.8" lengthAdjust="spacing" textLength="35" x="218.05" y="74.4201">:System</text><rect fill="#E3E3E3" height="20.7484" rx="1.75" ry="1.75" style="stroke:#181818;stroke-width:0.3499999999999999;" width="44.8" x="213.15" y="365.493"/><text fill="#000000" font-family="sans-serif" font-size="9.8" lengthAdjust="spacing" textLength="35" x="218.05" y="379.2646">:System</text><rect fill="#FFFFFF" height="270.7961" style="stroke:#181818;stroke-width:0.6999999999999998;" width="7" x="48.65" y="89.0969"/><rect fill="#FFFFFF" height="19.9664" style="stroke:#181818;stroke-width:0.6999999999999998;" width="7" x="232.05" y="103.4633"/><rect fill="#FFFFFF" height="19.9664" style="stroke:#181818;stroke-width:0.6999999999999998;" width="7" x="232.05" y="173.8953"/><rect fill="#FFFFFF" height="19.9664" style="stroke:#181818;stroke-width:0.6999999999999998;" width="7" x="232.05" y="213.8281"/><rect fill="#FFFFFF" height="19.9664" style="stroke:#181818;stroke-width:0.6999999999999998;" width="7" x="232.05" y="253.7609"/><rect fill="#FFFFFF" height="19.9664" style="stroke:#181818;stroke-width:0.6999999999999998;" width="7" x="232.05" y="293.6937"/><rect fill="#FFFFFF" height="19.9664" style="stroke:#181818;stroke-width:0.6999999999999998;" width="7" x="232.05" y="333.6266"/><polygon fill="#181818" points="223.65,100.6633,230.65,103.4633,223.65,106.2633,226.45,103.4633" style="stroke:#181818;stroke-width:0.6999999999999998;"/><line style="stroke:#181818;stroke-width:0.6999999999999998;" x1="55.65" x2="227.85" y1="103.4633" y2="103.4633"/><text fill="#000000" font-family="sans-serif" font-size="9.1" font-weight="bold" lengthAdjust="spacing" textLength="4.9" x="60.55" y="100.1349">1</text><text fill="#000000" font-family="sans-serif" font-size="9.1" lengthAdjust="spacing" textLength="107.8" x="68.25" y="100.1349">asks to create a new store</text><polygon fill="#181818" points="63.35,120.6297,56.35,123.4297,63.35,126.2297,60.55,123.4297" style="stroke:#181818;stroke-width:0.6999999999999998;"/><line style="stroke:#181818;stroke-width:0.6999999999999998;stroke-dasharray:2.0,2.0;" x1="59.15" x2="234.85" y1="123.4297" y2="123.4297"/><text fill="#000000" font-family="sans-serif" font-size="9.1" font-weight="bold" lengthAdjust="spacing" textLength="4.9" x="67.55" y="120.1013">2</text><text fill="#000000" font-family="sans-serif" font-size="9.1" lengthAdjust="spacing" textLength="55.3" x="75.25" y="120.1013">requests data</text><polygon fill="#181818" points="223.65,171.0953,230.65,173.8953,223.65,176.6953,226.45,173.8953" style="stroke:#181818;stroke-width:0.6999999999999998;"/><line style="stroke:#181818;stroke-width:0.6999999999999998;" x1="55.65" x2="227.85" y1="173.8953" y2="173.8953"/><text fill="#000000" font-family="sans-serif" font-size="9.1" font-weight="bold" lengthAdjust="spacing" textLength="4.9" x="60.55" y="155.3173">3</text><text fill="#000000" font-family="sans-serif" font-size="9.1" lengthAdjust="spacing" textLength="152.6" x="68.25" y="140.0677">types requested data (id, designation,</text><text fill="#000000" font-family="sans-serif" font-size="9.1" lengthAdjust="spacing" textLength="62.3" x="68.25" y="150.2341">e-mail address,</text><text fill="#000000" font-family="sans-serif" font-size="9.1" lengthAdjust="spacing" textLength="107.8" x="68.25" y="160.4005">contact telephone number,</text><text fill="#000000" font-family="sans-serif" font-size="9.1" lengthAdjust="spacing" textLength="105.7" x="68.25" y="170.5669">port number and zip code)</text><polygon fill="#181818" points="63.35,191.0617,56.35,193.8617,63.35,196.6617,60.55,193.8617" style="stroke:#181818;stroke-width:0.6999999999999998;"/><line style="stroke:#181818;stroke-width:0.6999999999999998;stroke-dasharray:2.0,2.0;" x1="59.15" x2="234.85" y1="193.8617" y2="193.8617"/><text fill="#000000" font-family="sans-serif" font-size="9.1" font-weight="bold" lengthAdjust="spacing" textLength="4.9" x="67.55" y="190.5333">4</text><text fill="#000000" font-family="sans-serif" font-size="9.1" lengthAdjust="spacing" textLength="63.7" x="75.25" y="190.5333">shows state list</text><polygon fill="#181818" points="223.65,211.0281,230.65,213.8281,223.65,216.6281,226.45,213.8281" style="stroke:#181818;stroke-width:0.6999999999999998;"/><line style="stroke:#181818;stroke-width:0.6999999999999998;" x1="55.65" x2="227.85" y1="213.8281" y2="213.8281"/><text fill="#000000" font-family="sans-serif" font-size="9.1" font-weight="bold" lengthAdjust="spacing" textLength="4.9" x="60.55" y="210.4997">5</text><text fill="#000000" font-family="sans-serif" font-size="9.1" lengthAdjust="spacing" textLength="52.5" x="68.25" y="210.4997">selects state</text><polygon fill="#181818" points="63.35,230.9945,56.35,233.7945,63.35,236.5945,60.55,233.7945" style="stroke:#181818;stroke-width:0.6999999999999998;"/><line style="stroke:#181818;stroke-width:0.6999999999999998;stroke-dasharray:2.0,2.0;" x1="59.15" x2="234.85" y1="233.7945" y2="233.7945"/><text fill="#000000" font-family="sans-serif" font-size="9.1" font-weight="bold" lengthAdjust="spacing" textLength="4.9" x="67.55" y="230.4661">6</text><text fill="#000000" font-family="sans-serif" font-size="9.1" lengthAdjust="spacing" textLength="148.4" x="75.25" y="230.4661">shows selected state and district list</text><polygon fill="#181818" points="223.65,250.9609,230.65,253.7609,223.65,256.5609,226.45,253.7609" style="stroke:#181818;stroke-width:0.6999999999999998;"/><line style="stroke:#181818;stroke-width:0.6999999999999998;" x1="55.65" x2="227.85" y1="253.7609" y2="253.7609"/><text fill="#000000" font-family="sans-serif" font-size="9.1" font-weight="bold" lengthAdjust="spacing" textLength="4.9" x="60.55" y="250.4325">7</text><text fill="#000000" font-family="sans-serif" font-size="9.1" lengthAdjust="spacing" textLength="59.5" x="68.25" y="250.4325">selects district</text><polygon fill="#181818" points="63.35,270.9273,56.35,273.7273,63.35,276.5273,60.55,273.7273" style="stroke:#181818;stroke-width:0.6999999999999998;"/><line style="stroke:#181818;stroke-width:0.6999999999999998;stroke-dasharray:2.0,2.0;" x1="59.15" x2="234.85" y1="273.7273" y2="273.7273"/><text fill="#000000" font-family="sans-serif" font-size="9.1" font-weight="bold" lengthAdjust="spacing" textLength="4.9" x="67.55" y="270.3989">8</text><text fill="#000000" font-family="sans-serif" font-size="9.1" lengthAdjust="spacing" textLength="142.8" x="75.25" y="270.3989">shows selected district and city list</text><polygon fill="#181818" points="223.65,290.8937,230.65,293.6937,223.65,296.4937,226.45,293.6937" style="stroke:#181818;stroke-width:0.6999999999999998;"/><line style="stroke:#181818;stroke-width:0.6999999999999998;" x1="55.65" x2="227.85" y1="293.6937" y2="293.6937"/><text fill="#000000" font-family="sans-serif" font-size="9.1" font-weight="bold" lengthAdjust="spacing" textLength="4.9" x="60.55" y="290.3653">9</text><text fill="#000000" font-family="sans-serif" font-size="9.1" lengthAdjust="spacing" textLength="46.9" x="68.25" y="290.3653">selects city</text><polygon fill="#181818" points="63.35,310.8602,56.35,313.6602,63.35,316.4602,60.55,313.6602" style="stroke:#181818;stroke-width:0.6999999999999998;"/><line style="stroke:#181818;stroke-width:0.6999999999999998;stroke-dasharray:2.0,2.0;" x1="59.15" x2="234.85" y1="313.6602" y2="313.6602"/><text fill="#000000" font-family="sans-serif" font-size="9.1" font-weight="bold" lengthAdjust="spacing" textLength="9.8" x="67.55" y="310.3317">10</text><text fill="#000000" font-family="sans-serif" font-size="9.1" lengthAdjust="spacing" textLength="80.5" x="80.15" y="310.3317">shows selected city</text><polygon fill="#181818" points="223.65,330.8266,230.65,333.6266,223.65,336.4266,226.45,333.6266" style="stroke:#181818;stroke-width:0.6999999999999998;"/><line style="stroke:#181818;stroke-width:0.6999999999999998;" x1="55.65" x2="227.85" y1="333.6266" y2="333.6266"/><text fill="#000000" font-family="sans-serif" font-size="9.1" font-weight="bold" lengthAdjust="spacing" textLength="9.8" x="60.55" y="330.2981">11</text><text fill="#000000" font-family="sans-serif" font-size="9.1" lengthAdjust="spacing" textLength="52.5" x="73.15" y="330.2981">submits data</text><polygon fill="#181818" points="63.35,350.793,56.35,353.593,63.35,356.393,60.55,353.593" style="stroke:#181818;stroke-width:0.6999999999999998;"/><line style="stroke:#181818;stroke-width:0.6999999999999998;stroke-dasharray:2.0,2.0;" x1="59.15" x2="234.85" y1="353.593" y2="353.593"/><text fill="#000000" font-family="sans-serif" font-size="9.1" font-weight="bold" lengthAdjust="spacing" textLength="9.8" x="67.55" y="350.2646">12</text><text fill="#000000" font-family="sans-serif" font-size="9.1" lengthAdjust="spacing" textLength="104.3" x="80.15" y="350.2646">Shows operation success</text><!--SRC=[hPF1Ri8m38RlVGgB4qZm0ZrCciGRzBgBbtZ5easws1rYJp-dj1MWQKYiEIME_o-_BKUE73fCs48RGtI755i2JJqLCjzqw8vOKwNdXY2HKmnrSvqW1_JnnA663so4Ya9PBRKwYr8B5Nts51p1dh7EwUkgsc-A0dkDeM_VATdUQKom6XMllkN0eWajkWAKsqXXhoexxZ0ehCgBQ4YxR8k1nr-eT2SimDPD27Olay_I24S1ZU0IPIr2e1E8PT4WdA7ZCp2kKRypr2sxj6vPxQ827XLdWQTxr0DZUkv89XZvWGPhzbj32TS1bMFOmbkWNOlS07gVI2H7N0nghu5IGzqX1e9Bp_DT5vEEHy3WuPixSD7JvgboIvk3U19hM1Or5dwoO0EPMQSZwdzc1fArxE8gL-bp3bjB5h4uqPPnENlBHXthUHcJcRICmPdqkvtfvi4yI__UylMlUE9hLOEns54Qfj-OpjdC_s7k1m00]--></g></svg>