<?xml version="1.0" encoding="UTF-8" standalone="no"?><svg xmlns="http://www.w3.org/2000/svg" xmlns:xlink="http://www.w3.org/1999/xlink" contentStyleType="text/css" height="506px" preserveAspectRatio="none" style="width:576px;height:506px;background:#FFFFFF;" version="1.1" viewBox="0 0 576 506" width="576px" zoomAndPan="magnify"><defs/><g><text fill="#000000" font-family="sans-serif" font-size="14" font-weight="bold" lengthAdjust="spacing" textLength="231" x="171.75" y="28.5352">System Sequence Diagram (SSD)</text><rect fill="#FFFFFF" height="264.4375" style="stroke:#181818;stroke-width:1.0;" width="10" x="106.5" y="136.043"/><rect fill="#FFFFFF" height="37.5547" style="stroke:#181818;stroke-width:1.0;" width="10" x="521.5" y="165.5977"/><rect fill="#FFFFFF" height="37.5547" style="stroke:#181818;stroke-width:1.0;" width="10" x="521.5" y="287.8164"/><rect fill="#FFFFFF" height="37.5547" style="stroke:#181818;stroke-width:1.0;" width="10" x="521.5" y="362.9258"/><line style="stroke:#181818;stroke-width:0.5;stroke-dasharray:5.0,5.0;" x1="111" x2="111" y1="126.043" y2="418.4805"/><line style="stroke:#181818;stroke-width:0.5;stroke-dasharray:5.0,5.0;" x1="526.5" x2="526.5" y1="126.043" y2="418.4805"/><text fill="#000000" font-family="sans-serif" font-size="20" lengthAdjust="spacing" textLength="207" x="5" y="121.8242">System Administrator</text><ellipse cx="111.5" cy="50.9883" fill="#E3E3E3" rx="8" ry="8" style="stroke:#181818;stroke-width:0.5;"/><path d="M111.5,58.9883 L111.5,85.9883 M98.5,66.9883 L124.5,66.9883 M111.5,85.9883 L98.5,100.9883 M111.5,85.9883 L124.5,100.9883 " fill="none" style="stroke:#181818;stroke-width:0.5;"/><text fill="#000000" font-family="sans-serif" font-size="20" lengthAdjust="spacing" textLength="207" x="5" y="436.8164">System Administrator</text><ellipse cx="111.5" cy="449.5352" fill="#E3E3E3" rx="8" ry="8" style="stroke:#181818;stroke-width:0.5;"/><path d="M111.5,457.5352 L111.5,484.5352 M98.5,465.5352 L124.5,465.5352 M111.5,484.5352 L98.5,499.5352 M111.5,484.5352 L124.5,499.5352 " fill="none" style="stroke:#181818;stroke-width:0.5;"/><rect fill="#E3E3E3" height="37.5547" rx="2.5" ry="2.5" style="stroke:#181818;stroke-width:0.5;" width="88" x="482.5" y="87.4883"/><text fill="#000000" font-family="sans-serif" font-size="20" lengthAdjust="spacing" textLength="74" x="489.5" y="113.8242">:System</text><rect fill="#E3E3E3" height="37.5547" rx="2.5" ry="2.5" style="stroke:#181818;stroke-width:0.5;" width="88" x="482.5" y="417.4805"/><text fill="#000000" font-family="sans-serif" font-size="20" lengthAdjust="spacing" textLength="74" x="489.5" y="443.8164">:System</text><rect fill="#FFFFFF" height="264.4375" style="stroke:#181818;stroke-width:1.0;" width="10" x="106.5" y="136.043"/><rect fill="#FFFFFF" height="37.5547" style="stroke:#181818;stroke-width:1.0;" width="10" x="521.5" y="165.5977"/><rect fill="#FFFFFF" height="37.5547" style="stroke:#181818;stroke-width:1.0;" width="10" x="521.5" y="287.8164"/><rect fill="#FFFFFF" height="37.5547" style="stroke:#181818;stroke-width:1.0;" width="10" x="521.5" y="362.9258"/><polygon fill="#181818" points="509.5,161.5977,519.5,165.5977,509.5,169.5977,513.5,165.5977" style="stroke:#181818;stroke-width:1.0;"/><line style="stroke:#181818;stroke-width:1.0;" x1="116.5" x2="515.5" y1="165.5977" y2="165.5977"/><text fill="#000000" font-family="sans-serif" font-size="20" font-weight="bold" lengthAdjust="spacing" textLength="13" x="123.5" y="159.3789">1</text><text fill="#000000" font-family="sans-serif" font-size="20" lengthAdjust="spacing" textLength="247" x="140.5" y="159.3789">asks to create a new store</text><polygon fill="#181818" points="127.5,199.1523,117.5,203.1523,127.5,207.1523,123.5,203.1523" style="stroke:#181818;stroke-width:1.0;"/><line style="stroke:#181818;stroke-width:1.0;stroke-dasharray:2.0,2.0;" x1="121.5" x2="525.5" y1="203.1523" y2="203.1523"/><text fill="#000000" font-family="sans-serif" font-size="20" font-weight="bold" lengthAdjust="spacing" textLength="13" x="133.5" y="196.9336">2</text><text fill="#000000" font-family="sans-serif" font-size="20" lengthAdjust="spacing" textLength="130" x="150.5" y="196.9336">requests data</text><polygon fill="#181818" points="509.5,283.8164,519.5,287.8164,509.5,291.8164,513.5,287.8164" style="stroke:#181818;stroke-width:1.0;"/><line style="stroke:#181818;stroke-width:1.0;" x1="116.5" x2="515.5" y1="287.8164" y2="287.8164"/><text fill="#000000" font-family="sans-serif" font-size="20" font-weight="bold" lengthAdjust="spacing" textLength="13" x="123.5" y="258.043">3</text><text fill="#000000" font-family="sans-serif" font-size="20" lengthAdjust="spacing" textLength="363" x="140.5" y="234.4883">types requested data (id, designation,</text><text fill="#000000" font-family="sans-serif" font-size="20" lengthAdjust="spacing" textLength="277" x="140.5" y="258.043">location, e-mail address and</text><text fill="#000000" font-family="sans-serif" font-size="20" lengthAdjust="spacing" textLength="258" x="140.5" y="281.5977">contact telephone number)</text><polygon fill="#181818" points="127.5,321.3711,117.5,325.3711,127.5,329.3711,123.5,325.3711" style="stroke:#181818;stroke-width:1.0;"/><line style="stroke:#181818;stroke-width:1.0;stroke-dasharray:2.0,2.0;" x1="121.5" x2="525.5" y1="325.3711" y2="325.3711"/><text fill="#000000" font-family="sans-serif" font-size="20" font-weight="bold" lengthAdjust="spacing" textLength="13" x="133.5" y="319.1523">4</text><text fill="#000000" font-family="sans-serif" font-size="20" lengthAdjust="spacing" textLength="167" x="150.5" y="319.1523">shows typed data</text><polygon fill="#181818" points="509.5,358.9258,519.5,362.9258,509.5,366.9258,513.5,362.9258" style="stroke:#181818;stroke-width:1.0;"/><line style="stroke:#181818;stroke-width:1.0;" x1="116.5" x2="515.5" y1="362.9258" y2="362.9258"/><text fill="#000000" font-family="sans-serif" font-size="20" font-weight="bold" lengthAdjust="spacing" textLength="13" x="123.5" y="356.707">5</text><text fill="#000000" font-family="sans-serif" font-size="20" lengthAdjust="spacing" textLength="125" x="140.5" y="356.707">submits data</text><polygon fill="#181818" points="122.5,396.4805,112.5,400.4805,122.5,404.4805,118.5,400.4805" style="stroke:#181818;stroke-width:1.0;"/><line style="stroke:#181818;stroke-width:1.0;stroke-dasharray:2.0,2.0;" x1="116.5" x2="525.5" y1="400.4805" y2="400.4805"/><text fill="#000000" font-family="sans-serif" font-size="20" font-weight="bold" lengthAdjust="spacing" textLength="13" x="128.5" y="394.2617">6</text><text fill="#000000" font-family="sans-serif" font-size="20" lengthAdjust="spacing" textLength="237" x="145.5" y="394.2617">Shows operation success</text><!--SRC=[fLB1QiCm3BtxAqHFBRGmTinXC1ZxWLntKMqr5Odjp59Mkg-VcgQbwM63pYSXlVVq95bQJZqMZ5tsBGK8jCEXq_USjEPlWkSd9nS8n9ootvSS2RGCT5FfqRVOKAt7Zg2GLqnDTmkGFOPyuDJ03ZiXvvJLeFLHb2BKz3bGyWHlZCq9lgphjvLpE6XEGznIiTXhBh2O6AyXScBHWfPT0CeyuwohikSUayAYEfD6s3bqenv_eT8TqO6zMGesBnUVbIcq0fh15pfn4H8TG0n58_4gEhM1wKtyZKdDjIlRbiqkAX1GyKe8T2_rXp4zzYGNiTCXJGsM7DOc9TmaLCvf3H_93Zt5j8d87M08XKG0Kx2ojyjRQr3ggD_dH70-mEgX-IexV3x8w2xySq8Pjf5lz_J0iklHJUwfZ3imJUzjzjzCtQJcF-K7]--></g></svg>