<?xml version="1.0" encoding="us-ascii" standalone="no"?><svg xmlns="http://www.w3.org/2000/svg" xmlns:xlink="http://www.w3.org/1999/xlink" contentStyleType="text/css" height="436px" preserveAspectRatio="none" style="width:956px;height:436px;background:#FFFFFF;" version="1.1" viewBox="0 0 956 436" width="956px" zoomAndPan="magnify"><defs/><g><!--class Agent--><g id="elem_Agent"><rect codeLine="17" fill="#F1F1F1" height="67.4648" id="Agent" rx="2.5" ry="2.5" style="stroke:#181818;stroke-width:0.5;" width="78" x="111" y="192.69"/><text fill="#000000" font-family="sans-serif" font-size="14" lengthAdjust="spacing" textLength="41" x="129.5" y="211.2252">Agent</text><line style="stroke:#181818;stroke-width:0.5;" x1="112" x2="188" y1="219.1783" y2="219.1783"/><text fill="#000000" font-family="sans-serif" font-size="14" lengthAdjust="spacing" textLength="57" x="117" y="236.7134">id/email</text><text fill="#000000" font-family="sans-serif" font-size="14" lengthAdjust="spacing" textLength="66" x="117" y="253.2017">password</text></g><!--class RequestList--><g id="elem_RequestList"><rect codeLine="22" fill="#F1F1F1" height="67.4648" id="RequestList" rx="2.5" ry="2.5" style="stroke:#181818;stroke-width:0.5;" width="84" x="575" y="353.64"/><text fill="#000000" font-family="sans-serif" font-size="14" lengthAdjust="spacing" textLength="78" x="578" y="372.1752">RequestList</text><line style="stroke:#181818;stroke-width:0.5;" x1="576" x2="658" y1="380.1283" y2="380.1283"/><text fill="#000000" font-family="sans-serif" font-size="14" lengthAdjust="spacing" textLength="30" x="581" y="397.6634">date</text><text fill="#000000" font-family="sans-serif" font-size="14" lengthAdjust="spacing" textLength="59" x="581" y="414.1517">property</text></g><!--class Owner--><g id="elem_Owner"><rect codeLine="28" fill="#F1F1F1" height="34.4883" id="Owner" rx="2.5" ry="2.5" style="stroke:#181818;stroke-width:0.5;" width="51" x="670.5" y="39.98"/><text fill="#000000" font-family="sans-serif" font-size="14" lengthAdjust="spacing" textLength="45" x="673.5" y="58.5152">Owner</text><line style="stroke:#181818;stroke-width:0.5;" x1="671.5" x2="720.5" y1="66.4683" y2="66.4683"/></g><!--class Location--><g id="elem_Location"><rect codeLine="30" fill="#F1F1F1" height="100.4414" id="Location" rx="2.5" ry="2.5" style="stroke:#181818;stroke-width:0.5;" width="70" x="486" y="7"/><text fill="#000000" font-family="sans-serif" font-size="14" lengthAdjust="spacing" textLength="58" x="492" y="25.5352">Location</text><line style="stroke:#181818;stroke-width:0.5;" x1="487" x2="555" y1="33.4883" y2="33.4883"/><text fill="#000000" font-family="sans-serif" font-size="14" lengthAdjust="spacing" textLength="39" x="492" y="51.0234">street</text><text fill="#000000" font-family="sans-serif" font-size="14" lengthAdjust="spacing" textLength="23" x="492" y="67.5117">city</text><text fill="#000000" font-family="sans-serif" font-size="14" lengthAdjust="spacing" textLength="33" x="492" y="84">state</text><text fill="#000000" font-family="sans-serif" font-size="14" lengthAdjust="spacing" textLength="58" x="492" y="100.4883">zip code</text></g><!--class Property--><g id="elem_Property"><rect codeLine="37" fill="#F1F1F1" height="83.9531" id="Property" rx="2.5" ry="2.5" style="stroke:#181818;stroke-width:0.5;" width="218" x="430" y="184.44"/><text fill="#000000" font-family="sans-serif" font-size="14" lengthAdjust="spacing" textLength="58" x="510" y="202.9752">Property</text><line style="stroke:#181818;stroke-width:0.5;" x1="431" x2="647" y1="210.9283" y2="210.9283"/><text fill="#000000" font-family="sans-serif" font-size="14" lengthAdjust="spacing" textLength="30" x="436" y="228.4634">area</text><text fill="#000000" font-family="sans-serif" font-size="14" lengthAdjust="spacing" textLength="55" x="436" y="244.9517">location</text><text fill="#000000" font-family="sans-serif" font-size="14" lengthAdjust="spacing" textLength="206" x="436" y="261.44">distance_from_the_city_center</text></g><!--class Announcement--><g id="elem_Announcement"><rect codeLine="43" fill="#F1F1F1" height="83.9531" id="Announcement" rx="2.5" ry="2.5" style="stroke:#181818;stroke-width:0.5;" width="111" x="261.5" y="345.4"/><text fill="#000000" font-family="sans-serif" font-size="14" lengthAdjust="spacing" textLength="105" x="264.5" y="363.9352">Announcement</text><line style="stroke:#181818;stroke-width:0.5;" x1="262.5" x2="371.5" y1="371.8883" y2="371.8883"/><text fill="#000000" font-family="sans-serif" font-size="14" lengthAdjust="spacing" textLength="59" x="267.5" y="389.4234">property</text><text fill="#000000" font-family="sans-serif" font-size="14" lengthAdjust="spacing" textLength="77" x="267.5" y="405.9117">description</text><text fill="#000000" font-family="sans-serif" font-size="14" lengthAdjust="spacing" textLength="69" x="267.5" y="422.4">comission</text></g><!--class Agency--><g id="elem_Agency"><rect fill="#F1F1F1" height="34.4883" id="Agency" rx="2.5" ry="2.5" style="stroke:#181818;stroke-width:0.5;" width="56" x="7" y="370.13"/><text fill="#000000" font-family="sans-serif" font-size="14" lengthAdjust="spacing" textLength="50" x="10" y="388.6652">Agency</text><line style="stroke:#181818;stroke-width:0.5;" x1="8" x2="62" y1="396.6183" y2="396.6183"/></g><!--link Agent to Agency--><g id="link_Agent_Agency"><path codeLine="49" d="M110.58,239.53 C83.19,250.24 48.71,268.85 32,298.4 C19.44,320.61 24.54,351.28 29.61,369.92 " fill="none" id="Agent-Agency" style="stroke:#181818;stroke-width:1.0;"/><polygon fill="#000000" points="34.3623,311.3029,41.6307,305.1693,36.6373,302.0684,34.3623,311.3029" style="stroke:#000000;stroke-width:1.0;"/><text fill="#000000" font-family="sans-serif" font-size="13" lengthAdjust="spacing" textLength="60" x="46" y="311.9684">works for</text><text fill="#000000" font-family="sans-serif" font-size="13" lengthAdjust="spacing" textLength="22" x="80.8594" y="237.9808">1..*</text><text fill="#000000" font-family="sans-serif" font-size="13" lengthAdjust="spacing" textLength="8" x="18.4996" y="359.2737">1</text></g><!--link Owner to RequestList--><g id="link_Owner_RequestList"><path codeLine="50" d="M699.81,74.82 C708.67,117.15 727.19,231.74 690,315.4 C683.18,330.74 671.37,344.47 659.21,355.67 " fill="none" id="Owner-RequestList" style="stroke:#181818;stroke-width:1.0;"/><polygon fill="#000000" points="716.2846,231.5238,720.4874,222.9923,714.6701,222.1513,716.2846,231.5238" style="stroke:#000000;stroke-width:1.0;"/><text fill="#000000" font-family="sans-serif" font-size="13" lengthAdjust="spacing" textLength="222" x="726" y="231.4884">request a property announcment to</text><text fill="#000000" font-family="sans-serif" font-size="13" lengthAdjust="spacing" textLength="8" x="691.7518" y="95.1215">1</text><text fill="#000000" font-family="sans-serif" font-size="13" lengthAdjust="spacing" textLength="8" x="666.8635" y="346.7712">1</text></g><!--link Agent to RequestList--><g id="link_Agent_RequestList"><path codeLine="51" d="M189.33,256.99 C219.74,279.37 259.65,307.55 278,315.4 C305.12,327 489.88,362.53 574.65,378.48 " fill="none" id="Agent-RequestList" style="stroke:#181818;stroke-width:1.0;"/><polygon fill="#000000" points="287.7686,308.5588,280.0259,303.036,278.2584,308.6418,287.7686,308.5588" style="stroke:#000000;stroke-width:1.0;"/><text fill="#000000" font-family="sans-serif" font-size="13" lengthAdjust="spacing" textLength="140" x="292" y="311.9684">selects a request from</text><text fill="#000000" font-family="sans-serif" font-size="13" lengthAdjust="spacing" textLength="8" x="197.0482" y="258.6949">1</text><text fill="#000000" font-family="sans-serif" font-size="13" lengthAdjust="spacing" textLength="8" x="558.9733" y="373.3591">1</text></g><!--link Property to Announcement--><g id="link_Property_Announcement"><path codeLine="52" d="M497.25,268.46 C480.44,284.01 460.46,301.34 441,315.4 C419.69,330.8 394.77,345.61 372.88,357.69 " fill="none" id="Property-Announcement" style="stroke:#181818;stroke-width:1.0;"/><polygon fill="#000000" points="460.9374,309.97,469.9999,307.0851,466.5735,302.3093,460.9374,309.97" style="stroke:#000000;stroke-width:1.0;"/><text fill="#000000" font-family="sans-serif" font-size="13" lengthAdjust="spacing" textLength="82" x="474" y="311.9684">is needed for</text><text fill="#000000" font-family="sans-serif" font-size="13" lengthAdjust="spacing" textLength="8" x="481.9586" y="288.9491">1</text><text fill="#000000" font-family="sans-serif" font-size="13" lengthAdjust="spacing" textLength="8" x="380.5521" y="350.5137">1</text></g><!--link Property to RequestList--><g id="link_Property_RequestList"><path codeLine="53" d="M562.49,268.77 C567.75,278.41 573.2,288.7 578,298.4 C586.9,316.36 596.02,336.82 603.21,353.48 " fill="none" id="Property-RequestList" style="stroke:#181818;stroke-width:1.0;"/><polygon fill="#000000" points="592.1662,311.5617,590.8963,302.1363,585.5987,304.6828,592.1662,311.5617" style="stroke:#000000;stroke-width:1.0;"/><text fill="#000000" font-family="sans-serif" font-size="13" lengthAdjust="spacing" textLength="82" x="599" y="311.9684">is needed for</text><text fill="#000000" font-family="sans-serif" font-size="13" lengthAdjust="spacing" textLength="8" x="557.4744" y="288.9959">1</text><text fill="#000000" font-family="sans-serif" font-size="13" lengthAdjust="spacing" textLength="8" x="591.7076" y="342.9298">1</text></g><!--link Owner to Property--><g id="link_Owner_Property"><path codeLine="54" d="M683.32,74.79 C668.05,94.42 641.29,127.83 616,154.44 C606.61,164.33 596.11,174.51 585.96,183.97 " fill="none" id="Owner-Property" style="stroke:#181818;stroke-width:1.0;"/><polygon fill="#000000" points="630.6722,149.827,638.8857,145.0322,634.4987,141.1202,630.6722,149.827" style="stroke:#000000;stroke-width:1.0;"/><text fill="#000000" font-family="sans-serif" font-size="13" lengthAdjust="spacing" textLength="44" x="643" y="151.0084">owns a</text><text fill="#000000" font-family="sans-serif" font-size="13" lengthAdjust="spacing" textLength="8" x="670.2118" y="95.0823">1</text><text fill="#000000" font-family="sans-serif" font-size="13" lengthAdjust="spacing" textLength="22" x="569.6911" y="173.6029">1..*</text></g><!--link Location to Property--><g id="link_Location_Property"><path codeLine="55" d="M516.15,107.85 C515.57,122.88 515.82,139.39 518,154.44 C519.42,164.24 521.88,174.56 524.64,184.21 " fill="none" id="Location-Property" style="stroke:#181818;stroke-width:1.0;"/><text fill="#000000" font-family="sans-serif" font-size="13" lengthAdjust="spacing" textLength="92" x="519" y="151.0084">is needed for&gt;</text><text fill="#000000" font-family="sans-serif" font-size="13" lengthAdjust="spacing" textLength="8" x="507.0161" y="127.8861">1</text><text fill="#000000" font-family="sans-serif" font-size="13" lengthAdjust="spacing" textLength="8" x="513.5991" y="173.5714">1</text></g><!--link Agent to Announcement--><g id="link_Agent_Announcement"><path codeLine="57" d="M140.13,260.47 C136.88,278.15 136.41,299.5 147,315.4 C172.27,353.33 222.08,371.02 261.28,379.26 " fill="none" id="Agent-Announcement" style="stroke:#181818;stroke-width:1.0;"/><polygon fill="#000000" points="155.5701,310.5559,151.1693,302.1248,147.0541,306.3217,155.5701,310.5559" style="stroke:#000000;stroke-width:1.0;"/><text fill="#000000" font-family="sans-serif" font-size="13" lengthAdjust="spacing" textLength="80" x="161" y="311.9684">publishes an</text><text fill="#000000" font-family="sans-serif" font-size="13" lengthAdjust="spacing" textLength="8" x="129.5727" y="280.7273">1</text><text fill="#000000" font-family="sans-serif" font-size="13" lengthAdjust="spacing" textLength="22" x="231.5655" y="375.0406">1..*</text></g><!--SRC=[RPB1Rjim38RlV0eYbm03qcrN7m84s6L0XnNh0mIgnDX4PCcJ60Hfq7SV9Jkkq-vaIVx_Z-GlvIE7mIJJus3iqRJqB1TFcCYA2QqdoBCWTyR5CuSM3yPd0bXxEWXAnCHj9-Yuk3W6M9YiDpdlH1A_d8H-sXYU-PNm6q37Zj1oibgahdkIBhgiN67H7dx4td30Nz6HryDAmYTlv11JZrTO8suSPPjug5NNRm2ZQDTI45Mm-qhAy33ewJac1xC4_z3V4sLvv2nNS4O8XXG7Id8feadr-nmeAUXjsZz6QqgjAsH9H0AMLP-bs5zvGAkzljTuce0AG4IJo9IldnXbhPcfELZQ7rBizzBHlX3tLlkdz4xQXH1FAkl7kH3dNYja4KBPszXppkDE4MCQg-yF3rzMkDdeQbKJiXTiK5CvPjH44RSmZbl-Jx95I8s-YRf1CrT7C_PLsz9ti9rh_P-GoUiBoKguiShOQfkJKijeN4xS86SCH8xShTFFXhj2d_GV9gjHp8m6upcKhhPmk-2HM_GBrHrr2n-7hT2xcsfmEBrupXqfFIWU_W40]--></g></svg>