<?xml version="1.0" encoding="UTF-8" standalone="no"?><svg xmlns="http://www.w3.org/2000/svg" xmlns:xlink="http://www.w3.org/1999/xlink" contentStyleType="text/css" height="1005px" preserveAspectRatio="none" style="width:826px;height:1005px;background:#FFFFFF;" version="1.1" viewBox="0 0 826 1005" width="826px" zoomAndPan="magnify"><defs/><g><text fill="#000000" font-family="sans-serif" font-size="14" font-weight="bold" lengthAdjust="spacing" textLength="363" x="233" y="28.5352">System Sequence Diagram (SSD) - Alternative One</text><rect fill="#FFFFFF" height="772.2031" style="stroke:#181818;stroke-width:1.0;" width="10" x="49" y="136.043"/><rect fill="#FFFFFF" height="37.5547" style="stroke:#181818;stroke-width:1.0;" width="10" x="761" y="165.5977"/><rect fill="#FFFFFF" height="37.5547" style="stroke:#181818;stroke-width:1.0;" width="10" x="761" y="240.707"/><rect fill="#FFFFFF" height="37.5547" style="stroke:#181818;stroke-width:1.0;" width="10" x="761" y="315.8164"/><rect fill="#FFFFFF" height="78.6641" style="stroke:#181818;stroke-width:1.0;" width="10" x="761" y="438.0352"/><rect fill="#FFFFFF" height="37.5547" style="stroke:#181818;stroke-width:1.0;" width="10" x="761" y="554.2539"/><rect fill="#FFFFFF" height="119.6641" style="stroke:#181818;stroke-width:1.0;" width="10" x="761" y="629.3633"/><rect fill="#FFFFFF" height="37.5547" style="stroke:#181818;stroke-width:1.0;" width="10" x="761" y="786.582"/><rect fill="#FFFFFF" height="37.5547" style="stroke:#181818;stroke-width:1.0;" width="10" x="761" y="861.6914"/><rect fill="none" height="259.4375" style="stroke:#000000;stroke-width:1.5;" width="810" x="10" y="453.0352"/><line style="stroke:#181818;stroke-width:0.5;stroke-dasharray:5.0,5.0;" x1="54" x2="54" y1="126.043" y2="917.2461"/><line style="stroke:#181818;stroke-width:0.5;stroke-dasharray:5.0,5.0;" x1="766" x2="766" y1="126.043" y2="917.2461"/><text fill="#000000" font-family="sans-serif" font-size="20" lengthAdjust="spacing" textLength="62" x="20" y="121.8242">Owner</text><ellipse cx="54" cy="50.9883" fill="#E3E3E3" rx="8" ry="8" style="stroke:#181818;stroke-width:0.5;"/><path d="M54,58.9883 L54,85.9883 M41,66.9883 L67,66.9883 M54,85.9883 L41,100.9883 M54,85.9883 L67,100.9883 " fill="none" style="stroke:#181818;stroke-width:0.5;"/><text fill="#000000" font-family="sans-serif" font-size="20" lengthAdjust="spacing" textLength="62" x="20" y="935.582">Owner</text><ellipse cx="54" cy="948.3008" fill="#E3E3E3" rx="8" ry="8" style="stroke:#181818;stroke-width:0.5;"/><path d="M54,956.3008 L54,983.3008 M41,964.3008 L67,964.3008 M54,983.3008 L41,998.3008 M54,983.3008 L67,998.3008 " fill="none" style="stroke:#181818;stroke-width:0.5;"/><rect fill="#E3E3E3" height="37.5547" rx="2.5" ry="2.5" style="stroke:#181818;stroke-width:0.5;" width="88" x="722" y="87.4883"/><text fill="#000000" font-family="sans-serif" font-size="20" lengthAdjust="spacing" textLength="74" x="729" y="113.8242">:System</text><rect fill="#E3E3E3" height="37.5547" rx="2.5" ry="2.5" style="stroke:#181818;stroke-width:0.5;" width="88" x="722" y="916.2461"/><text fill="#000000" font-family="sans-serif" font-size="20" lengthAdjust="spacing" textLength="74" x="729" y="942.582">:System</text><rect fill="#FFFFFF" height="772.2031" style="stroke:#181818;stroke-width:1.0;" width="10" x="49" y="136.043"/><rect fill="#FFFFFF" height="37.5547" style="stroke:#181818;stroke-width:1.0;" width="10" x="761" y="165.5977"/><rect fill="#FFFFFF" height="37.5547" style="stroke:#181818;stroke-width:1.0;" width="10" x="761" y="240.707"/><rect fill="#FFFFFF" height="37.5547" style="stroke:#181818;stroke-width:1.0;" width="10" x="761" y="315.8164"/><rect fill="#FFFFFF" height="78.6641" style="stroke:#181818;stroke-width:1.0;" width="10" x="761" y="438.0352"/><rect fill="#FFFFFF" height="37.5547" style="stroke:#181818;stroke-width:1.0;" width="10" x="761" y="554.2539"/><rect fill="#FFFFFF" height="119.6641" style="stroke:#181818;stroke-width:1.0;" width="10" x="761" y="629.3633"/><rect fill="#FFFFFF" height="37.5547" style="stroke:#181818;stroke-width:1.0;" width="10" x="761" y="786.582"/><rect fill="#FFFFFF" height="37.5547" style="stroke:#181818;stroke-width:1.0;" width="10" x="761" y="861.6914"/><polygon fill="#181818" points="749,161.5977,759,165.5977,749,169.5977,753,165.5977" style="stroke:#181818;stroke-width:1.0;"/><line style="stroke:#181818;stroke-width:1.0;" x1="59" x2="755" y1="165.5977" y2="165.5977"/><text fill="#000000" font-family="sans-serif" font-size="20" font-weight="bold" lengthAdjust="spacing" textLength="13" x="66" y="159.3789">1</text><text fill="#000000" font-family="sans-serif" font-size="20" lengthAdjust="spacing" textLength="271" x="83" y="159.3789">asks to create a new request</text><polygon fill="#181818" points="70,199.1523,60,203.1523,70,207.1523,66,203.1523" style="stroke:#181818;stroke-width:1.0;"/><line style="stroke:#181818;stroke-width:1.0;stroke-dasharray:2.0,2.0;" x1="64" x2="765" y1="203.1523" y2="203.1523"/><text fill="#000000" font-family="sans-serif" font-size="20" font-weight="bold" lengthAdjust="spacing" textLength="13" x="76" y="196.9336">2</text><text fill="#000000" font-family="sans-serif" font-size="20" lengthAdjust="spacing" textLength="244" x="93" y="196.9336">shows type of request list</text><polygon fill="#181818" points="749,236.707,759,240.707,749,244.707,753,240.707" style="stroke:#181818;stroke-width:1.0;"/><line style="stroke:#181818;stroke-width:1.0;" x1="59" x2="755" y1="240.707" y2="240.707"/><text fill="#000000" font-family="sans-serif" font-size="20" font-weight="bold" lengthAdjust="spacing" textLength="13" x="66" y="234.4883">3</text><text fill="#000000" font-family="sans-serif" font-size="20" lengthAdjust="spacing" textLength="215" x="83" y="234.4883">selects type of request</text><polygon fill="#181818" points="70,274.2617,60,278.2617,70,282.2617,66,278.2617" style="stroke:#181818;stroke-width:1.0;"/><line style="stroke:#181818;stroke-width:1.0;stroke-dasharray:2.0,2.0;" x1="64" x2="765" y1="278.2617" y2="278.2617"/><text fill="#000000" font-family="sans-serif" font-size="20" font-weight="bold" lengthAdjust="spacing" textLength="13" x="76" y="272.043">4</text><text fill="#000000" font-family="sans-serif" font-size="20" lengthAdjust="spacing" textLength="254" x="93" y="272.043">shows type of property list</text><polygon fill="#181818" points="749,311.8164,759,315.8164,749,319.8164,753,315.8164" style="stroke:#181818;stroke-width:1.0;"/><line style="stroke:#181818;stroke-width:1.0;" x1="59" x2="755" y1="315.8164" y2="315.8164"/><text fill="#000000" font-family="sans-serif" font-size="20" font-weight="bold" lengthAdjust="spacing" textLength="13" x="66" y="309.5977">5</text><text fill="#000000" font-family="sans-serif" font-size="20" lengthAdjust="spacing" textLength="225" x="83" y="309.5977">selects type of property</text><polygon fill="#181818" points="70,349.3711,60,353.3711,70,357.3711,66,353.3711" style="stroke:#181818;stroke-width:1.0;"/><line style="stroke:#181818;stroke-width:1.0;stroke-dasharray:2.0,2.0;" x1="64" x2="765" y1="353.3711" y2="353.3711"/><text fill="#000000" font-family="sans-serif" font-size="20" font-weight="bold" lengthAdjust="spacing" textLength="13" x="76" y="347.1523">6</text><text fill="#000000" font-family="sans-serif" font-size="20" lengthAdjust="spacing" textLength="120" x="93" y="347.1523">request data</text><polygon fill="#181818" points="749,434.0352,759,438.0352,749,442.0352,753,438.0352" style="stroke:#181818;stroke-width:1.0;"/><line style="stroke:#181818;stroke-width:1.0;" x1="59" x2="755" y1="438.0352" y2="438.0352"/><text fill="#000000" font-family="sans-serif" font-size="20" font-weight="bold" lengthAdjust="spacing" textLength="13" x="66" y="408.2617">7</text><text fill="#000000" font-family="sans-serif" font-size="20" lengthAdjust="spacing" textLength="660" x="83" y="384.707">types of data (numbers of bedrooms, bathrooms and parking spaces</text><text fill="#000000" font-family="sans-serif" font-size="20" lengthAdjust="spacing" textLength="448" x="89" y="408.2617">and the avaiable equipment) and the existence</text><text fill="#000000" font-family="sans-serif" font-size="20" lengthAdjust="spacing" textLength="413" x="89" y="431.8164">of a central heating and/or air conditioning</text><path d="M10,453.0352 L82,453.0352 L82,468.5898 L72,478.5898 L10,478.5898 L10,453.0352 " fill="#EEEEEE" style="stroke:#000000;stroke-width:1.5;"/><rect fill="none" height="259.4375" style="stroke:#000000;stroke-width:1.5;" width="810" x="10" y="453.0352"/><text fill="#000000" font-family="sans-serif" font-size="20" font-weight="bold" lengthAdjust="spacing" textLength="27" x="25" y="473.3711">alt</text><text fill="#000000" font-family="sans-serif" font-size="20" font-weight="bold" lengthAdjust="spacing" textLength="128" x="97" y="474.3711">[only house]</text><polygon fill="#181818" points="70,512.6992,60,516.6992,70,520.6992,66,516.6992" style="stroke:#181818;stroke-width:1.0;"/><line style="stroke:#181818;stroke-width:1.0;stroke-dasharray:2.0,2.0;" x1="64" x2="765" y1="516.6992" y2="516.6992"/><text fill="#000000" font-family="sans-serif" font-size="20" font-weight="bold" lengthAdjust="spacing" textLength="13" x="76" y="510.4805">8</text><text fill="#000000" font-family="sans-serif" font-size="20" lengthAdjust="spacing" textLength="237" x="93" y="510.4805">shows basement options</text><polygon fill="#181818" points="749,550.2539,759,554.2539,749,558.2539,753,554.2539" style="stroke:#181818;stroke-width:1.0;"/><line style="stroke:#181818;stroke-width:1.0;" x1="59" x2="755" y1="554.2539" y2="554.2539"/><text fill="#000000" font-family="sans-serif" font-size="20" font-weight="bold" lengthAdjust="spacing" textLength="13" x="66" y="548.0352">9</text><text fill="#000000" font-family="sans-serif" font-size="20" lengthAdjust="spacing" textLength="133" x="83" y="548.0352">selects option</text><polygon fill="#181818" points="70,587.8086,60,591.8086,70,595.8086,66,591.8086" style="stroke:#181818;stroke-width:1.0;"/><line style="stroke:#181818;stroke-width:1.0;stroke-dasharray:2.0,2.0;" x1="64" x2="765" y1="591.8086" y2="591.8086"/><text fill="#000000" font-family="sans-serif" font-size="20" font-weight="bold" lengthAdjust="spacing" textLength="26" x="76" y="585.5898">10</text><text fill="#000000" font-family="sans-serif" font-size="20" lengthAdjust="spacing" textLength="289" x="106" y="585.5898">shows inhabitable loft options</text><polygon fill="#181818" points="749,625.3633,759,629.3633,749,633.3633,753,629.3633" style="stroke:#181818;stroke-width:1.0;"/><line style="stroke:#181818;stroke-width:1.0;" x1="59" x2="755" y1="629.3633" y2="629.3633"/><text fill="#000000" font-family="sans-serif" font-size="20" font-weight="bold" lengthAdjust="spacing" textLength="26" x="66" y="623.1445">11</text><text fill="#000000" font-family="sans-serif" font-size="20" lengthAdjust="spacing" textLength="133" x="96" y="623.1445">selects option</text><polygon fill="#181818" points="70,662.918,60,666.918,70,670.918,66,666.918" style="stroke:#181818;stroke-width:1.0;"/><line style="stroke:#181818;stroke-width:1.0;stroke-dasharray:2.0,2.0;" x1="64" x2="760" y1="666.918" y2="666.918"/><text fill="#000000" font-family="sans-serif" font-size="20" font-weight="bold" lengthAdjust="spacing" textLength="26" x="76" y="660.6992">12</text><text fill="#000000" font-family="sans-serif" font-size="20" lengthAdjust="spacing" textLength="229" x="106" y="660.6992">shows sun exposure list</text><polygon fill="#181818" points="749,700.4727,759,704.4727,749,708.4727,753,704.4727" style="stroke:#181818;stroke-width:1.0;"/><line style="stroke:#181818;stroke-width:1.0;" x1="59" x2="755" y1="704.4727" y2="704.4727"/><text fill="#000000" font-family="sans-serif" font-size="20" font-weight="bold" lengthAdjust="spacing" textLength="26" x="66" y="698.2539">13</text><text fill="#000000" font-family="sans-serif" font-size="20" lengthAdjust="spacing" textLength="133" x="96" y="698.2539">selects option</text><polygon fill="#181818" points="70,745.0273,60,749.0273,70,753.0273,66,749.0273" style="stroke:#181818;stroke-width:1.0;"/><line style="stroke:#181818;stroke-width:1.0;stroke-dasharray:2.0,2.0;" x1="64" x2="765" y1="749.0273" y2="749.0273"/><text fill="#000000" font-family="sans-serif" font-size="20" font-weight="bold" lengthAdjust="spacing" textLength="26" x="76" y="742.8086">14</text><text fill="#000000" font-family="sans-serif" font-size="20" lengthAdjust="spacing" textLength="153" x="106" y="742.8086">shows agent list</text><polygon fill="#181818" points="749,782.582,759,786.582,749,790.582,753,786.582" style="stroke:#181818;stroke-width:1.0;"/><line style="stroke:#181818;stroke-width:1.0;" x1="59" x2="755" y1="786.582" y2="786.582"/><text fill="#000000" font-family="sans-serif" font-size="20" font-weight="bold" lengthAdjust="spacing" textLength="26" x="66" y="780.3633">15</text><text fill="#000000" font-family="sans-serif" font-size="20" lengthAdjust="spacing" textLength="124" x="96" y="780.3633">selects agent</text><polygon fill="#181818" points="70,820.1367,60,824.1367,70,828.1367,66,824.1367" style="stroke:#181818;stroke-width:1.0;"/><line style="stroke:#181818;stroke-width:1.0;stroke-dasharray:2.0,2.0;" x1="64" x2="765" y1="824.1367" y2="824.1367"/><text fill="#000000" font-family="sans-serif" font-size="20" font-weight="bold" lengthAdjust="spacing" textLength="26" x="76" y="817.918">16</text><text fill="#000000" font-family="sans-serif" font-size="20" lengthAdjust="spacing" textLength="384" x="106" y="817.918">shows all the data related to the request</text><polygon fill="#181818" points="749,857.6914,759,861.6914,749,865.6914,753,861.6914" style="stroke:#181818;stroke-width:1.0;"/><line style="stroke:#181818;stroke-width:1.0;" x1="59" x2="755" y1="861.6914" y2="861.6914"/><text fill="#000000" font-family="sans-serif" font-size="20" font-weight="bold" lengthAdjust="spacing" textLength="26" x="66" y="855.4727">17</text><text fill="#000000" font-family="sans-serif" font-size="20" lengthAdjust="spacing" textLength="122" x="96" y="855.4727">confirm data</text><polygon fill="#181818" points="70,895.2461,60,899.2461,70,903.2461,66,899.2461" style="stroke:#181818;stroke-width:1.0;"/><line style="stroke:#181818;stroke-width:1.0;stroke-dasharray:2.0,2.0;" x1="64" x2="765" y1="899.2461" y2="899.2461"/><text fill="#000000" font-family="sans-serif" font-size="20" font-weight="bold" lengthAdjust="spacing" textLength="26" x="76" y="893.0273">18</text><text fill="#000000" font-family="sans-serif" font-size="20" lengthAdjust="spacing" textLength="236" x="106" y="893.0273">display operation sucess</text><!--SRC=[hPInZjim38PtFmMHwGveqA9ZXW85hhVUuBKBRJ6n49bI9Jgf-_Ibv3WDsXW7nFMaIEJFB-GlfQFbW15xvziZ6J2qny79gsUfxI-2pv-gD8T0xzctNVGzWSI1Rau2jaSyK2sZ8uZK2lB1tGQa3eq_Mpx07bsYgX8h6bgFIQY7cduCn2t1YyL33d-gwvTdsC9N9nGPnPu8tbZJS13FGzzGr7KhFiBcxSmKDu09llN1-P6eqffYMnkG1JQxgKY9c9ObrPvGw4zA1VhDls3xPKRRQTenWNXe8-KC1AQp_aSbJbAohcApEbo-YyHMrQxAEss5FwlW60ZyVXO2PozgXkxgtKLBvBJN_uYjfmhH1ueoJbYhkMQvwX6okKC61PT8bb4oGieCEHsU9k-KZOPCzBvF7w11wSeIa8rwEHwpKPEQMbE_SzcLJaT_GekDsbQ9REY9vVbwHZ-rKyN3cg3g2AsUHtJGgMsodaP-LB-YZT1wDbQiPzrNU7G2djq8dHyIpVrORDDxGsmmKOO37tADT4bS6E0x8vmqLZDPxh2nKhhd_7uTst-3czZIm3g-uDCGwSRmzul_LPhOL1VxFNRZzDNa1s__jGr5OnM4SyN4vOv4SfflyfENzsxVbCKvtULJb-zjxAUBMptg7sDJS3X2Va4mzrpdfVSoBG7z1W00]--></g></svg>