<?xml version="1.0" encoding="UTF-8" standalone="no"?><svg xmlns="http://www.w3.org/2000/svg" xmlns:xlink="http://www.w3.org/1999/xlink" contentStyleType="text/css" height="1533px" preserveAspectRatio="none" style="width:871px;height:1533px;background:#FFFFFF;" version="1.1" viewBox="0 0 871 1533" width="871px" zoomAndPan="magnify"><defs/><g><text fill="#000000" font-family="sans-serif" font-size="14" font-weight="bold" lengthAdjust="spacing" textLength="363" x="255.5" y="28.5352">System Sequence Diagram (SSD) - Alternative One</text><rect fill="#FFFFFF" height="1300.1875" style="stroke:#181818;stroke-width:1.0;" width="10" x="69" y="136.043"/><rect fill="#FFFFFF" height="37.5547" style="stroke:#181818;stroke-width:1.0;" width="10" x="786" y="165.5977"/><rect fill="#FFFFFF" height="37.5547" style="stroke:#181818;stroke-width:1.0;" width="10" x="786" y="240.707"/><rect fill="#FFFFFF" height="37.5547" style="stroke:#181818;stroke-width:1.0;" width="10" x="786" y="315.8164"/><rect fill="#FFFFFF" height="290.1016" style="stroke:#181818;stroke-width:1.0;" width="10" x="786" y="479.1445"/><rect fill="#FFFFFF" height="37.5547" style="stroke:#181818;stroke-width:1.0;" width="10" x="786" y="806.8008"/><rect fill="#FFFFFF" height="133.6641" style="stroke:#181818;stroke-width:1.0;" width="10" x="786" y="881.9102"/><rect fill="#FFFFFF" height="116.2188" style="stroke:#181818;stroke-width:1.0;" width="10" x="786" y="1053.1289"/><rect fill="#FFFFFF" height="63.1094" style="stroke:#181818;stroke-width:1.0;" width="10" x="786" y="1206.9023"/><rect fill="#FFFFFF" height="44.5547" style="stroke:#181818;stroke-width:1.0;" width="10" x="786" y="1307.5664"/><rect fill="#FFFFFF" height="37.5547" style="stroke:#181818;stroke-width:1.0;" width="10" x="786" y="1389.6758"/><rect fill="none" height="610.6484" style="stroke:#000000;stroke-width:1.5;" width="855" x="10" y="368.3711"/><rect fill="none" height="71.6641" style="stroke:#000000;stroke-width:1.5;" width="815" x="30" y="494.1445"/><rect fill="none" height="392.2109" style="stroke:#000000;stroke-width:1.5;" width="835" x="20" y="579.8086"/><rect fill="none" height="259.4375" style="stroke:#000000;stroke-width:1.5;" width="815" x="30" y="705.582"/><rect fill="none" height="209.8828" style="stroke:#000000;stroke-width:1.5;" width="815" x="30" y="1105.6836"/><line style="stroke:#181818;stroke-width:0.5;stroke-dasharray:5.0,5.0;" x1="74" x2="74" y1="126.043" y2="1445.2305"/><line style="stroke:#181818;stroke-width:0.5;stroke-dasharray:5.0,5.0;" x1="791" x2="791" y1="126.043" y2="1445.2305"/><text fill="#000000" font-family="sans-serif" font-size="20" lengthAdjust="spacing" textLength="62" x="40" y="121.8242">Owner</text><ellipse cx="74" cy="50.9883" fill="#E3E3E3" rx="8" ry="8" style="stroke:#181818;stroke-width:0.5;"/><path d="M74,58.9883 L74,85.9883 M61,66.9883 L87,66.9883 M74,85.9883 L61,100.9883 M74,85.9883 L87,100.9883 " fill="none" style="stroke:#181818;stroke-width:0.5;"/><text fill="#000000" font-family="sans-serif" font-size="20" lengthAdjust="spacing" textLength="62" x="40" y="1463.5664">Owner</text><ellipse cx="74" cy="1476.2852" fill="#E3E3E3" rx="8" ry="8" style="stroke:#181818;stroke-width:0.5;"/><path d="M74,1484.2852 L74,1511.2852 M61,1492.2852 L87,1492.2852 M74,1511.2852 L61,1526.2852 M74,1511.2852 L87,1526.2852 " fill="none" style="stroke:#181818;stroke-width:0.5;"/><rect fill="#E3E3E3" height="37.5547" rx="2.5" ry="2.5" style="stroke:#181818;stroke-width:0.5;" width="88" x="747" y="87.4883"/><text fill="#000000" font-family="sans-serif" font-size="20" lengthAdjust="spacing" textLength="74" x="754" y="113.8242">:System</text><rect fill="#E3E3E3" height="37.5547" rx="2.5" ry="2.5" style="stroke:#181818;stroke-width:0.5;" width="88" x="747" y="1444.2305"/><text fill="#000000" font-family="sans-serif" font-size="20" lengthAdjust="spacing" textLength="74" x="754" y="1470.5664">:System</text><rect fill="#FFFFFF" height="1300.1875" style="stroke:#181818;stroke-width:1.0;" width="10" x="69" y="136.043"/><rect fill="#FFFFFF" height="37.5547" style="stroke:#181818;stroke-width:1.0;" width="10" x="786" y="165.5977"/><rect fill="#FFFFFF" height="37.5547" style="stroke:#181818;stroke-width:1.0;" width="10" x="786" y="240.707"/><rect fill="#FFFFFF" height="37.5547" style="stroke:#181818;stroke-width:1.0;" width="10" x="786" y="315.8164"/><rect fill="#FFFFFF" height="290.1016" style="stroke:#181818;stroke-width:1.0;" width="10" x="786" y="479.1445"/><rect fill="#FFFFFF" height="37.5547" style="stroke:#181818;stroke-width:1.0;" width="10" x="786" y="806.8008"/><rect fill="#FFFFFF" height="133.6641" style="stroke:#181818;stroke-width:1.0;" width="10" x="786" y="881.9102"/><rect fill="#FFFFFF" height="116.2188" style="stroke:#181818;stroke-width:1.0;" width="10" x="786" y="1053.1289"/><rect fill="#FFFFFF" height="63.1094" style="stroke:#181818;stroke-width:1.0;" width="10" x="786" y="1206.9023"/><rect fill="#FFFFFF" height="44.5547" style="stroke:#181818;stroke-width:1.0;" width="10" x="786" y="1307.5664"/><rect fill="#FFFFFF" height="37.5547" style="stroke:#181818;stroke-width:1.0;" width="10" x="786" y="1389.6758"/><polygon fill="#181818" points="774,161.5977,784,165.5977,774,169.5977,778,165.5977" style="stroke:#181818;stroke-width:1.0;"/><line style="stroke:#181818;stroke-width:1.0;" x1="79" x2="780" y1="165.5977" y2="165.5977"/><text fill="#000000" font-family="sans-serif" font-size="20" font-weight="bold" lengthAdjust="spacing" textLength="13" x="86" y="159.3789">1</text><text fill="#000000" font-family="sans-serif" font-size="20" lengthAdjust="spacing" textLength="271" x="103" y="159.3789">asks to create a new request</text><polygon fill="#181818" points="90,199.1523,80,203.1523,90,207.1523,86,203.1523" style="stroke:#181818;stroke-width:1.0;"/><line style="stroke:#181818;stroke-width:1.0;stroke-dasharray:2.0,2.0;" x1="84" x2="790" y1="203.1523" y2="203.1523"/><text fill="#000000" font-family="sans-serif" font-size="20" font-weight="bold" lengthAdjust="spacing" textLength="13" x="96" y="196.9336">2</text><text fill="#000000" font-family="sans-serif" font-size="20" lengthAdjust="spacing" textLength="244" x="113" y="196.9336">shows type of request list</text><polygon fill="#181818" points="774,236.707,784,240.707,774,244.707,778,240.707" style="stroke:#181818;stroke-width:1.0;"/><line style="stroke:#181818;stroke-width:1.0;" x1="79" x2="780" y1="240.707" y2="240.707"/><text fill="#000000" font-family="sans-serif" font-size="20" font-weight="bold" lengthAdjust="spacing" textLength="13" x="86" y="234.4883">3</text><text fill="#000000" font-family="sans-serif" font-size="20" lengthAdjust="spacing" textLength="215" x="103" y="234.4883">selects type of request</text><polygon fill="#181818" points="90,274.2617,80,278.2617,90,282.2617,86,278.2617" style="stroke:#181818;stroke-width:1.0;"/><line style="stroke:#181818;stroke-width:1.0;stroke-dasharray:2.0,2.0;" x1="84" x2="790" y1="278.2617" y2="278.2617"/><text fill="#000000" font-family="sans-serif" font-size="20" font-weight="bold" lengthAdjust="spacing" textLength="13" x="96" y="272.043">4</text><text fill="#000000" font-family="sans-serif" font-size="20" lengthAdjust="spacing" textLength="254" x="113" y="272.043">shows type of property list</text><polygon fill="#181818" points="774,311.8164,784,315.8164,774,319.8164,778,315.8164" style="stroke:#181818;stroke-width:1.0;"/><line style="stroke:#181818;stroke-width:1.0;" x1="79" x2="780" y1="315.8164" y2="315.8164"/><text fill="#000000" font-family="sans-serif" font-size="20" font-weight="bold" lengthAdjust="spacing" textLength="13" x="86" y="309.5977">5</text><text fill="#000000" font-family="sans-serif" font-size="20" lengthAdjust="spacing" textLength="225" x="103" y="309.5977">selects type of property</text><polygon fill="#181818" points="90,349.3711,80,353.3711,90,357.3711,86,353.3711" style="stroke:#181818;stroke-width:1.0;"/><line style="stroke:#181818;stroke-width:1.0;stroke-dasharray:2.0,2.0;" x1="84" x2="790" y1="353.3711" y2="353.3711"/><text fill="#000000" font-family="sans-serif" font-size="20" font-weight="bold" lengthAdjust="spacing" textLength="13" x="96" y="347.1523">6</text><text fill="#000000" font-family="sans-serif" font-size="20" lengthAdjust="spacing" textLength="120" x="113" y="347.1523">request data</text><path d="M10,368.3711 L89,368.3711 L89,383.9258 L79,393.9258 L10,393.9258 L10,368.3711 " fill="#EEEEEE" style="stroke:#000000;stroke-width:1.5;"/><rect fill="none" height="610.6484" style="stroke:#000000;stroke-width:1.5;" width="855" x="10" y="368.3711"/><text fill="#000000" font-family="sans-serif" font-size="20" font-weight="bold" lengthAdjust="spacing" textLength="34" x="25" y="388.707">opt</text><text fill="#000000" font-family="sans-serif" font-size="20" font-weight="bold" lengthAdjust="spacing" textLength="408" x="104" y="389.707">[Property (land or house or apartment)]</text><polygon fill="#181818" points="774,475.1445,784,479.1445,774,483.1445,778,479.1445" style="stroke:#181818;stroke-width:1.0;"/><line style="stroke:#181818;stroke-width:1.0;" x1="79" x2="780" y1="479.1445" y2="479.1445"/><text fill="#000000" font-family="sans-serif" font-size="20" font-weight="bold" lengthAdjust="spacing" textLength="13" x="86" y="449.3711">7</text><text fill="#000000" font-family="sans-serif" font-size="20" lengthAdjust="spacing" textLength="269" x="103" y="425.8164">the area in m2, the location,</text><text fill="#000000" font-family="sans-serif" font-size="20" lengthAdjust="spacing" textLength="350" x="103" y="449.3711">the distance from the city centre, the</text><text fill="#000000" font-family="sans-serif" font-size="20" lengthAdjust="spacing" textLength="443" x="103" y="472.9258">requested price and one or more photographs</text><path d="M30,494.1445 L121,494.1445 L121,509.6992 L111,519.6992 L30,519.6992 L30,494.1445 " fill="#EEEEEE" style="stroke:#000000;stroke-width:1.5;"/><rect fill="none" height="71.6641" style="stroke:#000000;stroke-width:1.5;" width="815" x="30" y="494.1445"/><text fill="#000000" font-family="sans-serif" font-size="20" font-weight="bold" lengthAdjust="spacing" textLength="46" x="45" y="514.4805">loop</text><text fill="#000000" font-family="sans-serif" font-size="20" font-weight="bold" lengthAdjust="spacing" textLength="85" x="136" y="515.4805">[photos]</text><polygon fill="#181818" points="774,553.8086,784,557.8086,774,561.8086,778,557.8086" style="stroke:#181818;stroke-width:1.0;"/><line style="stroke:#181818;stroke-width:1.0;" x1="79" x2="780" y1="557.8086" y2="557.8086"/><text fill="#000000" font-family="sans-serif" font-size="20" font-weight="bold" lengthAdjust="spacing" textLength="13" x="86" y="551.5898">8</text><text fill="#000000" font-family="sans-serif" font-size="20" lengthAdjust="spacing" textLength="523" x="103" y="551.5898">add photos to the list(more than one and less than 30)</text><path d="M20,579.8086 L99,579.8086 L99,595.3633 L89,605.3633 L20,605.3633 L20,579.8086 " fill="#EEEEEE" style="stroke:#000000;stroke-width:1.5;"/><rect fill="none" height="392.2109" style="stroke:#000000;stroke-width:1.5;" width="835" x="20" y="579.8086"/><text fill="#000000" font-family="sans-serif" font-size="20" font-weight="bold" lengthAdjust="spacing" textLength="34" x="35" y="600.1445">opt</text><text fill="#000000" font-family="sans-serif" font-size="20" font-weight="bold" lengthAdjust="spacing" textLength="221" x="114" y="601.1445">[House or apartment]</text><polygon fill="#181818" points="774,686.582,784,690.582,774,694.582,778,690.582" style="stroke:#181818;stroke-width:1.0;"/><line style="stroke:#181818;stroke-width:1.0;" x1="79" x2="780" y1="690.582" y2="690.582"/><text fill="#000000" font-family="sans-serif" font-size="20" font-weight="bold" lengthAdjust="spacing" textLength="13" x="86" y="660.8086">9</text><text fill="#000000" font-family="sans-serif" font-size="20" lengthAdjust="spacing" textLength="660" x="103" y="637.2539">types of data (numbers of bedrooms, bathrooms and parking spaces</text><text fill="#000000" font-family="sans-serif" font-size="20" lengthAdjust="spacing" textLength="448" x="109" y="660.8086">and the avaiable equipment) and the existence</text><text fill="#000000" font-family="sans-serif" font-size="20" lengthAdjust="spacing" textLength="413" x="109" y="684.3633">of a central heating and/or air conditioning</text><path d="M30,705.582 L109,705.582 L109,721.1367 L99,731.1367 L30,731.1367 L30,705.582 " fill="#EEEEEE" style="stroke:#000000;stroke-width:1.5;"/><rect fill="none" height="259.4375" style="stroke:#000000;stroke-width:1.5;" width="815" x="30" y="705.582"/><text fill="#000000" font-family="sans-serif" font-size="20" font-weight="bold" lengthAdjust="spacing" textLength="34" x="45" y="725.918">opt</text><text fill="#000000" font-family="sans-serif" font-size="20" font-weight="bold" lengthAdjust="spacing" textLength="128" x="124" y="726.918">[only house]</text><polygon fill="#181818" points="90,765.2461,80,769.2461,90,773.2461,86,769.2461" style="stroke:#181818;stroke-width:1.0;"/><line style="stroke:#181818;stroke-width:1.0;stroke-dasharray:2.0,2.0;" x1="84" x2="790" y1="769.2461" y2="769.2461"/><text fill="#000000" font-family="sans-serif" font-size="20" font-weight="bold" lengthAdjust="spacing" textLength="26" x="96" y="763.0273">10</text><text fill="#000000" font-family="sans-serif" font-size="20" lengthAdjust="spacing" textLength="237" x="126" y="763.0273">shows basement options</text><polygon fill="#181818" points="774,802.8008,784,806.8008,774,810.8008,778,806.8008" style="stroke:#181818;stroke-width:1.0;"/><line style="stroke:#181818;stroke-width:1.0;" x1="79" x2="780" y1="806.8008" y2="806.8008"/><text fill="#000000" font-family="sans-serif" font-size="20" font-weight="bold" lengthAdjust="spacing" textLength="26" x="86" y="800.582">11</text><text fill="#000000" font-family="sans-serif" font-size="20" lengthAdjust="spacing" textLength="133" x="116" y="800.582">selects option</text><polygon fill="#181818" points="90,840.3555,80,844.3555,90,848.3555,86,844.3555" style="stroke:#181818;stroke-width:1.0;"/><line style="stroke:#181818;stroke-width:1.0;stroke-dasharray:2.0,2.0;" x1="84" x2="790" y1="844.3555" y2="844.3555"/><text fill="#000000" font-family="sans-serif" font-size="20" font-weight="bold" lengthAdjust="spacing" textLength="26" x="96" y="838.1367">12</text><text fill="#000000" font-family="sans-serif" font-size="20" lengthAdjust="spacing" textLength="289" x="126" y="838.1367">shows inhabitable loft options</text><polygon fill="#181818" points="774,877.9102,784,881.9102,774,885.9102,778,881.9102" style="stroke:#181818;stroke-width:1.0;"/><line style="stroke:#181818;stroke-width:1.0;" x1="79" x2="780" y1="881.9102" y2="881.9102"/><text fill="#000000" font-family="sans-serif" font-size="20" font-weight="bold" lengthAdjust="spacing" textLength="26" x="86" y="875.6914">13</text><text fill="#000000" font-family="sans-serif" font-size="20" lengthAdjust="spacing" textLength="133" x="116" y="875.6914">selects option</text><polygon fill="#181818" points="90,915.4648,80,919.4648,90,923.4648,86,919.4648" style="stroke:#181818;stroke-width:1.0;"/><line style="stroke:#181818;stroke-width:1.0;stroke-dasharray:2.0,2.0;" x1="84" x2="785" y1="919.4648" y2="919.4648"/><text fill="#000000" font-family="sans-serif" font-size="20" font-weight="bold" lengthAdjust="spacing" textLength="26" x="96" y="913.2461">14</text><text fill="#000000" font-family="sans-serif" font-size="20" lengthAdjust="spacing" textLength="229" x="126" y="913.2461">shows sun exposure list</text><polygon fill="#181818" points="774,953.0195,784,957.0195,774,961.0195,778,957.0195" style="stroke:#181818;stroke-width:1.0;"/><line style="stroke:#181818;stroke-width:1.0;" x1="79" x2="780" y1="957.0195" y2="957.0195"/><text fill="#000000" font-family="sans-serif" font-size="20" font-weight="bold" lengthAdjust="spacing" textLength="26" x="86" y="950.8008">15</text><text fill="#000000" font-family="sans-serif" font-size="20" lengthAdjust="spacing" textLength="133" x="116" y="950.8008">selects option</text><polygon fill="#181818" points="90,1011.5742,80,1015.5742,90,1019.5742,86,1015.5742" style="stroke:#181818;stroke-width:1.0;"/><line style="stroke:#181818;stroke-width:1.0;stroke-dasharray:2.0,2.0;" x1="84" x2="790" y1="1015.5742" y2="1015.5742"/><text fill="#000000" font-family="sans-serif" font-size="20" font-weight="bold" lengthAdjust="spacing" textLength="26" x="96" y="1009.3555">16</text><text fill="#000000" font-family="sans-serif" font-size="20" lengthAdjust="spacing" textLength="153" x="126" y="1009.3555">shows agent list</text><polygon fill="#181818" points="774,1049.1289,784,1053.1289,774,1057.1289,778,1053.1289" style="stroke:#181818;stroke-width:1.0;"/><line style="stroke:#181818;stroke-width:1.0;" x1="79" x2="780" y1="1053.1289" y2="1053.1289"/><text fill="#000000" font-family="sans-serif" font-size="20" font-weight="bold" lengthAdjust="spacing" textLength="26" x="86" y="1046.9102">17</text><text fill="#000000" font-family="sans-serif" font-size="20" lengthAdjust="spacing" textLength="124" x="116" y="1046.9102">selects agent</text><polygon fill="#181818" points="90,1086.6836,80,1090.6836,90,1094.6836,86,1090.6836" style="stroke:#181818;stroke-width:1.0;"/><line style="stroke:#181818;stroke-width:1.0;stroke-dasharray:2.0,2.0;" x1="84" x2="785" y1="1090.6836" y2="1090.6836"/><text fill="#000000" font-family="sans-serif" font-size="20" font-weight="bold" lengthAdjust="spacing" textLength="26" x="96" y="1084.4648">18</text><text fill="#000000" font-family="sans-serif" font-size="20" lengthAdjust="spacing" textLength="384" x="126" y="1084.4648">shows all the data related to the request</text><path d="M30,1105.6836 L102,1105.6836 L102,1121.2383 L92,1131.2383 L30,1131.2383 L30,1105.6836 " fill="#EEEEEE" style="stroke:#000000;stroke-width:1.5;"/><rect fill="none" height="209.8828" style="stroke:#000000;stroke-width:1.5;" width="815" x="30" y="1105.6836"/><text fill="#000000" font-family="sans-serif" font-size="20" font-weight="bold" lengthAdjust="spacing" textLength="27" x="45" y="1126.0195">alt</text><text fill="#000000" font-family="sans-serif" font-size="20" font-weight="bold" lengthAdjust="spacing" textLength="171" x="117" y="1127.0195">[rent a property]</text><polygon fill="#181818" points="90,1165.3477,80,1169.3477,90,1173.3477,86,1169.3477" style="stroke:#181818;stroke-width:1.0;"/><line style="stroke:#181818;stroke-width:1.0;stroke-dasharray:2.0,2.0;" x1="84" x2="790" y1="1169.3477" y2="1169.3477"/><text fill="#000000" font-family="sans-serif" font-size="20" font-weight="bold" lengthAdjust="spacing" textLength="26" x="96" y="1163.1289">19</text><text fill="#000000" font-family="sans-serif" font-size="20" lengthAdjust="spacing" textLength="541" x="126" y="1163.1289">asks for the contract duration and the price (per month))</text><polygon fill="#181818" points="774,1202.9023,784,1206.9023,774,1210.9023,778,1206.9023" style="stroke:#181818;stroke-width:1.0;"/><line style="stroke:#181818;stroke-width:1.0;" x1="79" x2="780" y1="1206.9023" y2="1206.9023"/><text fill="#000000" font-family="sans-serif" font-size="20" font-weight="bold" lengthAdjust="spacing" textLength="26" x="86" y="1200.6836">20</text><text fill="#000000" font-family="sans-serif" font-size="20" lengthAdjust="spacing" textLength="125" x="116" y="1200.6836">submits data</text><line style="stroke:#000000;stroke-width:1.0;stroke-dasharray:2.0,2.0;" x1="30" x2="845" y1="1215.9023" y2="1215.9023"/><text fill="#000000" font-family="sans-serif" font-size="20" font-weight="bold" lengthAdjust="spacing" textLength="166" x="35" y="1235.2383">[sell a property]</text><polygon fill="#181818" points="90,1266.0117,80,1270.0117,90,1274.0117,86,1270.0117" style="stroke:#181818;stroke-width:1.0;"/><line style="stroke:#181818;stroke-width:1.0;stroke-dasharray:2.0,2.0;" x1="84" x2="790" y1="1270.0117" y2="1270.0117"/><text fill="#000000" font-family="sans-serif" font-size="20" font-weight="bold" lengthAdjust="spacing" textLength="26" x="96" y="1263.793">21</text><text fill="#000000" font-family="sans-serif" font-size="20" lengthAdjust="spacing" textLength="218" x="126" y="1263.793">asks for property price</text><polygon fill="#181818" points="774,1303.5664,784,1307.5664,774,1311.5664,778,1307.5664" style="stroke:#181818;stroke-width:1.0;"/><line style="stroke:#181818;stroke-width:1.0;" x1="79" x2="780" y1="1307.5664" y2="1307.5664"/><text fill="#000000" font-family="sans-serif" font-size="20" font-weight="bold" lengthAdjust="spacing" textLength="26" x="86" y="1301.3477">22</text><text fill="#000000" font-family="sans-serif" font-size="20" lengthAdjust="spacing" textLength="125" x="116" y="1301.3477">submits data</text><polygon fill="#181818" points="90,1348.1211,80,1352.1211,90,1356.1211,86,1352.1211" style="stroke:#181818;stroke-width:1.0;"/><line style="stroke:#181818;stroke-width:1.0;stroke-dasharray:2.0,2.0;" x1="84" x2="790" y1="1352.1211" y2="1352.1211"/><text fill="#000000" font-family="sans-serif" font-size="20" font-weight="bold" lengthAdjust="spacing" textLength="26" x="96" y="1345.9023">23</text><text fill="#000000" font-family="sans-serif" font-size="20" lengthAdjust="spacing" textLength="209" x="126" y="1345.9023">shows requested data</text><polygon fill="#181818" points="774,1385.6758,784,1389.6758,774,1393.6758,778,1389.6758" style="stroke:#181818;stroke-width:1.0;"/><line style="stroke:#181818;stroke-width:1.0;" x1="79" x2="780" y1="1389.6758" y2="1389.6758"/><text fill="#000000" font-family="sans-serif" font-size="20" font-weight="bold" lengthAdjust="spacing" textLength="26" x="86" y="1383.457">24</text><text fill="#000000" font-family="sans-serif" font-size="20" lengthAdjust="spacing" textLength="122" x="116" y="1383.457">confirm data</text><polygon fill="#181818" points="90,1423.2305,80,1427.2305,90,1431.2305,86,1427.2305" style="stroke:#181818;stroke-width:1.0;"/><line style="stroke:#181818;stroke-width:1.0;stroke-dasharray:2.0,2.0;" x1="84" x2="790" y1="1427.2305" y2="1427.2305"/><text fill="#000000" font-family="sans-serif" font-size="20" font-weight="bold" lengthAdjust="spacing" textLength="26" x="96" y="1421.0117">25</text><text fill="#000000" font-family="sans-serif" font-size="20" lengthAdjust="spacing" textLength="236" x="126" y="1421.0117">display operation sucess</text><!--SRC=[jLLDRzim3BtxLn0z9K2B5TsjXm43kc6t3iYr5zfcOY6og4boC-_NZw8_4gnE2oHOW00oJJu-auzKt1ldCM1hkTfJ3JLjiRFfExkqCNy87kwBEBb0ouwh9d1Ba4979syyLdlSqIRrbY1GbT3jxAb3RB3cWt4xsAADL1J9977Tz35H2nlwrP6h29uCxhBxQhDvMiCTVBM9WiDaNWcUdOHXbzXrRKb1pbNY03VF1qVX1Z32jzPRxeaAoPbCPJow13UFGnBr68uQQbunqJ6a0FbDJt3tPQBsA67x28cX2fGZ41mTv1k5SKmQDODDw33-HeWxGPkH7wKKV130tXFmTW82QqQqcXRn5gb5ibBhDs3Ni_A1FONK3xIkvZN15PSmcofKOy9pJ0hs2NvEf5SMNGsYZOQxIFc0MH4jkRJMR8kaKoFDbHw3ST0-tEgpJ8M8ZztjYykFjLG3iqwtCWJgK1d9Lmbm88ruSIDTcIKVZBWg5QSiMWu4lk748dBVnFFLiCn-y8pl2BEkHvyiJwKh_5QQ9JNeD6rERod6mVBvVgruv6ejsOyt1NgdgxcRCRSpTm9MmnYgeQGwCBVn5afCZHuriO3kyyn7sGyI-kBKgeL-HOEbR02fbl7QcVaT_PRFq7KW0OAEGu7HGYCJcF74yrCcRG9Kx6gJMoJsKGViR3-qNWopk3wIVecHCWyG286BO-0PsNyW_07ZcFwiv3zYPLo3fKbQAilRwzYzeNSfkO5Rx9pqodFi0fqiYkNa_wJE0fp-1Loyh-JESHVkphaOYd4L2MjLjpeMWIpcuHydSjh8anBG9h49PpmknVTpwFMp5RNhkk4y29KimoxeOfg7PbWsAq7CrtHgriEWBvHaIhSiuAviZHHbNhPBLL4ZoJK-lfTAsWi-QBvabFiSzJyOZvHdiIqmcxfvtDz7n3EK5lb8YxOcj2VH5mo_N3JUOW-vG4EVOoSRD9wZynS0]--></g></svg>