<?xml version="1.0" encoding="us-ascii" standalone="no"?><svg xmlns="http://www.w3.org/2000/svg" xmlns:xlink="http://www.w3.org/1999/xlink" contentStyleType="text/css" height="446px" preserveAspectRatio="none" style="width:580px;height:446px;background:#FFFFFF;" version="1.1" viewBox="0 0 580 446" width="580px" zoomAndPan="magnify"><defs/><g><rect fill="#FFFFFF" height="281.4219" style="stroke:#181818;stroke-width:1.0;" width="10" x="222" y="96.3281"/><rect fill="#FFFFFF" height="122.5703" style="stroke:#181818;stroke-width:1.0;" width="10" x="227" y="212.6563"/><rect fill="#FFFFFF" height="39.5234" style="stroke:#181818;stroke-width:1.0;" width="10" x="232" y="254.1797"/><rect fill="none" height="238.8984" style="stroke:#000000;stroke-width:1.5;" width="406.5" x="168" y="111.3281"/><line style="stroke:#181818;stroke-width:0.5;stroke-dasharray:5.0,5.0;" x1="227" x2="227" y1="51.2813" y2="395.75"/><line style="stroke:#181818;stroke-width:0.5;stroke-dasharray:5.0,5.0;" x1="507.5" x2="507.5" y1="165.9922" y2="395.75"/><rect fill="#E3E3E3" height="45.2813" rx="2.5" ry="2.5" style="stroke:#181818;stroke-width:0.5;" width="98" x="178" y="5"/><text fill="#000000" font-family="sans-serif" font-size="14" lengthAdjust="spacing" textLength="77" x="188.5" y="24.6738">organization</text><text fill="#000000" font-family="sans-serif" font-size="14" lengthAdjust="spacing" textLength="84" x="185" y="40.3145">:Organization</text><rect fill="#E3E3E3" height="45.2813" rx="2.5" ry="2.5" style="stroke:#181818;stroke-width:0.5;" width="98" x="178" y="394.75"/><text fill="#000000" font-family="sans-serif" font-size="14" lengthAdjust="spacing" textLength="77" x="188.5" y="414.4238">organization</text><text fill="#000000" font-family="sans-serif" font-size="14" lengthAdjust="spacing" textLength="84" x="185" y="430.0645">:Organization</text><rect fill="#E3E3E3" height="45.2813" rx="2.5" ry="2.5" style="stroke:#181818;stroke-width:0.5;" width="113" x="451.5" y="394.75"/><text fill="#000000" font-family="sans-serif" font-size="14" lengthAdjust="spacing" textLength="94" x="461" y="414.4238">announcement</text><text fill="#000000" font-family="sans-serif" font-size="14" lengthAdjust="spacing" textLength="99" x="458.5" y="430.0645">:Announcement</text><rect fill="#FFFFFF" height="281.4219" style="stroke:#181818;stroke-width:1.0;" width="10" x="222" y="96.3281"/><rect fill="#FFFFFF" height="122.5703" style="stroke:#181818;stroke-width:1.0;" width="10" x="227" y="212.6563"/><rect fill="#FFFFFF" height="39.5234" style="stroke:#181818;stroke-width:1.0;" width="10" x="232" y="254.1797"/><polygon fill="#181818" points="210,92.3281,220,96.3281,210,100.3281,214,96.3281" style="stroke:#181818;stroke-width:1.0;"/><line style="stroke:#181818;stroke-width:1.0;" x1="0" x2="216" y1="96.3281" y2="96.3281"/><text fill="#000000" font-family="sans-serif" font-size="13" font-weight="bold" lengthAdjust="spacing" textLength="14" x="7" y="84.3115">18</text><text fill="#000000" font-family="sans-serif" font-size="13" lengthAdjust="spacing" textLength="178" x="25" y="77.0498">createAnnouncement(agency,</text><text fill="#000000" font-family="sans-serif" font-size="13" lengthAdjust="spacing" textLength="185" x="25" y="91.5732">description, commission, agent)</text><path d="M168,111.3281 L355,111.3281 L355,117.8516 L345,127.8516 L168,127.8516 L168,111.3281 " fill="#EEEEEE" style="stroke:#000000;stroke-width:1.5;"/><rect fill="none" height="238.8984" style="stroke:#000000;stroke-width:1.5;" width="406.5" x="168" y="111.3281"/><text fill="#000000" font-family="sans-serif" font-size="13" font-weight="bold" lengthAdjust="spacing" textLength="142" x="183" y="124.0967">Create Announcement</text><polygon fill="#181818" points="439.5,158.8984,449.5,162.8984,439.5,166.8984,443.5,162.8984" style="stroke:#181818;stroke-width:1.0;"/><line style="stroke:#181818;stroke-width:1.0;" x1="232" x2="445.5" y1="162.8984" y2="162.8984"/><text fill="#000000" font-family="sans-serif" font-size="13" font-weight="bold" lengthAdjust="spacing" textLength="25" x="239" y="150.8818">18.1</text><text fill="#000000" font-family="sans-serif" font-size="13" lengthAdjust="spacing" textLength="162" x="268" y="143.6201">create(agency, description,</text><text fill="#000000" font-family="sans-serif" font-size="13" lengthAdjust="spacing" textLength="114" x="268" y="158.1436">commission, agent)</text><rect fill="#E3E3E3" height="45.2813" rx="2.5" ry="2.5" style="stroke:#181818;stroke-width:0.5;" width="113" x="451.5" y="127.8516"/><text fill="#000000" font-family="sans-serif" font-size="14" lengthAdjust="spacing" textLength="94" x="461" y="147.5254">announcement</text><text fill="#000000" font-family="sans-serif" font-size="14" lengthAdjust="spacing" textLength="99" x="458.5" y="163.166">:Announcement</text><line style="stroke:#181818;stroke-width:1.0;" x1="232" x2="279" y1="199.6563" y2="199.6563"/><line style="stroke:#181818;stroke-width:1.0;" x1="279" x2="279" y1="199.6563" y2="212.6563"/><line style="stroke:#181818;stroke-width:1.0;" x1="238" x2="279" y1="212.6563" y2="212.6563"/><polygon fill="#181818" points="248,208.6563,238,212.6563,248,216.6563,244,212.6563" style="stroke:#181818;stroke-width:1.0;"/><text fill="#000000" font-family="sans-serif" font-size="13" font-weight="bold" lengthAdjust="spacing" textLength="25" x="244" y="194.9014">18.2</text><text fill="#000000" font-family="sans-serif" font-size="13" lengthAdjust="spacing" textLength="201" x="273" y="194.9014">addAnnouncement(announcement)</text><line style="stroke:#181818;stroke-width:1.0;" x1="237" x2="284" y1="241.1797" y2="241.1797"/><line style="stroke:#181818;stroke-width:1.0;" x1="284" x2="284" y1="241.1797" y2="254.1797"/><line style="stroke:#181818;stroke-width:1.0;" x1="243" x2="284" y1="254.1797" y2="254.1797"/><polygon fill="#181818" points="253,250.1797,243,254.1797,253,258.1797,249,254.1797" style="stroke:#181818;stroke-width:1.0;"/><text fill="#000000" font-family="sans-serif" font-size="13" font-weight="bold" lengthAdjust="spacing" textLength="25" x="249" y="236.4248">18.3</text><text fill="#000000" font-family="sans-serif" font-size="13" lengthAdjust="spacing" textLength="223" x="278" y="236.4248">validateAnnouncement(announcement)</text><line style="stroke:#181818;stroke-width:1.0;stroke-dasharray:2.0,2.0;" x1="242" x2="284" y1="292.7031" y2="292.7031"/><line style="stroke:#181818;stroke-width:1.0;stroke-dasharray:2.0,2.0;" x1="284" x2="284" y1="292.7031" y2="305.7031"/><line style="stroke:#181818;stroke-width:1.0;stroke-dasharray:2.0,2.0;" x1="237" x2="284" y1="305.7031" y2="305.7031"/><polygon fill="#181818" points="247,301.7031,237,305.7031,247,309.7031,243,305.7031" style="stroke:#181818;stroke-width:1.0;"/><text fill="#000000" font-family="sans-serif" font-size="13" font-weight="bold" lengthAdjust="spacing" textLength="25" x="249" y="287.9482">18.4</text><text fill="#000000" font-family="sans-serif" font-size="13" lengthAdjust="spacing" textLength="4" x="278" y="287.9482">&#160;</text><line style="stroke:#181818;stroke-width:1.0;stroke-dasharray:2.0,2.0;" x1="237" x2="279" y1="334.2266" y2="334.2266"/><line style="stroke:#181818;stroke-width:1.0;stroke-dasharray:2.0,2.0;" x1="279" x2="279" y1="334.2266" y2="347.2266"/><line style="stroke:#181818;stroke-width:1.0;stroke-dasharray:2.0,2.0;" x1="232" x2="279" y1="347.2266" y2="347.2266"/><polygon fill="#181818" points="242,343.2266,232,347.2266,242,351.2266,238,347.2266" style="stroke:#181818;stroke-width:1.0;"/><text fill="#000000" font-family="sans-serif" font-size="13" font-weight="bold" lengthAdjust="spacing" textLength="25" x="244" y="329.4717">18.5</text><text fill="#000000" font-family="sans-serif" font-size="13" lengthAdjust="spacing" textLength="4" x="273" y="329.4717">&#160;</text><polygon fill="#181818" points="11,373.75,1,377.75,11,381.75,7,377.75" style="stroke:#181818;stroke-width:1.0;"/><line style="stroke:#181818;stroke-width:1.0;stroke-dasharray:2.0,2.0;" x1="5" x2="226" y1="377.75" y2="377.75"/><text fill="#000000" font-family="sans-serif" font-size="13" font-weight="bold" lengthAdjust="spacing" textLength="14" x="17" y="372.9951">19</text><text fill="#000000" font-family="sans-serif" font-size="13" lengthAdjust="spacing" textLength="85" x="35" y="372.9951">announcement</text><!--SRC=[XP71IWCn48RlUOgX9rjQeJSj8fGYthgWUDlBc8pRqCqa9DbAVNgpAQtPjM9EoSpyt_mp2NlD3ZqQC9Qjt7bh2ABlI8HBng7SOqElyTWIU98HkMdBWh13PJyrD_21RI0XKZXggHroX8dr3RB-mgWjrxogYkS4C43ryZmK8BFjM98XZacmBfvPiDvkgxVjvaa8xABbphoJX-MTM3psh1L8JnYfbDquRntvU9n3pOg2zDhr_USWhJ4wX7nFCtASZgYtIu4owaCYPgUGJkDjvs2Jsq3PH-HqVr8f93zdgxFPsLPXPM2avYjMHhGy7Ier6AtSrlJ7m2_JrrW7RBKQxse8BAL_CY_S4tYGKpIGYVyqe_e-HAnEkl9dxdFaOR78bBINyX_6JRy1]--></g></svg>