<?xml version="1.0" encoding="us-ascii" standalone="no"?><svg xmlns="http://www.w3.org/2000/svg" xmlns:xlink="http://www.w3.org/1999/xlink" contentStyleType="text/css" height="1098px" preserveAspectRatio="none" style="width:1141px;height:1098px;background:#FFFFFF;" version="1.1" viewBox="0 0 1141 1098" width="1141px" zoomAndPan="magnify"><defs/><g><rect fill="#FFFFFF" height="909.5" style="stroke:#181818;stroke-width:1.0;" width="10" x="60" y="90.6406"/><rect fill="#FFFFFF" height="182.5469" style="stroke:#181818;stroke-width:1.0;" width="10" x="350" y="111.1641"/><rect fill="#FFFFFF" height="28.5234" style="stroke:#181818;stroke-width:1.0;" width="10" x="350" y="322.2344"/><rect fill="#FFFFFF" height="28.5234" style="stroke:#181818;stroke-width:1.0;" width="10" x="350" y="379.2813"/><rect fill="#FFFFFF" height="28.5234" style="stroke:#181818;stroke-width:1.0;" width="10" x="350" y="436.3281"/><rect fill="#FFFFFF" height="506.7656" style="stroke:#181818;stroke-width:1.0;" width="10" x="350" y="493.375"/><rect fill="#FFFFFF" height="84.8594" style="stroke:#181818;stroke-width:1.0;" width="10" x="773" y="180.3281"/><rect fill="#FFFFFF" height="435.1953" style="stroke:#181818;stroke-width:1.0;" width="10" x="773" y="521.8984"/><rect fill="#FFFFFF" height="95.8594" style="stroke:#181818;stroke-width:1.0;" width="10" x="778" y="558.4219"/><rect fill="#FFFFFF" height="95.8594" style="stroke:#181818;stroke-width:1.0;" width="10" x="778" y="697.8047"/><rect fill="#FFFFFF" height="84.8594" style="stroke:#181818;stroke-width:1.0;" width="10" x="1051" y="843.7109"/><line style="stroke:#181818;stroke-width:0.5;stroke-dasharray:5.0,5.0;" x1="65" x2="65" y1="80.6406" y2="1018.1406"/><line style="stroke:#181818;stroke-width:0.5;stroke-dasharray:5.0,5.0;" x1="354.5" x2="354.5" y1="80.6406" y2="1018.1406"/><line style="stroke:#181818;stroke-width:0.5;stroke-dasharray:5.0,5.0;" x1="777.5" x2="777.5" y1="149.4844" y2="1018.1406"/><line style="stroke:#181818;stroke-width:0.5;stroke-dasharray:5.0,5.0;" x1="1056" x2="1056" y1="80.6406" y2="1018.1406"/><text fill="#000000" font-family="sans-serif" font-size="14" lengthAdjust="spacing" textLength="114" x="5" y="77.6738">Real Estate Agent</text><ellipse cx="65" cy="13.5" fill="#E3E3E3" rx="8" ry="8" style="stroke:#181818;stroke-width:0.5;"/><path d="M65,21.5 L65,48.5 M52,29.5 L78,29.5 M65,48.5 L52,63.5 M65,48.5 L78,63.5 " fill="none" style="stroke:#181818;stroke-width:0.5;"/><text fill="#000000" font-family="sans-serif" font-size="14" lengthAdjust="spacing" textLength="114" x="5" y="1029.8145">Real Estate Agent</text><ellipse cx="65" cy="1041.2813" fill="#E3E3E3" rx="8" ry="8" style="stroke:#181818;stroke-width:0.5;"/><path d="M65,1049.2813 L65,1076.2813 M52,1057.2813 L78,1057.2813 M65,1076.2813 L52,1091.2813 M65,1076.2813 L78,1091.2813 " fill="none" style="stroke:#181818;stroke-width:0.5;"/><rect fill="#E3E3E3" height="29.6406" rx="2.5" ry="2.5" style="stroke:#181818;stroke-width:0.5;" width="171" x="269.5" y="50"/><text fill="#000000" font-family="sans-serif" font-size="14" lengthAdjust="spacing" textLength="157" x="276.5" y="69.6738">:PublishAnnouncementUI</text><rect fill="#E3E3E3" height="29.6406" rx="2.5" ry="2.5" style="stroke:#181818;stroke-width:0.5;" width="171" x="269.5" y="1017.1406"/><text fill="#000000" font-family="sans-serif" font-size="14" lengthAdjust="spacing" textLength="157" x="276.5" y="1036.8145">:PublishAnnouncementUI</text><rect fill="#E3E3E3" height="29.6406" rx="2.5" ry="2.5" style="stroke:#181818;stroke-width:0.5;" width="233" x="661.5" y="1017.1406"/><text fill="#000000" font-family="sans-serif" font-size="14" lengthAdjust="spacing" textLength="219" x="668.5" y="1036.8145">:PublishAnnouncementUIController</text><rect fill="#E3E3E3" height="45.2813" rx="2.5" ry="2.5" style="stroke:#181818;stroke-width:0.5;" width="98" x="1007" y="34.3594"/><text fill="#000000" font-family="sans-serif" font-size="14" lengthAdjust="spacing" textLength="77" x="1017.5" y="54.0332">organization</text><text fill="#000000" font-family="sans-serif" font-size="14" lengthAdjust="spacing" textLength="84" x="1014" y="69.6738">:Organization</text><rect fill="#E3E3E3" height="45.2813" rx="2.5" ry="2.5" style="stroke:#181818;stroke-width:0.5;" width="98" x="1007" y="1017.1406"/><text fill="#000000" font-family="sans-serif" font-size="14" lengthAdjust="spacing" textLength="77" x="1017.5" y="1036.8145">organization</text><text fill="#000000" font-family="sans-serif" font-size="14" lengthAdjust="spacing" textLength="84" x="1014" y="1052.4551">:Organization</text><rect fill="#FFFFFF" height="909.5" style="stroke:#181818;stroke-width:1.0;" width="10" x="60" y="90.6406"/><rect fill="#FFFFFF" height="182.5469" style="stroke:#181818;stroke-width:1.0;" width="10" x="350" y="111.1641"/><rect fill="#FFFFFF" height="28.5234" style="stroke:#181818;stroke-width:1.0;" width="10" x="350" y="322.2344"/><rect fill="#FFFFFF" height="28.5234" style="stroke:#181818;stroke-width:1.0;" width="10" x="350" y="379.2813"/><rect fill="#FFFFFF" height="28.5234" style="stroke:#181818;stroke-width:1.0;" width="10" x="350" y="436.3281"/><rect fill="#FFFFFF" height="506.7656" style="stroke:#181818;stroke-width:1.0;" width="10" x="350" y="493.375"/><rect fill="#FFFFFF" height="84.8594" style="stroke:#181818;stroke-width:1.0;" width="10" x="773" y="180.3281"/><rect fill="#FFFFFF" height="435.1953" style="stroke:#181818;stroke-width:1.0;" width="10" x="773" y="521.8984"/><rect fill="#FFFFFF" height="95.8594" style="stroke:#181818;stroke-width:1.0;" width="10" x="778" y="558.4219"/><rect fill="#FFFFFF" height="95.8594" style="stroke:#181818;stroke-width:1.0;" width="10" x="778" y="697.8047"/><rect fill="#FFFFFF" height="84.8594" style="stroke:#181818;stroke-width:1.0;" width="10" x="1051" y="843.7109"/><polygon fill="#181818" points="338,107.1641,348,111.1641,338,115.1641,342,111.1641" style="stroke:#181818;stroke-width:1.0;"/><line style="stroke:#181818;stroke-width:1.0;" x1="70" x2="344" y1="111.1641" y2="111.1641"/><text fill="#000000" font-family="sans-serif" font-size="13" font-weight="bold" lengthAdjust="spacing" textLength="7" x="77" y="106.4092">1</text><text fill="#000000" font-family="sans-serif" font-size="13" lengthAdjust="spacing" textLength="215" x="88" y="106.4092">asks to publish a new announcement</text><polygon fill="#181818" points="649.5,135.6875,659.5,139.6875,649.5,143.6875,653.5,139.6875" style="stroke:#181818;stroke-width:1.0;"/><line style="stroke:#181818;stroke-width:1.0;" x1="360" x2="655.5" y1="139.6875" y2="139.6875"/><text fill="#000000" font-family="sans-serif" font-size="13" font-weight="bold" lengthAdjust="spacing" textLength="7" x="367" y="134.9326">2</text><text fill="#000000" font-family="sans-serif" font-size="13" lengthAdjust="spacing" textLength="36" x="378" y="134.9326">create</text><rect fill="#E3E3E3" height="29.6406" rx="2.5" ry="2.5" style="stroke:#181818;stroke-width:0.5;" width="233" x="661.5" y="119.1641"/><text fill="#000000" font-family="sans-serif" font-size="14" lengthAdjust="spacing" textLength="219" x="668.5" y="138.8379">:PublishAnnouncementUIController</text><polygon fill="#181818" points="761,176.3281,771,180.3281,761,184.3281,765,180.3281" style="stroke:#181818;stroke-width:1.0;"/><line style="stroke:#181818;stroke-width:1.0;" x1="360" x2="767" y1="180.3281" y2="180.3281"/><text fill="#000000" font-family="sans-serif" font-size="13" font-weight="bold" lengthAdjust="spacing" textLength="7" x="367" y="175.5732">3</text><text fill="#000000" font-family="sans-serif" font-size="13" lengthAdjust="spacing" textLength="85" x="378" y="175.5732">getProperties()</text><rect fill="none" height="51.3359" style="stroke:#000000;stroke-width:1.5;" width="239" x="658.5" y="188.3281"/><path d="M658.5,188.3281 L720.5,188.3281 L720.5,194.3281 L710.5,204.3281 L658.5,204.3281 L658.5,188.3281 " fill="#EEEEEE" style="stroke:#000000;stroke-width:2.0;"/><text fill="#000000" font-family="sans-serif" font-size="13" font-weight="bold" lengthAdjust="spacing" textLength="17" x="671.5" y="202.0967">ref</text><text fill="#000000" font-family="sans-serif" font-size="12" lengthAdjust="spacing" textLength="90" x="733" y="219.1914">Get Property List</text><text fill="#000000" font-family="sans-serif" font-size="12" lengthAdjust="spacing" textLength="3" x="776.5" y="232.5977">&#160;</text><polygon fill="#181818" points="371,261.1875,361,265.1875,371,269.1875,367,265.1875" style="stroke:#181818;stroke-width:1.0;"/><line style="stroke:#181818;stroke-width:1.0;stroke-dasharray:2.0,2.0;" x1="365" x2="777" y1="265.1875" y2="265.1875"/><text fill="#000000" font-family="sans-serif" font-size="13" font-weight="bold" lengthAdjust="spacing" textLength="7" x="377" y="260.4326">4</text><text fill="#000000" font-family="sans-serif" font-size="13" lengthAdjust="spacing" textLength="68" x="388" y="260.4326">propertyList</text><polygon fill="#181818" points="81,289.7109,71,293.7109,81,297.7109,77,293.7109" style="stroke:#181818;stroke-width:1.0;"/><line style="stroke:#181818;stroke-width:1.0;stroke-dasharray:2.0,2.0;" x1="75" x2="354" y1="293.7109" y2="293.7109"/><text fill="#000000" font-family="sans-serif" font-size="13" font-weight="bold" lengthAdjust="spacing" textLength="7" x="87" y="288.9561">5</text><text fill="#000000" font-family="sans-serif" font-size="13" lengthAdjust="spacing" textLength="245" x="98" y="288.9561">shows agency list and asks to select one</text><polygon fill="#181818" points="338,318.2344,348,322.2344,338,326.2344,342,322.2344" style="stroke:#181818;stroke-width:1.0;"/><line style="stroke:#181818;stroke-width:1.0;" x1="70" x2="344" y1="322.2344" y2="322.2344"/><text fill="#000000" font-family="sans-serif" font-size="13" font-weight="bold" lengthAdjust="spacing" textLength="7" x="77" y="317.4795">6</text><text fill="#000000" font-family="sans-serif" font-size="13" lengthAdjust="spacing" textLength="104" x="88" y="317.4795">selects a agency</text><polygon fill="#181818" points="81,346.7578,71,350.7578,81,354.7578,77,350.7578" style="stroke:#181818;stroke-width:1.0;"/><line style="stroke:#181818;stroke-width:1.0;stroke-dasharray:2.0,2.0;" x1="75" x2="354" y1="350.7578" y2="350.7578"/><text fill="#000000" font-family="sans-serif" font-size="13" font-weight="bold" lengthAdjust="spacing" textLength="7" x="87" y="346.0029">7</text><text fill="#000000" font-family="sans-serif" font-size="13" lengthAdjust="spacing" textLength="79" x="98" y="346.0029">requests data</text><polygon fill="#181818" points="338,375.2813,348,379.2813,338,383.2813,342,379.2813" style="stroke:#181818;stroke-width:1.0;"/><line style="stroke:#181818;stroke-width:1.0;" x1="70" x2="344" y1="379.2813" y2="379.2813"/><text fill="#000000" font-family="sans-serif" font-size="13" font-weight="bold" lengthAdjust="spacing" textLength="7" x="77" y="374.5264">8</text><text fill="#000000" font-family="sans-serif" font-size="13" lengthAdjust="spacing" textLength="225" x="88" y="374.5264">types announcement data (description)</text><polygon fill="#181818" points="81,403.8047,71,407.8047,81,411.8047,77,407.8047" style="stroke:#181818;stroke-width:1.0;"/><line style="stroke:#181818;stroke-width:1.0;stroke-dasharray:2.0,2.0;" x1="75" x2="354" y1="407.8047" y2="407.8047"/><text fill="#000000" font-family="sans-serif" font-size="13" font-weight="bold" lengthAdjust="spacing" textLength="7" x="87" y="403.0498">9</text><text fill="#000000" font-family="sans-serif" font-size="13" lengthAdjust="spacing" textLength="124" x="98" y="403.0498">requests commission</text><polygon fill="#181818" points="338,432.3281,348,436.3281,338,440.3281,342,436.3281" style="stroke:#181818;stroke-width:1.0;"/><line style="stroke:#181818;stroke-width:1.0;" x1="70" x2="344" y1="436.3281" y2="436.3281"/><text fill="#000000" font-family="sans-serif" font-size="13" font-weight="bold" lengthAdjust="spacing" textLength="14" x="77" y="431.5732">10</text><text fill="#000000" font-family="sans-serif" font-size="13" lengthAdjust="spacing" textLength="99" x="95" y="431.5732">sets commission</text><polygon fill="#181818" points="81,460.8516,71,464.8516,81,468.8516,77,464.8516" style="stroke:#181818;stroke-width:1.0;"/><line style="stroke:#181818;stroke-width:1.0;stroke-dasharray:2.0,2.0;" x1="75" x2="354" y1="464.8516" y2="464.8516"/><text fill="#000000" font-family="sans-serif" font-size="13" font-weight="bold" lengthAdjust="spacing" textLength="14" x="87" y="460.0967">11</text><text fill="#000000" font-family="sans-serif" font-size="13" lengthAdjust="spacing" textLength="180" x="105" y="460.0967">shows selected and typed data</text><polygon fill="#181818" points="338,489.375,348,493.375,338,497.375,342,493.375" style="stroke:#181818;stroke-width:1.0;"/><line style="stroke:#181818;stroke-width:1.0;" x1="70" x2="344" y1="493.375" y2="493.375"/><text fill="#000000" font-family="sans-serif" font-size="13" font-weight="bold" lengthAdjust="spacing" textLength="14" x="77" y="488.6201">12</text><text fill="#000000" font-family="sans-serif" font-size="13" lengthAdjust="spacing" textLength="75" x="95" y="488.6201">submits data</text><polygon fill="#181818" points="761,517.8984,771,521.8984,761,525.8984,765,521.8984" style="stroke:#181818;stroke-width:1.0;"/><line style="stroke:#181818;stroke-width:1.0;" x1="360" x2="767" y1="521.8984" y2="521.8984"/><text fill="#000000" font-family="sans-serif" font-size="13" font-weight="bold" lengthAdjust="spacing" textLength="14" x="367" y="517.1436">13</text><text fill="#000000" font-family="sans-serif" font-size="13" lengthAdjust="spacing" textLength="376" x="385" y="517.1436">createAnnouncement(propertyLocation, description, commission)</text><line style="stroke:#181818;stroke-width:1.0;" x1="783" x2="830" y1="545.4219" y2="545.4219"/><line style="stroke:#181818;stroke-width:1.0;" x1="830" x2="830" y1="545.4219" y2="558.4219"/><line style="stroke:#181818;stroke-width:1.0;" x1="789" x2="830" y1="558.4219" y2="558.4219"/><polygon fill="#181818" points="799,554.4219,789,558.4219,799,562.4219,795,558.4219" style="stroke:#181818;stroke-width:1.0;"/><text fill="#000000" font-family="sans-serif" font-size="13" font-weight="bold" lengthAdjust="spacing" textLength="14" x="795" y="540.667">14</text><text fill="#000000" font-family="sans-serif" font-size="13" lengthAdjust="spacing" textLength="236" x="813" y="540.667">getPropertyByLocation(propertyLocation)</text><rect fill="none" height="51.3359" style="stroke:#000000;stroke-width:1.5;" width="239" x="658.5" y="571.4219"/><path d="M658.5,571.4219 L720.5,571.4219 L720.5,577.4219 L710.5,587.4219 L658.5,587.4219 L658.5,571.4219 " fill="#EEEEEE" style="stroke:#000000;stroke-width:2.0;"/><text fill="#000000" font-family="sans-serif" font-size="13" font-weight="bold" lengthAdjust="spacing" textLength="17" x="671.5" y="585.1904">ref</text><text fill="#000000" font-family="sans-serif" font-size="12" lengthAdjust="spacing" textLength="67" x="744.5" y="602.2852">Get Property</text><text fill="#000000" font-family="sans-serif" font-size="12" lengthAdjust="spacing" textLength="3" x="776.5" y="615.6914">&#160;</text><line style="stroke:#181818;stroke-width:1.0;stroke-dasharray:2.0,2.0;" x1="788" x2="830" y1="653.2813" y2="653.2813"/><line style="stroke:#181818;stroke-width:1.0;stroke-dasharray:2.0,2.0;" x1="830" x2="830" y1="653.2813" y2="666.2813"/><line style="stroke:#181818;stroke-width:1.0;stroke-dasharray:2.0,2.0;" x1="783" x2="830" y1="666.2813" y2="666.2813"/><polygon fill="#181818" points="793,662.2813,783,666.2813,793,670.2813,789,666.2813" style="stroke:#181818;stroke-width:1.0;"/><text fill="#000000" font-family="sans-serif" font-size="13" font-weight="bold" lengthAdjust="spacing" textLength="14" x="795" y="648.5264">15</text><text fill="#000000" font-family="sans-serif" font-size="13" lengthAdjust="spacing" textLength="47" x="813" y="648.5264">agency</text><line style="stroke:#181818;stroke-width:1.0;" x1="783" x2="830" y1="684.8047" y2="684.8047"/><line style="stroke:#181818;stroke-width:1.0;" x1="830" x2="830" y1="684.8047" y2="697.8047"/><line style="stroke:#181818;stroke-width:1.0;" x1="789" x2="830" y1="697.8047" y2="697.8047"/><polygon fill="#181818" points="799,693.8047,789,697.8047,799,701.8047,795,697.8047" style="stroke:#181818;stroke-width:1.0;"/><text fill="#000000" font-family="sans-serif" font-size="13" font-weight="bold" lengthAdjust="spacing" textLength="14" x="795" y="680.0498">16</text><text fill="#000000" font-family="sans-serif" font-size="13" lengthAdjust="spacing" textLength="137" x="813" y="680.0498">getAgentFromSession()</text><rect fill="none" height="51.3359" style="stroke:#000000;stroke-width:1.5;" width="239" x="658.5" y="710.8047"/><path d="M658.5,710.8047 L720.5,710.8047 L720.5,716.8047 L710.5,726.8047 L658.5,726.8047 L658.5,710.8047 " fill="#EEEEEE" style="stroke:#000000;stroke-width:2.0;"/><text fill="#000000" font-family="sans-serif" font-size="13" font-weight="bold" lengthAdjust="spacing" textLength="17" x="671.5" y="724.5732">ref</text><text fill="#000000" font-family="sans-serif" font-size="12" lengthAdjust="spacing" textLength="53" x="751.5" y="741.668">Get Agent</text><text fill="#000000" font-family="sans-serif" font-size="12" lengthAdjust="spacing" textLength="3" x="776.5" y="755.0742">&#160;</text><line style="stroke:#181818;stroke-width:1.0;" x1="788" x2="830" y1="792.6641" y2="792.6641"/><line style="stroke:#181818;stroke-width:1.0;" x1="830" x2="830" y1="792.6641" y2="805.6641"/><line style="stroke:#181818;stroke-width:1.0;" x1="783" x2="830" y1="805.6641" y2="805.6641"/><polygon fill="#181818" points="793,801.6641,783,805.6641,793,809.6641,789,805.6641" style="stroke:#181818;stroke-width:1.0;"/><text fill="#000000" font-family="sans-serif" font-size="13" font-weight="bold" lengthAdjust="spacing" textLength="14" x="795" y="787.9092">17</text><text fill="#000000" font-family="sans-serif" font-size="13" lengthAdjust="spacing" textLength="32" x="813" y="787.9092">agent</text><polygon fill="#181818" points="1039,839.7109,1049,843.7109,1039,847.7109,1043,843.7109" style="stroke:#181818;stroke-width:1.0;"/><line style="stroke:#181818;stroke-width:1.0;" x1="783" x2="1045" y1="843.7109" y2="843.7109"/><text fill="#000000" font-family="sans-serif" font-size="13" font-weight="bold" lengthAdjust="spacing" textLength="14" x="790" y="831.6943">18</text><text fill="#000000" font-family="sans-serif" font-size="13" lengthAdjust="spacing" textLength="178" x="808" y="824.4326">createAnnouncement(agency,</text><text fill="#000000" font-family="sans-serif" font-size="13" lengthAdjust="spacing" textLength="185" x="808" y="838.9561">description, commission, agent)</text><rect fill="none" height="51.3359" style="stroke:#000000;stroke-width:1.5;" width="131" x="1004" y="851.7109"/><path d="M1004,851.7109 L1066,851.7109 L1066,857.7109 L1056,867.7109 L1004,867.7109 L1004,851.7109 " fill="#EEEEEE" style="stroke:#000000;stroke-width:2.0;"/><text fill="#000000" font-family="sans-serif" font-size="13" font-weight="bold" lengthAdjust="spacing" textLength="17" x="1017" y="865.4795">ref</text><text fill="#000000" font-family="sans-serif" font-size="12" lengthAdjust="spacing" textLength="123" x="1008" y="882.5742">Create Announcement</text><text fill="#000000" font-family="sans-serif" font-size="12" lengthAdjust="spacing" textLength="3" x="1068" y="895.9805">&#160;</text><polygon fill="#181818" points="794,924.5703,784,928.5703,794,932.5703,790,928.5703" style="stroke:#181818;stroke-width:1.0;"/><line style="stroke:#181818;stroke-width:1.0;stroke-dasharray:2.0,2.0;" x1="788" x2="1055" y1="928.5703" y2="928.5703"/><text fill="#000000" font-family="sans-serif" font-size="13" font-weight="bold" lengthAdjust="spacing" textLength="14" x="800" y="923.8154">19</text><text fill="#000000" font-family="sans-serif" font-size="13" lengthAdjust="spacing" textLength="85" x="818" y="923.8154">announcement</text><polygon fill="#181818" points="371,953.0938,361,957.0938,371,961.0938,367,957.0938" style="stroke:#181818;stroke-width:1.0;"/><line style="stroke:#181818;stroke-width:1.0;stroke-dasharray:2.0,2.0;" x1="365" x2="777" y1="957.0938" y2="957.0938"/><text fill="#000000" font-family="sans-serif" font-size="13" font-weight="bold" lengthAdjust="spacing" textLength="14" x="377" y="952.3389">20</text><text fill="#000000" font-family="sans-serif" font-size="13" lengthAdjust="spacing" textLength="85" x="395" y="952.3389">announcement</text><polygon fill="#181818" points="76,996.1406,66,1000.1406,76,1004.1406,72,1000.1406" style="stroke:#181818;stroke-width:1.0;"/><line style="stroke:#181818;stroke-width:1.0;stroke-dasharray:2.0,2.0;" x1="70" x2="354" y1="1000.1406" y2="1000.1406"/><text fill="#000000" font-family="sans-serif" font-size="13" font-weight="bold" lengthAdjust="spacing" textLength="14" x="82" y="988.124">21</text><text fill="#000000" font-family="sans-serif" font-size="13" lengthAdjust="spacing" textLength="156" x="100" y="980.8623">informs the agent when the</text><text fill="#000000" font-family="sans-serif" font-size="13" lengthAdjust="spacing" textLength="194" x="100" y="995.3857">announcment has been published</text><!--SRC=[jLN1Sfim4Btp5Jk-rCuuF-13PrmtpMGcdMISvkQB36lG6BHK4d7Th-yYR5a4SCYXd03jU_lsiRkOlLIbqAA0WXJ5cQO2mUeA8-DFIX7lHOelzfWZQ8ojK6aU1fXC97IGAeMTo0r6aQWigQhOeewYBvbC47P4Taj_8X5RqZ1PeyZXpbXX4POfAZi1OM3v_MV4Z5R6iXJAmcJnN6rpQRAbKbIf60kEV7rmiQyFOq9NfAocF4VjGAjVwySsZ7GgbFmhh2IrKOkduD4XdjRtKIrQlZcfB302llW6Rh-o25XmrDw09IWR0I10uG54eAF1U1QMxbxK5pCmJwthveQvOeqSqNFAPodQPqqbideqqvaFqhW3UaFTL0V1TOyMJf0ZF4fZBtbH9JNmyiAhSomj6fV_zbnkUI9qVEUG10VmTGMChFrQS9_GmNW2OBSi-vHu1mtct5r0gd4W83rR5lhUH1ls-ynutMOlG-Fl2WqZ4s75c4psMA9fVL47XMc29jQohBjbzjdaCHM5D8QXuuhjGeQJlNEySGeJPtPTJ78fVKpkQbl8qAuFEjdtSJYBKzyt5BlncaFWtZoeRJQ-9tjcu_ZDP-YadBKehh1V7wk-yUhYEnFM6QUJzbRtVZXG_SMx7Vg3b_SBEW-d_w5KbsEupluolKZXq9ykaVVlrMwQmqODzD6yoJdWX5liWqRKftq-h9mIM7QM-pj7kY-PCVpehT_3W2iTYS4Y7iVG-PwNLRG0gNQa2rwy6JPEmI53vHutwiJkTbt6_y4jyj7f3uT9tyOA7klVv3y0]--></g></svg>