<?xml version="1.0" encoding="us-ascii" standalone="no"?><svg xmlns="http://www.w3.org/2000/svg" xmlns:xlink="http://www.w3.org/1999/xlink" contentStyleType="text/css" height="674px" preserveAspectRatio="none" style="width:1918px;height:674px;background:#FFFFFF;" version="1.1" viewBox="0 0 1918 674" width="1918px" zoomAndPan="magnify"><defs/><g><!--class Agent--><g id="elem_Agent"><rect codeLine="1" fill="#F1F1F1" height="96.8906" id="Agent" rx="2.5" ry="2.5" style="stroke:#181818;stroke-width:0.5;" width="366" x="814.5" y="7"/><ellipse cx="971.25" cy="23" fill="#ADD1B2" rx="11" ry="11" style="stroke:#181818;stroke-width:1.0;"/><path d="M973.5938,18.6719 C972.6563,18.2344 972.0625,18.0938 971.1875,18.0938 C968.5625,18.0938 966.5625,20.1719 966.5625,22.8906 L966.5625,24.0156 C966.5625,26.5938 968.6719,28.4844 971.5625,28.4844 C972.7813,28.4844 973.9375,28.1875 974.6875,27.6406 C975.2656,27.2344 975.5938,26.7813 975.5938,26.3906 C975.5938,25.9375 975.2031,25.5469 974.7344,25.5469 C974.5156,25.5469 974.3125,25.625 974.125,25.8125 C973.6719,26.2969 973.6719,26.2969 973.4844,26.3906 C973.0625,26.6563 972.375,26.7813 971.6094,26.7813 C969.5625,26.7813 968.2656,25.6875 968.2656,23.9844 L968.2656,22.8906 C968.2656,21.1094 969.5156,19.7969 971.25,19.7969 C971.8281,19.7969 972.4375,19.9531 972.9063,20.2031 C973.3906,20.4844 973.5625,20.7031 973.6563,21.1094 C973.7188,21.5156 973.75,21.6406 973.8906,21.7656 C974.0313,21.9063 974.2656,22.0156 974.4844,22.0156 C974.75,22.0156 975.0156,21.875 975.1875,21.6563 C975.2969,21.5 975.3281,21.3125 975.3281,20.8906 L975.3281,19.4688 C975.3281,19.0313 975.3125,18.9063 975.2188,18.75 C975.0625,18.4844 974.7813,18.3438 974.4844,18.3438 C974.1875,18.3438 973.9844,18.4375 973.7656,18.75 L973.5938,18.6719 Z " fill="#000000"/><text fill="#000000" font-family="sans-serif" font-size="14" lengthAdjust="spacing" textLength="44" x="991.75" y="27.8467">Agent</text><line style="stroke:#181818;stroke-width:0.5;" x1="815.5" x2="1179.5" y1="39" y2="39"/><line style="stroke:#181818;stroke-width:0.5;" x1="815.5" x2="1179.5" y1="47" y2="47"/><ellipse cx="825.5" cy="60.6484" fill="#84BE84" rx="3" ry="3" style="stroke:#038048;stroke-width:1.0;"/><text fill="#000000" font-family="sans-serif" font-size="14" lengthAdjust="spacing" textLength="251" x="834.5" y="63.9951">displayAndSelectAnnouncements()</text><ellipse cx="825.5" cy="76.9453" fill="#84BE84" rx="3" ry="3" style="stroke:#038048;stroke-width:1.0;"/><text fill="#000000" font-family="sans-serif" font-size="14" lengthAdjust="spacing" textLength="172" x="834.5" y="80.292">publishAnnouncement()</text><ellipse cx="825.5" cy="93.2422" fill="#84BE84" rx="3" ry="3" style="stroke:#038048;stroke-width:1.0;"/><text fill="#000000" font-family="sans-serif" font-size="14" lengthAdjust="spacing" textLength="340" x="834.5" y="96.5889">showSuccessMessage(announcementPublished)</text></g><!--class PublishAnnouncementUI--><g id="elem_PublishAnnouncementUI"><rect codeLine="7" fill="#F1F1F1" height="96.8906" id="PublishAnnouncementUI" rx="2.5" ry="2.5" style="stroke:#181818;stroke-width:0.5;" width="335" x="830" y="164"/><ellipse cx="906.25" cy="180" fill="#ADD1B2" rx="11" ry="11" style="stroke:#181818;stroke-width:1.0;"/><path d="M908.5938,175.6719 C907.6563,175.2344 907.0625,175.0938 906.1875,175.0938 C903.5625,175.0938 901.5625,177.1719 901.5625,179.8906 L901.5625,181.0156 C901.5625,183.5938 903.6719,185.4844 906.5625,185.4844 C907.7813,185.4844 908.9375,185.1875 909.6875,184.6406 C910.2656,184.2344 910.5938,183.7813 910.5938,183.3906 C910.5938,182.9375 910.2031,182.5469 909.7344,182.5469 C909.5156,182.5469 909.3125,182.625 909.125,182.8125 C908.6719,183.2969 908.6719,183.2969 908.4844,183.3906 C908.0625,183.6563 907.375,183.7813 906.6094,183.7813 C904.5625,183.7813 903.2656,182.6875 903.2656,180.9844 L903.2656,179.8906 C903.2656,178.1094 904.5156,176.7969 906.25,176.7969 C906.8281,176.7969 907.4375,176.9531 907.9063,177.2031 C908.3906,177.4844 908.5625,177.7031 908.6563,178.1094 C908.7188,178.5156 908.75,178.6406 908.8906,178.7656 C909.0313,178.9063 909.2656,179.0156 909.4844,179.0156 C909.75,179.0156 910.0156,178.875 910.1875,178.6563 C910.2969,178.5 910.3281,178.3125 910.3281,177.8906 L910.3281,176.4688 C910.3281,176.0313 910.3125,175.9063 910.2188,175.75 C910.0625,175.4844 909.7813,175.3438 909.4844,175.3438 C909.1875,175.3438 908.9844,175.4375 908.7656,175.75 L908.5938,175.6719 Z " fill="#000000"/><text fill="#000000" font-family="sans-serif" font-size="14" lengthAdjust="spacing" textLength="174" x="926.75" y="184.8467">PublishAnnouncementUI</text><line style="stroke:#181818;stroke-width:0.5;" x1="831" x2="1164" y1="196" y2="196"/><line style="stroke:#181818;stroke-width:0.5;" x1="831" x2="1164" y1="204" y2="204"/><ellipse cx="841" cy="217.6484" fill="#84BE84" rx="3" ry="3" style="stroke:#038048;stroke-width:1.0;"/><text fill="#000000" font-family="sans-serif" font-size="14" lengthAdjust="spacing" textLength="309" x="850" y="220.9951">createAnnouncementView(announcement)</text><ellipse cx="841" cy="233.9453" fill="#84BE84" rx="3" ry="3" style="stroke:#038048;stroke-width:1.0;"/><text fill="#000000" font-family="sans-serif" font-size="14" lengthAdjust="spacing" textLength="204" x="850" y="237.292">displayAnnouncementView()</text><ellipse cx="841" cy="250.2422" fill="#84BE84" rx="3" ry="3" style="stroke:#038048;stroke-width:1.0;"/><text fill="#000000" font-family="sans-serif" font-size="14" lengthAdjust="spacing" textLength="195" x="850" y="253.5889">getAnnouncementDetails()</text></g><!--class PublishAnnouncementController--><g id="elem_PublishAnnouncementController"><rect codeLine="13" fill="#F1F1F1" height="80.5938" id="PublishAnnouncementController" rx="2.5" ry="2.5" style="stroke:#181818;stroke-width:0.5;" width="411" x="792" y="321"/><ellipse cx="876.25" cy="337" fill="#ADD1B2" rx="11" ry="11" style="stroke:#181818;stroke-width:1.0;"/><path d="M878.5938,332.6719 C877.6563,332.2344 877.0625,332.0938 876.1875,332.0938 C873.5625,332.0938 871.5625,334.1719 871.5625,336.8906 L871.5625,338.0156 C871.5625,340.5938 873.6719,342.4844 876.5625,342.4844 C877.7813,342.4844 878.9375,342.1875 879.6875,341.6406 C880.2656,341.2344 880.5938,340.7813 880.5938,340.3906 C880.5938,339.9375 880.2031,339.5469 879.7344,339.5469 C879.5156,339.5469 879.3125,339.625 879.125,339.8125 C878.6719,340.2969 878.6719,340.2969 878.4844,340.3906 C878.0625,340.6563 877.375,340.7813 876.6094,340.7813 C874.5625,340.7813 873.2656,339.6875 873.2656,337.9844 L873.2656,336.8906 C873.2656,335.1094 874.5156,333.7969 876.25,333.7969 C876.8281,333.7969 877.4375,333.9531 877.9063,334.2031 C878.3906,334.4844 878.5625,334.7031 878.6563,335.1094 C878.7188,335.5156 878.75,335.6406 878.8906,335.7656 C879.0313,335.9063 879.2656,336.0156 879.4844,336.0156 C879.75,336.0156 880.0156,335.875 880.1875,335.6563 C880.2969,335.5 880.3281,335.3125 880.3281,334.8906 L880.3281,333.4688 C880.3281,333.0313 880.3125,332.9063 880.2188,332.75 C880.0625,332.4844 879.7813,332.3438 879.4844,332.3438 C879.1875,332.3438 878.9844,332.4375 878.7656,332.75 L878.5938,332.6719 Z " fill="#000000"/><text fill="#000000" font-family="sans-serif" font-size="14" lengthAdjust="spacing" textLength="234" x="896.75" y="341.8467">PublishAnnouncementController</text><line style="stroke:#181818;stroke-width:0.5;" x1="793" x2="1202" y1="353" y2="353"/><line style="stroke:#181818;stroke-width:0.5;" x1="793" x2="1202" y1="361" y2="361"/><ellipse cx="803" cy="374.6484" fill="#84BE84" rx="3" ry="3" style="stroke:#038048;stroke-width:1.0;"/><text fill="#000000" font-family="sans-serif" font-size="14" lengthAdjust="spacing" textLength="145" x="812" y="377.9951">getAnnouncement()</text><ellipse cx="803" cy="390.9453" fill="#84BE84" rx="3" ry="3" style="stroke:#038048;stroke-width:1.0;"/><text fill="#000000" font-family="sans-serif" font-size="14" lengthAdjust="spacing" textLength="385" x="812" y="394.292">validateAnnouncementDetails(announcementDetails)</text></g><!--class Repositories--><g id="elem_Repositories"><rect codeLine="18" fill="#F1F1F1" height="80.5938" id="Repositories" rx="2.5" ry="2.5" style="stroke:#181818;stroke-width:0.5;" width="213" x="7" y="462"/><ellipse cx="63.75" cy="478" fill="#ADD1B2" rx="11" ry="11" style="stroke:#181818;stroke-width:1.0;"/><path d="M66.0938,473.6719 C65.1563,473.2344 64.5625,473.0938 63.6875,473.0938 C61.0625,473.0938 59.0625,475.1719 59.0625,477.8906 L59.0625,479.0156 C59.0625,481.5938 61.1719,483.4844 64.0625,483.4844 C65.2813,483.4844 66.4375,483.1875 67.1875,482.6406 C67.7656,482.2344 68.0938,481.7813 68.0938,481.3906 C68.0938,480.9375 67.7031,480.5469 67.2344,480.5469 C67.0156,480.5469 66.8125,480.625 66.625,480.8125 C66.1719,481.2969 66.1719,481.2969 65.9844,481.3906 C65.5625,481.6563 64.875,481.7813 64.1094,481.7813 C62.0625,481.7813 60.7656,480.6875 60.7656,478.9844 L60.7656,477.8906 C60.7656,476.1094 62.0156,474.7969 63.75,474.7969 C64.3281,474.7969 64.9375,474.9531 65.4063,475.2031 C65.8906,475.4844 66.0625,475.7031 66.1563,476.1094 C66.2188,476.5156 66.25,476.6406 66.3906,476.7656 C66.5313,476.9063 66.7656,477.0156 66.9844,477.0156 C67.25,477.0156 67.5156,476.875 67.6875,476.6563 C67.7969,476.5 67.8281,476.3125 67.8281,475.8906 L67.8281,474.4688 C67.8281,474.0313 67.8125,473.9063 67.7188,473.75 C67.5625,473.4844 67.2813,473.3438 66.9844,473.3438 C66.6875,473.3438 66.4844,473.4375 66.2656,473.75 L66.0938,473.6719 Z " fill="#000000"/><text fill="#000000" font-family="sans-serif" font-size="14" lengthAdjust="spacing" textLength="91" x="84.25" y="482.8467">Repositories</text><line style="stroke:#181818;stroke-width:0.5;" x1="8" x2="219" y1="494" y2="494"/><rect fill="none" height="6" style="stroke:#C82930;stroke-width:1.0;" width="6" x="15" y="504.6484"/><text fill="#000000" font-family="sans-serif" font-size="14" lengthAdjust="spacing" textLength="187" x="27" y="510.9951">announcementRepository</text><line style="stroke:#181818;stroke-width:0.5;" x1="8" x2="219" y1="518.2969" y2="518.2969"/><ellipse cx="18" cy="531.9453" fill="#84BE84" rx="3" ry="3" style="stroke:#038048;stroke-width:1.0;"/><text fill="#000000" font-family="sans-serif" font-size="14" lengthAdjust="spacing" textLength="96" x="27" y="535.292">getInstance()</text></g><!--class AnnouncementRepository--><g id="elem_AnnouncementRepository"><rect codeLine="23" fill="#F1F1F1" height="80.5938" id="AnnouncementRepository" rx="2.5" ry="2.5" style="stroke:#181818;stroke-width:0.5;" width="351" x="255" y="462"/><ellipse cx="331.75" cy="478" fill="#ADD1B2" rx="11" ry="11" style="stroke:#181818;stroke-width:1.0;"/><path d="M334.0938,473.6719 C333.1563,473.2344 332.5625,473.0938 331.6875,473.0938 C329.0625,473.0938 327.0625,475.1719 327.0625,477.8906 L327.0625,479.0156 C327.0625,481.5938 329.1719,483.4844 332.0625,483.4844 C333.2813,483.4844 334.4375,483.1875 335.1875,482.6406 C335.7656,482.2344 336.0938,481.7813 336.0938,481.3906 C336.0938,480.9375 335.7031,480.5469 335.2344,480.5469 C335.0156,480.5469 334.8125,480.625 334.625,480.8125 C334.1719,481.2969 334.1719,481.2969 333.9844,481.3906 C333.5625,481.6563 332.875,481.7813 332.1094,481.7813 C330.0625,481.7813 328.7656,480.6875 328.7656,478.9844 L328.7656,477.8906 C328.7656,476.1094 330.0156,474.7969 331.75,474.7969 C332.3281,474.7969 332.9375,474.9531 333.4063,475.2031 C333.8906,475.4844 334.0625,475.7031 334.1563,476.1094 C334.2188,476.5156 334.25,476.6406 334.3906,476.7656 C334.5313,476.9063 334.7656,477.0156 334.9844,477.0156 C335.25,477.0156 335.5156,476.875 335.6875,476.6563 C335.7969,476.5 335.8281,476.3125 335.8281,475.8906 L335.8281,474.4688 C335.8281,474.0313 335.8125,473.9063 335.7188,473.75 C335.5625,473.4844 335.2813,473.3438 334.9844,473.3438 C334.6875,473.3438 334.4844,473.4375 334.2656,473.75 L334.0938,473.6719 Z " fill="#000000"/><text fill="#000000" font-family="sans-serif" font-size="14" lengthAdjust="spacing" textLength="189" x="352.25" y="482.8467">AnnouncementRepository</text><line style="stroke:#181818;stroke-width:0.5;" x1="256" x2="605" y1="494" y2="494"/><line style="stroke:#181818;stroke-width:0.5;" x1="256" x2="605" y1="502" y2="502"/><ellipse cx="266" cy="515.6484" fill="#84BE84" rx="3" ry="3" style="stroke:#038048;stroke-width:1.0;"/><text fill="#000000" font-family="sans-serif" font-size="14" lengthAdjust="spacing" textLength="176" x="275" y="518.9951">getAnnouncementById()</text><ellipse cx="266" cy="531.9453" fill="#84BE84" rx="3" ry="3" style="stroke:#038048;stroke-width:1.0;"/><text fill="#000000" font-family="sans-serif" font-size="14" lengthAdjust="spacing" textLength="325" x="275" y="535.292">createAnnouncement(announcementDetails)</text></g><!--class MessageController--><g id="elem_MessageController"><rect codeLine="28" fill="#F1F1F1" height="64.2969" id="MessageController" rx="2.5" ry="2.5" style="stroke:#181818;stroke-width:0.5;" width="303" x="641" y="470.5"/><ellipse cx="721.25" cy="486.5" fill="#ADD1B2" rx="11" ry="11" style="stroke:#181818;stroke-width:1.0;"/><path d="M723.5938,482.1719 C722.6563,481.7344 722.0625,481.5938 721.1875,481.5938 C718.5625,481.5938 716.5625,483.6719 716.5625,486.3906 L716.5625,487.5156 C716.5625,490.0938 718.6719,491.9844 721.5625,491.9844 C722.7813,491.9844 723.9375,491.6875 724.6875,491.1406 C725.2656,490.7344 725.5938,490.2813 725.5938,489.8906 C725.5938,489.4375 725.2031,489.0469 724.7344,489.0469 C724.5156,489.0469 724.3125,489.125 724.125,489.3125 C723.6719,489.7969 723.6719,489.7969 723.4844,489.8906 C723.0625,490.1563 722.375,490.2813 721.6094,490.2813 C719.5625,490.2813 718.2656,489.1875 718.2656,487.4844 L718.2656,486.3906 C718.2656,484.6094 719.5156,483.2969 721.25,483.2969 C721.8281,483.2969 722.4375,483.4531 722.9063,483.7031 C723.3906,483.9844 723.5625,484.2031 723.6563,484.6094 C723.7188,485.0156 723.75,485.1406 723.8906,485.2656 C724.0313,485.4063 724.2656,485.5156 724.4844,485.5156 C724.75,485.5156 725.0156,485.375 725.1875,485.1563 C725.2969,485 725.3281,484.8125 725.3281,484.3906 L725.3281,482.9688 C725.3281,482.5313 725.3125,482.4063 725.2188,482.25 C725.0625,481.9844 724.7813,481.8438 724.4844,481.8438 C724.1875,481.8438 723.9844,481.9375 723.7656,482.25 L723.5938,482.1719 Z " fill="#000000"/><text fill="#000000" font-family="sans-serif" font-size="14" lengthAdjust="spacing" textLength="134" x="741.75" y="491.3467">MessageController</text><line style="stroke:#181818;stroke-width:0.5;" x1="642" x2="943" y1="502.5" y2="502.5"/><line style="stroke:#181818;stroke-width:0.5;" x1="642" x2="943" y1="510.5" y2="510.5"/><ellipse cx="652" cy="524.1484" fill="#84BE84" rx="3" ry="3" style="stroke:#038048;stroke-width:1.0;"/><text fill="#000000" font-family="sans-serif" font-size="14" lengthAdjust="spacing" textLength="277" x="661" y="527.4951">sendMessageToOwner(announcement)</text></g><!--class Owner--><g id="elem_Owner"><rect codeLine="32" fill="#F1F1F1" height="64.2969" id="Owner" rx="2.5" ry="2.5" style="stroke:#181818;stroke-width:0.5;" width="213" x="891" y="603"/><ellipse cx="970.25" cy="619" fill="#ADD1B2" rx="11" ry="11" style="stroke:#181818;stroke-width:1.0;"/><path d="M972.5938,614.6719 C971.6563,614.2344 971.0625,614.0938 970.1875,614.0938 C967.5625,614.0938 965.5625,616.1719 965.5625,618.8906 L965.5625,620.0156 C965.5625,622.5938 967.6719,624.4844 970.5625,624.4844 C971.7813,624.4844 972.9375,624.1875 973.6875,623.6406 C974.2656,623.2344 974.5938,622.7813 974.5938,622.3906 C974.5938,621.9375 974.2031,621.5469 973.7344,621.5469 C973.5156,621.5469 973.3125,621.625 973.125,621.8125 C972.6719,622.2969 972.6719,622.2969 972.4844,622.3906 C972.0625,622.6563 971.375,622.7813 970.6094,622.7813 C968.5625,622.7813 967.2656,621.6875 967.2656,619.9844 L967.2656,618.8906 C967.2656,617.1094 968.5156,615.7969 970.25,615.7969 C970.8281,615.7969 971.4375,615.9531 971.9063,616.2031 C972.3906,616.4844 972.5625,616.7031 972.6563,617.1094 C972.7188,617.5156 972.75,617.6406 972.8906,617.7656 C973.0313,617.9063 973.2656,618.0156 973.4844,618.0156 C973.75,618.0156 974.0156,617.875 974.1875,617.6563 C974.2969,617.5 974.3281,617.3125 974.3281,616.8906 L974.3281,615.4688 C974.3281,615.0313 974.3125,614.9063 974.2188,614.75 C974.0625,614.4844 973.7813,614.3438 973.4844,614.3438 C973.1875,614.3438 972.9844,614.4375 972.7656,614.75 L972.5938,614.6719 Z " fill="#000000"/><text fill="#000000" font-family="sans-serif" font-size="14" lengthAdjust="spacing" textLength="46" x="990.75" y="623.8467">Owner</text><line style="stroke:#181818;stroke-width:0.5;" x1="892" x2="1103" y1="635" y2="635"/><line style="stroke:#181818;stroke-width:0.5;" x1="892" x2="1103" y1="643" y2="643"/><ellipse cx="902" cy="656.6484" fill="#84BE84" rx="3" ry="3" style="stroke:#038048;stroke-width:1.0;"/><text fill="#000000" font-family="sans-serif" font-size="14" lengthAdjust="spacing" textLength="187" x="911" y="659.9951">receiveMessage(message)</text></g><!--class Message--><g id="elem_Message"><rect codeLine="36" fill="#F1F1F1" height="64.2969" id="Message" rx="2.5" ry="2.5" style="stroke:#181818;stroke-width:0.5;" width="358" x="1553.5" y="470.5"/><ellipse cx="1697.75" cy="486.5" fill="#ADD1B2" rx="11" ry="11" style="stroke:#181818;stroke-width:1.0;"/><path d="M1700.0938,482.1719 C1699.1563,481.7344 1698.5625,481.5938 1697.6875,481.5938 C1695.0625,481.5938 1693.0625,483.6719 1693.0625,486.3906 L1693.0625,487.5156 C1693.0625,490.0938 1695.1719,491.9844 1698.0625,491.9844 C1699.2813,491.9844 1700.4375,491.6875 1701.1875,491.1406 C1701.7656,490.7344 1702.0938,490.2813 1702.0938,489.8906 C1702.0938,489.4375 1701.7031,489.0469 1701.2344,489.0469 C1701.0156,489.0469 1700.8125,489.125 1700.625,489.3125 C1700.1719,489.7969 1700.1719,489.7969 1699.9844,489.8906 C1699.5625,490.1563 1698.875,490.2813 1698.1094,490.2813 C1696.0625,490.2813 1694.7656,489.1875 1694.7656,487.4844 L1694.7656,486.3906 C1694.7656,484.6094 1696.0156,483.2969 1697.75,483.2969 C1698.3281,483.2969 1698.9375,483.4531 1699.4063,483.7031 C1699.8906,483.9844 1700.0625,484.2031 1700.1563,484.6094 C1700.2188,485.0156 1700.25,485.1406 1700.3906,485.2656 C1700.5313,485.4063 1700.7656,485.5156 1700.9844,485.5156 C1701.25,485.5156 1701.5156,485.375 1701.6875,485.1563 C1701.7969,485 1701.8281,484.8125 1701.8281,484.3906 L1701.8281,482.9688 C1701.8281,482.5313 1701.8125,482.4063 1701.7188,482.25 C1701.5625,481.9844 1701.2813,481.8438 1700.9844,481.8438 C1700.6875,481.8438 1700.4844,481.9375 1700.2656,482.25 L1700.0938,482.1719 Z " fill="#000000"/><text fill="#000000" font-family="sans-serif" font-size="14" lengthAdjust="spacing" textLength="61" x="1718.25" y="491.3467">Message</text><line style="stroke:#181818;stroke-width:0.5;" x1="1554.5" x2="1910.5" y1="502.5" y2="502.5"/><line style="stroke:#181818;stroke-width:0.5;" x1="1554.5" x2="1910.5" y1="510.5" y2="510.5"/><ellipse cx="1564.5" cy="524.1484" fill="#84BE84" rx="3" ry="3" style="stroke:#038048;stroke-width:1.0;"/><text fill="#000000" font-family="sans-serif" font-size="14" lengthAdjust="spacing" textLength="332" x="1573.5" y="527.4951">createMessage(announcement, Agent, Owner)</text></g><!--class Commission--><g id="elem_Commission"><rect codeLine="40" fill="#F1F1F1" height="80.5938" id="Commission" rx="2.5" ry="2.5" style="stroke:#181818;stroke-width:0.5;" width="467" x="1051" y="462"/><ellipse cx="1236.75" cy="478" fill="#ADD1B2" rx="11" ry="11" style="stroke:#181818;stroke-width:1.0;"/><path d="M1239.0938,473.6719 C1238.1563,473.2344 1237.5625,473.0938 1236.6875,473.0938 C1234.0625,473.0938 1232.0625,475.1719 1232.0625,477.8906 L1232.0625,479.0156 C1232.0625,481.5938 1234.1719,483.4844 1237.0625,483.4844 C1238.2813,483.4844 1239.4375,483.1875 1240.1875,482.6406 C1240.7656,482.2344 1241.0938,481.7813 1241.0938,481.3906 C1241.0938,480.9375 1240.7031,480.5469 1240.2344,480.5469 C1240.0156,480.5469 1239.8125,480.625 1239.625,480.8125 C1239.1719,481.2969 1239.1719,481.2969 1238.9844,481.3906 C1238.5625,481.6563 1237.875,481.7813 1237.1094,481.7813 C1235.0625,481.7813 1233.7656,480.6875 1233.7656,478.9844 L1233.7656,477.8906 C1233.7656,476.1094 1235.0156,474.7969 1236.75,474.7969 C1237.3281,474.7969 1237.9375,474.9531 1238.4063,475.2031 C1238.8906,475.4844 1239.0625,475.7031 1239.1563,476.1094 C1239.2188,476.5156 1239.25,476.6406 1239.3906,476.7656 C1239.5313,476.9063 1239.7656,477.0156 1239.9844,477.0156 C1240.25,477.0156 1240.5156,476.875 1240.6875,476.6563 C1240.7969,476.5 1240.8281,476.3125 1240.8281,475.8906 L1240.8281,474.4688 C1240.8281,474.0313 1240.8125,473.9063 1240.7188,473.75 C1240.5625,473.4844 1240.2813,473.3438 1239.9844,473.3438 C1239.6875,473.3438 1239.4844,473.4375 1239.2656,473.75 L1239.0938,473.6719 Z " fill="#000000"/><text fill="#000000" font-family="sans-serif" font-size="14" lengthAdjust="spacing" textLength="87" x="1257.25" y="482.8467">Commission</text><line style="stroke:#181818;stroke-width:0.5;" x1="1052" x2="1517" y1="494" y2="494"/><line style="stroke:#181818;stroke-width:0.5;" x1="1052" x2="1517" y1="502" y2="502"/><ellipse cx="1062" cy="515.6484" fill="#84BE84" rx="3" ry="3" style="stroke:#038048;stroke-width:1.0;"/><text fill="#000000" font-family="sans-serif" font-size="14" lengthAdjust="spacing" textLength="158" x="1071" y="518.9951">getCommissionType()</text><ellipse cx="1062" cy="531.9453" fill="#84BE84" rx="3" ry="3" style="stroke:#038048;stroke-width:1.0;"/><text fill="#000000" font-family="sans-serif" font-size="14" lengthAdjust="spacing" textLength="441" x="1071" y="535.292">validateCommission(commissionType, announcementDetails)</text></g><!--link Agent to PublishAnnouncementUI--><g id="link_Agent_PublishAnnouncementUI"><path codeLine="45" d="M985.623,104.27 C984.565,121.44 984.469,140.905 985.334,158.494 " fill="none" id="Agent-to-PublishAnnouncementUI" style="stroke:#181818;stroke-width:1.0;"/><polygon fill="#181818" points="985.633,163.888,989.1279,154.6801,985.3558,158.8957,981.1402,155.1236,985.633,163.888" style="stroke:#181818;stroke-width:1.0;"/></g><!--link PublishAnnouncementUI to Agent--><g id="link_PublishAnnouncementUI_Agent"><path codeLine="53" d="M1010.06,163.888 C1011.19,146.732 1011.3,127.268 1010.39,109.668 " fill="none" id="PublishAnnouncementUI-to-Agent" style="stroke:#181818;stroke-width:1.0;"/><polygon fill="#181818" points="1010.08,104.27,1006.612,113.4881,1010.3718,109.2615,1014.5984,113.0213,1010.08,104.27" style="stroke:#181818;stroke-width:1.0;"/></g><!--link PublishAnnouncementUI to PublishAnnouncementController--><g id="link_PublishAnnouncementUI_PublishAnnouncementController"><path codeLine="46" d="M972.74,261.227 C970.638,278.701 970.76,298.4 973.105,315.617 " fill="none" id="PublishAnnouncementUI-to-PublishAnnouncementController" style="stroke:#181818;stroke-width:1.0;"/><polygon fill="#181818" points="973.904,320.876,976.5059,311.377,973.1525,315.9328,968.5968,312.5794,973.904,320.876" style="stroke:#181818;stroke-width:1.0;"/></g><!--link PublishAnnouncementController to PublishAnnouncementUI--><g id="link_PublishAnnouncementController_PublishAnnouncementUI"><path codeLine="54" d="M997.5,320.876 C997.5,304.079 997.5,284.262 997.5,266.254 " fill="none" id="PublishAnnouncementController-to-PublishAnnouncementUI" style="stroke:#181818;stroke-width:1.0;"/><polygon fill="#181818" points="997.5,261.227,993.5,270.227,997.5,266.227,1001.5,270.227,997.5,261.227" style="stroke:#181818;stroke-width:1.0;"/></g><!--link PublishAnnouncementUI to PublishAnnouncementController--><g id="link_PublishAnnouncementUI_PublishAnnouncementController"><path codeLine="55" d="M1022.26,261.227 C1024.36,278.701 1024.24,298.4 1021.9,315.617 " fill="none" id="PublishAnnouncementUI-to-PublishAnnouncementController-1" style="stroke:#181818;stroke-width:1.0;"/><polygon fill="#181818" points="1021.1,320.876,1026.4072,312.5794,1021.8515,315.9328,1018.4981,311.377,1021.1,320.876" style="stroke:#181818;stroke-width:1.0;"/></g><!--link PublishAnnouncementController to Repositories--><g id="link_PublishAnnouncementController_Repositories"><path codeLine="47" d="M791.748,379.428 C637.856,394.502 422.909,420.678 237.5,462 C233.379,462.918 229.199,463.913 224.99,464.968 " fill="none" id="PublishAnnouncementController-to-Repositories" style="stroke:#181818;stroke-width:1.0;"/><polygon fill="#181818" points="220.038,466.234,229.7483,467.88,224.8822,464.9955,227.7667,460.1293,220.038,466.234" style="stroke:#181818;stroke-width:1.0;"/></g><!--link PublishAnnouncementController to Commission--><g id="link_PublishAnnouncementController_Commission"><path codeLine="48" d="M1067.72,402.146 C1103.47,420.151 1147.41,441.456 1186.41,459.711 " fill="none" id="PublishAnnouncementController-to-Commission" style="stroke:#181818;stroke-width:1.0;"/><polygon fill="#181818" points="1191.15,461.922,1184.7055,454.4743,1186.6247,459.7956,1181.3033,461.7148,1191.15,461.922" style="stroke:#181818;stroke-width:1.0;"/></g><!--link PublishAnnouncementController to Commission--><g id="link_PublishAnnouncementController_Commission"><path codeLine="57" d="M1091.68,402.146 C1130.13,420.039 1173.87,441.192 1210.04,459.371 " fill="none" id="PublishAnnouncementController-to-Commission-1" style="stroke:#181818;stroke-width:1.0;"/><polygon fill="#181818" points="1214.86,461.802,1208.6126,454.1882,1210.3919,459.5579,1205.0221,461.3372,1214.86,461.802" style="stroke:#181818;stroke-width:1.0;"/></g><!--link PublishAnnouncementController to AnnouncementRepository--><g id="link_PublishAnnouncementController_AnnouncementRepository"><path codeLine="49" d="M824.525,402.053 C748.11,420.429 659.035,442.258 584.891,460.777 " fill="none" id="PublishAnnouncementController-to-AnnouncementRepository" style="stroke:#181818;stroke-width:1.0;"/><polygon fill="#181818" points="580.029,461.992,589.7305,463.6891,584.8796,460.779,587.7897,455.9281,580.029,461.992" style="stroke:#181818;stroke-width:1.0;"/></g><!--link PublishAnnouncementController to AnnouncementRepository--><g id="link_PublishAnnouncementController_AnnouncementRepository"><path codeLine="56" d="M848.476,402.053 C775.062,420.429 686.05,442.258 609.029,460.777 " fill="none" id="PublishAnnouncementController-to-AnnouncementRepository-1" style="stroke:#181818;stroke-width:1.0;"/><polygon fill="#181818" points="603.974,461.992,613.6596,463.7777,608.8355,460.8234,611.7899,455.9993,603.974,461.992" style="stroke:#181818;stroke-width:1.0;"/></g><!--link PublishAnnouncementController to MessageController--><g id="link_PublishAnnouncementController_MessageController"><path codeLine="50" d="M939.03,402.146 C908.574,422.796 871.716,447.788 842.586,467.539 " fill="none" id="PublishAnnouncementController-to-MessageController" style="stroke:#181818;stroke-width:1.0;"/><polygon fill="#181818" points="838.345,470.415,848.039,468.6756,842.4836,467.6093,843.5499,462.0538,838.345,470.415" style="stroke:#181818;stroke-width:1.0;"/></g><!--link PublishAnnouncementController to Owner--><g id="link_PublishAnnouncementController_Owner"><path codeLine="51" d="M997.5,402.269 C997.5,454.956 997.5,547.137 997.5,597.9077 " fill="none" id="PublishAnnouncementController-to-Owner" style="stroke:#181818;stroke-width:1.0;"/><polygon fill="#181818" points="997.5,602.9888,1001.5,593.9888,997.5,597.9888,993.5,593.9888,997.5,602.9888" style="stroke:#181818;stroke-width:1.0;"/></g><!--link PublishAnnouncementController to Message--><g id="link_PublishAnnouncementController_Message"><path codeLine="52" d="M1203.29,399.812 C1303.58,418.186 1425.91,440.88 1535.5,462 C1547.97,464.404 1560.88,466.923 1573.86,469.476 " fill="none" id="PublishAnnouncementController-to-Message" style="stroke:#181818;stroke-width:1.0;"/><polygon fill="#181818" points="1579.02,470.494,1570.9684,464.822,1574.1152,469.5228,1569.4144,472.6696,1579.02,470.494" style="stroke:#181818;stroke-width:1.0;"/></g><!--link MessageController to Owner--><g id="link_MessageController_Owner"><path codeLine="58" d="M841.342,534.592 C872.397,554.361 912.603,579.956 944.441,600.2234 " fill="none" id="MessageController-to-Owner" style="stroke:#181818;stroke-width:1.0;"/><polygon fill="#181818" points="948.677,602.9201,943.2337,594.7122,944.4594,600.2346,938.9369,601.4603,948.677,602.9201" style="stroke:#181818;stroke-width:1.0;"/></g><!--link Message to Owner--><g id="link_Message_Owner"><path codeLine="59" d="M1580.14,534.527 C1565.07,537.452 1549.99,540.322 1535.5,543 C1388.44,570.1739 1218.16,598.4392 1109.23,616.1158 " fill="none" id="Message-to-Owner" style="stroke:#181818;stroke-width:1.0;"/><polygon fill="#181818" points="1104.09,616.9495,1113.6141,619.4579,1109.0256,616.1495,1112.334,611.561,1104.09,616.9495" style="stroke:#181818;stroke-width:1.0;"/></g><!--link Message to Agent--><g id="link_Message_Agent"><path codeLine="60" d="M1682.69,470.384 C1586.47,410.394 1368.13,274.867 1182.5,164 C1150.89,145.12 1116.02,124.743 1085.16,106.86 " fill="none" id="Message-to-Agent" style="stroke:#181818;stroke-width:1.0;"/><polygon fill="#181818" points="1080.63,104.24,1086.4021,112.2201,1084.9532,106.752,1090.4213,105.303,1080.63,104.24" style="stroke:#181818;stroke-width:1.0;"/></g><!--SRC=[lLD1ReCm4Bpp2X-32b-eHDDB3bMZ9ktTDQl4ah4HQu9GrR-N61CCTYZgeGU4vDcT7S-EcQ2893k1rEGh8kI1v1nBGTjCvWSGm7GcfQebWw8hmKriQihwKt0ykv15yAoQGyqO8Bvq7pt1XZfL-xuHyZZwZY9cXkzzilUT5SCge1fSw8D3Cw6CfwfdbJrwWiarda5JBgwNMHAnLL9NIWYeh9WPY-M-KC7pcSXX0FNFd9blK2haMbKSq8n8YTjmWzjX-awYfXtg2i-27M75J-qkjwfzOtyHQxVfcO8WSuiTrMiZePfjvyPWGDjL0GD-WI4YHV_tnqrY40fKqcStwTaTWgqg2ex8bHoz6C-ERGcp_OtWXatg4dBFcVxPfEbZECDHEDbtwaTde-KmNllTwAme7- -seZYSg1MDNaHMz9YrhUTUiDGiOmNJVw_gptOwI_CVt-ZTy5B29yQL7m00]--></g></svg>