<?xml version="1.0" encoding="us-ascii" standalone="no"?><svg xmlns="http://www.w3.org/2000/svg" xmlns:xlink="http://www.w3.org/1999/xlink" contentStyleType="text/css" height="1048px" preserveAspectRatio="none" style="width:2151px;height:1048px;background:#FFFFFF;" version="1.1" viewBox="0 0 2151 1048" width="2151px" zoomAndPan="magnify"><defs/><g><rect fill="#FFFFFF" height="865.6953" style="stroke:#181818;stroke-width:1.0;" width="10" x="77.5" y="91.4883"/><rect fill="#FFFFFF" height="820.0742" style="stroke:#181818;stroke-width:1.0;" width="10" x="435.5" y="137.1094"/><rect fill="#FFFFFF" height="146.5527" style="stroke:#181818;stroke-width:1.0;" width="10" x="822.5" y="195.7305"/><rect fill="#FFFFFF" height="353.7266" style="stroke:#181818;stroke-width:1.0;" width="10" x="822.5" y="559.1465"/><rect fill="#FFFFFF" height="29.3105" style="stroke:#181818;stroke-width:1.0;" width="10" x="1005.5" y="225.041"/><rect fill="#FFFFFF" height="29.3105" style="stroke:#181818;stroke-width:1.0;" width="10" x="1163" y="283.6621"/><rect fill="#FFFFFF" height="29.3105" style="stroke:#181818;stroke-width:1.0;" width="10" x="1163" y="712.6992"/><rect fill="#FFFFFF" height="29.3105" style="stroke:#181818;stroke-width:1.0;" width="10" x="1340.5" y="771.3203"/><rect fill="#FFFFFF" height="29.3105" style="stroke:#181818;stroke-width:1.0;" width="10" x="1794.5" y="829.9414"/><rect fill="#FFFFFF" height="29.3105" style="stroke:#181818;stroke-width:1.0;" width="10" x="1890.5" y="588.457"/><rect fill="#FFFFFF" height="44.3105" style="stroke:#181818;stroke-width:1.0;" width="10" x="1890.5" y="647.0781"/><rect fill="none" height="336.416" style="stroke:#000000;stroke-width:1.5;" width="1264" x="10" y="98.4883"/><rect fill="none" height="163.8633" style="stroke:#000000;stroke-width:1.5;" width="1618" x="337" y="520.5254"/><rect fill="none" height="75.9316" style="stroke:#000000;stroke-width:1.5;" width="949" x="10" y="874.252"/><line style="stroke:#181818;stroke-width:0.5;stroke-dasharray:5.0,5.0;" x1="82" x2="82" y1="81.4883" y2="967.1836"/><line style="stroke:#181818;stroke-width:0.5;stroke-dasharray:5.0,5.0;" x1="440" x2="440" y1="81.4883" y2="967.1836"/><line style="stroke:#181818;stroke-width:0.5;stroke-dasharray:5.0,5.0;" x1="827" x2="827" y1="81.4883" y2="967.1836"/><line style="stroke:#181818;stroke-width:0.5;stroke-dasharray:5.0,5.0;" x1="1010" x2="1010" y1="81.4883" y2="967.1836"/><line style="stroke:#181818;stroke-width:0.5;stroke-dasharray:5.0,5.0;" x1="1168" x2="1168" y1="81.4883" y2="967.1836"/><line style="stroke:#181818;stroke-width:0.5;stroke-dasharray:5.0,5.0;" x1="1345" x2="1345" y1="81.4883" y2="967.1836"/><line style="stroke:#181818;stroke-width:0.5;stroke-dasharray:5.0,5.0;" x1="1584" x2="1584" y1="81.4883" y2="967.1836"/><line style="stroke:#181818;stroke-width:0.5;stroke-dasharray:5.0,5.0;" x1="1799" x2="1799" y1="81.4883" y2="967.1836"/><line style="stroke:#181818;stroke-width:0.5;stroke-dasharray:5.0,5.0;" x1="1895" x2="1895" y1="81.4883" y2="967.1836"/><line style="stroke:#181818;stroke-width:0.5;stroke-dasharray:5.0,5.0;" x1="2050" x2="2050" y1="81.4883" y2="967.1836"/><text fill="#000000" font-family="sans-serif" font-size="14" lengthAdjust="spacing" textLength="119" x="20" y="78.5352">Real Estate Agent</text><ellipse cx="82.5" cy="13.5" fill="#E3E3E3" rx="8" ry="8" style="stroke:#181818;stroke-width:0.5;"/><path d="M82.5,21.5 L82.5,48.5 M69.5,29.5 L95.5,29.5 M82.5,48.5 L69.5,63.5 M82.5,48.5 L95.5,63.5 " fill="none" style="stroke:#181818;stroke-width:0.5;"/><text fill="#000000" font-family="sans-serif" font-size="14" lengthAdjust="spacing" textLength="119" x="20" y="979.7188">Real Estate Agent</text><ellipse cx="82.5" cy="991.1719" fill="#E3E3E3" rx="8" ry="8" style="stroke:#181818;stroke-width:0.5;"/><path d="M82.5,999.1719 L82.5,1026.1719 M69.5,1007.1719 L95.5,1007.1719 M82.5,1026.1719 L69.5,1041.1719 M82.5,1026.1719 L95.5,1041.1719 " fill="none" style="stroke:#181818;stroke-width:0.5;"/><rect fill="#E3E3E3" height="30.4883" rx="2.5" ry="2.5" style="stroke:#181818;stroke-width:0.5;" width="187" x="347" y="50"/><text fill="#000000" font-family="sans-serif" font-size="14" lengthAdjust="spacing" textLength="173" x="354" y="70.5352">:PublishAnnouncementUI</text><rect fill="#E3E3E3" height="30.4883" rx="2.5" ry="2.5" style="stroke:#181818;stroke-width:0.5;" width="187" x="347" y="966.1836"/><text fill="#000000" font-family="sans-serif" font-size="14" lengthAdjust="spacing" textLength="173" x="354" y="986.7188">:PublishAnnouncementUI</text><rect fill="#E3E3E3" height="30.4883" rx="2.5" ry="2.5" style="stroke:#181818;stroke-width:0.5;" width="243" x="706" y="50"/><text fill="#000000" font-family="sans-serif" font-size="14" lengthAdjust="spacing" textLength="229" x="713" y="70.5352">:PublishAnnouncementController</text><rect fill="#E3E3E3" height="30.4883" rx="2.5" ry="2.5" style="stroke:#181818;stroke-width:0.5;" width="243" x="706" y="966.1836"/><text fill="#000000" font-family="sans-serif" font-size="14" lengthAdjust="spacing" textLength="229" x="713" y="986.7188">:PublishAnnouncementController</text><rect fill="#E3E3E3" height="30.4883" rx="2.5" ry="2.5" style="stroke:#181818;stroke-width:0.5;" width="103" x="959" y="50"/><text fill="#000000" font-family="sans-serif" font-size="14" lengthAdjust="spacing" textLength="89" x="966" y="70.5352">:Repositories</text><rect fill="#E3E3E3" height="30.4883" rx="2.5" ry="2.5" style="stroke:#181818;stroke-width:0.5;" width="103" x="959" y="966.1836"/><text fill="#000000" font-family="sans-serif" font-size="14" lengthAdjust="spacing" textLength="89" x="966" y="986.7188">:Repositories</text><rect fill="#E3E3E3" height="30.4883" rx="2.5" ry="2.5" style="stroke:#181818;stroke-width:0.5;" width="192" x="1072" y="50"/><text fill="#000000" font-family="sans-serif" font-size="14" lengthAdjust="spacing" textLength="178" x="1079" y="70.5352">AnnouncementRepository</text><rect fill="#E3E3E3" height="30.4883" rx="2.5" ry="2.5" style="stroke:#181818;stroke-width:0.5;" width="192" x="1072" y="966.1836"/><text fill="#000000" font-family="sans-serif" font-size="14" lengthAdjust="spacing" textLength="178" x="1079" y="986.7188">AnnouncementRepository</text><rect fill="#E3E3E3" height="30.4883" rx="2.5" ry="2.5" style="stroke:#181818;stroke-width:0.5;" width="143" x="1274" y="50"/><text fill="#000000" font-family="sans-serif" font-size="14" lengthAdjust="spacing" textLength="129" x="1281" y="70.5352">MessageController</text><rect fill="#E3E3E3" height="30.4883" rx="2.5" ry="2.5" style="stroke:#181818;stroke-width:0.5;" width="143" x="1274" y="966.1836"/><text fill="#000000" font-family="sans-serif" font-size="14" lengthAdjust="spacing" textLength="129" x="1281" y="986.7188">MessageController</text><rect fill="#E3E3E3" height="30.4883" rx="2.5" ry="2.5" style="stroke:#181818;stroke-width:0.5;" width="59" x="1555" y="50"/><text fill="#000000" font-family="sans-serif" font-size="14" lengthAdjust="spacing" textLength="45" x="1562" y="70.5352">Owner</text><rect fill="#E3E3E3" height="30.4883" rx="2.5" ry="2.5" style="stroke:#181818;stroke-width:0.5;" width="59" x="1555" y="966.1836"/><text fill="#000000" font-family="sans-serif" font-size="14" lengthAdjust="spacing" textLength="45" x="1562" y="986.7188">Owner</text><rect fill="#E3E3E3" height="30.4883" rx="2.5" ry="2.5" style="stroke:#181818;stroke-width:0.5;" width="73" x="1763" y="50"/><text fill="#000000" font-family="sans-serif" font-size="14" lengthAdjust="spacing" textLength="59" x="1770" y="70.5352">Message</text><rect fill="#E3E3E3" height="30.4883" rx="2.5" ry="2.5" style="stroke:#181818;stroke-width:0.5;" width="73" x="1763" y="966.1836"/><text fill="#000000" font-family="sans-serif" font-size="14" lengthAdjust="spacing" textLength="59" x="1770" y="986.7188">Message</text><rect fill="#E3E3E3" height="30.4883" rx="2.5" ry="2.5" style="stroke:#181818;stroke-width:0.5;" width="99" x="1846" y="50"/><text fill="#000000" font-family="sans-serif" font-size="14" lengthAdjust="spacing" textLength="85" x="1853" y="70.5352">Commission</text><rect fill="#E3E3E3" height="30.4883" rx="2.5" ry="2.5" style="stroke:#181818;stroke-width:0.5;" width="99" x="1846" y="966.1836"/><text fill="#000000" font-family="sans-serif" font-size="14" lengthAdjust="spacing" textLength="85" x="1853" y="986.7188">Commission</text><rect fill="#E3E3E3" height="30.4883" rx="2.5" ry="2.5" style="stroke:#181818;stroke-width:0.5;" width="190" x="1955" y="50"/><text fill="#000000" font-family="sans-serif" font-size="14" lengthAdjust="spacing" textLength="176" x="1962" y="70.5352">announcementRepository</text><rect fill="#E3E3E3" height="30.4883" rx="2.5" ry="2.5" style="stroke:#181818;stroke-width:0.5;" width="190" x="1955" y="966.1836"/><text fill="#000000" font-family="sans-serif" font-size="14" lengthAdjust="spacing" textLength="176" x="1962" y="986.7188">announcementRepository</text><rect fill="#FFFFFF" height="865.6953" style="stroke:#181818;stroke-width:1.0;" width="10" x="77.5" y="91.4883"/><rect fill="#FFFFFF" height="820.0742" style="stroke:#181818;stroke-width:1.0;" width="10" x="435.5" y="137.1094"/><rect fill="#FFFFFF" height="146.5527" style="stroke:#181818;stroke-width:1.0;" width="10" x="822.5" y="195.7305"/><rect fill="#FFFFFF" height="353.7266" style="stroke:#181818;stroke-width:1.0;" width="10" x="822.5" y="559.1465"/><rect fill="#FFFFFF" height="29.3105" style="stroke:#181818;stroke-width:1.0;" width="10" x="1005.5" y="225.041"/><rect fill="#FFFFFF" height="29.3105" style="stroke:#181818;stroke-width:1.0;" width="10" x="1163" y="283.6621"/><rect fill="#FFFFFF" height="29.3105" style="stroke:#181818;stroke-width:1.0;" width="10" x="1163" y="712.6992"/><rect fill="#FFFFFF" height="29.3105" style="stroke:#181818;stroke-width:1.0;" width="10" x="1340.5" y="771.3203"/><rect fill="#FFFFFF" height="29.3105" style="stroke:#181818;stroke-width:1.0;" width="10" x="1794.5" y="829.9414"/><rect fill="#FFFFFF" height="29.3105" style="stroke:#181818;stroke-width:1.0;" width="10" x="1890.5" y="588.457"/><rect fill="#FFFFFF" height="44.3105" style="stroke:#181818;stroke-width:1.0;" width="10" x="1890.5" y="647.0781"/><path d="M10,98.4883 L155,98.4883 L155,105.7988 L145,115.7988 L10,115.7988 L10,98.4883 " fill="#EEEEEE" style="stroke:#000000;stroke-width:1.5;"/><rect fill="none" height="336.416" style="stroke:#000000;stroke-width:1.5;" width="1264" x="10" y="98.4883"/><text fill="#000000" font-family="sans-serif" font-size="13" font-weight="bold" lengthAdjust="spacing" textLength="100" x="25" y="112.0566">In Agent Menu</text><polygon fill="#181818" points="423.5,133.1094,433.5,137.1094,423.5,141.1094,427.5,137.1094" style="stroke:#181818;stroke-width:1.0;"/><line style="stroke:#181818;stroke-width:1.0;" x1="87.5" x2="429.5" y1="137.1094" y2="137.1094"/><text fill="#000000" font-family="sans-serif" font-size="13" font-weight="bold" lengthAdjust="spacing" textLength="21" x="94.5" y="132.3672">1.1</text><text fill="#000000" font-family="sans-serif" font-size="13" lengthAdjust="spacing" textLength="217" x="119.5" y="132.3672">displayAndSelectAnnouncements()</text><polygon fill="#181818" points="815.5,162.4199,825.5,166.4199,815.5,170.4199,819.5,166.4199" style="stroke:#181818;stroke-width:1.0;"/><line style="stroke:#181818;stroke-width:1.0;stroke-dasharray:2.0,2.0;" x1="445.5" x2="821.5" y1="166.4199" y2="166.4199"/><text fill="#000000" font-family="sans-serif" font-size="13" font-weight="bold" lengthAdjust="spacing" textLength="21" x="452.5" y="161.6777">1.2</text><text fill="#000000" font-family="sans-serif" font-size="13" lengthAdjust="spacing" textLength="241" x="477.5" y="161.6777">new PublishAnnouncementController()</text><polygon fill="#181818" points="810.5,191.7305,820.5,195.7305,810.5,199.7305,814.5,195.7305" style="stroke:#181818;stroke-width:1.0;"/><line style="stroke:#181818;stroke-width:1.0;" x1="445.5" x2="816.5" y1="195.7305" y2="195.7305"/><text fill="#000000" font-family="sans-serif" font-size="13" font-weight="bold" lengthAdjust="spacing" textLength="21" x="452.5" y="190.9883">1.3</text><text fill="#000000" font-family="sans-serif" font-size="13" lengthAdjust="spacing" textLength="123" x="477.5" y="190.9883">getAnnouncement()</text><polygon fill="#181818" points="993.5,221.041,1003.5,225.041,993.5,229.041,997.5,225.041" style="stroke:#181818;stroke-width:1.0;"/><line style="stroke:#181818;stroke-width:1.0;" x1="832.5" x2="999.5" y1="225.041" y2="225.041"/><text fill="#000000" font-family="sans-serif" font-size="13" font-weight="bold" lengthAdjust="spacing" textLength="21" x="839.5" y="220.2988">1.4</text><text fill="#000000" font-family="sans-serif" font-size="13" lengthAdjust="spacing" textLength="81" x="864.5" y="220.2988">getInstance()</text><polygon fill="#181818" points="843.5,250.3516,833.5,254.3516,843.5,258.3516,839.5,254.3516" style="stroke:#181818;stroke-width:1.0;"/><line style="stroke:#181818;stroke-width:1.0;stroke-dasharray:2.0,2.0;" x1="837.5" x2="1009.5" y1="254.3516" y2="254.3516"/><text fill="#000000" font-family="sans-serif" font-size="13" font-weight="bold" lengthAdjust="spacing" textLength="21" x="849.5" y="249.6094">1.5</text><text fill="#000000" font-family="sans-serif" font-size="13" lengthAdjust="spacing" textLength="75" x="874.5" y="249.6094">repositories</text><polygon fill="#181818" points="1151,279.6621,1161,283.6621,1151,287.6621,1155,283.6621" style="stroke:#181818;stroke-width:1.0;"/><line style="stroke:#181818;stroke-width:1.0;" x1="832.5" x2="1157" y1="283.6621" y2="283.6621"/><text fill="#000000" font-family="sans-serif" font-size="13" font-weight="bold" lengthAdjust="spacing" textLength="21" x="839.5" y="278.9199">1.6</text><text fill="#000000" font-family="sans-serif" font-size="13" lengthAdjust="spacing" textLength="149" x="864.5" y="278.9199">getAnnouncementById()</text><polygon fill="#181818" points="843.5,308.9727,833.5,312.9727,843.5,316.9727,839.5,312.9727" style="stroke:#181818;stroke-width:1.0;"/><line style="stroke:#181818;stroke-width:1.0;stroke-dasharray:2.0,2.0;" x1="837.5" x2="1167" y1="312.9727" y2="312.9727"/><text fill="#000000" font-family="sans-serif" font-size="13" font-weight="bold" lengthAdjust="spacing" textLength="21" x="849.5" y="308.2305">1.7</text><text fill="#000000" font-family="sans-serif" font-size="13" lengthAdjust="spacing" textLength="105" x="874.5" y="308.2305">announcementId</text><polygon fill="#181818" points="456.5,338.2832,446.5,342.2832,456.5,346.2832,452.5,342.2832" style="stroke:#181818;stroke-width:1.0;"/><line style="stroke:#181818;stroke-width:1.0;stroke-dasharray:2.0,2.0;" x1="450.5" x2="826.5" y1="342.2832" y2="342.2832"/><text fill="#000000" font-family="sans-serif" font-size="13" font-weight="bold" lengthAdjust="spacing" textLength="21" x="462.5" y="337.541">1.8</text><text fill="#000000" font-family="sans-serif" font-size="13" lengthAdjust="spacing" textLength="93" x="487.5" y="337.541">announcement</text><line style="stroke:#181818;stroke-width:1.0;" x1="445.5" x2="487.5" y1="371.5938" y2="371.5938"/><line style="stroke:#181818;stroke-width:1.0;" x1="487.5" x2="487.5" y1="371.5938" y2="384.5938"/><line style="stroke:#181818;stroke-width:1.0;" x1="446.5" x2="487.5" y1="384.5938" y2="384.5938"/><polygon fill="#181818" points="456.5,380.5938,446.5,384.5938,456.5,388.5938,452.5,384.5938" style="stroke:#181818;stroke-width:1.0;"/><text fill="#000000" font-family="sans-serif" font-size="13" font-weight="bold" lengthAdjust="spacing" textLength="21" x="452.5" y="366.8516">1.9</text><text fill="#000000" font-family="sans-serif" font-size="13" lengthAdjust="spacing" textLength="263" x="477.5" y="366.8516">createAnnouncementView(announcement)</text><line style="stroke:#181818;stroke-width:1.0;" x1="445.5" x2="487.5" y1="413.9043" y2="413.9043"/><line style="stroke:#181818;stroke-width:1.0;" x1="487.5" x2="487.5" y1="413.9043" y2="426.9043"/><line style="stroke:#181818;stroke-width:1.0;" x1="446.5" x2="487.5" y1="426.9043" y2="426.9043"/><polygon fill="#181818" points="456.5,422.9043,446.5,426.9043,456.5,430.9043,452.5,426.9043" style="stroke:#181818;stroke-width:1.0;"/><text fill="#000000" font-family="sans-serif" font-size="13" font-weight="bold" lengthAdjust="spacing" textLength="30" x="452.5" y="409.1621">1.10</text><text fill="#000000" font-family="sans-serif" font-size="13" lengthAdjust="spacing" textLength="177" x="486.5" y="409.1621">displayAnnouncementView()</text><polygon fill="#181818" points="423.5,459.2148,433.5,463.2148,423.5,467.2148,427.5,463.2148" style="stroke:#181818;stroke-width:1.0;"/><line style="stroke:#181818;stroke-width:1.0;" x1="87.5" x2="429.5" y1="463.2148" y2="463.2148"/><text fill="#000000" font-family="sans-serif" font-size="13" font-weight="bold" lengthAdjust="spacing" textLength="9" x="94.5" y="458.4727">2</text><text fill="#000000" font-family="sans-serif" font-size="13" lengthAdjust="spacing" textLength="150" x="107.5" y="458.4727">publishAnnouncement()</text><line style="stroke:#181818;stroke-width:1.0;" x1="445.5" x2="487.5" y1="492.5254" y2="492.5254"/><line style="stroke:#181818;stroke-width:1.0;" x1="487.5" x2="487.5" y1="492.5254" y2="505.5254"/><line style="stroke:#181818;stroke-width:1.0;" x1="446.5" x2="487.5" y1="505.5254" y2="505.5254"/><polygon fill="#181818" points="456.5,501.5254,446.5,505.5254,456.5,509.5254,452.5,505.5254" style="stroke:#181818;stroke-width:1.0;"/><text fill="#000000" font-family="sans-serif" font-size="13" font-weight="bold" lengthAdjust="spacing" textLength="9" x="452.5" y="487.7832">3</text><text fill="#000000" font-family="sans-serif" font-size="13" lengthAdjust="spacing" textLength="167" x="465.5" y="487.7832">getAnnouncementDetails()</text><path d="M337,520.5254 L764,520.5254 L764,527.8359 L754,537.8359 L337,537.8359 L337,520.5254 " fill="#EEEEEE" style="stroke:#000000;stroke-width:1.5;"/><rect fill="none" height="163.8633" style="stroke:#000000;stroke-width:1.5;" width="1618" x="337" y="520.5254"/><text fill="#000000" font-family="sans-serif" font-size="13" font-weight="bold" lengthAdjust="spacing" textLength="382" x="352" y="534.0938">Announcement validation (only commission in this case)</text><polygon fill="#181818" points="810.5,555.1465,820.5,559.1465,810.5,563.1465,814.5,559.1465" style="stroke:#181818;stroke-width:1.0;"/><line style="stroke:#181818;stroke-width:1.0;stroke-dasharray:2.0,2.0;" x1="445.5" x2="816.5" y1="559.1465" y2="559.1465"/><text fill="#000000" font-family="sans-serif" font-size="13" font-weight="bold" lengthAdjust="spacing" textLength="21" x="452.5" y="554.4043">4.1</text><text fill="#000000" font-family="sans-serif" font-size="13" lengthAdjust="spacing" textLength="333" x="477.5" y="554.4043">validateAnnouncementDetails(announcementDetails)</text><polygon fill="#181818" points="1878.5,584.457,1888.5,588.457,1878.5,592.457,1882.5,588.457" style="stroke:#181818;stroke-width:1.0;"/><line style="stroke:#181818;stroke-width:1.0;" x1="832.5" x2="1884.5" y1="588.457" y2="588.457"/><text fill="#000000" font-family="sans-serif" font-size="13" font-weight="bold" lengthAdjust="spacing" textLength="21" x="839.5" y="583.7148">4.2</text><text fill="#000000" font-family="sans-serif" font-size="13" lengthAdjust="spacing" textLength="137" x="864.5" y="583.7148">getCommissionType()</text><polygon fill="#181818" points="843.5,613.7676,833.5,617.7676,843.5,621.7676,839.5,617.7676" style="stroke:#181818;stroke-width:1.0;"/><line style="stroke:#181818;stroke-width:1.0;stroke-dasharray:2.0,2.0;" x1="837.5" x2="1894.5" y1="617.7676" y2="617.7676"/><text fill="#000000" font-family="sans-serif" font-size="13" font-weight="bold" lengthAdjust="spacing" textLength="21" x="849.5" y="613.0254">4.3</text><text fill="#000000" font-family="sans-serif" font-size="13" lengthAdjust="spacing" textLength="107" x="874.5" y="613.0254">commissionType</text><polygon fill="#181818" points="1878.5,643.0781,1888.5,647.0781,1878.5,651.0781,1882.5,647.0781" style="stroke:#181818;stroke-width:1.0;"/><line style="stroke:#181818;stroke-width:1.0;" x1="832.5" x2="1884.5" y1="647.0781" y2="647.0781"/><text fill="#000000" font-family="sans-serif" font-size="13" font-weight="bold" lengthAdjust="spacing" textLength="21" x="839.5" y="642.3359">4.4</text><text fill="#000000" font-family="sans-serif" font-size="13" lengthAdjust="spacing" textLength="388" x="864.5" y="642.3359">validateCommission(commissionType, announcementDetails)</text><polygon fill="#181818" points="843.5,672.3887,833.5,676.3887,843.5,680.3887,839.5,676.3887" style="stroke:#181818;stroke-width:1.0;"/><line style="stroke:#181818;stroke-width:1.0;stroke-dasharray:2.0,2.0;" x1="837.5" x2="1889.5" y1="676.3887" y2="676.3887"/><text fill="#000000" font-family="sans-serif" font-size="13" font-weight="bold" lengthAdjust="spacing" textLength="21" x="849.5" y="671.6465">4.5</text><text fill="#000000" font-family="sans-serif" font-size="13" lengthAdjust="spacing" textLength="108" x="874.5" y="671.6465">commissionValid</text><polygon fill="#181818" points="1151,708.6992,1161,712.6992,1151,716.6992,1155,712.6992" style="stroke:#181818;stroke-width:1.0;"/><line style="stroke:#181818;stroke-width:1.0;" x1="832.5" x2="1157" y1="712.6992" y2="712.6992"/><text fill="#000000" font-family="sans-serif" font-size="13" font-weight="bold" lengthAdjust="spacing" textLength="9" x="839.5" y="707.957">5</text><text fill="#000000" font-family="sans-serif" font-size="13" lengthAdjust="spacing" textLength="278" x="852.5" y="707.957">createAnnouncement(announcementDetails)</text><polygon fill="#181818" points="2038,738.0098,2048,742.0098,2038,746.0098,2042,742.0098" style="stroke:#181818;stroke-width:1.0;"/><line style="stroke:#181818;stroke-width:1.0;" x1="1168" x2="2044" y1="742.0098" y2="742.0098"/><text fill="#000000" font-family="sans-serif" font-size="13" font-weight="bold" lengthAdjust="spacing" textLength="9" x="1175" y="737.2676">6</text><text fill="#000000" font-family="sans-serif" font-size="13" lengthAdjust="spacing" textLength="278" x="1188" y="737.2676">createAnnouncement(announcementDetails)</text><polygon fill="#181818" points="1328.5,767.3203,1338.5,771.3203,1328.5,775.3203,1332.5,771.3203" style="stroke:#181818;stroke-width:1.0;"/><line style="stroke:#181818;stroke-width:1.0;" x1="832.5" x2="1334.5" y1="771.3203" y2="771.3203"/><text fill="#000000" font-family="sans-serif" font-size="13" font-weight="bold" lengthAdjust="spacing" textLength="21" x="839.5" y="766.5781">7.1</text><text fill="#000000" font-family="sans-serif" font-size="13" lengthAdjust="spacing" textLength="241" x="864.5" y="766.5781">sendMessageToOwner(announcement)</text><polygon fill="#181818" points="1572.5,796.6309,1582.5,800.6309,1572.5,804.6309,1576.5,800.6309" style="stroke:#181818;stroke-width:1.0;"/><line style="stroke:#181818;stroke-width:1.0;stroke-dasharray:2.0,2.0;" x1="1345.5" x2="1578.5" y1="800.6309" y2="800.6309"/><text fill="#000000" font-family="sans-serif" font-size="13" font-weight="bold" lengthAdjust="spacing" textLength="21" x="1352.5" y="795.8887">7.2</text><text fill="#000000" font-family="sans-serif" font-size="13" lengthAdjust="spacing" textLength="185" x="1377.5" y="795.8887">sendMessage(announcement)</text><polygon fill="#181818" points="1782.5,825.9414,1792.5,829.9414,1782.5,833.9414,1786.5,829.9414" style="stroke:#181818;stroke-width:1.0;"/><line style="stroke:#181818;stroke-width:1.0;" x1="832.5" x2="1788.5" y1="829.9414" y2="829.9414"/><text fill="#000000" font-family="sans-serif" font-size="13" font-weight="bold" lengthAdjust="spacing" textLength="21" x="839.5" y="825.1992">7.3</text><text fill="#000000" font-family="sans-serif" font-size="13" lengthAdjust="spacing" textLength="286" x="864.5" y="825.1992">createMessage(announcement, Agent, Owner)</text><polygon fill="#181818" points="1595.5,855.252,1585.5,859.252,1595.5,863.252,1591.5,859.252" style="stroke:#181818;stroke-width:1.0;"/><line style="stroke:#181818;stroke-width:1.0;stroke-dasharray:2.0,2.0;" x1="1589.5" x2="1798.5" y1="859.252" y2="859.252"/><text fill="#000000" font-family="sans-serif" font-size="13" font-weight="bold" lengthAdjust="spacing" textLength="21" x="1601.5" y="854.5098">7.4</text><text fill="#000000" font-family="sans-serif" font-size="13" lengthAdjust="spacing" textLength="161" x="1626.5" y="854.5098">receiveMessage(message)</text><path d="M10,874.252 L466,874.252 L466,881.5625 L456,891.5625 L10,891.5625 L10,874.252 " fill="#EEEEEE" style="stroke:#000000;stroke-width:1.5;"/><rect fill="none" height="75.9316" style="stroke:#000000;stroke-width:1.5;" width="949" x="10" y="874.252"/><text fill="#000000" font-family="sans-serif" font-size="13" font-weight="bold" lengthAdjust="spacing" textLength="411" x="25" y="887.8203">Informating the agent the announcment has been published</text><polygon fill="#181818" points="456.5,908.873,446.5,912.873,456.5,916.873,452.5,912.873" style="stroke:#181818;stroke-width:1.0;"/><line style="stroke:#181818;stroke-width:1.0;stroke-dasharray:2.0,2.0;" x1="450.5" x2="826.5" y1="912.873" y2="912.873"/><text fill="#000000" font-family="sans-serif" font-size="13" font-weight="bold" lengthAdjust="spacing" textLength="21" x="462.5" y="908.1309">8.1</text><text fill="#000000" font-family="sans-serif" font-size="13" lengthAdjust="spacing" textLength="154" x="487.5" y="908.1309">announcementPublished</text><polygon fill="#181818" points="98.5,938.1836,88.5,942.1836,98.5,946.1836,94.5,942.1836" style="stroke:#181818;stroke-width:1.0;"/><line style="stroke:#181818;stroke-width:1.0;" x1="92.5" x2="434.5" y1="942.1836" y2="942.1836"/><text fill="#000000" font-family="sans-serif" font-size="13" font-weight="bold" lengthAdjust="spacing" textLength="21" x="104.5" y="937.4414">8.2</text><text fill="#000000" font-family="sans-serif" font-size="13" lengthAdjust="spacing" textLength="299" x="129.5" y="937.4414">showSuccessMessage(announcementPublished)</text><!--SRC=[dLR1Rjim3BtxAuIS4Y0jq673jXuAPDaE1ZQiIDhU5PkrXSgI8Sa9_FTZfDYXRAVPraijYU_fYNoKOj-4ghdX5QkqqbbfT0NCcGOIsw_KF7lZ1MnTAu4Po1nNXQG1jkIvFWXLi5SkBIG9pvmsRBO1BjaFwxW3jYf0kHdZDdmbY7GY4pLNZitk7vkT5BPSAQKRbK654S-fZtvEhuUkjN96Imd6GzPFcvy3q0PgRGMA4c1z39s8Oobn7zK6vPDBCVmNM8l96aWQpSQWtmTr2lHVauoK9mvOwweIrWgjml7xOS8RfrLJxS2mEryLiUzh4ItUtYM5qKtDKXLMSIVL9E7pvW6hmEvPBcmjURjI-HOase2cmyuNPtwi6G9k47Si1I8L7DYxTKFq4T432eZOARclhW_3S5h604iL-WrX518LEu8GZOO6vJ0DxlQTTi9O-BSspQcI2mwwG4VKSHAHvbJV1SgWj2iTXLEmJsR8l8_B3E0qfNmHS9XJ-8B6zvOO01P90Ygd5lkG3DnKZ_qmZxW7gVmEZWjvzDd9gdIHxRaKENTeUZRNIhOiwxk02SLSAIpBk8K5rVGn6c0FnAuzSSAK2ZwUk-JHSp-6Gvt7JsqT-PHqBW4HHLa4ZGf9e5FxTcSvJyvZiYMxSgI_r_Pot8kczfCtmxJQwoqrzkILxFzZapr49_-lhQ-t8_wHX7oE1cYyBWcZTm95M4pUQVv9-_TXq8_ztkDNPinth9WdYPa7bEH0OzA1s3vFKrJBy9mimvvZhPt2I1V-nW2nx_cgy3zgtI-OqB78E88Eo0Ftgas5DmN-Md4bCEul9VyLPFlhfCHtT0UWkbiAydSkrCS-Plfc3VSUfhlKXssJPQXrAbKzJNJGhyFUmSULskt8_GS0]--></g></svg>