<?xml version="1.0" encoding="us-ascii" standalone="no"?><svg xmlns="http://www.w3.org/2000/svg" xmlns:xlink="http://www.w3.org/1999/xlink" contentStyleType="text/css" height="1019px" preserveAspectRatio="none" style="width:2651px;height:1019px;background:#FFFFFF;" version="1.1" viewBox="0 0 2651 1019" width="2651px" zoomAndPan="magnify"><defs/><g><rect fill="#FFFFFF" height="829.75" style="stroke:#181818;stroke-width:1.0;" width="10" x="68" y="91.2969"/><rect fill="#FFFFFF" height="808.6172" style="stroke:#181818;stroke-width:1.0;" width="10" x="434" y="112.4297"/><rect fill="#FFFFFF" height="203.9297" style="stroke:#181818;stroke-width:1.0;" width="10" x="848.5" y="182.8594"/><rect fill="#FFFFFF" height="320.4609" style="stroke:#181818;stroke-width:1.0;" width="10" x="848.5" y="571.4531"/><rect fill="#FFFFFF" height="29.1328" style="stroke:#181818;stroke-width:1.0;" width="10" x="1040" y="211.9922"/><rect fill="#FFFFFF" height="29.1328" style="stroke:#181818;stroke-width:1.0;" width="10" x="1205.5" y="270.2578"/><rect fill="#FFFFFF" height="29.1328" style="stroke:#181818;stroke-width:1.0;" width="10" x="1628.5" y="328.5234"/><rect fill="#FFFFFF" height="29.1328" style="stroke:#181818;stroke-width:1.0;" width="10" x="1628.5" y="717.1172"/><rect fill="#FFFFFF" height="29.1328" style="stroke:#181818;stroke-width:1.0;" width="10" x="1814" y="775.3828"/><rect fill="#FFFFFF" height="29.1328" style="stroke:#181818;stroke-width:1.0;" width="10" x="2281" y="833.6484"/><rect fill="#FFFFFF" height="29.1328" style="stroke:#181818;stroke-width:1.0;" width="10" x="2379" y="600.5859"/><rect fill="#FFFFFF" height="29.1328" style="stroke:#181818;stroke-width:1.0;" width="10" x="2379" y="658.8516"/><line style="stroke:#181818;stroke-width:0.5;stroke-dasharray:5.0,5.0;" x1="73" x2="73" y1="81.2969" y2="939.0469"/><line style="stroke:#181818;stroke-width:0.5;stroke-dasharray:5.0,5.0;" x1="438.5" x2="438.5" y1="81.2969" y2="939.0469"/><line style="stroke:#181818;stroke-width:0.5;stroke-dasharray:5.0,5.0;" x1="853" x2="853" y1="151.0781" y2="939.0469"/><line style="stroke:#181818;stroke-width:0.5;stroke-dasharray:5.0,5.0;" x1="1045" x2="1045" y1="81.2969" y2="939.0469"/><line style="stroke:#181818;stroke-width:0.5;stroke-dasharray:5.0,5.0;" x1="1210" x2="1210" y1="81.2969" y2="939.0469"/><line style="stroke:#181818;stroke-width:0.5;stroke-dasharray:5.0,5.0;" x1="1421" x2="1421" y1="81.2969" y2="939.0469"/><line style="stroke:#181818;stroke-width:0.5;stroke-dasharray:5.0,5.0;" x1="1633" x2="1633" y1="81.2969" y2="939.0469"/><line style="stroke:#181818;stroke-width:0.5;stroke-dasharray:5.0,5.0;" x1="1819" x2="1819" y1="81.2969" y2="939.0469"/><line style="stroke:#181818;stroke-width:0.5;stroke-dasharray:5.0,5.0;" x1="2063" x2="2063" y1="81.2969" y2="939.0469"/><line style="stroke:#181818;stroke-width:0.5;stroke-dasharray:5.0,5.0;" x1="2285.5" x2="2285.5" y1="81.2969" y2="939.0469"/><line style="stroke:#181818;stroke-width:0.5;stroke-dasharray:5.0,5.0;" x1="2383.5" x2="2383.5" y1="81.2969" y2="939.0469"/><line style="stroke:#181818;stroke-width:0.5;stroke-dasharray:5.0,5.0;" x1="2544.5" x2="2544.5" y1="81.2969" y2="939.0469"/><text fill="#000000" font-family="sans-serif" font-size="14" lengthAdjust="spacing" textLength="130" x="5" y="77.9951">Real Estate Agent</text><ellipse cx="73" cy="13.5" fill="#E3E3E3" rx="8" ry="8" style="stroke:#181818;stroke-width:0.5;"/><path d="M73,21.5 L73,48.5 M60,29.5 L86,29.5 M73,48.5 L60,63.5 M73,48.5 L86,63.5 " fill="none" style="stroke:#181818;stroke-width:0.5;"/><text fill="#000000" font-family="sans-serif" font-size="14" lengthAdjust="spacing" textLength="130" x="5" y="951.042">Real Estate Agent</text><ellipse cx="73" cy="962.8438" fill="#E3E3E3" rx="8" ry="8" style="stroke:#181818;stroke-width:0.5;"/><path d="M73,970.8438 L73,997.8438 M60,978.8438 L86,978.8438 M73,997.8438 L60,1012.8438 M73,997.8438 L86,1012.8438 " fill="none" style="stroke:#181818;stroke-width:0.5;"/><rect fill="#E3E3E3" height="30.2969" rx="2.5" ry="2.5" style="stroke:#181818;stroke-width:0.5;" width="193" x="342.5" y="50"/><text fill="#000000" font-family="sans-serif" font-size="14" lengthAdjust="spacing" textLength="179" x="349.5" y="69.9951">:PublishAnnouncementUI</text><rect fill="#E3E3E3" height="30.2969" rx="2.5" ry="2.5" style="stroke:#181818;stroke-width:0.5;" width="193" x="342.5" y="938.0469"/><text fill="#000000" font-family="sans-serif" font-size="14" lengthAdjust="spacing" textLength="179" x="349.5" y="958.042">:PublishAnnouncementUI</text><rect fill="#E3E3E3" height="30.2969" rx="2.5" ry="2.5" style="stroke:#181818;stroke-width:0.5;" width="253" x="727" y="938.0469"/><text fill="#000000" font-family="sans-serif" font-size="14" lengthAdjust="spacing" textLength="239" x="734" y="958.042">:PublishAnnouncementController</text><rect fill="#E3E3E3" height="30.2969" rx="2.5" ry="2.5" style="stroke:#181818;stroke-width:0.5;" width="110" x="990" y="50"/><text fill="#000000" font-family="sans-serif" font-size="14" lengthAdjust="spacing" textLength="96" x="997" y="69.9951">:Repositories</text><rect fill="#E3E3E3" height="30.2969" rx="2.5" ry="2.5" style="stroke:#181818;stroke-width:0.5;" width="110" x="990" y="938.0469"/><text fill="#000000" font-family="sans-serif" font-size="14" lengthAdjust="spacing" textLength="96" x="997" y="958.042">:Repositories</text><rect fill="#E3E3E3" height="30.2969" rx="2.5" ry="2.5" style="stroke:#181818;stroke-width:0.5;" width="201" x="1110" y="50"/><text fill="#000000" font-family="sans-serif" font-size="14" lengthAdjust="spacing" textLength="187" x="1117" y="69.9951">repositories :Repositories</text><rect fill="#E3E3E3" height="30.2969" rx="2.5" ry="2.5" style="stroke:#181818;stroke-width:0.5;" width="201" x="1110" y="938.0469"/><text fill="#000000" font-family="sans-serif" font-size="14" lengthAdjust="spacing" textLength="187" x="1117" y="958.042">repositories :Repositories</text><rect fill="#E3E3E3" height="30.2969" rx="2.5" ry="2.5" style="stroke:#181818;stroke-width:0.5;" width="201" x="1321" y="50"/><text fill="#000000" font-family="sans-serif" font-size="14" lengthAdjust="spacing" textLength="187" x="1328" y="69.9951">AuthenticationRepository</text><rect fill="#E3E3E3" height="30.2969" rx="2.5" ry="2.5" style="stroke:#181818;stroke-width:0.5;" width="201" x="1321" y="938.0469"/><text fill="#000000" font-family="sans-serif" font-size="14" lengthAdjust="spacing" textLength="187" x="1328" y="958.042">AuthenticationRepository</text><rect fill="#E3E3E3" height="30.2969" rx="2.5" ry="2.5" style="stroke:#181818;stroke-width:0.5;" width="203" x="1532" y="50"/><text fill="#000000" font-family="sans-serif" font-size="14" lengthAdjust="spacing" textLength="189" x="1539" y="69.9951">AnnouncementRepository</text><rect fill="#E3E3E3" height="30.2969" rx="2.5" ry="2.5" style="stroke:#181818;stroke-width:0.5;" width="203" x="1532" y="938.0469"/><text fill="#000000" font-family="sans-serif" font-size="14" lengthAdjust="spacing" textLength="189" x="1539" y="958.042">AnnouncementRepository</text><rect fill="#E3E3E3" height="30.2969" rx="2.5" ry="2.5" style="stroke:#181818;stroke-width:0.5;" width="148" x="1745" y="50"/><text fill="#000000" font-family="sans-serif" font-size="14" lengthAdjust="spacing" textLength="134" x="1752" y="69.9951">MessageController</text><rect fill="#E3E3E3" height="30.2969" rx="2.5" ry="2.5" style="stroke:#181818;stroke-width:0.5;" width="148" x="1745" y="938.0469"/><text fill="#000000" font-family="sans-serif" font-size="14" lengthAdjust="spacing" textLength="134" x="1752" y="958.042">MessageController</text><rect fill="#E3E3E3" height="30.2969" rx="2.5" ry="2.5" style="stroke:#181818;stroke-width:0.5;" width="60" x="2033" y="50"/><text fill="#000000" font-family="sans-serif" font-size="14" lengthAdjust="spacing" textLength="46" x="2040" y="69.9951">Owner</text><rect fill="#E3E3E3" height="30.2969" rx="2.5" ry="2.5" style="stroke:#181818;stroke-width:0.5;" width="60" x="2033" y="938.0469"/><text fill="#000000" font-family="sans-serif" font-size="14" lengthAdjust="spacing" textLength="46" x="2040" y="958.042">Owner</text><rect fill="#E3E3E3" height="30.2969" rx="2.5" ry="2.5" style="stroke:#181818;stroke-width:0.5;" width="75" x="2248.5" y="50"/><text fill="#000000" font-family="sans-serif" font-size="14" lengthAdjust="spacing" textLength="61" x="2255.5" y="69.9951">Message</text><rect fill="#E3E3E3" height="30.2969" rx="2.5" ry="2.5" style="stroke:#181818;stroke-width:0.5;" width="75" x="2248.5" y="938.0469"/><text fill="#000000" font-family="sans-serif" font-size="14" lengthAdjust="spacing" textLength="61" x="2255.5" y="958.042">Message</text><rect fill="#E3E3E3" height="30.2969" rx="2.5" ry="2.5" style="stroke:#181818;stroke-width:0.5;" width="101" x="2333.5" y="50"/><text fill="#000000" font-family="sans-serif" font-size="14" lengthAdjust="spacing" textLength="87" x="2340.5" y="69.9951">Commission</text><rect fill="#E3E3E3" height="30.2969" rx="2.5" ry="2.5" style="stroke:#181818;stroke-width:0.5;" width="101" x="2333.5" y="938.0469"/><text fill="#000000" font-family="sans-serif" font-size="14" lengthAdjust="spacing" textLength="87" x="2340.5" y="958.042">Commission</text><rect fill="#E3E3E3" height="30.2969" rx="2.5" ry="2.5" style="stroke:#181818;stroke-width:0.5;" width="201" x="2444.5" y="50"/><text fill="#000000" font-family="sans-serif" font-size="14" lengthAdjust="spacing" textLength="187" x="2451.5" y="69.9951">announcementRepository</text><rect fill="#E3E3E3" height="30.2969" rx="2.5" ry="2.5" style="stroke:#181818;stroke-width:0.5;" width="201" x="2444.5" y="938.0469"/><text fill="#000000" font-family="sans-serif" font-size="14" lengthAdjust="spacing" textLength="187" x="2451.5" y="958.042">announcementRepository</text><rect fill="#FFFFFF" height="829.75" style="stroke:#181818;stroke-width:1.0;" width="10" x="68" y="91.2969"/><rect fill="#FFFFFF" height="808.6172" style="stroke:#181818;stroke-width:1.0;" width="10" x="434" y="112.4297"/><rect fill="#FFFFFF" height="203.9297" style="stroke:#181818;stroke-width:1.0;" width="10" x="848.5" y="182.8594"/><rect fill="#FFFFFF" height="320.4609" style="stroke:#181818;stroke-width:1.0;" width="10" x="848.5" y="571.4531"/><rect fill="#FFFFFF" height="29.1328" style="stroke:#181818;stroke-width:1.0;" width="10" x="1040" y="211.9922"/><rect fill="#FFFFFF" height="29.1328" style="stroke:#181818;stroke-width:1.0;" width="10" x="1205.5" y="270.2578"/><rect fill="#FFFFFF" height="29.1328" style="stroke:#181818;stroke-width:1.0;" width="10" x="1628.5" y="328.5234"/><rect fill="#FFFFFF" height="29.1328" style="stroke:#181818;stroke-width:1.0;" width="10" x="1628.5" y="717.1172"/><rect fill="#FFFFFF" height="29.1328" style="stroke:#181818;stroke-width:1.0;" width="10" x="1814" y="775.3828"/><rect fill="#FFFFFF" height="29.1328" style="stroke:#181818;stroke-width:1.0;" width="10" x="2281" y="833.6484"/><rect fill="#FFFFFF" height="29.1328" style="stroke:#181818;stroke-width:1.0;" width="10" x="2379" y="600.5859"/><rect fill="#FFFFFF" height="29.1328" style="stroke:#181818;stroke-width:1.0;" width="10" x="2379" y="658.8516"/><polygon fill="#181818" points="422,108.4297,432,112.4297,422,116.4297,426,112.4297" style="stroke:#181818;stroke-width:1.0;"/><line style="stroke:#181818;stroke-width:1.0;" x1="78" x2="428" y1="112.4297" y2="112.4297"/><text fill="#000000" font-family="sans-serif" font-size="13" font-weight="bold" lengthAdjust="spacing" textLength="9" x="85" y="107.3638">1</text><text fill="#000000" font-family="sans-serif" font-size="13" lengthAdjust="spacing" textLength="224" x="98" y="107.3638">displayAndSelectAnnouncements()</text><polygon fill="#181818" points="715,137.5625,725,141.5625,715,145.5625,719,141.5625" style="stroke:#181818;stroke-width:1.0;"/><line style="stroke:#181818;stroke-width:1.0;stroke-dasharray:2.0,2.0;" x1="444" x2="721" y1="141.5625" y2="141.5625"/><text fill="#000000" font-family="sans-serif" font-size="13" font-weight="bold" lengthAdjust="spacing" textLength="9" x="451" y="136.4966">2</text><text fill="#000000" font-family="sans-serif" font-size="13" lengthAdjust="spacing" textLength="246" x="464" y="136.4966">new PublishAnnouncementController()</text><rect fill="#E3E3E3" height="30.2969" rx="2.5" ry="2.5" style="stroke:#181818;stroke-width:0.5;" width="253" x="727" y="120.4297"/><text fill="#000000" font-family="sans-serif" font-size="14" lengthAdjust="spacing" textLength="239" x="734" y="140.4248">:PublishAnnouncementController</text><polygon fill="#181818" points="836.5,178.8594,846.5,182.8594,836.5,186.8594,840.5,182.8594" style="stroke:#181818;stroke-width:1.0;"/><line style="stroke:#181818;stroke-width:1.0;" x1="444" x2="842.5" y1="182.8594" y2="182.8594"/><text fill="#000000" font-family="sans-serif" font-size="13" font-weight="bold" lengthAdjust="spacing" textLength="8" x="451" y="177.7935">3</text><text fill="#000000" font-family="sans-serif" font-size="13" lengthAdjust="spacing" textLength="129" x="463" y="177.7935">getAnnouncement()</text><polygon fill="#181818" points="1028,207.9922,1038,211.9922,1028,215.9922,1032,211.9922" style="stroke:#181818;stroke-width:1.0;"/><line style="stroke:#181818;stroke-width:1.0;" x1="858.5" x2="1034" y1="211.9922" y2="211.9922"/><text fill="#000000" font-family="sans-serif" font-size="13" font-weight="bold" lengthAdjust="spacing" textLength="9" x="865.5" y="206.9263">4</text><text fill="#000000" font-family="sans-serif" font-size="13" lengthAdjust="spacing" textLength="85" x="878.5" y="206.9263">getInstance()</text><polygon fill="#181818" points="869.5,237.125,859.5,241.125,869.5,245.125,865.5,241.125" style="stroke:#181818;stroke-width:1.0;"/><line style="stroke:#181818;stroke-width:1.0;stroke-dasharray:2.0,2.0;" x1="863.5" x2="1044" y1="241.125" y2="241.125"/><text fill="#000000" font-family="sans-serif" font-size="13" font-weight="bold" lengthAdjust="spacing" textLength="9" x="875.5" y="236.0591">5</text><text fill="#000000" font-family="sans-serif" font-size="13" lengthAdjust="spacing" textLength="75" x="888.5" y="236.0591">repositories</text><polygon fill="#181818" points="1193.5,266.2578,1203.5,270.2578,1193.5,274.2578,1197.5,270.2578" style="stroke:#181818;stroke-width:1.0;"/><line style="stroke:#181818;stroke-width:1.0;" x1="858.5" x2="1199.5" y1="270.2578" y2="270.2578"/><text fill="#000000" font-family="sans-serif" font-size="13" font-weight="bold" lengthAdjust="spacing" textLength="9" x="865.5" y="265.1919">6</text><text fill="#000000" font-family="sans-serif" font-size="13" lengthAdjust="spacing" textLength="198" x="878.5" y="265.1919">getAnnouncementRepository()</text><polygon fill="#181818" points="869.5,295.3906,859.5,299.3906,869.5,303.3906,865.5,299.3906" style="stroke:#181818;stroke-width:1.0;"/><line style="stroke:#181818;stroke-width:1.0;stroke-dasharray:2.0,2.0;" x1="863.5" x2="1209.5" y1="299.3906" y2="299.3906"/><text fill="#000000" font-family="sans-serif" font-size="13" font-weight="bold" lengthAdjust="spacing" textLength="9" x="875.5" y="294.3247">7</text><text fill="#000000" font-family="sans-serif" font-size="13" lengthAdjust="spacing" textLength="166" x="888.5" y="294.3247">announcementRepository</text><polygon fill="#181818" points="1616.5,324.5234,1626.5,328.5234,1616.5,332.5234,1620.5,328.5234" style="stroke:#181818;stroke-width:1.0;"/><line style="stroke:#181818;stroke-width:1.0;" x1="858.5" x2="1622.5" y1="328.5234" y2="328.5234"/><text fill="#000000" font-family="sans-serif" font-size="13" font-weight="bold" lengthAdjust="spacing" textLength="9" x="865.5" y="323.4575">8</text><text fill="#000000" font-family="sans-serif" font-size="13" lengthAdjust="spacing" textLength="156" x="878.5" y="323.4575">getAnnouncementById()</text><polygon fill="#181818" points="869.5,353.6563,859.5,357.6563,869.5,361.6563,865.5,357.6563" style="stroke:#181818;stroke-width:1.0;"/><line style="stroke:#181818;stroke-width:1.0;stroke-dasharray:2.0,2.0;" x1="863.5" x2="1632.5" y1="357.6563" y2="357.6563"/><text fill="#000000" font-family="sans-serif" font-size="13" font-weight="bold" lengthAdjust="spacing" textLength="9" x="875.5" y="352.5903">9</text><text fill="#000000" font-family="sans-serif" font-size="13" lengthAdjust="spacing" textLength="108" x="888.5" y="352.5903">announcementId</text><polygon fill="#181818" points="455,382.7891,445,386.7891,455,390.7891,451,386.7891" style="stroke:#181818;stroke-width:1.0;"/><line style="stroke:#181818;stroke-width:1.0;stroke-dasharray:2.0,2.0;" x1="449" x2="852.5" y1="386.7891" y2="386.7891"/><text fill="#000000" font-family="sans-serif" font-size="13" font-weight="bold" lengthAdjust="spacing" textLength="19" x="461" y="381.7231">10</text><text fill="#000000" font-family="sans-serif" font-size="13" lengthAdjust="spacing" textLength="97" x="484" y="381.7231">announcement</text><line style="stroke:#181818;stroke-width:1.0;" x1="444" x2="486" y1="415.9219" y2="415.9219"/><line style="stroke:#181818;stroke-width:1.0;" x1="486" x2="486" y1="415.9219" y2="428.9219"/><line style="stroke:#181818;stroke-width:1.0;" x1="445" x2="486" y1="428.9219" y2="428.9219"/><polygon fill="#181818" points="455,424.9219,445,428.9219,455,432.9219,451,428.9219" style="stroke:#181818;stroke-width:1.0;"/><text fill="#000000" font-family="sans-serif" font-size="13" font-weight="bold" lengthAdjust="spacing" textLength="18" x="451" y="410.856">11</text><text fill="#000000" font-family="sans-serif" font-size="13" lengthAdjust="spacing" textLength="277" x="473" y="410.856">createAnnouncementView(announcement)</text><line style="stroke:#181818;stroke-width:1.0;" x1="444" x2="486" y1="458.0547" y2="458.0547"/><line style="stroke:#181818;stroke-width:1.0;" x1="486" x2="486" y1="458.0547" y2="471.0547"/><line style="stroke:#181818;stroke-width:1.0;" x1="445" x2="486" y1="471.0547" y2="471.0547"/><polygon fill="#181818" points="455,467.0547,445,471.0547,455,475.0547,451,471.0547" style="stroke:#181818;stroke-width:1.0;"/><text fill="#000000" font-family="sans-serif" font-size="13" font-weight="bold" lengthAdjust="spacing" textLength="18" x="451" y="452.9888">12</text><text fill="#000000" font-family="sans-serif" font-size="13" lengthAdjust="spacing" textLength="184" x="473" y="452.9888">displayAnnouncementView()</text><polygon fill="#181818" points="422,496.1875,432,500.1875,422,504.1875,426,500.1875" style="stroke:#181818;stroke-width:1.0;"/><line style="stroke:#181818;stroke-width:1.0;" x1="78" x2="428" y1="500.1875" y2="500.1875"/><text fill="#000000" font-family="sans-serif" font-size="13" font-weight="bold" lengthAdjust="spacing" textLength="17" x="85" y="495.1216">13</text><text fill="#000000" font-family="sans-serif" font-size="13" lengthAdjust="spacing" textLength="153" x="106" y="495.1216">publishAnnouncement()</text><line style="stroke:#181818;stroke-width:1.0;" x1="444" x2="486" y1="529.3203" y2="529.3203"/><line style="stroke:#181818;stroke-width:1.0;" x1="486" x2="486" y1="529.3203" y2="542.3203"/><line style="stroke:#181818;stroke-width:1.0;" x1="445" x2="486" y1="542.3203" y2="542.3203"/><polygon fill="#181818" points="455,538.3203,445,542.3203,455,546.3203,451,542.3203" style="stroke:#181818;stroke-width:1.0;"/><text fill="#000000" font-family="sans-serif" font-size="13" font-weight="bold" lengthAdjust="spacing" textLength="18" x="451" y="524.2544">14</text><text fill="#000000" font-family="sans-serif" font-size="13" lengthAdjust="spacing" textLength="173" x="473" y="524.2544">getAnnouncementDetails()</text><polygon fill="#181818" points="836.5,567.4531,846.5,571.4531,836.5,575.4531,840.5,571.4531" style="stroke:#181818;stroke-width:1.0;"/><line style="stroke:#181818;stroke-width:1.0;stroke-dasharray:2.0,2.0;" x1="444" x2="842.5" y1="571.4531" y2="571.4531"/><text fill="#000000" font-family="sans-serif" font-size="13" font-weight="bold" lengthAdjust="spacing" textLength="18" x="451" y="566.3872">15</text><text fill="#000000" font-family="sans-serif" font-size="13" lengthAdjust="spacing" textLength="344" x="473" y="566.3872">validateAnnouncementDetails(announcementDetails)</text><polygon fill="#181818" points="2367,596.5859,2377,600.5859,2367,604.5859,2371,600.5859" style="stroke:#181818;stroke-width:1.0;"/><line style="stroke:#181818;stroke-width:1.0;" x1="858.5" x2="2373" y1="600.5859" y2="600.5859"/><text fill="#000000" font-family="sans-serif" font-size="13" font-weight="bold" lengthAdjust="spacing" textLength="18" x="865.5" y="595.52">16</text><text fill="#000000" font-family="sans-serif" font-size="13" lengthAdjust="spacing" textLength="142" x="887.5" y="595.52">getCommissionType()</text><polygon fill="#181818" points="869.5,625.7188,859.5,629.7188,869.5,633.7188,865.5,629.7188" style="stroke:#181818;stroke-width:1.0;"/><line style="stroke:#181818;stroke-width:1.0;stroke-dasharray:2.0,2.0;" x1="863.5" x2="2383" y1="629.7188" y2="629.7188"/><text fill="#000000" font-family="sans-serif" font-size="13" font-weight="bold" lengthAdjust="spacing" textLength="18" x="875.5" y="624.6528">17</text><text fill="#000000" font-family="sans-serif" font-size="13" lengthAdjust="spacing" textLength="109" x="897.5" y="624.6528">commissionType</text><polygon fill="#181818" points="2367,654.8516,2377,658.8516,2367,662.8516,2371,658.8516" style="stroke:#181818;stroke-width:1.0;"/><line style="stroke:#181818;stroke-width:1.0;" x1="858.5" x2="2373" y1="658.8516" y2="658.8516"/><text fill="#000000" font-family="sans-serif" font-size="13" font-weight="bold" lengthAdjust="spacing" textLength="18" x="865.5" y="653.7856">18</text><text fill="#000000" font-family="sans-serif" font-size="13" lengthAdjust="spacing" textLength="398" x="887.5" y="653.7856">validateCommission(commissionType, announcementDetails)</text><polygon fill="#181818" points="869.5,683.9844,859.5,687.9844,869.5,691.9844,865.5,687.9844" style="stroke:#181818;stroke-width:1.0;"/><line style="stroke:#181818;stroke-width:1.0;stroke-dasharray:2.0,2.0;" x1="863.5" x2="2383" y1="687.9844" y2="687.9844"/><text fill="#000000" font-family="sans-serif" font-size="13" font-weight="bold" lengthAdjust="spacing" textLength="18" x="875.5" y="682.9185">19</text><text fill="#000000" font-family="sans-serif" font-size="13" lengthAdjust="spacing" textLength="108" x="897.5" y="682.9185">commissionValid</text><polygon fill="#181818" points="1616.5,713.1172,1626.5,717.1172,1616.5,721.1172,1620.5,717.1172" style="stroke:#181818;stroke-width:1.0;"/><line style="stroke:#181818;stroke-width:1.0;" x1="858.5" x2="1622.5" y1="717.1172" y2="717.1172"/><text fill="#000000" font-family="sans-serif" font-size="13" font-weight="bold" lengthAdjust="spacing" textLength="19" x="865.5" y="712.0513">20</text><text fill="#000000" font-family="sans-serif" font-size="13" lengthAdjust="spacing" textLength="290" x="888.5" y="712.0513">createAnnouncement(announcementDetails)</text><polygon fill="#181818" points="2533,742.25,2543,746.25,2533,750.25,2537,746.25" style="stroke:#181818;stroke-width:1.0;"/><line style="stroke:#181818;stroke-width:1.0;" x1="1633.5" x2="2539" y1="746.25" y2="746.25"/><text fill="#000000" font-family="sans-serif" font-size="13" font-weight="bold" lengthAdjust="spacing" textLength="18" x="1640.5" y="741.1841">21</text><text fill="#000000" font-family="sans-serif" font-size="13" lengthAdjust="spacing" textLength="290" x="1662.5" y="741.1841">createAnnouncement(announcementDetails)</text><polygon fill="#181818" points="1802,771.3828,1812,775.3828,1802,779.3828,1806,775.3828" style="stroke:#181818;stroke-width:1.0;"/><line style="stroke:#181818;stroke-width:1.0;" x1="858.5" x2="1808" y1="775.3828" y2="775.3828"/><text fill="#000000" font-family="sans-serif" font-size="13" font-weight="bold" lengthAdjust="spacing" textLength="18" x="865.5" y="770.3169">22</text><text fill="#000000" font-family="sans-serif" font-size="13" lengthAdjust="spacing" textLength="252" x="887.5" y="770.3169">sendMessageToOwner(announcement)</text><polygon fill="#181818" points="2051,800.5156,2061,804.5156,2051,808.5156,2055,804.5156" style="stroke:#181818;stroke-width:1.0;"/><line style="stroke:#181818;stroke-width:1.0;stroke-dasharray:2.0,2.0;" x1="1819" x2="2057" y1="804.5156" y2="804.5156"/><text fill="#000000" font-family="sans-serif" font-size="13" font-weight="bold" lengthAdjust="spacing" textLength="17" x="1826" y="799.4497">23</text><text fill="#000000" font-family="sans-serif" font-size="13" lengthAdjust="spacing" textLength="194" x="1847" y="799.4497">sendMessage(announcement)</text><polygon fill="#181818" points="2269,829.6484,2279,833.6484,2269,837.6484,2273,833.6484" style="stroke:#181818;stroke-width:1.0;"/><line style="stroke:#181818;stroke-width:1.0;" x1="858.5" x2="2275" y1="833.6484" y2="833.6484"/><text fill="#000000" font-family="sans-serif" font-size="13" font-weight="bold" lengthAdjust="spacing" textLength="18" x="865.5" y="828.5825">24</text><text fill="#000000" font-family="sans-serif" font-size="13" lengthAdjust="spacing" textLength="300" x="887.5" y="828.5825">createMessage(announcement, Agent, Owner)</text><polygon fill="#181818" points="2074,858.7813,2064,862.7813,2074,866.7813,2070,862.7813" style="stroke:#181818;stroke-width:1.0;"/><line style="stroke:#181818;stroke-width:1.0;stroke-dasharray:2.0,2.0;" x1="2068" x2="2285" y1="862.7813" y2="862.7813"/><text fill="#000000" font-family="sans-serif" font-size="13" font-weight="bold" lengthAdjust="spacing" textLength="18" x="2080" y="857.7153">25</text><text fill="#000000" font-family="sans-serif" font-size="13" lengthAdjust="spacing" textLength="172" x="2102" y="857.7153">receiveMessage(message)</text><polygon fill="#181818" points="455,887.9141,445,891.9141,455,895.9141,451,891.9141" style="stroke:#181818;stroke-width:1.0;"/><line style="stroke:#181818;stroke-width:1.0;stroke-dasharray:2.0,2.0;" x1="449" x2="852.5" y1="891.9141" y2="891.9141"/><text fill="#000000" font-family="sans-serif" font-size="13" font-weight="bold" lengthAdjust="spacing" textLength="18" x="461" y="886.8481">26</text><text fill="#000000" font-family="sans-serif" font-size="13" lengthAdjust="spacing" textLength="158" x="483" y="886.8481">announcementPublished</text><polygon fill="#181818" points="84,917.0469,74,921.0469,84,925.0469,80,921.0469" style="stroke:#181818;stroke-width:1.0;"/><line style="stroke:#181818;stroke-width:1.0;" x1="78" x2="438" y1="921.0469" y2="921.0469"/><text fill="#000000" font-family="sans-serif" font-size="13" font-weight="bold" lengthAdjust="spacing" textLength="18" x="90" y="915.981">27</text><text fill="#000000" font-family="sans-serif" font-size="13" lengthAdjust="spacing" textLength="310" x="112" y="915.981">showSuccessMessage(announcementPublished)</text><!--SRC=[dLRBRk8m5DtxAomsfHNyG1T833CBf1aL0UtU9BV4Qc97iGF3ty-DGnA_Kc2o2R7lEVVSbutwug9a5Ije8OLCiaeMG7LL0r7zJicIBtQ4dRxaG2j8D1F7t3PG6KlbcOiZ_MIv0a9OhQMeYmDKX3nbF0NwAQK-oB-49LfMTB85bjDVIZCDT7a4eIUKgVONGKxD4ruoeUdaTLCVSgwofH2o5WaKQF6-DjRlwzkcAobq9VCSAWDPxRU_FT0MIgauYkAWZ8szuDfMrWwD03SxrtvPwmmry8HfBaLlVsbZ7TdqAAnOV8BebWl_0qfXvRmi1AikwEqiheRcLvJHvd4DLh8ek58OKvln_fCqjUUdlkA44FEcymMMahxIbAioPvUbI7UGOvVP0Qhfym37mXD4p17O5FJb1S42plJR-YD1WsaX23Y2uy3cDrs23yN7M2DgwzI-GQy5jY-Y4TaOzcYdVveT1peV55I-OGfn4bV8PXUg7-eVgC6cD28GPlbcyURnLLp1dU-uor3EZyiwHI6kakMuon7U4RthrDVv3NKhlMincyOdCLLlrjesCVP91RXbqtzmE4zjccSVqxUn1xhcm-tvCcpPpj2YzDBx4pJZkPeEheT4dLZEKqzpPy_2DQzR-Xnq5H_6jvKnVEylPT3wrh0RaW5iAKmSYg0A7aLCHnVZi3XrIMVqZb0Vq_hH-BnJxEYOXErqHqt-OsuM8_Fze8H79cmHtYheJO58h-jxQMwJoEpqJi9xgTaEUPi26JBNGuJQYY1Exedl4nIZdBMpEsjznxNRYXsT-BS9-AddBThtcCeRHzVreeFqnXdMdZMOf4oUTtMI87aii9uEJnwB3AzPkmCQhdy0]--></g></svg>