<?xml version="1.0" encoding="us-ascii" standalone="no"?><svg xmlns="http://www.w3.org/2000/svg" xmlns:xlink="http://www.w3.org/1999/xlink" contentStyleType="text/css" height="1127px" preserveAspectRatio="none" style="width:1228px;height:1127px;background:#FFFFFF;" version="1.1" viewBox="0 0 1228 1127" width="1228px" zoomAndPan="magnify"><defs/><g><rect fill="#FFFFFF" height="936.625" style="stroke:#181818;stroke-width:1.0;" width="10" x="62.5" y="91.4883"/><rect fill="#FFFFFF" height="187.9961" style="stroke:#181818;stroke-width:1.0;" width="10" x="375.5" y="112.7988"/><rect fill="#FFFFFF" height="29.3105" style="stroke:#181818;stroke-width:1.0;" width="10" x="375.5" y="330.1055"/><rect fill="#FFFFFF" height="29.3105" style="stroke:#181818;stroke-width:1.0;" width="10" x="375.5" y="388.7266"/><rect fill="#FFFFFF" height="29.3105" style="stroke:#181818;stroke-width:1.0;" width="10" x="375.5" y="447.3477"/><rect fill="#FFFFFF" height="522.1445" style="stroke:#181818;stroke-width:1.0;" width="10" x="375.5" y="505.9688"/><rect fill="#FFFFFF" height="87.8867" style="stroke:#181818;stroke-width:1.0;" width="10" x="838.5" y="183.5977"/><rect fill="#FFFFFF" height="448.2129" style="stroke:#181818;stroke-width:1.0;" width="10" x="838.5" y="535.2793"/><rect fill="#FFFFFF" height="98.8867" style="stroke:#181818;stroke-width:1.0;" width="10" x="843.5" y="572.5898"/><rect fill="#FFFFFF" height="98.8867" style="stroke:#181818;stroke-width:1.0;" width="10" x="843.5" y="715.7871"/><rect fill="#FFFFFF" height="87.8867" style="stroke:#181818;stroke-width:1.0;" width="10" x="1139.5" y="866.2949"/><line style="stroke:#181818;stroke-width:0.5;stroke-dasharray:5.0,5.0;" x1="67" x2="67" y1="81.4883" y2="1046.1133"/><line style="stroke:#181818;stroke-width:0.5;stroke-dasharray:5.0,5.0;" x1="380" x2="380" y1="81.4883" y2="1046.1133"/><line style="stroke:#181818;stroke-width:0.5;stroke-dasharray:5.0,5.0;" x1="843" x2="843" y1="151.543" y2="1046.1133"/><line style="stroke:#181818;stroke-width:0.5;stroke-dasharray:5.0,5.0;" x1="1144.5" x2="1144.5" y1="81.4883" y2="1046.1133"/><text fill="#000000" font-family="sans-serif" font-size="14" lengthAdjust="spacing" textLength="119" x="5" y="78.5352">Real Estate Agent</text><ellipse cx="67.5" cy="13.5" fill="#E3E3E3" rx="8" ry="8" style="stroke:#181818;stroke-width:0.5;"/><path d="M67.5,21.5 L67.5,48.5 M54.5,29.5 L80.5,29.5 M67.5,48.5 L54.5,63.5 M67.5,48.5 L80.5,63.5 " fill="none" style="stroke:#181818;stroke-width:0.5;"/><text fill="#000000" font-family="sans-serif" font-size="14" lengthAdjust="spacing" textLength="119" x="5" y="1058.6484">Real Estate Agent</text><ellipse cx="67.5" cy="1070.1016" fill="#E3E3E3" rx="8" ry="8" style="stroke:#181818;stroke-width:0.5;"/><path d="M67.5,1078.1016 L67.5,1105.1016 M54.5,1086.1016 L80.5,1086.1016 M67.5,1105.1016 L54.5,1120.1016 M67.5,1105.1016 L80.5,1120.1016 " fill="none" style="stroke:#181818;stroke-width:0.5;"/><rect fill="#E3E3E3" height="30.4883" rx="2.5" ry="2.5" style="stroke:#181818;stroke-width:0.5;" width="187" x="287" y="50"/><text fill="#000000" font-family="sans-serif" font-size="14" lengthAdjust="spacing" textLength="173" x="294" y="70.5352">:PublishAnnouncementUI</text><rect fill="#E3E3E3" height="30.4883" rx="2.5" ry="2.5" style="stroke:#181818;stroke-width:0.5;" width="187" x="287" y="1045.1133"/><text fill="#000000" font-family="sans-serif" font-size="14" lengthAdjust="spacing" textLength="173" x="294" y="1065.6484">:PublishAnnouncementUI</text><rect fill="#E3E3E3" height="30.4883" rx="2.5" ry="2.5" style="stroke:#181818;stroke-width:0.5;" width="257" x="715" y="1045.1133"/><text fill="#000000" font-family="sans-serif" font-size="14" lengthAdjust="spacing" textLength="243" x="722" y="1065.6484">:PublishAnnouncementUIController</text><rect fill="#E3E3E3" height="46.9766" rx="2.5" ry="2.5" style="stroke:#181818;stroke-width:0.5;" width="108" x="1090.5" y="33.5117"/><text fill="#000000" font-family="sans-serif" font-size="14" lengthAdjust="spacing" textLength="88" x="1100.5" y="54.0469">organization</text><text fill="#000000" font-family="sans-serif" font-size="14" lengthAdjust="spacing" textLength="94" x="1097.5" y="70.5352">:Organization</text><rect fill="#E3E3E3" height="46.9766" rx="2.5" ry="2.5" style="stroke:#181818;stroke-width:0.5;" width="108" x="1090.5" y="1045.1133"/><text fill="#000000" font-family="sans-serif" font-size="14" lengthAdjust="spacing" textLength="88" x="1100.5" y="1065.6484">organization</text><text fill="#000000" font-family="sans-serif" font-size="14" lengthAdjust="spacing" textLength="94" x="1097.5" y="1082.1367">:Organization</text><rect fill="#FFFFFF" height="936.625" style="stroke:#181818;stroke-width:1.0;" width="10" x="62.5" y="91.4883"/><rect fill="#FFFFFF" height="187.9961" style="stroke:#181818;stroke-width:1.0;" width="10" x="375.5" y="112.7988"/><rect fill="#FFFFFF" height="29.3105" style="stroke:#181818;stroke-width:1.0;" width="10" x="375.5" y="330.1055"/><rect fill="#FFFFFF" height="29.3105" style="stroke:#181818;stroke-width:1.0;" width="10" x="375.5" y="388.7266"/><rect fill="#FFFFFF" height="29.3105" style="stroke:#181818;stroke-width:1.0;" width="10" x="375.5" y="447.3477"/><rect fill="#FFFFFF" height="522.1445" style="stroke:#181818;stroke-width:1.0;" width="10" x="375.5" y="505.9688"/><rect fill="#FFFFFF" height="87.8867" style="stroke:#181818;stroke-width:1.0;" width="10" x="838.5" y="183.5977"/><rect fill="#FFFFFF" height="448.2129" style="stroke:#181818;stroke-width:1.0;" width="10" x="838.5" y="535.2793"/><rect fill="#FFFFFF" height="98.8867" style="stroke:#181818;stroke-width:1.0;" width="10" x="843.5" y="572.5898"/><rect fill="#FFFFFF" height="98.8867" style="stroke:#181818;stroke-width:1.0;" width="10" x="843.5" y="715.7871"/><rect fill="#FFFFFF" height="87.8867" style="stroke:#181818;stroke-width:1.0;" width="10" x="1139.5" y="866.2949"/><polygon fill="#181818" points="363.5,108.7988,373.5,112.7988,363.5,116.7988,367.5,112.7988" style="stroke:#181818;stroke-width:1.0;"/><line style="stroke:#181818;stroke-width:1.0;" x1="72.5" x2="369.5" y1="112.7988" y2="112.7988"/><text fill="#000000" font-family="sans-serif" font-size="13" font-weight="bold" lengthAdjust="spacing" textLength="9" x="79.5" y="108.0566">1</text><text fill="#000000" font-family="sans-serif" font-size="13" lengthAdjust="spacing" textLength="234" x="92.5" y="108.0566">asks to publish a new announcement</text><polygon fill="#181818" points="703,138.1094,713,142.1094,703,146.1094,707,142.1094" style="stroke:#181818;stroke-width:1.0;"/><line style="stroke:#181818;stroke-width:1.0;" x1="385.5" x2="709" y1="142.1094" y2="142.1094"/><text fill="#000000" font-family="sans-serif" font-size="13" font-weight="bold" lengthAdjust="spacing" textLength="9" x="392.5" y="137.3672">2</text><text fill="#000000" font-family="sans-serif" font-size="13" lengthAdjust="spacing" textLength="38" x="405.5" y="137.3672">create</text><rect fill="#E3E3E3" height="30.4883" rx="2.5" ry="2.5" style="stroke:#181818;stroke-width:0.5;" width="257" x="715" y="120.7988"/><text fill="#000000" font-family="sans-serif" font-size="14" lengthAdjust="spacing" textLength="243" x="722" y="141.334">:PublishAnnouncementUIController</text><polygon fill="#181818" points="826.5,179.5977,836.5,183.5977,826.5,187.5977,830.5,183.5977" style="stroke:#181818;stroke-width:1.0;"/><line style="stroke:#181818;stroke-width:1.0;" x1="385.5" x2="832.5" y1="183.5977" y2="183.5977"/><text fill="#000000" font-family="sans-serif" font-size="13" font-weight="bold" lengthAdjust="spacing" textLength="9" x="392.5" y="178.8555">3</text><text fill="#000000" font-family="sans-serif" font-size="13" lengthAdjust="spacing" textLength="91" x="405.5" y="178.8555">getProperties()</text><rect fill="none" height="53.5762" style="stroke:#000000;stroke-width:1.5;" width="263" x="712" y="191.5977"/><path d="M712,191.5977 L776,191.5977 L776,198.5977 L766,208.5977 L712,208.5977 L712,191.5977 " fill="#EEEEEE" style="stroke:#000000;stroke-width:2.0;"/><text fill="#000000" font-family="sans-serif" font-size="13" font-weight="bold" lengthAdjust="spacing" textLength="19" x="725" y="206.166">ref</text><text fill="#000000" font-family="sans-serif" font-size="12" lengthAdjust="spacing" textLength="96" x="795.5" y="224.1992">Get Property List</text><text fill="#000000" font-family="sans-serif" font-size="12" lengthAdjust="spacing" textLength="4" x="841.5" y="238.332">&#160;</text><polygon fill="#181818" points="396.5,267.4844,386.5,271.4844,396.5,275.4844,392.5,271.4844" style="stroke:#181818;stroke-width:1.0;"/><line style="stroke:#181818;stroke-width:1.0;stroke-dasharray:2.0,2.0;" x1="390.5" x2="842.5" y1="271.4844" y2="271.4844"/><text fill="#000000" font-family="sans-serif" font-size="13" font-weight="bold" lengthAdjust="spacing" textLength="9" x="402.5" y="266.7422">4</text><text fill="#000000" font-family="sans-serif" font-size="13" lengthAdjust="spacing" textLength="76" x="415.5" y="266.7422">propertyList</text><polygon fill="#181818" points="83.5,296.7949,73.5,300.7949,83.5,304.7949,79.5,300.7949" style="stroke:#181818;stroke-width:1.0;"/><line style="stroke:#181818;stroke-width:1.0;stroke-dasharray:2.0,2.0;" x1="77.5" x2="379.5" y1="300.7949" y2="300.7949"/><text fill="#000000" font-family="sans-serif" font-size="13" font-weight="bold" lengthAdjust="spacing" textLength="9" x="89.5" y="296.0527">5</text><text fill="#000000" font-family="sans-serif" font-size="13" lengthAdjust="spacing" textLength="266" x="102.5" y="296.0527">shows property list and asks to select one</text><polygon fill="#181818" points="363.5,326.1055,373.5,330.1055,363.5,334.1055,367.5,330.1055" style="stroke:#181818;stroke-width:1.0;"/><line style="stroke:#181818;stroke-width:1.0;" x1="72.5" x2="369.5" y1="330.1055" y2="330.1055"/><text fill="#000000" font-family="sans-serif" font-size="13" font-weight="bold" lengthAdjust="spacing" textLength="9" x="79.5" y="325.3633">6</text><text fill="#000000" font-family="sans-serif" font-size="13" lengthAdjust="spacing" textLength="112" x="92.5" y="325.3633">selects a property</text><polygon fill="#181818" points="83.5,355.416,73.5,359.416,83.5,363.416,79.5,359.416" style="stroke:#181818;stroke-width:1.0;"/><line style="stroke:#181818;stroke-width:1.0;stroke-dasharray:2.0,2.0;" x1="77.5" x2="379.5" y1="359.416" y2="359.416"/><text fill="#000000" font-family="sans-serif" font-size="13" font-weight="bold" lengthAdjust="spacing" textLength="9" x="89.5" y="354.6738">7</text><text fill="#000000" font-family="sans-serif" font-size="13" lengthAdjust="spacing" textLength="85" x="102.5" y="354.6738">requests data</text><polygon fill="#181818" points="363.5,384.7266,373.5,388.7266,363.5,392.7266,367.5,388.7266" style="stroke:#181818;stroke-width:1.0;"/><line style="stroke:#181818;stroke-width:1.0;" x1="72.5" x2="369.5" y1="388.7266" y2="388.7266"/><text fill="#000000" font-family="sans-serif" font-size="13" font-weight="bold" lengthAdjust="spacing" textLength="9" x="79.5" y="383.9844">8</text><text fill="#000000" font-family="sans-serif" font-size="13" lengthAdjust="spacing" textLength="245" x="92.5" y="383.9844">types announcement data (description)</text><polygon fill="#181818" points="83.5,414.0371,73.5,418.0371,83.5,422.0371,79.5,418.0371" style="stroke:#181818;stroke-width:1.0;"/><line style="stroke:#181818;stroke-width:1.0;stroke-dasharray:2.0,2.0;" x1="77.5" x2="379.5" y1="418.0371" y2="418.0371"/><text fill="#000000" font-family="sans-serif" font-size="13" font-weight="bold" lengthAdjust="spacing" textLength="9" x="89.5" y="413.2949">9</text><text fill="#000000" font-family="sans-serif" font-size="13" lengthAdjust="spacing" textLength="135" x="102.5" y="413.2949">requests commission</text><polygon fill="#181818" points="363.5,443.3477,373.5,447.3477,363.5,451.3477,367.5,447.3477" style="stroke:#181818;stroke-width:1.0;"/><line style="stroke:#181818;stroke-width:1.0;" x1="72.5" x2="369.5" y1="447.3477" y2="447.3477"/><text fill="#000000" font-family="sans-serif" font-size="13" font-weight="bold" lengthAdjust="spacing" textLength="18" x="79.5" y="442.6055">10</text><text fill="#000000" font-family="sans-serif" font-size="13" lengthAdjust="spacing" textLength="107" x="101.5" y="442.6055">sets commission</text><polygon fill="#181818" points="83.5,472.6582,73.5,476.6582,83.5,480.6582,79.5,476.6582" style="stroke:#181818;stroke-width:1.0;"/><line style="stroke:#181818;stroke-width:1.0;stroke-dasharray:2.0,2.0;" x1="77.5" x2="379.5" y1="476.6582" y2="476.6582"/><text fill="#000000" font-family="sans-serif" font-size="13" font-weight="bold" lengthAdjust="spacing" textLength="18" x="89.5" y="471.916">11</text><text fill="#000000" font-family="sans-serif" font-size="13" lengthAdjust="spacing" textLength="193" x="111.5" y="471.916">shows selected and typed data</text><polygon fill="#181818" points="363.5,501.9688,373.5,505.9688,363.5,509.9688,367.5,505.9688" style="stroke:#181818;stroke-width:1.0;"/><line style="stroke:#181818;stroke-width:1.0;" x1="72.5" x2="369.5" y1="505.9688" y2="505.9688"/><text fill="#000000" font-family="sans-serif" font-size="13" font-weight="bold" lengthAdjust="spacing" textLength="18" x="79.5" y="501.2266">12</text><text fill="#000000" font-family="sans-serif" font-size="13" lengthAdjust="spacing" textLength="82" x="101.5" y="501.2266">submits data</text><polygon fill="#181818" points="826.5,531.2793,836.5,535.2793,826.5,539.2793,830.5,535.2793" style="stroke:#181818;stroke-width:1.0;"/><line style="stroke:#181818;stroke-width:1.0;" x1="385.5" x2="832.5" y1="535.2793" y2="535.2793"/><text fill="#000000" font-family="sans-serif" font-size="13" font-weight="bold" lengthAdjust="spacing" textLength="18" x="392.5" y="530.5371">13</text><text fill="#000000" font-family="sans-serif" font-size="13" lengthAdjust="spacing" textLength="412" x="414.5" y="530.5371">createAnnouncement(propertyLocation, description, commission)</text><line style="stroke:#181818;stroke-width:1.0;" x1="848.5" x2="895.5" y1="559.5898" y2="559.5898"/><line style="stroke:#181818;stroke-width:1.0;" x1="895.5" x2="895.5" y1="559.5898" y2="572.5898"/><line style="stroke:#181818;stroke-width:1.0;" x1="854.5" x2="895.5" y1="572.5898" y2="572.5898"/><polygon fill="#181818" points="864.5,568.5898,854.5,572.5898,864.5,576.5898,860.5,572.5898" style="stroke:#181818;stroke-width:1.0;"/><text fill="#000000" font-family="sans-serif" font-size="13" font-weight="bold" lengthAdjust="spacing" textLength="18" x="860.5" y="554.8477">14</text><text fill="#000000" font-family="sans-serif" font-size="13" lengthAdjust="spacing" textLength="255" x="882.5" y="554.8477">getPropertyByLocation(propertyLocation)</text><rect fill="none" height="53.5762" style="stroke:#000000;stroke-width:1.5;" width="263" x="712" y="585.5898"/><path d="M712,585.5898 L776,585.5898 L776,592.5898 L766,602.5898 L712,602.5898 L712,585.5898 " fill="#EEEEEE" style="stroke:#000000;stroke-width:2.0;"/><text fill="#000000" font-family="sans-serif" font-size="13" font-weight="bold" lengthAdjust="spacing" textLength="19" x="725" y="600.1582">ref</text><text fill="#000000" font-family="sans-serif" font-size="12" lengthAdjust="spacing" textLength="73" x="807" y="618.1914">Get Property</text><text fill="#000000" font-family="sans-serif" font-size="12" lengthAdjust="spacing" textLength="4" x="841.5" y="632.3242">&#160;</text><line style="stroke:#181818;stroke-width:1.0;stroke-dasharray:2.0,2.0;" x1="853.5" x2="895.5" y1="670.4766" y2="670.4766"/><line style="stroke:#181818;stroke-width:1.0;stroke-dasharray:2.0,2.0;" x1="895.5" x2="895.5" y1="670.4766" y2="683.4766"/><line style="stroke:#181818;stroke-width:1.0;stroke-dasharray:2.0,2.0;" x1="848.5" x2="895.5" y1="683.4766" y2="683.4766"/><polygon fill="#181818" points="858.5,679.4766,848.5,683.4766,858.5,687.4766,854.5,683.4766" style="stroke:#181818;stroke-width:1.0;"/><text fill="#000000" font-family="sans-serif" font-size="13" font-weight="bold" lengthAdjust="spacing" textLength="18" x="860.5" y="665.7344">15</text><text fill="#000000" font-family="sans-serif" font-size="13" lengthAdjust="spacing" textLength="53" x="882.5" y="665.7344">property</text><line style="stroke:#181818;stroke-width:1.0;" x1="848.5" x2="895.5" y1="702.7871" y2="702.7871"/><line style="stroke:#181818;stroke-width:1.0;" x1="895.5" x2="895.5" y1="702.7871" y2="715.7871"/><line style="stroke:#181818;stroke-width:1.0;" x1="854.5" x2="895.5" y1="715.7871" y2="715.7871"/><polygon fill="#181818" points="864.5,711.7871,854.5,715.7871,864.5,719.7871,860.5,715.7871" style="stroke:#181818;stroke-width:1.0;"/><text fill="#000000" font-family="sans-serif" font-size="13" font-weight="bold" lengthAdjust="spacing" textLength="18" x="860.5" y="698.0449">16</text><text fill="#000000" font-family="sans-serif" font-size="13" lengthAdjust="spacing" textLength="145" x="882.5" y="698.0449">getAgentFromSession()</text><rect fill="none" height="53.5762" style="stroke:#000000;stroke-width:1.5;" width="263" x="712" y="728.7871"/><path d="M712,728.7871 L776,728.7871 L776,735.7871 L766,745.7871 L712,745.7871 L712,728.7871 " fill="#EEEEEE" style="stroke:#000000;stroke-width:2.0;"/><text fill="#000000" font-family="sans-serif" font-size="13" font-weight="bold" lengthAdjust="spacing" textLength="19" x="725" y="743.3555">ref</text><text fill="#000000" font-family="sans-serif" font-size="12" lengthAdjust="spacing" textLength="57" x="815" y="761.3887">Get Agent</text><text fill="#000000" font-family="sans-serif" font-size="12" lengthAdjust="spacing" textLength="4" x="841.5" y="775.5215">&#160;</text><line style="stroke:#181818;stroke-width:1.0;" x1="853.5" x2="895.5" y1="813.6738" y2="813.6738"/><line style="stroke:#181818;stroke-width:1.0;" x1="895.5" x2="895.5" y1="813.6738" y2="826.6738"/><line style="stroke:#181818;stroke-width:1.0;" x1="848.5" x2="895.5" y1="826.6738" y2="826.6738"/><polygon fill="#181818" points="858.5,822.6738,848.5,826.6738,858.5,830.6738,854.5,826.6738" style="stroke:#181818;stroke-width:1.0;"/><text fill="#000000" font-family="sans-serif" font-size="13" font-weight="bold" lengthAdjust="spacing" textLength="18" x="860.5" y="808.9316">17</text><text fill="#000000" font-family="sans-serif" font-size="13" lengthAdjust="spacing" textLength="35" x="882.5" y="808.9316">agent</text><polygon fill="#181818" points="1127.5,862.2949,1137.5,866.2949,1127.5,870.2949,1131.5,866.2949" style="stroke:#181818;stroke-width:1.0;"/><line style="stroke:#181818;stroke-width:1.0;" x1="848.5" x2="1133.5" y1="866.2949" y2="866.2949"/><text fill="#000000" font-family="sans-serif" font-size="13" font-weight="bold" lengthAdjust="spacing" textLength="18" x="855.5" y="853.8975">18</text><text fill="#000000" font-family="sans-serif" font-size="13" lengthAdjust="spacing" textLength="194" x="877.5" y="846.2422">createAnnouncement(property,</text><text fill="#000000" font-family="sans-serif" font-size="13" lengthAdjust="spacing" textLength="203" x="877.5" y="861.5527">description, commission, agent)</text><rect fill="none" height="53.5762" style="stroke:#000000;stroke-width:1.5;" width="135" x="1087.5" y="874.2949"/><path d="M1087.5,874.2949 L1151.5,874.2949 L1151.5,881.2949 L1141.5,891.2949 L1087.5,891.2949 L1087.5,874.2949 " fill="#EEEEEE" style="stroke:#000000;stroke-width:2.0;"/><text fill="#000000" font-family="sans-serif" font-size="13" font-weight="bold" lengthAdjust="spacing" textLength="19" x="1100.5" y="888.8633">ref</text><text fill="#000000" font-family="sans-serif" font-size="12" lengthAdjust="spacing" textLength="127" x="1091.5" y="906.8965">Create Announcement</text><text fill="#000000" font-family="sans-serif" font-size="12" lengthAdjust="spacing" textLength="4" x="1153" y="921.0293">&#160;</text><polygon fill="#181818" points="859.5,950.1816,849.5,954.1816,859.5,958.1816,855.5,954.1816" style="stroke:#181818;stroke-width:1.0;"/><line style="stroke:#181818;stroke-width:1.0;stroke-dasharray:2.0,2.0;" x1="853.5" x2="1143.5" y1="954.1816" y2="954.1816"/><text fill="#000000" font-family="sans-serif" font-size="13" font-weight="bold" lengthAdjust="spacing" textLength="18" x="865.5" y="949.4395">19</text><text fill="#000000" font-family="sans-serif" font-size="13" lengthAdjust="spacing" textLength="93" x="887.5" y="949.4395">announcement</text><polygon fill="#181818" points="396.5,979.4922,386.5,983.4922,396.5,987.4922,392.5,983.4922" style="stroke:#181818;stroke-width:1.0;"/><line style="stroke:#181818;stroke-width:1.0;stroke-dasharray:2.0,2.0;" x1="390.5" x2="842.5" y1="983.4922" y2="983.4922"/><text fill="#000000" font-family="sans-serif" font-size="13" font-weight="bold" lengthAdjust="spacing" textLength="18" x="402.5" y="978.75">20</text><text fill="#000000" font-family="sans-serif" font-size="13" lengthAdjust="spacing" textLength="93" x="424.5" y="978.75">announcement</text><polygon fill="#181818" points="78.5,1024.1133,68.5,1028.1133,78.5,1032.1133,74.5,1028.1133" style="stroke:#181818;stroke-width:1.0;"/><line style="stroke:#181818;stroke-width:1.0;stroke-dasharray:2.0,2.0;" x1="72.5" x2="379.5" y1="1028.1133" y2="1028.1133"/><text fill="#000000" font-family="sans-serif" font-size="13" font-weight="bold" lengthAdjust="spacing" textLength="18" x="84.5" y="1015.7158">21</text><text fill="#000000" font-family="sans-serif" font-size="13" lengthAdjust="spacing" textLength="173" x="106.5" y="1008.0605">informs the agent when the</text><text fill="#000000" font-family="sans-serif" font-size="13" lengthAdjust="spacing" textLength="212" x="106.5" y="1023.3711">announcment has been published</text><!--SRC=[jLN1Sfim4Btp5Jk-rCuuF-13PrmtpMGcdMISvkQB36lG6BHK4d7Th-yYR5a4SCYXd03jU_lsiRkOlLIbqAA0WXJ5cQO2mUeA8-DFIX7lHOelzfWZQ8ojK6aU1fXC97IGAeMTo0r6aQWigQhOeewYBvbC47P4Taj_8X5RqZ1PeyZXpbXX4POfAZi1OM3v_MV4Z5R6iXJAmcJnN6rpQRAbKbIf60kEV7rmiQyFOq9NfAocF4VjGAjVwySsZ7GgbFmhh2IrKOkduD4XdjRtKIrQlZcfB302llW6Rh-o25XmrDw09IWR0I10uG54eAF1U1QMxbxK5pCmJwthveQvOeqSqNFAPodQPqqbideqqvaFqhW3UaFTL0V1TOyMJf0ZF4fZBtbH9JNmyiAhSomj6fV_zbnkUI9qVEUG10VmTGMChFrQS9_GmNW2OBSi-vHu1mtct5r0gd4W83rR5lhUH1ls-ynutMOlG-Fl2WqZ4s75c4psMA9fVL47XMc29jQohBjbzjdaCHM5D8QXuuhjGeQJlNEySGeJPtPTJ78fVKpkQbl8qAuFEjdtSJYBKzyt5BlncaFWtZoeRJQ-9tjcu_ZDP-YadBKehh1V7wk-yUhYEnFM6QUJzbRtVZXG_SMx7Vg3b_SBEW-d_w5KbsEupluolKZXq9ykaVVlrMwQmqODzD6yoJdWX5liWqRKftq-h9mIM7QM-pj7kY-PCVpehT_3W2iTYS4Y7iVG-PwNLRG0gNQa2rwy6JPEmI53vHutwiJkTbt6_y4jyj7f3uT9tyOA7klVv3y0]--></g></svg>