<?xml version="1.0" encoding="us-ascii" standalone="no"?><svg xmlns="http://www.w3.org/2000/svg" xmlns:xlink="http://www.w3.org/1999/xlink" contentStyleType="text/css" height="1881px" preserveAspectRatio="none" style="width:2280px;height:1881px;background:#FFFFFF;" version="1.1" viewBox="0 0 2280 1881" width="2280px" zoomAndPan="magnify"><defs/><g><rect fill="#FFFFFF" height="1693.1875" style="stroke:#181818;stroke-width:1.0;" width="10" x="60" y="90.6406"/><rect fill="#FFFFFF" height="297.3516" style="stroke:#181818;stroke-width:1.0;" width="10" x="357" y="111.1641"/><rect fill="#FFFFFF" height="28.5234" style="stroke:#181818;stroke-width:1.0;" width="10" x="357" y="437.0391"/><rect fill="#FFFFFF" height="28.5234" style="stroke:#181818;stroke-width:1.0;" width="10" x="357" y="494.0859"/><rect fill="#FFFFFF" height="28.5234" style="stroke:#181818;stroke-width:1.0;" width="10" x="357" y="551.1328"/><rect fill="#FFFFFF" height="1175.6484" style="stroke:#181818;stroke-width:1.0;" width="10" x="357" y="608.1797"/><rect fill="#FFFFFF" height="199.6641" style="stroke:#181818;stroke-width:1.0;" width="10" x="635" y="180.3281"/><rect fill="#FFFFFF" height="1089.5547" style="stroke:#181818;stroke-width:1.0;" width="10" x="635" y="651.2266"/><rect fill="#FFFFFF" height="210.6641" style="stroke:#181818;stroke-width:1.0;" width="10" x="640" y="687.75"/><rect fill="#FFFFFF" height="469.375" style="stroke:#181818;stroke-width:1.0;" width="10" x="640" y="941.9375"/><rect fill="#FFFFFF" height="28.5234" style="stroke:#181818;stroke-width:1.0;" width="10" x="913" y="208.8516"/><rect fill="#FFFFFF" height="28.5234" style="stroke:#181818;stroke-width:1.0;" width="10" x="913" y="721.2734"/><rect fill="#FFFFFF" height="28.5234" style="stroke:#181818;stroke-width:1.0;" width="10" x="1020" y="265.8984"/><rect fill="#FFFFFF" height="28.5234" style="stroke:#181818;stroke-width:1.0;" width="10" x="1020" y="778.3203"/><rect fill="#FFFFFF" height="28.5234" style="stroke:#181818;stroke-width:1.0;" width="10" x="1020" y="1146.6016"/><rect fill="#FFFFFF" height="28.5234" style="stroke:#181818;stroke-width:1.0;" width="10" x="1148" y="322.9453"/><rect fill="#FFFFFF" height="28.5234" style="stroke:#181818;stroke-width:1.0;" width="10" x="1148" y="835.3672"/><rect fill="#FFFFFF" height="28.5234" style="stroke:#181818;stroke-width:1.0;" width="10" x="1296" y="975.4609"/><rect fill="#FFFFFF" height="28.5234" style="stroke:#181818;stroke-width:1.0;" width="10" x="1443" y="1032.5078"/><rect fill="#FFFFFF" height="28.5234" style="stroke:#181818;stroke-width:1.0;" width="10" x="1576" y="1089.5547"/><rect fill="#FFFFFF" height="116.0938" style="stroke:#181818;stroke-width:1.0;" width="10" x="1722" y="1203.6484"/><rect fill="#FFFFFF" height="28.5234" style="stroke:#181818;stroke-width:1.0;" width="10" x="1943" y="1255.6953"/><rect fill="#FFFFFF" height="28.5234" style="stroke:#181818;stroke-width:1.0;" width="10" x="1943" y="1348.2656"/><rect fill="#FFFFFF" height="250.8984" style="stroke:#181818;stroke-width:1.0;" width="10" x="1943" y="1461.3594"/><rect fill="#FFFFFF" height="122.5703" style="stroke:#181818;stroke-width:1.0;" width="10" x="1948" y="1554.1641"/><rect fill="#FFFFFF" height="39.5234" style="stroke:#181818;stroke-width:1.0;" width="10" x="1953" y="1595.6875"/><rect fill="none" height="73.5703" style="stroke:#000000;stroke-width:1.5;" width="371.5" x="1635.5" y="1218.6484"/><line style="stroke:#181818;stroke-width:0.5;stroke-dasharray:5.0,5.0;" x1="65" x2="65" y1="80.6406" y2="1801.8281"/><line style="stroke:#181818;stroke-width:0.5;stroke-dasharray:5.0,5.0;" x1="362" x2="362" y1="80.6406" y2="1801.8281"/><line style="stroke:#181818;stroke-width:0.5;stroke-dasharray:5.0,5.0;" x1="640" x2="640" y1="149.4844" y2="1801.8281"/><line style="stroke:#181818;stroke-width:0.5;stroke-dasharray:5.0,5.0;" x1="917.5" x2="917.5" y1="80.6406" y2="1801.8281"/><line style="stroke:#181818;stroke-width:0.5;stroke-dasharray:5.0,5.0;" x1="1024.5" x2="1024.5" y1="80.6406" y2="1801.8281"/><line style="stroke:#181818;stroke-width:0.5;stroke-dasharray:5.0,5.0;" x1="1152.5" x2="1152.5" y1="80.6406" y2="1801.8281"/><line style="stroke:#181818;stroke-width:0.5;stroke-dasharray:5.0,5.0;" x1="1300.5" x2="1300.5" y1="80.6406" y2="1801.8281"/><line style="stroke:#181818;stroke-width:0.5;stroke-dasharray:5.0,5.0;" x1="1447.5" x2="1447.5" y1="80.6406" y2="1801.8281"/><line style="stroke:#181818;stroke-width:0.5;stroke-dasharray:5.0,5.0;" x1="1580.5" x2="1580.5" y1="80.6406" y2="1801.8281"/><line style="stroke:#181818;stroke-width:0.5;stroke-dasharray:5.0,5.0;" x1="1726.5" x2="1726.5" y1="80.6406" y2="1801.8281"/><line style="stroke:#181818;stroke-width:0.5;stroke-dasharray:5.0,5.0;" x1="1948" x2="1948" y1="80.6406" y2="1801.8281"/><line style="stroke:#181818;stroke-width:0.5;stroke-dasharray:5.0,5.0;" x1="2217.5" x2="2217.5" y1="1507.5" y2="1801.8281"/><text fill="#000000" font-family="sans-serif" font-size="14" lengthAdjust="spacing" textLength="114" x="5" y="77.6738">Real Estate Agent</text><ellipse cx="65" cy="13.5" fill="#E3E3E3" rx="8" ry="8" style="stroke:#181818;stroke-width:0.5;"/><path d="M65,21.5 L65,48.5 M52,29.5 L78,29.5 M65,48.5 L52,63.5 M65,48.5 L78,63.5 " fill="none" style="stroke:#181818;stroke-width:0.5;"/><text fill="#000000" font-family="sans-serif" font-size="14" lengthAdjust="spacing" textLength="114" x="5" y="1813.502">Real Estate Agent</text><ellipse cx="65" cy="1824.9688" fill="#E3E3E3" rx="8" ry="8" style="stroke:#181818;stroke-width:0.5;"/><path d="M65,1832.9688 L65,1859.9688 M52,1840.9688 L78,1840.9688 M65,1859.9688 L52,1874.9688 M65,1859.9688 L78,1874.9688 " fill="none" style="stroke:#181818;stroke-width:0.5;"/><rect fill="#E3E3E3" height="29.6406" rx="2.5" ry="2.5" style="stroke:#181818;stroke-width:0.5;" width="104" x="310" y="50"/><text fill="#000000" font-family="sans-serif" font-size="14" lengthAdjust="spacing" textLength="90" x="317" y="69.6738">:CreateTaskUI</text><rect fill="#E3E3E3" height="29.6406" rx="2.5" ry="2.5" style="stroke:#181818;stroke-width:0.5;" width="104" x="310" y="1800.8281"/><text fill="#000000" font-family="sans-serif" font-size="14" lengthAdjust="spacing" textLength="90" x="317" y="1820.502">:CreateTaskUI</text><rect fill="#E3E3E3" height="29.6406" rx="2.5" ry="2.5" style="stroke:#181818;stroke-width:0.5;" width="154" x="563" y="1800.8281"/><text fill="#000000" font-family="sans-serif" font-size="14" lengthAdjust="spacing" textLength="140" x="570" y="1820.502">:CreateTaskController</text><rect fill="#E3E3E3" height="29.6406" rx="2.5" ry="2.5" style="stroke:#181818;stroke-width:0.5;" width="97" x="869.5" y="50"/><text fill="#000000" font-family="sans-serif" font-size="14" lengthAdjust="spacing" textLength="83" x="876.5" y="69.6738">:Repositories</text><rect fill="#E3E3E3" height="29.6406" rx="2.5" ry="2.5" style="stroke:#181818;stroke-width:0.5;" width="97" x="869.5" y="1800.8281"/><text fill="#000000" font-family="sans-serif" font-size="14" lengthAdjust="spacing" textLength="83" x="876.5" y="1820.502">:Repositories</text><rect fill="#E3E3E3" height="45.2813" rx="2.5" ry="2.5" style="stroke:#181818;stroke-width:0.5;" width="97" x="976.5" y="34.3594"/><text fill="#000000" font-family="sans-serif" font-size="14" lengthAdjust="spacing" textLength="74" x="988" y="54.0332">repositories</text><text fill="#000000" font-family="sans-serif" font-size="14" lengthAdjust="spacing" textLength="83" x="983.5" y="69.6738">:Repositories</text><rect fill="#E3E3E3" height="45.2813" rx="2.5" ry="2.5" style="stroke:#181818;stroke-width:0.5;" width="97" x="976.5" y="1800.8281"/><text fill="#000000" font-family="sans-serif" font-size="14" lengthAdjust="spacing" textLength="74" x="988" y="1820.502">repositories</text><text fill="#000000" font-family="sans-serif" font-size="14" lengthAdjust="spacing" textLength="83" x="983.5" y="1836.1426">:Repositories</text><rect fill="#E3E3E3" height="45.2813" rx="2.5" ry="2.5" style="stroke:#181818;stroke-width:0.5;" width="139" x="1083.5" y="34.3594"/><text fill="#000000" font-family="sans-serif" font-size="14" lengthAdjust="spacing" textLength="125" x="1090.5" y="54.0332">propertyRepository:</text><text fill="#000000" font-family="sans-serif" font-size="14" lengthAdjust="spacing" textLength="122" x="1092" y="69.6738">PropertyRepository</text><rect fill="#E3E3E3" height="45.2813" rx="2.5" ry="2.5" style="stroke:#181818;stroke-width:0.5;" width="139" x="1083.5" y="1800.8281"/><text fill="#000000" font-family="sans-serif" font-size="14" lengthAdjust="spacing" textLength="125" x="1090.5" y="1820.502">propertyRepository:</text><text fill="#000000" font-family="sans-serif" font-size="14" lengthAdjust="spacing" textLength="122" x="1092" y="1836.1426">PropertyRepository</text><rect fill="#E3E3E3" height="29.6406" rx="2.5" ry="2.5" style="stroke:#181818;stroke-width:0.5;" width="137" x="1232.5" y="50"/><text fill="#000000" font-family="sans-serif" font-size="14" lengthAdjust="spacing" textLength="123" x="1239.5" y="69.6738">:ApplicationSession</text><rect fill="#E3E3E3" height="29.6406" rx="2.5" ry="2.5" style="stroke:#181818;stroke-width:0.5;" width="137" x="1232.5" y="1800.8281"/><text fill="#000000" font-family="sans-serif" font-size="14" lengthAdjust="spacing" textLength="123" x="1239.5" y="1820.502">:ApplicationSession</text><rect fill="#E3E3E3" height="45.2813" rx="2.5" ry="2.5" style="stroke:#181818;stroke-width:0.5;" width="137" x="1379.5" y="34.3594"/><text fill="#000000" font-family="sans-serif" font-size="14" lengthAdjust="spacing" textLength="74" x="1411" y="54.0332">appSession</text><text fill="#000000" font-family="sans-serif" font-size="14" lengthAdjust="spacing" textLength="123" x="1386.5" y="69.6738">:ApplicationSession</text><rect fill="#E3E3E3" height="45.2813" rx="2.5" ry="2.5" style="stroke:#181818;stroke-width:0.5;" width="137" x="1379.5" y="1800.8281"/><text fill="#000000" font-family="sans-serif" font-size="14" lengthAdjust="spacing" textLength="74" x="1411" y="1820.502">appSession</text><text fill="#000000" font-family="sans-serif" font-size="14" lengthAdjust="spacing" textLength="123" x="1386.5" y="1836.1426">:ApplicationSession</text><rect fill="#E3E3E3" height="45.2813" rx="2.5" ry="2.5" style="stroke:#181818;stroke-width:0.5;" width="109" x="1526.5" y="34.3594"/><text fill="#000000" font-family="sans-serif" font-size="14" lengthAdjust="spacing" textLength="95" x="1533.5" y="54.0332">currentSession</text><text fill="#000000" font-family="sans-serif" font-size="14" lengthAdjust="spacing" textLength="83" x="1539.5" y="69.6738">:UserSession</text><rect fill="#E3E3E3" height="45.2813" rx="2.5" ry="2.5" style="stroke:#181818;stroke-width:0.5;" width="109" x="1526.5" y="1800.8281"/><text fill="#000000" font-family="sans-serif" font-size="14" lengthAdjust="spacing" textLength="95" x="1533.5" y="1820.502">currentSession</text><text fill="#000000" font-family="sans-serif" font-size="14" lengthAdjust="spacing" textLength="83" x="1539.5" y="1836.1426">:UserSession</text><rect fill="#E3E3E3" height="45.2813" rx="2.5" ry="2.5" style="stroke:#181818;stroke-width:0.5;" width="163" x="1645.5" y="34.3594"/><text fill="#000000" font-family="sans-serif" font-size="14" lengthAdjust="spacing" textLength="149" x="1652.5" y="54.0332">organizationRepository:</text><text fill="#000000" font-family="sans-serif" font-size="14" lengthAdjust="spacing" textLength="148" x="1653" y="69.6738">OrganizationRepository</text><rect fill="#E3E3E3" height="45.2813" rx="2.5" ry="2.5" style="stroke:#181818;stroke-width:0.5;" width="163" x="1645.5" y="1800.8281"/><text fill="#000000" font-family="sans-serif" font-size="14" lengthAdjust="spacing" textLength="149" x="1652.5" y="1820.502">organizationRepository:</text><text fill="#000000" font-family="sans-serif" font-size="14" lengthAdjust="spacing" textLength="148" x="1653" y="1836.1426">OrganizationRepository</text><rect fill="#E3E3E3" height="45.2813" rx="2.5" ry="2.5" style="stroke:#181818;stroke-width:0.5;" width="98" x="1899" y="34.3594"/><text fill="#000000" font-family="sans-serif" font-size="14" lengthAdjust="spacing" textLength="77" x="1909.5" y="54.0332">organization</text><text fill="#000000" font-family="sans-serif" font-size="14" lengthAdjust="spacing" textLength="84" x="1906" y="69.6738">:Organization</text><rect fill="#E3E3E3" height="45.2813" rx="2.5" ry="2.5" style="stroke:#181818;stroke-width:0.5;" width="98" x="1899" y="1800.8281"/><text fill="#000000" font-family="sans-serif" font-size="14" lengthAdjust="spacing" textLength="77" x="1909.5" y="1820.502">organization</text><text fill="#000000" font-family="sans-serif" font-size="14" lengthAdjust="spacing" textLength="84" x="1906" y="1836.1426">:Organization</text><rect fill="#E3E3E3" height="45.2813" rx="2.5" ry="2.5" style="stroke:#181818;stroke-width:0.5;" width="113" x="2161.5" y="1800.8281"/><text fill="#000000" font-family="sans-serif" font-size="14" lengthAdjust="spacing" textLength="94" x="2171" y="1820.502">announcement</text><text fill="#000000" font-family="sans-serif" font-size="14" lengthAdjust="spacing" textLength="99" x="2168.5" y="1836.1426">:Announcement</text><rect fill="#FFFFFF" height="1693.1875" style="stroke:#181818;stroke-width:1.0;" width="10" x="60" y="90.6406"/><rect fill="#FFFFFF" height="297.3516" style="stroke:#181818;stroke-width:1.0;" width="10" x="357" y="111.1641"/><rect fill="#FFFFFF" height="28.5234" style="stroke:#181818;stroke-width:1.0;" width="10" x="357" y="437.0391"/><rect fill="#FFFFFF" height="28.5234" style="stroke:#181818;stroke-width:1.0;" width="10" x="357" y="494.0859"/><rect fill="#FFFFFF" height="28.5234" style="stroke:#181818;stroke-width:1.0;" width="10" x="357" y="551.1328"/><rect fill="#FFFFFF" height="1175.6484" style="stroke:#181818;stroke-width:1.0;" width="10" x="357" y="608.1797"/><rect fill="#FFFFFF" height="199.6641" style="stroke:#181818;stroke-width:1.0;" width="10" x="635" y="180.3281"/><rect fill="#FFFFFF" height="1089.5547" style="stroke:#181818;stroke-width:1.0;" width="10" x="635" y="651.2266"/><rect fill="#FFFFFF" height="210.6641" style="stroke:#181818;stroke-width:1.0;" width="10" x="640" y="687.75"/><rect fill="#FFFFFF" height="469.375" style="stroke:#181818;stroke-width:1.0;" width="10" x="640" y="941.9375"/><rect fill="#FFFFFF" height="28.5234" style="stroke:#181818;stroke-width:1.0;" width="10" x="913" y="208.8516"/><rect fill="#FFFFFF" height="28.5234" style="stroke:#181818;stroke-width:1.0;" width="10" x="913" y="721.2734"/><rect fill="#FFFFFF" height="28.5234" style="stroke:#181818;stroke-width:1.0;" width="10" x="1020" y="265.8984"/><rect fill="#FFFFFF" height="28.5234" style="stroke:#181818;stroke-width:1.0;" width="10" x="1020" y="778.3203"/><rect fill="#FFFFFF" height="28.5234" style="stroke:#181818;stroke-width:1.0;" width="10" x="1020" y="1146.6016"/><rect fill="#FFFFFF" height="28.5234" style="stroke:#181818;stroke-width:1.0;" width="10" x="1148" y="322.9453"/><rect fill="#FFFFFF" height="28.5234" style="stroke:#181818;stroke-width:1.0;" width="10" x="1148" y="835.3672"/><rect fill="#FFFFFF" height="28.5234" style="stroke:#181818;stroke-width:1.0;" width="10" x="1296" y="975.4609"/><rect fill="#FFFFFF" height="28.5234" style="stroke:#181818;stroke-width:1.0;" width="10" x="1443" y="1032.5078"/><rect fill="#FFFFFF" height="28.5234" style="stroke:#181818;stroke-width:1.0;" width="10" x="1576" y="1089.5547"/><rect fill="#FFFFFF" height="116.0938" style="stroke:#181818;stroke-width:1.0;" width="10" x="1722" y="1203.6484"/><rect fill="#FFFFFF" height="28.5234" style="stroke:#181818;stroke-width:1.0;" width="10" x="1943" y="1255.6953"/><rect fill="#FFFFFF" height="28.5234" style="stroke:#181818;stroke-width:1.0;" width="10" x="1943" y="1348.2656"/><rect fill="#FFFFFF" height="250.8984" style="stroke:#181818;stroke-width:1.0;" width="10" x="1943" y="1461.3594"/><rect fill="#FFFFFF" height="122.5703" style="stroke:#181818;stroke-width:1.0;" width="10" x="1948" y="1554.1641"/><rect fill="#FFFFFF" height="39.5234" style="stroke:#181818;stroke-width:1.0;" width="10" x="1953" y="1595.6875"/><polygon fill="#181818" points="345,107.1641,355,111.1641,345,115.1641,349,111.1641" style="stroke:#181818;stroke-width:1.0;"/><line style="stroke:#181818;stroke-width:1.0;" x1="70" x2="351" y1="111.1641" y2="111.1641"/><text fill="#000000" font-family="sans-serif" font-size="13" font-weight="bold" lengthAdjust="spacing" textLength="7" x="77" y="106.4092">1</text><text fill="#000000" font-family="sans-serif" font-size="13" lengthAdjust="spacing" textLength="215" x="88" y="106.4092">asks to publish a new announcement</text><polygon fill="#181818" points="551,135.6875,561,139.6875,551,143.6875,555,139.6875" style="stroke:#181818;stroke-width:1.0;"/><line style="stroke:#181818;stroke-width:1.0;" x1="367" x2="557" y1="139.6875" y2="139.6875"/><text fill="#000000" font-family="sans-serif" font-size="13" font-weight="bold" lengthAdjust="spacing" textLength="7" x="374" y="134.9326">2</text><text fill="#000000" font-family="sans-serif" font-size="13" lengthAdjust="spacing" textLength="36" x="385" y="134.9326">create</text><rect fill="#E3E3E3" height="29.6406" rx="2.5" ry="2.5" style="stroke:#181818;stroke-width:0.5;" width="154" x="563" y="119.1641"/><text fill="#000000" font-family="sans-serif" font-size="14" lengthAdjust="spacing" textLength="140" x="570" y="138.8379">:CreateTaskController</text><polygon fill="#181818" points="623,176.3281,633,180.3281,623,184.3281,627,180.3281" style="stroke:#181818;stroke-width:1.0;"/><line style="stroke:#181818;stroke-width:1.0;" x1="367" x2="629" y1="180.3281" y2="180.3281"/><text fill="#000000" font-family="sans-serif" font-size="13" font-weight="bold" lengthAdjust="spacing" textLength="7" x="374" y="175.5732">3</text><text fill="#000000" font-family="sans-serif" font-size="13" lengthAdjust="spacing" textLength="85" x="385" y="175.5732">getProperties()</text><polygon fill="#181818" points="901,204.8516,911,208.8516,901,212.8516,905,208.8516" style="stroke:#181818;stroke-width:1.0;"/><line style="stroke:#181818;stroke-width:1.0;" x1="645" x2="907" y1="208.8516" y2="208.8516"/><text fill="#000000" font-family="sans-serif" font-size="13" font-weight="bold" lengthAdjust="spacing" textLength="7" x="652" y="204.0967">4</text><text fill="#000000" font-family="sans-serif" font-size="13" lengthAdjust="spacing" textLength="75" x="663" y="204.0967">getInstance()</text><polygon fill="#181818" points="656,233.375,646,237.375,656,241.375,652,237.375" style="stroke:#181818;stroke-width:1.0;"/><line style="stroke:#181818;stroke-width:1.0;stroke-dasharray:2.0,2.0;" x1="650" x2="917" y1="237.375" y2="237.375"/><text fill="#000000" font-family="sans-serif" font-size="13" font-weight="bold" lengthAdjust="spacing" textLength="7" x="662" y="232.6201">5</text><text fill="#000000" font-family="sans-serif" font-size="13" lengthAdjust="spacing" textLength="67" x="673" y="232.6201">repositories</text><polygon fill="#181818" points="1008,261.8984,1018,265.8984,1008,269.8984,1012,265.8984" style="stroke:#181818;stroke-width:1.0;"/><line style="stroke:#181818;stroke-width:1.0;" x1="645" x2="1014" y1="265.8984" y2="265.8984"/><text fill="#000000" font-family="sans-serif" font-size="13" font-weight="bold" lengthAdjust="spacing" textLength="7" x="652" y="261.1436">6</text><text fill="#000000" font-family="sans-serif" font-size="13" lengthAdjust="spacing" textLength="137" x="663" y="261.1436">getPropertyRepository()</text><polygon fill="#181818" points="656,290.4219,646,294.4219,656,298.4219,652,294.4219" style="stroke:#181818;stroke-width:1.0;"/><line style="stroke:#181818;stroke-width:1.0;stroke-dasharray:2.0,2.0;" x1="650" x2="1024" y1="294.4219" y2="294.4219"/><text fill="#000000" font-family="sans-serif" font-size="13" font-weight="bold" lengthAdjust="spacing" textLength="7" x="662" y="289.667">7</text><text fill="#000000" font-family="sans-serif" font-size="13" lengthAdjust="spacing" textLength="109" x="673" y="289.667">propertyRepository</text><polygon fill="#181818" points="1136,318.9453,1146,322.9453,1136,326.9453,1140,322.9453" style="stroke:#181818;stroke-width:1.0;"/><line style="stroke:#181818;stroke-width:1.0;" x1="645" x2="1142" y1="322.9453" y2="322.9453"/><text fill="#000000" font-family="sans-serif" font-size="13" font-weight="bold" lengthAdjust="spacing" textLength="7" x="652" y="318.1904">8</text><text fill="#000000" font-family="sans-serif" font-size="13" lengthAdjust="spacing" textLength="85" x="663" y="318.1904">getProperties()</text><polygon fill="#181818" points="656,347.4688,646,351.4688,656,355.4688,652,351.4688" style="stroke:#181818;stroke-width:1.0;"/><line style="stroke:#181818;stroke-width:1.0;stroke-dasharray:2.0,2.0;" x1="650" x2="1152" y1="351.4688" y2="351.4688"/><text fill="#000000" font-family="sans-serif" font-size="13" font-weight="bold" lengthAdjust="spacing" textLength="7" x="662" y="346.7139">9</text><text fill="#000000" font-family="sans-serif" font-size="13" lengthAdjust="spacing" textLength="68" x="673" y="346.7139">propertyList</text><polygon fill="#181818" points="378,375.9922,368,379.9922,378,383.9922,374,379.9922" style="stroke:#181818;stroke-width:1.0;"/><line style="stroke:#181818;stroke-width:1.0;stroke-dasharray:2.0,2.0;" x1="372" x2="639" y1="379.9922" y2="379.9922"/><text fill="#000000" font-family="sans-serif" font-size="13" font-weight="bold" lengthAdjust="spacing" textLength="14" x="384" y="375.2373">10</text><text fill="#000000" font-family="sans-serif" font-size="13" lengthAdjust="spacing" textLength="68" x="402" y="375.2373">propertyList</text><polygon fill="#181818" points="81,404.5156,71,408.5156,81,412.5156,77,408.5156" style="stroke:#181818;stroke-width:1.0;"/><line style="stroke:#181818;stroke-width:1.0;stroke-dasharray:2.0,2.0;" x1="75" x2="361" y1="408.5156" y2="408.5156"/><text fill="#000000" font-family="sans-serif" font-size="13" font-weight="bold" lengthAdjust="spacing" textLength="14" x="87" y="403.7607">11</text><text fill="#000000" font-family="sans-serif" font-size="13" lengthAdjust="spacing" textLength="245" x="105" y="403.7607">shows agency list and asks to select one</text><polygon fill="#181818" points="345,433.0391,355,437.0391,345,441.0391,349,437.0391" style="stroke:#181818;stroke-width:1.0;"/><line style="stroke:#181818;stroke-width:1.0;" x1="70" x2="351" y1="437.0391" y2="437.0391"/><text fill="#000000" font-family="sans-serif" font-size="13" font-weight="bold" lengthAdjust="spacing" textLength="14" x="77" y="432.2842">12</text><text fill="#000000" font-family="sans-serif" font-size="13" lengthAdjust="spacing" textLength="104" x="95" y="432.2842">selects a agency</text><polygon fill="#181818" points="81,461.5625,71,465.5625,81,469.5625,77,465.5625" style="stroke:#181818;stroke-width:1.0;"/><line style="stroke:#181818;stroke-width:1.0;stroke-dasharray:2.0,2.0;" x1="75" x2="361" y1="465.5625" y2="465.5625"/><text fill="#000000" font-family="sans-serif" font-size="13" font-weight="bold" lengthAdjust="spacing" textLength="14" x="87" y="460.8076">13</text><text fill="#000000" font-family="sans-serif" font-size="13" lengthAdjust="spacing" textLength="79" x="105" y="460.8076">requests data</text><polygon fill="#181818" points="345,490.0859,355,494.0859,345,498.0859,349,494.0859" style="stroke:#181818;stroke-width:1.0;"/><line style="stroke:#181818;stroke-width:1.0;" x1="70" x2="351" y1="494.0859" y2="494.0859"/><text fill="#000000" font-family="sans-serif" font-size="13" font-weight="bold" lengthAdjust="spacing" textLength="14" x="77" y="489.3311">14</text><text fill="#000000" font-family="sans-serif" font-size="13" lengthAdjust="spacing" textLength="225" x="95" y="489.3311">types announcement data (description)</text><polygon fill="#181818" points="81,518.6094,71,522.6094,81,526.6094,77,522.6094" style="stroke:#181818;stroke-width:1.0;"/><line style="stroke:#181818;stroke-width:1.0;stroke-dasharray:2.0,2.0;" x1="75" x2="361" y1="522.6094" y2="522.6094"/><text fill="#000000" font-family="sans-serif" font-size="13" font-weight="bold" lengthAdjust="spacing" textLength="14" x="87" y="517.8545">15</text><text fill="#000000" font-family="sans-serif" font-size="13" lengthAdjust="spacing" textLength="124" x="105" y="517.8545">requests commission</text><polygon fill="#181818" points="345,547.1328,355,551.1328,345,555.1328,349,551.1328" style="stroke:#181818;stroke-width:1.0;"/><line style="stroke:#181818;stroke-width:1.0;" x1="70" x2="351" y1="551.1328" y2="551.1328"/><text fill="#000000" font-family="sans-serif" font-size="13" font-weight="bold" lengthAdjust="spacing" textLength="14" x="77" y="546.3779">16</text><text fill="#000000" font-family="sans-serif" font-size="13" lengthAdjust="spacing" textLength="99" x="95" y="546.3779">sets commission</text><polygon fill="#181818" points="81,575.6563,71,579.6563,81,583.6563,77,579.6563" style="stroke:#181818;stroke-width:1.0;"/><line style="stroke:#181818;stroke-width:1.0;stroke-dasharray:2.0,2.0;" x1="75" x2="361" y1="579.6563" y2="579.6563"/><text fill="#000000" font-family="sans-serif" font-size="13" font-weight="bold" lengthAdjust="spacing" textLength="14" x="87" y="574.9014">17</text><text fill="#000000" font-family="sans-serif" font-size="13" lengthAdjust="spacing" textLength="180" x="105" y="574.9014">shows selected and typed data</text><polygon fill="#181818" points="345,604.1797,355,608.1797,345,612.1797,349,608.1797" style="stroke:#181818;stroke-width:1.0;"/><line style="stroke:#181818;stroke-width:1.0;" x1="70" x2="351" y1="608.1797" y2="608.1797"/><text fill="#000000" font-family="sans-serif" font-size="13" font-weight="bold" lengthAdjust="spacing" textLength="14" x="77" y="603.4248">18</text><text fill="#000000" font-family="sans-serif" font-size="13" lengthAdjust="spacing" textLength="75" x="95" y="603.4248">submits data</text><polygon fill="#181818" points="623,647.2266,633,651.2266,623,655.2266,627,651.2266" style="stroke:#181818;stroke-width:1.0;"/><line style="stroke:#181818;stroke-width:1.0;" x1="367" x2="629" y1="651.2266" y2="651.2266"/><text fill="#000000" font-family="sans-serif" font-size="13" font-weight="bold" lengthAdjust="spacing" textLength="14" x="374" y="639.21">19</text><text fill="#000000" font-family="sans-serif" font-size="13" lengthAdjust="spacing" textLength="227" x="392" y="631.9482">createAnnouncement(propertyLocation,</text><text fill="#000000" font-family="sans-serif" font-size="13" lengthAdjust="spacing" textLength="145" x="392" y="646.4717">description, commission)</text><line style="stroke:#181818;stroke-width:1.0;" x1="645" x2="692" y1="674.75" y2="674.75"/><line style="stroke:#181818;stroke-width:1.0;" x1="692" x2="692" y1="674.75" y2="687.75"/><line style="stroke:#181818;stroke-width:1.0;" x1="651" x2="692" y1="687.75" y2="687.75"/><polygon fill="#181818" points="661,683.75,651,687.75,661,691.75,657,687.75" style="stroke:#181818;stroke-width:1.0;"/><text fill="#000000" font-family="sans-serif" font-size="13" font-weight="bold" lengthAdjust="spacing" textLength="14" x="657" y="669.9951">20</text><text fill="#000000" font-family="sans-serif" font-size="13" lengthAdjust="spacing" textLength="236" x="675" y="669.9951">getPropertyByLocation(propertyLocation)</text><polygon fill="#181818" points="901,717.2734,911,721.2734,901,725.2734,905,721.2734" style="stroke:#181818;stroke-width:1.0;"/><line style="stroke:#181818;stroke-width:1.0;" x1="650" x2="907" y1="721.2734" y2="721.2734"/><text fill="#000000" font-family="sans-serif" font-size="13" font-weight="bold" lengthAdjust="spacing" textLength="14" x="657" y="716.5186">21</text><text fill="#000000" font-family="sans-serif" font-size="13" lengthAdjust="spacing" textLength="75" x="675" y="716.5186">getInstance()</text><polygon fill="#181818" points="661,745.7969,651,749.7969,661,753.7969,657,749.7969" style="stroke:#181818;stroke-width:1.0;"/><line style="stroke:#181818;stroke-width:1.0;stroke-dasharray:2.0,2.0;" x1="655" x2="917" y1="749.7969" y2="749.7969"/><text fill="#000000" font-family="sans-serif" font-size="13" font-weight="bold" lengthAdjust="spacing" textLength="14" x="667" y="745.042">22</text><text fill="#000000" font-family="sans-serif" font-size="13" lengthAdjust="spacing" textLength="67" x="685" y="745.042">repositories</text><polygon fill="#181818" points="1008,774.3203,1018,778.3203,1008,782.3203,1012,778.3203" style="stroke:#181818;stroke-width:1.0;"/><line style="stroke:#181818;stroke-width:1.0;" x1="650" x2="1014" y1="778.3203" y2="778.3203"/><text fill="#000000" font-family="sans-serif" font-size="13" font-weight="bold" lengthAdjust="spacing" textLength="14" x="657" y="773.5654">23</text><text fill="#000000" font-family="sans-serif" font-size="13" lengthAdjust="spacing" textLength="137" x="675" y="773.5654">getPropertyRepository()</text><polygon fill="#181818" points="661,802.8438,651,806.8438,661,810.8438,657,806.8438" style="stroke:#181818;stroke-width:1.0;"/><line style="stroke:#181818;stroke-width:1.0;" x1="655" x2="1024" y1="806.8438" y2="806.8438"/><text fill="#000000" font-family="sans-serif" font-size="13" font-weight="bold" lengthAdjust="spacing" textLength="14" x="667" y="802.0889">24</text><text fill="#000000" font-family="sans-serif" font-size="13" lengthAdjust="spacing" textLength="109" x="685" y="802.0889">propertyRepository</text><polygon fill="#181818" points="1136,831.3672,1146,835.3672,1136,839.3672,1140,835.3672" style="stroke:#181818;stroke-width:1.0;"/><line style="stroke:#181818;stroke-width:1.0;" x1="650" x2="1142" y1="835.3672" y2="835.3672"/><text fill="#000000" font-family="sans-serif" font-size="13" font-weight="bold" lengthAdjust="spacing" textLength="14" x="657" y="830.6123">25</text><text fill="#000000" font-family="sans-serif" font-size="13" lengthAdjust="spacing" textLength="236" x="675" y="830.6123">getPropertyByLocation(propertyLocation)</text><polygon fill="#181818" points="661,859.8906,651,863.8906,661,867.8906,657,863.8906" style="stroke:#181818;stroke-width:1.0;"/><line style="stroke:#181818;stroke-width:1.0;stroke-dasharray:2.0,2.0;" x1="655" x2="1152" y1="863.8906" y2="863.8906"/><text fill="#000000" font-family="sans-serif" font-size="13" font-weight="bold" lengthAdjust="spacing" textLength="14" x="667" y="859.1357">26</text><text fill="#000000" font-family="sans-serif" font-size="13" lengthAdjust="spacing" textLength="47" x="685" y="859.1357">agency</text><line style="stroke:#181818;stroke-width:1.0;stroke-dasharray:2.0,2.0;" x1="650" x2="692" y1="897.4141" y2="897.4141"/><line style="stroke:#181818;stroke-width:1.0;stroke-dasharray:2.0,2.0;" x1="692" x2="692" y1="897.4141" y2="910.4141"/><line style="stroke:#181818;stroke-width:1.0;stroke-dasharray:2.0,2.0;" x1="645" x2="692" y1="910.4141" y2="910.4141"/><polygon fill="#181818" points="655,906.4141,645,910.4141,655,914.4141,651,910.4141" style="stroke:#181818;stroke-width:1.0;"/><text fill="#000000" font-family="sans-serif" font-size="13" font-weight="bold" lengthAdjust="spacing" textLength="14" x="657" y="892.6592">27</text><text fill="#000000" font-family="sans-serif" font-size="13" lengthAdjust="spacing" textLength="47" x="675" y="892.6592">agency</text><line style="stroke:#181818;stroke-width:1.0;" x1="645" x2="692" y1="928.9375" y2="928.9375"/><line style="stroke:#181818;stroke-width:1.0;" x1="692" x2="692" y1="928.9375" y2="941.9375"/><line style="stroke:#181818;stroke-width:1.0;" x1="651" x2="692" y1="941.9375" y2="941.9375"/><polygon fill="#181818" points="661,937.9375,651,941.9375,661,945.9375,657,941.9375" style="stroke:#181818;stroke-width:1.0;"/><text fill="#000000" font-family="sans-serif" font-size="13" font-weight="bold" lengthAdjust="spacing" textLength="14" x="657" y="924.1826">28</text><text fill="#000000" font-family="sans-serif" font-size="13" lengthAdjust="spacing" textLength="161" x="675" y="924.1826">getEmployeeFromSession()</text><polygon fill="#181818" points="1284,971.4609,1294,975.4609,1284,979.4609,1288,975.4609" style="stroke:#181818;stroke-width:1.0;"/><line style="stroke:#181818;stroke-width:1.0;" x1="650" x2="1290" y1="975.4609" y2="975.4609"/><text fill="#000000" font-family="sans-serif" font-size="13" font-weight="bold" lengthAdjust="spacing" textLength="14" x="657" y="970.7061">29</text><text fill="#000000" font-family="sans-serif" font-size="13" lengthAdjust="spacing" textLength="75" x="675" y="970.7061">getInstance()</text><polygon fill="#181818" points="661,999.9844,651,1003.9844,661,1007.9844,657,1003.9844" style="stroke:#181818;stroke-width:1.0;"/><line style="stroke:#181818;stroke-width:1.0;" x1="655" x2="1300" y1="1003.9844" y2="1003.9844"/><text fill="#000000" font-family="sans-serif" font-size="13" font-weight="bold" lengthAdjust="spacing" textLength="14" x="667" y="999.2295">30</text><text fill="#000000" font-family="sans-serif" font-size="13" lengthAdjust="spacing" textLength="68" x="685" y="999.2295">appSession</text><polygon fill="#181818" points="1431,1028.5078,1441,1032.5078,1431,1036.5078,1435,1032.5078" style="stroke:#181818;stroke-width:1.0;"/><line style="stroke:#181818;stroke-width:1.0;" x1="650" x2="1437" y1="1032.5078" y2="1032.5078"/><text fill="#000000" font-family="sans-serif" font-size="13" font-weight="bold" lengthAdjust="spacing" textLength="14" x="657" y="1027.7529">31</text><text fill="#000000" font-family="sans-serif" font-size="13" lengthAdjust="spacing" textLength="115" x="675" y="1027.7529">getCurrentSession()</text><polygon fill="#181818" points="661,1057.0313,651,1061.0313,661,1065.0313,657,1061.0313" style="stroke:#181818;stroke-width:1.0;"/><line style="stroke:#181818;stroke-width:1.0;stroke-dasharray:2.0,2.0;" x1="655" x2="1447" y1="1061.0313" y2="1061.0313"/><text fill="#000000" font-family="sans-serif" font-size="13" font-weight="bold" lengthAdjust="spacing" textLength="14" x="667" y="1056.2764">32</text><text fill="#000000" font-family="sans-serif" font-size="13" lengthAdjust="spacing" textLength="87" x="685" y="1056.2764">currentSession</text><polygon fill="#181818" points="1564,1085.5547,1574,1089.5547,1564,1093.5547,1568,1089.5547" style="stroke:#181818;stroke-width:1.0;"/><line style="stroke:#181818;stroke-width:1.0;" x1="650" x2="1570" y1="1089.5547" y2="1089.5547"/><text fill="#000000" font-family="sans-serif" font-size="13" font-weight="bold" lengthAdjust="spacing" textLength="14" x="657" y="1084.7998">33</text><text fill="#000000" font-family="sans-serif" font-size="13" lengthAdjust="spacing" textLength="133" x="675" y="1084.7998">email = getUserEmail()</text><polygon fill="#181818" points="661,1114.0781,651,1118.0781,661,1122.0781,657,1118.0781" style="stroke:#181818;stroke-width:1.0;"/><line style="stroke:#181818;stroke-width:1.0;stroke-dasharray:2.0,2.0;" x1="655" x2="1580" y1="1118.0781" y2="1118.0781"/><text fill="#000000" font-family="sans-serif" font-size="13" font-weight="bold" lengthAdjust="spacing" textLength="14" x="667" y="1113.3232">34</text><text fill="#000000" font-family="sans-serif" font-size="13" lengthAdjust="spacing" textLength="31" x="685" y="1113.3232">email</text><polygon fill="#181818" points="1008,1142.6016,1018,1146.6016,1008,1150.6016,1012,1146.6016" style="stroke:#181818;stroke-width:1.0;"/><line style="stroke:#181818;stroke-width:1.0;" x1="650" x2="1014" y1="1146.6016" y2="1146.6016"/><text fill="#000000" font-family="sans-serif" font-size="13" font-weight="bold" lengthAdjust="spacing" textLength="14" x="657" y="1141.8467">35</text><text fill="#000000" font-family="sans-serif" font-size="13" lengthAdjust="spacing" textLength="192" x="675" y="1141.8467">getOrganizationRepository(email)</text><polygon fill="#181818" points="661,1171.125,651,1175.125,661,1179.125,657,1175.125" style="stroke:#181818;stroke-width:1.0;"/><line style="stroke:#181818;stroke-width:1.0;stroke-dasharray:2.0,2.0;" x1="655" x2="1024" y1="1175.125" y2="1175.125"/><text fill="#000000" font-family="sans-serif" font-size="13" font-weight="bold" lengthAdjust="spacing" textLength="14" x="667" y="1170.3701">36</text><text fill="#000000" font-family="sans-serif" font-size="13" lengthAdjust="spacing" textLength="132" x="685" y="1170.3701">organizationRepository</text><polygon fill="#181818" points="1710,1199.6484,1720,1203.6484,1710,1207.6484,1714,1203.6484" style="stroke:#181818;stroke-width:1.0;"/><line style="stroke:#181818;stroke-width:1.0;" x1="650" x2="1716" y1="1203.6484" y2="1203.6484"/><text fill="#000000" font-family="sans-serif" font-size="13" font-weight="bold" lengthAdjust="spacing" textLength="14" x="657" y="1198.8936">37</text><text fill="#000000" font-family="sans-serif" font-size="13" lengthAdjust="spacing" textLength="206" x="675" y="1198.8936">getOrganizationByUserEmail(email)</text><path d="M1635.5,1218.6484 L1708.5,1218.6484 L1708.5,1225.1719 L1698.5,1235.1719 L1635.5,1235.1719 L1635.5,1218.6484 " fill="#EEEEEE" style="stroke:#000000;stroke-width:1.5;"/><rect fill="none" height="73.5703" style="stroke:#000000;stroke-width:1.5;" width="371.5" x="1635.5" y="1218.6484"/><text fill="#000000" font-family="sans-serif" font-size="13" font-weight="bold" lengthAdjust="spacing" textLength="28" x="1650.5" y="1231.417">loop</text><text fill="#000000" font-family="sans-serif" font-size="11" font-weight="bold" lengthAdjust="spacing" textLength="128" x="1723.5" y="1230.6064">[[for each organization]</text><polygon fill="#181818" points="1931,1251.6953,1941,1255.6953,1931,1259.6953,1935,1255.6953" style="stroke:#181818;stroke-width:1.0;"/><line style="stroke:#181818;stroke-width:1.0;" x1="1732" x2="1937" y1="1255.6953" y2="1255.6953"/><text fill="#000000" font-family="sans-serif" font-size="13" font-weight="bold" lengthAdjust="spacing" textLength="14" x="1739" y="1250.9404">38</text><text fill="#000000" font-family="sans-serif" font-size="13" lengthAdjust="spacing" textLength="174" x="1757" y="1250.9404">anyEmployeeHasEmail(email)</text><polygon fill="#181818" points="1743,1280.2188,1733,1284.2188,1743,1288.2188,1739,1284.2188" style="stroke:#181818;stroke-width:1.0;"/><line style="stroke:#181818;stroke-width:1.0;stroke-dasharray:2.0,2.0;" x1="1737" x2="1947" y1="1284.2188" y2="1284.2188"/><text fill="#000000" font-family="sans-serif" font-size="13" font-weight="bold" lengthAdjust="spacing" textLength="14" x="1749" y="1279.4639">39</text><text fill="#000000" font-family="sans-serif" font-size="13" lengthAdjust="spacing" textLength="53" x="1767" y="1279.4639">true/false</text><polygon fill="#181818" points="661,1315.7422,651,1319.7422,661,1323.7422,657,1319.7422" style="stroke:#181818;stroke-width:1.0;"/><line style="stroke:#181818;stroke-width:1.0;stroke-dasharray:2.0,2.0;" x1="655" x2="1726" y1="1319.7422" y2="1319.7422"/><text fill="#000000" font-family="sans-serif" font-size="13" font-weight="bold" lengthAdjust="spacing" textLength="14" x="667" y="1314.9873">40</text><text fill="#000000" font-family="sans-serif" font-size="13" lengthAdjust="spacing" textLength="70" x="685" y="1314.9873">organization</text><polygon fill="#181818" points="1931,1344.2656,1941,1348.2656,1931,1352.2656,1935,1348.2656" style="stroke:#181818;stroke-width:1.0;"/><line style="stroke:#181818;stroke-width:1.0;" x1="650" x2="1937" y1="1348.2656" y2="1348.2656"/><text fill="#000000" font-family="sans-serif" font-size="13" font-weight="bold" lengthAdjust="spacing" textLength="14" x="657" y="1343.5107">41</text><text fill="#000000" font-family="sans-serif" font-size="13" lengthAdjust="spacing" textLength="164" x="675" y="1343.5107">getEmployeeByEmail(email)</text><polygon fill="#181818" points="661,1372.7891,651,1376.7891,661,1380.7891,657,1376.7891" style="stroke:#181818;stroke-width:1.0;"/><line style="stroke:#181818;stroke-width:1.0;stroke-dasharray:2.0,2.0;" x1="655" x2="1947" y1="1376.7891" y2="1376.7891"/><text fill="#000000" font-family="sans-serif" font-size="13" font-weight="bold" lengthAdjust="spacing" textLength="14" x="667" y="1372.0342">42</text><text fill="#000000" font-family="sans-serif" font-size="13" lengthAdjust="spacing" textLength="56" x="685" y="1372.0342">employee</text><line style="stroke:#181818;stroke-width:1.0;" x1="650" x2="692" y1="1410.3125" y2="1410.3125"/><line style="stroke:#181818;stroke-width:1.0;" x1="692" x2="692" y1="1410.3125" y2="1423.3125"/><line style="stroke:#181818;stroke-width:1.0;" x1="645" x2="692" y1="1423.3125" y2="1423.3125"/><polygon fill="#181818" points="655,1419.3125,645,1423.3125,655,1427.3125,651,1423.3125" style="stroke:#181818;stroke-width:1.0;"/><text fill="#000000" font-family="sans-serif" font-size="13" font-weight="bold" lengthAdjust="spacing" textLength="14" x="657" y="1405.5576">43</text><text fill="#000000" font-family="sans-serif" font-size="13" lengthAdjust="spacing" textLength="56" x="675" y="1405.5576">employee</text><polygon fill="#181818" points="1931,1457.3594,1941,1461.3594,1931,1465.3594,1935,1461.3594" style="stroke:#181818;stroke-width:1.0;"/><line style="stroke:#181818;stroke-width:1.0;" x1="645" x2="1937" y1="1461.3594" y2="1461.3594"/><text fill="#000000" font-family="sans-serif" font-size="13" font-weight="bold" lengthAdjust="spacing" textLength="14" x="652" y="1449.3428">44</text><text fill="#000000" font-family="sans-serif" font-size="13" lengthAdjust="spacing" textLength="314" x="670" y="1442.0811">createTask(reference, description, informalDescription,</text><text fill="#000000" font-family="sans-serif" font-size="13" lengthAdjust="spacing" textLength="357" x="670" y="1456.6045">technicalDescription, duration, cost, taskCategory, employee)</text><polygon fill="#181818" points="2149.5,1500.4063,2159.5,1504.4063,2149.5,1508.4063,2153.5,1504.4063" style="stroke:#181818;stroke-width:1.0;"/><line style="stroke:#181818;stroke-width:1.0;" x1="1953" x2="2155.5" y1="1504.4063" y2="1504.4063"/><text fill="#000000" font-family="sans-serif" font-size="13" font-weight="bold" lengthAdjust="spacing" textLength="14" x="1960" y="1492.3896">45</text><text fill="#000000" font-family="sans-serif" font-size="13" lengthAdjust="spacing" textLength="162" x="1978" y="1485.1279">create(agency, description,</text><text fill="#000000" font-family="sans-serif" font-size="13" lengthAdjust="spacing" textLength="114" x="1978" y="1499.6514">commission, agent)</text><rect fill="#E3E3E3" height="45.2813" rx="2.5" ry="2.5" style="stroke:#181818;stroke-width:0.5;" width="113" x="2161.5" y="1469.3594"/><text fill="#000000" font-family="sans-serif" font-size="14" lengthAdjust="spacing" textLength="94" x="2171" y="1489.0332">announcement</text><text fill="#000000" font-family="sans-serif" font-size="14" lengthAdjust="spacing" textLength="99" x="2168.5" y="1504.6738">:Announcement</text><line style="stroke:#181818;stroke-width:1.0;" x1="1953" x2="2000" y1="1541.1641" y2="1541.1641"/><line style="stroke:#181818;stroke-width:1.0;" x1="2000" x2="2000" y1="1541.1641" y2="1554.1641"/><line style="stroke:#181818;stroke-width:1.0;" x1="1959" x2="2000" y1="1554.1641" y2="1554.1641"/><polygon fill="#181818" points="1969,1550.1641,1959,1554.1641,1969,1558.1641,1965,1554.1641" style="stroke:#181818;stroke-width:1.0;"/><text fill="#000000" font-family="sans-serif" font-size="13" font-weight="bold" lengthAdjust="spacing" textLength="14" x="1965" y="1536.4092">46</text><text fill="#000000" font-family="sans-serif" font-size="13" lengthAdjust="spacing" textLength="201" x="1983" y="1536.4092">addAnnouncement(announcement)</text><line style="stroke:#181818;stroke-width:1.0;" x1="1958" x2="2005" y1="1582.6875" y2="1582.6875"/><line style="stroke:#181818;stroke-width:1.0;" x1="2005" x2="2005" y1="1582.6875" y2="1595.6875"/><line style="stroke:#181818;stroke-width:1.0;" x1="1964" x2="2005" y1="1595.6875" y2="1595.6875"/><polygon fill="#181818" points="1974,1591.6875,1964,1595.6875,1974,1599.6875,1970,1595.6875" style="stroke:#181818;stroke-width:1.0;"/><text fill="#000000" font-family="sans-serif" font-size="13" font-weight="bold" lengthAdjust="spacing" textLength="14" x="1970" y="1577.9326">47</text><text fill="#000000" font-family="sans-serif" font-size="13" lengthAdjust="spacing" textLength="223" x="1988" y="1577.9326">validateAnnouncement(announcement)</text><line style="stroke:#181818;stroke-width:1.0;stroke-dasharray:2.0,2.0;" x1="1963" x2="2005" y1="1634.2109" y2="1634.2109"/><line style="stroke:#181818;stroke-width:1.0;stroke-dasharray:2.0,2.0;" x1="2005" x2="2005" y1="1634.2109" y2="1647.2109"/><line style="stroke:#181818;stroke-width:1.0;stroke-dasharray:2.0,2.0;" x1="1958" x2="2005" y1="1647.2109" y2="1647.2109"/><polygon fill="#181818" points="1968,1643.2109,1958,1647.2109,1968,1651.2109,1964,1647.2109" style="stroke:#181818;stroke-width:1.0;"/><text fill="#000000" font-family="sans-serif" font-size="13" font-weight="bold" lengthAdjust="spacing" textLength="14" x="1970" y="1629.4561">48</text><text fill="#000000" font-family="sans-serif" font-size="13" lengthAdjust="spacing" textLength="4" x="1988" y="1629.4561">&#160;</text><line style="stroke:#181818;stroke-width:1.0;stroke-dasharray:2.0,2.0;" x1="1958" x2="2000" y1="1675.7344" y2="1675.7344"/><line style="stroke:#181818;stroke-width:1.0;stroke-dasharray:2.0,2.0;" x1="2000" x2="2000" y1="1675.7344" y2="1688.7344"/><line style="stroke:#181818;stroke-width:1.0;stroke-dasharray:2.0,2.0;" x1="1953" x2="2000" y1="1688.7344" y2="1688.7344"/><polygon fill="#181818" points="1963,1684.7344,1953,1688.7344,1963,1692.7344,1959,1688.7344" style="stroke:#181818;stroke-width:1.0;"/><text fill="#000000" font-family="sans-serif" font-size="13" font-weight="bold" lengthAdjust="spacing" textLength="14" x="1965" y="1670.9795">49</text><text fill="#000000" font-family="sans-serif" font-size="13" lengthAdjust="spacing" textLength="4" x="1983" y="1670.9795">&#160;</text><polygon fill="#181818" points="656,1708.2578,646,1712.2578,656,1716.2578,652,1712.2578" style="stroke:#181818;stroke-width:1.0;"/><line style="stroke:#181818;stroke-width:1.0;stroke-dasharray:2.0,2.0;" x1="650" x2="1947" y1="1712.2578" y2="1712.2578"/><text fill="#000000" font-family="sans-serif" font-size="13" font-weight="bold" lengthAdjust="spacing" textLength="14" x="662" y="1707.5029">50</text><text fill="#000000" font-family="sans-serif" font-size="13" lengthAdjust="spacing" textLength="85" x="680" y="1707.5029">announcement</text><polygon fill="#181818" points="378,1736.7813,368,1740.7813,378,1744.7813,374,1740.7813" style="stroke:#181818;stroke-width:1.0;"/><line style="stroke:#181818;stroke-width:1.0;stroke-dasharray:2.0,2.0;" x1="372" x2="639" y1="1740.7813" y2="1740.7813"/><text fill="#000000" font-family="sans-serif" font-size="13" font-weight="bold" lengthAdjust="spacing" textLength="14" x="384" y="1736.0264">51</text><text fill="#000000" font-family="sans-serif" font-size="13" lengthAdjust="spacing" textLength="85" x="402" y="1736.0264">announcement</text><polygon fill="#181818" points="76,1779.8281,66,1783.8281,76,1787.8281,72,1783.8281" style="stroke:#181818;stroke-width:1.0;"/><line style="stroke:#181818;stroke-width:1.0;stroke-dasharray:2.0,2.0;" x1="70" x2="361" y1="1783.8281" y2="1783.8281"/><text fill="#000000" font-family="sans-serif" font-size="13" font-weight="bold" lengthAdjust="spacing" textLength="14" x="82" y="1771.8115">52</text><text fill="#000000" font-family="sans-serif" font-size="13" lengthAdjust="spacing" textLength="156" x="100" y="1764.5498">informs the agent when the</text><text fill="#000000" font-family="sans-serif" font-size="13" lengthAdjust="spacing" textLength="194" x="100" y="1779.0732">announcment has been published</text><!--SRC=[fLZ1RkCs4BthAuXSwWGEUZVG1Hp7JGDaay1EJckWeAM9JKGYLPBUrFtwafH4aHObqLvT4aipR-QHCqz3YKz2IynnWGf6MRhdh00a-G4IOP-KEFt4ErZBOmw8GoentUMkWTZZZ7qHkaCVE1UG9FWW6JqKM-19yjkUP80-69DRzc-2Kyaukbe1pj5II2m1pNT0vHN20itlloSAKPAKb9XAT3LRS50cRrXylZyQa_V7Nei5evApF0TkB1TlgwSJsnMKJ12L005XREoDuvfeJYfhtuKx7XlQ1NXzch_v7YLd9N1vRA5d6_hQkLbvTswV93mlovoaM196ro24-cFy_fw_llgMk2nh0vLbZrV7AJrmhfQ-TNmNm5sFzNAzdh_uJeplC2N_6NIFuqlmWS49F-h7LQcuBXN6wk64CgNiG5Ce50LDslbPqNr-Vdb_NYmJNNFafwaqLLy9KfVw1zr-KyM4PihqKo39K7dOvaJi4KOKlf2BNlbO55M2veQ-58B2qQLsSwEmKbECWQVgsGvalT-gU2RNriZYce95WSi0AA10jLQuZrHraahMGNKl6o5Kxa4FVOMYtTPqPiXjZ2141kU7ROZghl9MpEcGCOwc8tj96UIMHRTPnxZqmzlaEvW3cn-cqCsgdr0tscrRSms_9oBaABEHg1M_fck2o0wQAMQl4PIdRhkPUbkmBs41a6ewgTejiuqe85Vl6CHerKWEQDDvRljMraArROCutAqs3Gx_740epmnB71D97aiGdZ0OLpJ9GAISb5gghiyDdhAY84PnuyXsNVg3dQnujLAGcSNMPBAMUapimxOWxdAD2AALGrUP9xPkMFM2cg8DTTPlwh3hayWar7KTaJtUsHYTe7x_3Q3_clYUBO2NI-wPQdkPq8wBO2Ml7VdfbzSnPOqKrVZDla1duoGskLnPFNKTWktLrt0dB8ioPqU0FzLGNuzratDAtqBgUJDcqF0WpP2A1YvjW6nrjnDihvD3tu3t6ZPvDsall44t9lb1UAECEdURl3z9nn28oh-QlsS82anoz8UceaVqfVuPmwAUtmU9L3OE5nCiXi8OkYioPXl2nu292HZ1PdYo2qntuQDA3BNXK0snC9yErRjZkscnN7jEJ8FiSyPAzED37QyLaRt7Vj1FN-5uXkJgGH-IwB5Hax-mYEBIvQHESAFMLJOgvctl0kjHZ1_Wz-fRmnYMiwiwWI5JeDbmWdshrAgkj-WnbNRkHjlQMpru6dztFBF0nZQZsOEQ6DHnaWlN-UJj58IBUhqPugdzw3FXy05AUrEO8c-E95HrGe7pU-VcXaf8zvIa_csK7JXkfayXfqZghqagm4vjnTJcslFg3AwaMRrlzXl4pKsJinrFJjBTq7RmdIAiFudrxsADRfO2PvatOBlda-iahX16ww2EzHFd93kTwFs0qKeGhG4ZjYTrb_mgvXZUILzutubYSPoZT1n2vzDGUvYSrPMkZivxg0e7VUs1cfyRMgERq-eU2xG5zQZ-r0LPwCpf3Ydtt_y7]--></g></svg>