<?xml version="1.0" encoding="us-ascii" standalone="no"?><svg xmlns="http://www.w3.org/2000/svg" xmlns:xlink="http://www.w3.org/1999/xlink" contentStyleType="text/css" height="390px" preserveAspectRatio="none" style="width:851px;height:390px;background:#FFFFFF;" version="1.1" viewBox="0 0 851 390" width="851px" zoomAndPan="magnify"><defs/><g><rect fill="#FFFFFF" height="236.4844" style="stroke:#181818;stroke-width:1.0;" width="10" x="134" y="84.2871"/><rect fill="#FFFFFF" height="29.3105" style="stroke:#181818;stroke-width:1.0;" width="10" x="314.5" y="137.9082"/><rect fill="#FFFFFF" height="29.3105" style="stroke:#181818;stroke-width:1.0;" width="10" x="427.5" y="196.5293"/><rect fill="#FFFFFF" height="29.3105" style="stroke:#181818;stroke-width:1.0;" width="10" x="739.5" y="255.1504"/><rect fill="none" height="193.1738" style="stroke:#000000;stroke-width:1.5;" width="835" x="10" y="99.2871"/><line style="stroke:#181818;stroke-width:0.5;stroke-dasharray:5.0,5.0;" x1="139" x2="139" y1="52.9766" y2="338.7715"/><line style="stroke:#181818;stroke-width:0.5;stroke-dasharray:5.0,5.0;" x1="319" x2="319" y1="52.9766" y2="338.7715"/><line style="stroke:#181818;stroke-width:0.5;stroke-dasharray:5.0,5.0;" x1="432" x2="432" y1="52.9766" y2="338.7715"/><line style="stroke:#181818;stroke-width:0.5;stroke-dasharray:5.0,5.0;" x1="569" x2="569" y1="52.9766" y2="338.7715"/><line style="stroke:#181818;stroke-width:0.5;stroke-dasharray:5.0,5.0;" x1="744" x2="744" y1="52.9766" y2="338.7715"/><rect fill="#E3E3E3" height="30.4883" rx="2.5" ry="2.5" style="stroke:#181818;stroke-width:0.5;" width="238" x="20" y="21.4883"/><text fill="#000000" font-family="sans-serif" font-size="14" lengthAdjust="spacing" textLength="224" x="27" y="42.0234">:CreateAnnouncementController</text><rect fill="#E3E3E3" height="30.4883" rx="2.5" ry="2.5" style="stroke:#181818;stroke-width:0.5;" width="238" x="20" y="337.7715"/><text fill="#000000" font-family="sans-serif" font-size="14" lengthAdjust="spacing" textLength="224" x="27" y="358.3066">:CreateAnnouncementController</text><rect fill="#E3E3E3" height="30.4883" rx="2.5" ry="2.5" style="stroke:#181818;stroke-width:0.5;" width="103" x="268" y="21.4883"/><text fill="#000000" font-family="sans-serif" font-size="14" lengthAdjust="spacing" textLength="89" x="275" y="42.0234">:Repositories</text><rect fill="#E3E3E3" height="30.4883" rx="2.5" ry="2.5" style="stroke:#181818;stroke-width:0.5;" width="103" x="268" y="337.7715"/><text fill="#000000" font-family="sans-serif" font-size="14" lengthAdjust="spacing" textLength="89" x="275" y="358.3066">:Repositories</text><rect fill="#E3E3E3" height="46.9766" rx="2.5" ry="2.5" style="stroke:#181818;stroke-width:0.5;" width="103" x="381" y="5"/><text fill="#000000" font-family="sans-serif" font-size="14" lengthAdjust="spacing" textLength="82" x="391.5" y="25.5352">repositories</text><text fill="#000000" font-family="sans-serif" font-size="14" lengthAdjust="spacing" textLength="89" x="388" y="42.0234">:Repositories</text><rect fill="#E3E3E3" height="46.9766" rx="2.5" ry="2.5" style="stroke:#181818;stroke-width:0.5;" width="103" x="381" y="337.7715"/><text fill="#000000" font-family="sans-serif" font-size="14" lengthAdjust="spacing" textLength="82" x="391.5" y="358.3066">repositories</text><text fill="#000000" font-family="sans-serif" font-size="14" lengthAdjust="spacing" textLength="89" x="388" y="374.7949">:Repositories</text><rect fill="#E3E3E3" height="46.9766" rx="2.5" ry="2.5" style="stroke:#181818;stroke-width:0.5;" width="150" x="494" y="5"/><text fill="#000000" font-family="sans-serif" font-size="14" lengthAdjust="spacing" textLength="136" x="501" y="25.5352">propertyRepository:</text><text fill="#000000" font-family="sans-serif" font-size="14" lengthAdjust="spacing" textLength="131" x="503.5" y="42.0234">PropertyRepository</text><rect fill="#E3E3E3" height="46.9766" rx="2.5" ry="2.5" style="stroke:#181818;stroke-width:0.5;" width="150" x="494" y="337.7715"/><text fill="#000000" font-family="sans-serif" font-size="14" lengthAdjust="spacing" textLength="136" x="501" y="358.3066">propertyRepository:</text><text fill="#000000" font-family="sans-serif" font-size="14" lengthAdjust="spacing" textLength="131" x="503.5" y="374.7949">PropertyRepository</text><rect fill="#E3E3E3" height="30.4883" rx="2.5" ry="2.5" style="stroke:#181818;stroke-width:0.5;" width="181" x="654" y="21.4883"/><text fill="#000000" font-family="sans-serif" font-size="14" lengthAdjust="spacing" textLength="167" x="661" y="42.0234">TaskCategoryRepository</text><rect fill="#E3E3E3" height="30.4883" rx="2.5" ry="2.5" style="stroke:#181818;stroke-width:0.5;" width="181" x="654" y="337.7715"/><text fill="#000000" font-family="sans-serif" font-size="14" lengthAdjust="spacing" textLength="167" x="661" y="358.3066">TaskCategoryRepository</text><rect fill="#FFFFFF" height="236.4844" style="stroke:#181818;stroke-width:1.0;" width="10" x="134" y="84.2871"/><rect fill="#FFFFFF" height="29.3105" style="stroke:#181818;stroke-width:1.0;" width="10" x="314.5" y="137.9082"/><rect fill="#FFFFFF" height="29.3105" style="stroke:#181818;stroke-width:1.0;" width="10" x="427.5" y="196.5293"/><rect fill="#FFFFFF" height="29.3105" style="stroke:#181818;stroke-width:1.0;" width="10" x="739.5" y="255.1504"/><polygon fill="#181818" points="122,80.2871,132,84.2871,122,88.2871,126,84.2871" style="stroke:#181818;stroke-width:1.0;"/><line style="stroke:#181818;stroke-width:1.0;" x1="0" x2="128" y1="84.2871" y2="84.2871"/><text fill="#000000" font-family="sans-serif" font-size="13" font-weight="bold" lengthAdjust="spacing" textLength="9" x="7" y="79.5449">3</text><text fill="#000000" font-family="sans-serif" font-size="13" lengthAdjust="spacing" textLength="91" x="20" y="79.5449">getProperties()</text><path d="M10,99.2871 L168,99.2871 L168,106.5977 L158,116.5977 L10,116.5977 L10,99.2871 " fill="#EEEEEE" style="stroke:#000000;stroke-width:1.5;"/><rect fill="none" height="193.1738" style="stroke:#000000;stroke-width:1.5;" width="835" x="10" y="99.2871"/><text fill="#000000" font-family="sans-serif" font-size="13" font-weight="bold" lengthAdjust="spacing" textLength="113" x="25" y="112.8555">Get Property List</text><polygon fill="#181818" points="302.5,133.9082,312.5,137.9082,302.5,141.9082,306.5,137.9082" style="stroke:#181818;stroke-width:1.0;"/><line style="stroke:#181818;stroke-width:1.0;" x1="144" x2="308.5" y1="137.9082" y2="137.9082"/><text fill="#000000" font-family="sans-serif" font-size="13" font-weight="bold" lengthAdjust="spacing" textLength="21" x="151" y="133.166">3.1</text><text fill="#000000" font-family="sans-serif" font-size="13" lengthAdjust="spacing" textLength="81" x="176" y="133.166">getInstance()</text><polygon fill="#181818" points="155,163.2188,145,167.2188,155,171.2188,151,167.2188" style="stroke:#181818;stroke-width:1.0;"/><line style="stroke:#181818;stroke-width:1.0;stroke-dasharray:2.0,2.0;" x1="149" x2="318.5" y1="167.2188" y2="167.2188"/><text fill="#000000" font-family="sans-serif" font-size="13" font-weight="bold" lengthAdjust="spacing" textLength="21" x="161" y="162.4766">3.2</text><text fill="#000000" font-family="sans-serif" font-size="13" lengthAdjust="spacing" textLength="75" x="186" y="162.4766">repositories</text><polygon fill="#181818" points="415.5,192.5293,425.5,196.5293,415.5,200.5293,419.5,196.5293" style="stroke:#181818;stroke-width:1.0;"/><line style="stroke:#181818;stroke-width:1.0;" x1="144" x2="421.5" y1="196.5293" y2="196.5293"/><text fill="#000000" font-family="sans-serif" font-size="13" font-weight="bold" lengthAdjust="spacing" textLength="21" x="151" y="191.7871">3.3</text><text fill="#000000" font-family="sans-serif" font-size="13" lengthAdjust="spacing" textLength="147" x="176" y="191.7871">getPropertyRepository()</text><polygon fill="#181818" points="155,221.8398,145,225.8398,155,229.8398,151,225.8398" style="stroke:#181818;stroke-width:1.0;"/><line style="stroke:#181818;stroke-width:1.0;stroke-dasharray:2.0,2.0;" x1="149" x2="431.5" y1="225.8398" y2="225.8398"/><text fill="#000000" font-family="sans-serif" font-size="13" font-weight="bold" lengthAdjust="spacing" textLength="21" x="161" y="221.0977">3.4</text><text fill="#000000" font-family="sans-serif" font-size="13" lengthAdjust="spacing" textLength="120" x="186" y="221.0977">propertyRepository</text><polygon fill="#181818" points="727.5,251.1504,737.5,255.1504,727.5,259.1504,731.5,255.1504" style="stroke:#181818;stroke-width:1.0;"/><line style="stroke:#181818;stroke-width:1.0;" x1="144" x2="733.5" y1="255.1504" y2="255.1504"/><text fill="#000000" font-family="sans-serif" font-size="13" font-weight="bold" lengthAdjust="spacing" textLength="21" x="151" y="250.4082">3.5</text><text fill="#000000" font-family="sans-serif" font-size="13" lengthAdjust="spacing" textLength="91" x="176" y="250.4082">getProperties()</text><polygon fill="#181818" points="155,280.4609,145,284.4609,155,288.4609,151,284.4609" style="stroke:#181818;stroke-width:1.0;"/><line style="stroke:#181818;stroke-width:1.0;stroke-dasharray:2.0,2.0;" x1="149" x2="743.5" y1="284.4609" y2="284.4609"/><text fill="#000000" font-family="sans-serif" font-size="13" font-weight="bold" lengthAdjust="spacing" textLength="21" x="161" y="279.7188">3.6</text><text fill="#000000" font-family="sans-serif" font-size="13" lengthAdjust="spacing" textLength="76" x="186" y="279.7188">propertyList</text><polygon fill="#181818" points="11,316.7715,1,320.7715,11,324.7715,7,320.7715" style="stroke:#181818;stroke-width:1.0;"/><line style="stroke:#181818;stroke-width:1.0;stroke-dasharray:2.0,2.0;" x1="5" x2="138" y1="320.7715" y2="320.7715"/><text fill="#000000" font-family="sans-serif" font-size="13" font-weight="bold" lengthAdjust="spacing" textLength="9" x="17" y="316.0293">4</text><text fill="#000000" font-family="sans-serif" font-size="13" lengthAdjust="spacing" textLength="76" x="30" y="316.0293">propertyList</text><!--SRC=[ZL8zRuCm4DtzAqvPsWvKgje9LPKYXgfIXYZ9cCM12x42PsGVRVFlwvW09e1KBqZ7-xXxT_Qig996bb1gqkd9w1A1JOt2TdygcPvbZbk-50W6KvQK5o70dcIcVnJbS9I5HI5apPhgye16Y8UJoX2EMlD1_mhX6AnILKbYMCI9GScu9D8rfLWYSQA9ZIuAD0kG5fBTPdN7sM2bhM9j55gFwGgNhRfsvho751CmzZGMMA-Mko6ZChf2mvTUEjxJUbHisADo602y2W7HXny4OiYHRtXd_lWq03w_29co-dQ9D7E3UxdHTGMVo9qFh9Hb8VpVzdbrvp8HHMFwHTQjBKLd6V8wlwaC1yZhcrAFRhF54AOye6RuVvjsaEjA1d45ySxDuDSuQjehzLsEDplNwrYkRMudxJbnaDonUvs9xKwsESqUDpxZ4lN7rCxY3s9cYZatZqVA_3UumZTVU8-YnkJU9L3s9oh-0000]--></g></svg>