<?xml version="1.0" encoding="UTF-8" standalone="no"?><svg xmlns="http://www.w3.org/2000/svg" xmlns:xlink="http://www.w3.org/1999/xlink" contentStyleType="text/css" height="1245px" preserveAspectRatio="none" style="width:3565px;height:1245px;background:#FFFFFF;" version="1.1" viewBox="0 0 3565 1245" width="3565px" zoomAndPan="magnify"><defs/><g><rect fill="#FFFFFF" height="1040.5313" style="stroke:#181818;stroke-width:1.0;" width="10" x="89" y="98.5547"/><rect fill="#FFFFFF" height="1010.9766" style="stroke:#181818;stroke-width:1.0;" width="10" x="486" y="128.1094"/><rect fill="#FFFFFF" height="836.6484" style="stroke:#181818;stroke-width:1.0;" width="10" x="840" y="311.4375"/><rect fill="#FFFFFF" height="744.5391" style="stroke:#181818;stroke-width:1.0;" width="10" x="845" y="356.9922"/><rect fill="#FFFFFF" height="48.5547" style="stroke:#181818;stroke-width:1.0;" width="10" x="850" y="407.5469"/><rect fill="#FFFFFF" height="37.5547" style="stroke:#181818;stroke-width:1.0;" width="10" x="1936" y="650.875"/><rect fill="#FFFFFF" height="37.5547" style="stroke:#181818;stroke-width:1.0;" width="10" x="2085" y="725.9844"/><rect fill="#FFFFFF" height="37.5547" style="stroke:#181818;stroke-width:1.0;" width="10" x="2085" y="801.0938"/><rect fill="#FFFFFF" height="37.5547" style="stroke:#181818;stroke-width:1.0;" width="10" x="2532.5" y="500.6563"/><rect fill="#FFFFFF" height="37.5547" style="stroke:#181818;stroke-width:1.0;" width="10" x="2732" y="575.7656"/><rect fill="#FFFFFF" height="37.5547" style="stroke:#181818;stroke-width:1.0;" width="10" x="3015" y="1026.4219"/><rect fill="#FFFFFF" height="37.5547" style="stroke:#181818;stroke-width:1.0;" width="10" x="3210.5" y="876.2031"/><rect fill="#FFFFFF" height="37.5547" style="stroke:#181818;stroke-width:1.0;" width="10" x="3454" y="951.3125"/><line style="stroke:#181818;stroke-width:0.5;stroke-dasharray:5.0,5.0;" x1="94" x2="94" y1="88.5547" y2="1157.0859"/><line style="stroke:#181818;stroke-width:0.5;stroke-dasharray:5.0,5.0;" x1="490.5" x2="490.5" y1="88.5547" y2="1157.0859"/><line style="stroke:#181818;stroke-width:0.5;stroke-dasharray:5.0,5.0;" x1="844.5" x2="844.5" y1="88.5547" y2="1157.0859"/><line style="stroke:#181818;stroke-width:0.5;stroke-dasharray:5.0,5.0;" x1="1940.5" x2="1940.5" y1="88.5547" y2="1157.0859"/><line style="stroke:#181818;stroke-width:0.5;stroke-dasharray:5.0,5.0;" x1="2089.5" x2="2089.5" y1="88.5547" y2="1157.0859"/><line style="stroke:#181818;stroke-width:0.5;stroke-dasharray:5.0,5.0;" x1="2305.5" x2="2305.5" y1="88.5547" y2="1157.0859"/><line style="stroke:#181818;stroke-width:0.5;stroke-dasharray:5.0,5.0;" x1="2537.5" x2="2537.5" y1="88.5547" y2="1157.0859"/><line style="stroke:#181818;stroke-width:0.5;stroke-dasharray:5.0,5.0;" x1="2736.5" x2="2736.5" y1="88.5547" y2="1157.0859"/><line style="stroke:#181818;stroke-width:0.5;stroke-dasharray:5.0,5.0;" x1="2903.5" x2="2903.5" y1="88.5547" y2="1157.0859"/><line style="stroke:#181818;stroke-width:0.5;stroke-dasharray:5.0,5.0;" x1="3019.5" x2="3019.5" y1="88.5547" y2="1157.0859"/><line style="stroke:#181818;stroke-width:0.5;stroke-dasharray:5.0,5.0;" x1="3215.5" x2="3215.5" y1="88.5547" y2="1157.0859"/><line style="stroke:#181818;stroke-width:0.5;stroke-dasharray:5.0,5.0;" x1="3458.5" x2="3458.5" y1="88.5547" y2="1157.0859"/><text fill="#000000" font-family="sans-serif" font-size="20" lengthAdjust="spacing" textLength="172" x="5" y="84.3359">Unregistered User</text><ellipse cx="94" cy="13.5" fill="#E3E3E3" rx="8" ry="8" style="stroke:#181818;stroke-width:0.5;"/><path d="M94,21.5 L94,48.5 M81,29.5 L107,29.5 M94,48.5 L81,63.5 M94,48.5 L107,63.5 " fill="none" style="stroke:#181818;stroke-width:0.5;"/><text fill="#000000" font-family="sans-serif" font-size="20" lengthAdjust="spacing" textLength="172" x="5" y="1175.4219">Unregistered User</text><ellipse cx="94" cy="1188.1406" fill="#E3E3E3" rx="8" ry="8" style="stroke:#181818;stroke-width:0.5;"/><path d="M94,1196.1406 L94,1223.1406 M81,1204.1406 L107,1204.1406 M94,1223.1406 L81,1238.1406 M94,1223.1406 L107,1238.1406 " fill="none" style="stroke:#181818;stroke-width:0.5;"/><rect fill="#E3E3E3" height="37.5547" rx="2.5" ry="2.5" style="stroke:#181818;stroke-width:0.5;" width="155" x="413.5" y="50"/><text fill="#000000" font-family="sans-serif" font-size="20" lengthAdjust="spacing" textLength="141" x="420.5" y="76.3359">:RegistrationUI</text><rect fill="#E3E3E3" height="37.5547" rx="2.5" ry="2.5" style="stroke:#181818;stroke-width:0.5;" width="155" x="413.5" y="1156.0859"/><text fill="#000000" font-family="sans-serif" font-size="20" lengthAdjust="spacing" textLength="141" x="420.5" y="1182.4219">:RegistrationUI</text><rect fill="#E3E3E3" height="37.5547" rx="2.5" ry="2.5" style="stroke:#181818;stroke-width:0.5;" width="231" x="729.5" y="50"/><text fill="#000000" font-family="sans-serif" font-size="20" lengthAdjust="spacing" textLength="217" x="736.5" y="76.3359">:RegistrationController</text><rect fill="#E3E3E3" height="37.5547" rx="2.5" ry="2.5" style="stroke:#181818;stroke-width:0.5;" width="231" x="729.5" y="1156.0859"/><text fill="#000000" font-family="sans-serif" font-size="20" lengthAdjust="spacing" textLength="217" x="736.5" y="1182.4219">:RegistrationController</text><rect fill="#E3E3E3" height="37.5547" rx="2.5" ry="2.5" style="stroke:#181818;stroke-width:0.5;" width="139" x="1871.5" y="50"/><text fill="#000000" font-family="sans-serif" font-size="20" lengthAdjust="spacing" textLength="125" x="1878.5" y="76.3359">:Repositories</text><rect fill="#E3E3E3" height="37.5547" rx="2.5" ry="2.5" style="stroke:#181818;stroke-width:0.5;" width="139" x="1871.5" y="1156.0859"/><text fill="#000000" font-family="sans-serif" font-size="20" lengthAdjust="spacing" textLength="125" x="1878.5" y="1182.4219">:Repositories</text><rect fill="#E3E3E3" height="61.1094" rx="2.5" ry="2.5" style="stroke:#181818;stroke-width:0.5;" width="139" x="2020.5" y="26.4453"/><text fill="#000000" font-family="sans-serif" font-size="20" lengthAdjust="spacing" textLength="114" x="2033" y="52.7813">repositories</text><text fill="#000000" font-family="sans-serif" font-size="20" lengthAdjust="spacing" textLength="125" x="2027.5" y="76.3359">:Repositories</text><rect fill="#E3E3E3" height="61.1094" rx="2.5" ry="2.5" style="stroke:#181818;stroke-width:0.5;" width="139" x="2020.5" y="1156.0859"/><text fill="#000000" font-family="sans-serif" font-size="20" lengthAdjust="spacing" textLength="114" x="2033" y="1182.4219">repositories</text><text fill="#000000" font-family="sans-serif" font-size="20" lengthAdjust="spacing" textLength="125" x="2027.5" y="1205.9766">:Repositories</text><rect fill="#E3E3E3" height="61.1094" rx="2.5" ry="2.5" style="stroke:#181818;stroke-width:0.5;" width="272" x="2169.5" y="26.4453"/><text fill="#000000" font-family="sans-serif" font-size="20" lengthAdjust="spacing" textLength="258" x="2176.5" y="52.7813">userCredentialsRepository:</text><text fill="#000000" font-family="sans-serif" font-size="20" lengthAdjust="spacing" textLength="254" x="2178.5" y="76.3359">UserCredentialsRepository</text><rect fill="#E3E3E3" height="61.1094" rx="2.5" ry="2.5" style="stroke:#181818;stroke-width:0.5;" width="272" x="2169.5" y="1156.0859"/><text fill="#000000" font-family="sans-serif" font-size="20" lengthAdjust="spacing" textLength="258" x="2176.5" y="1182.4219">userCredentialsRepository:</text><text fill="#000000" font-family="sans-serif" font-size="20" lengthAdjust="spacing" textLength="254" x="2178.5" y="1205.9766">UserCredentialsRepository</text><rect fill="#E3E3E3" height="61.1094" rx="2.5" ry="2.5" style="stroke:#181818;stroke-width:0.5;" width="172" x="2451.5" y="26.4453"/><text fill="#000000" font-family="sans-serif" font-size="20" lengthAdjust="spacing" textLength="150" x="2462.5" y="52.7813">userCredentials</text><text fill="#000000" font-family="sans-serif" font-size="20" lengthAdjust="spacing" textLength="158" x="2458.5" y="76.3359">:UserCredentials</text><rect fill="#E3E3E3" height="61.1094" rx="2.5" ry="2.5" style="stroke:#181818;stroke-width:0.5;" width="172" x="2451.5" y="1156.0859"/><text fill="#000000" font-family="sans-serif" font-size="20" lengthAdjust="spacing" textLength="150" x="2462.5" y="1182.4219">userCredentials</text><text fill="#000000" font-family="sans-serif" font-size="20" lengthAdjust="spacing" textLength="158" x="2458.5" y="1205.9766">:UserCredentials</text><rect fill="#E3E3E3" height="61.1094" rx="2.5" ry="2.5" style="stroke:#181818;stroke-width:0.5;" width="207" x="2633.5" y="26.4453"/><text fill="#000000" font-family="sans-serif" font-size="20" lengthAdjust="spacing" textLength="193" x="2640.5" y="52.7813">userDataRepository:</text><text fill="#000000" font-family="sans-serif" font-size="20" lengthAdjust="spacing" textLength="189" x="2642.5" y="76.3359">UserDataRepository</text><rect fill="#E3E3E3" height="61.1094" rx="2.5" ry="2.5" style="stroke:#181818;stroke-width:0.5;" width="207" x="2633.5" y="1156.0859"/><text fill="#000000" font-family="sans-serif" font-size="20" lengthAdjust="spacing" textLength="193" x="2640.5" y="1182.4219">userDataRepository:</text><text fill="#000000" font-family="sans-serif" font-size="20" lengthAdjust="spacing" textLength="189" x="2642.5" y="1205.9766">UserDataRepository</text><rect fill="#E3E3E3" height="61.1094" rx="2.5" ry="2.5" style="stroke:#181818;stroke-width:0.5;" width="107" x="2850.5" y="26.4453"/><text fill="#000000" font-family="sans-serif" font-size="20" lengthAdjust="spacing" textLength="85" x="2861.5" y="52.7813">userData</text><text fill="#000000" font-family="sans-serif" font-size="20" lengthAdjust="spacing" textLength="93" x="2857.5" y="76.3359">:UserData</text><rect fill="#E3E3E3" height="61.1094" rx="2.5" ry="2.5" style="stroke:#181818;stroke-width:0.5;" width="107" x="2850.5" y="1156.0859"/><text fill="#000000" font-family="sans-serif" font-size="20" lengthAdjust="spacing" textLength="85" x="2861.5" y="1182.4219">userData</text><text fill="#000000" font-family="sans-serif" font-size="20" lengthAdjust="spacing" textLength="93" x="2857.5" y="1205.9766">:UserData</text><rect fill="#E3E3E3" height="37.5547" rx="2.5" ry="2.5" style="stroke:#181818;stroke-width:0.5;" width="105" x="2967.5" y="50"/><text fill="#000000" font-family="sans-serif" font-size="20" lengthAdjust="spacing" textLength="91" x="2974.5" y="76.3359">Company</text><rect fill="#E3E3E3" height="37.5547" rx="2.5" ry="2.5" style="stroke:#181818;stroke-width:0.5;" width="105" x="2967.5" y="1156.0859"/><text fill="#000000" font-family="sans-serif" font-size="20" lengthAdjust="spacing" textLength="91" x="2974.5" y="1182.4219">Company</text><rect fill="#E3E3E3" height="37.5547" rx="2.5" ry="2.5" style="stroke:#181818;stroke-width:0.5;" width="266" x="3082.5" y="50"/><text fill="#000000" font-family="sans-serif" font-size="20" lengthAdjust="spacing" textLength="252" x="3089.5" y="76.3359">userCredentialsRepository</text><rect fill="#E3E3E3" height="37.5547" rx="2.5" ry="2.5" style="stroke:#181818;stroke-width:0.5;" width="266" x="3082.5" y="1156.0859"/><text fill="#000000" font-family="sans-serif" font-size="20" lengthAdjust="spacing" textLength="252" x="3089.5" y="1182.4219">userCredentialsRepository</text><rect fill="#E3E3E3" height="37.5547" rx="2.5" ry="2.5" style="stroke:#181818;stroke-width:0.5;" width="201" x="3358.5" y="50"/><text fill="#000000" font-family="sans-serif" font-size="20" lengthAdjust="spacing" textLength="187" x="3365.5" y="76.3359">userDataRepository</text><rect fill="#E3E3E3" height="37.5547" rx="2.5" ry="2.5" style="stroke:#181818;stroke-width:0.5;" width="201" x="3358.5" y="1156.0859"/><text fill="#000000" font-family="sans-serif" font-size="20" lengthAdjust="spacing" textLength="187" x="3365.5" y="1182.4219">userDataRepository</text><rect fill="#FFFFFF" height="1040.5313" style="stroke:#181818;stroke-width:1.0;" width="10" x="89" y="98.5547"/><rect fill="#FFFFFF" height="1010.9766" style="stroke:#181818;stroke-width:1.0;" width="10" x="486" y="128.1094"/><rect fill="#FFFFFF" height="836.6484" style="stroke:#181818;stroke-width:1.0;" width="10" x="840" y="311.4375"/><rect fill="#FFFFFF" height="744.5391" style="stroke:#181818;stroke-width:1.0;" width="10" x="845" y="356.9922"/><rect fill="#FFFFFF" height="48.5547" style="stroke:#181818;stroke-width:1.0;" width="10" x="850" y="407.5469"/><rect fill="#FFFFFF" height="37.5547" style="stroke:#181818;stroke-width:1.0;" width="10" x="1936" y="650.875"/><rect fill="#FFFFFF" height="37.5547" style="stroke:#181818;stroke-width:1.0;" width="10" x="2085" y="725.9844"/><rect fill="#FFFFFF" height="37.5547" style="stroke:#181818;stroke-width:1.0;" width="10" x="2085" y="801.0938"/><rect fill="#FFFFFF" height="37.5547" style="stroke:#181818;stroke-width:1.0;" width="10" x="2532.5" y="500.6563"/><rect fill="#FFFFFF" height="37.5547" style="stroke:#181818;stroke-width:1.0;" width="10" x="2732" y="575.7656"/><rect fill="#FFFFFF" height="37.5547" style="stroke:#181818;stroke-width:1.0;" width="10" x="3015" y="1026.4219"/><rect fill="#FFFFFF" height="37.5547" style="stroke:#181818;stroke-width:1.0;" width="10" x="3210.5" y="876.2031"/><rect fill="#FFFFFF" height="37.5547" style="stroke:#181818;stroke-width:1.0;" width="10" x="3454" y="951.3125"/><polygon fill="#181818" points="474,124.1094,484,128.1094,474,132.1094,478,128.1094" style="stroke:#181818;stroke-width:1.0;"/><line style="stroke:#181818;stroke-width:1.0;" x1="99" x2="480" y1="128.1094" y2="128.1094"/><text fill="#000000" font-family="sans-serif" font-size="20" font-weight="bold" lengthAdjust="spacing" textLength="13" x="106" y="121.8906">1</text><text fill="#000000" font-family="sans-serif" font-size="20" lengthAdjust="spacing" textLength="186" x="123" y="121.8906">requests to register</text><polygon fill="#181818" points="110,185.2188,100,189.2188,110,193.2188,106,189.2188" style="stroke:#181818;stroke-width:1.0;"/><line style="stroke:#181818;stroke-width:1.0;stroke-dasharray:2.0,2.0;" x1="104" x2="485" y1="189.2188" y2="189.2188"/><text fill="#000000" font-family="sans-serif" font-size="20" font-weight="bold" lengthAdjust="spacing" textLength="13" x="116" y="171.2227">2</text><text fill="#000000" font-family="sans-serif" font-size="20" lengthAdjust="spacing" textLength="310" x="133" y="159.4453">asks for name, email, password,</text><text fill="#000000" font-family="sans-serif" font-size="20" lengthAdjust="spacing" textLength="346" x="133" y="183">select role and password preference</text><polygon fill="#181818" points="474,246.3281,484,250.3281,474,254.3281,478,250.3281" style="stroke:#181818;stroke-width:1.0;"/><line style="stroke:#181818;stroke-width:1.0;" x1="99" x2="480" y1="250.3281" y2="250.3281"/><text fill="#000000" font-family="sans-serif" font-size="20" font-weight="bold" lengthAdjust="spacing" textLength="13" x="106" y="232.332">3</text><text fill="#000000" font-family="sans-serif" font-size="20" lengthAdjust="spacing" textLength="317" x="123" y="220.5547">provides name, email, password,</text><text fill="#000000" font-family="sans-serif" font-size="20" lengthAdjust="spacing" textLength="346" x="123" y="244.1094">select role and password preference</text><polygon fill="#181818" points="828,307.4375,838,311.4375,828,315.4375,832,311.4375" style="stroke:#181818;stroke-width:1.0;"/><line style="stroke:#181818;stroke-width:1.0;" x1="496" x2="834" y1="311.4375" y2="311.4375"/><text fill="#000000" font-family="sans-serif" font-size="20" font-weight="bold" lengthAdjust="spacing" textLength="13" x="503" y="293.4414">4</text><text fill="#000000" font-family="sans-serif" font-size="20" lengthAdjust="spacing" textLength="308" x="520" y="281.6641">register(name, email, password,</text><text fill="#000000" font-family="sans-serif" font-size="20" lengthAdjust="spacing" textLength="248" x="520" y="305.2188">role, passwordPreference)</text><line style="stroke:#181818;stroke-width:1.0;" x1="850" x2="897" y1="343.9922" y2="343.9922"/><line style="stroke:#181818;stroke-width:1.0;" x1="897" x2="897" y1="343.9922" y2="356.9922"/><line style="stroke:#181818;stroke-width:1.0;" x1="856" x2="897" y1="356.9922" y2="356.9922"/><polygon fill="#181818" points="866,352.9922,856,356.9922,866,360.9922,862,356.9922" style="stroke:#181818;stroke-width:1.0;"/><text fill="#000000" font-family="sans-serif" font-size="20" font-weight="bold" lengthAdjust="spacing" textLength="13" x="862" y="337.7734">5</text><text fill="#000000" font-family="sans-serif" font-size="20" lengthAdjust="spacing" textLength="1055" x="879" y="337.7734">validateUserCredentials(name, email, citizen_card_number, tax_number, password, role, passwordPreference)</text><line style="stroke:#181818;stroke-width:1.0;" x1="855" x2="902" y1="394.5469" y2="394.5469"/><line style="stroke:#181818;stroke-width:1.0;" x1="902" x2="902" y1="394.5469" y2="407.5469"/><line style="stroke:#181818;stroke-width:1.0;" x1="861" x2="902" y1="407.5469" y2="407.5469"/><polygon fill="#181818" points="871,403.5469,861,407.5469,871,411.5469,867,407.5469" style="stroke:#181818;stroke-width:1.0;"/><text fill="#000000" font-family="sans-serif" font-size="20" font-weight="bold" lengthAdjust="spacing" textLength="13" x="867" y="388.3281">6</text><text fill="#000000" font-family="sans-serif" font-size="20" lengthAdjust="spacing" textLength="621" x="884" y="388.3281">generatePassword() if passwordPreference is "system-generated"</text><line style="stroke:#181818;stroke-width:1.0;stroke-dasharray:2.0,2.0;" x1="860" x2="902" y1="455.1016" y2="455.1016"/><line style="stroke:#181818;stroke-width:1.0;stroke-dasharray:2.0,2.0;" x1="902" x2="902" y1="455.1016" y2="468.1016"/><line style="stroke:#181818;stroke-width:1.0;stroke-dasharray:2.0,2.0;" x1="855" x2="902" y1="468.1016" y2="468.1016"/><polygon fill="#181818" points="865,464.1016,855,468.1016,865,472.1016,861,468.1016" style="stroke:#181818;stroke-width:1.0;"/><text fill="#000000" font-family="sans-serif" font-size="20" font-weight="bold" lengthAdjust="spacing" textLength="13" x="867" y="448.8828">7</text><text fill="#000000" font-family="sans-serif" font-size="20" lengthAdjust="spacing" textLength="92" x="884" y="448.8828">password</text><polygon fill="#181818" points="2520.5,496.6563,2530.5,500.6563,2520.5,504.6563,2524.5,500.6563" style="stroke:#181818;stroke-width:1.0;"/><line style="stroke:#181818;stroke-width:1.0;" x1="855" x2="2526.5" y1="500.6563" y2="500.6563"/><text fill="#000000" font-family="sans-serif" font-size="20" font-weight="bold" lengthAdjust="spacing" textLength="13" x="862" y="494.4375">8</text><text fill="#000000" font-family="sans-serif" font-size="20" lengthAdjust="spacing" textLength="430" x="879" y="494.4375">createUserCredentials(email, password, role)</text><polygon fill="#181818" points="866,534.2109,856,538.2109,866,542.2109,862,538.2109" style="stroke:#181818;stroke-width:1.0;"/><line style="stroke:#181818;stroke-width:1.0;stroke-dasharray:2.0,2.0;" x1="860" x2="2536.5" y1="538.2109" y2="538.2109"/><text fill="#000000" font-family="sans-serif" font-size="20" font-weight="bold" lengthAdjust="spacing" textLength="13" x="872" y="531.9922">9</text><text fill="#000000" font-family="sans-serif" font-size="20" lengthAdjust="spacing" textLength="150" x="889" y="531.9922">userCredentials</text><polygon fill="#181818" points="2720,571.7656,2730,575.7656,2720,579.7656,2724,575.7656" style="stroke:#181818;stroke-width:1.0;"/><line style="stroke:#181818;stroke-width:1.0;" x1="855" x2="2726" y1="575.7656" y2="575.7656"/><text fill="#000000" font-family="sans-serif" font-size="20" font-weight="bold" lengthAdjust="spacing" textLength="26" x="862" y="569.5469">10</text><text fill="#000000" font-family="sans-serif" font-size="20" lengthAdjust="spacing" textLength="665" x="892" y="569.5469">createUserData(email, name, role, citizen_card_number, tax_number)</text><polygon fill="#181818" points="866,609.3203,856,613.3203,866,617.3203,862,613.3203" style="stroke:#181818;stroke-width:1.0;"/><line style="stroke:#181818;stroke-width:1.0;stroke-dasharray:2.0,2.0;" x1="860" x2="2736" y1="613.3203" y2="613.3203"/><text fill="#000000" font-family="sans-serif" font-size="20" font-weight="bold" lengthAdjust="spacing" textLength="26" x="872" y="607.1016">11</text><text fill="#000000" font-family="sans-serif" font-size="20" lengthAdjust="spacing" textLength="85" x="902" y="607.1016">userData</text><polygon fill="#181818" points="1924,646.875,1934,650.875,1924,654.875,1928,650.875" style="stroke:#181818;stroke-width:1.0;"/><line style="stroke:#181818;stroke-width:1.0;" x1="855" x2="1930" y1="650.875" y2="650.875"/><text fill="#000000" font-family="sans-serif" font-size="20" font-weight="bold" lengthAdjust="spacing" textLength="26" x="862" y="644.6563">12</text><text fill="#000000" font-family="sans-serif" font-size="20" lengthAdjust="spacing" textLength="123" x="892" y="644.6563">getInstance()</text><polygon fill="#181818" points="866,684.4297,856,688.4297,866,692.4297,862,688.4297" style="stroke:#181818;stroke-width:1.0;"/><line style="stroke:#181818;stroke-width:1.0;stroke-dasharray:2.0,2.0;" x1="860" x2="1940" y1="688.4297" y2="688.4297"/><text fill="#000000" font-family="sans-serif" font-size="20" font-weight="bold" lengthAdjust="spacing" textLength="26" x="872" y="682.2109">13</text><text fill="#000000" font-family="sans-serif" font-size="20" lengthAdjust="spacing" textLength="114" x="902" y="682.2109">repositories</text><polygon fill="#181818" points="2073,721.9844,2083,725.9844,2073,729.9844,2077,725.9844" style="stroke:#181818;stroke-width:1.0;"/><line style="stroke:#181818;stroke-width:1.0;" x1="855" x2="2079" y1="725.9844" y2="725.9844"/><text fill="#000000" font-family="sans-serif" font-size="20" font-weight="bold" lengthAdjust="spacing" textLength="26" x="862" y="719.7656">14</text><text fill="#000000" font-family="sans-serif" font-size="20" lengthAdjust="spacing" textLength="298" x="892" y="719.7656">getUserCredentialsRepository()</text><polygon fill="#181818" points="866,759.5391,856,763.5391,866,767.5391,862,763.5391" style="stroke:#181818;stroke-width:1.0;"/><line style="stroke:#181818;stroke-width:1.0;stroke-dasharray:2.0,2.0;" x1="860" x2="2089" y1="763.5391" y2="763.5391"/><text fill="#000000" font-family="sans-serif" font-size="20" font-weight="bold" lengthAdjust="spacing" textLength="26" x="872" y="757.3203">15</text><text fill="#000000" font-family="sans-serif" font-size="20" lengthAdjust="spacing" textLength="252" x="902" y="757.3203">userCredentialsRepository</text><polygon fill="#181818" points="2073,797.0938,2083,801.0938,2073,805.0938,2077,801.0938" style="stroke:#181818;stroke-width:1.0;"/><line style="stroke:#181818;stroke-width:1.0;" x1="855" x2="2079" y1="801.0938" y2="801.0938"/><text fill="#000000" font-family="sans-serif" font-size="20" font-weight="bold" lengthAdjust="spacing" textLength="26" x="862" y="794.875">16</text><text fill="#000000" font-family="sans-serif" font-size="20" lengthAdjust="spacing" textLength="233" x="892" y="794.875">getUserDataRepository()</text><polygon fill="#181818" points="866,834.6484,856,838.6484,866,842.6484,862,838.6484" style="stroke:#181818;stroke-width:1.0;"/><line style="stroke:#181818;stroke-width:1.0;stroke-dasharray:2.0,2.0;" x1="860" x2="2089" y1="838.6484" y2="838.6484"/><text fill="#000000" font-family="sans-serif" font-size="20" font-weight="bold" lengthAdjust="spacing" textLength="26" x="872" y="832.4297">17</text><text fill="#000000" font-family="sans-serif" font-size="20" lengthAdjust="spacing" textLength="187" x="902" y="832.4297">userDataRepository</text><polygon fill="#181818" points="3198.5,872.2031,3208.5,876.2031,3198.5,880.2031,3202.5,876.2031" style="stroke:#181818;stroke-width:1.0;"/><line style="stroke:#181818;stroke-width:1.0;" x1="855" x2="3204.5" y1="876.2031" y2="876.2031"/><text fill="#000000" font-family="sans-serif" font-size="20" font-weight="bold" lengthAdjust="spacing" textLength="26" x="862" y="869.9844">18</text><text fill="#000000" font-family="sans-serif" font-size="20" lengthAdjust="spacing" textLength="353" x="892" y="869.9844">addUserCredentials(userCredentials)</text><polygon fill="#181818" points="866,909.7578,856,913.7578,866,917.7578,862,913.7578" style="stroke:#181818;stroke-width:1.0;"/><line style="stroke:#181818;stroke-width:1.0;stroke-dasharray:2.0,2.0;" x1="860" x2="3214.5" y1="913.7578" y2="913.7578"/><text fill="#000000" font-family="sans-serif" font-size="20" font-weight="bold" lengthAdjust="spacing" textLength="26" x="872" y="907.5391">19</text><text fill="#000000" font-family="sans-serif" font-size="20" lengthAdjust="spacing" textLength="150" x="902" y="907.5391">userCredentials</text><polygon fill="#181818" points="3442,947.3125,3452,951.3125,3442,955.3125,3446,951.3125" style="stroke:#181818;stroke-width:1.0;"/><line style="stroke:#181818;stroke-width:1.0;" x1="855" x2="3448" y1="951.3125" y2="951.3125"/><text fill="#000000" font-family="sans-serif" font-size="20" font-weight="bold" lengthAdjust="spacing" textLength="26" x="862" y="945.0938">20</text><text fill="#000000" font-family="sans-serif" font-size="20" lengthAdjust="spacing" textLength="223" x="892" y="945.0938">addUserData(userData)</text><polygon fill="#181818" points="866,984.8672,856,988.8672,866,992.8672,862,988.8672" style="stroke:#181818;stroke-width:1.0;"/><line style="stroke:#181818;stroke-width:1.0;stroke-dasharray:2.0,2.0;" x1="860" x2="3458" y1="988.8672" y2="988.8672"/><text fill="#000000" font-family="sans-serif" font-size="20" font-weight="bold" lengthAdjust="spacing" textLength="26" x="872" y="982.6484">21</text><text fill="#000000" font-family="sans-serif" font-size="20" lengthAdjust="spacing" textLength="85" x="902" y="982.6484">userData</text><polygon fill="#181818" points="3003,1022.4219,3013,1026.4219,3003,1030.4219,3007,1026.4219" style="stroke:#181818;stroke-width:1.0;"/><line style="stroke:#181818;stroke-width:1.0;" x1="855" x2="3009" y1="1026.4219" y2="1026.4219"/><text fill="#000000" font-family="sans-serif" font-size="20" font-weight="bold" lengthAdjust="spacing" textLength="26" x="862" y="1020.2031">22</text><text fill="#000000" font-family="sans-serif" font-size="20" lengthAdjust="spacing" textLength="302" x="892" y="1020.2031">addNewUser(email, name, role)</text><polygon fill="#181818" points="866,1059.9766,856,1063.9766,866,1067.9766,862,1063.9766" style="stroke:#181818;stroke-width:1.0;"/><line style="stroke:#181818;stroke-width:1.0;stroke-dasharray:2.0,2.0;" x1="860" x2="3019" y1="1063.9766" y2="1063.9766"/><text fill="#000000" font-family="sans-serif" font-size="20" font-weight="bold" lengthAdjust="spacing" textLength="26" x="872" y="1057.7578">23</text><text fill="#000000" font-family="sans-serif" font-size="20" lengthAdjust="spacing" textLength="6" x="902" y="1057.7578"> </text><polygon fill="#181818" points="507,1097.5313,497,1101.5313,507,1105.5313,503,1101.5313" style="stroke:#181818;stroke-width:1.0;"/><line style="stroke:#181818;stroke-width:1.0;stroke-dasharray:2.0,2.0;" x1="501" x2="839" y1="1101.5313" y2="1101.5313"/><text fill="#000000" font-family="sans-serif" font-size="20" font-weight="bold" lengthAdjust="spacing" textLength="26" x="513" y="1095.3125">24</text><text fill="#000000" font-family="sans-serif" font-size="20" lengthAdjust="spacing" textLength="73" x="543" y="1095.3125">success</text><polygon fill="#181818" points="105,1135.0859,95,1139.0859,105,1143.0859,101,1139.0859" style="stroke:#181818;stroke-width:1.0;"/><line style="stroke:#181818;stroke-width:1.0;stroke-dasharray:2.0,2.0;" x1="99" x2="490" y1="1139.0859" y2="1139.0859"/><text fill="#000000" font-family="sans-serif" font-size="20" font-weight="bold" lengthAdjust="spacing" textLength="26" x="111" y="1132.8672">25</text><text fill="#000000" font-family="sans-serif" font-size="20" lengthAdjust="spacing" textLength="228" x="141" y="1132.8672">shows success message</text><!--SRC=[hLTDQnin4BtlhnXyIi26qcCE1UEaO4XJOsSFXK1GjMD7U5To9MtSzDTtzalxAU-6n0SZIwCtxur6Cx8v2dbYcYMnuaUC8C8zIsFxNKcx4_yGldu9J6K2YPAAlsYL85YTOcFbnFYH7N1dts84ZTmoUOYR1kQ5HUeiv07sB3OO12orIgR9RzGqvbPfc8LIuq4OYvg8X0Rr39Y1C0m8mWekJanQcDriSoFDh50oN1SswmisAzAYLHoNUAl7xNtF-gIC80u2JMxZ9jvs8XD2LDjRT6F7a-m3REwNZ-qTAUbPaJ2KLb04QWytJpBqhHNYVAiN7H2hpiO2R7UtNMtlRljxRvbbFLRjIKUdFJsCLHB8XixpxV9nsRPUgOG61VBgvu_Dyk5NdW_YbLdCpZw0yXE6iFX69mqtb61_KZJMW5LGfKnjMEzUrvCvmXeM6KH84CmS3UmfwoHBS0wOC17FAOsDEIiTpP-amPZI62Xn49YCt1ASDEufGoN73dhDxwJLguZGV2BuEWFFKZUNNqY-yi5dkFN4nc5Ujp1TdF8RqLhAFhcpskahYqL4rfsaQdFWmbBHaC-SwUYvkDrpiEol6pkIC8tZ19u3N0yeaUu-RahqgsiG-m5V80pCp1l5CbbKUwBPe8S996eYDPFAv_2E2D-XhRgvXCer3fn4Dm_o45zVLkFAWLUHSzjGrIare-8kUt42UuMb9JLRgZGMILUaq4ZEZGMWNytyeUWJx0GbMnsFnaINLLm6cb6UutOj3VLPZbSZ6eUwcLVaaBT5i_RKdMvCw6I_bTAiQnRIl3rlJ6lUUBtYSWV-H6wSo8WqlvjXBUtp_dmHdNpwC7jlOBBM6KNTqjCn7v7dZxfNiv_F1yhIEtaqOzEhKsLGyY9L6Km8mzJIatvEwKdVMNhA5rcXxm7FcSH-3HxHwPvrtgPPUgaKZJVBIuYk1UTFCPDoZgPTgYwstUOZqRoeiwaW8A4l-eyJ39LqUcasVuR1Vm00]--></g></svg>