<?xml version="1.0" encoding="us-ascii" standalone="no"?><svg xmlns="http://www.w3.org/2000/svg" xmlns:xlink="http://www.w3.org/1999/xlink" contentStyleType="text/css" height="1539px" preserveAspectRatio="none" style="width:1549px;height:1539px;background:#FFFFFF;" version="1.1" viewBox="0 0 1549 1539" width="1549px" zoomAndPan="magnify"><defs/><g><!--class UU--><g id="elem_UU"><rect codeLine="11" fill="#F1F1F1" height="48" id="UU" rx="2.5" ry="2.5" style="stroke:#181818;stroke-width:0.5;" width="146" x="926.53" y="1484"/><ellipse cx="941.53" cy="1500" fill="#ADD1B2" rx="11" ry="11" style="stroke:#181818;stroke-width:1.0;"/><path d="M944.2956,1495.875 Q944.4519,1495.6563 944.6394,1495.5469 Q944.8269,1495.4375 945.0456,1495.4375 Q945.4206,1495.4375 945.655,1495.7031 Q945.8894,1495.9531 945.8894,1496.5625 L945.8894,1498.0156 Q945.8894,1498.625 945.655,1498.8906 Q945.4206,1499.1563 945.0456,1499.1563 Q944.7019,1499.1563 944.4988,1498.9531 Q944.2956,1498.7656 944.1863,1498.25 Q944.1394,1497.8906 943.9519,1497.7031 Q943.6238,1497.3281 943.0144,1497.1094 Q942.405,1496.8906 941.78,1496.8906 Q941.0144,1496.8906 940.3738,1497.2188 Q939.7488,1497.5469 939.2488,1498.2969 Q938.7644,1499.0469 938.7644,1500.0781 L938.7644,1501.1719 Q938.7644,1502.4063 939.655,1503.2344 Q940.5456,1504.0469 942.1394,1504.0469 Q943.0769,1504.0469 943.7331,1503.7969 Q944.1238,1503.6406 944.5456,1503.2031 Q944.8113,1502.9375 944.9519,1502.8594 Q945.1081,1502.7813 945.3113,1502.7813 Q945.6394,1502.7813 945.8894,1503.0469 Q946.155,1503.2969 946.155,1503.6406 Q946.155,1503.9844 945.8113,1504.3906 Q945.3113,1504.9688 944.5144,1505.2969 Q943.4363,1505.75 942.1394,1505.75 Q940.6238,1505.75 939.4206,1505.125 Q938.4363,1504.625 937.7488,1503.5625 Q937.0613,1502.4844 937.0613,1501.2031 L937.0613,1500.0469 Q937.0613,1498.7188 937.6706,1497.5781 Q938.2956,1496.4219 939.3894,1495.8125 Q940.4831,1495.1875 941.7175,1495.1875 Q942.4519,1495.1875 943.0925,1495.3594 Q943.7488,1495.5156 944.2956,1495.875 Z " fill="#000000"/><text fill="#000000" font-family="sans-serif" font-size="14" lengthAdjust="spacing" textLength="114" x="955.53" y="1505.7969">Unregistered User</text><line style="stroke:#181818;stroke-width:0.5;" x1="927.53" x2="1071.53" y1="1516" y2="1516"/><line style="stroke:#181818;stroke-width:0.5;" x1="927.53" x2="1071.53" y1="1524" y2="1524"/></g><!--class UI--><g id="elem_UI"><rect codeLine="13" fill="#F1F1F1" height="66.6211" id="UI" rx="2.5" ry="2.5" style="stroke:#181818;stroke-width:0.5;" width="651" x="674.03" y="1339.5"/><ellipse cx="949.28" cy="1355.5" fill="#ADD1B2" rx="11" ry="11" style="stroke:#181818;stroke-width:1.0;"/><path d="M952.0456,1351.375 Q952.2019,1351.1563 952.3894,1351.0469 Q952.5769,1350.9375 952.7956,1350.9375 Q953.1706,1350.9375 953.405,1351.2031 Q953.6394,1351.4531 953.6394,1352.0625 L953.6394,1353.5156 Q953.6394,1354.125 953.405,1354.3906 Q953.1706,1354.6563 952.7956,1354.6563 Q952.4519,1354.6563 952.2488,1354.4531 Q952.0456,1354.2656 951.9363,1353.75 Q951.8894,1353.3906 951.7019,1353.2031 Q951.3738,1352.8281 950.7644,1352.6094 Q950.155,1352.3906 949.53,1352.3906 Q948.7644,1352.3906 948.1238,1352.7188 Q947.4988,1353.0469 946.9988,1353.7969 Q946.5144,1354.5469 946.5144,1355.5781 L946.5144,1356.6719 Q946.5144,1357.9063 947.405,1358.7344 Q948.2956,1359.5469 949.8894,1359.5469 Q950.8269,1359.5469 951.4831,1359.2969 Q951.8738,1359.1406 952.2956,1358.7031 Q952.5613,1358.4375 952.7019,1358.3594 Q952.8581,1358.2813 953.0613,1358.2813 Q953.3894,1358.2813 953.6394,1358.5469 Q953.905,1358.7969 953.905,1359.1406 Q953.905,1359.4844 953.5613,1359.8906 Q953.0613,1360.4688 952.2644,1360.7969 Q951.1863,1361.25 949.8894,1361.25 Q948.3738,1361.25 947.1706,1360.625 Q946.1863,1360.125 945.4988,1359.0625 Q944.8113,1357.9844 944.8113,1356.7031 L944.8113,1355.5469 Q944.8113,1354.2188 945.4206,1353.0781 Q946.0456,1351.9219 947.1394,1351.3125 Q948.2331,1350.6875 949.4675,1350.6875 Q950.2019,1350.6875 950.8425,1350.8594 Q951.4988,1351.0156 952.0456,1351.375 Z " fill="#000000"/><text fill="#000000" font-family="sans-serif" font-size="14" lengthAdjust="spacing" textLength="92" x="969.78" y="1361.2969">:RegistrationUI</text><line style="stroke:#181818;stroke-width:0.5;" x1="675.03" x2="1324.03" y1="1371.5" y2="1371.5"/><line style="stroke:#181818;stroke-width:0.5;" x1="675.03" x2="1324.03" y1="1379.5" y2="1379.5"/><text fill="#000000" font-family="sans-serif" font-size="14" lengthAdjust="spacing" textLength="639" x="680.03" y="1398.6074">+register(name: String, email: String, password: String, role: String, passwordPreference: String): void</text></g><!--class CTRL--><g id="elem_CTRL"><rect codeLine="17" fill="#F1F1F1" height="103.8633" id="CTRL" rx="2.5" ry="2.5" style="stroke:#181818;stroke-width:0.5;" width="1086" x="456.53" y="349"/><ellipse cx="924.28" cy="365" fill="#ADD1B2" rx="11" ry="11" style="stroke:#181818;stroke-width:1.0;"/><path d="M927.0456,360.875 Q927.2019,360.6563 927.3894,360.5469 Q927.5769,360.4375 927.7956,360.4375 Q928.1706,360.4375 928.405,360.7031 Q928.6394,360.9531 928.6394,361.5625 L928.6394,363.0156 Q928.6394,363.625 928.405,363.8906 Q928.1706,364.1563 927.7956,364.1563 Q927.4519,364.1563 927.2488,363.9531 Q927.0456,363.7656 926.9363,363.25 Q926.8894,362.8906 926.7019,362.7031 Q926.3738,362.3281 925.7644,362.1094 Q925.155,361.8906 924.53,361.8906 Q923.7644,361.8906 923.1238,362.2188 Q922.4988,362.5469 921.9988,363.2969 Q921.5144,364.0469 921.5144,365.0781 L921.5144,366.1719 Q921.5144,367.4063 922.405,368.2344 Q923.2956,369.0469 924.8894,369.0469 Q925.8269,369.0469 926.4831,368.7969 Q926.8738,368.6406 927.2956,368.2031 Q927.5613,367.9375 927.7019,367.8594 Q927.8581,367.7813 928.0613,367.7813 Q928.3894,367.7813 928.6394,368.0469 Q928.905,368.2969 928.905,368.6406 Q928.905,368.9844 928.5613,369.3906 Q928.0613,369.9688 927.2644,370.2969 Q926.1863,370.75 924.8894,370.75 Q923.3738,370.75 922.1706,370.125 Q921.1863,369.625 920.4988,368.5625 Q919.8113,367.4844 919.8113,366.2031 L919.8113,365.0469 Q919.8113,363.7188 920.4206,362.5781 Q921.0456,361.4219 922.1394,360.8125 Q923.2331,360.1875 924.4675,360.1875 Q925.2019,360.1875 925.8425,360.3594 Q926.4988,360.5156 927.0456,360.875 Z " fill="#000000"/><text fill="#000000" font-family="sans-serif" font-size="14" lengthAdjust="spacing" textLength="142" x="944.78" y="370.7969">:RegistrationController</text><line style="stroke:#181818;stroke-width:0.5;" x1="457.53" x2="1541.53" y1="381" y2="381"/><line style="stroke:#181818;stroke-width:0.5;" x1="457.53" x2="1541.53" y1="389" y2="389"/><text fill="#000000" font-family="sans-serif" font-size="14" lengthAdjust="spacing" textLength="178" x="462.53" y="408.1074">-generatePassword(): String</text><text fill="#000000" font-family="sans-serif" font-size="14" lengthAdjust="spacing" textLength="1074" x="462.53" y="426.7285">-validateUserCredentials(name: String, email: String, citizen_card_number: String, tax_number: String, password: String, role: String, passwordPreference: String): boolean</text><text fill="#000000" font-family="sans-serif" font-size="14" lengthAdjust="spacing" textLength="639" x="462.53" y="445.3496">+register(name: String, email: String, password: String, role: String, passwordPreference: String): void</text></g><!--class RepositorySingleton--><g id="elem_RepositorySingleton"><rect codeLine="23" fill="#F1F1F1" height="103.8633" id="RepositorySingleton" rx="2.5" ry="2.5" style="stroke:#181818;stroke-width:0.5;" width="396" x="801.53" y="945"/><ellipse cx="953.78" cy="961" fill="#ADD1B2" rx="11" ry="11" style="stroke:#181818;stroke-width:1.0;"/><path d="M956.5456,956.875 Q956.7019,956.6563 956.8894,956.5469 Q957.0769,956.4375 957.2956,956.4375 Q957.6706,956.4375 957.905,956.7031 Q958.1394,956.9531 958.1394,957.5625 L958.1394,959.0156 Q958.1394,959.625 957.905,959.8906 Q957.6706,960.1563 957.2956,960.1563 Q956.9519,960.1563 956.7488,959.9531 Q956.5456,959.7656 956.4363,959.25 Q956.3894,958.8906 956.2019,958.7031 Q955.8738,958.3281 955.2644,958.1094 Q954.655,957.8906 954.03,957.8906 Q953.2644,957.8906 952.6238,958.2188 Q951.9988,958.5469 951.4988,959.2969 Q951.0144,960.0469 951.0144,961.0781 L951.0144,962.1719 Q951.0144,963.4063 951.905,964.2344 Q952.7956,965.0469 954.3894,965.0469 Q955.3269,965.0469 955.9831,964.7969 Q956.3738,964.6406 956.7956,964.2031 Q957.0613,963.9375 957.2019,963.8594 Q957.3581,963.7813 957.5613,963.7813 Q957.8894,963.7813 958.1394,964.0469 Q958.405,964.2969 958.405,964.6406 Q958.405,964.9844 958.0613,965.3906 Q957.5613,965.9688 956.7644,966.2969 Q955.6863,966.75 954.3894,966.75 Q952.8738,966.75 951.6706,966.125 Q950.6863,965.625 949.9988,964.5625 Q949.3113,963.4844 949.3113,962.2031 L949.3113,961.0469 Q949.3113,959.7188 949.9206,958.5781 Q950.5456,957.4219 951.6394,956.8125 Q952.7331,956.1875 953.9675,956.1875 Q954.7019,956.1875 955.3425,956.3594 Q955.9988,956.5156 956.5456,956.875 Z " fill="#000000"/><text fill="#000000" font-family="sans-serif" font-size="14" lengthAdjust="spacing" textLength="83" x="974.28" y="966.7969">:Repositories</text><line style="stroke:#181818;stroke-width:0.5;" x1="802.53" x2="1196.53" y1="977" y2="977"/><line style="stroke:#181818;stroke-width:0.5;" x1="802.53" x2="1196.53" y1="985" y2="985"/><text fill="#000000" font-family="sans-serif" font-size="14" lengthAdjust="spacing" textLength="178" x="807.53" y="1004.1074">+getInstance(): Repositories</text><text fill="#000000" font-family="sans-serif" font-size="14" lengthAdjust="spacing" textLength="384" x="807.53" y="1022.7285">+getUserCredentialsRepository(): UserCredentialsRepository</text><text fill="#000000" font-family="sans-serif" font-size="14" lengthAdjust="spacing" textLength="300" x="807.53" y="1041.3496">+getUserDataRepository(): UserDataRepository</text></g><!--class PLAT--><g id="elem_PLAT"><rect codeLine="29" fill="#F1F1F1" height="100.4844" id="PLAT" rx="2.5" ry="2.5" style="stroke:#181818;stroke-width:0.5;" width="398" x="800.53" y="803"/><ellipse cx="953.78" cy="826.6211" fill="#ADD1B2" rx="11" ry="11" style="stroke:#181818;stroke-width:1.0;"/><path d="M956.5456,822.4961 Q956.7019,822.2773 956.8894,822.168 Q957.0769,822.0586 957.2956,822.0586 Q957.6706,822.0586 957.905,822.3242 Q958.1394,822.5742 958.1394,823.1836 L958.1394,824.6367 Q958.1394,825.2461 957.905,825.5117 Q957.6706,825.7773 957.2956,825.7773 Q956.9519,825.7773 956.7488,825.5742 Q956.5456,825.3867 956.4363,824.8711 Q956.3894,824.5117 956.2019,824.3242 Q955.8738,823.9492 955.2644,823.7305 Q954.655,823.5117 954.03,823.5117 Q953.2644,823.5117 952.6238,823.8398 Q951.9988,824.168 951.4988,824.918 Q951.0144,825.668 951.0144,826.6992 L951.0144,827.793 Q951.0144,829.0273 951.905,829.8555 Q952.7956,830.668 954.3894,830.668 Q955.3269,830.668 955.9831,830.418 Q956.3738,830.2617 956.7956,829.8242 Q957.0613,829.5586 957.2019,829.4805 Q957.3581,829.4023 957.5613,829.4023 Q957.8894,829.4023 958.1394,829.668 Q958.405,829.918 958.405,830.2617 Q958.405,830.6055 958.0613,831.0117 Q957.5613,831.5898 956.7644,831.918 Q955.6863,832.3711 954.3894,832.3711 Q952.8738,832.3711 951.6706,831.7461 Q950.6863,831.2461 949.9988,830.1836 Q949.3113,829.1055 949.3113,827.8242 L949.3113,826.668 Q949.3113,825.3398 949.9206,824.1992 Q950.5456,823.043 951.6394,822.4336 Q952.7331,821.8086 953.9675,821.8086 Q954.7019,821.8086 955.3425,821.9805 Q955.9988,822.1367 956.5456,822.4961 Z " fill="#000000"/><text fill="#000000" font-family="sans-serif" font-size="14" lengthAdjust="spacing" textLength="74" x="978.78" y="823.1074">repositories</text><text fill="#000000" font-family="sans-serif" font-size="14" lengthAdjust="spacing" textLength="83" x="974.28" y="841.7285">:Repositories</text><line style="stroke:#181818;stroke-width:0.5;" x1="801.53" x2="1197.53" y1="850.2422" y2="850.2422"/><line style="stroke:#181818;stroke-width:0.5;" x1="801.53" x2="1197.53" y1="858.2422" y2="858.2422"/><text fill="#000000" font-family="sans-serif" font-size="14" lengthAdjust="spacing" textLength="386" x="806.53" y="877.3496">+addUserCredentials(userCredentials: UserCredentials): void</text><text fill="#000000" font-family="sans-serif" font-size="14" lengthAdjust="spacing" textLength="260" x="806.53" y="895.9707">+addUserData(userData: UserData): void</text></g><!--class USERCRED--><g id="elem_USERCRED"><rect codeLine="34" fill="#F1F1F1" height="81.8633" id="USERCRED" rx="2.5" ry="2.5" style="stroke:#181818;stroke-width:0.5;" width="548" x="725.53" y="1215"/><ellipse cx="942.78" cy="1238.6211" fill="#ADD1B2" rx="11" ry="11" style="stroke:#181818;stroke-width:1.0;"/><path d="M945.5456,1234.4961 Q945.7019,1234.2773 945.8894,1234.168 Q946.0769,1234.0586 946.2956,1234.0586 Q946.6706,1234.0586 946.905,1234.3242 Q947.1394,1234.5742 947.1394,1235.1836 L947.1394,1236.6367 Q947.1394,1237.2461 946.905,1237.5117 Q946.6706,1237.7773 946.2956,1237.7773 Q945.9519,1237.7773 945.7488,1237.5742 Q945.5456,1237.3867 945.4363,1236.8711 Q945.3894,1236.5117 945.2019,1236.3242 Q944.8738,1235.9492 944.2644,1235.7305 Q943.655,1235.5117 943.03,1235.5117 Q942.2644,1235.5117 941.6238,1235.8398 Q940.9988,1236.168 940.4988,1236.918 Q940.0144,1237.668 940.0144,1238.6992 L940.0144,1239.793 Q940.0144,1241.0273 940.905,1241.8555 Q941.7956,1242.668 943.3894,1242.668 Q944.3269,1242.668 944.9831,1242.418 Q945.3738,1242.2617 945.7956,1241.8242 Q946.0613,1241.5586 946.2019,1241.4805 Q946.3581,1241.4023 946.5613,1241.4023 Q946.8894,1241.4023 947.1394,1241.668 Q947.405,1241.918 947.405,1242.2617 Q947.405,1242.6055 947.0613,1243.0117 Q946.5613,1243.5898 945.7644,1243.918 Q944.6863,1244.3711 943.3894,1244.3711 Q941.8738,1244.3711 940.6706,1243.7461 Q939.6863,1243.2461 938.9988,1242.1836 Q938.3113,1241.1055 938.3113,1239.8242 L938.3113,1238.668 Q938.3113,1237.3398 938.9206,1236.1992 Q939.5456,1235.043 940.6394,1234.4336 Q941.7331,1233.8086 942.9675,1233.8086 Q943.7019,1233.8086 944.3425,1233.9805 Q944.9988,1234.1367 945.5456,1234.4961 Z " fill="#000000"/><text fill="#000000" font-family="sans-serif" font-size="14" lengthAdjust="spacing" textLength="100" x="965.78" y="1235.1074">userCredentials</text><text fill="#000000" font-family="sans-serif" font-size="14" lengthAdjust="spacing" textLength="105" x="963.28" y="1253.7285">:UserCredentials</text><line style="stroke:#181818;stroke-width:0.5;" x1="726.53" x2="1272.53" y1="1262.2422" y2="1262.2422"/><line style="stroke:#181818;stroke-width:0.5;" x1="726.53" x2="1272.53" y1="1270.2422" y2="1270.2422"/><text fill="#000000" font-family="sans-serif" font-size="14" lengthAdjust="spacing" textLength="536" x="731.53" y="1289.3496">+createUserCredentials(email: String, password: String, role: String): UserCredentials</text></g><!--class USERDATA--><g id="elem_USERDATA"><rect codeLine="38" fill="#F1F1F1" height="81.8633" id="USERDATA" rx="2.5" ry="2.5" style="stroke:#181818;stroke-width:0.5;" width="750" x="624.53" y="131"/><ellipse cx="963.78" cy="154.6211" fill="#ADD1B2" rx="11" ry="11" style="stroke:#181818;stroke-width:1.0;"/><path d="M966.5456,150.4961 Q966.7019,150.2773 966.8894,150.168 Q967.0769,150.0586 967.2956,150.0586 Q967.6706,150.0586 967.905,150.3242 Q968.1394,150.5742 968.1394,151.1836 L968.1394,152.6367 Q968.1394,153.2461 967.905,153.5117 Q967.6706,153.7773 967.2956,153.7773 Q966.9519,153.7773 966.7488,153.5742 Q966.5456,153.3867 966.4363,152.8711 Q966.3894,152.5117 966.2019,152.3242 Q965.8738,151.9492 965.2644,151.7305 Q964.655,151.5117 964.03,151.5117 Q963.2644,151.5117 962.6238,151.8398 Q961.9988,152.168 961.4988,152.918 Q961.0144,153.668 961.0144,154.6992 L961.0144,155.793 Q961.0144,157.0273 961.905,157.8555 Q962.7956,158.668 964.3894,158.668 Q965.3269,158.668 965.9831,158.418 Q966.3738,158.2617 966.7956,157.8242 Q967.0613,157.5586 967.2019,157.4805 Q967.3581,157.4023 967.5613,157.4023 Q967.8894,157.4023 968.1394,157.668 Q968.405,157.918 968.405,158.2617 Q968.405,158.6055 968.0613,159.0117 Q967.5613,159.5898 966.7644,159.918 Q965.6863,160.3711 964.3894,160.3711 Q962.8738,160.3711 961.6706,159.7461 Q960.6863,159.2461 959.9988,158.1836 Q959.3113,157.1055 959.3113,155.8242 L959.3113,154.668 Q959.3113,153.3398 959.9206,152.1992 Q960.5456,151.043 961.6394,150.4336 Q962.7331,149.8086 963.9675,149.8086 Q964.7019,149.8086 965.3425,149.9805 Q965.9988,150.1367 966.5456,150.4961 Z " fill="#000000"/><text fill="#000000" font-family="sans-serif" font-size="14" lengthAdjust="spacing" textLength="58" x="986.78" y="151.1074">userData</text><text fill="#000000" font-family="sans-serif" font-size="14" lengthAdjust="spacing" textLength="63" x="984.28" y="169.7285">:UserData</text><line style="stroke:#181818;stroke-width:0.5;" x1="625.53" x2="1373.53" y1="178.2422" y2="178.2422"/><line style="stroke:#181818;stroke-width:0.5;" x1="625.53" x2="1373.53" y1="186.2422" y2="186.2422"/><text fill="#000000" font-family="sans-serif" font-size="14" lengthAdjust="spacing" textLength="738" x="630.53" y="205.3496">+createUserData(email: String, name: String, role: String, citizen_card_number: String, tax_number: String): UserData</text></g><!--class UserCredentialsRepository--><g id="elem_UserCredentialsRepository"><rect codeLine="42" fill="#F1F1F1" height="81.8633" id="UserCredentialsRepository" rx="2.5" ry="2.5" style="stroke:#181818;stroke-width:0.5;" width="398" x="800.53" y="7"/><ellipse cx="909.28" cy="30.6211" fill="#ADD1B2" rx="11" ry="11" style="stroke:#181818;stroke-width:1.0;"/><path d="M912.0456,26.4961 Q912.2019,26.2773 912.3894,26.168 Q912.5769,26.0586 912.7956,26.0586 Q913.1706,26.0586 913.405,26.3242 Q913.6394,26.5742 913.6394,27.1836 L913.6394,28.6367 Q913.6394,29.2461 913.405,29.5117 Q913.1706,29.7773 912.7956,29.7773 Q912.4519,29.7773 912.2488,29.5742 Q912.0456,29.3867 911.9363,28.8711 Q911.8894,28.5117 911.7019,28.3242 Q911.3738,27.9492 910.7644,27.7305 Q910.155,27.5117 909.53,27.5117 Q908.7644,27.5117 908.1238,27.8398 Q907.4988,28.168 906.9988,28.918 Q906.5144,29.668 906.5144,30.6992 L906.5144,31.793 Q906.5144,33.0273 907.405,33.8555 Q908.2956,34.668 909.8894,34.668 Q910.8269,34.668 911.4831,34.418 Q911.8738,34.2617 912.2956,33.8242 Q912.5613,33.5586 912.7019,33.4805 Q912.8581,33.4023 913.0613,33.4023 Q913.3894,33.4023 913.6394,33.668 Q913.905,33.918 913.905,34.2617 Q913.905,34.6055 913.5613,35.0117 Q913.0613,35.5898 912.2644,35.918 Q911.1863,36.3711 909.8894,36.3711 Q908.3738,36.3711 907.1706,35.7461 Q906.1863,35.2461 905.4988,34.1836 Q904.8113,33.1055 904.8113,31.8242 L904.8113,30.668 Q904.8113,29.3398 905.4206,28.1992 Q906.0456,27.043 907.1394,26.4336 Q908.2331,25.8086 909.4675,25.8086 Q910.2019,25.8086 910.8425,25.9805 Q911.4988,26.1367 912.0456,26.4961 Z " fill="#000000"/><text fill="#000000" font-family="sans-serif" font-size="14" lengthAdjust="spacing" textLength="172" x="929.78" y="27.1074">userCredentialsRepository:</text><text fill="#000000" font-family="sans-serif" font-size="14" lengthAdjust="spacing" textLength="169" x="931.28" y="45.7285">UserCredentialsRepository</text><line style="stroke:#181818;stroke-width:0.5;" x1="801.53" x2="1197.53" y1="54.2422" y2="54.2422"/><line style="stroke:#181818;stroke-width:0.5;" x1="801.53" x2="1197.53" y1="62.2422" y2="62.2422"/><text fill="#000000" font-family="sans-serif" font-size="14" lengthAdjust="spacing" textLength="386" x="806.53" y="81.3496">+addUserCredentials(userCredentials: UserCredentials): void</text></g><!--class UserDataRepository--><g id="elem_UserDataRepository"><rect codeLine="46" fill="#F1F1F1" height="81.8633" id="UserDataRepository" rx="2.5" ry="2.5" style="stroke:#181818;stroke-width:0.5;" width="272" x="863.53" y="1091"/><ellipse cx="930.28" cy="1114.6211" fill="#ADD1B2" rx="11" ry="11" style="stroke:#181818;stroke-width:1.0;"/><path d="M933.0456,1110.4961 Q933.2019,1110.2773 933.3894,1110.168 Q933.5769,1110.0586 933.7956,1110.0586 Q934.1706,1110.0586 934.405,1110.3242 Q934.6394,1110.5742 934.6394,1111.1836 L934.6394,1112.6367 Q934.6394,1113.2461 934.405,1113.5117 Q934.1706,1113.7773 933.7956,1113.7773 Q933.4519,1113.7773 933.2488,1113.5742 Q933.0456,1113.3867 932.9363,1112.8711 Q932.8894,1112.5117 932.7019,1112.3242 Q932.3738,1111.9492 931.7644,1111.7305 Q931.155,1111.5117 930.53,1111.5117 Q929.7644,1111.5117 929.1238,1111.8398 Q928.4988,1112.168 927.9988,1112.918 Q927.5144,1113.668 927.5144,1114.6992 L927.5144,1115.793 Q927.5144,1117.0273 928.405,1117.8555 Q929.2956,1118.668 930.8894,1118.668 Q931.8269,1118.668 932.4831,1118.418 Q932.8738,1118.2617 933.2956,1117.8242 Q933.5613,1117.5586 933.7019,1117.4805 Q933.8581,1117.4023 934.0613,1117.4023 Q934.3894,1117.4023 934.6394,1117.668 Q934.905,1117.918 934.905,1118.2617 Q934.905,1118.6055 934.5613,1119.0117 Q934.0613,1119.5898 933.2644,1119.918 Q932.1863,1120.3711 930.8894,1120.3711 Q929.3738,1120.3711 928.1706,1119.7461 Q927.1863,1119.2461 926.4988,1118.1836 Q925.8113,1117.1055 925.8113,1115.8242 L925.8113,1114.668 Q925.8113,1113.3398 926.4206,1112.1992 Q927.0456,1111.043 928.1394,1110.4336 Q929.2331,1109.8086 930.4675,1109.8086 Q931.2019,1109.8086 931.8425,1109.9805 Q932.4988,1110.1367 933.0456,1110.4961 Z " fill="#000000"/><text fill="#000000" font-family="sans-serif" font-size="14" lengthAdjust="spacing" textLength="130" x="950.78" y="1111.1074">userDataRepository:</text><text fill="#000000" font-family="sans-serif" font-size="14" lengthAdjust="spacing" textLength="127" x="952.28" y="1129.7285">UserDataRepository</text><line style="stroke:#181818;stroke-width:0.5;" x1="864.53" x2="1134.53" y1="1138.2422" y2="1138.2422"/><line style="stroke:#181818;stroke-width:0.5;" x1="864.53" x2="1134.53" y1="1146.2422" y2="1146.2422"/><text fill="#000000" font-family="sans-serif" font-size="14" lengthAdjust="spacing" textLength="260" x="869.53" y="1165.3496">+addUserData(userData: UserData): void</text></g><!--class COMPANY--><g id="elem_COMPANY"><rect codeLine="50" fill="#F1F1F1" height="66.6211" id="COMPANY" rx="2.5" ry="2.5" style="stroke:#181818;stroke-width:0.5;" width="386" x="806.53" y="513.5"/><ellipse cx="965.28" cy="529.5" fill="#ADD1B2" rx="11" ry="11" style="stroke:#181818;stroke-width:1.0;"/><path d="M968.0456,525.375 Q968.2019,525.1563 968.3894,525.0469 Q968.5769,524.9375 968.7956,524.9375 Q969.1706,524.9375 969.405,525.2031 Q969.6394,525.4531 969.6394,526.0625 L969.6394,527.5156 Q969.6394,528.125 969.405,528.3906 Q969.1706,528.6563 968.7956,528.6563 Q968.4519,528.6563 968.2488,528.4531 Q968.0456,528.2656 967.9363,527.75 Q967.8894,527.3906 967.7019,527.2031 Q967.3738,526.8281 966.7644,526.6094 Q966.155,526.3906 965.53,526.3906 Q964.7644,526.3906 964.1238,526.7188 Q963.4988,527.0469 962.9988,527.7969 Q962.5144,528.5469 962.5144,529.5781 L962.5144,530.6719 Q962.5144,531.9063 963.405,532.7344 Q964.2956,533.5469 965.8894,533.5469 Q966.8269,533.5469 967.4831,533.2969 Q967.8738,533.1406 968.2956,532.7031 Q968.5613,532.4375 968.7019,532.3594 Q968.8581,532.2813 969.0613,532.2813 Q969.3894,532.2813 969.6394,532.5469 Q969.905,532.7969 969.905,533.1406 Q969.905,533.4844 969.5613,533.8906 Q969.0613,534.4688 968.2644,534.7969 Q967.1863,535.25 965.8894,535.25 Q964.3738,535.25 963.1706,534.625 Q962.1863,534.125 961.4988,533.0625 Q960.8113,531.9844 960.8113,530.7031 L960.8113,529.5469 Q960.8113,528.2188 961.4206,527.0781 Q962.0456,525.9219 963.1394,525.3125 Q964.2331,524.6875 965.4675,524.6875 Q966.2019,524.6875 966.8425,524.8594 Q967.4988,525.0156 968.0456,525.375 Z " fill="#000000"/><text fill="#000000" font-family="sans-serif" font-size="14" lengthAdjust="spacing" textLength="60" x="985.78" y="535.2969">Company</text><line style="stroke:#181818;stroke-width:0.5;" x1="807.53" x2="1191.53" y1="545.5" y2="545.5"/><line style="stroke:#181818;stroke-width:0.5;" x1="807.53" x2="1191.53" y1="553.5" y2="553.5"/><text fill="#000000" font-family="sans-serif" font-size="14" lengthAdjust="spacing" textLength="374" x="812.53" y="572.6074">+addNewUser(email: String, name: String, role: String): void</text></g><!--class userCredentialsRepository--><g id="elem_userCredentialsRepository"><rect fill="#F1F1F1" height="48" id="userCredentialsRepository" rx="2.5" ry="2.5" style="stroke:#181818;stroke-width:0.5;" width="200" x="899.53" y="713"/><ellipse cx="914.53" cy="729" fill="#ADD1B2" rx="11" ry="11" style="stroke:#181818;stroke-width:1.0;"/><path d="M917.2956,724.875 Q917.4519,724.6563 917.6394,724.5469 Q917.8269,724.4375 918.0456,724.4375 Q918.4206,724.4375 918.655,724.7031 Q918.8894,724.9531 918.8894,725.5625 L918.8894,727.0156 Q918.8894,727.625 918.655,727.8906 Q918.4206,728.1563 918.0456,728.1563 Q917.7019,728.1563 917.4988,727.9531 Q917.2956,727.7656 917.1863,727.25 Q917.1394,726.8906 916.9519,726.7031 Q916.6238,726.3281 916.0144,726.1094 Q915.405,725.8906 914.78,725.8906 Q914.0144,725.8906 913.3738,726.2188 Q912.7488,726.5469 912.2488,727.2969 Q911.7644,728.0469 911.7644,729.0781 L911.7644,730.1719 Q911.7644,731.4063 912.655,732.2344 Q913.5456,733.0469 915.1394,733.0469 Q916.0769,733.0469 916.7331,732.7969 Q917.1238,732.6406 917.5456,732.2031 Q917.8113,731.9375 917.9519,731.8594 Q918.1081,731.7813 918.3113,731.7813 Q918.6394,731.7813 918.8894,732.0469 Q919.155,732.2969 919.155,732.6406 Q919.155,732.9844 918.8113,733.3906 Q918.3113,733.9688 917.5144,734.2969 Q916.4363,734.75 915.1394,734.75 Q913.6238,734.75 912.4206,734.125 Q911.4363,733.625 910.7488,732.5625 Q910.0613,731.4844 910.0613,730.2031 L910.0613,729.0469 Q910.0613,727.7188 910.6706,726.5781 Q911.2956,725.4219 912.3894,724.8125 Q913.4831,724.1875 914.7175,724.1875 Q915.4519,724.1875 916.0925,724.3594 Q916.7488,724.5156 917.2956,724.875 Z " fill="#000000"/><text fill="#000000" font-family="sans-serif" font-size="14" lengthAdjust="spacing" textLength="168" x="928.53" y="734.7969">userCredentialsRepository</text><line style="stroke:#181818;stroke-width:0.5;" x1="900.53" x2="1098.53" y1="745" y2="745"/><line style="stroke:#181818;stroke-width:0.5;" x1="900.53" x2="1098.53" y1="753" y2="753"/></g><!--class userDataRepository--><g id="elem_userDataRepository"><rect fill="#F1F1F1" height="48" id="userDataRepository" rx="2.5" ry="2.5" style="stroke:#181818;stroke-width:0.5;" width="158" x="920.53" y="623"/><ellipse cx="935.53" cy="639" fill="#ADD1B2" rx="11" ry="11" style="stroke:#181818;stroke-width:1.0;"/><path d="M938.2956,634.875 Q938.4519,634.6563 938.6394,634.5469 Q938.8269,634.4375 939.0456,634.4375 Q939.4206,634.4375 939.655,634.7031 Q939.8894,634.9531 939.8894,635.5625 L939.8894,637.0156 Q939.8894,637.625 939.655,637.8906 Q939.4206,638.1563 939.0456,638.1563 Q938.7019,638.1563 938.4988,637.9531 Q938.2956,637.7656 938.1863,637.25 Q938.1394,636.8906 937.9519,636.7031 Q937.6238,636.3281 937.0144,636.1094 Q936.405,635.8906 935.78,635.8906 Q935.0144,635.8906 934.3738,636.2188 Q933.7488,636.5469 933.2488,637.2969 Q932.7644,638.0469 932.7644,639.0781 L932.7644,640.1719 Q932.7644,641.4063 933.655,642.2344 Q934.5456,643.0469 936.1394,643.0469 Q937.0769,643.0469 937.7331,642.7969 Q938.1238,642.6406 938.5456,642.2031 Q938.8113,641.9375 938.9519,641.8594 Q939.1081,641.7813 939.3113,641.7813 Q939.6394,641.7813 939.8894,642.0469 Q940.155,642.2969 940.155,642.6406 Q940.155,642.9844 939.8113,643.3906 Q939.3113,643.9688 938.5144,644.2969 Q937.4363,644.75 936.1394,644.75 Q934.6238,644.75 933.4206,644.125 Q932.4363,643.625 931.7488,642.5625 Q931.0613,641.4844 931.0613,640.2031 L931.0613,639.0469 Q931.0613,637.7188 931.6706,636.5781 Q932.2956,635.4219 933.3894,634.8125 Q934.4831,634.1875 935.7175,634.1875 Q936.4519,634.1875 937.0925,634.3594 Q937.7488,634.5156 938.2956,634.875 Z " fill="#000000"/><text fill="#000000" font-family="sans-serif" font-size="14" lengthAdjust="spacing" textLength="126" x="949.53" y="644.7969">userDataRepository</text><line style="stroke:#181818;stroke-width:0.5;" x1="921.53" x2="1077.53" y1="655" y2="655"/><line style="stroke:#181818;stroke-width:0.5;" x1="921.53" x2="1077.53" y1="663" y2="663"/></g><!--link UU to UI--><g id="link_UU_UI"><path codeLine="54" d="M999.53,1483.86 C999.53,1463.84 999.53,1434.99 999.53,1411.73 " fill="none" id="UU-to-UI" style="stroke:#181818;stroke-width:1.0;"/><polygon fill="#181818" points="999.53,1406.56,995.53,1415.56,999.53,1411.56,1003.53,1415.56,999.53,1406.56" style="stroke:#181818;stroke-width:1.0;"/><text fill="#000000" font-family="sans-serif" font-size="13" lengthAdjust="spacing" textLength="112" x="998.03" y="1450.7783">requests to register</text></g><!--link UI to UU--><g id="link_UI_UU"><path codeLine="55" d="M999.53,1406.56 C999.53,1428.7 999.53,1457.41 999.53,1478.64 " fill="none" id="UI-to-UU" style="stroke:#181818;stroke-width:1.0;"/><polygon fill="#181818" points="999.53,1483.86,1003.53,1474.86,999.53,1478.86,995.53,1474.86,999.53,1483.86" style="stroke:#181818;stroke-width:1.0;"/><text fill="#000000" font-family="sans-serif" font-size="13" lengthAdjust="spacing" textLength="188" x="884.53" y="1442.2783">asks for name, email, password,</text><text fill="#000000" font-family="sans-serif" font-size="13" lengthAdjust="spacing" textLength="208" x="874.53" y="1459.5693">select role and password preference</text></g><!--link UU to UI--><g id="link_UU_UI"><path codeLine="56" d="M999.53,1483.86 C999.53,1463.84 999.53,1434.99 999.53,1411.73 " fill="none" id="UU-to-UI-1" style="stroke:#181818;stroke-width:1.0;"/><polygon fill="#181818" points="999.53,1406.56,995.53,1415.56,999.53,1411.56,1003.53,1415.56,999.53,1406.56" style="stroke:#181818;stroke-width:1.0;"/><text fill="#000000" font-family="sans-serif" font-size="13" lengthAdjust="spacing" textLength="189" x="926.03" y="1442.2783">provides name, email, password,</text><text fill="#000000" font-family="sans-serif" font-size="13" lengthAdjust="spacing" textLength="208" x="916.53" y="1459.5693">select role and password preference</text></g><!--link UI to UU--><g id="link_UI_UU"><path codeLine="69" d="M999.53,1406.56 C999.53,1428.7 999.53,1457.41 999.53,1478.64 " fill="none" id="UI-to-UU-1" style="stroke:#181818;stroke-width:1.0;"/><polygon fill="#181818" points="999.53,1483.86,1003.53,1474.86,999.53,1478.86,995.53,1474.86,999.53,1483.86" style="stroke:#181818;stroke-width:1.0;"/><text fill="#000000" font-family="sans-serif" font-size="13" lengthAdjust="spacing" textLength="147" x="871.53" y="1450.7783">shows success message</text></g><!--link UI to CTRL--><g id="link_UI_CTRL"><path codeLine="57" d="M673.88,1400.25 C535.6,1391.71 391.76,1350.32 328.03,1227.5 C175.2,932.95 220.55,725.3 456.53,492 C470.2,478.49 485.07,466.53 500.87,455.98 " fill="none" id="UI-to-CTRL" style="stroke:#181818;stroke-width:1.0;"/><polygon fill="#181818" points="505.35,453.04,495.6299,454.6272,501.1679,455.7805,500.0146,461.3185,505.35,453.04" style="stroke:#181818;stroke-width:1.0;"/><text fill="#000000" font-family="sans-serif" font-size="13" lengthAdjust="spacing" textLength="185" x="132.03" y="1215.0283">register(name, email, password,</text><text fill="#000000" font-family="sans-serif" font-size="13" lengthAdjust="spacing" textLength="150" x="149.53" y="1232.3193">role, passwordPreference)</text></g><!--link CTRL to UI--><g id="link_CTRL_UI"><path codeLine="68" d="M505.35,453.04 C487.88,464.3 471.48,477.22 456.53,492 C220.55,725.3 175.2,932.95 328.03,1227.5 C390.95,1348.76 531.96,1390.65 668.61,1399.91 " fill="none" id="CTRL-to-UI" style="stroke:#181818;stroke-width:1.0;"/><polygon fill="#181818" points="673.88,1400.25,665.1495,1395.6917,668.8899,1399.9354,664.6462,1403.6759,673.88,1400.25" style="stroke:#181818;stroke-width:1.0;"/><text fill="#000000" font-family="sans-serif" font-size="13" lengthAdjust="spacing" textLength="49" x="200.03" y="1223.5283">success</text></g><!--link CTRL to CTRL--><g id="link_CTRL_CTRL"><path codeLine="58" d="M898.94,348.8 C890.7,326.28 924.23,307 999.53,307 C1069.24,307 1103.15,323.53 1101.27,343.85 " fill="none" id="CTRL-to-CTRL" style="stroke:#181818;stroke-width:1.0;"/><polygon fill="#181818" points="1100.12,348.8,1106.0261,340.9185,1101.2349,343.9259,1098.2275,339.1347,1100.12,348.8" style="stroke:#181818;stroke-width:1.0;"/><text fill="#000000" font-family="sans-serif" font-size="13" lengthAdjust="spacing" textLength="635" x="682.03" y="298.0283">validateUserCredentials(name, email, citizen_card_number, tax_number, password, role, passwordPreference)</text></g><!--link CTRL to CTRL--><g id="link_CTRL_CTRL"><path codeLine="59" d="M823.65,348.84 C755.04,307.49 813.67,265 999.53,265 C1181.4,265 1241.44,305.68 1179.65,346.17 " fill="none" id="CTRL-to-CTRL-1" style="stroke:#181818;stroke-width:1.0;"/><polygon fill="#181818" points="1175.41,348.84,1185.1586,347.4384,1179.6436,346.1797,1180.9022,340.6647,1175.41,348.84" style="stroke:#181818;stroke-width:1.0;"/><text fill="#000000" font-family="sans-serif" font-size="13" lengthAdjust="spacing" textLength="260" x="869.53" y="256.0283">generatePassword() if passwordPreference is</text><text fill="#000000" font-family="sans-serif" font-size="13" lengthAdjust="spacing" textLength="104" x="1088.0564" y="337.7459">system-generated</text></g><!--link CTRL to USERCRED--><g id="link_CTRL_USERCRED"><path codeLine="60" d="M456.36,367.41 C367.13,387.58 284.03,426.62 223.03,495.5 C6,740.54 201.34,989.01 456.53,1194 C529.77,1252.83 627.57,1275.43 719.98,1281.02 " fill="none" id="CTRL-to-USERCRED" style="stroke:#181818;stroke-width:1.0;"/><polygon fill="#181818" points="725.22,1281.32,716.4636,1276.8116,720.2282,1281.0339,716.0059,1284.7985,725.22,1281.32" style="stroke:#181818;stroke-width:1.0;"/><text fill="#000000" font-family="sans-serif" font-size="13" lengthAdjust="spacing" textLength="259" x="95.03" y="510.5283">createUserCredentials(email, password, role)</text></g><!--link CTRL to UserDataRepository--><g id="link_CTRL_UserDataRepository"><path codeLine="61" d="M531.92,453.07 C505.54,463.98 480.17,476.85 456.53,492 C247.64,625.84 9.08,756.38 151.53,959.5 C306.08,1179.87 659.65,1176.28 857.97,1154.27 " fill="none" id="CTRL-to-UserDataRepository" style="stroke:#181818;stroke-width:1.0;"/><polygon fill="#181818" points="863.21,1153.68,853.8205,1150.7072,858.2411,1154.2369,854.7115,1158.6575,863.21,1153.68" style="stroke:#181818;stroke-width:1.0;"/><text fill="#000000" font-family="sans-serif" font-size="13" lengthAdjust="spacing" textLength="402" x="23.53" y="955.5283">createUserData(email, name, role, citizen_card_number, tax_number)</text></g><!--link CTRL to RepositorySingleton--><g id="link_CTRL_RepositorySingleton"><path codeLine="62" d="M456.45,417.83 C402.13,440.59 353.1,473.32 315.03,519.5 C193.88,666.46 307.99,804.79 456.53,924 C550.55,999.46 684.56,1018.09 795.92,1017.67 " fill="none" id="CTRL-to-RepositorySingleton" style="stroke:#181818;stroke-width:1.0;"/><polygon fill="#181818" points="801.21,1017.64,792.1873,1013.6915,796.2101,1017.6686,792.233,1021.6914,801.21,1017.64" style="stroke:#181818;stroke-width:1.0;"/><text fill="#000000" font-family="sans-serif" font-size="13" lengthAdjust="spacing" textLength="75" x="187.03" y="534.5283">getInstance()</text></g><!--link CTRL to PLAT--><g id="link_CTRL_PLAT"><path codeLine="63" d="M561.31,453.04 C345.97,497.64 153.75,578.8 262.53,724.5 C381.41,883.72 621.42,898.53 795.32,884.67 " fill="none" id="CTRL-to-PLAT" style="stroke:#181818;stroke-width:1.0;"/><polygon fill="#181818" points="800.45,884.25,791.1497,881.009,795.4672,884.664,791.8121,888.9815,800.45,884.25" style="stroke:#181818;stroke-width:1.0;"/><text fill="#000000" font-family="sans-serif" font-size="13" lengthAdjust="spacing" textLength="180" x="134.53" y="720.5283">getUserCredentialsRepository()</text></g><!--link CTRL to PLAT--><g id="link_CTRL_PLAT"><path codeLine="64" d="M561.31,453.04 C345.97,497.64 153.75,578.8 262.53,724.5 C381.41,883.72 621.42,898.53 795.32,884.67 " fill="none" id="CTRL-to-PLAT-1" style="stroke:#181818;stroke-width:1.0;"/><polygon fill="#181818" points="800.45,884.25,791.1497,881.009,795.4672,884.664,791.8121,888.9815,800.45,884.25" style="stroke:#181818;stroke-width:1.0;"/><text fill="#000000" font-family="sans-serif" font-size="13" lengthAdjust="spacing" textLength="142" x="153.53" y="720.5283">getUserDataRepository()</text></g><!--link CTRL to userCredentialsRepository--><g id="link_CTRL_userCredentialsRepository"><path codeLine="65" d="M456.27,407.78 C374.61,433.72 300.11,476.48 247.03,544.5 C78.73,760.18 649.78,754.91 894.03,743.43 " fill="none" id="CTRL-to-userCredentialsRepository" style="stroke:#181818;stroke-width:1.0;"/><polygon fill="#181818" points="899.38,743.18,890.1965,739.6213,894.3859,743.4226,890.5847,747.6119,899.38,743.18" style="stroke:#181818;stroke-width:1.0;"/><text fill="#000000" font-family="sans-serif" font-size="13" lengthAdjust="spacing" textLength="211" x="119.03" y="559.5283">addUserCredentials(userCredentials)</text></g><!--link CTRL to userDataRepository--><g id="link_CTRL_userDataRepository"><path codeLine="66" d="M456.4,436.06 C297.32,465.96 188.85,520.69 285.03,620.5 C369.68,708.35 745.57,676.92 915.55,657.58 " fill="none" id="CTRL-to-userDataRepository" style="stroke:#181818;stroke-width:1.0;"/><polygon fill="#181818" points="920.52,657.02,911.1296,654.0502,915.5513,657.5784,912.0231,662.0002,920.52,657.02" style="stroke:#181818;stroke-width:1.0;"/><text fill="#000000" font-family="sans-serif" font-size="13" lengthAdjust="spacing" textLength="135" x="157.03" y="616.5283">addUserData(userData)</text></g><!--link CTRL to COMPANY--><g id="link_CTRL_COMPANY"><path codeLine="67" d="M999.53,453.27 C999.53,471.33 999.53,491.23 999.53,508.03 " fill="none" id="CTRL-to-COMPANY" style="stroke:#181818;stroke-width:1.0;"/><polygon fill="#181818" points="999.53,513.14,1003.53,504.14,999.53,508.14,995.53,504.14,999.53,513.14" style="stroke:#181818;stroke-width:1.0;"/><text fill="#000000" font-family="sans-serif" font-size="13" lengthAdjust="spacing" textLength="181" x="896.53" y="488.7783">addNewUser(email, name, role)</text></g><!--SRC=[nLPDZzem4BtdLuouT551wZc7IWZsWBJT8Y27IaWhamp18h5Jsq1frVzUEn-Eym7BQbSg1vJupJo_6OzdyaaUACk882cadF5mBtYAeCGHlHh9I7WWCQxK9K4G62h2uiGra7iIyJDbCUn88bqaeGpL9KF8U78nBtqO5ufx3X0cHCg9Ke9kZmhd8MSh-XlXY-Sbk5EWE0WQxnL4r8YXd7bUxWA3W0cCgLGeC890eXW0aH04ri1VvhWWnYsO5_0S_dYWVvyhvmT6KlHXfHMmU0IO4fhKhvbcEdCHrIk29zZ55m9tMWWBBJRquSHfvFtjrpFbJ6cgf9GzNI-VIcNZ61bg8roKt0_3YhF0JoIXaSPDp5CTF395zL7S3YIaIkULlOH4H2_ic6vHrA0YlpfhxufyoxKjOVynqncNL751KURvjGkN5JK5hJYh2Y56DMTIrtc89jEkgpLefRfcCnvNmORxZ2ZIzMkkEY48HyQ6TGDQF4tMLGGaYjgrS6o-TqHMENFzZPRSqJpKyhhfRP5hUItsuggj7fVJvUEiKXaAx2dQDrL1DzajLKPlASSyMXspoNhIrP47t1BGhD5c2Rxn3Zb7V3rvzU7x6tQraef0hg4VK0VTD7Q4DHUjekPoIyhT9JNbQKPOmJhz_cqnUVxXK3tZsRZUVrRE1a40uw-wx_jwclqyebGo7ofbJ_BqG1WRFF3rrWS9Eovoth8_rHKvsZ29YPv1-KP0M6GXo6nFShRB13_H2ENxwEQ6pam77nfzj8_GCFKrog6NZnTBT6k0MDwUOdUBtDaOxjstEzY0xdhyWEgAa1STQsg7OJImP5LZyU56IsdhgxLqYzObgdl2g3ou8hfNqb7JzqmQ4xapOwofwU4vTcEyz1ktXucrkjvTuFNkqAHfvwZlIZidN5pQtAnnNTqqLkRb3P77C4GftJiez_miAm1I_QS_Hly1]--></g></svg>