<?xml version="1.0" encoding="us-ascii" standalone="no"?><svg xmlns="http://www.w3.org/2000/svg" xmlns:xlink="http://www.w3.org/1999/xlink" contentStyleType="text/css" height="1059px" preserveAspectRatio="none" style="width:2366px;height:1059px;background:#FFFFFF;" version="1.1" viewBox="0 0 2366 1059" width="2366px" zoomAndPan="magnify"><defs/><g><rect fill="#FFFFFF" height="865.1484" style="stroke:#181818;stroke-width:1.0;" width="10" x="60" y="93.6211"/><rect fill="#FFFFFF" height="841.8574" style="stroke:#181818;stroke-width:1.0;" width="10" x="313" y="116.9121"/><rect fill="#FFFFFF" height="705.1113" style="stroke:#181818;stroke-width:1.0;" width="10" x="538" y="262.6582"/><rect fill="#FFFFFF" height="625.5293" style="stroke:#181818;stroke-width:1.0;" width="10" x="543" y="301.9492"/><rect fill="#FFFFFF" height="42.291" style="stroke:#181818;stroke-width:1.0;" width="10" x="548" y="346.2402"/><rect fill="#FFFFFF" height="31.291" style="stroke:#181818;stroke-width:1.0;" width="10" x="1208" y="551.9863"/><rect fill="#FFFFFF" height="31.291" style="stroke:#181818;stroke-width:1.0;" width="10" x="1315" y="614.5684"/><rect fill="#FFFFFF" height="31.291" style="stroke:#181818;stroke-width:1.0;" width="10" x="1315" y="677.1504"/><rect fill="#FFFFFF" height="31.291" style="stroke:#181818;stroke-width:1.0;" width="10" x="1629" y="426.8223"/><rect fill="#FFFFFF" height="31.291" style="stroke:#181818;stroke-width:1.0;" width="10" x="1770.5" y="489.4043"/><rect fill="#FFFFFF" height="31.291" style="stroke:#181818;stroke-width:1.0;" width="10" x="1976.5" y="864.8965"/><rect fill="#FFFFFF" height="31.291" style="stroke:#181818;stroke-width:1.0;" width="10" x="2114.5" y="739.7324"/><rect fill="#FFFFFF" height="31.291" style="stroke:#181818;stroke-width:1.0;" width="10" x="2285.5" y="802.3145"/><line style="stroke:#181818;stroke-width:0.5;stroke-dasharray:5.0,5.0;" x1="65" x2="65" y1="83.6211" y2="976.7695"/><line style="stroke:#181818;stroke-width:0.5;stroke-dasharray:5.0,5.0;" x1="318" x2="318" y1="83.6211" y2="976.7695"/><line style="stroke:#181818;stroke-width:0.5;stroke-dasharray:5.0,5.0;" x1="543" x2="543" y1="83.6211" y2="976.7695"/><line style="stroke:#181818;stroke-width:0.5;stroke-dasharray:5.0,5.0;" x1="1212.5" x2="1212.5" y1="83.6211" y2="976.7695"/><line style="stroke:#181818;stroke-width:0.5;stroke-dasharray:5.0,5.0;" x1="1319.5" x2="1319.5" y1="83.6211" y2="976.7695"/><line style="stroke:#181818;stroke-width:0.5;stroke-dasharray:5.0,5.0;" x1="1471.5" x2="1471.5" y1="83.6211" y2="976.7695"/><line style="stroke:#181818;stroke-width:0.5;stroke-dasharray:5.0,5.0;" x1="1633.5" x2="1633.5" y1="83.6211" y2="976.7695"/><line style="stroke:#181818;stroke-width:0.5;stroke-dasharray:5.0,5.0;" x1="1775.5" x2="1775.5" y1="83.6211" y2="976.7695"/><line style="stroke:#181818;stroke-width:0.5;stroke-dasharray:5.0,5.0;" x1="1895.5" x2="1895.5" y1="83.6211" y2="976.7695"/><line style="stroke:#181818;stroke-width:0.5;stroke-dasharray:5.0,5.0;" x1="1981.5" x2="1981.5" y1="83.6211" y2="976.7695"/><line style="stroke:#181818;stroke-width:0.5;stroke-dasharray:5.0,5.0;" x1="2119.5" x2="2119.5" y1="83.6211" y2="976.7695"/><line style="stroke:#181818;stroke-width:0.5;stroke-dasharray:5.0,5.0;" x1="2290.5" x2="2290.5" y1="83.6211" y2="976.7695"/><text fill="#000000" font-family="sans-serif" font-size="14" lengthAdjust="spacing" textLength="114" x="5" y="80.1074">Unregistered User</text><ellipse cx="65" cy="13.5" fill="#E3E3E3" rx="8" ry="8" style="stroke:#181818;stroke-width:0.5;"/><path d="M65,21.5 L65,48.5 M52,29.5 L78,29.5 M65,48.5 L52,63.5 M65,48.5 L78,63.5 " fill="none" style="stroke:#181818;stroke-width:0.5;"/><text fill="#000000" font-family="sans-serif" font-size="14" lengthAdjust="spacing" textLength="114" x="5" y="990.877">Unregistered User</text><ellipse cx="65" cy="1002.8906" fill="#E3E3E3" rx="8" ry="8" style="stroke:#181818;stroke-width:0.5;"/><path d="M65,1010.8906 L65,1037.8906 M52,1018.8906 L78,1018.8906 M65,1037.8906 L52,1052.8906 M65,1037.8906 L78,1052.8906 " fill="none" style="stroke:#181818;stroke-width:0.5;"/><rect fill="#E3E3E3" height="32.6211" rx="2.5" ry="2.5" style="stroke:#181818;stroke-width:0.5;" width="106" x="265" y="50"/><text fill="#000000" font-family="sans-serif" font-size="14" lengthAdjust="spacing" textLength="92" x="272" y="72.1074">:RegistrationUI</text><rect fill="#E3E3E3" height="32.6211" rx="2.5" ry="2.5" style="stroke:#181818;stroke-width:0.5;" width="106" x="265" y="975.7695"/><text fill="#000000" font-family="sans-serif" font-size="14" lengthAdjust="spacing" textLength="92" x="272" y="997.877">:RegistrationUI</text><rect fill="#E3E3E3" height="32.6211" rx="2.5" ry="2.5" style="stroke:#181818;stroke-width:0.5;" width="156" x="465" y="50"/><text fill="#000000" font-family="sans-serif" font-size="14" lengthAdjust="spacing" textLength="142" x="472" y="72.1074">:RegistrationController</text><rect fill="#E3E3E3" height="32.6211" rx="2.5" ry="2.5" style="stroke:#181818;stroke-width:0.5;" width="156" x="465" y="975.7695"/><text fill="#000000" font-family="sans-serif" font-size="14" lengthAdjust="spacing" textLength="142" x="472" y="997.877">:RegistrationController</text><rect fill="#E3E3E3" height="32.6211" rx="2.5" ry="2.5" style="stroke:#181818;stroke-width:0.5;" width="97" x="1164.5" y="50"/><text fill="#000000" font-family="sans-serif" font-size="14" lengthAdjust="spacing" textLength="83" x="1171.5" y="72.1074">:Repositories</text><rect fill="#E3E3E3" height="32.6211" rx="2.5" ry="2.5" style="stroke:#181818;stroke-width:0.5;" width="97" x="1164.5" y="975.7695"/><text fill="#000000" font-family="sans-serif" font-size="14" lengthAdjust="spacing" textLength="83" x="1171.5" y="997.877">:Repositories</text><rect fill="#E3E3E3" height="51.2422" rx="2.5" ry="2.5" style="stroke:#181818;stroke-width:0.5;" width="97" x="1271.5" y="31.3789"/><text fill="#000000" font-family="sans-serif" font-size="14" lengthAdjust="spacing" textLength="74" x="1283" y="53.4863">repositories</text><text fill="#000000" font-family="sans-serif" font-size="14" lengthAdjust="spacing" textLength="83" x="1278.5" y="72.1074">:Repositories</text><rect fill="#E3E3E3" height="51.2422" rx="2.5" ry="2.5" style="stroke:#181818;stroke-width:0.5;" width="97" x="1271.5" y="975.7695"/><text fill="#000000" font-family="sans-serif" font-size="14" lengthAdjust="spacing" textLength="74" x="1283" y="997.877">repositories</text><text fill="#000000" font-family="sans-serif" font-size="14" lengthAdjust="spacing" textLength="83" x="1278.5" y="1016.498">:Repositories</text><rect fill="#E3E3E3" height="51.2422" rx="2.5" ry="2.5" style="stroke:#181818;stroke-width:0.5;" width="186" x="1378.5" y="31.3789"/><text fill="#000000" font-family="sans-serif" font-size="14" lengthAdjust="spacing" textLength="172" x="1385.5" y="53.4863">userCredentialsRepository:</text><text fill="#000000" font-family="sans-serif" font-size="14" lengthAdjust="spacing" textLength="169" x="1387" y="72.1074">UserCredentialsRepository</text><rect fill="#E3E3E3" height="51.2422" rx="2.5" ry="2.5" style="stroke:#181818;stroke-width:0.5;" width="186" x="1378.5" y="975.7695"/><text fill="#000000" font-family="sans-serif" font-size="14" lengthAdjust="spacing" textLength="172" x="1385.5" y="997.877">userCredentialsRepository:</text><text fill="#000000" font-family="sans-serif" font-size="14" lengthAdjust="spacing" textLength="169" x="1387" y="1016.498">UserCredentialsRepository</text><rect fill="#E3E3E3" height="51.2422" rx="2.5" ry="2.5" style="stroke:#181818;stroke-width:0.5;" width="119" x="1574.5" y="31.3789"/><text fill="#000000" font-family="sans-serif" font-size="14" lengthAdjust="spacing" textLength="100" x="1584" y="53.4863">userCredentials</text><text fill="#000000" font-family="sans-serif" font-size="14" lengthAdjust="spacing" textLength="105" x="1581.5" y="72.1074">:UserCredentials</text><rect fill="#E3E3E3" height="51.2422" rx="2.5" ry="2.5" style="stroke:#181818;stroke-width:0.5;" width="119" x="1574.5" y="975.7695"/><text fill="#000000" font-family="sans-serif" font-size="14" lengthAdjust="spacing" textLength="100" x="1584" y="997.877">userCredentials</text><text fill="#000000" font-family="sans-serif" font-size="14" lengthAdjust="spacing" textLength="105" x="1581.5" y="1016.498">:UserCredentials</text><rect fill="#E3E3E3" height="51.2422" rx="2.5" ry="2.5" style="stroke:#181818;stroke-width:0.5;" width="144" x="1703.5" y="31.3789"/><text fill="#000000" font-family="sans-serif" font-size="14" lengthAdjust="spacing" textLength="130" x="1710.5" y="53.4863">userDataRepository:</text><text fill="#000000" font-family="sans-serif" font-size="14" lengthAdjust="spacing" textLength="127" x="1712" y="72.1074">UserDataRepository</text><rect fill="#E3E3E3" height="51.2422" rx="2.5" ry="2.5" style="stroke:#181818;stroke-width:0.5;" width="144" x="1703.5" y="975.7695"/><text fill="#000000" font-family="sans-serif" font-size="14" lengthAdjust="spacing" textLength="130" x="1710.5" y="997.877">userDataRepository:</text><text fill="#000000" font-family="sans-serif" font-size="14" lengthAdjust="spacing" textLength="127" x="1712" y="1016.498">UserDataRepository</text><rect fill="#E3E3E3" height="51.2422" rx="2.5" ry="2.5" style="stroke:#181818;stroke-width:0.5;" width="77" x="1857.5" y="31.3789"/><text fill="#000000" font-family="sans-serif" font-size="14" lengthAdjust="spacing" textLength="58" x="1867" y="53.4863">userData</text><text fill="#000000" font-family="sans-serif" font-size="14" lengthAdjust="spacing" textLength="63" x="1864.5" y="72.1074">:UserData</text><rect fill="#E3E3E3" height="51.2422" rx="2.5" ry="2.5" style="stroke:#181818;stroke-width:0.5;" width="77" x="1857.5" y="975.7695"/><text fill="#000000" font-family="sans-serif" font-size="14" lengthAdjust="spacing" textLength="58" x="1867" y="997.877">userData</text><text fill="#000000" font-family="sans-serif" font-size="14" lengthAdjust="spacing" textLength="63" x="1864.5" y="1016.498">:UserData</text><rect fill="#E3E3E3" height="32.6211" rx="2.5" ry="2.5" style="stroke:#181818;stroke-width:0.5;" width="74" x="1944.5" y="50"/><text fill="#000000" font-family="sans-serif" font-size="14" lengthAdjust="spacing" textLength="60" x="1951.5" y="72.1074">Company</text><rect fill="#E3E3E3" height="32.6211" rx="2.5" ry="2.5" style="stroke:#181818;stroke-width:0.5;" width="74" x="1944.5" y="975.7695"/><text fill="#000000" font-family="sans-serif" font-size="14" lengthAdjust="spacing" textLength="60" x="1951.5" y="997.877">Company</text><rect fill="#E3E3E3" height="32.6211" rx="2.5" ry="2.5" style="stroke:#181818;stroke-width:0.5;" width="182" x="2028.5" y="50"/><text fill="#000000" font-family="sans-serif" font-size="14" lengthAdjust="spacing" textLength="168" x="2035.5" y="72.1074">userCredentialsRepository</text><rect fill="#E3E3E3" height="32.6211" rx="2.5" ry="2.5" style="stroke:#181818;stroke-width:0.5;" width="182" x="2028.5" y="975.7695"/><text fill="#000000" font-family="sans-serif" font-size="14" lengthAdjust="spacing" textLength="168" x="2035.5" y="997.877">userCredentialsRepository</text><rect fill="#E3E3E3" height="32.6211" rx="2.5" ry="2.5" style="stroke:#181818;stroke-width:0.5;" width="140" x="2220.5" y="50"/><text fill="#000000" font-family="sans-serif" font-size="14" lengthAdjust="spacing" textLength="126" x="2227.5" y="72.1074">userDataRepository</text><rect fill="#E3E3E3" height="32.6211" rx="2.5" ry="2.5" style="stroke:#181818;stroke-width:0.5;" width="140" x="2220.5" y="975.7695"/><text fill="#000000" font-family="sans-serif" font-size="14" lengthAdjust="spacing" textLength="126" x="2227.5" y="997.877">userDataRepository</text><rect fill="#FFFFFF" height="865.1484" style="stroke:#181818;stroke-width:1.0;" width="10" x="60" y="93.6211"/><rect fill="#FFFFFF" height="841.8574" style="stroke:#181818;stroke-width:1.0;" width="10" x="313" y="116.9121"/><rect fill="#FFFFFF" height="705.1113" style="stroke:#181818;stroke-width:1.0;" width="10" x="538" y="262.6582"/><rect fill="#FFFFFF" height="625.5293" style="stroke:#181818;stroke-width:1.0;" width="10" x="543" y="301.9492"/><rect fill="#FFFFFF" height="42.291" style="stroke:#181818;stroke-width:1.0;" width="10" x="548" y="346.2402"/><rect fill="#FFFFFF" height="31.291" style="stroke:#181818;stroke-width:1.0;" width="10" x="1208" y="551.9863"/><rect fill="#FFFFFF" height="31.291" style="stroke:#181818;stroke-width:1.0;" width="10" x="1315" y="614.5684"/><rect fill="#FFFFFF" height="31.291" style="stroke:#181818;stroke-width:1.0;" width="10" x="1315" y="677.1504"/><rect fill="#FFFFFF" height="31.291" style="stroke:#181818;stroke-width:1.0;" width="10" x="1629" y="426.8223"/><rect fill="#FFFFFF" height="31.291" style="stroke:#181818;stroke-width:1.0;" width="10" x="1770.5" y="489.4043"/><rect fill="#FFFFFF" height="31.291" style="stroke:#181818;stroke-width:1.0;" width="10" x="1976.5" y="864.8965"/><rect fill="#FFFFFF" height="31.291" style="stroke:#181818;stroke-width:1.0;" width="10" x="2114.5" y="739.7324"/><rect fill="#FFFFFF" height="31.291" style="stroke:#181818;stroke-width:1.0;" width="10" x="2285.5" y="802.3145"/><polygon fill="#181818" points="301,112.9121,311,116.9121,301,120.9121,305,116.9121" style="stroke:#181818;stroke-width:1.0;"/><line style="stroke:#181818;stroke-width:1.0;" x1="70" x2="307" y1="116.9121" y2="116.9121"/><text fill="#000000" font-family="sans-serif" font-size="13" font-weight="bold" lengthAdjust="spacing" textLength="7" x="77" y="111.6494">1</text><text fill="#000000" font-family="sans-serif" font-size="13" lengthAdjust="spacing" textLength="112" x="88" y="111.6494">requests to register</text><polygon fill="#181818" points="81,161.4941,71,165.4941,81,169.4941,77,165.4941" style="stroke:#181818;stroke-width:1.0;"/><line style="stroke:#181818;stroke-width:1.0;stroke-dasharray:2.0,2.0;" x1="75" x2="312" y1="165.4941" y2="165.4941"/><text fill="#000000" font-family="sans-serif" font-size="13" font-weight="bold" lengthAdjust="spacing" textLength="7" x="87" y="151.5859">2</text><text fill="#000000" font-family="sans-serif" font-size="13" lengthAdjust="spacing" textLength="188" x="98" y="142.9404">asks for name, email, password,</text><text fill="#000000" font-family="sans-serif" font-size="13" lengthAdjust="spacing" textLength="208" x="98" y="160.2314">select role and password preference</text><polygon fill="#181818" points="301,210.0762,311,214.0762,301,218.0762,305,214.0762" style="stroke:#181818;stroke-width:1.0;"/><line style="stroke:#181818;stroke-width:1.0;" x1="70" x2="307" y1="214.0762" y2="214.0762"/><text fill="#000000" font-family="sans-serif" font-size="13" font-weight="bold" lengthAdjust="spacing" textLength="7" x="77" y="200.168">3</text><text fill="#000000" font-family="sans-serif" font-size="13" lengthAdjust="spacing" textLength="189" x="88" y="191.5225">provides name, email, password,</text><text fill="#000000" font-family="sans-serif" font-size="13" lengthAdjust="spacing" textLength="208" x="88" y="208.8135">select role and password preference</text><polygon fill="#181818" points="526,258.6582,536,262.6582,526,266.6582,530,262.6582" style="stroke:#181818;stroke-width:1.0;"/><line style="stroke:#181818;stroke-width:1.0;" x1="323" x2="532" y1="262.6582" y2="262.6582"/><text fill="#000000" font-family="sans-serif" font-size="13" font-weight="bold" lengthAdjust="spacing" textLength="7" x="330" y="248.75">4</text><text fill="#000000" font-family="sans-serif" font-size="13" lengthAdjust="spacing" textLength="185" x="341" y="240.1045">register(name, email, password,</text><text fill="#000000" font-family="sans-serif" font-size="13" lengthAdjust="spacing" textLength="150" x="341" y="257.3955">role, passwordPreference)</text><line style="stroke:#181818;stroke-width:1.0;" x1="548" x2="595" y1="288.9492" y2="288.9492"/><line style="stroke:#181818;stroke-width:1.0;" x1="595" x2="595" y1="288.9492" y2="301.9492"/><line style="stroke:#181818;stroke-width:1.0;" x1="554" x2="595" y1="301.9492" y2="301.9492"/><polygon fill="#181818" points="564,297.9492,554,301.9492,564,305.9492,560,301.9492" style="stroke:#181818;stroke-width:1.0;"/><text fill="#000000" font-family="sans-serif" font-size="13" font-weight="bold" lengthAdjust="spacing" textLength="7" x="560" y="283.6865">5</text><text fill="#000000" font-family="sans-serif" font-size="13" lengthAdjust="spacing" textLength="635" x="571" y="283.6865">validateUserCredentials(name, email, citizen_card_number, tax_number, password, role, passwordPreference)</text><line style="stroke:#181818;stroke-width:1.0;" x1="553" x2="600" y1="333.2402" y2="333.2402"/><line style="stroke:#181818;stroke-width:1.0;" x1="600" x2="600" y1="333.2402" y2="346.2402"/><line style="stroke:#181818;stroke-width:1.0;" x1="559" x2="600" y1="346.2402" y2="346.2402"/><polygon fill="#181818" points="569,342.2402,559,346.2402,569,350.2402,565,346.2402" style="stroke:#181818;stroke-width:1.0;"/><text fill="#000000" font-family="sans-serif" font-size="13" font-weight="bold" lengthAdjust="spacing" textLength="7" x="565" y="327.9775">6</text><text fill="#000000" font-family="sans-serif" font-size="13" lengthAdjust="spacing" textLength="378" x="576" y="327.9775">generatePassword() if passwordPreference is "system-generated"</text><line style="stroke:#181818;stroke-width:1.0;stroke-dasharray:2.0,2.0;" x1="558" x2="600" y1="387.5313" y2="387.5313"/><line style="stroke:#181818;stroke-width:1.0;stroke-dasharray:2.0,2.0;" x1="600" x2="600" y1="387.5313" y2="400.5313"/><line style="stroke:#181818;stroke-width:1.0;stroke-dasharray:2.0,2.0;" x1="553" x2="600" y1="400.5313" y2="400.5313"/><polygon fill="#181818" points="563,396.5313,553,400.5313,563,404.5313,559,400.5313" style="stroke:#181818;stroke-width:1.0;"/><text fill="#000000" font-family="sans-serif" font-size="13" font-weight="bold" lengthAdjust="spacing" textLength="7" x="565" y="382.2686">7</text><text fill="#000000" font-family="sans-serif" font-size="13" lengthAdjust="spacing" textLength="55" x="576" y="382.2686">password</text><polygon fill="#181818" points="1617,422.8223,1627,426.8223,1617,430.8223,1621,426.8223" style="stroke:#181818;stroke-width:1.0;"/><line style="stroke:#181818;stroke-width:1.0;" x1="553" x2="1623" y1="426.8223" y2="426.8223"/><text fill="#000000" font-family="sans-serif" font-size="13" font-weight="bold" lengthAdjust="spacing" textLength="7" x="560" y="421.5596">8</text><text fill="#000000" font-family="sans-serif" font-size="13" lengthAdjust="spacing" textLength="259" x="571" y="421.5596">createUserCredentials(email, password, role)</text><polygon fill="#181818" points="564,454.1133,554,458.1133,564,462.1133,560,458.1133" style="stroke:#181818;stroke-width:1.0;"/><line style="stroke:#181818;stroke-width:1.0;stroke-dasharray:2.0,2.0;" x1="558" x2="1633" y1="458.1133" y2="458.1133"/><text fill="#000000" font-family="sans-serif" font-size="13" font-weight="bold" lengthAdjust="spacing" textLength="7" x="570" y="452.8506">9</text><text fill="#000000" font-family="sans-serif" font-size="13" lengthAdjust="spacing" textLength="90" x="581" y="452.8506">userCredentials</text><polygon fill="#181818" points="1758.5,485.4043,1768.5,489.4043,1758.5,493.4043,1762.5,489.4043" style="stroke:#181818;stroke-width:1.0;"/><line style="stroke:#181818;stroke-width:1.0;" x1="553" x2="1764.5" y1="489.4043" y2="489.4043"/><text fill="#000000" font-family="sans-serif" font-size="13" font-weight="bold" lengthAdjust="spacing" textLength="14" x="560" y="484.1416">10</text><text fill="#000000" font-family="sans-serif" font-size="13" lengthAdjust="spacing" textLength="402" x="578" y="484.1416">createUserData(email, name, role, citizen_card_number, tax_number)</text><polygon fill="#181818" points="564,516.6953,554,520.6953,564,524.6953,560,520.6953" style="stroke:#181818;stroke-width:1.0;"/><line style="stroke:#181818;stroke-width:1.0;stroke-dasharray:2.0,2.0;" x1="558" x2="1774.5" y1="520.6953" y2="520.6953"/><text fill="#000000" font-family="sans-serif" font-size="13" font-weight="bold" lengthAdjust="spacing" textLength="14" x="570" y="515.4326">11</text><text fill="#000000" font-family="sans-serif" font-size="13" lengthAdjust="spacing" textLength="52" x="588" y="515.4326">userData</text><polygon fill="#181818" points="1196,547.9863,1206,551.9863,1196,555.9863,1200,551.9863" style="stroke:#181818;stroke-width:1.0;"/><line style="stroke:#181818;stroke-width:1.0;" x1="553" x2="1202" y1="551.9863" y2="551.9863"/><text fill="#000000" font-family="sans-serif" font-size="13" font-weight="bold" lengthAdjust="spacing" textLength="14" x="560" y="546.7236">12</text><text fill="#000000" font-family="sans-serif" font-size="13" lengthAdjust="spacing" textLength="75" x="578" y="546.7236">getInstance()</text><polygon fill="#181818" points="564,579.2773,554,583.2773,564,587.2773,560,583.2773" style="stroke:#181818;stroke-width:1.0;"/><line style="stroke:#181818;stroke-width:1.0;stroke-dasharray:2.0,2.0;" x1="558" x2="1212" y1="583.2773" y2="583.2773"/><text fill="#000000" font-family="sans-serif" font-size="13" font-weight="bold" lengthAdjust="spacing" textLength="14" x="570" y="578.0146">13</text><text fill="#000000" font-family="sans-serif" font-size="13" lengthAdjust="spacing" textLength="67" x="588" y="578.0146">repositories</text><polygon fill="#181818" points="1303,610.5684,1313,614.5684,1303,618.5684,1307,614.5684" style="stroke:#181818;stroke-width:1.0;"/><line style="stroke:#181818;stroke-width:1.0;" x1="553" x2="1309" y1="614.5684" y2="614.5684"/><text fill="#000000" font-family="sans-serif" font-size="13" font-weight="bold" lengthAdjust="spacing" textLength="14" x="560" y="609.3057">14</text><text fill="#000000" font-family="sans-serif" font-size="13" lengthAdjust="spacing" textLength="180" x="578" y="609.3057">getUserCredentialsRepository()</text><polygon fill="#181818" points="564,641.8594,554,645.8594,564,649.8594,560,645.8594" style="stroke:#181818;stroke-width:1.0;"/><line style="stroke:#181818;stroke-width:1.0;stroke-dasharray:2.0,2.0;" x1="558" x2="1319" y1="645.8594" y2="645.8594"/><text fill="#000000" font-family="sans-serif" font-size="13" font-weight="bold" lengthAdjust="spacing" textLength="14" x="570" y="640.5967">15</text><text fill="#000000" font-family="sans-serif" font-size="13" lengthAdjust="spacing" textLength="152" x="588" y="640.5967">userCredentialsRepository</text><polygon fill="#181818" points="1303,673.1504,1313,677.1504,1303,681.1504,1307,677.1504" style="stroke:#181818;stroke-width:1.0;"/><line style="stroke:#181818;stroke-width:1.0;" x1="553" x2="1309" y1="677.1504" y2="677.1504"/><text fill="#000000" font-family="sans-serif" font-size="13" font-weight="bold" lengthAdjust="spacing" textLength="14" x="560" y="671.8877">16</text><text fill="#000000" font-family="sans-serif" font-size="13" lengthAdjust="spacing" textLength="142" x="578" y="671.8877">getUserDataRepository()</text><polygon fill="#181818" points="564,704.4414,554,708.4414,564,712.4414,560,708.4414" style="stroke:#181818;stroke-width:1.0;"/><line style="stroke:#181818;stroke-width:1.0;stroke-dasharray:2.0,2.0;" x1="558" x2="1319" y1="708.4414" y2="708.4414"/><text fill="#000000" font-family="sans-serif" font-size="13" font-weight="bold" lengthAdjust="spacing" textLength="14" x="570" y="703.1787">17</text><text fill="#000000" font-family="sans-serif" font-size="13" lengthAdjust="spacing" textLength="114" x="588" y="703.1787">userDataRepository</text><polygon fill="#181818" points="2102.5,735.7324,2112.5,739.7324,2102.5,743.7324,2106.5,739.7324" style="stroke:#181818;stroke-width:1.0;"/><line style="stroke:#181818;stroke-width:1.0;" x1="553" x2="2108.5" y1="739.7324" y2="739.7324"/><text fill="#000000" font-family="sans-serif" font-size="13" font-weight="bold" lengthAdjust="spacing" textLength="14" x="560" y="734.4697">18</text><text fill="#000000" font-family="sans-serif" font-size="13" lengthAdjust="spacing" textLength="211" x="578" y="734.4697">addUserCredentials(userCredentials)</text><polygon fill="#181818" points="564,767.0234,554,771.0234,564,775.0234,560,771.0234" style="stroke:#181818;stroke-width:1.0;"/><line style="stroke:#181818;stroke-width:1.0;stroke-dasharray:2.0,2.0;" x1="558" x2="2118.5" y1="771.0234" y2="771.0234"/><text fill="#000000" font-family="sans-serif" font-size="13" font-weight="bold" lengthAdjust="spacing" textLength="14" x="570" y="765.7607">19</text><text fill="#000000" font-family="sans-serif" font-size="13" lengthAdjust="spacing" textLength="90" x="588" y="765.7607">userCredentials</text><polygon fill="#181818" points="2273.5,798.3145,2283.5,802.3145,2273.5,806.3145,2277.5,802.3145" style="stroke:#181818;stroke-width:1.0;"/><line style="stroke:#181818;stroke-width:1.0;" x1="553" x2="2279.5" y1="802.3145" y2="802.3145"/><text fill="#000000" font-family="sans-serif" font-size="13" font-weight="bold" lengthAdjust="spacing" textLength="14" x="560" y="797.0518">20</text><text fill="#000000" font-family="sans-serif" font-size="13" lengthAdjust="spacing" textLength="135" x="578" y="797.0518">addUserData(userData)</text><polygon fill="#181818" points="564,829.6055,554,833.6055,564,837.6055,560,833.6055" style="stroke:#181818;stroke-width:1.0;"/><line style="stroke:#181818;stroke-width:1.0;stroke-dasharray:2.0,2.0;" x1="558" x2="2289.5" y1="833.6055" y2="833.6055"/><text fill="#000000" font-family="sans-serif" font-size="13" font-weight="bold" lengthAdjust="spacing" textLength="14" x="570" y="828.3428">21</text><text fill="#000000" font-family="sans-serif" font-size="13" lengthAdjust="spacing" textLength="52" x="588" y="828.3428">userData</text><polygon fill="#181818" points="1964.5,860.8965,1974.5,864.8965,1964.5,868.8965,1968.5,864.8965" style="stroke:#181818;stroke-width:1.0;"/><line style="stroke:#181818;stroke-width:1.0;" x1="553" x2="1970.5" y1="864.8965" y2="864.8965"/><text fill="#000000" font-family="sans-serif" font-size="13" font-weight="bold" lengthAdjust="spacing" textLength="14" x="560" y="859.6338">22</text><text fill="#000000" font-family="sans-serif" font-size="13" lengthAdjust="spacing" textLength="181" x="578" y="859.6338">addNewUser(email, name, role)</text><polygon fill="#181818" points="564,892.1875,554,896.1875,564,900.1875,560,896.1875" style="stroke:#181818;stroke-width:1.0;"/><line style="stroke:#181818;stroke-width:1.0;stroke-dasharray:2.0,2.0;" x1="558" x2="1980.5" y1="896.1875" y2="896.1875"/><text fill="#000000" font-family="sans-serif" font-size="13" font-weight="bold" lengthAdjust="spacing" textLength="14" x="570" y="890.9248">23</text><text fill="#000000" font-family="sans-serif" font-size="13" lengthAdjust="spacing" textLength="4" x="588" y="890.9248">&#160;</text><polygon fill="#181818" points="334,923.4785,324,927.4785,334,931.4785,330,927.4785" style="stroke:#181818;stroke-width:1.0;"/><line style="stroke:#181818;stroke-width:1.0;stroke-dasharray:2.0,2.0;" x1="328" x2="537" y1="927.4785" y2="927.4785"/><text fill="#000000" font-family="sans-serif" font-size="13" font-weight="bold" lengthAdjust="spacing" textLength="14" x="340" y="922.2158">24</text><text fill="#000000" font-family="sans-serif" font-size="13" lengthAdjust="spacing" textLength="49" x="358" y="922.2158">success</text><polygon fill="#181818" points="76,954.7695,66,958.7695,76,962.7695,72,958.7695" style="stroke:#181818;stroke-width:1.0;"/><line style="stroke:#181818;stroke-width:1.0;stroke-dasharray:2.0,2.0;" x1="70" x2="317" y1="958.7695" y2="958.7695"/><text fill="#000000" font-family="sans-serif" font-size="13" font-weight="bold" lengthAdjust="spacing" textLength="14" x="82" y="953.5068">25</text><text fill="#000000" font-family="sans-serif" font-size="13" lengthAdjust="spacing" textLength="147" x="100" y="953.5068">shows success message</text><!--SRC=[hLTDRzim3BtxLn0vjK3o1teO4AGz1DYw8AqF0meKcisaGcqfa-HctQyV9Tlofs8NRGw18b6Fxr4KgUXNBavCiHnoAMJoecIEO5I1aVOh9vQyiYC-cFSCGM5Yc3XcRGFzmb9vvk881vPfZ29M62cA_3Sg6YT6AbZ4Gk6HQuCAKuWrgWKm3N4S4OJX2JynOM1nitT6YXakHRmjRRONR3PI62MphCBRFEw_3wnFKdFYm54x6p_n_i2j4ABQtQ9QEvx4463tVVtOtL6GdWq9Gs4uHQ3nSFCauj1QAIwqUj41iUfjBC4UxlQR_TtjSEyjCsp0gZlfwNIdnx4g0dReFT-k7zTTwutCQL0YRtx-sAtlVxbyu6_Ce3tx2AfF7CFg6vqqt522_IbG6mr6GfqoZM6pUzjCEeGjh2n4J11ClseuKDO9bkCIC6SyMr8QQtsMAbq-2OqPfJ5GuY0maVebE2ayK8QA17le3R-JacyyHVs5u5iBRbFNoIybNuNWBMupiVEOrnrC7oTt8pfBzkESDKxVMCPJikubLPT3mWt_X-8vOIfzBc_t4WpxwyUU9CpZE8Fd2DSZ2gIxZxiA_UeQ-6745t0D2_rEiSnNzPvqCUfX1ec6ICEazZc-8yKFQAjlBg4c2aTEefy7BiJNbzNuSX1KvDssLFLApQIuorwym45XwKYrIxN6CkdA59h8kQa03AjPE1H3WhsWsDNfQCnqMSTbf1cv73TReQdF9dWreN6icmL5ZdbRjMjFq-ccXCxsMokrNREK5knvKrfTumsASmx2YTmwaGbfOJVZMhhd_VKYUldqQVR1mDZMcQRzqjCpdv0NZdfGSvZF9yhI1tcqOpEeKrLGN96g3MQ4OMxfARwcz1GVB3tLYwpKTuzdAt5OWoTq-cTTi6bMNcf5qyto4g9lmUuffeiaGTqjLHVRRlkHg5_aMTSGaDCN_SU9naewlJJRF-FeFm00]--></g></svg>