<?xml version="1.0" encoding="UTF-8" standalone="no"?><svg xmlns="http://www.w3.org/2000/svg" xmlns:xlink="http://www.w3.org/1999/xlink" contentStyleType="text/css" height="1987px" preserveAspectRatio="none" style="width:2370px;height:1987px;background:#FFFFFF;" version="1.1" viewBox="0 0 2370 1987" width="2370px" zoomAndPan="magnify"><defs/><g><!--class UU--><g id="elem_UU"><rect codeLine="11" fill="#F1F1F1" height="50" id="UU" rx="2.5" ry="2.5" style="stroke:#181818;stroke-width:0.5;" width="206" x="1438.12" y="1930.33"/><ellipse cx="1454.12" cy="1947.33" fill="#ADD1B2" rx="12" ry="12" style="stroke:#181818;stroke-width:1.0;"/><path d="M1456.9266,1954.4101 Q1456.243,1954.7616 1455.4911,1954.9374 Q1454.7391,1955.1132 1453.9091,1955.1132 Q1450.9598,1955.1132 1449.4071,1953.1698 Q1447.8544,1951.2265 1447.8544,1947.5546 Q1447.8544,1943.873 1449.4071,1941.9296 Q1450.9598,1939.9863 1453.9091,1939.9863 Q1454.7391,1939.9863 1455.5009,1940.162 Q1456.2626,1940.3378 1456.9266,1940.6894 L1456.9266,1943.8925 Q1456.1845,1943.2089 1455.4862,1942.8915 Q1454.788,1942.5741 1454.0458,1942.5741 Q1452.4638,1942.5741 1451.6581,1943.829 Q1450.8524,1945.0839 1450.8524,1947.5546 Q1450.8524,1950.0155 1451.6581,1951.2704 Q1452.4638,1952.5253 1454.0458,1952.5253 Q1454.788,1952.5253 1455.4862,1952.2079 Q1456.1845,1951.8905 1456.9266,1951.207 Z " fill="#000000"/><text fill="#000000" font-family="sans-serif" font-size="20" lengthAdjust="spacing" textLength="172" x="1469.12" y="1954.8886">Unregistered User</text><line style="stroke:#181818;stroke-width:0.5;" x1="1439.12" x2="1643.12" y1="1964.33" y2="1964.33"/><line style="stroke:#181818;stroke-width:0.5;" x1="1439.12" x2="1643.12" y1="1972.33" y2="1972.33"/></g><!--class UI--><g id="elem_UI"><rect codeLine="13" fill="#F1F1F1" height="73.5547" id="UI" rx="2.5" ry="2.5" style="stroke:#181818;stroke-width:0.5;" width="983" x="1049.62" y="1740.55"/><ellipse cx="1466.12" cy="1757.55" fill="#ADD1B2" rx="12" ry="12" style="stroke:#181818;stroke-width:1.0;"/><path d="M1468.9266,1764.6301 Q1468.243,1764.9816 1467.4911,1765.1574 Q1466.7391,1765.3332 1465.9091,1765.3332 Q1462.9598,1765.3332 1461.4071,1763.3898 Q1459.8544,1761.4465 1459.8544,1757.7746 Q1459.8544,1754.093 1461.4071,1752.1496 Q1462.9598,1750.2063 1465.9091,1750.2063 Q1466.7391,1750.2063 1467.5009,1750.382 Q1468.2626,1750.5578 1468.9266,1750.9094 L1468.9266,1754.1125 Q1468.1845,1753.4289 1467.4862,1753.1115 Q1466.788,1752.7941 1466.0458,1752.7941 Q1464.4638,1752.7941 1463.6581,1754.049 Q1462.8524,1755.3039 1462.8524,1757.7746 Q1462.8524,1760.2355 1463.6581,1761.4904 Q1464.4638,1762.7453 1466.0458,1762.7453 Q1466.788,1762.7453 1467.4862,1762.4279 Q1468.1845,1762.1105 1468.9266,1761.427 Z " fill="#000000"/><text fill="#000000" font-family="sans-serif" font-size="20" lengthAdjust="spacing" textLength="141" x="1488.12" y="1765.1086">:RegistrationUI</text><line style="stroke:#181818;stroke-width:0.5;" x1="1050.62" x2="2031.62" y1="1774.55" y2="1774.55"/><line style="stroke:#181818;stroke-width:0.5;" x1="1050.62" x2="2031.62" y1="1782.55" y2="1782.55"/><text fill="#000000" font-family="sans-serif" font-size="20" lengthAdjust="spacing" textLength="971" x="1055.62" y="1805.8859">+register(name: String, email: String, password: String, role: String, passwordPreference: String): void</text></g><!--class CTRL--><g id="elem_CTRL"><rect codeLine="17" fill="#F1F1F1" height="120.6641" id="CTRL" rx="2.5" ry="2.5" style="stroke:#181818;stroke-width:0.5;" width="1644" x="719.12" y="443"/><ellipse cx="1428.12" cy="460" fill="#ADD1B2" rx="12" ry="12" style="stroke:#181818;stroke-width:1.0;"/><path d="M1430.9266,467.0801 Q1430.243,467.4316 1429.4911,467.6074 Q1428.7391,467.7832 1427.9091,467.7832 Q1424.9598,467.7832 1423.4071,465.8398 Q1421.8544,463.8965 1421.8544,460.2246 Q1421.8544,456.543 1423.4071,454.5996 Q1424.9598,452.6563 1427.9091,452.6563 Q1428.7391,452.6563 1429.5009,452.832 Q1430.2626,453.0078 1430.9266,453.3594 L1430.9266,456.5625 Q1430.1845,455.8789 1429.4862,455.5615 Q1428.788,455.2441 1428.0458,455.2441 Q1426.4638,455.2441 1425.6581,456.499 Q1424.8524,457.7539 1424.8524,460.2246 Q1424.8524,462.6855 1425.6581,463.9404 Q1426.4638,465.1953 1428.0458,465.1953 Q1428.788,465.1953 1429.4862,464.8779 Q1430.1845,464.5605 1430.9266,463.877 Z " fill="#000000"/><text fill="#000000" font-family="sans-serif" font-size="20" lengthAdjust="spacing" textLength="217" x="1450.12" y="467.5586">:RegistrationController</text><line style="stroke:#181818;stroke-width:0.5;" x1="720.12" x2="2362.12" y1="477" y2="477"/><line style="stroke:#181818;stroke-width:0.5;" x1="720.12" x2="2362.12" y1="485" y2="485"/><text fill="#000000" font-family="sans-serif" font-size="20" lengthAdjust="spacing" textLength="267" x="725.12" y="508.3359">-generatePassword(): String</text><text fill="#000000" font-family="sans-serif" font-size="20" lengthAdjust="spacing" textLength="1632" x="725.12" y="531.8906">-validateUserCredentials(name: String, email: String, citizen_card_number: String, tax_number: String, password: String, role: String, passwordPreference: String): boolean</text><text fill="#000000" font-family="sans-serif" font-size="20" lengthAdjust="spacing" textLength="971" x="725.12" y="555.4453">+register(name: String, email: String, password: String, role: String, passwordPreference: String): void</text></g><!--class RepositorySingleton--><g id="elem_RepositorySingleton"><rect codeLine="23" fill="#F1F1F1" height="120.6641" id="RepositorySingleton" rx="2.5" ry="2.5" style="stroke:#181818;stroke-width:0.5;" width="592" x="1245.12" y="1222"/><ellipse cx="1474.12" cy="1239" fill="#ADD1B2" rx="12" ry="12" style="stroke:#181818;stroke-width:1.0;"/><path d="M1476.9266,1246.0801 Q1476.243,1246.4316 1475.4911,1246.6074 Q1474.7391,1246.7832 1473.9091,1246.7832 Q1470.9598,1246.7832 1469.4071,1244.8398 Q1467.8544,1242.8965 1467.8544,1239.2246 Q1467.8544,1235.543 1469.4071,1233.5996 Q1470.9598,1231.6563 1473.9091,1231.6563 Q1474.7391,1231.6563 1475.5009,1231.832 Q1476.2626,1232.0078 1476.9266,1232.3594 L1476.9266,1235.5625 Q1476.1845,1234.8789 1475.4862,1234.5615 Q1474.788,1234.2441 1474.0458,1234.2441 Q1472.4638,1234.2441 1471.6581,1235.499 Q1470.8524,1236.7539 1470.8524,1239.2246 Q1470.8524,1241.6855 1471.6581,1242.9404 Q1472.4638,1244.1953 1474.0458,1244.1953 Q1474.788,1244.1953 1475.4862,1243.8779 Q1476.1845,1243.5605 1476.9266,1242.877 Z " fill="#000000"/><text fill="#000000" font-family="sans-serif" font-size="20" lengthAdjust="spacing" textLength="125" x="1496.12" y="1246.5586">:Repositories</text><line style="stroke:#181818;stroke-width:0.5;" x1="1246.12" x2="1836.12" y1="1256" y2="1256"/><line style="stroke:#181818;stroke-width:0.5;" x1="1246.12" x2="1836.12" y1="1264" y2="1264"/><text fill="#000000" font-family="sans-serif" font-size="20" lengthAdjust="spacing" textLength="270" x="1251.12" y="1287.3359">+getInstance(): Repositories</text><text fill="#000000" font-family="sans-serif" font-size="20" lengthAdjust="spacing" textLength="580" x="1251.12" y="1310.8906">+getUserCredentialsRepository(): UserCredentialsRepository</text><text fill="#000000" font-family="sans-serif" font-size="20" lengthAdjust="spacing" textLength="450" x="1251.12" y="1334.4453">+getUserDataRepository(): UserDataRepository</text></g><!--class PLAT--><g id="elem_PLAT"><rect codeLine="29" fill="#F1F1F1" height="120.2188" id="PLAT" rx="2.5" ry="2.5" style="stroke:#181818;stroke-width:0.5;" width="598" x="1242.12" y="1034.22"/><ellipse cx="1474.12" cy="1062.7747" fill="#ADD1B2" rx="12" ry="12" style="stroke:#181818;stroke-width:1.0;"/><path d="M1476.9266,1069.8548 Q1476.243,1070.2063 1475.4911,1070.3821 Q1474.7391,1070.5579 1473.9091,1070.5579 Q1470.9598,1070.5579 1469.4071,1068.6145 Q1467.8544,1066.6712 1467.8544,1062.9993 Q1467.8544,1059.3177 1469.4071,1057.3743 Q1470.9598,1055.4309 1473.9091,1055.4309 Q1474.7391,1055.4309 1475.5009,1055.6067 Q1476.2626,1055.7825 1476.9266,1056.1341 L1476.9266,1059.3372 Q1476.1845,1058.6536 1475.4862,1058.3362 Q1474.788,1058.0188 1474.0458,1058.0188 Q1472.4638,1058.0188 1471.6581,1059.2737 Q1470.8524,1060.5286 1470.8524,1062.9993 Q1470.8524,1065.4602 1471.6581,1066.7151 Q1472.4638,1067.97 1474.0458,1067.97 Q1474.788,1067.97 1475.4862,1067.6526 Q1476.1845,1067.3352 1476.9266,1066.6516 Z " fill="#000000"/><text fill="#000000" font-family="sans-serif" font-size="20" lengthAdjust="spacing" textLength="114" x="1501.62" y="1058.5559">repositories</text><text fill="#000000" font-family="sans-serif" font-size="20" lengthAdjust="spacing" textLength="125" x="1496.12" y="1082.1106">:Repositories</text><line style="stroke:#181818;stroke-width:0.5;" x1="1243.12" x2="1839.12" y1="1091.3294" y2="1091.3294"/><line style="stroke:#181818;stroke-width:0.5;" x1="1243.12" x2="1839.12" y1="1099.3294" y2="1099.3294"/><text fill="#000000" font-family="sans-serif" font-size="20" lengthAdjust="spacing" textLength="586" x="1248.12" y="1122.6653">+addUserCredentials(userCredentials: UserCredentials): void</text><text fill="#000000" font-family="sans-serif" font-size="20" lengthAdjust="spacing" textLength="391" x="1248.12" y="1146.22">+addUserData(userData: UserData): void</text></g><!--class USERCRED--><g id="elem_USERCRED"><rect codeLine="34" fill="#F1F1F1" height="96.6641" id="USERCRED" rx="2.5" ry="2.5" style="stroke:#181818;stroke-width:0.5;" width="826" x="1128.12" y="1576"/><ellipse cx="1457.62" cy="1604.5547" fill="#ADD1B2" rx="12" ry="12" style="stroke:#181818;stroke-width:1.0;"/><path d="M1460.4266,1611.6348 Q1459.743,1611.9863 1458.9911,1612.1621 Q1458.2391,1612.3379 1457.4091,1612.3379 Q1454.4598,1612.3379 1452.9071,1610.3945 Q1451.3544,1608.4512 1451.3544,1604.7793 Q1451.3544,1601.0977 1452.9071,1599.1543 Q1454.4598,1597.2109 1457.4091,1597.2109 Q1458.2391,1597.2109 1459.0009,1597.3867 Q1459.7626,1597.5625 1460.4266,1597.9141 L1460.4266,1601.1172 Q1459.6845,1600.4336 1458.9862,1600.1162 Q1458.288,1599.7988 1457.5458,1599.7988 Q1455.9638,1599.7988 1455.1581,1601.0537 Q1454.3524,1602.3086 1454.3524,1604.7793 Q1454.3524,1607.2402 1455.1581,1608.4951 Q1455.9638,1609.75 1457.5458,1609.75 Q1458.288,1609.75 1458.9862,1609.4326 Q1459.6845,1609.1152 1460.4266,1608.4316 Z " fill="#000000"/><text fill="#000000" font-family="sans-serif" font-size="20" lengthAdjust="spacing" textLength="150" x="1483.62" y="1600.3359">userCredentials</text><text fill="#000000" font-family="sans-serif" font-size="20" lengthAdjust="spacing" textLength="158" x="1479.62" y="1623.8906">:UserCredentials</text><line style="stroke:#181818;stroke-width:0.5;" x1="1129.12" x2="1953.12" y1="1633.1094" y2="1633.1094"/><line style="stroke:#181818;stroke-width:0.5;" x1="1129.12" x2="1953.12" y1="1641.1094" y2="1641.1094"/><text fill="#000000" font-family="sans-serif" font-size="20" lengthAdjust="spacing" textLength="814" x="1134.12" y="1664.4453">+createUserCredentials(email: String, password: String, role: String): UserCredentials</text></g><!--class USERDATA--><g id="elem_USERDATA"><rect codeLine="38" fill="#F1F1F1" height="96.6641" id="USERDATA" rx="2.5" ry="2.5" style="stroke:#181818;stroke-width:0.5;" width="1132" x="975.12" y="172"/><ellipse cx="1490.12" cy="200.5547" fill="#ADD1B2" rx="12" ry="12" style="stroke:#181818;stroke-width:1.0;"/><path d="M1492.9266,207.6348 Q1492.243,207.9863 1491.4911,208.1621 Q1490.7391,208.3379 1489.9091,208.3379 Q1486.9598,208.3379 1485.4071,206.3945 Q1483.8544,204.4512 1483.8544,200.7793 Q1483.8544,197.0977 1485.4071,195.1543 Q1486.9598,193.2109 1489.9091,193.2109 Q1490.7391,193.2109 1491.5009,193.3867 Q1492.2626,193.5625 1492.9266,193.9141 L1492.9266,197.1172 Q1492.1845,196.4336 1491.4862,196.1162 Q1490.788,195.7988 1490.0458,195.7988 Q1488.4638,195.7988 1487.6581,197.0537 Q1486.8524,198.3086 1486.8524,200.7793 Q1486.8524,203.2402 1487.6581,204.4951 Q1488.4638,205.75 1490.0458,205.75 Q1490.788,205.75 1491.4862,205.4326 Q1492.1845,205.1152 1492.9266,204.4316 Z " fill="#000000"/><text fill="#000000" font-family="sans-serif" font-size="20" lengthAdjust="spacing" textLength="85" x="1516.12" y="196.3359">userData</text><text fill="#000000" font-family="sans-serif" font-size="20" lengthAdjust="spacing" textLength="93" x="1512.12" y="219.8906">:UserData</text><line style="stroke:#181818;stroke-width:0.5;" x1="976.12" x2="2106.12" y1="229.1094" y2="229.1094"/><line style="stroke:#181818;stroke-width:0.5;" x1="976.12" x2="2106.12" y1="237.1094" y2="237.1094"/><text fill="#000000" font-family="sans-serif" font-size="20" lengthAdjust="spacing" textLength="1120" x="981.12" y="260.4453">+createUserData(email: String, name: String, role: String, citizen_card_number: String, tax_number: String): UserData</text></g><!--class UserCredentialsRepository--><g id="elem_UserCredentialsRepository"><rect codeLine="42" fill="#F1F1F1" height="96.6641" id="UserCredentialsRepository" rx="2.5" ry="2.5" style="stroke:#181818;stroke-width:0.5;" width="598" x="1242.12" y="7"/><ellipse cx="1407.62" cy="35.5547" fill="#ADD1B2" rx="12" ry="12" style="stroke:#181818;stroke-width:1.0;"/><path d="M1410.4266,42.6348 Q1409.743,42.9863 1408.9911,43.1621 Q1408.2391,43.3379 1407.4091,43.3379 Q1404.4598,43.3379 1402.9071,41.3945 Q1401.3544,39.4512 1401.3544,35.7793 Q1401.3544,32.0977 1402.9071,30.1543 Q1404.4598,28.2109 1407.4091,28.2109 Q1408.2391,28.2109 1409.0009,28.3867 Q1409.7626,28.5625 1410.4266,28.9141 L1410.4266,32.1172 Q1409.6845,31.4336 1408.9862,31.1162 Q1408.288,30.7988 1407.5458,30.7988 Q1405.9638,30.7988 1405.1581,32.0537 Q1404.3524,33.3086 1404.3524,35.7793 Q1404.3524,38.2402 1405.1581,39.4951 Q1405.9638,40.75 1407.5458,40.75 Q1408.288,40.75 1408.9862,40.4326 Q1409.6845,40.1152 1410.4266,39.4316 Z " fill="#000000"/><text fill="#000000" font-family="sans-serif" font-size="20" lengthAdjust="spacing" textLength="258" x="1429.62" y="31.3359">userCredentialsRepository:</text><text fill="#000000" font-family="sans-serif" font-size="20" lengthAdjust="spacing" textLength="254" x="1431.62" y="54.8906">UserCredentialsRepository</text><line style="stroke:#181818;stroke-width:0.5;" x1="1243.12" x2="1839.12" y1="64.1094" y2="64.1094"/><line style="stroke:#181818;stroke-width:0.5;" x1="1243.12" x2="1839.12" y1="72.1094" y2="72.1094"/><text fill="#000000" font-family="sans-serif" font-size="20" lengthAdjust="spacing" textLength="586" x="1248.12" y="95.4453">+addUserCredentials(userCredentials: UserCredentials): void</text></g><!--class UserDataRepository--><g id="elem_UserDataRepository"><rect codeLine="46" fill="#F1F1F1" height="96.6641" id="UserDataRepository" rx="2.5" ry="2.5" style="stroke:#181818;stroke-width:0.5;" width="403" x="1339.62" y="1411"/><ellipse cx="1440.12" cy="1439.5547" fill="#ADD1B2" rx="12" ry="12" style="stroke:#181818;stroke-width:1.0;"/><path d="M1442.9266,1446.6348 Q1442.243,1446.9863 1441.4911,1447.1621 Q1440.7391,1447.3379 1439.9091,1447.3379 Q1436.9598,1447.3379 1435.4071,1445.3945 Q1433.8544,1443.4512 1433.8544,1439.7793 Q1433.8544,1436.0977 1435.4071,1434.1543 Q1436.9598,1432.2109 1439.9091,1432.2109 Q1440.7391,1432.2109 1441.5009,1432.3867 Q1442.2626,1432.5625 1442.9266,1432.9141 L1442.9266,1436.1172 Q1442.1845,1435.4336 1441.4862,1435.1162 Q1440.788,1434.7988 1440.0458,1434.7988 Q1438.4638,1434.7988 1437.6581,1436.0537 Q1436.8524,1437.3086 1436.8524,1439.7793 Q1436.8524,1442.2402 1437.6581,1443.4951 Q1438.4638,1444.75 1440.0458,1444.75 Q1440.788,1444.75 1441.4862,1444.4326 Q1442.1845,1444.1152 1442.9266,1443.4316 Z " fill="#000000"/><text fill="#000000" font-family="sans-serif" font-size="20" lengthAdjust="spacing" textLength="193" x="1462.12" y="1435.3359">userDataRepository:</text><text fill="#000000" font-family="sans-serif" font-size="20" lengthAdjust="spacing" textLength="189" x="1464.12" y="1458.8906">UserDataRepository</text><line style="stroke:#181818;stroke-width:0.5;" x1="1340.62" x2="1741.62" y1="1468.1094" y2="1468.1094"/><line style="stroke:#181818;stroke-width:0.5;" x1="1340.62" x2="1741.62" y1="1476.1094" y2="1476.1094"/><text fill="#000000" font-family="sans-serif" font-size="20" lengthAdjust="spacing" textLength="391" x="1345.62" y="1499.4453">+addUserData(userData: UserData): void</text></g><!--class COMPANY--><g id="elem_COMPANY"><rect codeLine="50" fill="#F1F1F1" height="73.5547" id="COMPANY" rx="2.5" ry="2.5" style="stroke:#181818;stroke-width:0.5;" width="587" x="1247.62" y="656.55"/><ellipse cx="1491.12" cy="673.55" fill="#ADD1B2" rx="12" ry="12" style="stroke:#181818;stroke-width:1.0;"/><path d="M1493.9266,680.6301 Q1493.243,680.9816 1492.4911,681.1574 Q1491.7391,681.3332 1490.9091,681.3332 Q1487.9598,681.3332 1486.4071,679.3898 Q1484.8544,677.4465 1484.8544,673.7746 Q1484.8544,670.093 1486.4071,668.1496 Q1487.9598,666.2063 1490.9091,666.2063 Q1491.7391,666.2063 1492.5009,666.382 Q1493.2626,666.5578 1493.9266,666.9094 L1493.9266,670.1125 Q1493.1845,669.4289 1492.4862,669.1115 Q1491.788,668.7941 1491.0458,668.7941 Q1489.4638,668.7941 1488.6581,670.049 Q1487.8524,671.3039 1487.8524,673.7746 Q1487.8524,676.2355 1488.6581,677.4904 Q1489.4638,678.7453 1491.0458,678.7453 Q1491.788,678.7453 1492.4862,678.4279 Q1493.1845,678.1105 1493.9266,677.427 Z " fill="#000000"/><text fill="#000000" font-family="sans-serif" font-size="20" lengthAdjust="spacing" textLength="91" x="1513.12" y="681.1086">Company</text><line style="stroke:#181818;stroke-width:0.5;" x1="1248.62" x2="1833.62" y1="690.55" y2="690.55"/><line style="stroke:#181818;stroke-width:0.5;" x1="1248.62" x2="1833.62" y1="698.55" y2="698.55"/><text fill="#000000" font-family="sans-serif" font-size="20" lengthAdjust="spacing" textLength="575" x="1253.62" y="721.8859">+addNewUser(email: String, name: String, role: String): void</text></g><!--class userCredentialsRepository--><g id="elem_userCredentialsRepository"><rect fill="#F1F1F1" height="50" id="userCredentialsRepository" rx="2.5" ry="2.5" style="stroke:#181818;stroke-width:0.5;" width="286" x="1398.12" y="916.33"/><ellipse cx="1414.12" cy="933.33" fill="#ADD1B2" rx="12" ry="12" style="stroke:#181818;stroke-width:1.0;"/><path d="M1416.9266,940.4101 Q1416.243,940.7616 1415.4911,940.9374 Q1414.7391,941.1132 1413.9091,941.1132 Q1410.9598,941.1132 1409.4071,939.1698 Q1407.8544,937.2265 1407.8544,933.5546 Q1407.8544,929.873 1409.4071,927.9296 Q1410.9598,925.9862 1413.9091,925.9862 Q1414.7391,925.9862 1415.5009,926.162 Q1416.2626,926.3378 1416.9266,926.6894 L1416.9266,929.8925 Q1416.1845,929.2089 1415.4862,928.8915 Q1414.788,928.5741 1414.0458,928.5741 Q1412.4638,928.5741 1411.6581,929.829 Q1410.8524,931.0839 1410.8524,933.5546 Q1410.8524,936.0155 1411.6581,937.2704 Q1412.4638,938.5253 1414.0458,938.5253 Q1414.788,938.5253 1415.4862,938.2079 Q1416.1845,937.8905 1416.9266,937.207 Z " fill="#000000"/><text fill="#000000" font-family="sans-serif" font-size="20" lengthAdjust="spacing" textLength="252" x="1429.12" y="940.8886">userCredentialsRepository</text><line style="stroke:#181818;stroke-width:0.5;" x1="1399.12" x2="1683.12" y1="950.33" y2="950.33"/><line style="stroke:#181818;stroke-width:0.5;" x1="1399.12" x2="1683.12" y1="958.33" y2="958.33"/></g><!--class userDataRepository--><g id="elem_userDataRepository"><rect fill="#F1F1F1" height="50" id="userDataRepository" rx="2.5" ry="2.5" style="stroke:#181818;stroke-width:0.5;" width="221" x="1430.62" y="798.33"/><ellipse cx="1446.62" cy="815.33" fill="#ADD1B2" rx="12" ry="12" style="stroke:#181818;stroke-width:1.0;"/><path d="M1449.4266,822.4101 Q1448.743,822.7616 1447.9911,822.9374 Q1447.2391,823.1132 1446.4091,823.1132 Q1443.4598,823.1132 1441.9071,821.1698 Q1440.3544,819.2265 1440.3544,815.5546 Q1440.3544,811.873 1441.9071,809.9296 Q1443.4598,807.9862 1446.4091,807.9862 Q1447.2391,807.9862 1448.0009,808.162 Q1448.7626,808.3378 1449.4266,808.6894 L1449.4266,811.8925 Q1448.6845,811.2089 1447.9862,810.8915 Q1447.288,810.5741 1446.5458,810.5741 Q1444.9638,810.5741 1444.1581,811.829 Q1443.3524,813.0839 1443.3524,815.5546 Q1443.3524,818.0155 1444.1581,819.2704 Q1444.9638,820.5253 1446.5458,820.5253 Q1447.288,820.5253 1447.9862,820.2079 Q1448.6845,819.8905 1449.4266,819.207 Z " fill="#000000"/><text fill="#000000" font-family="sans-serif" font-size="20" lengthAdjust="spacing" textLength="187" x="1461.62" y="822.8886">userDataRepository</text><line style="stroke:#181818;stroke-width:0.5;" x1="1431.62" x2="1650.62" y1="832.33" y2="832.33"/><line style="stroke:#181818;stroke-width:0.5;" x1="1431.62" x2="1650.62" y1="840.33" y2="840.33"/></g><!--link UU to UI--><g id="link_UU_UI"><path codeLine="54" d="M1541.12,1930.2 C1541.12,1901.67 1541.12,1854.62 1541.12,1820.24 " fill="none" id="UU-to-UI" style="stroke:#181818;stroke-width:1.0;"/><polygon fill="#181818" points="1541.12,1815.4,1537.12,1824.4,1541.12,1820.4,1545.12,1824.4,1541.12,1815.4" style="stroke:#181818;stroke-width:1.0;"/><text fill="#000000" font-family="sans-serif" font-size="20" lengthAdjust="spacing" textLength="186" x="1518.62" y="1880.0559">requests to register</text></g><!--link UI to UU--><g id="link_UI_UU"><path codeLine="55" d="M1541.12,1814.4 C1541.12,1846.94 1541.12,1893.72 1541.12,1924.31 " fill="none" id="UI-to-UU" style="stroke:#181818;stroke-width:1.0;"/><polygon fill="#181818" points="1541.12,1929.2,1545.12,1920.2,1541.12,1924.2,1537.12,1920.2,1541.12,1929.2" style="stroke:#181818;stroke-width:1.0;"/><text fill="#000000" font-family="sans-serif" font-size="20" lengthAdjust="spacing" textLength="310" x="1358.62" y="1868.0559">asks for name, email, password,</text><text fill="#000000" font-family="sans-serif" font-size="20" lengthAdjust="spacing" textLength="346" x="1340.62" y="1891.6106">select role and password preference</text></g><!--link UU to UI--><g id="link_UU_UI"><path codeLine="56" d="M1541.12,1930.2 C1541.12,1901.67 1541.12,1854.62 1541.12,1820.24 " fill="none" id="UU-to-UI-1" style="stroke:#181818;stroke-width:1.0;"/><polygon fill="#181818" points="1541.12,1815.4,1537.12,1824.4,1541.12,1820.4,1545.12,1824.4,1541.12,1815.4" style="stroke:#181818;stroke-width:1.0;"/><text fill="#000000" font-family="sans-serif" font-size="20" lengthAdjust="spacing" textLength="317" x="1410.12" y="1868.0559">provides name, email, password,</text><text fill="#000000" font-family="sans-serif" font-size="20" lengthAdjust="spacing" textLength="346" x="1395.62" y="1891.6106">select role and password preference</text></g><!--link UI to UU--><g id="link_UI_UU"><path codeLine="69" d="M1541.12,1814.4 C1541.12,1846.94 1541.12,1893.72 1541.12,1924.31 " fill="none" id="UI-to-UU-1" style="stroke:#181818;stroke-width:1.0;"/><polygon fill="#181818" points="1541.12,1929.2,1545.12,1920.2,1541.12,1924.2,1537.12,1920.2,1541.12,1929.2" style="stroke:#181818;stroke-width:1.0;"/><text fill="#000000" font-family="sans-serif" font-size="20" lengthAdjust="spacing" textLength="228" x="1356.62" y="1880.0559">shows success message</text></g><!--link UI to CTRL--><g id="link_UI_CTRL"><path codeLine="57" d="M1351.97,1814.6 C1102.62,1851.24 676.75,1867.29 515.7,1591.83 C293.49,1211.75 397.34,922.83 719.12,622.33 C741.69,601.25 766.24,582.87 792.27,566.87 " fill="none" id="UI-to-CTRL" style="stroke:#181818;stroke-width:1.0;"/><polygon fill="#181818" points="796.15,563.92,786.3794,565.1589,791.8727,566.5093,790.5222,572.0026,796.15,563.92" style="stroke:#181818;stroke-width:1.0;"/><text fill="#000000" font-family="sans-serif" font-size="20" lengthAdjust="spacing" textLength="308" x="201.62" y="1575.1659">register(name, email, password,</text><text fill="#000000" font-family="sans-serif" font-size="20" lengthAdjust="spacing" textLength="248" x="231.62" y="1598.7206">role, passwordPreference)</text></g><!--link CTRL to UI--><g id="link_CTRL_UI"><path codeLine="68" d="M797.15,563.92 C769.3,580.59 743.1,599.94 719.12,622.33 C397.34,922.83 293.49,1211.75 515.7,1591.83 C675.49,1865.14 1095.99,1851.47 1346.09,1815.46 " fill="none" id="CTRL-to-UI" style="stroke:#181818;stroke-width:1.0;"/><polygon fill="#181818" points="1350.97,1814.6,1341.4904,1811.9283,1346.0214,1815.3151,1342.6346,1819.8461,1350.97,1814.6" style="stroke:#181818;stroke-width:1.0;"/><text fill="#000000" font-family="sans-serif" font-size="20" lengthAdjust="spacing" textLength="73" x="319.12" y="1587.1659">success</text></g><!--link CTRL to CTRL--><g id="link_CTRL_CTRL"><path codeLine="58" d="M1395.46,442.6 C1365.74,407.59 1414.29,375 1541.12,375 C1662.5,375 1712.19,404.85 1690.18,438.1 " fill="none" id="CTRL-to-CTRL" style="stroke:#181818;stroke-width:1.0;"/><polygon fill="#181818" points="1686.78,441.6,1695.3991,436.8345,1689.796,437.612,1689.0184,432.0089,1686.78,441.6" style="stroke:#181818;stroke-width:1.0;"/><text fill="#000000" font-family="sans-serif" font-size="20" lengthAdjust="spacing" textLength="1055" x="1013.62" y="365.3359">validateUserCredentials(name, email, citizen_card_number, tax_number, password, role, passwordPreference)</text></g><!--link CTRL to CTRL--><g id="link_CTRL_CTRL"><path codeLine="59" d="M1304.03,442.52 C1157.85,378.72 1236.88,307 1541.12,307 C1841.49,307 1922.34,376.91 1783.67,440.09 " fill="none" id="CTRL-to-CTRL-1" style="stroke:#181818;stroke-width:1.0;"/><polygon fill="#181818" points="1779.21,442.52,1789.0588,442.5,1783.7749,440.48,1785.7949,435.1961,1779.21,442.52" style="stroke:#181818;stroke-width:1.0;"/><text fill="#000000" font-family="sans-serif" font-size="20" lengthAdjust="spacing" textLength="426" x="1328.12" y="297.3359">generatePassword() if passwordPreference is</text><text fill="#000000" font-family="sans-serif" font-size="20" lengthAdjust="spacing" textLength="175" x="1619.5714" y="430.9771">system-generated</text></g><!--link CTRL to USERCRED--><g id="link_CTRL_USERCRED"><path codeLine="60" d="M1297.17,442.52 C1019.77,389.67 574.69,357.46 337.2,618.83 C38.78,947.25 361.75,1278.27 719.12,1541.33 C833.48,1625.51 982.33,1657 1121.88,1663.95 " fill="none" id="CTRL-to-USERCRED" style="stroke:#181818;stroke-width:1.0;"/><polygon fill="#181818" points="1126.68,1664.23,1117.8847,1659.7981,1121.6859,1663.9874,1117.4965,1667.7887,1126.68,1664.23" style="stroke:#181818;stroke-width:1.0;"/><text fill="#000000" font-family="sans-serif" font-size="20" lengthAdjust="spacing" textLength="430" x="140.62" y="639.1659">createUserCredentials(email, password, role)</text></g><!--link CTRL to UserDataRepository--><g id="link_CTRL_UserDataRepository"><path codeLine="61" d="M851.81,564.16 C805.6,579.98 760.88,599.15 719.12,622.33 C410.8,793.45 6,958.34 219.7,1238.83 C474.96,1573.86 1030.33,1545.24 1333.48,1499.8 " fill="none" id="CTRL-to-UserDataRepository" style="stroke:#181818;stroke-width:1.0;"/><polygon fill="#181818" points="1338.26,1498.92,1328.7655,1496.302,1333.3155,1499.6631,1329.9544,1504.2132,1338.26,1498.92" style="stroke:#181818;stroke-width:1.0;"/><text fill="#000000" font-family="sans-serif" font-size="20" lengthAdjust="spacing" textLength="665" x="23.12" y="1234.1659">createUserData(email, name, role, citizen_card_number, tax_number)</text></g><!--link CTRL to RepositorySingleton--><g id="link_CTRL_RepositorySingleton"><path codeLine="62" d="M718.71,498.07 C631.7,530.21 552.57,578.73 490.7,649.83 C320.04,845.95 509.52,1034.53 719.12,1188.33 C866.61,1296.56 1070.81,1320.37 1238.78,1316.96 " fill="none" id="CTRL-to-RepositorySingleton" style="stroke:#181818;stroke-width:1.0;"/><polygon fill="#181818" points="1243.74,1316.83,1234.6509,1313.0367,1238.7413,1316.9443,1234.8338,1321.0346,1243.74,1316.83" style="stroke:#181818;stroke-width:1.0;"/><text fill="#000000" font-family="sans-serif" font-size="20" lengthAdjust="spacing" textLength="123" x="294.12" y="670.1659">getInstance()</text></g><!--link CTRL to PLAT--><g id="link_CTRL_PLAT"><path codeLine="63" d="M806.11,564.08 C496.96,619.48 241.95,725.38 403.2,927.83 C595.14,1168.8 969.09,1179.78 1235.92,1150.47 " fill="none" id="CTRL-to-PLAT" style="stroke:#181818;stroke-width:1.0;"/><polygon fill="#181818" points="1240.81,1149.81,1231.4205,1146.8372,1235.8411,1150.3669,1232.3115,1154.7875,1240.81,1149.81" style="stroke:#181818;stroke-width:1.0;"/><text fill="#000000" font-family="sans-serif" font-size="20" lengthAdjust="spacing" textLength="298" x="206.62" y="923.1659">getUserCredentialsRepository()</text></g><!--link CTRL to PLAT--><g id="link_CTRL_PLAT"><path codeLine="64" d="M806.11,564.08 C496.96,619.48 241.95,725.38 403.2,927.83 C595.14,1168.8 969.09,1179.78 1235.92,1150.47 " fill="none" id="CTRL-to-PLAT-1" style="stroke:#181818;stroke-width:1.0;"/><polygon fill="#181818" points="1240.81,1149.81,1231.4205,1146.8372,1235.8411,1150.3669,1232.3115,1154.7875,1240.81,1149.81" style="stroke:#181818;stroke-width:1.0;"/><text fill="#000000" font-family="sans-serif" font-size="20" lengthAdjust="spacing" textLength="233" x="239.12" y="923.1659">getUserDataRepository()</text></g><!--link CTRL to userCredentialsRepository--><g id="link_CTRL_userCredentialsRepository"><path codeLine="65" d="M1095.5,442.5 C844.04,435.52 546.8,478.54 375.7,681.83 C101.22,1007.95 1019.71,977.59 1391.7,953.02 " fill="none" id="CTRL-to-userCredentialsRepository" style="stroke:#181818;stroke-width:1.0;"/><polygon fill="#181818" points="1396.68,952.62,1387.4371,949.2188,1391.6908,952.9479,1387.9617,957.2015,1396.68,952.62" style="stroke:#181818;stroke-width:1.0;"/><text fill="#000000" font-family="sans-serif" font-size="20" lengthAdjust="spacing" textLength="353" x="179.12" y="702.1659">addUserCredentials(userCredentials)</text></g><!--link CTRL to userDataRepository--><g id="link_CTRL_userDataRepository"><path codeLine="66" d="M718.93,525.76 C467.12,560.94 291.31,635.82 440.7,789.83 C573.72,926.95 1169.97,870.36 1424.91,838.96 " fill="none" id="CTRL-to-userDataRepository" style="stroke:#181818;stroke-width:1.0;"/><polygon fill="#181818" points="1429.5,838.27,1420.0764,835.4072,1424.538,838.8849,1421.0602,843.3464,1429.5,838.27" style="stroke:#181818;stroke-width:1.0;"/><text fill="#000000" font-family="sans-serif" font-size="20" lengthAdjust="spacing" textLength="223" x="244.12" y="785.1659">addUserData(userData)</text></g><!--link CTRL to COMPANY--><g id="link_CTRL_COMPANY"><path codeLine="67" d="M1541.12,563.87 C1541.12,591.97 1541.12,624.72 1541.12,650.25 " fill="none" id="CTRL-to-COMPANY" style="stroke:#181818;stroke-width:1.0;"/><polygon fill="#181818" points="1541.12,655.25,1545.12,646.25,1541.12,650.25,1537.12,646.25,1541.12,655.25" style="stroke:#181818;stroke-width:1.0;"/><text fill="#000000" font-family="sans-serif" font-size="20" lengthAdjust="spacing" textLength="302" x="1374.62" y="617.9459">addNewUser(email, name, role)</text></g><!--SRC=[nLRVQzim47xtNt7qPIrheUpH3uEGTX3ekf343uD2KUoB8o9BdYGdoyR-zqd-8Si_ahPqi3m4Mz_Tf-zEfpkh7UKvaIHZ8jvX0WbkIC7q5y7ralv2-7GRV52D3MI2YtWhHOQWPO51Y-Gatf4Kb_h842J6cl2K-GPgIn9ne3o53M7AHnZbg8yvGYxOqRwCOK9g4NX0p8XI4wqbNHSQPx7WfTpR862uqQ05I9fkDIJKYg621q7f0XSHbvXIfL6QS2E5yWA8WYXo1k6Yn2MnRj6iWcVmEm3p-zWuNtAIOGXBeu2dru0PeQnzpGtJGSYaNP62uH2VIzmO8Jnss5K8Uq6JuC-udgav64F5QjdJrUAXLdQJ8aTZXFEQ-_AguQpmFM4qCRYDUMg2HwwfEOhpWSHKcxpovvZ8v9aNsHfb2shoSx3shiZNmjWI_XypdGj5jP0KLPbVjt1SKblGMl2c45BKCwvCdSTeC-sxEeDUgbiswt4IxBZV4Ks6VjrLBmJfoNZYmu3c3vDL4m59aduj5DttWSWcPxw_rL8wseTMtZ2zFN8ZhyTUNRNb_MAwkBzhLCOIHuhsJLKmJ7PFbTLRox6FJiVTP3KPwYW3xWdercYt1DzuXxmZFfsyzl339twoagf0Jg7_e0w6QHm8wouwHTtbdfHNbzHKP3dX5UlqszVvvF6xH_M81-lw-hFoDeWYkFbi-dvefjcF0fLMvL2fUr9W1iADnQFGRBrJi16ovAtxKrkHrqzS8JCpgDm824yS1BdhITvskHHxcg1w7ztCqjdf44AdZuuHMgQnHdaLbEF54PqR88vtfDZz8lSsXjVkEnniG3SZVa1DHQYZYJLpmp2vS6HDOmdXJ4lfwskr38lM9sfxmdLzS5LqBwIZfH-PD3PoRyOuKzl3I-pCU1atxWyJPtMwky3BtQ5Bqy_Hs9NsJhYwjALPvxhwQMpCwnkYYZX6fVmxgBRYe1e0ClDdFaR_0W00]--></g></svg>