<?xml version="1.0" encoding="us-ascii" standalone="no"?><svg xmlns="http://www.w3.org/2000/svg" xmlns:xlink="http://www.w3.org/1999/xlink" contentStyleType="text/css" height="562px" preserveAspectRatio="none" style="width:491px;height:562px;background:#FFFFFF;" version="1.1" viewBox="0 0 491 562" width="491px" zoomAndPan="magnify"><defs/><g><text fill="#000000" font-family="sans-serif" font-size="14" font-weight="bold" lengthAdjust="spacing" textLength="228" x="133" y="27.6738">System Sequence Diagram (SSD)</text><rect fill="#FFFFFF" height="345.8047" style="stroke:#181818;stroke-width:1.0;" width="10" x="36" y="127.2813"/><rect fill="#FFFFFF" height="28.5234" style="stroke:#181818;stroke-width:1.0;" width="10" x="438" y="147.8047"/><rect fill="#FFFFFF" height="268.2344" style="stroke:#181818;stroke-width:1.0;" width="10" x="438" y="204.8516"/><rect fill="#FFFFFF" height="52.0469" style="stroke:#181818;stroke-width:1.0;" width="10" x="443" y="290.9453"/><rect fill="#FFFFFF" height="35.5234" style="stroke:#181818;stroke-width:1.0;" width="10" x="443" y="371.5156"/><rect fill="#FFFFFF" height="28.5234" style="stroke:#181818;stroke-width:1.0;" width="10" x="443" y="435.5625"/><rect fill="none" height="73.5703" style="stroke:#000000;stroke-width:1.5;" width="475" x="10" y="305.9453"/><line style="stroke:#181818;stroke-width:0.5;stroke-dasharray:5.0,5.0;" x1="41" x2="41" y1="117.2813" y2="482.0859"/><line style="stroke:#181818;stroke-width:0.5;stroke-dasharray:5.0,5.0;" x1="443" x2="443" y1="117.2813" y2="482.0859"/><text fill="#000000" font-family="sans-serif" font-size="14" lengthAdjust="spacing" textLength="36" x="20" y="114.3145">Client</text><ellipse cx="41" cy="50.1406" fill="#E3E3E3" rx="8" ry="8" style="stroke:#181818;stroke-width:0.5;"/><path d="M41,58.1406 L41,85.1406 M28,66.1406 L54,66.1406 M41,85.1406 L28,100.1406 M41,85.1406 L54,100.1406 " fill="none" style="stroke:#181818;stroke-width:0.5;"/><text fill="#000000" font-family="sans-serif" font-size="14" lengthAdjust="spacing" textLength="36" x="20" y="493.7598">Client</text><ellipse cx="41" cy="505.2266" fill="#E3E3E3" rx="8" ry="8" style="stroke:#181818;stroke-width:0.5;"/><path d="M41,513.2266 L41,540.2266 M28,521.2266 L54,521.2266 M41,540.2266 L28,555.2266 M41,540.2266 L54,555.2266 " fill="none" style="stroke:#181818;stroke-width:0.5;"/><rect fill="#E3E3E3" height="29.6406" rx="2.5" ry="2.5" style="stroke:#181818;stroke-width:0.5;" width="64" x="411" y="86.6406"/><text fill="#000000" font-family="sans-serif" font-size="14" lengthAdjust="spacing" textLength="50" x="418" y="106.3145">:System</text><rect fill="#E3E3E3" height="29.6406" rx="2.5" ry="2.5" style="stroke:#181818;stroke-width:0.5;" width="64" x="411" y="481.0859"/><text fill="#000000" font-family="sans-serif" font-size="14" lengthAdjust="spacing" textLength="50" x="418" y="500.7598">:System</text><rect fill="#FFFFFF" height="345.8047" style="stroke:#181818;stroke-width:1.0;" width="10" x="36" y="127.2813"/><rect fill="#FFFFFF" height="28.5234" style="stroke:#181818;stroke-width:1.0;" width="10" x="438" y="147.8047"/><rect fill="#FFFFFF" height="268.2344" style="stroke:#181818;stroke-width:1.0;" width="10" x="438" y="204.8516"/><rect fill="#FFFFFF" height="52.0469" style="stroke:#181818;stroke-width:1.0;" width="10" x="443" y="290.9453"/><rect fill="#FFFFFF" height="35.5234" style="stroke:#181818;stroke-width:1.0;" width="10" x="443" y="371.5156"/><rect fill="#FFFFFF" height="28.5234" style="stroke:#181818;stroke-width:1.0;" width="10" x="443" y="435.5625"/><polygon fill="#181818" points="426,143.8047,436,147.8047,426,151.8047,430,147.8047" style="stroke:#181818;stroke-width:1.0;"/><line style="stroke:#181818;stroke-width:1.0;" x1="46" x2="432" y1="147.8047" y2="147.8047"/><text fill="#000000" font-family="sans-serif" font-size="13" font-weight="bold" lengthAdjust="spacing" textLength="7" x="53" y="143.0498">1</text><text fill="#000000" font-family="sans-serif" font-size="13" lengthAdjust="spacing" textLength="281" x="64" y="143.0498">asks to accept or reject the appointment request</text><polygon fill="#181818" points="57,172.3281,47,176.3281,57,180.3281,53,176.3281" style="stroke:#181818;stroke-width:1.0;"/><line style="stroke:#181818;stroke-width:1.0;stroke-dasharray:2.0,2.0;" x1="51" x2="442" y1="176.3281" y2="176.3281"/><text fill="#000000" font-family="sans-serif" font-size="13" font-weight="bold" lengthAdjust="spacing" textLength="7" x="63" y="171.5732">2</text><text fill="#000000" font-family="sans-serif" font-size="13" lengthAdjust="spacing" textLength="357" x="74" y="171.5732">shows appointment request list and asks to accept or request</text><polygon fill="#181818" points="426,200.8516,436,204.8516,426,208.8516,430,204.8516" style="stroke:#181818;stroke-width:1.0;"/><line style="stroke:#181818;stroke-width:1.0;" x1="46" x2="432" y1="204.8516" y2="204.8516"/><text fill="#000000" font-family="sans-serif" font-size="13" font-weight="bold" lengthAdjust="spacing" textLength="7" x="53" y="200.0967">3</text><text fill="#000000" font-family="sans-serif" font-size="13" lengthAdjust="spacing" textLength="164" x="64" y="200.0967">selects appointment request</text><polygon fill="#181818" points="57,258.4219,47,262.4219,57,266.4219,53,262.4219" style="stroke:#181818;stroke-width:1.0;"/><line style="stroke:#181818;stroke-width:1.0;stroke-dasharray:2.0,2.0;" x1="51" x2="437" y1="262.4219" y2="262.4219"/><text fill="#000000" font-family="sans-serif" font-size="13" font-weight="bold" lengthAdjust="spacing" textLength="7" x="63" y="243.1436">4</text><text fill="#000000" font-family="sans-serif" font-size="13" lengthAdjust="spacing" textLength="314" x="74" y="228.6201">shows appointment request data (property information,</text><text fill="#000000" font-family="sans-serif" font-size="13" lengthAdjust="spacing" textLength="327" x="74" y="243.1436">date of the appointment, agent name and phone number)</text><text fill="#000000" font-family="sans-serif" font-size="13" lengthAdjust="spacing" textLength="162" x="74" y="257.667">and asks to accept or reject</text><polygon fill="#181818" points="431,286.9453,441,290.9453,431,294.9453,435,290.9453" style="stroke:#181818;stroke-width:1.0;"/><line style="stroke:#181818;stroke-width:1.0;" x1="46" x2="437" y1="290.9453" y2="290.9453"/><text fill="#000000" font-family="sans-serif" font-size="13" font-weight="bold" lengthAdjust="spacing" textLength="7" x="53" y="286.1904">5</text><text fill="#000000" font-family="sans-serif" font-size="13" lengthAdjust="spacing" textLength="226" x="64" y="286.1904">accepts or rejects appointment request</text><path d="M10,305.9453 L71,305.9453 L71,312.4688 L61,322.4688 L10,322.4688 L10,305.9453 " fill="#EEEEEE" style="stroke:#000000;stroke-width:1.5;"/><rect fill="none" height="73.5703" style="stroke:#000000;stroke-width:1.5;" width="475" x="10" y="305.9453"/><text fill="#000000" font-family="sans-serif" font-size="13" font-weight="bold" lengthAdjust="spacing" textLength="16" x="25" y="318.7139">alt</text><text fill="#000000" font-family="sans-serif" font-size="11" font-weight="bold" lengthAdjust="spacing" textLength="188" x="86" y="317.9033">[rejects the appointment request]</text><polygon fill="#181818" points="57,338.9922,47,342.9922,57,346.9922,53,342.9922" style="stroke:#181818;stroke-width:1.0;"/><line style="stroke:#181818;stroke-width:1.0;stroke-dasharray:2.0,2.0;" x1="51" x2="437" y1="342.9922" y2="342.9922"/><text fill="#000000" font-family="sans-serif" font-size="13" font-weight="bold" lengthAdjust="spacing" textLength="7" x="63" y="338.2373">6</text><text fill="#000000" font-family="sans-serif" font-size="13" lengthAdjust="spacing" textLength="130" x="74" y="338.2373">requests data (reason)</text><polygon fill="#181818" points="431,367.5156,441,371.5156,431,375.5156,435,371.5156" style="stroke:#181818;stroke-width:1.0;"/><line style="stroke:#181818;stroke-width:1.0;" x1="46" x2="437" y1="371.5156" y2="371.5156"/><text fill="#000000" font-family="sans-serif" font-size="13" font-weight="bold" lengthAdjust="spacing" textLength="7" x="53" y="366.7607">7</text><text fill="#000000" font-family="sans-serif" font-size="13" lengthAdjust="spacing" textLength="122" x="64" y="366.7607">types requested data</text><polygon fill="#181818" points="57,403.0391,47,407.0391,57,411.0391,53,407.0391" style="stroke:#181818;stroke-width:1.0;"/><line style="stroke:#181818;stroke-width:1.0;stroke-dasharray:2.0,2.0;" x1="51" x2="437" y1="407.0391" y2="407.0391"/><text fill="#000000" font-family="sans-serif" font-size="13" font-weight="bold" lengthAdjust="spacing" textLength="7" x="63" y="402.2842">8</text><text fill="#000000" font-family="sans-serif" font-size="13" lengthAdjust="spacing" textLength="184" x="74" y="402.2842">shows data and asks to confirm</text><polygon fill="#181818" points="431,431.5625,441,435.5625,431,439.5625,435,435.5625" style="stroke:#181818;stroke-width:1.0;"/><line style="stroke:#181818;stroke-width:1.0;" x1="46" x2="437" y1="435.5625" y2="435.5625"/><text fill="#000000" font-family="sans-serif" font-size="13" font-weight="bold" lengthAdjust="spacing" textLength="7" x="53" y="430.8076">9</text><text fill="#000000" font-family="sans-serif" font-size="13" lengthAdjust="spacing" textLength="78" x="64" y="430.8076">confirms data</text><polygon fill="#181818" points="57,460.0859,47,464.0859,57,468.0859,53,464.0859" style="stroke:#181818;stroke-width:1.0;"/><line style="stroke:#181818;stroke-width:1.0;stroke-dasharray:2.0,2.0;" x1="51" x2="437" y1="464.0859" y2="464.0859"/><text fill="#000000" font-family="sans-serif" font-size="13" font-weight="bold" lengthAdjust="spacing" textLength="14" x="63" y="459.3311">10</text><text fill="#000000" font-family="sans-serif" font-size="13" lengthAdjust="spacing" textLength="147" x="81" y="459.3311">shows operation success</text><!--SRC=[jL8xRiCm3Drz2Y9J0YGNyD2bkO7NBgnCsseiIXNf1hvzvLyI57RG3lLW413VXtoKY-M04HqupzuqqJi2ZHrbSdi9Q2vOKw5zIn39A7BTFZP8WwM_MgwXmbOeozHgQYrwKN9Gq6T7R0ZE5kkXVLyKvqEMOQUUE_TECTL6VOJTQsk9TGSeC9LP4b1hR41MsEKJu_W-bIFIVg7I0iWWVLCDfvV5GvuW5m7rWCPGK4XgaJxIBA0D0ORWBQiRG76mAphotCWNDPY_cVQK56QjF6t1NsMD2bgRViZbgecxMachUYl32BN9klotxn8LOH-Y3nIr1ykLZmxLUZx26vU3WAz-Bl08wLOI2MEwf67eq7Wcc98-9DpM8eOqjkCR6-NU-SVXiTKRy5dYgqlAbnQPLn89nVFXXlXbSZbe7qWMDYf7kctJn6MsOMWARNJpk4_ZkRBHRPpJkgSP8q_CF7SndCTu5I1TYabawvg_0G00]--></g></svg>