<?xml version="1.0" encoding="UTF-8" standalone="no"?><svg xmlns="http://www.w3.org/2000/svg" xmlns:xlink="http://www.w3.org/1999/xlink" contentStyleType="text/css" height="594px" preserveAspectRatio="none" style="width:2441px;height:594px;background:#FFFFFF;" version="1.1" viewBox="0 0 2441 594" width="2441px" zoomAndPan="magnify"><defs/><g><!--class Owner--><g id="elem_Owner"><rect codeLine="11" fill="#F1F1F1" height="97.1094" id="Owner" rx="2.5" ry="2.5" style="stroke:#181818;stroke-width:0.5;" width="193" x="1422" y="268.66"/><ellipse cx="1483" cy="285.66" fill="#ADD1B2" rx="12" ry="12" style="stroke:#181818;stroke-width:1.0;"/><path d="M1485.8066,292.7401 Q1485.123,293.0916 1484.3711,293.2674 Q1483.6191,293.4432 1482.7891,293.4432 Q1479.8398,293.4432 1478.2871,291.4998 Q1476.7344,289.5565 1476.7344,285.8846 Q1476.7344,282.203 1478.2871,280.2596 Q1479.8398,278.3163 1482.7891,278.3163 Q1483.6191,278.3163 1484.3809,278.492 Q1485.1426,278.6678 1485.8066,279.0194 L1485.8066,282.2225 Q1485.0645,281.5389 1484.3662,281.2215 Q1483.668,280.9041 1482.9258,280.9041 Q1481.3438,280.9041 1480.5381,282.159 Q1479.7324,283.4139 1479.7324,285.8846 Q1479.7324,288.3455 1480.5381,289.6004 Q1481.3438,290.8553 1482.9258,290.8553 Q1483.668,290.8553 1484.3662,290.5379 Q1485.0645,290.2205 1485.8066,289.537 Z " fill="#000000"/><text fill="#000000" font-family="sans-serif" font-size="20" lengthAdjust="spacing" textLength="62" x="1505" y="293.2186">Owner</text><line style="stroke:#181818;stroke-width:0.5;" x1="1423" x2="1614" y1="302.66" y2="302.66"/><text fill="#000000" font-family="sans-serif" font-size="20" lengthAdjust="spacing" textLength="127" x="1428" y="325.9959">-String name</text><text fill="#000000" font-family="sans-serif" font-size="20" lengthAdjust="spacing" textLength="181" x="1428" y="349.5506">-int phoneNumber</text><line style="stroke:#181818;stroke-width:0.5;" x1="1423" x2="1614" y1="357.7694" y2="357.7694"/></g><!--class Property--><g id="elem_Property"><rect codeLine="16" fill="#F1F1F1" height="191.3281" id="Property" rx="2.5" ry="2.5" style="stroke:#181818;stroke-width:0.5;" width="572" x="462.5" y="395.77"/><ellipse cx="704" cy="412.77" fill="#ADD1B2" rx="12" ry="12" style="stroke:#181818;stroke-width:1.0;"/><path d="M706.8066,419.8501 Q706.123,420.2016 705.3711,420.3774 Q704.6191,420.5532 703.7891,420.5532 Q700.8398,420.5532 699.2871,418.6098 Q697.7344,416.6665 697.7344,412.9946 Q697.7344,409.313 699.2871,407.3696 Q700.8398,405.4263 703.7891,405.4263 Q704.6191,405.4263 705.3809,405.602 Q706.1426,405.7778 706.8066,406.1294 L706.8066,409.3325 Q706.0645,408.6489 705.3662,408.3315 Q704.668,408.0141 703.9258,408.0141 Q702.3438,408.0141 701.5381,409.269 Q700.7324,410.5239 700.7324,412.9946 Q700.7324,415.4555 701.5381,416.7104 Q702.3438,417.9653 703.9258,417.9653 Q704.668,417.9653 705.3662,417.6479 Q706.0645,417.3305 706.8066,416.647 Z " fill="#000000"/><text fill="#000000" font-family="sans-serif" font-size="20" lengthAdjust="spacing" textLength="80" x="726" y="420.3286">Property</text><line style="stroke:#181818;stroke-width:0.5;" x1="463.5" x2="1033.5" y1="429.77" y2="429.77"/><text fill="#000000" font-family="sans-serif" font-size="20" lengthAdjust="spacing" textLength="84" x="468.5" y="453.1059">-int area</text><text fill="#000000" font-family="sans-serif" font-size="20" lengthAdjust="spacing" textLength="150" x="468.5" y="476.6606">-String location</text><text fill="#000000" font-family="sans-serif" font-size="20" lengthAdjust="spacing" textLength="340" x="468.5" y="500.2153">-String distanceFromTheCityCentre</text><line style="stroke:#181818;stroke-width:0.5;" x1="463.5" x2="1033.5" y1="508.4341" y2="508.4341"/><text fill="#000000" font-family="sans-serif" font-size="20" lengthAdjust="spacing" textLength="560" x="468.5" y="531.77">+createAddress(streetm zip_code, state, district(opt), city)</text><text fill="#000000" font-family="sans-serif" font-size="20" lengthAdjust="spacing" textLength="147" x="468.5" y="555.3247">+addPhoto(url)</text><text fill="#000000" font-family="sans-serif" font-size="20" lengthAdjust="spacing" textLength="277" x="468.5" y="578.8794">+addPhotoList(photography)</text></g><!--class Apartment--><g id="elem_Apartment"><rect codeLine="26" fill="#F1F1F1" height="167.7734" id="Apartment" rx="2.5" ry="2.5" style="stroke:#181818;stroke-width:0.5;" width="307" x="7" y="407.55"/><ellipse cx="105" cy="424.55" fill="#ADD1B2" rx="12" ry="12" style="stroke:#181818;stroke-width:1.0;"/><path d="M107.8066,431.6301 Q107.123,431.9816 106.3711,432.1574 Q105.6191,432.3332 104.7891,432.3332 Q101.8398,432.3332 100.2871,430.3898 Q98.7344,428.4465 98.7344,424.7746 Q98.7344,421.093 100.2871,419.1496 Q101.8398,417.2063 104.7891,417.2063 Q105.6191,417.2063 106.3809,417.382 Q107.1426,417.5578 107.8066,417.9094 L107.8066,421.1125 Q107.0645,420.4289 106.3662,420.1115 Q105.668,419.7941 104.9258,419.7941 Q103.3438,419.7941 102.5381,421.049 Q101.7324,422.3039 101.7324,424.7746 Q101.7324,427.2355 102.5381,428.4904 Q103.3438,429.7453 104.9258,429.7453 Q105.668,429.7453 106.3662,429.4279 Q107.0645,429.1105 107.8066,428.427 Z " fill="#000000"/><text fill="#000000" font-family="sans-serif" font-size="20" lengthAdjust="spacing" textLength="102" x="127" y="432.1086">Apartment</text><line style="stroke:#181818;stroke-width:0.5;" x1="8" x2="313" y1="441.55" y2="441.55"/><text fill="#000000" font-family="sans-serif" font-size="20" lengthAdjust="spacing" textLength="238" x="13" y="464.8859">-int numberOfBedrooms</text><text fill="#000000" font-family="sans-serif" font-size="20" lengthAdjust="spacing" textLength="244" x="13" y="488.4406">-int numberOfBathrooms</text><text fill="#000000" font-family="sans-serif" font-size="20" lengthAdjust="spacing" textLength="279" x="13" y="511.9953">-int numberOfParkingSpaces</text><text fill="#000000" font-family="sans-serif" font-size="20" lengthAdjust="spacing" textLength="295" x="13" y="535.55">-boolean avaliableEquipement</text><line style="stroke:#181818;stroke-width:0.5;" x1="8" x2="313" y1="543.7688" y2="543.7688"/><text fill="#000000" font-family="sans-serif" font-size="20" lengthAdjust="spacing" textLength="263" x="13" y="567.1047">+getAvaliableEquipement()</text></g><!--class House--><g id="elem_House"><rect codeLine="35" fill="#F1F1F1" height="120.6641" id="House" rx="2.5" ry="2.5" style="stroke:#181818;stroke-width:0.5;" width="327" x="1183" y="431.1"/><ellipse cx="1312" cy="448.1" fill="#ADD1B2" rx="12" ry="12" style="stroke:#181818;stroke-width:1.0;"/><path d="M1314.8066,455.1801 Q1314.123,455.5316 1313.3711,455.7074 Q1312.6191,455.8832 1311.7891,455.8832 Q1308.8398,455.8832 1307.2871,453.9398 Q1305.7344,451.9965 1305.7344,448.3246 Q1305.7344,444.643 1307.2871,442.6996 Q1308.8398,440.7563 1311.7891,440.7563 Q1312.6191,440.7563 1313.3809,440.932 Q1314.1426,441.1078 1314.8066,441.4594 L1314.8066,444.6625 Q1314.0645,443.9789 1313.3662,443.6615 Q1312.668,443.3441 1311.9258,443.3441 Q1310.3438,443.3441 1309.5381,444.599 Q1308.7324,445.8539 1308.7324,448.3246 Q1308.7324,450.7855 1309.5381,452.0404 Q1310.3438,453.2953 1311.9258,453.2953 Q1312.668,453.2953 1313.3662,452.9779 Q1314.0645,452.6605 1314.8066,451.977 Z " fill="#000000"/><text fill="#000000" font-family="sans-serif" font-size="20" lengthAdjust="spacing" textLength="60" x="1334" y="455.6586">House</text><line style="stroke:#181818;stroke-width:0.5;" x1="1184" x2="1509" y1="465.1" y2="465.1"/><text fill="#000000" font-family="sans-serif" font-size="20" lengthAdjust="spacing" textLength="315" x="1189" y="488.4359">-boolean existenceOfABasement</text><text fill="#000000" font-family="sans-serif" font-size="20" lengthAdjust="spacing" textLength="240" x="1189" y="511.9906">-boolean inhabitableLoft</text><text fill="#000000" font-family="sans-serif" font-size="20" lengthAdjust="spacing" textLength="208" x="1189" y="535.5453">-String sunExpousere</text><line style="stroke:#181818;stroke-width:0.5;" x1="1184" x2="1509" y1="543.7641" y2="543.7641"/></g><!--class Repositories--><g id="elem_Repositories"><rect codeLine="41" fill="#F1F1F1" height="97.1094" id="Repositories" rx="2.5" ry="2.5" style="stroke:#181818;stroke-width:0.5;" width="288" x="1378.5" y="7"/><ellipse cx="1458.5" cy="24" fill="#ADD1B2" rx="12" ry="12" style="stroke:#181818;stroke-width:1.0;"/><path d="M1461.3066,31.0801 Q1460.623,31.4316 1459.8711,31.6074 Q1459.1191,31.7832 1458.2891,31.7832 Q1455.3398,31.7832 1453.7871,29.8398 Q1452.2344,27.8965 1452.2344,24.2246 Q1452.2344,20.543 1453.7871,18.5996 Q1455.3398,16.6563 1458.2891,16.6563 Q1459.1191,16.6563 1459.8809,16.832 Q1460.6426,17.0078 1461.3066,17.3594 L1461.3066,20.5625 Q1460.5645,19.8789 1459.8662,19.5615 Q1459.168,19.2441 1458.4258,19.2441 Q1456.8438,19.2441 1456.0381,20.499 Q1455.2324,21.7539 1455.2324,24.2246 Q1455.2324,26.6855 1456.0381,27.9404 Q1456.8438,29.1953 1458.4258,29.1953 Q1459.168,29.1953 1459.8662,28.8779 Q1460.5645,28.5605 1461.3066,27.877 Z " fill="#000000"/><text fill="#000000" font-family="sans-serif" font-size="20" lengthAdjust="spacing" textLength="119" x="1480.5" y="31.5586">Repositories</text><line style="stroke:#181818;stroke-width:0.5;" x1="1379.5" x2="1665.5" y1="41" y2="41"/><line style="stroke:#181818;stroke-width:0.5;" x1="1379.5" x2="1665.5" y1="49" y2="49"/><text fill="#000000" font-family="sans-serif" font-size="20" lengthAdjust="spacing" textLength="145" x="1384.5" y="72.3359">-Repositories()</text><text fill="#000000" font-family="sans-serif" font-size="20" lengthAdjust="spacing" textLength="276" x="1384.5" y="95.8906">+getInstance() : Repositories</text></g><!--class PropertyRepository--><g id="elem_PropertyRepository"><rect codeLine="46" fill="#F1F1F1" height="50" id="PropertyRepository" rx="2.5" ry="2.5" style="stroke:#181818;stroke-width:0.5;" width="216" x="1075.5" y="176.89"/><ellipse cx="1091.5" cy="193.89" fill="#ADD1B2" rx="12" ry="12" style="stroke:#181818;stroke-width:1.0;"/><path d="M1094.3066,200.9701 Q1093.623,201.3216 1092.8711,201.4974 Q1092.1191,201.6732 1091.2891,201.6732 Q1088.3398,201.6732 1086.7871,199.7298 Q1085.2344,197.7865 1085.2344,194.1146 Q1085.2344,190.433 1086.7871,188.4896 Q1088.3398,186.5463 1091.2891,186.5463 Q1092.1191,186.5463 1092.8809,186.722 Q1093.6426,186.8978 1094.3066,187.2494 L1094.3066,190.4525 Q1093.5645,189.7689 1092.8662,189.4515 Q1092.168,189.1341 1091.4258,189.1341 Q1089.8438,189.1341 1089.0381,190.389 Q1088.2324,191.6439 1088.2324,194.1146 Q1088.2324,196.5755 1089.0381,197.8304 Q1089.8438,199.0853 1091.4258,199.0853 Q1092.168,199.0853 1092.8662,198.7679 Q1093.5645,198.4505 1094.3066,197.767 Z " fill="#000000"/><text fill="#000000" font-family="sans-serif" font-size="20" lengthAdjust="spacing" textLength="182" x="1106.5" y="201.4486">PropertyRepository</text><line style="stroke:#181818;stroke-width:0.5;" x1="1076.5" x2="1290.5" y1="210.89" y2="210.89"/><line style="stroke:#181818;stroke-width:0.5;" x1="1076.5" x2="1290.5" y1="218.89" y2="218.89"/></g><!--class OwnerRepository--><g id="elem_OwnerRepository"><rect codeLine="50" fill="#F1F1F1" height="97.1094" id="OwnerRepository" rx="2.5" ry="2.5" style="stroke:#181818;stroke-width:0.5;" width="232" x="1155.5" y="268.66"/><ellipse cx="1186.8" cy="285.66" fill="#ADD1B2" rx="12" ry="12" style="stroke:#181818;stroke-width:1.0;"/><path d="M1189.6066,292.7401 Q1188.923,293.0916 1188.1711,293.2674 Q1187.4191,293.4432 1186.5891,293.4432 Q1183.6398,293.4432 1182.0871,291.4998 Q1180.5344,289.5565 1180.5344,285.8846 Q1180.5344,282.203 1182.0871,280.2596 Q1183.6398,278.3163 1186.5891,278.3163 Q1187.4191,278.3163 1188.1809,278.492 Q1188.9426,278.6678 1189.6066,279.0194 L1189.6066,282.2225 Q1188.8645,281.5389 1188.1662,281.2215 Q1187.468,280.9041 1186.7258,280.9041 Q1185.1438,280.9041 1184.3381,282.159 Q1183.5324,283.4139 1183.5324,285.8846 Q1183.5324,288.3455 1184.3381,289.6004 Q1185.1438,290.8553 1186.7258,290.8553 Q1187.468,290.8553 1188.1662,290.5379 Q1188.8645,290.2205 1189.6066,289.537 Z " fill="#000000"/><text fill="#000000" font-family="sans-serif" font-size="20" lengthAdjust="spacing" textLength="164" x="1205.2" y="293.2186">OwnerRepository</text><line style="stroke:#181818;stroke-width:0.5;" x1="1156.5" x2="1386.5" y1="302.66" y2="302.66"/><line style="stroke:#181818;stroke-width:0.5;" x1="1156.5" x2="1386.5" y1="310.66" y2="310.66"/><text fill="#000000" font-family="sans-serif" font-size="20" lengthAdjust="spacing" textLength="143" x="1161.5" y="333.9959">getUserName()</text><text fill="#000000" font-family="sans-serif" font-size="20" lengthAdjust="spacing" textLength="220" x="1161.5" y="357.5506">getUserPhonenumber()</text></g><!--class ResponseRepository--><g id="elem_ResponseRepository"><rect codeLine="55" fill="#F1F1F1" height="50" id="ResponseRepository" rx="2.5" ry="2.5" style="stroke:#181818;stroke-width:0.5;" width="228" x="2010.5" y="30.55"/><ellipse cx="2026.5" cy="47.55" fill="#ADD1B2" rx="12" ry="12" style="stroke:#181818;stroke-width:1.0;"/><path d="M2029.3066,54.6301 Q2028.623,54.9816 2027.8711,55.1574 Q2027.1191,55.3332 2026.2891,55.3332 Q2023.3398,55.3332 2021.7871,53.3898 Q2020.2344,51.4465 2020.2344,47.7746 Q2020.2344,44.093 2021.7871,42.1496 Q2023.3398,40.2063 2026.2891,40.2063 Q2027.1191,40.2063 2027.8809,40.382 Q2028.6426,40.5578 2029.3066,40.9094 L2029.3066,44.1125 Q2028.5645,43.4289 2027.8662,43.1115 Q2027.168,42.7941 2026.4258,42.7941 Q2024.8438,42.7941 2024.0381,44.049 Q2023.2324,45.3039 2023.2324,47.7746 Q2023.2324,50.2355 2024.0381,51.4904 Q2024.8438,52.7453 2026.4258,52.7453 Q2027.168,52.7453 2027.8662,52.4279 Q2028.5645,52.1105 2029.3066,51.427 Z " fill="#000000"/><text fill="#000000" font-family="sans-serif" font-size="20" lengthAdjust="spacing" textLength="194" x="2041.5" y="55.1086">ResponseRepository</text><line style="stroke:#181818;stroke-width:0.5;" x1="2011.5" x2="2237.5" y1="64.55" y2="64.55"/><line style="stroke:#181818;stroke-width:0.5;" x1="2011.5" x2="2237.5" y1="72.55" y2="72.55"/></g><!--class VisitRepository--><g id="elem_VisitRepository"><rect codeLine="58" fill="#F1F1F1" height="50" id="VisitRepository" rx="2.5" ry="2.5" style="stroke:#181818;stroke-width:0.5;" width="178" x="2256.5" y="466.44"/><ellipse cx="2272.5" cy="483.44" fill="#ADD1B2" rx="12" ry="12" style="stroke:#181818;stroke-width:1.0;"/><path d="M2275.3066,490.5201 Q2274.623,490.8716 2273.8711,491.0474 Q2273.1191,491.2232 2272.2891,491.2232 Q2269.3398,491.2232 2267.7871,489.2798 Q2266.2344,487.3365 2266.2344,483.6646 Q2266.2344,479.983 2267.7871,478.0396 Q2269.3398,476.0963 2272.2891,476.0963 Q2273.1191,476.0963 2273.8809,476.272 Q2274.6426,476.4478 2275.3066,476.7994 L2275.3066,480.0025 Q2274.5645,479.3189 2273.8662,479.0015 Q2273.168,478.6841 2272.4258,478.6841 Q2270.8438,478.6841 2270.0381,479.939 Q2269.2324,481.1939 2269.2324,483.6646 Q2269.2324,486.1255 2270.0381,487.3804 Q2270.8438,488.6353 2272.4258,488.6353 Q2273.168,488.6353 2273.8662,488.3179 Q2274.5645,488.0005 2275.3066,487.317 Z " fill="#000000"/><text fill="#000000" font-family="sans-serif" font-size="20" lengthAdjust="spacing" textLength="144" x="2287.5" y="490.9986">VisitRepository</text><line style="stroke:#181818;stroke-width:0.5;" x1="2257.5" x2="2433.5" y1="500.44" y2="500.44"/><line style="stroke:#181818;stroke-width:0.5;" x1="2257.5" x2="2433.5" y1="508.44" y2="508.44"/></g><!--class Agent--><g id="elem_Agent"><rect codeLine="61" fill="#F1F1F1" height="97.1094" id="Agent" rx="2.5" ry="2.5" style="stroke:#181818;stroke-width:0.5;" width="220" x="1545.5" y="442.88"/><ellipse cx="1623" cy="459.88" fill="#ADD1B2" rx="12" ry="12" style="stroke:#181818;stroke-width:1.0;"/><path d="M1625.8066,466.9601 Q1625.123,467.3116 1624.3711,467.4874 Q1623.6191,467.6632 1622.7891,467.6632 Q1619.8398,467.6632 1618.2871,465.7198 Q1616.7344,463.7765 1616.7344,460.1046 Q1616.7344,456.423 1618.2871,454.4796 Q1619.8398,452.5363 1622.7891,452.5363 Q1623.6191,452.5363 1624.3809,452.712 Q1625.1426,452.8878 1625.8066,453.2394 L1625.8066,456.4425 Q1625.0645,455.7589 1624.3662,455.4415 Q1623.668,455.1241 1622.9258,455.1241 Q1621.3438,455.1241 1620.5381,456.379 Q1619.7324,457.6339 1619.7324,460.1046 Q1619.7324,462.5655 1620.5381,463.8204 Q1621.3438,465.0753 1622.9258,465.0753 Q1623.668,465.0753 1624.3662,464.7579 Q1625.0645,464.4405 1625.8066,463.757 Z " fill="#000000"/><text fill="#000000" font-family="sans-serif" font-size="20" lengthAdjust="spacing" textLength="56" x="1645" y="467.4386">Agent</text><line style="stroke:#181818;stroke-width:0.5;" x1="1546.5" x2="1764.5" y1="476.88" y2="476.88"/><text fill="#000000" font-family="sans-serif" font-size="20" lengthAdjust="spacing" textLength="127" x="1551.5" y="500.2159">-String name</text><text fill="#000000" font-family="sans-serif" font-size="20" lengthAdjust="spacing" textLength="208" x="1551.5" y="523.7706">-int passport number</text><line style="stroke:#181818;stroke-width:0.5;" x1="1546.5" x2="1764.5" y1="531.9894" y2="531.9894"/></g><!--class Visit--><g id="elem_Visit"><rect codeLine="66" fill="#F1F1F1" height="144.2188" id="Visit" rx="2.5" ry="2.5" style="stroke:#181818;stroke-width:0.5;" width="223" x="1999" y="419.33"/><ellipse cx="2085" cy="436.33" fill="#ADD1B2" rx="12" ry="12" style="stroke:#181818;stroke-width:1.0;"/><path d="M2087.8066,443.4101 Q2087.123,443.7616 2086.3711,443.9374 Q2085.6191,444.1132 2084.7891,444.1132 Q2081.8398,444.1132 2080.2871,442.1698 Q2078.7344,440.2265 2078.7344,436.5546 Q2078.7344,432.873 2080.2871,430.9296 Q2081.8398,428.9863 2084.7891,428.9863 Q2085.6191,428.9863 2086.3809,429.162 Q2087.1426,429.3378 2087.8066,429.6894 L2087.8066,432.8925 Q2087.0645,432.2089 2086.3662,431.8915 Q2085.668,431.5741 2084.9258,431.5741 Q2083.3438,431.5741 2082.5381,432.829 Q2081.7324,434.0839 2081.7324,436.5546 Q2081.7324,439.0155 2082.5381,440.2704 Q2083.3438,441.5253 2084.9258,441.5253 Q2085.668,441.5253 2086.3662,441.2079 Q2087.0645,440.8905 2087.8066,440.207 Z " fill="#000000"/><text fill="#000000" font-family="sans-serif" font-size="20" lengthAdjust="spacing" textLength="42" x="2107" y="443.8886">Visit</text><line style="stroke:#181818;stroke-width:0.5;" x1="2000" x2="2221" y1="453.33" y2="453.33"/><text fill="#000000" font-family="sans-serif" font-size="20" lengthAdjust="spacing" textLength="126" x="2005" y="476.6659">client's name</text><text fill="#000000" font-family="sans-serif" font-size="20" lengthAdjust="spacing" textLength="211" x="2005" y="500.2206">client's phoneNumber</text><text fill="#000000" font-family="sans-serif" font-size="20" lengthAdjust="spacing" textLength="42" x="2005" y="523.7753">date</text><text fill="#000000" font-family="sans-serif" font-size="20" lengthAdjust="spacing" textLength="84" x="2005" y="547.33">time slot</text><line style="stroke:#181818;stroke-width:0.5;" x1="2000" x2="2221" y1="555.5488" y2="555.5488"/></g><!--class Response--><g id="elem_Response"><rect codeLine="73" fill="#F1F1F1" height="73.5547" id="Response" rx="2.5" ry="2.5" style="stroke:#181818;stroke-width:0.5;" width="126" x="1592.5" y="165.11"/><ellipse cx="1608.5" cy="182.11" fill="#ADD1B2" rx="12" ry="12" style="stroke:#181818;stroke-width:1.0;"/><path d="M1611.3066,189.1901 Q1610.623,189.5416 1609.8711,189.7174 Q1609.1191,189.8932 1608.2891,189.8932 Q1605.3398,189.8932 1603.7871,187.9498 Q1602.2344,186.0065 1602.2344,182.3346 Q1602.2344,178.653 1603.7871,176.7096 Q1605.3398,174.7663 1608.2891,174.7663 Q1609.1191,174.7663 1609.8809,174.942 Q1610.6426,175.1178 1611.3066,175.4694 L1611.3066,178.6725 Q1610.5645,177.9889 1609.8662,177.6715 Q1609.168,177.3541 1608.4258,177.3541 Q1606.8438,177.3541 1606.0381,178.609 Q1605.2324,179.8639 1605.2324,182.3346 Q1605.2324,184.7955 1606.0381,186.0504 Q1606.8438,187.3053 1608.4258,187.3053 Q1609.168,187.3053 1609.8662,186.9879 Q1610.5645,186.6705 1611.3066,185.987 Z " fill="#000000"/><text fill="#000000" font-family="sans-serif" font-size="20" lengthAdjust="spacing" textLength="92" x="1623.5" y="189.6686">Response</text><line style="stroke:#181818;stroke-width:0.5;" x1="1593.5" x2="1717.5" y1="199.11" y2="199.11"/><text fill="#000000" font-family="sans-serif" font-size="20" lengthAdjust="spacing" textLength="109" x="1598.5" y="222.4459">valid or not</text><line style="stroke:#181818;stroke-width:0.5;" x1="1593.5" x2="1717.5" y1="230.6647" y2="230.6647"/></g><!--link Owner to Property--><g id="link_Owner_Property"><path codeLine="77" d="M1421.81,358.55 C1411.4,362.89 1404.5,365.77 1404.5,365.77 C1404.5,365.77 1165.5,395.77 1165.5,395.77 C1165.5,395.77 1110.52,408.25 1040.49,424.15 " fill="none" id="Owner-to-Property" style="stroke:#181818;stroke-width:1.0;"/><polygon fill="#181818" points="1035.99,425.4,1045.65,427.3194,1040.8672,424.2987,1043.8879,419.5159,1035.99,425.4" style="stroke:#181818;stroke-width:1.0;"/><polygon fill="#000000" points="1159.8258,401.7237,1174.8857,403.9042,1173.2912,394.6358,1159.8258,401.7237" style="stroke:#000000;stroke-width:1.0;"/><text fill="#000000" font-family="sans-serif" font-size="20" lengthAdjust="spacing" textLength="49" x="1180.71" y="407.9259">owns</text><text fill="#000000" font-family="sans-serif" font-size="20" lengthAdjust="spacing" textLength="13" x="1400.9095" y="357.1914">1</text><text fill="#000000" font-family="sans-serif" font-size="20" lengthAdjust="spacing" textLength="35" x="1042.1148" y="419.9252">0..*</text></g><!--link Property to House--><g id="link_Property_House"><path codeLine="78" d="M1034.8,491.44 C1083.33,491.44 1132.3,491.44 1176.59,491.44 " fill="none" id="Property-to-House" style="stroke:#181818;stroke-width:1.0;"/><polygon fill="#181818" points="1181.53,491.44,1172.53,487.44,1176.53,491.44,1172.53,495.44,1181.53,491.44" style="stroke:#181818;stroke-width:1.0;"/><polygon fill="#000000" points="1067.75,476.2173,1053.2779,471.5151,1053.2779,480.9196,1067.75,476.2173" style="stroke:#000000;stroke-width:1.0;"/><text fill="#000000" font-family="sans-serif" font-size="20" lengthAdjust="spacing" textLength="92" x="1072.75" y="483.7759">can be an</text></g><!--reverse link Apartment to Property--><g id="link_Apartment_Property"><path codeLine="79" d="M320.12,491.44 C364.15,491.44 413.3,491.44 462.16,491.44 " fill="none" id="Apartment-backto-Property" style="stroke:#181818;stroke-width:1.0;"/><polygon fill="#181818" points="315.22,491.44,324.22,495.44,320.22,491.44,324.22,487.44,315.22,491.44" style="stroke:#181818;stroke-width:1.0;"/><polygon fill="#000000" points="331.25,476.2173,345.7221,480.9196,345.7221,471.5151,331.25,476.2173" style="stroke:#000000;stroke-width:1.0;"/><text fill="#000000" font-family="sans-serif" font-size="20" lengthAdjust="spacing" textLength="92" x="352.25" y="483.7759">can be an</text></g><!--link OwnerRepository to Owner--><g id="link_OwnerRepository_Owner"><path codeLine="80" d="M1387.8,317.22 C1397.44,317.22 1407.63,317.22 1416.16,317.22 " fill="none" id="OwnerRepository-to-Owner" style="stroke:#181818;stroke-width:1.0;"/><polygon fill="#181818" points="1420.77,317.22,1411.77,313.22,1415.77,317.22,1411.77,321.22,1420.77,317.22" style="stroke:#181818;stroke-width:1.0;"/><text fill="#000000" font-family="sans-serif" font-size="20" lengthAdjust="spacing" textLength="35" x="1395.123" y="311.2685">0..*</text></g><!--link Repositories to OwnerRepository--><g id="link_Repositories_OwnerRepository"><path codeLine="81" d="M1476.17,104.48 C1432.31,149.86 1366.64,217.8 1321.58,264.41 " fill="none" id="Repositories-to-OwnerRepository" style="stroke:#181818;stroke-width:1.0;"/><polygon fill="#181818" points="1318.56,267.57,1327.6939,263.8861,1322.0378,263.9777,1321.9462,258.3216,1318.56,267.57" style="stroke:#181818;stroke-width:1.0;"/></g><!--link Repositories to PropertyRepository--><g id="link_Repositories_PropertyRepository"><path codeLine="82" d="M1410.09,104.41 C1355.64,127.6 1292.29,154.57 1246.44,174.09 " fill="none" id="Repositories-to-PropertyRepository" style="stroke:#181818;stroke-width:1.0;"/><polygon fill="#181818" points="1241.94,176.43,1251.7876,176.5872,1246.5409,174.4725,1248.6556,169.2258,1241.94,176.43" style="stroke:#181818;stroke-width:1.0;"/></g><!--link PropertyRepository to Property--><g id="link_PropertyRepository_Property"><path codeLine="83" d="M1146.79,227.15 C1092.05,263.34 985.96,333.47 897.03,392.25 " fill="none" id="PropertyRepository-to-Property" style="stroke:#181818;stroke-width:1.0;"/><polygon fill="#181818" points="893.27,395.4,902.9838,393.7744,897.4412,392.643,898.5726,387.1004,893.27,395.4" style="stroke:#181818;stroke-width:1.0;"/></g><!--link Owner to Agent--><g id="link_Owner_Agent"><path codeLine="84" d="M1556.66,366.19 C1574.4,388.49 1595.54,415.07 1613.71,437.91 " fill="none" id="Owner-to-Agent" style="stroke:#181818;stroke-width:1.0;"/><polygon fill="#181818" points="1617.31,441.42,1614.8367,431.8867,1614.197,437.5073,1608.5764,436.8676,1617.31,441.42" style="stroke:#181818;stroke-width:1.0;"/><polygon fill="#000000" points="1423.1702,396.0882,1417.841,381.835,1410.4809,387.6895,1423.1702,396.0882" style="stroke:#000000;stroke-width:1.0;"/><text fill="#000000" font-family="sans-serif" font-size="20" lengthAdjust="spacing" textLength="153" x="1431.19" y="397.3859">send a message</text></g><!--link Agent to Visit--><g id="link_Agent_Visit"><path codeLine="85" d="M1765.93,491.44 C1834.62,491.44 1922.89,491.44 1992.89,491.44 " fill="none" id="Agent-to-Visit" style="stroke:#181818;stroke-width:1.0;"/><polygon fill="#181818" points="1997.75,491.44,1988.75,487.44,1992.75,491.44,1988.75,495.44,1997.75,491.44" style="stroke:#181818;stroke-width:1.0;"/><text fill="#000000" font-family="sans-serif" font-size="20" lengthAdjust="spacing" textLength="197" x="1783.75" y="483.7759">verify the availability</text></g><!--reverse link Visit to VisitRepository--><g id="link_Visit_VisitRepository"><path codeLine="86" d="M2227.8,491.44 C2238.18,491.44 2248.58,491.44 2256.08,491.44 " fill="none" id="Visit-backto-VisitRepository" style="stroke:#181818;stroke-width:1.0;"/><polygon fill="#181818" points="2223.05,491.44,2232.05,495.44,2228.05,491.44,2232.05,487.44,2223.05,491.44" style="stroke:#181818;stroke-width:1.0;"/></g><!--link Repositories to VisitRepository--><g id="link_Repositories_VisitRepository"><path codeLine="87" d="M1662.8,104.55 C1845.69,167.12 2142.5,268.66 2142.5,268.66 C2142.5,268.66 2264.83,402.31 2319.57,462.11 " fill="none" id="Repositories-to-VisitRepository" style="stroke:#181818;stroke-width:1.0;"/><polygon fill="#181818" points="2322.39,465.28,2319.2669,455.9394,2319.0153,461.5907,2313.364,461.339,2322.39,465.28" style="stroke:#181818;stroke-width:1.0;"/></g><!--reverse link Response to Agent--><g id="link_Response_Agent"><path codeLine="88" d="M1653.6,244.54 C1653,257.6 1652.5,268.66 1652.5,268.66 C1652.5,268.66 1652.5,365.77 1652.5,365.77 C1652.5,365.77 1653.5,407.44 1654.35,442.59 " fill="none" id="Response-backto-Agent" style="stroke:#181818;stroke-width:1.0;"/><polygon fill="#181818" points="1653.86,239.85,1649.4532,248.6579,1653.6317,244.8448,1657.4448,249.0233,1653.86,239.85" style="stroke:#181818;stroke-width:1.0;"/><text fill="#000000" font-family="sans-serif" font-size="20" lengthAdjust="spacing" textLength="484" x="1653.5" y="325.0559">send a success message if the visit request is valid</text><text fill="#000000" font-family="sans-serif" font-size="20" lengthAdjust="spacing" textLength="13" x="1639.5627" y="265.9539">1</text><text fill="#000000" font-family="sans-serif" font-size="20" lengthAdjust="spacing" textLength="13" x="1640.2742" y="430.479">1</text></g><!--link Response to Owner--><g id="link_Response_Owner"><path codeLine="89" d="M1611.78,239.06 C1601.91,247.22 1591.25,256.04 1580.78,264.69 " fill="none" id="Response-to-Owner" style="stroke:#181818;stroke-width:1.0;"/><polygon fill="#181818" points="1577.31,268.39,1586.7964,265.7428,1581.1651,265.206,1581.702,259.5746,1577.31,268.39" style="stroke:#181818;stroke-width:1.0;"/><text fill="#000000" font-family="sans-serif" font-size="20" lengthAdjust="spacing" textLength="13" x="1591.5298" y="266.1149">1</text><text fill="#000000" font-family="sans-serif" font-size="20" lengthAdjust="spacing" textLength="13" x="1570.5255" y="256.2818">1</text></g><!--link Repositories to ResponseRepository--><g id="link_Repositories_ResponseRepository"><path codeLine="90" d="M1666.74,55.55 C1698.64,55.55 1723.17,55.55 1723.17,55.55 C1723.17,55.55 1923.83,55.55 1923.83,55.55 C1923.83,55.55 1961.57,55.55 2004.31,55.55 " fill="none" id="Repositories-to-ResponseRepository" style="stroke:#181818;stroke-width:1.0;"/><polygon fill="#181818" points="2009.1,55.55,2000.1,51.55,2004.1,55.55,2000.1,59.55,2009.1,55.55" style="stroke:#181818;stroke-width:1.0;"/></g><!--link ResponseRepository to Response--><g id="link_ResponseRepository_Response"><path codeLine="91" d="M2044.94,81.04 C1954.92,108.74 1809.77,153.41 1724.41,179.68 " fill="none" id="ResponseRepository-to-Response" style="stroke:#181818;stroke-width:1.0;"/><polygon fill="#181818" points="1719.87,181.38,1729.6491,182.5502,1724.648,179.9066,1727.2916,174.9054,1719.87,181.38" style="stroke:#181818;stroke-width:1.0;"/></g><!--SRC=[TLJ1JkCm4BtxAqQzqEvI17lS0r91e4L2KD7TlQxSP99OEBQn9q11- -yxJj8aJReSIZjlvlbvvet3ip9EUbbgcpnZ2Ybcij9qQmrjr0V2jtDn4lOvK5fZayBR4e5yXQ97d4oUPOuRsca4Zmb9a-jXGYXaQj-KoI6JEWmHhGpIpY4ugtVnn_343hIUh1XK9Lg6i2BoQbiHtYNMr7hFXJZHc16G1Q_oWY1LKOwoHeYw1XxV37hu5C1_omqJi2OZIsm2oX2umXfygCejUl5tNxRsrg6dNLi8CL5wbEtFbeZRAEl33gAf2joG16-vTJyBl5QqkqP37aMTznKI9Y9SfQd74EQ14QGIFfJxazWKJu7BYVz57gyIcbj7YrD8c6VHCiWqNHUMxBpoUXoxvxAvYzzoBrt1DTsjLjnDAbdBy5gcllfZTeMfjxOCno19nV-mjVGyfdp3di0zlhLMepGWNwLMSglnvgLI3kF9-nxaIAifEX-8_M6hW9yZHdpdso4tzp5RNSdGK1wcA5F8hQ98V6ypEfnDgCpDkulCF8xkg2TqDYYoNc7OU-KWE5_qikzCCzxv0huV94tTqw7ienwjBJc48ZKJ_s9H3spDzh0siexsR9ezxCuJ1cTDm25F1_vM73gAh79kM7l5eolHhmMdEzx3Tj0ZyeOXqOhfJa9VtaM6MnM1b2rTVo75xqdGbgPtQKYZAr9-0S0qESq6povcoqkOdP-TVPbr_UK1s3SJu59q4KwgZSDGmcRO8l3d4DUSqUt1A6iq6UXFh15nu9CbewE2QSBK2M8QEiXixnjLvet2W2O52IK_5lpeiim6M5xMa-24L_Ggsm4L63TEQRQ_viT2Z6pGtBqEJeMESjipOjUhs8MBMJUbNb6e4jxvq2bJMQtXjPRbyQN2GA12Cr7HrRUZl3ZULS_OrDnY6gfbxyFY7m00]--></g></svg>