<?xml version="1.0" encoding="UTF-8" standalone="no"?><svg xmlns="http://www.w3.org/2000/svg" xmlns:xlink="http://www.w3.org/1999/xlink" contentStyleType="text/css" height="1602px" preserveAspectRatio="none" style="width:1952px;height:1602px;background:#FFFFFF;" version="1.1" viewBox="0 0 1952 1602" width="1952px" zoomAndPan="magnify"><defs/><g><rect fill="#FFFFFF" height="1390.7422" style="stroke:#181818;stroke-width:1.0;" width="10" x="139.5" y="98.5547"/><rect fill="#FFFFFF" height="174.7734" style="stroke:#181818;stroke-width:1.0;" width="10" x="448.5" y="128.1094"/><rect fill="#FFFFFF" height="99.6641" style="stroke:#181818;stroke-width:1.0;" width="10" x="448.5" y="340.4375"/><rect fill="#FFFFFF" height="37.5547" style="stroke:#181818;stroke-width:1.0;" width="10" x="448.5" y="477.6563"/><rect fill="#FFFFFF" height="936.5313" style="stroke:#181818;stroke-width:1.0;" width="10" x="448.5" y="552.7656"/><rect fill="#FFFFFF" height="99.6641" style="stroke:#181818;stroke-width:1.0;" width="10" x="701.5" y="165.6641"/><rect fill="#FFFFFF" height="112.6641" style="stroke:#181818;stroke-width:1.0;" width="10" x="701.5" y="590.3203"/><rect fill="#FFFFFF" height="112.6641" style="stroke:#181818;stroke-width:1.0;" width="10" x="701.5" y="1028.0859"/><rect fill="#FFFFFF" height="187.7734" style="stroke:#181818;stroke-width:1.0;" width="10" x="701.5" y="1263.9688"/><rect fill="#FFFFFF" height="37.5547" style="stroke:#181818;stroke-width:1.0;" width="10" x="1650" y="627.875"/><rect fill="#FFFFFF" height="37.5547" style="stroke:#181818;stroke-width:1.0;" width="10" x="1650" y="1065.6406"/><rect fill="#FFFFFF" height="37.5547" style="stroke:#181818;stroke-width:1.0;" width="10" x="1650" y="1376.6328"/><rect fill="none" height="430.7656" style="stroke:#000000;stroke-width:1.5;" width="1762" x="10" y="717.9844"/><rect fill="none" height="109.2188" style="stroke:#000000;stroke-width:1.5;" width="533" x="20" y="759.0938"/><rect fill="none" height="109.2188" style="stroke:#000000;stroke-width:1.5;" width="533" x="20" y="882.3125"/><rect fill="none" height="334.5469" style="stroke:#000000;stroke-width:1.5;" width="1926" x="20" y="1162.75"/><line style="stroke:#181818;stroke-width:0.5;stroke-dasharray:5.0,5.0;" x1="144" x2="144" y1="88.5547" y2="1514.2969"/><line style="stroke:#181818;stroke-width:0.5;stroke-dasharray:5.0,5.0;" x1="453" x2="453" y1="88.5547" y2="1514.2969"/><line style="stroke:#181818;stroke-width:0.5;stroke-dasharray:5.0,5.0;" x1="706" x2="706" y1="88.5547" y2="1514.2969"/><line style="stroke:#181818;stroke-width:0.5;stroke-dasharray:5.0,5.0;" x1="913" x2="913" y1="88.5547" y2="1514.2969"/><line style="stroke:#181818;stroke-width:0.5;stroke-dasharray:5.0,5.0;" x1="1062" x2="1062" y1="88.5547" y2="1514.2969"/><line style="stroke:#181818;stroke-width:0.5;stroke-dasharray:5.0,5.0;" x1="1243" x2="1243" y1="88.5547" y2="1514.2969"/><line style="stroke:#181818;stroke-width:0.5;stroke-dasharray:5.0,5.0;" x1="1446" x2="1446" y1="88.5547" y2="1514.2969"/><line style="stroke:#181818;stroke-width:0.5;stroke-dasharray:5.0,5.0;" x1="1655" x2="1655" y1="88.5547" y2="1514.2969"/><line style="stroke:#181818;stroke-width:0.5;stroke-dasharray:5.0,5.0;" x1="1854" x2="1854" y1="88.5547" y2="1514.2969"/><text fill="#000000" font-family="sans-serif" font-size="20" lengthAdjust="spacing" textLength="223" x="30" y="84.3359">Organization Employee</text><ellipse cx="144.5" cy="13.5" fill="#E3E3E3" rx="8" ry="8" style="stroke:#181818;stroke-width:0.5;"/><path d="M144.5,21.5 L144.5,48.5 M131.5,29.5 L157.5,29.5 M144.5,48.5 L131.5,63.5 M144.5,48.5 L157.5,63.5 " fill="none" style="stroke:#181818;stroke-width:0.5;"/><text fill="#000000" font-family="sans-serif" font-size="20" lengthAdjust="spacing" textLength="223" x="30" y="1532.6328">Organization Employee</text><ellipse cx="144.5" cy="1545.3516" fill="#E3E3E3" rx="8" ry="8" style="stroke:#181818;stroke-width:0.5;"/><path d="M144.5,1553.3516 L144.5,1580.3516 M131.5,1561.3516 L157.5,1561.3516 M144.5,1580.3516 L131.5,1595.3516 M144.5,1580.3516 L157.5,1595.3516 " fill="none" style="stroke:#181818;stroke-width:0.5;"/><rect fill="#E3E3E3" height="37.5547" rx="2.5" ry="2.5" style="stroke:#181818;stroke-width:0.5;" width="179" x="364" y="50"/><text fill="#000000" font-family="sans-serif" font-size="20" lengthAdjust="spacing" textLength="165" x="371" y="76.3359">:CreateRequestUI</text><rect fill="#E3E3E3" height="37.5547" rx="2.5" ry="2.5" style="stroke:#181818;stroke-width:0.5;" width="179" x="364" y="1513.2969"/><text fill="#000000" font-family="sans-serif" font-size="20" lengthAdjust="spacing" textLength="165" x="371" y="1539.6328">:CreateRequestUI</text><rect fill="#E3E3E3" height="37.5547" rx="2.5" ry="2.5" style="stroke:#181818;stroke-width:0.5;" width="255" x="579" y="50"/><text fill="#000000" font-family="sans-serif" font-size="20" lengthAdjust="spacing" textLength="241" x="586" y="76.3359">:CreateRequestController</text><rect fill="#E3E3E3" height="37.5547" rx="2.5" ry="2.5" style="stroke:#181818;stroke-width:0.5;" width="255" x="579" y="1513.2969"/><text fill="#000000" font-family="sans-serif" font-size="20" lengthAdjust="spacing" textLength="241" x="586" y="1539.6328">:CreateRequestController</text><rect fill="#E3E3E3" height="37.5547" rx="2.5" ry="2.5" style="stroke:#181818;stroke-width:0.5;" width="139" x="844" y="50"/><text fill="#000000" font-family="sans-serif" font-size="20" lengthAdjust="spacing" textLength="125" x="851" y="76.3359">:Repositories</text><rect fill="#E3E3E3" height="37.5547" rx="2.5" ry="2.5" style="stroke:#181818;stroke-width:0.5;" width="139" x="844" y="1513.2969"/><text fill="#000000" font-family="sans-serif" font-size="20" lengthAdjust="spacing" textLength="125" x="851" y="1539.6328">:Repositories</text><rect fill="#E3E3E3" height="61.1094" rx="2.5" ry="2.5" style="stroke:#181818;stroke-width:0.5;" width="139" x="993" y="26.4453"/><text fill="#000000" font-family="sans-serif" font-size="20" lengthAdjust="spacing" textLength="114" x="1005.5" y="52.7813">repositories</text><text fill="#000000" font-family="sans-serif" font-size="20" lengthAdjust="spacing" textLength="125" x="1000" y="76.3359">:Repositories</text><rect fill="#E3E3E3" height="61.1094" rx="2.5" ry="2.5" style="stroke:#181818;stroke-width:0.5;" width="139" x="993" y="1513.2969"/><text fill="#000000" font-family="sans-serif" font-size="20" lengthAdjust="spacing" textLength="114" x="1005.5" y="1539.6328">repositories</text><text fill="#000000" font-family="sans-serif" font-size="20" lengthAdjust="spacing" textLength="125" x="1000" y="1563.1875">:Repositories</text><rect fill="#E3E3E3" height="61.1094" rx="2.5" ry="2.5" style="stroke:#181818;stroke-width:0.5;" width="202" x="1142" y="26.4453"/><text fill="#000000" font-family="sans-serif" font-size="20" lengthAdjust="spacing" textLength="188" x="1149" y="52.7813">PropertyRepository:</text><text fill="#000000" font-family="sans-serif" font-size="20" lengthAdjust="spacing" textLength="184" x="1151" y="76.3359">propertyRepository</text><rect fill="#E3E3E3" height="61.1094" rx="2.5" ry="2.5" style="stroke:#181818;stroke-width:0.5;" width="202" x="1142" y="1513.2969"/><text fill="#000000" font-family="sans-serif" font-size="20" lengthAdjust="spacing" textLength="188" x="1149" y="1539.6328">PropertyRepository:</text><text fill="#000000" font-family="sans-serif" font-size="20" lengthAdjust="spacing" textLength="184" x="1151" y="1563.1875">propertyRepository</text><rect fill="#E3E3E3" height="61.1094" rx="2.5" ry="2.5" style="stroke:#181818;stroke-width:0.5;" width="184" x="1354" y="26.4453"/><text fill="#000000" font-family="sans-serif" font-size="20" lengthAdjust="spacing" textLength="170" x="1361" y="52.7813">OwnerRepository:</text><text fill="#000000" font-family="sans-serif" font-size="20" lengthAdjust="spacing" textLength="160" x="1369" y="76.3359">ownerRepository</text><rect fill="#E3E3E3" height="61.1094" rx="2.5" ry="2.5" style="stroke:#181818;stroke-width:0.5;" width="184" x="1354" y="1513.2969"/><text fill="#000000" font-family="sans-serif" font-size="20" lengthAdjust="spacing" textLength="170" x="1361" y="1539.6328">OwnerRepository:</text><text fill="#000000" font-family="sans-serif" font-size="20" lengthAdjust="spacing" textLength="160" x="1369" y="1563.1875">ownerRepository</text><rect fill="#E3E3E3" height="61.1094" rx="2.5" ry="2.5" style="stroke:#181818;stroke-width:0.5;" width="214" x="1548" y="26.4453"/><text fill="#000000" font-family="sans-serif" font-size="20" lengthAdjust="spacing" textLength="200" x="1555" y="52.7813">ResponseRepository:</text><text fill="#000000" font-family="sans-serif" font-size="20" lengthAdjust="spacing" textLength="189" x="1560.5" y="76.3359">responseRepository</text><rect fill="#E3E3E3" height="61.1094" rx="2.5" ry="2.5" style="stroke:#181818;stroke-width:0.5;" width="214" x="1548" y="1513.2969"/><text fill="#000000" font-family="sans-serif" font-size="20" lengthAdjust="spacing" textLength="200" x="1555" y="1539.6328">ResponseRepository:</text><text fill="#000000" font-family="sans-serif" font-size="20" lengthAdjust="spacing" textLength="189" x="1560.5" y="1563.1875">responseRepository</text><rect fill="#E3E3E3" height="61.1094" rx="2.5" ry="2.5" style="stroke:#181818;stroke-width:0.5;" width="164" x="1772" y="26.4453"/><text fill="#000000" font-family="sans-serif" font-size="20" lengthAdjust="spacing" textLength="150" x="1779" y="52.7813">VisitRepository:</text><text fill="#000000" font-family="sans-serif" font-size="20" lengthAdjust="spacing" textLength="130" x="1792" y="76.3359">visitRpository</text><rect fill="#E3E3E3" height="61.1094" rx="2.5" ry="2.5" style="stroke:#181818;stroke-width:0.5;" width="164" x="1772" y="1513.2969"/><text fill="#000000" font-family="sans-serif" font-size="20" lengthAdjust="spacing" textLength="150" x="1779" y="1539.6328">VisitRepository:</text><text fill="#000000" font-family="sans-serif" font-size="20" lengthAdjust="spacing" textLength="130" x="1792" y="1563.1875">visitRpository</text><rect fill="#FFFFFF" height="1390.7422" style="stroke:#181818;stroke-width:1.0;" width="10" x="139.5" y="98.5547"/><rect fill="#FFFFFF" height="174.7734" style="stroke:#181818;stroke-width:1.0;" width="10" x="448.5" y="128.1094"/><rect fill="#FFFFFF" height="99.6641" style="stroke:#181818;stroke-width:1.0;" width="10" x="448.5" y="340.4375"/><rect fill="#FFFFFF" height="37.5547" style="stroke:#181818;stroke-width:1.0;" width="10" x="448.5" y="477.6563"/><rect fill="#FFFFFF" height="936.5313" style="stroke:#181818;stroke-width:1.0;" width="10" x="448.5" y="552.7656"/><rect fill="#FFFFFF" height="99.6641" style="stroke:#181818;stroke-width:1.0;" width="10" x="701.5" y="165.6641"/><rect fill="#FFFFFF" height="112.6641" style="stroke:#181818;stroke-width:1.0;" width="10" x="701.5" y="590.3203"/><rect fill="#FFFFFF" height="112.6641" style="stroke:#181818;stroke-width:1.0;" width="10" x="701.5" y="1028.0859"/><rect fill="#FFFFFF" height="187.7734" style="stroke:#181818;stroke-width:1.0;" width="10" x="701.5" y="1263.9688"/><rect fill="#FFFFFF" height="37.5547" style="stroke:#181818;stroke-width:1.0;" width="10" x="1650" y="627.875"/><rect fill="#FFFFFF" height="37.5547" style="stroke:#181818;stroke-width:1.0;" width="10" x="1650" y="1065.6406"/><rect fill="#FFFFFF" height="37.5547" style="stroke:#181818;stroke-width:1.0;" width="10" x="1650" y="1376.6328"/><polygon fill="#181818" points="436.5,124.1094,446.5,128.1094,436.5,132.1094,440.5,128.1094" style="stroke:#181818;stroke-width:1.0;"/><line style="stroke:#181818;stroke-width:1.0;" x1="149.5" x2="442.5" y1="128.1094" y2="128.1094"/><text fill="#000000" font-family="sans-serif" font-size="20" font-weight="bold" lengthAdjust="spacing" textLength="13" x="156.5" y="121.8906">1</text><text fill="#000000" font-family="sans-serif" font-size="20" lengthAdjust="spacing" textLength="221" x="173.5" y="121.8906">asks to shcedule a visit</text><polygon fill="#181818" points="689.5,161.6641,699.5,165.6641,689.5,169.6641,693.5,165.6641" style="stroke:#181818;stroke-width:1.0;"/><line style="stroke:#181818;stroke-width:1.0;" x1="458.5" x2="695.5" y1="165.6641" y2="165.6641"/><text fill="#000000" font-family="sans-serif" font-size="20" font-weight="bold" lengthAdjust="spacing" textLength="13" x="465.5" y="159.4453">2</text><text fill="#000000" font-family="sans-serif" font-size="20" lengthAdjust="spacing" textLength="135" x="482.5" y="159.4453">get a property</text><rect fill="none" height="57.1094" style="stroke:#000000;stroke-width:1.5;" width="261" x="576" y="173.6641"/><path d="M576,173.6641 L650,173.6641 L650,188.6641 L640,198.6641 L576,198.6641 L576,173.6641 " fill="#EEEEEE" style="stroke:#000000;stroke-width:2.0;"/><text fill="#000000" font-family="sans-serif" font-size="20" font-weight="bold" lengthAdjust="spacing" textLength="29" x="589" y="195">ref</text><text fill="#000000" font-family="sans-serif" font-size="20" lengthAdjust="spacing" textLength="158" x="627.5" y="222">Get Property List</text><polygon fill="#181818" points="469.5,261.3281,459.5,265.3281,469.5,269.3281,465.5,265.3281" style="stroke:#181818;stroke-width:1.0;"/><line style="stroke:#181818;stroke-width:1.0;stroke-dasharray:2.0,2.0;" x1="463.5" x2="705.5" y1="265.3281" y2="265.3281"/><text fill="#000000" font-family="sans-serif" font-size="20" font-weight="bold" lengthAdjust="spacing" textLength="13" x="475.5" y="259.1094">3</text><text fill="#000000" font-family="sans-serif" font-size="20" lengthAdjust="spacing" textLength="111" x="492.5" y="259.1094">propertylist</text><polygon fill="#181818" points="160.5,298.8828,150.5,302.8828,160.5,306.8828,156.5,302.8828" style="stroke:#181818;stroke-width:1.0;"/><line style="stroke:#181818;stroke-width:1.0;stroke-dasharray:2.0,2.0;" x1="154.5" x2="452.5" y1="302.8828" y2="302.8828"/><text fill="#000000" font-family="sans-serif" font-size="20" font-weight="bold" lengthAdjust="spacing" textLength="13" x="166.5" y="296.6641">4</text><text fill="#000000" font-family="sans-serif" font-size="20" lengthAdjust="spacing" textLength="182" x="183.5" y="296.6641">shows property list</text><polygon fill="#181818" points="436.5,336.4375,446.5,340.4375,436.5,344.4375,440.5,340.4375" style="stroke:#181818;stroke-width:1.0;"/><line style="stroke:#181818;stroke-width:1.0;" x1="149.5" x2="442.5" y1="340.4375" y2="340.4375"/><text fill="#000000" font-family="sans-serif" font-size="20" font-weight="bold" lengthAdjust="spacing" textLength="13" x="156.5" y="334.2188">5</text><text fill="#000000" font-family="sans-serif" font-size="20" lengthAdjust="spacing" textLength="153" x="173.5" y="334.2188">selects property</text><rect fill="none" height="57.1094" style="stroke:#000000;stroke-width:1.5;" width="205" x="361" y="348.4375"/><path d="M361,348.4375 L435,348.4375 L435,363.4375 L425,373.4375 L361,373.4375 L361,348.4375 " fill="#EEEEEE" style="stroke:#000000;stroke-width:2.0;"/><text fill="#000000" font-family="sans-serif" font-size="20" font-weight="bold" lengthAdjust="spacing" textLength="29" x="374" y="369.7734">ref</text><text fill="#000000" font-family="sans-serif" font-size="20" lengthAdjust="spacing" textLength="197" x="365" y="396.7734">Get user information</text><polygon fill="#181818" points="160.5,436.1016,150.5,440.1016,160.5,444.1016,156.5,440.1016" style="stroke:#181818;stroke-width:1.0;"/><line style="stroke:#181818;stroke-width:1.0;stroke-dasharray:2.0,2.0;" x1="154.5" x2="452.5" y1="440.1016" y2="440.1016"/><text fill="#000000" font-family="sans-serif" font-size="20" font-weight="bold" lengthAdjust="spacing" textLength="13" x="166.5" y="433.8828">6</text><text fill="#000000" font-family="sans-serif" font-size="20" lengthAdjust="spacing" textLength="124" x="183.5" y="433.8828">asks for date</text><polygon fill="#181818" points="436.5,473.6563,446.5,477.6563,436.5,481.6563,440.5,477.6563" style="stroke:#181818;stroke-width:1.0;"/><line style="stroke:#181818;stroke-width:1.0;" x1="149.5" x2="442.5" y1="477.6563" y2="477.6563"/><text fill="#000000" font-family="sans-serif" font-size="20" font-weight="bold" lengthAdjust="spacing" textLength="13" x="156.5" y="471.4375">7</text><text fill="#000000" font-family="sans-serif" font-size="20" lengthAdjust="spacing" textLength="125" x="173.5" y="471.4375">submits date</text><polygon fill="#181818" points="160.5,511.2109,150.5,515.2109,160.5,519.2109,156.5,515.2109" style="stroke:#181818;stroke-width:1.0;"/><line style="stroke:#181818;stroke-width:1.0;stroke-dasharray:2.0,2.0;" x1="154.5" x2="452.5" y1="515.2109" y2="515.2109"/><text fill="#000000" font-family="sans-serif" font-size="20" font-weight="bold" lengthAdjust="spacing" textLength="13" x="166.5" y="508.9922">8</text><text fill="#000000" font-family="sans-serif" font-size="20" lengthAdjust="spacing" textLength="166" x="183.5" y="508.9922">asks for time slot</text><polygon fill="#181818" points="436.5,548.7656,446.5,552.7656,436.5,556.7656,440.5,552.7656" style="stroke:#181818;stroke-width:1.0;"/><line style="stroke:#181818;stroke-width:1.0;" x1="149.5" x2="442.5" y1="552.7656" y2="552.7656"/><text fill="#000000" font-family="sans-serif" font-size="20" font-weight="bold" lengthAdjust="spacing" textLength="13" x="156.5" y="546.5469">9</text><text fill="#000000" font-family="sans-serif" font-size="20" lengthAdjust="spacing" textLength="167" x="173.5" y="546.5469">submits time slot</text><polygon fill="#181818" points="689.5,586.3203,699.5,590.3203,689.5,594.3203,693.5,590.3203" style="stroke:#181818;stroke-width:1.0;"/><line style="stroke:#181818;stroke-width:1.0;" x1="458.5" x2="695.5" y1="590.3203" y2="590.3203"/><text fill="#000000" font-family="sans-serif" font-size="20" font-weight="bold" lengthAdjust="spacing" textLength="26" x="465.5" y="584.1016">10</text><text fill="#000000" font-family="sans-serif" font-size="20" lengthAdjust="spacing" textLength="160" x="495.5" y="584.1016">checkVisitValid()</text><polygon fill="#181818" points="1638,623.875,1648,627.875,1638,631.875,1642,627.875" style="stroke:#181818;stroke-width:1.0;"/><line style="stroke:#181818;stroke-width:1.0;" x1="711.5" x2="1644" y1="627.875" y2="627.875"/><text fill="#000000" font-family="sans-serif" font-size="20" font-weight="bold" lengthAdjust="spacing" textLength="26" x="718.5" y="621.6563">11</text><text fill="#000000" font-family="sans-serif" font-size="20" lengthAdjust="spacing" textLength="160" x="748.5" y="621.6563">checkVisitValid()</text><polygon fill="#181818" points="722.5,661.4297,712.5,665.4297,722.5,669.4297,718.5,665.4297" style="stroke:#181818;stroke-width:1.0;"/><line style="stroke:#181818;stroke-width:1.0;stroke-dasharray:2.0,2.0;" x1="716.5" x2="1654" y1="665.4297" y2="665.4297"/><text fill="#000000" font-family="sans-serif" font-size="20" font-weight="bold" lengthAdjust="spacing" textLength="26" x="728.5" y="659.2109">12</text><text fill="#000000" font-family="sans-serif" font-size="20" lengthAdjust="spacing" textLength="189" x="758.5" y="659.2109">return True or False</text><polygon fill="#181818" points="469.5,698.9844,459.5,702.9844,469.5,706.9844,465.5,702.9844" style="stroke:#181818;stroke-width:1.0;"/><line style="stroke:#181818;stroke-width:1.0;stroke-dasharray:2.0,2.0;" x1="463.5" x2="705.5" y1="702.9844" y2="702.9844"/><text fill="#000000" font-family="sans-serif" font-size="20" font-weight="bold" lengthAdjust="spacing" textLength="26" x="475.5" y="696.7656">13</text><text fill="#000000" font-family="sans-serif" font-size="20" lengthAdjust="spacing" textLength="189" x="505.5" y="696.7656">return True or False</text><path d="M10,717.9844 L101,717.9844 L101,733.5391 L91,743.5391 L10,743.5391 L10,717.9844 " fill="#EEEEEE" style="stroke:#000000;stroke-width:1.5;"/><rect fill="none" height="430.7656" style="stroke:#000000;stroke-width:1.5;" width="1762" x="10" y="717.9844"/><text fill="#000000" font-family="sans-serif" font-size="20" font-weight="bold" lengthAdjust="spacing" textLength="46" x="25" y="738.3203">loop</text><text fill="#000000" font-family="sans-serif" font-size="20" font-weight="bold" lengthAdjust="spacing" textLength="640" x="116" y="739.3203">[while the answer is false - date and/or time slot are invalid]</text><path d="M20,759.0938 L99,759.0938 L99,774.6484 L89,784.6484 L20,784.6484 L20,759.0938 " fill="#EEEEEE" style="stroke:#000000;stroke-width:1.5;"/><rect fill="none" height="109.2188" style="stroke:#000000;stroke-width:1.5;" width="533" x="20" y="759.0938"/><text fill="#000000" font-family="sans-serif" font-size="20" font-weight="bold" lengthAdjust="spacing" textLength="34" x="35" y="779.4297">opt</text><text fill="#000000" font-family="sans-serif" font-size="20" font-weight="bold" lengthAdjust="spacing" textLength="162" x="114" y="780.4297">[date is invalid]</text><polygon fill="#181818" points="160.5,818.7578,150.5,822.7578,160.5,826.7578,156.5,822.7578" style="stroke:#181818;stroke-width:1.0;"/><line style="stroke:#181818;stroke-width:1.0;stroke-dasharray:2.0,2.0;" x1="154.5" x2="447.5" y1="822.7578" y2="822.7578"/><text fill="#000000" font-family="sans-serif" font-size="20" font-weight="bold" lengthAdjust="spacing" textLength="26" x="166.5" y="816.5391">14</text><text fill="#000000" font-family="sans-serif" font-size="20" lengthAdjust="spacing" textLength="203" x="196.5" y="816.5391">asks for another date</text><polygon fill="#181818" points="436.5,856.3125,446.5,860.3125,436.5,864.3125,440.5,860.3125" style="stroke:#181818;stroke-width:1.0;"/><line style="stroke:#181818;stroke-width:1.0;" x1="149.5" x2="442.5" y1="860.3125" y2="860.3125"/><text fill="#000000" font-family="sans-serif" font-size="20" font-weight="bold" lengthAdjust="spacing" textLength="26" x="156.5" y="854.0938">15</text><text fill="#000000" font-family="sans-serif" font-size="20" lengthAdjust="spacing" textLength="159" x="186.5" y="854.0938">submit new date</text><path d="M20,882.3125 L99,882.3125 L99,897.8672 L89,907.8672 L20,907.8672 L20,882.3125 " fill="#EEEEEE" style="stroke:#000000;stroke-width:1.5;"/><rect fill="none" height="109.2188" style="stroke:#000000;stroke-width:1.5;" width="533" x="20" y="882.3125"/><text fill="#000000" font-family="sans-serif" font-size="20" font-weight="bold" lengthAdjust="spacing" textLength="34" x="35" y="902.6484">opt</text><text fill="#000000" font-family="sans-serif" font-size="20" font-weight="bold" lengthAdjust="spacing" textLength="209" x="114" y="903.6484">[time slot is invalid]</text><polygon fill="#181818" points="160.5,941.9766,150.5,945.9766,160.5,949.9766,156.5,945.9766" style="stroke:#181818;stroke-width:1.0;"/><line style="stroke:#181818;stroke-width:1.0;stroke-dasharray:2.0,2.0;" x1="154.5" x2="447.5" y1="945.9766" y2="945.9766"/><text fill="#000000" font-family="sans-serif" font-size="20" font-weight="bold" lengthAdjust="spacing" textLength="26" x="166.5" y="939.7578">16</text><text fill="#000000" font-family="sans-serif" font-size="20" lengthAdjust="spacing" textLength="245" x="196.5" y="939.7578">asks for another time slot</text><polygon fill="#181818" points="436.5,979.5313,446.5,983.5313,436.5,987.5313,440.5,983.5313" style="stroke:#181818;stroke-width:1.0;"/><line style="stroke:#181818;stroke-width:1.0;" x1="149.5" x2="442.5" y1="983.5313" y2="983.5313"/><text fill="#000000" font-family="sans-serif" font-size="20" font-weight="bold" lengthAdjust="spacing" textLength="26" x="156.5" y="977.3125">17</text><text fill="#000000" font-family="sans-serif" font-size="20" lengthAdjust="spacing" textLength="201" x="186.5" y="977.3125">submit new time slot</text><polygon fill="#181818" points="689.5,1024.0859,699.5,1028.0859,689.5,1032.0859,693.5,1028.0859" style="stroke:#181818;stroke-width:1.0;"/><line style="stroke:#181818;stroke-width:1.0;" x1="458.5" x2="695.5" y1="1028.0859" y2="1028.0859"/><text fill="#000000" font-family="sans-serif" font-size="20" font-weight="bold" lengthAdjust="spacing" textLength="26" x="465.5" y="1021.8672">18</text><text fill="#000000" font-family="sans-serif" font-size="20" lengthAdjust="spacing" textLength="160" x="495.5" y="1021.8672">checkVisitValid()</text><polygon fill="#181818" points="1638,1061.6406,1648,1065.6406,1638,1069.6406,1642,1065.6406" style="stroke:#181818;stroke-width:1.0;"/><line style="stroke:#181818;stroke-width:1.0;" x1="711.5" x2="1644" y1="1065.6406" y2="1065.6406"/><text fill="#000000" font-family="sans-serif" font-size="20" font-weight="bold" lengthAdjust="spacing" textLength="26" x="718.5" y="1059.4219">19</text><text fill="#000000" font-family="sans-serif" font-size="20" lengthAdjust="spacing" textLength="160" x="748.5" y="1059.4219">checkVisitValid()</text><polygon fill="#181818" points="722.5,1099.1953,712.5,1103.1953,722.5,1107.1953,718.5,1103.1953" style="stroke:#181818;stroke-width:1.0;"/><line style="stroke:#181818;stroke-width:1.0;stroke-dasharray:2.0,2.0;" x1="716.5" x2="1654" y1="1103.1953" y2="1103.1953"/><text fill="#000000" font-family="sans-serif" font-size="20" font-weight="bold" lengthAdjust="spacing" textLength="26" x="728.5" y="1096.9766">20</text><text fill="#000000" font-family="sans-serif" font-size="20" lengthAdjust="spacing" textLength="189" x="758.5" y="1096.9766">return True or False</text><polygon fill="#181818" points="469.5,1136.75,459.5,1140.75,469.5,1144.75,465.5,1140.75" style="stroke:#181818;stroke-width:1.0;"/><line style="stroke:#181818;stroke-width:1.0;stroke-dasharray:2.0,2.0;" x1="463.5" x2="705.5" y1="1140.75" y2="1140.75"/><text fill="#000000" font-family="sans-serif" font-size="20" font-weight="bold" lengthAdjust="spacing" textLength="26" x="475.5" y="1134.5313">21</text><text fill="#000000" font-family="sans-serif" font-size="20" lengthAdjust="spacing" textLength="189" x="505.5" y="1134.5313">return True or False</text><path d="M20,1162.75 L99,1162.75 L99,1178.3047 L89,1188.3047 L20,1188.3047 L20,1162.75 " fill="#EEEEEE" style="stroke:#000000;stroke-width:1.5;"/><rect fill="none" height="334.5469" style="stroke:#000000;stroke-width:1.5;" width="1926" x="20" y="1162.75"/><text fill="#000000" font-family="sans-serif" font-size="20" font-weight="bold" lengthAdjust="spacing" textLength="34" x="35" y="1183.0859">opt</text><text fill="#000000" font-family="sans-serif" font-size="20" font-weight="bold" lengthAdjust="spacing" textLength="383" x="114" y="1184.0859">[TRUE - date and time slot are valid]</text><polygon fill="#181818" points="436.5,1222.4141,446.5,1226.4141,436.5,1230.4141,440.5,1226.4141" style="stroke:#181818;stroke-width:1.0;"/><line style="stroke:#181818;stroke-width:1.0;" x1="149.5" x2="442.5" y1="1226.4141" y2="1226.4141"/><text fill="#000000" font-family="sans-serif" font-size="20" font-weight="bold" lengthAdjust="spacing" textLength="26" x="156.5" y="1220.1953">22</text><text fill="#000000" font-family="sans-serif" font-size="20" lengthAdjust="spacing" textLength="132" x="186.5" y="1220.1953">confirms data</text><polygon fill="#181818" points="689.5,1259.9688,699.5,1263.9688,689.5,1267.9688,693.5,1263.9688" style="stroke:#181818;stroke-width:1.0;"/><line style="stroke:#181818;stroke-width:1.0;" x1="458.5" x2="695.5" y1="1263.9688" y2="1263.9688"/><text fill="#000000" font-family="sans-serif" font-size="20" font-weight="bold" lengthAdjust="spacing" textLength="26" x="465.5" y="1257.75">23</text><text fill="#000000" font-family="sans-serif" font-size="20" lengthAdjust="spacing" textLength="135" x="495.5" y="1257.75">save visit data</text><polygon fill="#181818" points="1842,1297.5234,1852,1301.5234,1842,1305.5234,1846,1301.5234" style="stroke:#181818;stroke-width:1.0;"/><line style="stroke:#181818;stroke-width:1.0;" x1="711.5" x2="1848" y1="1301.5234" y2="1301.5234"/><text fill="#000000" font-family="sans-serif" font-size="20" font-weight="bold" lengthAdjust="spacing" textLength="26" x="718.5" y="1295.3047">24</text><text fill="#000000" font-family="sans-serif" font-size="20" lengthAdjust="spacing" textLength="135" x="748.5" y="1295.3047">save visit data</text><polygon fill="#181818" points="689.5,1335.0781,699.5,1339.0781,689.5,1343.0781,693.5,1339.0781" style="stroke:#181818;stroke-width:1.0;"/><line style="stroke:#181818;stroke-width:1.0;" x1="458.5" x2="695.5" y1="1339.0781" y2="1339.0781"/><text fill="#000000" font-family="sans-serif" font-size="20" font-weight="bold" lengthAdjust="spacing" textLength="26" x="465.5" y="1332.8594">25</text><text fill="#000000" font-family="sans-serif" font-size="20" lengthAdjust="spacing" textLength="133" x="495.5" y="1332.8594">addMessage()</text><polygon fill="#181818" points="1638,1372.6328,1648,1376.6328,1638,1380.6328,1642,1376.6328" style="stroke:#181818;stroke-width:1.0;"/><line style="stroke:#181818;stroke-width:1.0;" x1="711.5" x2="1644" y1="1376.6328" y2="1376.6328"/><text fill="#000000" font-family="sans-serif" font-size="20" font-weight="bold" lengthAdjust="spacing" textLength="26" x="718.5" y="1370.4141">26</text><text fill="#000000" font-family="sans-serif" font-size="20" lengthAdjust="spacing" textLength="133" x="748.5" y="1370.4141">addMessage()</text><polygon fill="#181818" points="722.5,1410.1875,712.5,1414.1875,722.5,1418.1875,718.5,1414.1875" style="stroke:#181818;stroke-width:1.0;"/><line style="stroke:#181818;stroke-width:1.0;stroke-dasharray:2.0,2.0;" x1="716.5" x2="1654" y1="1414.1875" y2="1414.1875"/><text fill="#000000" font-family="sans-serif" font-size="20" font-weight="bold" lengthAdjust="spacing" textLength="26" x="728.5" y="1407.9688">27</text><text fill="#000000" font-family="sans-serif" font-size="20" lengthAdjust="spacing" textLength="136" x="758.5" y="1407.9688">valid message</text><polygon fill="#181818" points="469.5,1447.7422,459.5,1451.7422,469.5,1455.7422,465.5,1451.7422" style="stroke:#181818;stroke-width:1.0;"/><line style="stroke:#181818;stroke-width:1.0;stroke-dasharray:2.0,2.0;" x1="463.5" x2="705.5" y1="1451.7422" y2="1451.7422"/><text fill="#000000" font-family="sans-serif" font-size="20" font-weight="bold" lengthAdjust="spacing" textLength="26" x="475.5" y="1445.5234">28</text><text fill="#000000" font-family="sans-serif" font-size="20" lengthAdjust="spacing" textLength="136" x="505.5" y="1445.5234">valid message</text><polygon fill="#181818" points="155.5,1485.2969,145.5,1489.2969,155.5,1493.2969,151.5,1489.2969" style="stroke:#181818;stroke-width:1.0;"/><line style="stroke:#181818;stroke-width:1.0;stroke-dasharray:2.0,2.0;" x1="149.5" x2="452.5" y1="1489.2969" y2="1489.2969"/><text fill="#000000" font-family="sans-serif" font-size="20" font-weight="bold" lengthAdjust="spacing" textLength="26" x="161.5" y="1483.0781">29</text><text fill="#000000" font-family="sans-serif" font-size="20" lengthAdjust="spacing" textLength="201" x="191.5" y="1483.0781">shows valid message</text><!--SRC=[vLPDRzim3BthLn2zR3i46tRCeK3HjKE15YtIjATUL9j9XCYY9yd9qby_Meu_53bDxikjz7kF8XyfrQsLAQMLXQPiZJdak92LzhTa_BFwGFZvGxWM0WKPobQM2WHlAnnyAMMsbajyzZkDO37pqYpr4E1MCgUjCajOIErG25bvCbNnZbQ8BokL8oo8_3lz5JBpPE7YqIwbKH_IAp9mKvIQTeWN81rS_NeGhEfLfaffF5nChorAZpFyKw7pBtS1zNBt6UYQ2xIaDTe0lfxFxW_WCop9AJwAGXSm78WXTe1uCodXwVvg7ZEUB9Le_Qw3xgPlfao23Pl3ISh7hK4RiO7YKE0oBA7Eq9La74PicmJtfReqzwjYH9nx4q8HbL4ritPHRRZVmIq1-n__0PDBzWQc35uxyCIZaM5UyTp8Hgy3Tn9iPHTaAWlKVh744ZspsWPsc2E_JY-uVG9iSG6qGNiMkFxzvhEq_iAzSluK2KqkJc52dPEsOssX-Wpr7EDoemQoOEt4b7jFMzVfGYGyKAWD48V-WKFDc-xY_YUcTOtam5ZFAiVVb5cGBSAkYs5_aWE7eM4iv9n3Z1mpFMNrNYW-PKT8u4s20tsl-9PpclmvITeSCMaqKJUxsGgpTTYfLwbL_lMR69zJqS_1PRkOTLtZ_8xRhd28jhH9dzwYhwo1ET_ZmENUXblveDH88nx5S-ZX-9geXErAyNxx5U-uSTlQRzUy0p09ld0u_pviEaYBF1IRkZ8XgFGDZ6bjyCXOI4ESPZyUOiGaCBXjleRzgwNxh0Fzp-LxeyMH53qYpF7_Q7tVuVdivMPWzO7FUvV7teYCp4BP8colFF88EBd1vkLeK9zVzsqxctTgX3xCqYUHUVw0pl7_EDnjaQZrviJ0v2nHNyVycJRjWA8H6RkD4us1FsVGZpu7tNjmKc9mbG-YuQKFdej_]--></g></svg>