<?xml version="1.0" encoding="us-ascii" standalone="no"?><svg xmlns="http://www.w3.org/2000/svg" xmlns:xlink="http://www.w3.org/1999/xlink" contentStyleType="text/css" height="1456px" preserveAspectRatio="none" style="width:1518px;height:1456px;background:#FFFFFF;" version="1.1" viewBox="0 0 1518 1456" width="1518px" zoomAndPan="magnify"><defs/><g><rect fill="#FFFFFF" height="1261.0313" style="stroke:#181818;stroke-width:1.0;" width="10" x="101" y="90.6406"/><rect fill="#FFFFFF" height="256.7109" style="stroke:#181818;stroke-width:1.0;" width="10" x="300" y="111.1641"/><rect fill="#FFFFFF" height="184.1406" style="stroke:#181818;stroke-width:1.0;" width="10" x="300" y="396.3984"/><rect fill="#FFFFFF" height="28.5234" style="stroke:#181818;stroke-width:1.0;" width="10" x="300" y="609.0625"/><rect fill="#FFFFFF" height="685.5625" style="stroke:#181818;stroke-width:1.0;" width="10" x="300" y="666.1094"/><rect fill="#FFFFFF" height="199.6641" style="stroke:#181818;stroke-width:1.0;" width="10" x="626" y="139.6875"/><rect fill="#FFFFFF" height="85.5703" style="stroke:#181818;stroke-width:1.0;" width="10" x="626" y="424.9219"/><rect fill="#FFFFFF" height="85.5703" style="stroke:#181818;stroke-width:1.0;" width="10" x="626" y="694.6328"/><rect fill="#FFFFFF" height="85.5703" style="stroke:#181818;stroke-width:1.0;" width="10" x="626" y="1007.3906"/><rect fill="#FFFFFF" height="142.6172" style="stroke:#181818;stroke-width:1.0;" width="10" x="626" y="1180.5313"/><rect fill="#FFFFFF" height="28.5234" style="stroke:#181818;stroke-width:1.0;" width="10" x="772.5" y="168.2109"/><rect fill="#FFFFFF" height="28.5234" style="stroke:#181818;stroke-width:1.0;" width="10" x="879.5" y="225.2578"/><rect fill="#FFFFFF" height="28.5234" style="stroke:#181818;stroke-width:1.0;" width="10" x="1008" y="282.3047"/><rect fill="#FFFFFF" height="28.5234" style="stroke:#181818;stroke-width:1.0;" width="10" x="1151.5" y="453.4453"/><rect fill="#FFFFFF" height="28.5234" style="stroke:#181818;stroke-width:1.0;" width="10" x="1300" y="723.1563"/><rect fill="#FFFFFF" height="28.5234" style="stroke:#181818;stroke-width:1.0;" width="10" x="1300" y="1035.9141"/><rect fill="#FFFFFF" height="28.5234" style="stroke:#181818;stroke-width:1.0;" width="10" x="1300" y="1266.1016"/><rect fill="none" height="305.7578" style="stroke:#000000;stroke-width:1.5;" width="1380" x="10" y="795.2031"/><rect fill="none" height="73.5703" style="stroke:#000000;stroke-width:1.5;" width="358" x="20" y="818.7266"/><rect fill="none" height="73.5703" style="stroke:#000000;stroke-width:1.5;" width="358" x="20" y="906.2969"/><rect fill="none" height="244.7109" style="stroke:#000000;stroke-width:1.5;" width="1492" x="20" y="1114.9609"/><line style="stroke:#181818;stroke-width:0.5;stroke-dasharray:5.0,5.0;" x1="106" x2="106" y1="80.6406" y2="1376.6719"/><line style="stroke:#181818;stroke-width:0.5;stroke-dasharray:5.0,5.0;" x1="305" x2="305" y1="80.6406" y2="1376.6719"/><line style="stroke:#181818;stroke-width:0.5;stroke-dasharray:5.0,5.0;" x1="631" x2="631" y1="80.6406" y2="1376.6719"/><line style="stroke:#181818;stroke-width:0.5;stroke-dasharray:5.0,5.0;" x1="777" x2="777" y1="80.6406" y2="1376.6719"/><line style="stroke:#181818;stroke-width:0.5;stroke-dasharray:5.0,5.0;" x1="884" x2="884" y1="80.6406" y2="1376.6719"/><line style="stroke:#181818;stroke-width:0.5;stroke-dasharray:5.0,5.0;" x1="1013" x2="1013" y1="80.6406" y2="1376.6719"/><line style="stroke:#181818;stroke-width:0.5;stroke-dasharray:5.0,5.0;" x1="1156" x2="1156" y1="80.6406" y2="1376.6719"/><line style="stroke:#181818;stroke-width:0.5;stroke-dasharray:5.0,5.0;" x1="1305" x2="1305" y1="80.6406" y2="1376.6719"/><line style="stroke:#181818;stroke-width:0.5;stroke-dasharray:5.0,5.0;" x1="1446" x2="1446" y1="80.6406" y2="1376.6719"/><text fill="#000000" font-family="sans-serif" font-size="14" lengthAdjust="spacing" textLength="146" x="30" y="77.6738">Organization Employee</text><ellipse cx="106" cy="13.5" fill="#E3E3E3" rx="8" ry="8" style="stroke:#181818;stroke-width:0.5;"/><path d="M106,21.5 L106,48.5 M93,29.5 L119,29.5 M106,48.5 L93,63.5 M106,48.5 L119,63.5 " fill="none" style="stroke:#181818;stroke-width:0.5;"/><text fill="#000000" font-family="sans-serif" font-size="14" lengthAdjust="spacing" textLength="146" x="30" y="1388.3457">Organization Employee</text><ellipse cx="106" cy="1399.8125" fill="#E3E3E3" rx="8" ry="8" style="stroke:#181818;stroke-width:0.5;"/><path d="M106,1407.8125 L106,1434.8125 M93,1415.8125 L119,1415.8125 M106,1434.8125 L93,1449.8125 M106,1434.8125 L119,1449.8125 " fill="none" style="stroke:#181818;stroke-width:0.5;"/><rect fill="#E3E3E3" height="29.6406" rx="2.5" ry="2.5" style="stroke:#181818;stroke-width:0.5;" width="126" x="242" y="50"/><text fill="#000000" font-family="sans-serif" font-size="14" lengthAdjust="spacing" textLength="112" x="249" y="69.6738">:CreateRequestUI</text><rect fill="#E3E3E3" height="29.6406" rx="2.5" ry="2.5" style="stroke:#181818;stroke-width:0.5;" width="126" x="242" y="1375.6719"/><text fill="#000000" font-family="sans-serif" font-size="14" lengthAdjust="spacing" textLength="112" x="249" y="1395.3457">:CreateRequestUI</text><rect fill="#E3E3E3" height="29.6406" rx="2.5" ry="2.5" style="stroke:#181818;stroke-width:0.5;" width="176" x="543" y="50"/><text fill="#000000" font-family="sans-serif" font-size="14" lengthAdjust="spacing" textLength="162" x="550" y="69.6738">:CreateRequestController</text><rect fill="#E3E3E3" height="29.6406" rx="2.5" ry="2.5" style="stroke:#181818;stroke-width:0.5;" width="176" x="543" y="1375.6719"/><text fill="#000000" font-family="sans-serif" font-size="14" lengthAdjust="spacing" textLength="162" x="550" y="1395.3457">:CreateRequestController</text><rect fill="#E3E3E3" height="29.6406" rx="2.5" ry="2.5" style="stroke:#181818;stroke-width:0.5;" width="97" x="729" y="50"/><text fill="#000000" font-family="sans-serif" font-size="14" lengthAdjust="spacing" textLength="83" x="736" y="69.6738">:Repositories</text><rect fill="#E3E3E3" height="29.6406" rx="2.5" ry="2.5" style="stroke:#181818;stroke-width:0.5;" width="97" x="729" y="1375.6719"/><text fill="#000000" font-family="sans-serif" font-size="14" lengthAdjust="spacing" textLength="83" x="736" y="1395.3457">:Repositories</text><rect fill="#E3E3E3" height="45.2813" rx="2.5" ry="2.5" style="stroke:#181818;stroke-width:0.5;" width="97" x="836" y="34.3594"/><text fill="#000000" font-family="sans-serif" font-size="14" lengthAdjust="spacing" textLength="74" x="847.5" y="54.0332">repositories</text><text fill="#000000" font-family="sans-serif" font-size="14" lengthAdjust="spacing" textLength="83" x="843" y="69.6738">:Repositories</text><rect fill="#E3E3E3" height="45.2813" rx="2.5" ry="2.5" style="stroke:#181818;stroke-width:0.5;" width="97" x="836" y="1375.6719"/><text fill="#000000" font-family="sans-serif" font-size="14" lengthAdjust="spacing" textLength="74" x="847.5" y="1395.3457">repositories</text><text fill="#000000" font-family="sans-serif" font-size="14" lengthAdjust="spacing" textLength="83" x="843" y="1410.9863">:Repositories</text><rect fill="#E3E3E3" height="45.2813" rx="2.5" ry="2.5" style="stroke:#181818;stroke-width:0.5;" width="140" x="943" y="34.3594"/><text fill="#000000" font-family="sans-serif" font-size="14" lengthAdjust="spacing" textLength="126" x="950" y="54.0332">PropertyRepository:</text><text fill="#000000" font-family="sans-serif" font-size="14" lengthAdjust="spacing" textLength="121" x="952.5" y="69.6738">propertyRepository</text><rect fill="#E3E3E3" height="45.2813" rx="2.5" ry="2.5" style="stroke:#181818;stroke-width:0.5;" width="140" x="943" y="1375.6719"/><text fill="#000000" font-family="sans-serif" font-size="14" lengthAdjust="spacing" textLength="126" x="950" y="1395.3457">PropertyRepository:</text><text fill="#000000" font-family="sans-serif" font-size="14" lengthAdjust="spacing" textLength="121" x="952.5" y="1410.9863">propertyRepository</text><rect fill="#E3E3E3" height="45.2813" rx="2.5" ry="2.5" style="stroke:#181818;stroke-width:0.5;" width="127" x="1093" y="34.3594"/><text fill="#000000" font-family="sans-serif" font-size="14" lengthAdjust="spacing" textLength="113" x="1100" y="54.0332">OwnerRepository:</text><text fill="#000000" font-family="sans-serif" font-size="14" lengthAdjust="spacing" textLength="106" x="1105.5" y="69.6738">ownerRepository</text><rect fill="#E3E3E3" height="45.2813" rx="2.5" ry="2.5" style="stroke:#181818;stroke-width:0.5;" width="127" x="1093" y="1375.6719"/><text fill="#000000" font-family="sans-serif" font-size="14" lengthAdjust="spacing" textLength="113" x="1100" y="1395.3457">OwnerRepository:</text><text fill="#000000" font-family="sans-serif" font-size="14" lengthAdjust="spacing" textLength="106" x="1105.5" y="1410.9863">ownerRepository</text><rect fill="#E3E3E3" height="45.2813" rx="2.5" ry="2.5" style="stroke:#181818;stroke-width:0.5;" width="150" x="1230" y="34.3594"/><text fill="#000000" font-family="sans-serif" font-size="14" lengthAdjust="spacing" textLength="136" x="1237" y="54.0332">ResponseRepository:</text><text fill="#000000" font-family="sans-serif" font-size="14" lengthAdjust="spacing" textLength="127" x="1241.5" y="69.6738">responseRepository</text><rect fill="#E3E3E3" height="45.2813" rx="2.5" ry="2.5" style="stroke:#181818;stroke-width:0.5;" width="150" x="1230" y="1375.6719"/><text fill="#000000" font-family="sans-serif" font-size="14" lengthAdjust="spacing" textLength="136" x="1237" y="1395.3457">ResponseRepository:</text><text fill="#000000" font-family="sans-serif" font-size="14" lengthAdjust="spacing" textLength="127" x="1241.5" y="1410.9863">responseRepository</text><rect fill="#E3E3E3" height="45.2813" rx="2.5" ry="2.5" style="stroke:#181818;stroke-width:0.5;" width="112" x="1390" y="34.3594"/><text fill="#000000" font-family="sans-serif" font-size="14" lengthAdjust="spacing" textLength="98" x="1397" y="54.0332">VisitRepository:</text><text fill="#000000" font-family="sans-serif" font-size="14" lengthAdjust="spacing" textLength="84" x="1406" y="69.6738">visitRpository</text><rect fill="#E3E3E3" height="45.2813" rx="2.5" ry="2.5" style="stroke:#181818;stroke-width:0.5;" width="112" x="1390" y="1375.6719"/><text fill="#000000" font-family="sans-serif" font-size="14" lengthAdjust="spacing" textLength="98" x="1397" y="1395.3457">VisitRepository:</text><text fill="#000000" font-family="sans-serif" font-size="14" lengthAdjust="spacing" textLength="84" x="1406" y="1410.9863">visitRpository</text><rect fill="#FFFFFF" height="1261.0313" style="stroke:#181818;stroke-width:1.0;" width="10" x="101" y="90.6406"/><rect fill="#FFFFFF" height="256.7109" style="stroke:#181818;stroke-width:1.0;" width="10" x="300" y="111.1641"/><rect fill="#FFFFFF" height="184.1406" style="stroke:#181818;stroke-width:1.0;" width="10" x="300" y="396.3984"/><rect fill="#FFFFFF" height="28.5234" style="stroke:#181818;stroke-width:1.0;" width="10" x="300" y="609.0625"/><rect fill="#FFFFFF" height="685.5625" style="stroke:#181818;stroke-width:1.0;" width="10" x="300" y="666.1094"/><rect fill="#FFFFFF" height="199.6641" style="stroke:#181818;stroke-width:1.0;" width="10" x="626" y="139.6875"/><rect fill="#FFFFFF" height="85.5703" style="stroke:#181818;stroke-width:1.0;" width="10" x="626" y="424.9219"/><rect fill="#FFFFFF" height="85.5703" style="stroke:#181818;stroke-width:1.0;" width="10" x="626" y="694.6328"/><rect fill="#FFFFFF" height="85.5703" style="stroke:#181818;stroke-width:1.0;" width="10" x="626" y="1007.3906"/><rect fill="#FFFFFF" height="142.6172" style="stroke:#181818;stroke-width:1.0;" width="10" x="626" y="1180.5313"/><rect fill="#FFFFFF" height="28.5234" style="stroke:#181818;stroke-width:1.0;" width="10" x="772.5" y="168.2109"/><rect fill="#FFFFFF" height="28.5234" style="stroke:#181818;stroke-width:1.0;" width="10" x="879.5" y="225.2578"/><rect fill="#FFFFFF" height="28.5234" style="stroke:#181818;stroke-width:1.0;" width="10" x="1008" y="282.3047"/><rect fill="#FFFFFF" height="28.5234" style="stroke:#181818;stroke-width:1.0;" width="10" x="1151.5" y="453.4453"/><rect fill="#FFFFFF" height="28.5234" style="stroke:#181818;stroke-width:1.0;" width="10" x="1300" y="723.1563"/><rect fill="#FFFFFF" height="28.5234" style="stroke:#181818;stroke-width:1.0;" width="10" x="1300" y="1035.9141"/><rect fill="#FFFFFF" height="28.5234" style="stroke:#181818;stroke-width:1.0;" width="10" x="1300" y="1266.1016"/><polygon fill="#181818" points="288,107.1641,298,111.1641,288,115.1641,292,111.1641" style="stroke:#181818;stroke-width:1.0;"/><line style="stroke:#181818;stroke-width:1.0;" x1="111" x2="294" y1="111.1641" y2="111.1641"/><text fill="#000000" font-family="sans-serif" font-size="13" font-weight="bold" lengthAdjust="spacing" textLength="7" x="118" y="106.4092">1</text><text fill="#000000" font-family="sans-serif" font-size="13" lengthAdjust="spacing" textLength="136" x="129" y="106.4092">asks to shcedule a visit</text><polygon fill="#181818" points="614,135.6875,624,139.6875,614,143.6875,618,139.6875" style="stroke:#181818;stroke-width:1.0;"/><line style="stroke:#181818;stroke-width:1.0;" x1="310" x2="620" y1="139.6875" y2="139.6875"/><text fill="#000000" font-family="sans-serif" font-size="13" font-weight="bold" lengthAdjust="spacing" textLength="7" x="317" y="134.9326">2</text><text fill="#000000" font-family="sans-serif" font-size="13" lengthAdjust="spacing" textLength="80" x="328" y="134.9326">get a property</text><polygon fill="#181818" points="760.5,164.2109,770.5,168.2109,760.5,172.2109,764.5,168.2109" style="stroke:#181818;stroke-width:1.0;"/><line style="stroke:#181818;stroke-width:1.0;" x1="636" x2="766.5" y1="168.2109" y2="168.2109"/><text fill="#000000" font-family="sans-serif" font-size="13" font-weight="bold" lengthAdjust="spacing" textLength="7" x="643" y="163.4561">3</text><text fill="#000000" font-family="sans-serif" font-size="13" lengthAdjust="spacing" textLength="71" x="654" y="163.4561">get Instance</text><polygon fill="#181818" points="647,192.7344,637,196.7344,647,200.7344,643,196.7344" style="stroke:#181818;stroke-width:1.0;"/><line style="stroke:#181818;stroke-width:1.0;stroke-dasharray:2.0,2.0;" x1="641" x2="776.5" y1="196.7344" y2="196.7344"/><text fill="#000000" font-family="sans-serif" font-size="13" font-weight="bold" lengthAdjust="spacing" textLength="7" x="653" y="191.9795">4</text><text fill="#000000" font-family="sans-serif" font-size="13" lengthAdjust="spacing" textLength="67" x="664" y="191.9795">repositories</text><polygon fill="#181818" points="867.5,221.2578,877.5,225.2578,867.5,229.2578,871.5,225.2578" style="stroke:#181818;stroke-width:1.0;"/><line style="stroke:#181818;stroke-width:1.0;" x1="636" x2="873.5" y1="225.2578" y2="225.2578"/><text fill="#000000" font-family="sans-serif" font-size="13" font-weight="bold" lengthAdjust="spacing" textLength="7" x="643" y="220.5029">5</text><text fill="#000000" font-family="sans-serif" font-size="13" lengthAdjust="spacing" textLength="129" x="654" y="220.5029">getPropertyRepository</text><polygon fill="#181818" points="647,249.7813,637,253.7813,647,257.7813,643,253.7813" style="stroke:#181818;stroke-width:1.0;"/><line style="stroke:#181818;stroke-width:1.0;stroke-dasharray:2.0,2.0;" x1="641" x2="883.5" y1="253.7813" y2="253.7813"/><text fill="#000000" font-family="sans-serif" font-size="13" font-weight="bold" lengthAdjust="spacing" textLength="7" x="653" y="249.0264">6</text><text fill="#000000" font-family="sans-serif" font-size="13" lengthAdjust="spacing" textLength="129" x="664" y="249.0264">propertiesRepositories</text><polygon fill="#181818" points="996,278.3047,1006,282.3047,996,286.3047,1000,282.3047" style="stroke:#181818;stroke-width:1.0;"/><line style="stroke:#181818;stroke-width:1.0;" x1="636" x2="1002" y1="282.3047" y2="282.3047"/><text fill="#000000" font-family="sans-serif" font-size="13" font-weight="bold" lengthAdjust="spacing" textLength="7" x="643" y="277.5498">7</text><text fill="#000000" font-family="sans-serif" font-size="13" lengthAdjust="spacing" textLength="88" x="654" y="277.5498">getPropertyList</text><polygon fill="#181818" points="647,306.8281,637,310.8281,647,314.8281,643,310.8281" style="stroke:#181818;stroke-width:1.0;"/><line style="stroke:#181818;stroke-width:1.0;stroke-dasharray:2.0,2.0;" x1="641" x2="1012" y1="310.8281" y2="310.8281"/><text fill="#000000" font-family="sans-serif" font-size="13" font-weight="bold" lengthAdjust="spacing" textLength="7" x="653" y="306.0732">8</text><text fill="#000000" font-family="sans-serif" font-size="13" lengthAdjust="spacing" textLength="64" x="664" y="306.0732">propertylist</text><polygon fill="#181818" points="321,335.3516,311,339.3516,321,343.3516,317,339.3516" style="stroke:#181818;stroke-width:1.0;"/><line style="stroke:#181818;stroke-width:1.0;stroke-dasharray:2.0,2.0;" x1="315" x2="630" y1="339.3516" y2="339.3516"/><text fill="#000000" font-family="sans-serif" font-size="13" font-weight="bold" lengthAdjust="spacing" textLength="7" x="327" y="334.5967">9</text><text fill="#000000" font-family="sans-serif" font-size="13" lengthAdjust="spacing" textLength="64" x="338" y="334.5967">propertylist</text><polygon fill="#181818" points="122,363.875,112,367.875,122,371.875,118,367.875" style="stroke:#181818;stroke-width:1.0;"/><line style="stroke:#181818;stroke-width:1.0;stroke-dasharray:2.0,2.0;" x1="116" x2="304" y1="367.875" y2="367.875"/><text fill="#000000" font-family="sans-serif" font-size="13" font-weight="bold" lengthAdjust="spacing" textLength="14" x="128" y="363.1201">10</text><text fill="#000000" font-family="sans-serif" font-size="13" lengthAdjust="spacing" textLength="109" x="146" y="363.1201">shows property list</text><polygon fill="#181818" points="288,392.3984,298,396.3984,288,400.3984,292,396.3984" style="stroke:#181818;stroke-width:1.0;"/><line style="stroke:#181818;stroke-width:1.0;" x1="111" x2="294" y1="396.3984" y2="396.3984"/><text fill="#000000" font-family="sans-serif" font-size="13" font-weight="bold" lengthAdjust="spacing" textLength="14" x="118" y="391.6436">11</text><text fill="#000000" font-family="sans-serif" font-size="13" lengthAdjust="spacing" textLength="93" x="136" y="391.6436">selects property</text><polygon fill="#181818" points="614,420.9219,624,424.9219,614,428.9219,618,424.9219" style="stroke:#181818;stroke-width:1.0;"/><line style="stroke:#181818;stroke-width:1.0;" x1="310" x2="620" y1="424.9219" y2="424.9219"/><text fill="#000000" font-family="sans-serif" font-size="13" font-weight="bold" lengthAdjust="spacing" textLength="14" x="317" y="420.167">12</text><text fill="#000000" font-family="sans-serif" font-size="13" lengthAdjust="spacing" textLength="157" x="335" y="420.167">getPersonByUserSession()</text><polygon fill="#181818" points="1139.5,449.4453,1149.5,453.4453,1139.5,457.4453,1143.5,453.4453" style="stroke:#181818;stroke-width:1.0;"/><line style="stroke:#181818;stroke-width:1.0;" x1="636" x2="1145.5" y1="453.4453" y2="453.4453"/><text fill="#000000" font-family="sans-serif" font-size="13" font-weight="bold" lengthAdjust="spacing" textLength="14" x="643" y="448.6904">13</text><text fill="#000000" font-family="sans-serif" font-size="13" lengthAdjust="spacing" textLength="157" x="661" y="448.6904">getPersonByUserSession()</text><polygon fill="#181818" points="647,477.9688,637,481.9688,647,485.9688,643,481.9688" style="stroke:#181818;stroke-width:1.0;"/><line style="stroke:#181818;stroke-width:1.0;stroke-dasharray:2.0,2.0;" x1="641" x2="1155.5" y1="481.9688" y2="481.9688"/><text fill="#000000" font-family="sans-serif" font-size="13" font-weight="bold" lengthAdjust="spacing" textLength="14" x="653" y="477.2139">14</text><text fill="#000000" font-family="sans-serif" font-size="13" lengthAdjust="spacing" textLength="83" x="671" y="477.2139">returns person</text><polygon fill="#181818" points="321,506.4922,311,510.4922,321,514.4922,317,510.4922" style="stroke:#181818;stroke-width:1.0;"/><line style="stroke:#181818;stroke-width:1.0;stroke-dasharray:2.0,2.0;" x1="315" x2="630" y1="510.4922" y2="510.4922"/><text fill="#000000" font-family="sans-serif" font-size="13" font-weight="bold" lengthAdjust="spacing" textLength="14" x="327" y="505.7373">15</text><text fill="#000000" font-family="sans-serif" font-size="13" lengthAdjust="spacing" textLength="83" x="345" y="505.7373">returns person</text><line style="stroke:#181818;stroke-width:1.0;" x1="310" x2="352" y1="539.0156" y2="539.0156"/><line style="stroke:#181818;stroke-width:1.0;" x1="352" x2="352" y1="539.0156" y2="552.0156"/><line style="stroke:#181818;stroke-width:1.0;" x1="311" x2="352" y1="552.0156" y2="552.0156"/><polygon fill="#181818" points="321,548.0156,311,552.0156,321,556.0156,317,552.0156" style="stroke:#181818;stroke-width:1.0;"/><text fill="#000000" font-family="sans-serif" font-size="13" font-weight="bold" lengthAdjust="spacing" textLength="14" x="317" y="534.2607">16</text><text fill="#000000" font-family="sans-serif" font-size="13" lengthAdjust="spacing" textLength="284" x="335" y="534.2607">save name and phone number of the user (owner)</text><polygon fill="#181818" points="122,576.5391,112,580.5391,122,584.5391,118,580.5391" style="stroke:#181818;stroke-width:1.0;"/><line style="stroke:#181818;stroke-width:1.0;stroke-dasharray:2.0,2.0;" x1="116" x2="304" y1="580.5391" y2="580.5391"/><text fill="#000000" font-family="sans-serif" font-size="13" font-weight="bold" lengthAdjust="spacing" textLength="14" x="128" y="575.7842">17</text><text fill="#000000" font-family="sans-serif" font-size="13" lengthAdjust="spacing" textLength="75" x="146" y="575.7842">asks for date</text><polygon fill="#181818" points="288,605.0625,298,609.0625,288,613.0625,292,609.0625" style="stroke:#181818;stroke-width:1.0;"/><line style="stroke:#181818;stroke-width:1.0;" x1="111" x2="294" y1="609.0625" y2="609.0625"/><text fill="#000000" font-family="sans-serif" font-size="13" font-weight="bold" lengthAdjust="spacing" textLength="14" x="118" y="604.3076">18</text><text fill="#000000" font-family="sans-serif" font-size="13" lengthAdjust="spacing" textLength="75" x="136" y="604.3076">submits date</text><polygon fill="#181818" points="122,633.5859,112,637.5859,122,641.5859,118,637.5859" style="stroke:#181818;stroke-width:1.0;"/><line style="stroke:#181818;stroke-width:1.0;stroke-dasharray:2.0,2.0;" x1="116" x2="304" y1="637.5859" y2="637.5859"/><text fill="#000000" font-family="sans-serif" font-size="13" font-weight="bold" lengthAdjust="spacing" textLength="14" x="128" y="632.8311">19</text><text fill="#000000" font-family="sans-serif" font-size="13" lengthAdjust="spacing" textLength="100" x="146" y="632.8311">asks for time slot</text><polygon fill="#181818" points="288,662.1094,298,666.1094,288,670.1094,292,666.1094" style="stroke:#181818;stroke-width:1.0;"/><line style="stroke:#181818;stroke-width:1.0;" x1="111" x2="294" y1="666.1094" y2="666.1094"/><text fill="#000000" font-family="sans-serif" font-size="13" font-weight="bold" lengthAdjust="spacing" textLength="14" x="118" y="661.3545">20</text><text fill="#000000" font-family="sans-serif" font-size="13" lengthAdjust="spacing" textLength="100" x="136" y="661.3545">submits time slot</text><polygon fill="#181818" points="614,690.6328,624,694.6328,614,698.6328,618,694.6328" style="stroke:#181818;stroke-width:1.0;"/><line style="stroke:#181818;stroke-width:1.0;" x1="310" x2="620" y1="694.6328" y2="694.6328"/><text fill="#000000" font-family="sans-serif" font-size="13" font-weight="bold" lengthAdjust="spacing" textLength="14" x="317" y="689.8779">21</text><text fill="#000000" font-family="sans-serif" font-size="13" lengthAdjust="spacing" textLength="98" x="335" y="689.8779">checkVisitValid()</text><polygon fill="#181818" points="1288,719.1563,1298,723.1563,1288,727.1563,1292,723.1563" style="stroke:#181818;stroke-width:1.0;"/><line style="stroke:#181818;stroke-width:1.0;" x1="636" x2="1294" y1="723.1563" y2="723.1563"/><text fill="#000000" font-family="sans-serif" font-size="13" font-weight="bold" lengthAdjust="spacing" textLength="14" x="643" y="718.4014">22</text><text fill="#000000" font-family="sans-serif" font-size="13" lengthAdjust="spacing" textLength="98" x="661" y="718.4014">checkVisitValid()</text><polygon fill="#181818" points="647,747.6797,637,751.6797,647,755.6797,643,751.6797" style="stroke:#181818;stroke-width:1.0;"/><line style="stroke:#181818;stroke-width:1.0;stroke-dasharray:2.0,2.0;" x1="641" x2="1304" y1="751.6797" y2="751.6797"/><text fill="#000000" font-family="sans-serif" font-size="13" font-weight="bold" lengthAdjust="spacing" textLength="14" x="653" y="746.9248">23</text><text fill="#000000" font-family="sans-serif" font-size="13" lengthAdjust="spacing" textLength="113" x="671" y="746.9248">return True or False</text><polygon fill="#181818" points="321,776.2031,311,780.2031,321,784.2031,317,780.2031" style="stroke:#181818;stroke-width:1.0;"/><line style="stroke:#181818;stroke-width:1.0;stroke-dasharray:2.0,2.0;" x1="315" x2="630" y1="780.2031" y2="780.2031"/><text fill="#000000" font-family="sans-serif" font-size="13" font-weight="bold" lengthAdjust="spacing" textLength="14" x="327" y="775.4482">24</text><text fill="#000000" font-family="sans-serif" font-size="13" lengthAdjust="spacing" textLength="113" x="345" y="775.4482">return True or False</text><path d="M10,795.2031 L83,795.2031 L83,801.7266 L73,811.7266 L10,811.7266 L10,795.2031 " fill="#EEEEEE" style="stroke:#000000;stroke-width:1.5;"/><rect fill="none" height="305.7578" style="stroke:#000000;stroke-width:1.5;" width="1380" x="10" y="795.2031"/><text fill="#000000" font-family="sans-serif" font-size="13" font-weight="bold" lengthAdjust="spacing" textLength="28" x="25" y="807.9717">loop</text><text fill="#000000" font-family="sans-serif" font-size="11" font-weight="bold" lengthAdjust="spacing" textLength="330" x="98" y="807.1611">[while the answer is false - date and/or time slot are invalid]</text><path d="M20,818.7266 L85,818.7266 L85,825.25 L75,835.25 L20,835.25 L20,818.7266 " fill="#EEEEEE" style="stroke:#000000;stroke-width:1.5;"/><rect fill="none" height="73.5703" style="stroke:#000000;stroke-width:1.5;" width="358" x="20" y="818.7266"/><text fill="#000000" font-family="sans-serif" font-size="13" font-weight="bold" lengthAdjust="spacing" textLength="20" x="35" y="831.4951">opt</text><text fill="#000000" font-family="sans-serif" font-size="11" font-weight="bold" lengthAdjust="spacing" textLength="83" x="100" y="830.6846">[date is invalid]</text><polygon fill="#181818" points="122,851.7734,112,855.7734,122,859.7734,118,855.7734" style="stroke:#181818;stroke-width:1.0;"/><line style="stroke:#181818;stroke-width:1.0;stroke-dasharray:2.0,2.0;" x1="116" x2="299" y1="855.7734" y2="855.7734"/><text fill="#000000" font-family="sans-serif" font-size="13" font-weight="bold" lengthAdjust="spacing" textLength="14" x="128" y="851.0186">25</text><text fill="#000000" font-family="sans-serif" font-size="13" lengthAdjust="spacing" textLength="122" x="146" y="851.0186">asks for another date</text><polygon fill="#181818" points="288,880.2969,298,884.2969,288,888.2969,292,884.2969" style="stroke:#181818;stroke-width:1.0;"/><line style="stroke:#181818;stroke-width:1.0;" x1="111" x2="294" y1="884.2969" y2="884.2969"/><text fill="#000000" font-family="sans-serif" font-size="13" font-weight="bold" lengthAdjust="spacing" textLength="14" x="118" y="879.542">26</text><text fill="#000000" font-family="sans-serif" font-size="13" lengthAdjust="spacing" textLength="95" x="136" y="879.542">submit new date</text><path d="M20,906.2969 L85,906.2969 L85,912.8203 L75,922.8203 L20,922.8203 L20,906.2969 " fill="#EEEEEE" style="stroke:#000000;stroke-width:1.5;"/><rect fill="none" height="73.5703" style="stroke:#000000;stroke-width:1.5;" width="358" x="20" y="906.2969"/><text fill="#000000" font-family="sans-serif" font-size="13" font-weight="bold" lengthAdjust="spacing" textLength="20" x="35" y="919.0654">opt</text><text fill="#000000" font-family="sans-serif" font-size="11" font-weight="bold" lengthAdjust="spacing" textLength="108" x="100" y="918.2549">[time slot is invalid]</text><polygon fill="#181818" points="122,939.3438,112,943.3438,122,947.3438,118,943.3438" style="stroke:#181818;stroke-width:1.0;"/><line style="stroke:#181818;stroke-width:1.0;stroke-dasharray:2.0,2.0;" x1="116" x2="299" y1="943.3438" y2="943.3438"/><text fill="#000000" font-family="sans-serif" font-size="13" font-weight="bold" lengthAdjust="spacing" textLength="14" x="128" y="938.5889">27</text><text fill="#000000" font-family="sans-serif" font-size="13" lengthAdjust="spacing" textLength="147" x="146" y="938.5889">asks for another time slot</text><polygon fill="#181818" points="288,967.8672,298,971.8672,288,975.8672,292,971.8672" style="stroke:#181818;stroke-width:1.0;"/><line style="stroke:#181818;stroke-width:1.0;" x1="111" x2="294" y1="971.8672" y2="971.8672"/><text fill="#000000" font-family="sans-serif" font-size="13" font-weight="bold" lengthAdjust="spacing" textLength="14" x="118" y="967.1123">28</text><text fill="#000000" font-family="sans-serif" font-size="13" lengthAdjust="spacing" textLength="120" x="136" y="967.1123">submit new time slot</text><polygon fill="#181818" points="614,1003.3906,624,1007.3906,614,1011.3906,618,1007.3906" style="stroke:#181818;stroke-width:1.0;"/><line style="stroke:#181818;stroke-width:1.0;" x1="310" x2="620" y1="1007.3906" y2="1007.3906"/><text fill="#000000" font-family="sans-serif" font-size="13" font-weight="bold" lengthAdjust="spacing" textLength="14" x="317" y="1002.6357">29</text><text fill="#000000" font-family="sans-serif" font-size="13" lengthAdjust="spacing" textLength="98" x="335" y="1002.6357">checkVisitValid()</text><polygon fill="#181818" points="1288,1031.9141,1298,1035.9141,1288,1039.9141,1292,1035.9141" style="stroke:#181818;stroke-width:1.0;"/><line style="stroke:#181818;stroke-width:1.0;" x1="636" x2="1294" y1="1035.9141" y2="1035.9141"/><text fill="#000000" font-family="sans-serif" font-size="13" font-weight="bold" lengthAdjust="spacing" textLength="14" x="643" y="1031.1592">30</text><text fill="#000000" font-family="sans-serif" font-size="13" lengthAdjust="spacing" textLength="98" x="661" y="1031.1592">checkVisitValid()</text><polygon fill="#181818" points="647,1060.4375,637,1064.4375,647,1068.4375,643,1064.4375" style="stroke:#181818;stroke-width:1.0;"/><line style="stroke:#181818;stroke-width:1.0;stroke-dasharray:2.0,2.0;" x1="641" x2="1304" y1="1064.4375" y2="1064.4375"/><text fill="#000000" font-family="sans-serif" font-size="13" font-weight="bold" lengthAdjust="spacing" textLength="14" x="653" y="1059.6826">31</text><text fill="#000000" font-family="sans-serif" font-size="13" lengthAdjust="spacing" textLength="113" x="671" y="1059.6826">return True or False</text><polygon fill="#181818" points="321,1088.9609,311,1092.9609,321,1096.9609,317,1092.9609" style="stroke:#181818;stroke-width:1.0;"/><line style="stroke:#181818;stroke-width:1.0;stroke-dasharray:2.0,2.0;" x1="315" x2="630" y1="1092.9609" y2="1092.9609"/><text fill="#000000" font-family="sans-serif" font-size="13" font-weight="bold" lengthAdjust="spacing" textLength="14" x="327" y="1088.2061">32</text><text fill="#000000" font-family="sans-serif" font-size="13" lengthAdjust="spacing" textLength="113" x="345" y="1088.2061">return True or False</text><path d="M20,1114.9609 L85,1114.9609 L85,1121.4844 L75,1131.4844 L20,1131.4844 L20,1114.9609 " fill="#EEEEEE" style="stroke:#000000;stroke-width:1.5;"/><rect fill="none" height="244.7109" style="stroke:#000000;stroke-width:1.5;" width="1492" x="20" y="1114.9609"/><text fill="#000000" font-family="sans-serif" font-size="13" font-weight="bold" lengthAdjust="spacing" textLength="20" x="35" y="1127.7295">opt</text><text fill="#000000" font-family="sans-serif" font-size="11" font-weight="bold" lengthAdjust="spacing" textLength="193" x="100" y="1126.9189">[TRUE - date and time slot are valid]</text><polygon fill="#181818" points="288,1148.0078,298,1152.0078,288,1156.0078,292,1152.0078" style="stroke:#181818;stroke-width:1.0;"/><line style="stroke:#181818;stroke-width:1.0;" x1="111" x2="294" y1="1152.0078" y2="1152.0078"/><text fill="#000000" font-family="sans-serif" font-size="13" font-weight="bold" lengthAdjust="spacing" textLength="14" x="118" y="1147.2529">33</text><text fill="#000000" font-family="sans-serif" font-size="13" lengthAdjust="spacing" textLength="78" x="136" y="1147.2529">confirms data</text><polygon fill="#181818" points="614,1176.5313,624,1180.5313,614,1184.5313,618,1180.5313" style="stroke:#181818;stroke-width:1.0;"/><line style="stroke:#181818;stroke-width:1.0;" x1="310" x2="620" y1="1180.5313" y2="1180.5313"/><text fill="#000000" font-family="sans-serif" font-size="13" font-weight="bold" lengthAdjust="spacing" textLength="14" x="317" y="1175.7764">34</text><text fill="#000000" font-family="sans-serif" font-size="13" lengthAdjust="spacing" textLength="81" x="335" y="1175.7764">save visit data</text><polygon fill="#181818" points="1434,1205.0547,1444,1209.0547,1434,1213.0547,1438,1209.0547" style="stroke:#181818;stroke-width:1.0;"/><line style="stroke:#181818;stroke-width:1.0;" x1="636" x2="1440" y1="1209.0547" y2="1209.0547"/><text fill="#000000" font-family="sans-serif" font-size="13" font-weight="bold" lengthAdjust="spacing" textLength="14" x="643" y="1204.2998">35</text><text fill="#000000" font-family="sans-serif" font-size="13" lengthAdjust="spacing" textLength="81" x="661" y="1204.2998">save visit data</text><polygon fill="#181818" points="614,1233.5781,624,1237.5781,614,1241.5781,618,1237.5781" style="stroke:#181818;stroke-width:1.0;"/><line style="stroke:#181818;stroke-width:1.0;" x1="310" x2="620" y1="1237.5781" y2="1237.5781"/><text fill="#000000" font-family="sans-serif" font-size="13" font-weight="bold" lengthAdjust="spacing" textLength="14" x="317" y="1232.8232">36</text><text fill="#000000" font-family="sans-serif" font-size="13" lengthAdjust="spacing" textLength="82" x="335" y="1232.8232">addMessage()</text><polygon fill="#181818" points="1288,1262.1016,1298,1266.1016,1288,1270.1016,1292,1266.1016" style="stroke:#181818;stroke-width:1.0;"/><line style="stroke:#181818;stroke-width:1.0;" x1="636" x2="1294" y1="1266.1016" y2="1266.1016"/><text fill="#000000" font-family="sans-serif" font-size="13" font-weight="bold" lengthAdjust="spacing" textLength="14" x="643" y="1261.3467">37</text><text fill="#000000" font-family="sans-serif" font-size="13" lengthAdjust="spacing" textLength="82" x="661" y="1261.3467">addMessage()</text><polygon fill="#181818" points="647,1290.625,637,1294.625,647,1298.625,643,1294.625" style="stroke:#181818;stroke-width:1.0;"/><line style="stroke:#181818;stroke-width:1.0;stroke-dasharray:2.0,2.0;" x1="641" x2="1304" y1="1294.625" y2="1294.625"/><text fill="#000000" font-family="sans-serif" font-size="13" font-weight="bold" lengthAdjust="spacing" textLength="14" x="653" y="1289.8701">38</text><text fill="#000000" font-family="sans-serif" font-size="13" lengthAdjust="spacing" textLength="82" x="671" y="1289.8701">valid message</text><polygon fill="#181818" points="321,1319.1484,311,1323.1484,321,1327.1484,317,1323.1484" style="stroke:#181818;stroke-width:1.0;"/><line style="stroke:#181818;stroke-width:1.0;stroke-dasharray:2.0,2.0;" x1="315" x2="630" y1="1323.1484" y2="1323.1484"/><text fill="#000000" font-family="sans-serif" font-size="13" font-weight="bold" lengthAdjust="spacing" textLength="14" x="327" y="1318.3936">39</text><text fill="#000000" font-family="sans-serif" font-size="13" lengthAdjust="spacing" textLength="82" x="345" y="1318.3936">valid message</text><polygon fill="#181818" points="117,1347.6719,107,1351.6719,117,1355.6719,113,1351.6719" style="stroke:#181818;stroke-width:1.0;"/><line style="stroke:#181818;stroke-width:1.0;stroke-dasharray:2.0,2.0;" x1="111" x2="304" y1="1351.6719" y2="1351.6719"/><text fill="#000000" font-family="sans-serif" font-size="13" font-weight="bold" lengthAdjust="spacing" textLength="14" x="123" y="1346.917">40</text><text fill="#000000" font-family="sans-serif" font-size="13" lengthAdjust="spacing" textLength="123" x="141" y="1346.917">shows valid message</text><!--SRC=[vLTDRzim3BthLn2zh3q4k-TGeEise42B5cdIKo-gpIH2RCcJv6JPhnybVqcsatZRSRb5UOyK-KYHCJiX2wvv3hcIAjbgbIDONI8pxIy5JtPyWw_sc25eJ2oNcom4c2rFrK783QnvPf0nNbebo_m3DMEVjY95M2jbFzHFnXEhD5mzwmsNuXUtGadubXUPEY9U0JTmz_M9aLKh4b5mQU5gVg-HMrpWZnADNJrurEhX7EXUIQjLbg7suFlbuh47Ns2XZA2h23GUGmSnH0U8Tpaal3pUBMF6YrO5QdjieSVvkom6XnMRZWSkdmyITSG65HzvBi46r0MQGac34LiF3kjGpT3tco14x7llZo8geHpJgIZsb6-l5eFwGrzWTalQm9p0EmDMKMaac9PKDxooru9R4oHbUqXKCk3q8XCRjCHg4jXYJdnQUrxj2s278KSKI-tdGHggwWGl4GVUN3ekO9sNMHjMM5TJlQKO-MCN8dCvTELPnJOiopyEqjVwH9B3Tj4syb6mYtyBtDzXYgu- -ggzuWGy2cCdLr7Je9UYhHqr4RS17xC9tiBmQd_J8cowx2-T-HQ9ceuCkkwTKx-gWsdjGcGuiE2QblLx7WncD1rCtBE3Hkyt-Gjge-INuygWVaLZQ2HStx1XJxDGuUeHd6oWVZFzOKqDYbIZBRMaUtj3h1Tho8tJVvxNNRgAs5CCtoD8JaEMonIAhPBqrKzAK6kmMuIIee1h__3VTFHM8F-mhcc6fkI3ZSWoLANyo0MfqX965PdTzknRGPSqcR9Jd3G-Oj9vwPCj9Zi_Tzvu9j9QiWkwryFBnJNE3rvAqtLKGnk83alQTO32_Uutby5h6zWOq_uytLy_Kwg0mrRG37JoScaE9B0mrQu4Cw-BguRFOTA1QmGXzouonbHXAnZHciCJPS6b8ZTrUR0HaK3YeVeLPMswynhOFs- -4vgTSD4Xd9__Klekmyl5wbiWTK_dMkMnFIfHSYrqxhkNdrYK_9lYjwiATNubQj9PxN8ZzD1BvuIdwHEzhVG_WBBD1jOwSMBWoC9aua7NrsTUfGFooWWRNO9wDW9z9j1FZhzs_bqqGG_QoAdVXhtcx3S0]--></g></svg>