<?xml version="1.0" encoding="UTF-8" standalone="no"?><svg xmlns="http://www.w3.org/2000/svg" xmlns:xlink="http://www.w3.org/1999/xlink" contentStyleType="text/css" height="2069px" preserveAspectRatio="none" style="width:2266px;height:2069px;background:#FFFFFF;" version="1.1" viewBox="0 0 2266 2069" width="2266px" zoomAndPan="magnify"><defs/><g><rect fill="#FFFFFF" height="1864.9531" style="stroke:#181818;stroke-width:1.0;" width="10" x="114.5" y="98.5547"/><rect fill="#FFFFFF" height="86.1094" style="stroke:#181818;stroke-width:1.0;" width="10" x="625.5" y="128.1094"/><rect fill="#FFFFFF" height="37.5547" style="stroke:#181818;stroke-width:1.0;" width="10" x="625.5" y="251.7734"/><rect fill="#FFFFFF" height="1636.625" style="stroke:#181818;stroke-width:1.0;" width="10" x="625.5" y="326.8828"/><rect fill="#FFFFFF" height="1561.5156" style="stroke:#181818;stroke-width:1.0;" width="10" x="866.5" y="364.4375"/><rect fill="#FFFFFF" height="134.2188" style="stroke:#181818;stroke-width:1.0;" width="10" x="871.5" y="409.9922"/><rect fill="#FFFFFF" height="134.2188" style="stroke:#181818;stroke-width:1.0;" width="10" x="871.5" y="596.7656"/><rect fill="#FFFFFF" height="134.2188" style="stroke:#181818;stroke-width:1.0;" width="10" x="871.5" y="783.5391"/><rect fill="#FFFFFF" height="911.0859" style="stroke:#181818;stroke-width:1.0;" width="10" x="871.5" y="970.3125"/><rect fill="#FFFFFF" height="350.6563" style="stroke:#181818;stroke-width:1.0;" width="10" x="1465.5" y="1012.8672"/><rect fill="#FFFFFF" height="123.2188" style="stroke:#181818;stroke-width:1.0;" width="10" x="1676" y="1393.0781"/><rect fill="#FFFFFF" height="123.2188" style="stroke:#181818;stroke-width:1.0;" width="10" x="1918.5" y="1553.8516"/><rect fill="#FFFFFF" height="123.2188" style="stroke:#181818;stroke-width:1.0;" width="10" x="2157" y="1714.625"/><rect fill="none" height="71.6641" style="stroke:#000000;stroke-width:1.5;" width="832" x="749.5" y="1113.5313"/><rect fill="none" height="71.6641" style="stroke:#000000;stroke-width:1.5;" width="832" x="749.5" y="1199.1953"/><rect fill="none" height="71.6641" style="stroke:#000000;stroke-width:1.5;" width="832" x="749.5" y="1284.8594"/><line style="stroke:#181818;stroke-width:0.5;stroke-dasharray:5.0,5.0;" x1="119" x2="119" y1="88.5547" y2="1981.5078"/><line style="stroke:#181818;stroke-width:0.5;stroke-dasharray:5.0,5.0;" x1="630.5" x2="630.5" y1="88.5547" y2="1981.5078"/><line style="stroke:#181818;stroke-width:0.5;stroke-dasharray:5.0,5.0;" x1="871.5" x2="871.5" y1="170.3867" y2="1981.5078"/><line style="stroke:#181818;stroke-width:0.5;stroke-dasharray:5.0,5.0;" x1="1470.5" x2="1470.5" y1="88.5547" y2="1981.5078"/><line style="stroke:#181818;stroke-width:0.5;stroke-dasharray:5.0,5.0;" x1="1680.5" x2="1680.5" y1="88.5547" y2="1981.5078"/><line style="stroke:#181818;stroke-width:0.5;stroke-dasharray:5.0,5.0;" x1="1923.5" x2="1923.5" y1="88.5547" y2="1981.5078"/><line style="stroke:#181818;stroke-width:0.5;stroke-dasharray:5.0,5.0;" x1="2161.5" x2="2161.5" y1="88.5547" y2="1981.5078"/><text fill="#000000" font-family="sans-serif" font-size="20" lengthAdjust="spacing" textLength="223" x="5" y="84.3359">Organization Employee</text><ellipse cx="119.5" cy="13.5" fill="#E3E3E3" rx="8" ry="8" style="stroke:#181818;stroke-width:0.5;"/><path d="M119.5,21.5 L119.5,48.5 M106.5,29.5 L132.5,29.5 M119.5,48.5 L106.5,63.5 M119.5,48.5 L132.5,63.5 " fill="none" style="stroke:#181818;stroke-width:0.5;"/><text fill="#000000" font-family="sans-serif" font-size="20" lengthAdjust="spacing" textLength="223" x="5" y="1999.8438">Organization Employee</text><ellipse cx="119.5" cy="2012.5625" fill="#E3E3E3" rx="8" ry="8" style="stroke:#181818;stroke-width:0.5;"/><path d="M119.5,2020.5625 L119.5,2047.5625 M106.5,2028.5625 L132.5,2028.5625 M119.5,2047.5625 L106.5,2062.5625 M119.5,2047.5625 L132.5,2062.5625 " fill="none" style="stroke:#181818;stroke-width:0.5;"/><rect fill="#E3E3E3" height="37.5547" rx="2.5" ry="2.5" style="stroke:#181818;stroke-width:0.5;" width="148" x="556.5" y="50"/><text fill="#000000" font-family="sans-serif" font-size="20" lengthAdjust="spacing" textLength="134" x="563.5" y="76.3359">:CreateTaskUI</text><rect fill="#E3E3E3" height="37.5547" rx="2.5" ry="2.5" style="stroke:#181818;stroke-width:0.5;" width="148" x="556.5" y="1980.5078"/><text fill="#000000" font-family="sans-serif" font-size="20" lengthAdjust="spacing" textLength="134" x="563.5" y="2006.8438">:CreateTaskUI</text><rect fill="#E3E3E3" height="37.5547" rx="2.5" ry="2.5" style="stroke:#181818;stroke-width:0.5;" width="224" x="759.5" y="1980.5078"/><text fill="#000000" font-family="sans-serif" font-size="20" lengthAdjust="spacing" textLength="210" x="766.5" y="2006.8438">:CreateTaskController</text><rect fill="#E3E3E3" height="61.1094" rx="2.5" ry="2.5" style="stroke:#181818;stroke-width:0.5;" width="202" x="1369.5" y="26.4453"/><text fill="#000000" font-family="sans-serif" font-size="20" lengthAdjust="spacing" textLength="184" x="1378.5" y="52.7813">propertyRepository</text><text fill="#000000" font-family="sans-serif" font-size="20" lengthAdjust="spacing" textLength="188" x="1376.5" y="76.3359">:PropertyRepository</text><rect fill="#E3E3E3" height="61.1094" rx="2.5" ry="2.5" style="stroke:#181818;stroke-width:0.5;" width="202" x="1369.5" y="1980.5078"/><text fill="#000000" font-family="sans-serif" font-size="20" lengthAdjust="spacing" textLength="184" x="1378.5" y="2006.8438">propertyRepository</text><text fill="#000000" font-family="sans-serif" font-size="20" lengthAdjust="spacing" textLength="188" x="1376.5" y="2030.3984">:PropertyRepository</text><rect fill="#E3E3E3" height="61.1094" rx="2.5" ry="2.5" style="stroke:#181818;stroke-width:0.5;" width="199" x="1581.5" y="26.4453"/><text fill="#000000" font-family="sans-serif" font-size="20" lengthAdjust="spacing" textLength="174" x="1594" y="52.7813">requestRepository</text><text fill="#000000" font-family="sans-serif" font-size="20" lengthAdjust="spacing" textLength="185" x="1588.5" y="76.3359">:RequestRepository</text><rect fill="#E3E3E3" height="61.1094" rx="2.5" ry="2.5" style="stroke:#181818;stroke-width:0.5;" width="199" x="1581.5" y="1980.5078"/><text fill="#000000" font-family="sans-serif" font-size="20" lengthAdjust="spacing" textLength="174" x="1594" y="2006.8438">requestRepository</text><text fill="#000000" font-family="sans-serif" font-size="20" lengthAdjust="spacing" textLength="185" x="1588.5" y="2030.3984">:RequestRepository</text><rect fill="#E3E3E3" height="61.1094" rx="2.5" ry="2.5" style="stroke:#181818;stroke-width:0.5;" width="266" x="1790.5" y="26.4453"/><text fill="#000000" font-family="sans-serif" font-size="20" lengthAdjust="spacing" textLength="243" x="1802" y="52.7813">announcementRepository</text><text fill="#000000" font-family="sans-serif" font-size="20" lengthAdjust="spacing" textLength="252" x="1797.5" y="76.3359">:AnnouncementRepository</text><rect fill="#E3E3E3" height="61.1094" rx="2.5" ry="2.5" style="stroke:#181818;stroke-width:0.5;" width="266" x="1790.5" y="1980.5078"/><text fill="#000000" font-family="sans-serif" font-size="20" lengthAdjust="spacing" textLength="243" x="1802" y="2006.8438">announcementRepository</text><text fill="#000000" font-family="sans-serif" font-size="20" lengthAdjust="spacing" textLength="252" x="1797.5" y="2030.3984">:AnnouncementRepository</text><rect fill="#E3E3E3" height="61.1094" rx="2.5" ry="2.5" style="stroke:#181818;stroke-width:0.5;" width="191" x="2066.5" y="26.4453"/><text fill="#000000" font-family="sans-serif" font-size="20" lengthAdjust="spacing" textLength="168" x="2078" y="52.7813">agencyRepository</text><text fill="#000000" font-family="sans-serif" font-size="20" lengthAdjust="spacing" textLength="177" x="2073.5" y="76.3359">:AgencyRepository</text><rect fill="#E3E3E3" height="61.1094" rx="2.5" ry="2.5" style="stroke:#181818;stroke-width:0.5;" width="191" x="2066.5" y="1980.5078"/><text fill="#000000" font-family="sans-serif" font-size="20" lengthAdjust="spacing" textLength="168" x="2078" y="2006.8438">agencyRepository</text><text fill="#000000" font-family="sans-serif" font-size="20" lengthAdjust="spacing" textLength="177" x="2073.5" y="2030.3984">:AgencyRepository</text><rect fill="#FFFFFF" height="1864.9531" style="stroke:#181818;stroke-width:1.0;" width="10" x="114.5" y="98.5547"/><rect fill="#FFFFFF" height="86.1094" style="stroke:#181818;stroke-width:1.0;" width="10" x="625.5" y="128.1094"/><rect fill="#FFFFFF" height="37.5547" style="stroke:#181818;stroke-width:1.0;" width="10" x="625.5" y="251.7734"/><rect fill="#FFFFFF" height="1636.625" style="stroke:#181818;stroke-width:1.0;" width="10" x="625.5" y="326.8828"/><rect fill="#FFFFFF" height="1561.5156" style="stroke:#181818;stroke-width:1.0;" width="10" x="866.5" y="364.4375"/><rect fill="#FFFFFF" height="134.2188" style="stroke:#181818;stroke-width:1.0;" width="10" x="871.5" y="409.9922"/><rect fill="#FFFFFF" height="134.2188" style="stroke:#181818;stroke-width:1.0;" width="10" x="871.5" y="596.7656"/><rect fill="#FFFFFF" height="134.2188" style="stroke:#181818;stroke-width:1.0;" width="10" x="871.5" y="783.5391"/><rect fill="#FFFFFF" height="911.0859" style="stroke:#181818;stroke-width:1.0;" width="10" x="871.5" y="970.3125"/><rect fill="#FFFFFF" height="350.6563" style="stroke:#181818;stroke-width:1.0;" width="10" x="1465.5" y="1012.8672"/><rect fill="#FFFFFF" height="123.2188" style="stroke:#181818;stroke-width:1.0;" width="10" x="1676" y="1393.0781"/><rect fill="#FFFFFF" height="123.2188" style="stroke:#181818;stroke-width:1.0;" width="10" x="1918.5" y="1553.8516"/><rect fill="#FFFFFF" height="123.2188" style="stroke:#181818;stroke-width:1.0;" width="10" x="2157" y="1714.625"/><polygon fill="#181818" points="613.5,124.1094,623.5,128.1094,613.5,132.1094,617.5,128.1094" style="stroke:#181818;stroke-width:1.0;"/><line style="stroke:#181818;stroke-width:1.0;" x1="124.5" x2="619.5" y1="128.1094" y2="128.1094"/><text fill="#000000" font-family="sans-serif" font-size="20" font-weight="bold" lengthAdjust="spacing" textLength="13" x="131.5" y="121.8906">1</text><text fill="#000000" font-family="sans-serif" font-size="20" lengthAdjust="spacing" textLength="465" x="148.5" y="121.8906">asks to import information from a legacy system</text><polygon fill="#181818" points="747.5,161.6641,757.5,165.6641,747.5,169.6641,751.5,165.6641" style="stroke:#181818;stroke-width:1.0;"/><line style="stroke:#181818;stroke-width:1.0;" x1="635.5" x2="753.5" y1="165.6641" y2="165.6641"/><text fill="#000000" font-family="sans-serif" font-size="20" font-weight="bold" lengthAdjust="spacing" textLength="31" x="642.5" y="159.4453">1.1</text><text fill="#000000" font-family="sans-serif" font-size="20" lengthAdjust="spacing" textLength="65" x="677.5" y="159.4453">import</text><rect fill="#E3E3E3" height="37.5547" rx="2.5" ry="2.5" style="stroke:#181818;stroke-width:0.5;" width="224" x="759.5" y="136.1094"/><text fill="#000000" font-family="sans-serif" font-size="20" lengthAdjust="spacing" textLength="210" x="766.5" y="162.4453">:CreateTaskController</text><polygon fill="#181818" points="135.5,210.2188,125.5,214.2188,135.5,218.2188,131.5,214.2188" style="stroke:#181818;stroke-width:1.0;"/><line style="stroke:#181818;stroke-width:1.0;stroke-dasharray:2.0,2.0;" x1="129.5" x2="629.5" y1="214.2188" y2="214.2188"/><text fill="#000000" font-family="sans-serif" font-size="20" font-weight="bold" lengthAdjust="spacing" textLength="13" x="141.5" y="208">2</text><text fill="#000000" font-family="sans-serif" font-size="20" lengthAdjust="spacing" textLength="130" x="158.5" y="208">requests data</text><polygon fill="#181818" points="613.5,247.7734,623.5,251.7734,613.5,255.7734,617.5,251.7734" style="stroke:#181818;stroke-width:1.0;"/><line style="stroke:#181818;stroke-width:1.0;" x1="124.5" x2="619.5" y1="251.7734" y2="251.7734"/><text fill="#000000" font-family="sans-serif" font-size="20" font-weight="bold" lengthAdjust="spacing" textLength="13" x="131.5" y="245.5547">3</text><text fill="#000000" font-family="sans-serif" font-size="20" lengthAdjust="spacing" textLength="307" x="148.5" y="245.5547">types requested data (fileName)</text><polygon fill="#181818" points="135.5,285.3281,125.5,289.3281,135.5,293.3281,131.5,289.3281" style="stroke:#181818;stroke-width:1.0;"/><line style="stroke:#181818;stroke-width:1.0;stroke-dasharray:2.0,2.0;" x1="129.5" x2="629.5" y1="289.3281" y2="289.3281"/><text fill="#000000" font-family="sans-serif" font-size="20" font-weight="bold" lengthAdjust="spacing" textLength="13" x="141.5" y="283.1094">4</text><text fill="#000000" font-family="sans-serif" font-size="20" lengthAdjust="spacing" textLength="436" x="158.5" y="283.1094">shows selected data and asks to confirm data</text><polygon fill="#181818" points="613.5,322.8828,623.5,326.8828,613.5,330.8828,617.5,326.8828" style="stroke:#181818;stroke-width:1.0;"/><line style="stroke:#181818;stroke-width:1.0;" x1="124.5" x2="619.5" y1="326.8828" y2="326.8828"/><text fill="#000000" font-family="sans-serif" font-size="20" font-weight="bold" lengthAdjust="spacing" textLength="13" x="131.5" y="320.6641">5</text><text fill="#000000" font-family="sans-serif" font-size="20" lengthAdjust="spacing" textLength="132" x="148.5" y="320.6641">confirms data</text><polygon fill="#181818" points="854.5,360.4375,864.5,364.4375,854.5,368.4375,858.5,364.4375" style="stroke:#181818;stroke-width:1.0;"/><line style="stroke:#181818;stroke-width:1.0;" x1="635.5" x2="860.5" y1="364.4375" y2="364.4375"/><text fill="#000000" font-family="sans-serif" font-size="20" font-weight="bold" lengthAdjust="spacing" textLength="31" x="642.5" y="358.2188">5.1</text><text fill="#000000" font-family="sans-serif" font-size="20" lengthAdjust="spacing" textLength="177" x="677.5" y="358.2188">readFile(fileName)</text><line style="stroke:#181818;stroke-width:1.0;" x1="876.5" x2="923.5" y1="396.9922" y2="396.9922"/><line style="stroke:#181818;stroke-width:1.0;" x1="923.5" x2="923.5" y1="396.9922" y2="409.9922"/><line style="stroke:#181818;stroke-width:1.0;" x1="882.5" x2="923.5" y1="409.9922" y2="409.9922"/><polygon fill="#181818" points="892.5,405.9922,882.5,409.9922,892.5,413.9922,888.5,409.9922" style="stroke:#181818;stroke-width:1.0;"/><text fill="#000000" font-family="sans-serif" font-size="20" font-weight="bold" lengthAdjust="spacing" textLength="31" x="888.5" y="390.7734">5.2</text><text fill="#000000" font-family="sans-serif" font-size="20" lengthAdjust="spacing" textLength="496" x="923.5" y="390.7734">getPropertyTypeByName(String propertyTypeName)</text><rect fill="none" height="80.6641" style="stroke:#000000;stroke-width:1.5;" width="230" x="756.5" y="422.9922"/><path d="M756.5,422.9922 L830.5,422.9922 L830.5,437.9922 L820.5,447.9922 L756.5,447.9922 L756.5,422.9922 " fill="#EEEEEE" style="stroke:#000000;stroke-width:2.0;"/><text fill="#000000" font-family="sans-serif" font-size="20" font-weight="bold" lengthAdjust="spacing" textLength="29" x="769.5" y="444.3281">ref</text><text fill="#000000" font-family="sans-serif" font-size="20" lengthAdjust="spacing" textLength="171" x="786" y="471.3281">Get Property Type</text><text fill="#000000" font-family="sans-serif" font-size="20" lengthAdjust="spacing" textLength="6" x="868.5" y="494.8828"> </text><line style="stroke:#181818;stroke-width:1.0;stroke-dasharray:2.0,2.0;" x1="881.5" x2="923.5" y1="543.2109" y2="543.2109"/><line style="stroke:#181818;stroke-width:1.0;stroke-dasharray:2.0,2.0;" x1="923.5" x2="923.5" y1="543.2109" y2="556.2109"/><line style="stroke:#181818;stroke-width:1.0;stroke-dasharray:2.0,2.0;" x1="876.5" x2="923.5" y1="556.2109" y2="556.2109"/><polygon fill="#181818" points="886.5,552.2109,876.5,556.2109,886.5,560.2109,882.5,556.2109" style="stroke:#181818;stroke-width:1.0;"/><text fill="#000000" font-family="sans-serif" font-size="20" font-weight="bold" lengthAdjust="spacing" textLength="31" x="888.5" y="536.9922">5.3</text><text fill="#000000" font-family="sans-serif" font-size="20" lengthAdjust="spacing" textLength="129" x="923.5" y="536.9922">propertyType</text><line style="stroke:#181818;stroke-width:1.0;" x1="876.5" x2="923.5" y1="583.7656" y2="583.7656"/><line style="stroke:#181818;stroke-width:1.0;" x1="923.5" x2="923.5" y1="583.7656" y2="596.7656"/><line style="stroke:#181818;stroke-width:1.0;" x1="882.5" x2="923.5" y1="596.7656" y2="596.7656"/><polygon fill="#181818" points="892.5,592.7656,882.5,596.7656,892.5,600.7656,888.5,596.7656" style="stroke:#181818;stroke-width:1.0;"/><text fill="#000000" font-family="sans-serif" font-size="20" font-weight="bold" lengthAdjust="spacing" textLength="31" x="888.5" y="577.5469">5.4</text><text fill="#000000" font-family="sans-serif" font-size="20" lengthAdjust="spacing" textLength="540" x="923.5" y="577.5469">getTypeOfBusinessByName(String typeOfBusinessName)</text><rect fill="none" height="80.6641" style="stroke:#000000;stroke-width:1.5;" width="230" x="756.5" y="609.7656"/><path d="M756.5,609.7656 L830.5,609.7656 L830.5,624.7656 L820.5,634.7656 L756.5,634.7656 L756.5,609.7656 " fill="#EEEEEE" style="stroke:#000000;stroke-width:2.0;"/><text fill="#000000" font-family="sans-serif" font-size="20" font-weight="bold" lengthAdjust="spacing" textLength="29" x="769.5" y="631.1016">ref</text><text fill="#000000" font-family="sans-serif" font-size="20" lengthAdjust="spacing" textLength="174" x="784.5" y="658.1016">Get Type Business</text><text fill="#000000" font-family="sans-serif" font-size="20" lengthAdjust="spacing" textLength="6" x="868.5" y="681.6563"> </text><line style="stroke:#181818;stroke-width:1.0;stroke-dasharray:2.0,2.0;" x1="881.5" x2="923.5" y1="729.9844" y2="729.9844"/><line style="stroke:#181818;stroke-width:1.0;stroke-dasharray:2.0,2.0;" x1="923.5" x2="923.5" y1="729.9844" y2="742.9844"/><line style="stroke:#181818;stroke-width:1.0;stroke-dasharray:2.0,2.0;" x1="876.5" x2="923.5" y1="742.9844" y2="742.9844"/><polygon fill="#181818" points="886.5,738.9844,876.5,742.9844,886.5,746.9844,882.5,742.9844" style="stroke:#181818;stroke-width:1.0;"/><text fill="#000000" font-family="sans-serif" font-size="20" font-weight="bold" lengthAdjust="spacing" textLength="31" x="888.5" y="723.7656">5.5</text><text fill="#000000" font-family="sans-serif" font-size="20" lengthAdjust="spacing" textLength="124" x="923.5" y="723.7656">typeBusiness</text><line style="stroke:#181818;stroke-width:1.0;" x1="876.5" x2="923.5" y1="770.5391" y2="770.5391"/><line style="stroke:#181818;stroke-width:1.0;" x1="923.5" x2="923.5" y1="770.5391" y2="783.5391"/><line style="stroke:#181818;stroke-width:1.0;" x1="882.5" x2="923.5" y1="783.5391" y2="783.5391"/><polygon fill="#181818" points="892.5,779.5391,882.5,783.5391,892.5,787.5391,888.5,783.5391" style="stroke:#181818;stroke-width:1.0;"/><text fill="#000000" font-family="sans-serif" font-size="20" font-weight="bold" lengthAdjust="spacing" textLength="31" x="888.5" y="764.3203">5.6</text><text fill="#000000" font-family="sans-serif" font-size="20" lengthAdjust="spacing" textLength="299" x="923.5" y="764.3203">getAdministratorFromSession()</text><rect fill="none" height="80.6641" style="stroke:#000000;stroke-width:1.5;" width="230" x="756.5" y="796.5391"/><path d="M756.5,796.5391 L830.5,796.5391 L830.5,811.5391 L820.5,821.5391 L756.5,821.5391 L756.5,796.5391 " fill="#EEEEEE" style="stroke:#000000;stroke-width:2.0;"/><text fill="#000000" font-family="sans-serif" font-size="20" font-weight="bold" lengthAdjust="spacing" textLength="29" x="769.5" y="817.875">ref</text><text fill="#000000" font-family="sans-serif" font-size="20" lengthAdjust="spacing" textLength="171" x="786" y="844.875">Get Administrator</text><text fill="#000000" font-family="sans-serif" font-size="20" lengthAdjust="spacing" textLength="6" x="868.5" y="868.4297"> </text><line style="stroke:#181818;stroke-width:1.0;" x1="881.5" x2="923.5" y1="916.7578" y2="916.7578"/><line style="stroke:#181818;stroke-width:1.0;" x1="923.5" x2="923.5" y1="916.7578" y2="929.7578"/><line style="stroke:#181818;stroke-width:1.0;" x1="876.5" x2="923.5" y1="929.7578" y2="929.7578"/><polygon fill="#181818" points="886.5,925.7578,876.5,929.7578,886.5,933.7578,882.5,929.7578" style="stroke:#181818;stroke-width:1.0;"/><text fill="#000000" font-family="sans-serif" font-size="20" font-weight="bold" lengthAdjust="spacing" textLength="31" x="888.5" y="910.5391">5.7</text><text fill="#000000" font-family="sans-serif" font-size="20" lengthAdjust="spacing" textLength="130" x="923.5" y="910.5391">administrator</text><line style="stroke:#181818;stroke-width:1.0;" x1="876.5" x2="923.5" y1="957.3125" y2="957.3125"/><line style="stroke:#181818;stroke-width:1.0;" x1="923.5" x2="923.5" y1="957.3125" y2="970.3125"/><line style="stroke:#181818;stroke-width:1.0;" x1="882.5" x2="923.5" y1="970.3125" y2="970.3125"/><polygon fill="#181818" points="892.5,966.3125,882.5,970.3125,892.5,974.3125,888.5,970.3125" style="stroke:#181818;stroke-width:1.0;"/><text fill="#000000" font-family="sans-serif" font-size="20" font-weight="bold" lengthAdjust="spacing" textLength="31" x="888.5" y="951.0938">5.8</text><text fill="#000000" font-family="sans-serif" font-size="20" lengthAdjust="spacing" textLength="177" x="923.5" y="951.0938">readFile(fileName)</text><polygon fill="#181818" points="1453.5,1008.8672,1463.5,1012.8672,1453.5,1016.8672,1457.5,1012.8672" style="stroke:#181818;stroke-width:1.0;"/><line style="stroke:#181818;stroke-width:1.0;" x1="881.5" x2="1459.5" y1="1012.8672" y2="1012.8672"/><text fill="#000000" font-family="sans-serif" font-size="20" font-weight="bold" lengthAdjust="spacing" textLength="31" x="888.5" y="1006.6484">5.9</text><text fill="#000000" font-family="sans-serif" font-size="20" lengthAdjust="spacing" textLength="264" x="923.5" y="1006.6484">createProperty(information)</text><rect fill="none" height="80.6641" style="stroke:#000000;stroke-width:1.5;" width="208" x="1366.5" y="1020.8672"/><path d="M1366.5,1020.8672 L1440.5,1020.8672 L1440.5,1035.8672 L1430.5,1045.8672 L1366.5,1045.8672 L1366.5,1020.8672 " fill="#EEEEEE" style="stroke:#000000;stroke-width:2.0;"/><text fill="#000000" font-family="sans-serif" font-size="20" font-weight="bold" lengthAdjust="spacing" textLength="29" x="1379.5" y="1042.2031">ref</text><text fill="#000000" font-family="sans-serif" font-size="20" lengthAdjust="spacing" textLength="148" x="1396.5" y="1069.2031">Create Property</text><text fill="#000000" font-family="sans-serif" font-size="20" lengthAdjust="spacing" textLength="6" x="1467.5" y="1092.7578"> </text><path d="M749.5,1113.5313 L828.5,1113.5313 L828.5,1129.0859 L818.5,1139.0859 L749.5,1139.0859 L749.5,1113.5313 " fill="#EEEEEE" style="stroke:#000000;stroke-width:1.5;"/><rect fill="none" height="71.6641" style="stroke:#000000;stroke-width:1.5;" width="832" x="749.5" y="1113.5313"/><text fill="#000000" font-family="sans-serif" font-size="20" font-weight="bold" lengthAdjust="spacing" textLength="34" x="764.5" y="1133.8672">opt</text><text fill="#000000" font-family="sans-serif" font-size="20" font-weight="bold" lengthAdjust="spacing" textLength="59" x="843.5" y="1134.8672">[land]</text><polygon fill="#181818" points="892.5,1173.1953,882.5,1177.1953,892.5,1181.1953,888.5,1177.1953" style="stroke:#181818;stroke-width:1.0;"/><line style="stroke:#181818;stroke-width:1.0;stroke-dasharray:2.0,2.0;" x1="886.5" x2="1464.5" y1="1177.1953" y2="1177.1953"/><text fill="#000000" font-family="sans-serif" font-size="20" font-weight="bold" lengthAdjust="spacing" textLength="44" x="898.5" y="1170.9766">5.10</text><text fill="#000000" font-family="sans-serif" font-size="20" lengthAdjust="spacing" textLength="42" x="946.5" y="1170.9766">land</text><path d="M749.5,1199.1953 L828.5,1199.1953 L828.5,1214.75 L818.5,1224.75 L749.5,1224.75 L749.5,1199.1953 " fill="#EEEEEE" style="stroke:#000000;stroke-width:1.5;"/><rect fill="none" height="71.6641" style="stroke:#000000;stroke-width:1.5;" width="832" x="749.5" y="1199.1953"/><text fill="#000000" font-family="sans-serif" font-size="20" font-weight="bold" lengthAdjust="spacing" textLength="34" x="764.5" y="1219.5313">opt</text><text fill="#000000" font-family="sans-serif" font-size="20" font-weight="bold" lengthAdjust="spacing" textLength="120" x="843.5" y="1220.5313">[apartment]</text><polygon fill="#181818" points="892.5,1258.8594,882.5,1262.8594,892.5,1266.8594,888.5,1262.8594" style="stroke:#181818;stroke-width:1.0;"/><line style="stroke:#181818;stroke-width:1.0;stroke-dasharray:2.0,2.0;" x1="886.5" x2="1464.5" y1="1262.8594" y2="1262.8594"/><text fill="#000000" font-family="sans-serif" font-size="20" font-weight="bold" lengthAdjust="spacing" textLength="44" x="898.5" y="1256.6406">5.10</text><text fill="#000000" font-family="sans-serif" font-size="20" lengthAdjust="spacing" textLength="99" x="946.5" y="1256.6406">apartment</text><path d="M749.5,1284.8594 L828.5,1284.8594 L828.5,1300.4141 L818.5,1310.4141 L749.5,1310.4141 L749.5,1284.8594 " fill="#EEEEEE" style="stroke:#000000;stroke-width:1.5;"/><rect fill="none" height="71.6641" style="stroke:#000000;stroke-width:1.5;" width="832" x="749.5" y="1284.8594"/><text fill="#000000" font-family="sans-serif" font-size="20" font-weight="bold" lengthAdjust="spacing" textLength="34" x="764.5" y="1305.1953">opt</text><text fill="#000000" font-family="sans-serif" font-size="20" font-weight="bold" lengthAdjust="spacing" textLength="76" x="843.5" y="1306.1953">[house]</text><polygon fill="#181818" points="892.5,1344.5234,882.5,1348.5234,892.5,1352.5234,888.5,1348.5234" style="stroke:#181818;stroke-width:1.0;"/><line style="stroke:#181818;stroke-width:1.0;stroke-dasharray:2.0,2.0;" x1="886.5" x2="1464.5" y1="1348.5234" y2="1348.5234"/><text fill="#000000" font-family="sans-serif" font-size="20" font-weight="bold" lengthAdjust="spacing" textLength="44" x="898.5" y="1342.3047">5.10</text><text fill="#000000" font-family="sans-serif" font-size="20" lengthAdjust="spacing" textLength="57" x="946.5" y="1342.3047">house</text><polygon fill="#181818" points="1664,1389.0781,1674,1393.0781,1664,1397.0781,1668,1393.0781" style="stroke:#181818;stroke-width:1.0;"/><line style="stroke:#181818;stroke-width:1.0;" x1="881.5" x2="1670" y1="1393.0781" y2="1393.0781"/><text fill="#000000" font-family="sans-serif" font-size="20" font-weight="bold" lengthAdjust="spacing" textLength="44" x="888.5" y="1386.8594">5.11</text><text fill="#000000" font-family="sans-serif" font-size="20" lengthAdjust="spacing" textLength="261" x="936.5" y="1386.8594">createRequest(information)</text><rect fill="none" height="80.6641" style="stroke:#000000;stroke-width:1.5;" width="205" x="1578.5" y="1401.0781"/><path d="M1578.5,1401.0781 L1652.5,1401.0781 L1652.5,1416.0781 L1642.5,1426.0781 L1578.5,1426.0781 L1578.5,1401.0781 " fill="#EEEEEE" style="stroke:#000000;stroke-width:2.0;"/><text fill="#000000" font-family="sans-serif" font-size="20" font-weight="bold" lengthAdjust="spacing" textLength="29" x="1591.5" y="1422.4141">ref</text><text fill="#000000" font-family="sans-serif" font-size="20" lengthAdjust="spacing" textLength="145" x="1608.5" y="1449.4141">Create Request</text><text fill="#000000" font-family="sans-serif" font-size="20" lengthAdjust="spacing" textLength="6" x="1678" y="1472.9688"> </text><polygon fill="#181818" points="892.5,1512.2969,882.5,1516.2969,892.5,1520.2969,888.5,1516.2969" style="stroke:#181818;stroke-width:1.0;"/><line style="stroke:#181818;stroke-width:1.0;stroke-dasharray:2.0,2.0;" x1="886.5" x2="1680" y1="1516.2969" y2="1516.2969"/><text fill="#000000" font-family="sans-serif" font-size="20" font-weight="bold" lengthAdjust="spacing" textLength="44" x="898.5" y="1510.0781">5.12</text><text fill="#000000" font-family="sans-serif" font-size="20" lengthAdjust="spacing" textLength="72" x="946.5" y="1510.0781">request</text><polygon fill="#181818" points="1906.5,1549.8516,1916.5,1553.8516,1906.5,1557.8516,1910.5,1553.8516" style="stroke:#181818;stroke-width:1.0;"/><line style="stroke:#181818;stroke-width:1.0;" x1="881.5" x2="1912.5" y1="1553.8516" y2="1553.8516"/><text fill="#000000" font-family="sans-serif" font-size="20" font-weight="bold" lengthAdjust="spacing" textLength="44" x="888.5" y="1547.6328">5.13</text><text fill="#000000" font-family="sans-serif" font-size="20" lengthAdjust="spacing" textLength="328" x="936.5" y="1547.6328">createAnnouncement(information)</text><rect fill="none" height="80.6641" style="stroke:#000000;stroke-width:1.5;" width="272" x="1787.5" y="1561.8516"/><path d="M1787.5,1561.8516 L1861.5,1561.8516 L1861.5,1576.8516 L1851.5,1586.8516 L1787.5,1586.8516 L1787.5,1561.8516 " fill="#EEEEEE" style="stroke:#000000;stroke-width:2.0;"/><text fill="#000000" font-family="sans-serif" font-size="20" font-weight="bold" lengthAdjust="spacing" textLength="29" x="1800.5" y="1583.1875">ref</text><text fill="#000000" font-family="sans-serif" font-size="20" lengthAdjust="spacing" textLength="212" x="1817.5" y="1610.1875">Create Announcement</text><text fill="#000000" font-family="sans-serif" font-size="20" lengthAdjust="spacing" textLength="6" x="1920.5" y="1633.7422"> </text><polygon fill="#181818" points="892.5,1673.0703,882.5,1677.0703,892.5,1681.0703,888.5,1677.0703" style="stroke:#181818;stroke-width:1.0;"/><line style="stroke:#181818;stroke-width:1.0;stroke-dasharray:2.0,2.0;" x1="886.5" x2="1922.5" y1="1677.0703" y2="1677.0703"/><text fill="#000000" font-family="sans-serif" font-size="20" font-weight="bold" lengthAdjust="spacing" textLength="44" x="898.5" y="1670.8516">5.14</text><text fill="#000000" font-family="sans-serif" font-size="20" lengthAdjust="spacing" textLength="141" x="946.5" y="1670.8516">announcement</text><polygon fill="#181818" points="2145,1710.625,2155,1714.625,2145,1718.625,2149,1714.625" style="stroke:#181818;stroke-width:1.0;"/><line style="stroke:#181818;stroke-width:1.0;" x1="881.5" x2="2151" y1="1714.625" y2="1714.625"/><text fill="#000000" font-family="sans-serif" font-size="20" font-weight="bold" lengthAdjust="spacing" textLength="44" x="888.5" y="1708.4063">5.15</text><text fill="#000000" font-family="sans-serif" font-size="20" lengthAdjust="spacing" textLength="253" x="936.5" y="1708.4063">createAgency(information)</text><rect fill="none" height="80.6641" style="stroke:#000000;stroke-width:1.5;" width="197" x="2063.5" y="1722.625"/><path d="M2063.5,1722.625 L2137.5,1722.625 L2137.5,1737.625 L2127.5,1747.625 L2063.5,1747.625 L2063.5,1722.625 " fill="#EEEEEE" style="stroke:#000000;stroke-width:2.0;"/><text fill="#000000" font-family="sans-serif" font-size="20" font-weight="bold" lengthAdjust="spacing" textLength="29" x="2076.5" y="1743.9609">ref</text><text fill="#000000" font-family="sans-serif" font-size="20" lengthAdjust="spacing" textLength="137" x="2093.5" y="1770.9609">Create Agency</text><text fill="#000000" font-family="sans-serif" font-size="20" lengthAdjust="spacing" textLength="6" x="2159" y="1794.5156"> </text><polygon fill="#181818" points="892.5,1833.8438,882.5,1837.8438,892.5,1841.8438,888.5,1837.8438" style="stroke:#181818;stroke-width:1.0;"/><line style="stroke:#181818;stroke-width:1.0;stroke-dasharray:2.0,2.0;" x1="886.5" x2="2161" y1="1837.8438" y2="1837.8438"/><text fill="#000000" font-family="sans-serif" font-size="20" font-weight="bold" lengthAdjust="spacing" textLength="44" x="898.5" y="1831.625">5.16</text><text fill="#000000" font-family="sans-serif" font-size="20" lengthAdjust="spacing" textLength="66" x="946.5" y="1831.625">agency</text><line style="stroke:#181818;stroke-width:1.0;stroke-dasharray:2.0,2.0;" x1="881.5" x2="923.5" y1="1880.3984" y2="1880.3984"/><line style="stroke:#181818;stroke-width:1.0;stroke-dasharray:2.0,2.0;" x1="923.5" x2="923.5" y1="1880.3984" y2="1893.3984"/><line style="stroke:#181818;stroke-width:1.0;stroke-dasharray:2.0,2.0;" x1="876.5" x2="923.5" y1="1893.3984" y2="1893.3984"/><polygon fill="#181818" points="886.5,1889.3984,876.5,1893.3984,886.5,1897.3984,882.5,1893.3984" style="stroke:#181818;stroke-width:1.0;"/><text fill="#000000" font-family="sans-serif" font-size="20" font-weight="bold" lengthAdjust="spacing" textLength="44" x="888.5" y="1874.1797">5.17</text><text fill="#000000" font-family="sans-serif" font-size="20" lengthAdjust="spacing" textLength="6" x="936.5" y="1874.1797"> </text><polygon fill="#181818" points="646.5,1921.9531,636.5,1925.9531,646.5,1929.9531,642.5,1925.9531" style="stroke:#181818;stroke-width:1.0;"/><line style="stroke:#181818;stroke-width:1.0;stroke-dasharray:2.0,2.0;" x1="640.5" x2="870.5" y1="1925.9531" y2="1925.9531"/><text fill="#000000" font-family="sans-serif" font-size="20" font-weight="bold" lengthAdjust="spacing" textLength="44" x="652.5" y="1919.7344">5.18</text><text fill="#000000" font-family="sans-serif" font-size="20" lengthAdjust="spacing" textLength="6" x="700.5" y="1919.7344"> </text><polygon fill="#181818" points="130.5,1959.5078,120.5,1963.5078,130.5,1967.5078,126.5,1963.5078" style="stroke:#181818;stroke-width:1.0;"/><line style="stroke:#181818;stroke-width:1.0;stroke-dasharray:2.0,2.0;" x1="124.5" x2="629.5" y1="1963.5078" y2="1963.5078"/><text fill="#000000" font-family="sans-serif" font-size="20" font-weight="bold" lengthAdjust="spacing" textLength="13" x="136.5" y="1957.2891">6</text><text fill="#000000" font-family="sans-serif" font-size="20" lengthAdjust="spacing" textLength="256" x="153.5" y="1957.2891">displays operation success</text><!--SRC=[jLV1Rjim3BtxAuXUbWtOq1RO3ZaCIBjrAB2jGzFUTb5jEX5YIvuajtE_Vf8IEv8bEqw0wMI8v2FvI4cqt51M4K7AWgSRp233dDI5kk5CBUahmkLv8biLA3dZwLhm4a696Xr9HT8DMU5IDGM2m5GHjYfS1Rac6N-XR0KvAIGc2QaLPtNvX299tgnfXf1phfxutuIaYWiuknChmkWhKPGp-5fM1MyGpu18M7pvaMXKHLDQ4QRWR7uja2Xy87BpU6jL7cy7DQvrQe8N1GghUVrm_ztNhGIlKAZc7YikgOwb-Stclu9DQnrk-rW2_zGebGTrtz-pIC6k3qGOupLBiKJceosYWYrFKL4FTuKizLDTzBQsMBtDn9I9FcjERJaIq4j_mFlFcdkOQvED1CM1bXKN2YZBkIYtjSnr0m610bSaRK0sKc7fzWDSVBYmU9q7NKsxOPP6rpvCrTwzqtws-9xvfQUhbKrSSzYLGa965B4g6GOUt1HKKw5ipSpHq7Omosc1Fqc9RyT3xDpADN-H8B7GXw858Iph24evowae9qUrqtVISDNR41mwFkxOzCcpX93iHcVJIyc3jAUZspRB6kz1LgZQC_2W-Rfg3D1igOGvwfKZyHqSS6AMm1puiqx0YY6olg7g3Y0O7o48QgOrK2ZOfh7FmmtLKtRACOKCOt-NNzMICfJIfqDvif2G8yWvZgW-QIP8QECO1nyaS8nCasW7FsHq9B6BhAICIYM8ldvkz1MorE3wEfdzXwRoV0qtLPo6BcZYePoK-kWX3TEDmOGlbBv3x6FOIcREvJo07ddcXgcDA4URnWRHQKTf3lRyU-qyaFDAGK4YXc5GRiD6JKxrJym3QzxSOuAOZvYT6iYQrnAF2o9kqW_0wTy3nVR3l8XtUZ3wj1sw4qneq71w6cpFmweZtRepdjQiWIU7wDrOaOpSYc6WIOIy-93NCkXAXscCCJemF4vvXuut7M7S1HjzXM8LS5OyAFVykOv6W9mA7KoqAr9lUkxAO_Sd5IPMelvCFedNVPbECXyhbGLCfk4SA9TJk5wORics3YV1k6KRJjoRP9BX5pjYuKpVO_hEZVZ9Ytp_rp27ZCgg88q4Sxbk_vfadQRjEDNxHN1Jq_zY_m00]--></g></svg>