<?xml version="1.0" encoding="us-ascii" standalone="no"?><svg xmlns="http://www.w3.org/2000/svg" xmlns:xlink="http://www.w3.org/1999/xlink" contentStyleType="text/css" height="349px" preserveAspectRatio="none" style="width:838px;height:349px;background:#FFFFFF;" version="1.1" viewBox="0 0 838 349" width="838px" zoomAndPan="magnify"><defs/><g><rect fill="#FFFFFF" height="208.6641" style="stroke:#181818;stroke-width:1.0;" width="10" x="337" y="81.8047"/><rect fill="#FFFFFF" height="28.5234" style="stroke:#181818;stroke-width:1.0;" width="10" x="490" y="110.3281"/><rect fill="#FFFFFF" height="28.5234" style="stroke:#181818;stroke-width:1.0;" width="10" x="597" y="167.375"/><rect fill="#FFFFFF" height="28.5234" style="stroke:#181818;stroke-width:1.0;" width="10" x="741.5" y="224.4219"/><line style="stroke:#181818;stroke-width:0.5;stroke-dasharray:5.0,5.0;" x1="341.5" x2="341.5" y1="51.2813" y2="299.4688"/><line style="stroke:#181818;stroke-width:0.5;stroke-dasharray:5.0,5.0;" x1="494.5" x2="494.5" y1="51.2813" y2="299.4688"/><line style="stroke:#181818;stroke-width:0.5;stroke-dasharray:5.0,5.0;" x1="601.5" x2="601.5" y1="51.2813" y2="299.4688"/><line style="stroke:#181818;stroke-width:0.5;stroke-dasharray:5.0,5.0;" x1="746.5" x2="746.5" y1="51.2813" y2="299.4688"/><rect fill="#E3E3E3" height="29.6406" rx="2.5" ry="2.5" style="stroke:#181818;stroke-width:0.5;" width="189" x="247.5" y="20.6406"/><text fill="#000000" font-family="sans-serif" font-size="14" lengthAdjust="spacing" textLength="175" x="254.5" y="40.3145">:ImportInformationController</text><rect fill="#E3E3E3" height="29.6406" rx="2.5" ry="2.5" style="stroke:#181818;stroke-width:0.5;" width="189" x="247.5" y="298.4688"/><text fill="#000000" font-family="sans-serif" font-size="14" lengthAdjust="spacing" textLength="175" x="254.5" y="318.1426">:ImportInformationController</text><rect fill="#E3E3E3" height="29.6406" rx="2.5" ry="2.5" style="stroke:#181818;stroke-width:0.5;" width="97" x="446.5" y="20.6406"/><text fill="#000000" font-family="sans-serif" font-size="14" lengthAdjust="spacing" textLength="83" x="453.5" y="40.3145">:Repositories</text><rect fill="#E3E3E3" height="29.6406" rx="2.5" ry="2.5" style="stroke:#181818;stroke-width:0.5;" width="97" x="446.5" y="298.4688"/><text fill="#000000" font-family="sans-serif" font-size="14" lengthAdjust="spacing" textLength="83" x="453.5" y="318.1426">:Repositories</text><rect fill="#E3E3E3" height="45.2813" rx="2.5" ry="2.5" style="stroke:#181818;stroke-width:0.5;" width="97" x="553.5" y="5"/><text fill="#000000" font-family="sans-serif" font-size="14" lengthAdjust="spacing" textLength="74" x="565" y="24.6738">repositories</text><text fill="#000000" font-family="sans-serif" font-size="14" lengthAdjust="spacing" textLength="83" x="560.5" y="40.3145">:Repositories</text><rect fill="#E3E3E3" height="45.2813" rx="2.5" ry="2.5" style="stroke:#181818;stroke-width:0.5;" width="97" x="553.5" y="298.4688"/><text fill="#000000" font-family="sans-serif" font-size="14" lengthAdjust="spacing" textLength="74" x="565" y="318.1426">repositories</text><text fill="#000000" font-family="sans-serif" font-size="14" lengthAdjust="spacing" textLength="83" x="560.5" y="333.7832">:Repositories</text><rect fill="#E3E3E3" height="45.2813" rx="2.5" ry="2.5" style="stroke:#181818;stroke-width:0.5;" width="172" x="660.5" y="5"/><text fill="#000000" font-family="sans-serif" font-size="14" lengthAdjust="spacing" textLength="153" x="670" y="24.6738">propertyTypeRepository</text><text fill="#000000" font-family="sans-serif" font-size="14" lengthAdjust="spacing" textLength="158" x="667.5" y="40.3145">:PropertyTypeRepository</text><rect fill="#E3E3E3" height="45.2813" rx="2.5" ry="2.5" style="stroke:#181818;stroke-width:0.5;" width="172" x="660.5" y="298.4688"/><text fill="#000000" font-family="sans-serif" font-size="14" lengthAdjust="spacing" textLength="153" x="670" y="318.1426">propertyTypeRepository</text><text fill="#000000" font-family="sans-serif" font-size="14" lengthAdjust="spacing" textLength="158" x="667.5" y="333.7832">:PropertyTypeRepository</text><rect fill="#FFFFFF" height="208.6641" style="stroke:#181818;stroke-width:1.0;" width="10" x="337" y="81.8047"/><rect fill="#FFFFFF" height="28.5234" style="stroke:#181818;stroke-width:1.0;" width="10" x="490" y="110.3281"/><rect fill="#FFFFFF" height="28.5234" style="stroke:#181818;stroke-width:1.0;" width="10" x="597" y="167.375"/><rect fill="#FFFFFF" height="28.5234" style="stroke:#181818;stroke-width:1.0;" width="10" x="741.5" y="224.4219"/><polygon fill="#181818" points="325,77.8047,335,81.8047,325,85.8047,329,81.8047" style="stroke:#181818;stroke-width:1.0;"/><line style="stroke:#181818;stroke-width:1.0;" x1="0" x2="331" y1="81.8047" y2="81.8047"/><text fill="#000000" font-family="sans-serif" font-size="13" font-weight="bold" lengthAdjust="spacing" textLength="14" x="7" y="77.0498">17</text><text fill="#000000" font-family="sans-serif" font-size="13" lengthAdjust="spacing" textLength="300" x="25" y="77.0498">getPropertyTypeByName(String propertyTypeName)</text><polygon fill="#181818" points="478,106.3281,488,110.3281,478,114.3281,482,110.3281" style="stroke:#181818;stroke-width:1.0;"/><line style="stroke:#181818;stroke-width:1.0;" x1="347" x2="484" y1="110.3281" y2="110.3281"/><text fill="#000000" font-family="sans-serif" font-size="13" font-weight="bold" lengthAdjust="spacing" textLength="14" x="354" y="105.5732">18</text><text fill="#000000" font-family="sans-serif" font-size="13" lengthAdjust="spacing" textLength="75" x="372" y="105.5732">getInstance()</text><polygon fill="#181818" points="358,134.8516,348,138.8516,358,142.8516,354,138.8516" style="stroke:#181818;stroke-width:1.0;"/><line style="stroke:#181818;stroke-width:1.0;stroke-dasharray:2.0,2.0;" x1="352" x2="494" y1="138.8516" y2="138.8516"/><text fill="#000000" font-family="sans-serif" font-size="13" font-weight="bold" lengthAdjust="spacing" textLength="14" x="364" y="134.0967">19</text><text fill="#000000" font-family="sans-serif" font-size="13" lengthAdjust="spacing" textLength="67" x="382" y="134.0967">repositories</text><polygon fill="#181818" points="585,163.375,595,167.375,585,171.375,589,167.375" style="stroke:#181818;stroke-width:1.0;"/><line style="stroke:#181818;stroke-width:1.0;" x1="347" x2="591" y1="167.375" y2="167.375"/><text fill="#000000" font-family="sans-serif" font-size="13" font-weight="bold" lengthAdjust="spacing" textLength="14" x="354" y="162.6201">20</text><text fill="#000000" font-family="sans-serif" font-size="13" lengthAdjust="spacing" textLength="165" x="372" y="162.6201">getPropertyTypeRepository()</text><polygon fill="#181818" points="358,191.8984,348,195.8984,358,199.8984,354,195.8984" style="stroke:#181818;stroke-width:1.0;"/><line style="stroke:#181818;stroke-width:1.0;stroke-dasharray:2.0,2.0;" x1="352" x2="601" y1="195.8984" y2="195.8984"/><text fill="#000000" font-family="sans-serif" font-size="13" font-weight="bold" lengthAdjust="spacing" textLength="14" x="364" y="191.1436">21</text><text fill="#000000" font-family="sans-serif" font-size="13" lengthAdjust="spacing" textLength="137" x="382" y="191.1436">propertyTypeRepository</text><polygon fill="#181818" points="729.5,220.4219,739.5,224.4219,729.5,228.4219,733.5,224.4219" style="stroke:#181818;stroke-width:1.0;"/><line style="stroke:#181818;stroke-width:1.0;" x1="347" x2="735.5" y1="224.4219" y2="224.4219"/><text fill="#000000" font-family="sans-serif" font-size="13" font-weight="bold" lengthAdjust="spacing" textLength="14" x="354" y="219.667">22</text><text fill="#000000" font-family="sans-serif" font-size="13" lengthAdjust="spacing" textLength="300" x="372" y="219.667">getPropertyTypeByName(String propertyTypeName)</text><polygon fill="#181818" points="358,248.9453,348,252.9453,358,256.9453,354,252.9453" style="stroke:#181818;stroke-width:1.0;"/><line style="stroke:#181818;stroke-width:1.0;stroke-dasharray:2.0,2.0;" x1="352" x2="745.5" y1="252.9453" y2="252.9453"/><text fill="#000000" font-family="sans-serif" font-size="13" font-weight="bold" lengthAdjust="spacing" textLength="14" x="364" y="248.1904">23</text><text fill="#000000" font-family="sans-serif" font-size="13" lengthAdjust="spacing" textLength="75" x="382" y="248.1904">propertyType</text><polygon fill="#181818" points="11,277.4688,1,281.4688,11,285.4688,7,281.4688" style="stroke:#181818;stroke-width:1.0;"/><line style="stroke:#181818;stroke-width:1.0;stroke-dasharray:2.0,2.0;" x1="5" x2="336" y1="281.4688" y2="281.4688"/><text fill="#000000" font-family="sans-serif" font-size="13" font-weight="bold" lengthAdjust="spacing" textLength="14" x="17" y="276.7139">24</text><text fill="#000000" font-family="sans-serif" font-size="13" lengthAdjust="spacing" textLength="75" x="35" y="276.7139">propertyType</text><!--SRC=[bL4zRy8m4DtzAquifKE6JfLGLQbbYeGg18nTJ3Y2HUAppaVR_FlQXeI4qA6PhBltTI_-QApJh6keoL9nOAeHX4-eVBTnkZZg4jVIL0YCXMXRLds0F-WTVHjRmbvN7fNI9o5xghV8IZqSp0vXJoHR-b4gCCGKncahC9dbjIEMtEw9Qos6x9oiC5KLyWIqX_bcjRYXhD2HDq9iq2TC60mXt4DysZ5XkNZR31cEoI5BisaSTl0cS9Tt5sSLfZZj7mjFpofxJQ5dKABqsU_DXwvnkXQEFVKDu_mno1HYlhJW-MO8Ntn0q0l6aFHowqFt1Ku3F08wIgmWJI8qwoBqYqZh7OufhKji1KQnhqS7qu5dQZ6D4hDr3HBtsxmDSELt2SwDmkoVrGrZjRyb9Rie_X5k5AdblcJPfS8-_1S0]--></g></svg>