<?xml version="1.0" encoding="us-ascii" standalone="no"?><svg xmlns="http://www.w3.org/2000/svg" xmlns:xlink="http://www.w3.org/1999/xlink" contentStyleType="text/css" height="1427px" preserveAspectRatio="none" style="width:1533px;height:1427px;background:#FFFFFF;" version="1.1" viewBox="0 0 1533 1427" width="1533px" zoomAndPan="magnify"><defs/><g><rect fill="#FFFFFF" height="1239.0781" style="stroke:#181818;stroke-width:1.0;" width="10" x="84.5" y="90.6406"/><rect fill="#FFFFFF" height="69.1641" style="stroke:#181818;stroke-width:1.0;" width="10" x="403.5" y="111.1641"/><rect fill="#FFFFFF" height="28.5234" style="stroke:#181818;stroke-width:1.0;" width="10" x="403.5" y="208.8516"/><rect fill="#FFFFFF" height="1063.8203" style="stroke:#181818;stroke-width:1.0;" width="10" x="403.5" y="265.8984"/><rect fill="#FFFFFF" height="1006.7734" style="stroke:#181818;stroke-width:1.0;" width="10" x="585" y="294.4219"/><rect fill="#FFFFFF" height="95.8594" style="stroke:#181818;stroke-width:1.0;" width="10" x="590" y="330.9453"/><rect fill="#FFFFFF" height="95.8594" style="stroke:#181818;stroke-width:1.0;" width="10" x="590" y="470.3281"/><rect fill="#FFFFFF" height="95.8594" style="stroke:#181818;stroke-width:1.0;" width="10" x="590" y="609.7109"/><rect fill="#FFFFFF" height="516.5781" style="stroke:#181818;stroke-width:1.0;" width="10" x="590" y="749.0938"/><rect fill="#FFFFFF" height="84.8594" style="stroke:#181818;stroke-width:1.0;" width="10" x="966" y="806.1406"/><rect fill="#FFFFFF" height="84.8594" style="stroke:#181818;stroke-width:1.0;" width="10" x="1115.5" y="919.5234"/><rect fill="#FFFFFF" height="84.8594" style="stroke:#181818;stroke-width:1.0;" width="10" x="1285.5" y="1032.9063"/><rect fill="#FFFFFF" height="84.8594" style="stroke:#181818;stroke-width:1.0;" width="10" x="1452.5" y="1146.2891"/><line style="stroke:#181818;stroke-width:0.5;stroke-dasharray:5.0,5.0;" x1="89" x2="89" y1="80.6406" y2="1347.7188"/><line style="stroke:#181818;stroke-width:0.5;stroke-dasharray:5.0,5.0;" x1="408" x2="408" y1="80.6406" y2="1347.7188"/><line style="stroke:#181818;stroke-width:0.5;stroke-dasharray:5.0,5.0;" x1="589.5" x2="589.5" y1="149.4844" y2="1347.7188"/><line style="stroke:#181818;stroke-width:0.5;stroke-dasharray:5.0,5.0;" x1="971" x2="971" y1="80.6406" y2="1347.7188"/><line style="stroke:#181818;stroke-width:0.5;stroke-dasharray:5.0,5.0;" x1="1120" x2="1120" y1="80.6406" y2="1347.7188"/><line style="stroke:#181818;stroke-width:0.5;stroke-dasharray:5.0,5.0;" x1="1290" x2="1290" y1="80.6406" y2="1347.7188"/><line style="stroke:#181818;stroke-width:0.5;stroke-dasharray:5.0,5.0;" x1="1457" x2="1457" y1="80.6406" y2="1347.7188"/><text fill="#000000" font-family="sans-serif" font-size="14" lengthAdjust="spacing" textLength="133" x="20" y="77.6738">System Administrator</text><ellipse cx="89.5" cy="13.5" fill="#E3E3E3" rx="8" ry="8" style="stroke:#181818;stroke-width:0.5;"/><path d="M89.5,21.5 L89.5,48.5 M76.5,29.5 L102.5,29.5 M89.5,48.5 L76.5,63.5 M89.5,48.5 L102.5,63.5 " fill="none" style="stroke:#181818;stroke-width:0.5;"/><text fill="#000000" font-family="sans-serif" font-size="14" lengthAdjust="spacing" textLength="133" x="20" y="1359.3926">System Administrator</text><ellipse cx="89.5" cy="1370.8594" fill="#E3E3E3" rx="8" ry="8" style="stroke:#181818;stroke-width:0.5;"/><path d="M89.5,1378.8594 L89.5,1405.8594 M76.5,1386.8594 L102.5,1386.8594 M89.5,1405.8594 L76.5,1420.8594 M89.5,1405.8594 L102.5,1420.8594 " fill="none" style="stroke:#181818;stroke-width:0.5;"/><rect fill="#E3E3E3" height="29.6406" rx="2.5" ry="2.5" style="stroke:#181818;stroke-width:0.5;" width="139" x="339" y="50"/><text fill="#000000" font-family="sans-serif" font-size="14" lengthAdjust="spacing" textLength="125" x="346" y="69.6738">:ImportInformationUI</text><rect fill="#E3E3E3" height="29.6406" rx="2.5" ry="2.5" style="stroke:#181818;stroke-width:0.5;" width="139" x="339" y="1346.7188"/><text fill="#000000" font-family="sans-serif" font-size="14" lengthAdjust="spacing" textLength="125" x="346" y="1366.3926">:ImportInformationUI</text><rect fill="#E3E3E3" height="29.6406" rx="2.5" ry="2.5" style="stroke:#181818;stroke-width:0.5;" width="189" x="495.5" y="1346.7188"/><text fill="#000000" font-family="sans-serif" font-size="14" lengthAdjust="spacing" textLength="175" x="502.5" y="1366.3926">:ImportInformationController</text><rect fill="#E3E3E3" height="45.2813" rx="2.5" ry="2.5" style="stroke:#181818;stroke-width:0.5;" width="140" x="901" y="34.3594"/><text fill="#000000" font-family="sans-serif" font-size="14" lengthAdjust="spacing" textLength="121" x="910.5" y="54.0332">propertyRepository</text><text fill="#000000" font-family="sans-serif" font-size="14" lengthAdjust="spacing" textLength="126" x="908" y="69.6738">:PropertyRepository</text><rect fill="#E3E3E3" height="45.2813" rx="2.5" ry="2.5" style="stroke:#181818;stroke-width:0.5;" width="140" x="901" y="1346.7188"/><text fill="#000000" font-family="sans-serif" font-size="14" lengthAdjust="spacing" textLength="121" x="910.5" y="1366.3926">propertyRepository</text><text fill="#000000" font-family="sans-serif" font-size="14" lengthAdjust="spacing" textLength="126" x="908" y="1382.0332">:PropertyRepository</text><rect fill="#E3E3E3" height="45.2813" rx="2.5" ry="2.5" style="stroke:#181818;stroke-width:0.5;" width="139" x="1051" y="34.3594"/><text fill="#000000" font-family="sans-serif" font-size="14" lengthAdjust="spacing" textLength="116" x="1062.5" y="54.0332">requestRepository</text><text fill="#000000" font-family="sans-serif" font-size="14" lengthAdjust="spacing" textLength="125" x="1058" y="69.6738">:RequestRepository</text><rect fill="#E3E3E3" height="45.2813" rx="2.5" ry="2.5" style="stroke:#181818;stroke-width:0.5;" width="139" x="1051" y="1346.7188"/><text fill="#000000" font-family="sans-serif" font-size="14" lengthAdjust="spacing" textLength="116" x="1062.5" y="1366.3926">requestRepository</text><text fill="#000000" font-family="sans-serif" font-size="14" lengthAdjust="spacing" textLength="125" x="1058" y="1382.0332">:RequestRepository</text><rect fill="#E3E3E3" height="45.2813" rx="2.5" ry="2.5" style="stroke:#181818;stroke-width:0.5;" width="181" x="1200" y="34.3594"/><text fill="#000000" font-family="sans-serif" font-size="14" lengthAdjust="spacing" textLength="162" x="1209.5" y="54.0332">announcementRepository</text><text fill="#000000" font-family="sans-serif" font-size="14" lengthAdjust="spacing" textLength="167" x="1207" y="69.6738">:AnnouncementRepository</text><rect fill="#E3E3E3" height="45.2813" rx="2.5" ry="2.5" style="stroke:#181818;stroke-width:0.5;" width="181" x="1200" y="1346.7188"/><text fill="#000000" font-family="sans-serif" font-size="14" lengthAdjust="spacing" textLength="162" x="1209.5" y="1366.3926">announcementRepository</text><text fill="#000000" font-family="sans-serif" font-size="14" lengthAdjust="spacing" textLength="167" x="1207" y="1382.0332">:AnnouncementRepository</text><rect fill="#E3E3E3" height="45.2813" rx="2.5" ry="2.5" style="stroke:#181818;stroke-width:0.5;" width="133" x="1391" y="34.3594"/><text fill="#000000" font-family="sans-serif" font-size="14" lengthAdjust="spacing" textLength="114" x="1400.5" y="54.0332">agencyRepository</text><text fill="#000000" font-family="sans-serif" font-size="14" lengthAdjust="spacing" textLength="119" x="1398" y="69.6738">:AgencyRepository</text><rect fill="#E3E3E3" height="45.2813" rx="2.5" ry="2.5" style="stroke:#181818;stroke-width:0.5;" width="133" x="1391" y="1346.7188"/><text fill="#000000" font-family="sans-serif" font-size="14" lengthAdjust="spacing" textLength="114" x="1400.5" y="1366.3926">agencyRepository</text><text fill="#000000" font-family="sans-serif" font-size="14" lengthAdjust="spacing" textLength="119" x="1398" y="1382.0332">:AgencyRepository</text><rect fill="#FFFFFF" height="1239.0781" style="stroke:#181818;stroke-width:1.0;" width="10" x="84.5" y="90.6406"/><rect fill="#FFFFFF" height="69.1641" style="stroke:#181818;stroke-width:1.0;" width="10" x="403.5" y="111.1641"/><rect fill="#FFFFFF" height="28.5234" style="stroke:#181818;stroke-width:1.0;" width="10" x="403.5" y="208.8516"/><rect fill="#FFFFFF" height="1063.8203" style="stroke:#181818;stroke-width:1.0;" width="10" x="403.5" y="265.8984"/><rect fill="#FFFFFF" height="1006.7734" style="stroke:#181818;stroke-width:1.0;" width="10" x="585" y="294.4219"/><rect fill="#FFFFFF" height="95.8594" style="stroke:#181818;stroke-width:1.0;" width="10" x="590" y="330.9453"/><rect fill="#FFFFFF" height="95.8594" style="stroke:#181818;stroke-width:1.0;" width="10" x="590" y="470.3281"/><rect fill="#FFFFFF" height="95.8594" style="stroke:#181818;stroke-width:1.0;" width="10" x="590" y="609.7109"/><rect fill="#FFFFFF" height="516.5781" style="stroke:#181818;stroke-width:1.0;" width="10" x="590" y="749.0938"/><rect fill="#FFFFFF" height="84.8594" style="stroke:#181818;stroke-width:1.0;" width="10" x="966" y="806.1406"/><rect fill="#FFFFFF" height="84.8594" style="stroke:#181818;stroke-width:1.0;" width="10" x="1115.5" y="919.5234"/><rect fill="#FFFFFF" height="84.8594" style="stroke:#181818;stroke-width:1.0;" width="10" x="1285.5" y="1032.9063"/><rect fill="#FFFFFF" height="84.8594" style="stroke:#181818;stroke-width:1.0;" width="10" x="1452.5" y="1146.2891"/><polygon fill="#181818" points="391.5,107.1641,401.5,111.1641,391.5,115.1641,395.5,111.1641" style="stroke:#181818;stroke-width:1.0;"/><line style="stroke:#181818;stroke-width:1.0;" x1="94.5" x2="397.5" y1="111.1641" y2="111.1641"/><text fill="#000000" font-family="sans-serif" font-size="13" font-weight="bold" lengthAdjust="spacing" textLength="7" x="101.5" y="106.4092">1</text><text fill="#000000" font-family="sans-serif" font-size="13" lengthAdjust="spacing" textLength="279" x="112.5" y="106.4092">asks to import information from a legacy system</text><polygon fill="#181818" points="483.5,135.6875,493.5,139.6875,483.5,143.6875,487.5,139.6875" style="stroke:#181818;stroke-width:1.0;"/><line style="stroke:#181818;stroke-width:1.0;" x1="413.5" x2="489.5" y1="139.6875" y2="139.6875"/><text fill="#000000" font-family="sans-serif" font-size="13" font-weight="bold" lengthAdjust="spacing" textLength="18" x="420.5" y="134.9326">1.1</text><text fill="#000000" font-family="sans-serif" font-size="13" lengthAdjust="spacing" textLength="36" x="442.5" y="134.9326">import</text><rect fill="#E3E3E3" height="29.6406" rx="2.5" ry="2.5" style="stroke:#181818;stroke-width:0.5;" width="189" x="495.5" y="119.1641"/><text fill="#000000" font-family="sans-serif" font-size="14" lengthAdjust="spacing" textLength="175" x="502.5" y="138.8379">:ImportInformationController</text><polygon fill="#181818" points="105.5,176.3281,95.5,180.3281,105.5,184.3281,101.5,180.3281" style="stroke:#181818;stroke-width:1.0;"/><line style="stroke:#181818;stroke-width:1.0;stroke-dasharray:2.0,2.0;" x1="99.5" x2="407.5" y1="180.3281" y2="180.3281"/><text fill="#000000" font-family="sans-serif" font-size="13" font-weight="bold" lengthAdjust="spacing" textLength="7" x="111.5" y="175.5732">2</text><text fill="#000000" font-family="sans-serif" font-size="13" lengthAdjust="spacing" textLength="79" x="122.5" y="175.5732">requests data</text><polygon fill="#181818" points="391.5,204.8516,401.5,208.8516,391.5,212.8516,395.5,208.8516" style="stroke:#181818;stroke-width:1.0;"/><line style="stroke:#181818;stroke-width:1.0;" x1="94.5" x2="397.5" y1="208.8516" y2="208.8516"/><text fill="#000000" font-family="sans-serif" font-size="13" font-weight="bold" lengthAdjust="spacing" textLength="7" x="101.5" y="204.0967">3</text><text fill="#000000" font-family="sans-serif" font-size="13" lengthAdjust="spacing" textLength="184" x="112.5" y="204.0967">types requested data (fileName)</text><polygon fill="#181818" points="105.5,233.375,95.5,237.375,105.5,241.375,101.5,237.375" style="stroke:#181818;stroke-width:1.0;"/><line style="stroke:#181818;stroke-width:1.0;stroke-dasharray:2.0,2.0;" x1="99.5" x2="407.5" y1="237.375" y2="237.375"/><text fill="#000000" font-family="sans-serif" font-size="13" font-weight="bold" lengthAdjust="spacing" textLength="7" x="111.5" y="232.6201">4</text><text fill="#000000" font-family="sans-serif" font-size="13" lengthAdjust="spacing" textLength="266" x="122.5" y="232.6201">shows selected data and asks to confirm data</text><polygon fill="#181818" points="391.5,261.8984,401.5,265.8984,391.5,269.8984,395.5,265.8984" style="stroke:#181818;stroke-width:1.0;"/><line style="stroke:#181818;stroke-width:1.0;" x1="94.5" x2="397.5" y1="265.8984" y2="265.8984"/><text fill="#000000" font-family="sans-serif" font-size="13" font-weight="bold" lengthAdjust="spacing" textLength="7" x="101.5" y="261.1436">5</text><text fill="#000000" font-family="sans-serif" font-size="13" lengthAdjust="spacing" textLength="78" x="112.5" y="261.1436">confirms data</text><polygon fill="#181818" points="573,290.4219,583,294.4219,573,298.4219,577,294.4219" style="stroke:#181818;stroke-width:1.0;"/><line style="stroke:#181818;stroke-width:1.0;" x1="413.5" x2="579" y1="294.4219" y2="294.4219"/><text fill="#000000" font-family="sans-serif" font-size="13" font-weight="bold" lengthAdjust="spacing" textLength="18" x="420.5" y="289.667">5.1</text><text fill="#000000" font-family="sans-serif" font-size="13" lengthAdjust="spacing" textLength="104" x="442.5" y="289.667">readFile(fileName)</text><line style="stroke:#181818;stroke-width:1.0;" x1="595" x2="642" y1="317.9453" y2="317.9453"/><line style="stroke:#181818;stroke-width:1.0;" x1="642" x2="642" y1="317.9453" y2="330.9453"/><line style="stroke:#181818;stroke-width:1.0;" x1="601" x2="642" y1="330.9453" y2="330.9453"/><polygon fill="#181818" points="611,326.9453,601,330.9453,611,334.9453,607,330.9453" style="stroke:#181818;stroke-width:1.0;"/><text fill="#000000" font-family="sans-serif" font-size="13" font-weight="bold" lengthAdjust="spacing" textLength="18" x="607" y="313.1904">5.2</text><text fill="#000000" font-family="sans-serif" font-size="13" lengthAdjust="spacing" textLength="300" x="629" y="313.1904">getPropertyTypeByName(String propertyTypeName)</text><rect fill="none" height="51.3359" style="stroke:#000000;stroke-width:1.5;" width="195" x="492.5" y="343.9453"/><path d="M492.5,343.9453 L554.5,343.9453 L554.5,349.9453 L544.5,359.9453 L492.5,359.9453 L492.5,343.9453 " fill="#EEEEEE" style="stroke:#000000;stroke-width:2.0;"/><text fill="#000000" font-family="sans-serif" font-size="13" font-weight="bold" lengthAdjust="spacing" textLength="17" x="505.5" y="357.7139">ref</text><text fill="#000000" font-family="sans-serif" font-size="12" lengthAdjust="spacing" textLength="96" x="542" y="374.8086">Get Property Type</text><text fill="#000000" font-family="sans-serif" font-size="12" lengthAdjust="spacing" textLength="3" x="588.5" y="388.2148">&#160;</text><line style="stroke:#181818;stroke-width:1.0;stroke-dasharray:2.0,2.0;" x1="600" x2="642" y1="425.8047" y2="425.8047"/><line style="stroke:#181818;stroke-width:1.0;stroke-dasharray:2.0,2.0;" x1="642" x2="642" y1="425.8047" y2="438.8047"/><line style="stroke:#181818;stroke-width:1.0;stroke-dasharray:2.0,2.0;" x1="595" x2="642" y1="438.8047" y2="438.8047"/><polygon fill="#181818" points="605,434.8047,595,438.8047,605,442.8047,601,438.8047" style="stroke:#181818;stroke-width:1.0;"/><text fill="#000000" font-family="sans-serif" font-size="13" font-weight="bold" lengthAdjust="spacing" textLength="18" x="607" y="421.0498">5.3</text><text fill="#000000" font-family="sans-serif" font-size="13" lengthAdjust="spacing" textLength="75" x="629" y="421.0498">propertyType</text><line style="stroke:#181818;stroke-width:1.0;" x1="595" x2="642" y1="457.3281" y2="457.3281"/><line style="stroke:#181818;stroke-width:1.0;" x1="642" x2="642" y1="457.3281" y2="470.3281"/><line style="stroke:#181818;stroke-width:1.0;" x1="601" x2="642" y1="470.3281" y2="470.3281"/><polygon fill="#181818" points="611,466.3281,601,470.3281,611,474.3281,607,470.3281" style="stroke:#181818;stroke-width:1.0;"/><text fill="#000000" font-family="sans-serif" font-size="13" font-weight="bold" lengthAdjust="spacing" textLength="18" x="607" y="452.5732">5.4</text><text fill="#000000" font-family="sans-serif" font-size="13" lengthAdjust="spacing" textLength="335" x="629" y="452.5732">getTypeOfBusinessByName(String typeOfBusinessName)</text><rect fill="none" height="51.3359" style="stroke:#000000;stroke-width:1.5;" width="195" x="492.5" y="483.3281"/><path d="M492.5,483.3281 L554.5,483.3281 L554.5,489.3281 L544.5,499.3281 L492.5,499.3281 L492.5,483.3281 " fill="#EEEEEE" style="stroke:#000000;stroke-width:2.0;"/><text fill="#000000" font-family="sans-serif" font-size="13" font-weight="bold" lengthAdjust="spacing" textLength="17" x="505.5" y="497.0967">ref</text><text fill="#000000" font-family="sans-serif" font-size="12" lengthAdjust="spacing" textLength="104" x="538" y="514.1914">Get Type Business</text><text fill="#000000" font-family="sans-serif" font-size="12" lengthAdjust="spacing" textLength="3" x="588.5" y="527.5977">&#160;</text><line style="stroke:#181818;stroke-width:1.0;stroke-dasharray:2.0,2.0;" x1="600" x2="642" y1="565.1875" y2="565.1875"/><line style="stroke:#181818;stroke-width:1.0;stroke-dasharray:2.0,2.0;" x1="642" x2="642" y1="565.1875" y2="578.1875"/><line style="stroke:#181818;stroke-width:1.0;stroke-dasharray:2.0,2.0;" x1="595" x2="642" y1="578.1875" y2="578.1875"/><polygon fill="#181818" points="605,574.1875,595,578.1875,605,582.1875,601,578.1875" style="stroke:#181818;stroke-width:1.0;"/><text fill="#000000" font-family="sans-serif" font-size="13" font-weight="bold" lengthAdjust="spacing" textLength="18" x="607" y="560.4326">5.5</text><text fill="#000000" font-family="sans-serif" font-size="13" lengthAdjust="spacing" textLength="79" x="629" y="560.4326">typeBusiness</text><line style="stroke:#181818;stroke-width:1.0;" x1="595" x2="642" y1="596.7109" y2="596.7109"/><line style="stroke:#181818;stroke-width:1.0;" x1="642" x2="642" y1="596.7109" y2="609.7109"/><line style="stroke:#181818;stroke-width:1.0;" x1="601" x2="642" y1="609.7109" y2="609.7109"/><polygon fill="#181818" points="611,605.7109,601,609.7109,611,613.7109,607,609.7109" style="stroke:#181818;stroke-width:1.0;"/><text fill="#000000" font-family="sans-serif" font-size="13" font-weight="bold" lengthAdjust="spacing" textLength="18" x="607" y="591.9561">5.6</text><text fill="#000000" font-family="sans-serif" font-size="13" lengthAdjust="spacing" textLength="180" x="629" y="591.9561">getAdministratorFromSession()</text><rect fill="none" height="51.3359" style="stroke:#000000;stroke-width:1.5;" width="195" x="492.5" y="622.7109"/><path d="M492.5,622.7109 L554.5,622.7109 L554.5,628.7109 L544.5,638.7109 L492.5,638.7109 L492.5,622.7109 " fill="#EEEEEE" style="stroke:#000000;stroke-width:2.0;"/><text fill="#000000" font-family="sans-serif" font-size="13" font-weight="bold" lengthAdjust="spacing" textLength="17" x="505.5" y="636.4795">ref</text><text fill="#000000" font-family="sans-serif" font-size="12" lengthAdjust="spacing" textLength="95" x="542.5" y="653.5742">Get Administrator</text><text fill="#000000" font-family="sans-serif" font-size="12" lengthAdjust="spacing" textLength="3" x="588.5" y="666.9805">&#160;</text><line style="stroke:#181818;stroke-width:1.0;" x1="600" x2="642" y1="704.5703" y2="704.5703"/><line style="stroke:#181818;stroke-width:1.0;" x1="642" x2="642" y1="704.5703" y2="717.5703"/><line style="stroke:#181818;stroke-width:1.0;" x1="595" x2="642" y1="717.5703" y2="717.5703"/><polygon fill="#181818" points="605,713.5703,595,717.5703,605,721.5703,601,717.5703" style="stroke:#181818;stroke-width:1.0;"/><text fill="#000000" font-family="sans-serif" font-size="13" font-weight="bold" lengthAdjust="spacing" textLength="18" x="607" y="699.8154">5.7</text><text fill="#000000" font-family="sans-serif" font-size="13" lengthAdjust="spacing" textLength="75" x="629" y="699.8154">administrator</text><line style="stroke:#181818;stroke-width:1.0;" x1="595" x2="642" y1="736.0938" y2="736.0938"/><line style="stroke:#181818;stroke-width:1.0;" x1="642" x2="642" y1="736.0938" y2="749.0938"/><line style="stroke:#181818;stroke-width:1.0;" x1="601" x2="642" y1="749.0938" y2="749.0938"/><polygon fill="#181818" points="611,745.0938,601,749.0938,611,753.0938,607,749.0938" style="stroke:#181818;stroke-width:1.0;"/><text fill="#000000" font-family="sans-serif" font-size="13" font-weight="bold" lengthAdjust="spacing" textLength="18" x="607" y="731.3389">5.8</text><text fill="#000000" font-family="sans-serif" font-size="13" lengthAdjust="spacing" textLength="104" x="629" y="731.3389">readFile(fileName)</text><polygon fill="#181818" points="954,802.1406,964,806.1406,954,810.1406,958,806.1406" style="stroke:#181818;stroke-width:1.0;"/><line style="stroke:#181818;stroke-width:1.0;" x1="600" x2="960" y1="806.1406" y2="806.1406"/><text fill="#000000" font-family="sans-serif" font-size="13" font-weight="bold" lengthAdjust="spacing" textLength="18" x="607" y="801.3857">5.9</text><text fill="#000000" font-family="sans-serif" font-size="13" lengthAdjust="spacing" textLength="156" x="629" y="801.3857">createProperty(information)</text><rect fill="none" height="51.3359" style="stroke:#000000;stroke-width:1.5;" width="146" x="898" y="814.1406"/><path d="M898,814.1406 L960,814.1406 L960,820.1406 L950,830.1406 L898,830.1406 L898,814.1406 " fill="#EEEEEE" style="stroke:#000000;stroke-width:2.0;"/><text fill="#000000" font-family="sans-serif" font-size="13" font-weight="bold" lengthAdjust="spacing" textLength="17" x="911" y="827.9092">ref</text><text fill="#000000" font-family="sans-serif" font-size="12" lengthAdjust="spacing" textLength="85" x="928.5" y="845.0039">Create Property</text><text fill="#000000" font-family="sans-serif" font-size="12" lengthAdjust="spacing" textLength="3" x="969.5" y="858.4102">&#160;</text><polygon fill="#181818" points="611,887,601,891,611,895,607,891" style="stroke:#181818;stroke-width:1.0;"/><line style="stroke:#181818;stroke-width:1.0;stroke-dasharray:2.0,2.0;" x1="605" x2="970" y1="891" y2="891"/><text fill="#000000" font-family="sans-serif" font-size="13" font-weight="bold" lengthAdjust="spacing" textLength="25" x="617" y="886.2451">5.10</text><text fill="#000000" font-family="sans-serif" font-size="13" lengthAdjust="spacing" textLength="47" x="646" y="886.2451">property</text><polygon fill="#181818" points="1103.5,915.5234,1113.5,919.5234,1103.5,923.5234,1107.5,919.5234" style="stroke:#181818;stroke-width:1.0;"/><line style="stroke:#181818;stroke-width:1.0;" x1="600" x2="1109.5" y1="919.5234" y2="919.5234"/><text fill="#000000" font-family="sans-serif" font-size="13" font-weight="bold" lengthAdjust="spacing" textLength="25" x="607" y="914.7686">5.11</text><text fill="#000000" font-family="sans-serif" font-size="13" lengthAdjust="spacing" textLength="155" x="636" y="914.7686">createRequest(information)</text><rect fill="none" height="51.3359" style="stroke:#000000;stroke-width:1.5;" width="145" x="1048" y="927.5234"/><path d="M1048,927.5234 L1110,927.5234 L1110,933.5234 L1100,943.5234 L1048,943.5234 L1048,927.5234 " fill="#EEEEEE" style="stroke:#000000;stroke-width:2.0;"/><text fill="#000000" font-family="sans-serif" font-size="13" font-weight="bold" lengthAdjust="spacing" textLength="17" x="1061" y="941.292">ref</text><text fill="#000000" font-family="sans-serif" font-size="12" lengthAdjust="spacing" textLength="87" x="1077" y="958.3867">Create Request</text><text fill="#000000" font-family="sans-serif" font-size="12" lengthAdjust="spacing" textLength="3" x="1119" y="971.793">&#160;</text><polygon fill="#181818" points="611,1000.3828,601,1004.3828,611,1008.3828,607,1004.3828" style="stroke:#181818;stroke-width:1.0;"/><line style="stroke:#181818;stroke-width:1.0;stroke-dasharray:2.0,2.0;" x1="605" x2="1119.5" y1="1004.3828" y2="1004.3828"/><text fill="#000000" font-family="sans-serif" font-size="13" font-weight="bold" lengthAdjust="spacing" textLength="25" x="617" y="999.6279">5.12</text><text fill="#000000" font-family="sans-serif" font-size="13" lengthAdjust="spacing" textLength="43" x="646" y="999.6279">request</text><polygon fill="#181818" points="1273.5,1028.9063,1283.5,1032.9063,1273.5,1036.9063,1277.5,1032.9063" style="stroke:#181818;stroke-width:1.0;"/><line style="stroke:#181818;stroke-width:1.0;" x1="600" x2="1279.5" y1="1032.9063" y2="1032.9063"/><text fill="#000000" font-family="sans-serif" font-size="13" font-weight="bold" lengthAdjust="spacing" textLength="25" x="607" y="1028.1514">5.13</text><text fill="#000000" font-family="sans-serif" font-size="13" lengthAdjust="spacing" textLength="194" x="636" y="1028.1514">createAnnouncement(information)</text><rect fill="none" height="51.3359" style="stroke:#000000;stroke-width:1.5;" width="187" x="1197" y="1040.9063"/><path d="M1197,1040.9063 L1259,1040.9063 L1259,1046.9063 L1249,1056.9063 L1197,1056.9063 L1197,1040.9063 " fill="#EEEEEE" style="stroke:#000000;stroke-width:2.0;"/><text fill="#000000" font-family="sans-serif" font-size="13" font-weight="bold" lengthAdjust="spacing" textLength="17" x="1210" y="1054.6748">ref</text><text fill="#000000" font-family="sans-serif" font-size="12" lengthAdjust="spacing" textLength="123" x="1229" y="1071.7695">Create Announcement</text><text fill="#000000" font-family="sans-serif" font-size="12" lengthAdjust="spacing" textLength="3" x="1289" y="1085.1758">&#160;</text><polygon fill="#181818" points="611,1113.7656,601,1117.7656,611,1121.7656,607,1117.7656" style="stroke:#181818;stroke-width:1.0;"/><line style="stroke:#181818;stroke-width:1.0;stroke-dasharray:2.0,2.0;" x1="605" x2="1289.5" y1="1117.7656" y2="1117.7656"/><text fill="#000000" font-family="sans-serif" font-size="13" font-weight="bold" lengthAdjust="spacing" textLength="25" x="617" y="1113.0107">5.14</text><text fill="#000000" font-family="sans-serif" font-size="13" lengthAdjust="spacing" textLength="85" x="646" y="1113.0107">announcement</text><polygon fill="#181818" points="1440.5,1142.2891,1450.5,1146.2891,1440.5,1150.2891,1444.5,1146.2891" style="stroke:#181818;stroke-width:1.0;"/><line style="stroke:#181818;stroke-width:1.0;" x1="600" x2="1446.5" y1="1146.2891" y2="1146.2891"/><text fill="#000000" font-family="sans-serif" font-size="13" font-weight="bold" lengthAdjust="spacing" textLength="25" x="607" y="1141.5342">5.15</text><text fill="#000000" font-family="sans-serif" font-size="13" lengthAdjust="spacing" textLength="151" x="636" y="1141.5342">createAgency(information)</text><rect fill="none" height="51.3359" style="stroke:#000000;stroke-width:1.5;" width="139" x="1388" y="1154.2891"/><path d="M1388,1154.2891 L1450,1154.2891 L1450,1160.2891 L1440,1170.2891 L1388,1170.2891 L1388,1154.2891 " fill="#EEEEEE" style="stroke:#000000;stroke-width:2.0;"/><text fill="#000000" font-family="sans-serif" font-size="13" font-weight="bold" lengthAdjust="spacing" textLength="17" x="1401" y="1168.0576">ref</text><text fill="#000000" font-family="sans-serif" font-size="12" lengthAdjust="spacing" textLength="79" x="1418" y="1185.1523">Create Agency</text><text fill="#000000" font-family="sans-serif" font-size="12" lengthAdjust="spacing" textLength="3" x="1456" y="1198.5586">&#160;</text><polygon fill="#181818" points="611,1227.1484,601,1231.1484,611,1235.1484,607,1231.1484" style="stroke:#181818;stroke-width:1.0;"/><line style="stroke:#181818;stroke-width:1.0;stroke-dasharray:2.0,2.0;" x1="605" x2="1456.5" y1="1231.1484" y2="1231.1484"/><text fill="#000000" font-family="sans-serif" font-size="13" font-weight="bold" lengthAdjust="spacing" textLength="25" x="617" y="1226.3936">5.16</text><text fill="#000000" font-family="sans-serif" font-size="13" lengthAdjust="spacing" textLength="42" x="646" y="1226.3936">agency</text><line style="stroke:#181818;stroke-width:1.0;stroke-dasharray:2.0,2.0;" x1="600" x2="642" y1="1264.6719" y2="1264.6719"/><line style="stroke:#181818;stroke-width:1.0;stroke-dasharray:2.0,2.0;" x1="642" x2="642" y1="1264.6719" y2="1277.6719"/><line style="stroke:#181818;stroke-width:1.0;stroke-dasharray:2.0,2.0;" x1="595" x2="642" y1="1277.6719" y2="1277.6719"/><polygon fill="#181818" points="605,1273.6719,595,1277.6719,605,1281.6719,601,1277.6719" style="stroke:#181818;stroke-width:1.0;"/><text fill="#000000" font-family="sans-serif" font-size="13" font-weight="bold" lengthAdjust="spacing" textLength="25" x="607" y="1259.917">5.17</text><text fill="#000000" font-family="sans-serif" font-size="13" lengthAdjust="spacing" textLength="4" x="636" y="1259.917">&#160;</text><polygon fill="#181818" points="424.5,1297.1953,414.5,1301.1953,424.5,1305.1953,420.5,1301.1953" style="stroke:#181818;stroke-width:1.0;"/><line style="stroke:#181818;stroke-width:1.0;stroke-dasharray:2.0,2.0;" x1="418.5" x2="589" y1="1301.1953" y2="1301.1953"/><text fill="#000000" font-family="sans-serif" font-size="13" font-weight="bold" lengthAdjust="spacing" textLength="25" x="430.5" y="1296.4404">5.18</text><text fill="#000000" font-family="sans-serif" font-size="13" lengthAdjust="spacing" textLength="4" x="459.5" y="1296.4404">&#160;</text><polygon fill="#181818" points="100.5,1325.7188,90.5,1329.7188,100.5,1333.7188,96.5,1329.7188" style="stroke:#181818;stroke-width:1.0;"/><line style="stroke:#181818;stroke-width:1.0;stroke-dasharray:2.0,2.0;" x1="94.5" x2="407.5" y1="1329.7188" y2="1329.7188"/><text fill="#000000" font-family="sans-serif" font-size="13" font-weight="bold" lengthAdjust="spacing" textLength="7" x="106.5" y="1324.9639">6</text><text fill="#000000" font-family="sans-serif" font-size="13" lengthAdjust="spacing" textLength="158" x="117.5" y="1324.9639">displays operation success</text><!--SRC=[jLV9Rjim4BthAmQvr0tG0YdG7dmeuAH8OQ0RukJM2oEDR28IgP9KKlrzHxGbao8bom6gap7Bcvdtk5a_SL4nnKeefP3fJiaImQWQ4zrxAfO-iIrkJ5CWA4mD4zl23T0xbiaNBhQGiq9Zah3QI56NZwYIvCsEPmYvbEPH_arOQgI2YqsZ3PQmoaekk3QAaVK2c8RLb-y9WHgUyee90nVBTLb9PTOYbwfaXalniBQH3-jJWJTI62MB0lVGD_Ttt_oKIiaAbMdki9AQKmlDRx7y5HXjTcZsiHJ-gL4R3-fkQBD8WTK7OaB8MgHOel3HLb77dhMeQu2xHP7wewu6fZtMm9Yqcl5dPj2Aam1zz0FUVIO9O4afJngC16xf1txa7t9QJS2Wm2rB6z1MStTnmDNxAulNLo1HhQ7z29rgjAfTNbATFRwN_i6BfU2shoKSfD2GCSDiI8P11NS4qrIekpJCR1uiSbxW3rRYs-aM-x9w9ryqQ2neXtGWJ6GzGQaKELVbxAuEySuORdZNWaF7nmERFdcM49RTqZI3aJn8kpjwS_lPv2F85ast1-w9h-kc1LfiZ6htVULu_08dYhIVmXpaCmrWtH3vlgBfDo2qDK8G9AO9A7JinpZEuRRg1Jjop26ZpV-PNzUQ2zJQfyDulf2GCyWvZwWXQMsJqFKn3JvAu1IPxQ0z_5ZIcSHwby8j7I4R0gVZPF4V5fLNQtnHnMdecsOUogj6dzoauRYkHrO62ZfeejZXjKK72vKos7aMpeazKZ9ozutp7GcEhYJRH1yTNtR4l-y8mVlLUDpPOmgSwCm_IQ_YMWMNTqVdmJ63pV3-7-NoTEW4jOVawAeER44bXzV3nPXCxEkmqIH2NloPqZ7eUiTfZ34wyloPSvAUdph1k0isUOx6572-U5EE8kuRSGh8KUZaeBr8W_TVBu-rpn8c9j7mLJcBrwDChqgVaie29lDmJiZb23TeqvLiNt0MZ2lR-E3UNPoCtpcH3EVzE1Nld8YVlCwFxzubP5nN1Miqj8Vh_jslwpJj7WI3Hwux6lsR-0S0]--></g></svg>