<?xml version="1.0" encoding="us-ascii" standalone="no"?><svg xmlns="http://www.w3.org/2000/svg" xmlns:xlink="http://www.w3.org/1999/xlink" contentStyleType="text/css" height="431px" preserveAspectRatio="none" style="width:964px;height:431px;background:#FFFFFF;" version="1.1" viewBox="0 0 964 431" width="964px" zoomAndPan="magnify"><defs/><g><rect fill="#FFFFFF" height="281.4219" style="stroke:#181818;stroke-width:1.0;" width="10" x="231" y="81.8047"/><rect fill="#FFFFFF" height="122.5703" style="stroke:#181818;stroke-width:1.0;" width="10" x="236" y="198.1328"/><rect fill="#FFFFFF" height="39.5234" style="stroke:#181818;stroke-width:1.0;" width="10" x="241" y="239.6563"/><rect fill="none" height="238.8984" style="stroke:#000000;stroke-width:1.5;" width="822.5" x="135.5" y="96.8047"/><line style="stroke:#181818;stroke-width:0.5;stroke-dasharray:5.0,5.0;" x1="235.5" x2="235.5" y1="51.2813" y2="381.2266"/><line style="stroke:#181818;stroke-width:0.5;stroke-dasharray:5.0,5.0;" x1="891" x2="891" y1="151.4688" y2="381.2266"/><rect fill="#E3E3E3" height="45.2813" rx="2.5" ry="2.5" style="stroke:#181818;stroke-width:0.5;" width="181" x="145.5" y="5"/><text fill="#000000" font-family="sans-serif" font-size="14" lengthAdjust="spacing" textLength="162" x="155" y="24.6738">announcementRepository</text><text fill="#000000" font-family="sans-serif" font-size="14" lengthAdjust="spacing" textLength="167" x="152.5" y="40.3145">:AnnouncementRepository</text><rect fill="#E3E3E3" height="45.2813" rx="2.5" ry="2.5" style="stroke:#181818;stroke-width:0.5;" width="181" x="145.5" y="380.2266"/><text fill="#000000" font-family="sans-serif" font-size="14" lengthAdjust="spacing" textLength="162" x="155" y="399.9004">announcementRepository</text><text fill="#000000" font-family="sans-serif" font-size="14" lengthAdjust="spacing" textLength="167" x="152.5" y="415.541">:AnnouncementRepository</text><rect fill="#E3E3E3" height="45.2813" rx="2.5" ry="2.5" style="stroke:#181818;stroke-width:0.5;" width="113" x="835" y="380.2266"/><text fill="#000000" font-family="sans-serif" font-size="14" lengthAdjust="spacing" textLength="94" x="844.5" y="399.9004">announcement</text><text fill="#000000" font-family="sans-serif" font-size="14" lengthAdjust="spacing" textLength="99" x="842" y="415.541">:Announcement</text><rect fill="#FFFFFF" height="281.4219" style="stroke:#181818;stroke-width:1.0;" width="10" x="231" y="81.8047"/><rect fill="#FFFFFF" height="122.5703" style="stroke:#181818;stroke-width:1.0;" width="10" x="236" y="198.1328"/><rect fill="#FFFFFF" height="39.5234" style="stroke:#181818;stroke-width:1.0;" width="10" x="241" y="239.6563"/><polygon fill="#181818" points="219,77.8047,229,81.8047,219,85.8047,223,81.8047" style="stroke:#181818;stroke-width:1.0;"/><line style="stroke:#181818;stroke-width:1.0;" x1="0" x2="225" y1="81.8047" y2="81.8047"/><text fill="#000000" font-family="sans-serif" font-size="13" font-weight="bold" lengthAdjust="spacing" textLength="14" x="7" y="77.0498">10</text><text fill="#000000" font-family="sans-serif" font-size="13" lengthAdjust="spacing" textLength="194" x="25" y="77.0498">createAnnouncement(information)</text><path d="M135.5,96.8047 L322.5,96.8047 L322.5,103.3281 L312.5,113.3281 L135.5,113.3281 L135.5,96.8047 " fill="#EEEEEE" style="stroke:#000000;stroke-width:1.5;"/><rect fill="none" height="238.8984" style="stroke:#000000;stroke-width:1.5;" width="822.5" x="135.5" y="96.8047"/><text fill="#000000" font-family="sans-serif" font-size="13" font-weight="bold" lengthAdjust="spacing" textLength="142" x="150.5" y="109.5732">Create Announcement</text><polygon fill="#181818" points="823,129.8516,833,133.8516,823,137.8516,827,133.8516" style="stroke:#181818;stroke-width:1.0;"/><line style="stroke:#181818;stroke-width:1.0;" x1="241" x2="829" y1="133.8516" y2="133.8516"/><text fill="#000000" font-family="sans-serif" font-size="13" font-weight="bold" lengthAdjust="spacing" textLength="25" x="248" y="129.0967">10.1</text><text fill="#000000" font-family="sans-serif" font-size="13" lengthAdjust="spacing" textLength="541" x="277" y="129.0967">createAnnouncement(request, price, commission, dateOfAnnouncementRequest, dateOfSale)</text><rect fill="#E3E3E3" height="45.2813" rx="2.5" ry="2.5" style="stroke:#181818;stroke-width:0.5;" width="113" x="835" y="113.3281"/><text fill="#000000" font-family="sans-serif" font-size="14" lengthAdjust="spacing" textLength="94" x="844.5" y="133.002">announcement</text><text fill="#000000" font-family="sans-serif" font-size="14" lengthAdjust="spacing" textLength="99" x="842" y="148.6426">:Announcement</text><line style="stroke:#181818;stroke-width:1.0;" x1="246" x2="288" y1="190.1328" y2="190.1328"/><line style="stroke:#181818;stroke-width:1.0;" x1="288" x2="288" y1="190.1328" y2="203.1328"/><line style="stroke:#181818;stroke-width:1.0;" x1="247" x2="288" y1="203.1328" y2="203.1328"/><polygon fill="#181818" points="257,199.1328,247,203.1328,257,207.1328,253,203.1328" style="stroke:#181818;stroke-width:1.0;"/><text fill="#000000" font-family="sans-serif" font-size="13" font-weight="bold" lengthAdjust="spacing" textLength="25" x="253" y="185.3779">10.2</text><text fill="#000000" font-family="sans-serif" font-size="13" lengthAdjust="spacing" textLength="201" x="282" y="185.3779">addAnnouncement(announcement)</text><line style="stroke:#181818;stroke-width:1.0;" x1="246" x2="293" y1="226.6563" y2="226.6563"/><line style="stroke:#181818;stroke-width:1.0;" x1="293" x2="293" y1="226.6563" y2="239.6563"/><line style="stroke:#181818;stroke-width:1.0;" x1="252" x2="293" y1="239.6563" y2="239.6563"/><polygon fill="#181818" points="262,235.6563,252,239.6563,262,243.6563,258,239.6563" style="stroke:#181818;stroke-width:1.0;"/><text fill="#000000" font-family="sans-serif" font-size="13" font-weight="bold" lengthAdjust="spacing" textLength="25" x="258" y="221.9014">10.3</text><text fill="#000000" font-family="sans-serif" font-size="13" lengthAdjust="spacing" textLength="223" x="287" y="221.9014">validateAnnouncement(announcement)</text><line style="stroke:#181818;stroke-width:1.0;stroke-dasharray:2.0,2.0;" x1="251" x2="293" y1="278.1797" y2="278.1797"/><line style="stroke:#181818;stroke-width:1.0;stroke-dasharray:2.0,2.0;" x1="293" x2="293" y1="278.1797" y2="291.1797"/><line style="stroke:#181818;stroke-width:1.0;stroke-dasharray:2.0,2.0;" x1="246" x2="293" y1="291.1797" y2="291.1797"/><polygon fill="#181818" points="256,287.1797,246,291.1797,256,295.1797,252,291.1797" style="stroke:#181818;stroke-width:1.0;"/><text fill="#000000" font-family="sans-serif" font-size="13" font-weight="bold" lengthAdjust="spacing" textLength="25" x="258" y="273.4248">10.4</text><text fill="#000000" font-family="sans-serif" font-size="13" lengthAdjust="spacing" textLength="4" x="287" y="273.4248">&#160;</text><line style="stroke:#181818;stroke-width:1.0;stroke-dasharray:2.0,2.0;" x1="246" x2="288" y1="319.7031" y2="319.7031"/><line style="stroke:#181818;stroke-width:1.0;stroke-dasharray:2.0,2.0;" x1="288" x2="288" y1="319.7031" y2="332.7031"/><line style="stroke:#181818;stroke-width:1.0;stroke-dasharray:2.0,2.0;" x1="241" x2="288" y1="332.7031" y2="332.7031"/><polygon fill="#181818" points="251,328.7031,241,332.7031,251,336.7031,247,332.7031" style="stroke:#181818;stroke-width:1.0;"/><text fill="#000000" font-family="sans-serif" font-size="13" font-weight="bold" lengthAdjust="spacing" textLength="25" x="253" y="314.9482">10.5</text><text fill="#000000" font-family="sans-serif" font-size="13" lengthAdjust="spacing" textLength="4" x="282" y="314.9482">&#160;</text><polygon fill="#181818" points="11,359.2266,1,363.2266,11,367.2266,7,363.2266" style="stroke:#181818;stroke-width:1.0;"/><line style="stroke:#181818;stroke-width:1.0;stroke-dasharray:2.0,2.0;" x1="5" x2="235" y1="363.2266" y2="363.2266"/><text fill="#000000" font-family="sans-serif" font-size="13" font-weight="bold" lengthAdjust="spacing" textLength="14" x="17" y="358.4717">11</text><text fill="#000000" font-family="sans-serif" font-size="13" lengthAdjust="spacing" textLength="42" x="35" y="358.4717">agency</text><!--SRC=[hPB1JiCm44Jl_efLJxHA4BbM20dr0v3ebSjYRrAhyJhOJb7-dj1MaHDY20WVFUFPvx7zKNE33WqOorOUd3K4mRKa_A0qA8zOqJvqDO4Z6P2hEZRu0ohxhhc24cjFGlJRGKlT80TO8RDjMP8X3i_KMA-3TTqBRnzdXHMWXtafdJj9-v8X1BR1ScjUoK5n9_A7n8WjI4SOA5PlD9VM6GpQydgIT5i8b46V-YCfQEXNvMpRmEuSFG63wve_3HFIpMQMqD5RIpvaq3WjAGDfZT7Uzy0PgDxyL8xZh-wBjCUQrWF7SfQuDLHg11G_pZXRqMnXWsT9dN_dF66jrRIzDEnlOBu3IX8jgIPoY_yPzlEWJnUnkWoCVtnnthdFyzJu_YzKnB8J2sxp0G00]--></g></svg>