<?xml version="1.0" encoding="us-ascii" standalone="no"?><svg xmlns="http://www.w3.org/2000/svg" xmlns:xlink="http://www.w3.org/1999/xlink" contentStyleType="text/css" height="681px" preserveAspectRatio="none" style="width:732px;height:681px;background:#FFFFFF;" version="1.1" viewBox="0 0 732 681" width="732px" zoomAndPan="magnify"><defs/><g><rect fill="#FFFFFF" height="531.7031" style="stroke:#181818;stroke-width:1.0;" width="10" x="193" y="81.8047"/><rect fill="#FFFFFF" height="122.5703" style="stroke:#181818;stroke-width:1.0;" width="10" x="198" y="448.4141"/><rect fill="#FFFFFF" height="39.5234" style="stroke:#181818;stroke-width:1.0;" width="10" x="203" y="489.9375"/><rect fill="none" height="489.1797" style="stroke:#000000;stroke-width:1.5;" width="617.5" x="108.5" y="96.8047"/><rect fill="none" height="72.8047" style="stroke:#000000;stroke-width:1.5;" width="436.5" x="118.5" y="120.3281"/><rect fill="none" height="88.6172" style="stroke:#000000;stroke-width:1.5;" width="529.5" x="118.5" y="207.1328"/><rect fill="none" height="103.1406" style="stroke:#000000;stroke-width:1.5;" width="597.5" x="118.5" y="309.75"/><line style="stroke:#181818;stroke-width:0.5;stroke-dasharray:5.0,5.0;" x1="197.5" x2="197.5" y1="51.2813" y2="631.5078"/><line style="stroke:#181818;stroke-width:0.5;stroke-dasharray:5.0,5.0;" x1="520" x2="520" y1="174.9922" y2="631.5078"/><line style="stroke:#181818;stroke-width:0.5;stroke-dasharray:5.0,5.0;" x1="596" x2="596" y1="269.7031" y2="631.5078"/><line style="stroke:#181818;stroke-width:0.5;stroke-dasharray:5.0,5.0;" x1="677" x2="677" y1="379.582" y2="631.5078"/><rect fill="#E3E3E3" height="45.2813" rx="2.5" ry="2.5" style="stroke:#181818;stroke-width:0.5;" width="139" x="128.5" y="5"/><text fill="#000000" font-family="sans-serif" font-size="14" lengthAdjust="spacing" textLength="121" x="137.5" y="24.6738">propertyRepository</text><text fill="#000000" font-family="sans-serif" font-size="14" lengthAdjust="spacing" textLength="125" x="135.5" y="40.3145">:propertyRepository</text><rect fill="#E3E3E3" height="45.2813" rx="2.5" ry="2.5" style="stroke:#181818;stroke-width:0.5;" width="139" x="128.5" y="630.5078"/><text fill="#000000" font-family="sans-serif" font-size="14" lengthAdjust="spacing" textLength="121" x="137.5" y="650.1816">propertyRepository</text><text fill="#000000" font-family="sans-serif" font-size="14" lengthAdjust="spacing" textLength="125" x="135.5" y="665.8223">:propertyRepository</text><rect fill="#E3E3E3" height="45.2813" rx="2.5" ry="2.5" style="stroke:#181818;stroke-width:0.5;" width="50" x="495" y="630.5078"/><text fill="#000000" font-family="sans-serif" font-size="14" lengthAdjust="spacing" textLength="27" x="506.5" y="650.1816">land</text><text fill="#000000" font-family="sans-serif" font-size="14" lengthAdjust="spacing" textLength="36" x="502" y="665.8223">:Land</text><rect fill="#E3E3E3" height="45.2813" rx="2.5" ry="2.5" style="stroke:#181818;stroke-width:0.5;" width="83" x="555" y="630.5078"/><text fill="#000000" font-family="sans-serif" font-size="14" lengthAdjust="spacing" textLength="64" x="564.5" y="650.1816">apartment</text><text fill="#000000" font-family="sans-serif" font-size="14" lengthAdjust="spacing" textLength="69" x="562" y="665.8223">:Apartment</text><rect fill="#E3E3E3" height="45.2813" rx="2.5" ry="2.5" style="stroke:#181818;stroke-width:0.5;" width="58" x="648" y="630.5078"/><text fill="#000000" font-family="sans-serif" font-size="14" lengthAdjust="spacing" textLength="39" x="657.5" y="650.1816">house</text><text fill="#000000" font-family="sans-serif" font-size="14" lengthAdjust="spacing" textLength="44" x="655" y="665.8223">:House</text><rect fill="#FFFFFF" height="531.7031" style="stroke:#181818;stroke-width:1.0;" width="10" x="193" y="81.8047"/><rect fill="#FFFFFF" height="122.5703" style="stroke:#181818;stroke-width:1.0;" width="10" x="198" y="448.4141"/><rect fill="#FFFFFF" height="39.5234" style="stroke:#181818;stroke-width:1.0;" width="10" x="203" y="489.9375"/><polygon fill="#181818" points="181,77.8047,191,81.8047,181,85.8047,185,81.8047" style="stroke:#181818;stroke-width:1.0;"/><line style="stroke:#181818;stroke-width:1.0;" x1="0" x2="187" y1="81.8047" y2="81.8047"/><text fill="#000000" font-family="sans-serif" font-size="13" font-weight="bold" lengthAdjust="spacing" textLength="14" x="7" y="77.0498">10</text><text fill="#000000" font-family="sans-serif" font-size="13" lengthAdjust="spacing" textLength="156" x="25" y="77.0498">createProperty(information)</text><path d="M108.5,96.8047 L253.5,96.8047 L253.5,103.3281 L243.5,113.3281 L108.5,113.3281 L108.5,96.8047 " fill="#EEEEEE" style="stroke:#000000;stroke-width:1.5;"/><rect fill="none" height="489.1797" style="stroke:#000000;stroke-width:1.5;" width="617.5" x="108.5" y="96.8047"/><text fill="#000000" font-family="sans-serif" font-size="13" font-weight="bold" lengthAdjust="spacing" textLength="100" x="123.5" y="109.5732">Create Property</text><path d="M118.5,120.3281 L183.5,120.3281 L183.5,126.8516 L173.5,136.8516 L118.5,136.8516 L118.5,120.3281 " fill="#EEEEEE" style="stroke:#000000;stroke-width:1.5;"/><rect fill="none" height="72.8047" style="stroke:#000000;stroke-width:1.5;" width="436.5" x="118.5" y="120.3281"/><text fill="#000000" font-family="sans-serif" font-size="13" font-weight="bold" lengthAdjust="spacing" textLength="20" x="133.5" y="133.0967">opt</text><text fill="#000000" font-family="sans-serif" font-size="11" font-weight="bold" lengthAdjust="spacing" textLength="31" x="198.5" y="132.2861">[land]</text><polygon fill="#181818" points="483,167.8984,493,171.8984,483,175.8984,487,171.8984" style="stroke:#181818;stroke-width:1.0;"/><line style="stroke:#181818;stroke-width:1.0;" x1="203" x2="489" y1="171.8984" y2="171.8984"/><text fill="#000000" font-family="sans-serif" font-size="13" font-weight="bold" lengthAdjust="spacing" textLength="25" x="210" y="159.8818">10.1</text><text fill="#000000" font-family="sans-serif" font-size="13" lengthAdjust="spacing" textLength="180" x="239" y="152.6201">createLand(propertyType, area,</text><text fill="#000000" font-family="sans-serif" font-size="13" lengthAdjust="spacing" textLength="239" x="239" y="167.1436">location, distanceFromCityCentre, owner)</text><rect fill="#E3E3E3" height="45.2813" rx="2.5" ry="2.5" style="stroke:#181818;stroke-width:0.5;" width="50" x="495" y="136.8516"/><text fill="#000000" font-family="sans-serif" font-size="14" lengthAdjust="spacing" textLength="27" x="506.5" y="156.5254">land</text><text fill="#000000" font-family="sans-serif" font-size="14" lengthAdjust="spacing" textLength="36" x="502" y="172.166">:Land</text><path d="M118.5,207.1328 L183.5,207.1328 L183.5,213.6563 L173.5,223.6563 L118.5,223.6563 L118.5,207.1328 " fill="#EEEEEE" style="stroke:#000000;stroke-width:1.5;"/><rect fill="none" height="88.6172" style="stroke:#000000;stroke-width:1.5;" width="529.5" x="118.5" y="207.1328"/><text fill="#000000" font-family="sans-serif" font-size="13" font-weight="bold" lengthAdjust="spacing" textLength="20" x="133.5" y="219.9014">opt</text><text fill="#000000" font-family="sans-serif" font-size="11" font-weight="bold" lengthAdjust="spacing" textLength="65" x="198.5" y="219.0908">[apartment]</text><polygon fill="#181818" points="543,283.75,553,287.75,543,291.75,547,287.75" style="stroke:#181818;stroke-width:1.0;"/><line style="stroke:#181818;stroke-width:1.0;" x1="203" x2="549" y1="287.75" y2="287.75"/><text fill="#000000" font-family="sans-serif" font-size="13" font-weight="bold" lengthAdjust="spacing" textLength="25" x="210" y="261.21">10.1</text><text fill="#000000" font-family="sans-serif" font-size="13" lengthAdjust="spacing" textLength="265" x="239" y="239.4248">createApartment(propertyType, area, location,</text><text fill="#000000" font-family="sans-serif" font-size="13" lengthAdjust="spacing" textLength="267" x="239" y="253.9482">distanceFromCityCentre, numberOfBedrooms,</text><text fill="#000000" font-family="sans-serif" font-size="13" lengthAdjust="spacing" textLength="275" x="239" y="268.4717">numberOfBathrooms, numberOfParkingSpaces,</text><text fill="#000000" font-family="sans-serif" font-size="13" lengthAdjust="spacing" textLength="222" x="239" y="282.9951">centralHeating, airConditioning, owner)</text><rect fill="#E3E3E3" height="45.2813" rx="2.5" ry="2.5" style="stroke:#181818;stroke-width:0.5;" width="83" x="555" y="239.4688"/><text fill="#000000" font-family="sans-serif" font-size="14" lengthAdjust="spacing" textLength="64" x="564.5" y="259.1426">apartment</text><text fill="#000000" font-family="sans-serif" font-size="14" lengthAdjust="spacing" textLength="69" x="562" y="274.7832">:Apartment</text><path d="M118.5,309.75 L183.5,309.75 L183.5,316.2734 L173.5,326.2734 L118.5,326.2734 L118.5,309.75 " fill="#EEEEEE" style="stroke:#000000;stroke-width:1.5;"/><rect fill="none" height="103.1406" style="stroke:#000000;stroke-width:1.5;" width="597.5" x="118.5" y="309.75"/><text fill="#000000" font-family="sans-serif" font-size="13" font-weight="bold" lengthAdjust="spacing" textLength="20" x="133.5" y="322.5186">opt</text><text fill="#000000" font-family="sans-serif" font-size="11" font-weight="bold" lengthAdjust="spacing" textLength="43" x="198.5" y="321.708">[house]</text><polygon fill="#181818" points="636,400.8906,646,404.8906,636,408.8906,640,404.8906" style="stroke:#181818;stroke-width:1.0;"/><line style="stroke:#181818;stroke-width:1.0;" x1="203" x2="642" y1="404.8906" y2="404.8906"/><text fill="#000000" font-family="sans-serif" font-size="13" font-weight="bold" lengthAdjust="spacing" textLength="25" x="210" y="371.0889">10.1</text><text fill="#000000" font-family="sans-serif" font-size="13" lengthAdjust="spacing" textLength="242" x="239" y="342.042">createHouse(propertyType, area, location,</text><text fill="#000000" font-family="sans-serif" font-size="13" lengthAdjust="spacing" textLength="267" x="239" y="356.5654">distanceFromCityCentre, numberOfBedrooms,</text><text fill="#000000" font-family="sans-serif" font-size="13" lengthAdjust="spacing" textLength="275" x="239" y="371.0889">numberOfBathrooms, numberOfParkingSpaces,</text><text fill="#000000" font-family="sans-serif" font-size="13" lengthAdjust="spacing" textLength="180" x="239" y="385.6123">centralHeating, airConditioning,</text><text fill="#000000" font-family="sans-serif" font-size="13" lengthAdjust="spacing" textLength="213" x="239" y="400.1357">inhabitableLoft, sunExposure, owner)</text><rect fill="#E3E3E3" height="45.2813" rx="2.5" ry="2.5" style="stroke:#181818;stroke-width:0.5;" width="58" x="648" y="356.6094"/><text fill="#000000" font-family="sans-serif" font-size="14" lengthAdjust="spacing" textLength="39" x="657.5" y="376.2832">house</text><text fill="#000000" font-family="sans-serif" font-size="14" lengthAdjust="spacing" textLength="44" x="655" y="391.9238">:House</text><line style="stroke:#181818;stroke-width:1.0;" x1="203" x2="250" y1="435.4141" y2="435.4141"/><line style="stroke:#181818;stroke-width:1.0;" x1="250" x2="250" y1="435.4141" y2="448.4141"/><line style="stroke:#181818;stroke-width:1.0;" x1="209" x2="250" y1="448.4141" y2="448.4141"/><polygon fill="#181818" points="219,444.4141,209,448.4141,219,452.4141,215,448.4141" style="stroke:#181818;stroke-width:1.0;"/><text fill="#000000" font-family="sans-serif" font-size="13" font-weight="bold" lengthAdjust="spacing" textLength="25" x="215" y="430.6592">10.2</text><text fill="#000000" font-family="sans-serif" font-size="13" lengthAdjust="spacing" textLength="125" x="244" y="430.6592">addProperty(property)</text><line style="stroke:#181818;stroke-width:1.0;" x1="208" x2="255" y1="476.9375" y2="476.9375"/><line style="stroke:#181818;stroke-width:1.0;" x1="255" x2="255" y1="476.9375" y2="489.9375"/><line style="stroke:#181818;stroke-width:1.0;" x1="214" x2="255" y1="489.9375" y2="489.9375"/><polygon fill="#181818" points="224,485.9375,214,489.9375,224,493.9375,220,489.9375" style="stroke:#181818;stroke-width:1.0;"/><text fill="#000000" font-family="sans-serif" font-size="13" font-weight="bold" lengthAdjust="spacing" textLength="25" x="220" y="472.1826">10.3</text><text fill="#000000" font-family="sans-serif" font-size="13" lengthAdjust="spacing" textLength="147" x="249" y="472.1826">validateProperty(property)</text><line style="stroke:#181818;stroke-width:1.0;stroke-dasharray:2.0,2.0;" x1="213" x2="255" y1="528.4609" y2="528.4609"/><line style="stroke:#181818;stroke-width:1.0;stroke-dasharray:2.0,2.0;" x1="255" x2="255" y1="528.4609" y2="541.4609"/><line style="stroke:#181818;stroke-width:1.0;stroke-dasharray:2.0,2.0;" x1="208" x2="255" y1="541.4609" y2="541.4609"/><polygon fill="#181818" points="218,537.4609,208,541.4609,218,545.4609,214,541.4609" style="stroke:#181818;stroke-width:1.0;"/><text fill="#000000" font-family="sans-serif" font-size="13" font-weight="bold" lengthAdjust="spacing" textLength="25" x="220" y="523.7061">10.4</text><text fill="#000000" font-family="sans-serif" font-size="13" lengthAdjust="spacing" textLength="4" x="249" y="523.7061">&#160;</text><line style="stroke:#181818;stroke-width:1.0;stroke-dasharray:2.0,2.0;" x1="208" x2="250" y1="569.9844" y2="569.9844"/><line style="stroke:#181818;stroke-width:1.0;stroke-dasharray:2.0,2.0;" x1="250" x2="250" y1="569.9844" y2="582.9844"/><line style="stroke:#181818;stroke-width:1.0;stroke-dasharray:2.0,2.0;" x1="203" x2="250" y1="582.9844" y2="582.9844"/><polygon fill="#181818" points="213,578.9844,203,582.9844,213,586.9844,209,582.9844" style="stroke:#181818;stroke-width:1.0;"/><text fill="#000000" font-family="sans-serif" font-size="13" font-weight="bold" lengthAdjust="spacing" textLength="25" x="215" y="565.2295">10.5</text><text fill="#000000" font-family="sans-serif" font-size="13" lengthAdjust="spacing" textLength="4" x="244" y="565.2295">&#160;</text><polygon fill="#181818" points="11,609.5078,1,613.5078,11,617.5078,7,613.5078" style="stroke:#181818;stroke-width:1.0;"/><line style="stroke:#181818;stroke-width:1.0;stroke-dasharray:2.0,2.0;" x1="5" x2="197" y1="613.5078" y2="613.5078"/><text fill="#000000" font-family="sans-serif" font-size="13" font-weight="bold" lengthAdjust="spacing" textLength="25" x="17" y="608.7529">10.6</text><text fill="#000000" font-family="sans-serif" font-size="13" lengthAdjust="spacing" textLength="47" x="46" y="608.7529">property</text><!--SRC=[pLInRjim4Dtv5OTCSM0NpMeK1LgZHOO03PgENixIMI8YyGYIIgg_xv69QAcMOtUh5egFZ_VUFP7oJzfOTDX2ouQBsd5B45n7okSLYyKJLlGO-eR0KH7GLCsOu6ii-KMR2lROU59AuA0BRT44kBAEBRdG_oJBNWTs_TQiZy4hG0yFH_2qLeEcbDttCYH-V9aoCCvQCa5eNuRtnCspwOQQEqz2lejZ8gOtfR0BRBfsHmvkFwhLvnbpi8R24GOQbgwrsRDhCMWs2rKvxYni4YFlLbW4_Jn6HirED3_SAhO1OiyAO4vUJCK4Rcu67t5sFMJxgxUq19I59MnDmqMojOHIU_c41NsNZxtHeTz89awO_6B8BLJKWh-DH8nUVK0qbMDEoBor7FZ1NuPcJHuiRiqfaw-cVko_KkcOMn-v6SDGlu43z81EZcdrA6UO4hU8TR2v4pU2Yx9s6nQrg9k0jnI6Xa-c4LD8PoVDJgUGJjCXWJJzVxlVob3ZJWVSDNJF-x04tvbllwMZRdH69kcSxlqONGEMPRujGmoBNEUzom6ZvtAzPsnqERwYnwBdXCygpqfFTfLqaS2_5x-Wy71lu_DfjPh_ZmsfgBD5_m00]--></g></svg>