<?xml version="1.0" encoding="us-ascii" standalone="no"?><svg xmlns="http://www.w3.org/2000/svg" xmlns:xlink="http://www.w3.org/1999/xlink" contentStyleType="text/css" height="431px" preserveAspectRatio="none" style="width:607px;height:431px;background:#FFFFFF;" version="1.1" viewBox="0 0 607 431" width="607px" zoomAndPan="magnify"><defs/><g><rect fill="#FFFFFF" height="281.4219" style="stroke:#181818;stroke-width:1.0;" width="10" x="188" y="81.8047"/><rect fill="#FFFFFF" height="122.5703" style="stroke:#181818;stroke-width:1.0;" width="10" x="193" y="198.1328"/><rect fill="#FFFFFF" height="39.5234" style="stroke:#181818;stroke-width:1.0;" width="10" x="198" y="239.6563"/><rect fill="none" height="238.8984" style="stroke:#000000;stroke-width:1.5;" width="484.5" x="116.5" y="96.8047"/><line style="stroke:#181818;stroke-width:0.5;stroke-dasharray:5.0,5.0;" x1="192.5" x2="192.5" y1="51.2813" y2="381.2266"/><line style="stroke:#181818;stroke-width:0.5;stroke-dasharray:5.0,5.0;" x1="558" x2="558" y1="151.4688" y2="381.2266"/><rect fill="#E3E3E3" height="45.2813" rx="2.5" ry="2.5" style="stroke:#181818;stroke-width:0.5;" width="133" x="126.5" y="5"/><text fill="#000000" font-family="sans-serif" font-size="14" lengthAdjust="spacing" textLength="114" x="136" y="24.6738">agencyRepository</text><text fill="#000000" font-family="sans-serif" font-size="14" lengthAdjust="spacing" textLength="119" x="133.5" y="40.3145">:AgencyRepository</text><rect fill="#E3E3E3" height="45.2813" rx="2.5" ry="2.5" style="stroke:#181818;stroke-width:0.5;" width="133" x="126.5" y="380.2266"/><text fill="#000000" font-family="sans-serif" font-size="14" lengthAdjust="spacing" textLength="114" x="136" y="399.9004">agencyRepository</text><text fill="#000000" font-family="sans-serif" font-size="14" lengthAdjust="spacing" textLength="119" x="133.5" y="415.541">:AgencyRepository</text><rect fill="#E3E3E3" height="45.2813" rx="2.5" ry="2.5" style="stroke:#181818;stroke-width:0.5;" width="65" x="526" y="380.2266"/><text fill="#000000" font-family="sans-serif" font-size="14" lengthAdjust="spacing" textLength="46" x="535.5" y="399.9004">agency</text><text fill="#000000" font-family="sans-serif" font-size="14" lengthAdjust="spacing" textLength="51" x="533" y="415.541">:Agency</text><rect fill="#FFFFFF" height="281.4219" style="stroke:#181818;stroke-width:1.0;" width="10" x="188" y="81.8047"/><rect fill="#FFFFFF" height="122.5703" style="stroke:#181818;stroke-width:1.0;" width="10" x="193" y="198.1328"/><rect fill="#FFFFFF" height="39.5234" style="stroke:#181818;stroke-width:1.0;" width="10" x="198" y="239.6563"/><polygon fill="#181818" points="176,77.8047,186,81.8047,176,85.8047,180,81.8047" style="stroke:#181818;stroke-width:1.0;"/><line style="stroke:#181818;stroke-width:1.0;" x1="0" x2="182" y1="81.8047" y2="81.8047"/><text fill="#000000" font-family="sans-serif" font-size="13" font-weight="bold" lengthAdjust="spacing" textLength="14" x="7" y="77.0498">10</text><text fill="#000000" font-family="sans-serif" font-size="13" lengthAdjust="spacing" textLength="151" x="25" y="77.0498">createAgency(information)</text><path d="M116.5,96.8047 L254.5,96.8047 L254.5,103.3281 L244.5,113.3281 L116.5,113.3281 L116.5,96.8047 " fill="#EEEEEE" style="stroke:#000000;stroke-width:1.5;"/><rect fill="none" height="238.8984" style="stroke:#000000;stroke-width:1.5;" width="484.5" x="116.5" y="96.8047"/><text fill="#000000" font-family="sans-serif" font-size="13" font-weight="bold" lengthAdjust="spacing" textLength="93" x="131.5" y="109.5732">Create Agency</text><polygon fill="#181818" points="514,144.375,524,148.375,514,152.375,518,148.375" style="stroke:#181818;stroke-width:1.0;"/><line style="stroke:#181818;stroke-width:1.0;" x1="198" x2="520" y1="148.375" y2="148.375"/><text fill="#000000" font-family="sans-serif" font-size="13" font-weight="bold" lengthAdjust="spacing" textLength="25" x="205" y="136.3584">10.1</text><text fill="#000000" font-family="sans-serif" font-size="13" lengthAdjust="spacing" textLength="225" x="234" y="129.0967">createAgency(id, designation, location,</text><text fill="#000000" font-family="sans-serif" font-size="13" lengthAdjust="spacing" textLength="275" x="234" y="143.6201">emailAddress, telephoneNumber, administrator)</text><rect fill="#E3E3E3" height="45.2813" rx="2.5" ry="2.5" style="stroke:#181818;stroke-width:0.5;" width="65" x="526" y="113.3281"/><text fill="#000000" font-family="sans-serif" font-size="14" lengthAdjust="spacing" textLength="46" x="535.5" y="133.002">agency</text><text fill="#000000" font-family="sans-serif" font-size="14" lengthAdjust="spacing" textLength="51" x="533" y="148.6426">:Agency</text><line style="stroke:#181818;stroke-width:1.0;" x1="203" x2="245" y1="190.1328" y2="190.1328"/><line style="stroke:#181818;stroke-width:1.0;" x1="245" x2="245" y1="190.1328" y2="203.1328"/><line style="stroke:#181818;stroke-width:1.0;" x1="204" x2="245" y1="203.1328" y2="203.1328"/><polygon fill="#181818" points="214,199.1328,204,203.1328,214,207.1328,210,203.1328" style="stroke:#181818;stroke-width:1.0;"/><text fill="#000000" font-family="sans-serif" font-size="13" font-weight="bold" lengthAdjust="spacing" textLength="25" x="210" y="185.3779">10.2</text><text fill="#000000" font-family="sans-serif" font-size="13" lengthAdjust="spacing" textLength="115" x="239" y="185.3779">addAgency(agency)</text><line style="stroke:#181818;stroke-width:1.0;" x1="203" x2="250" y1="226.6563" y2="226.6563"/><line style="stroke:#181818;stroke-width:1.0;" x1="250" x2="250" y1="226.6563" y2="239.6563"/><line style="stroke:#181818;stroke-width:1.0;" x1="209" x2="250" y1="239.6563" y2="239.6563"/><polygon fill="#181818" points="219,235.6563,209,239.6563,219,243.6563,215,239.6563" style="stroke:#181818;stroke-width:1.0;"/><text fill="#000000" font-family="sans-serif" font-size="13" font-weight="bold" lengthAdjust="spacing" textLength="25" x="215" y="221.9014">10.3</text><text fill="#000000" font-family="sans-serif" font-size="13" lengthAdjust="spacing" textLength="137" x="244" y="221.9014">validateAgency(agency)</text><line style="stroke:#181818;stroke-width:1.0;stroke-dasharray:2.0,2.0;" x1="208" x2="250" y1="278.1797" y2="278.1797"/><line style="stroke:#181818;stroke-width:1.0;stroke-dasharray:2.0,2.0;" x1="250" x2="250" y1="278.1797" y2="291.1797"/><line style="stroke:#181818;stroke-width:1.0;stroke-dasharray:2.0,2.0;" x1="203" x2="250" y1="291.1797" y2="291.1797"/><polygon fill="#181818" points="213,287.1797,203,291.1797,213,295.1797,209,291.1797" style="stroke:#181818;stroke-width:1.0;"/><text fill="#000000" font-family="sans-serif" font-size="13" font-weight="bold" lengthAdjust="spacing" textLength="25" x="215" y="273.4248">10.4</text><text fill="#000000" font-family="sans-serif" font-size="13" lengthAdjust="spacing" textLength="4" x="244" y="273.4248">&#160;</text><line style="stroke:#181818;stroke-width:1.0;stroke-dasharray:2.0,2.0;" x1="203" x2="245" y1="319.7031" y2="319.7031"/><line style="stroke:#181818;stroke-width:1.0;stroke-dasharray:2.0,2.0;" x1="245" x2="245" y1="319.7031" y2="332.7031"/><line style="stroke:#181818;stroke-width:1.0;stroke-dasharray:2.0,2.0;" x1="198" x2="245" y1="332.7031" y2="332.7031"/><polygon fill="#181818" points="208,328.7031,198,332.7031,208,336.7031,204,332.7031" style="stroke:#181818;stroke-width:1.0;"/><text fill="#000000" font-family="sans-serif" font-size="13" font-weight="bold" lengthAdjust="spacing" textLength="25" x="210" y="314.9482">10.5</text><text fill="#000000" font-family="sans-serif" font-size="13" lengthAdjust="spacing" textLength="4" x="239" y="314.9482">&#160;</text><polygon fill="#181818" points="11,359.2266,1,363.2266,11,367.2266,7,363.2266" style="stroke:#181818;stroke-width:1.0;"/><line style="stroke:#181818;stroke-width:1.0;stroke-dasharray:2.0,2.0;" x1="5" x2="192" y1="363.2266" y2="363.2266"/><text fill="#000000" font-family="sans-serif" font-size="13" font-weight="bold" lengthAdjust="spacing" textLength="14" x="17" y="358.4717">11</text><text fill="#000000" font-family="sans-serif" font-size="13" lengthAdjust="spacing" textLength="42" x="35" y="358.4717">agency</text><!--SRC=[dP91JyCm38Nl-HNMJcpg4BjE26dYpW6kkvZ4QwqbJfIaG_ltb7OgfQqg8AVAzdllYzDqPWaOqO7pudKLlIF8iIQL-av0VSQItlBL4aJI6QMqmu5KeV4VB2MSq2PIgYbdrXnGCgmQgUZhAmMVEFjuFSh-C2gj01ECYtCklNQWK0hhxALsxnHXzw2sJnEhFUX8cAchtx6SV7IOsSjwfBxVATIPBytm50YQKqPV1tXkxNe0k9sn0dgMpMRCO0embBYKbgC0w_NjwoZaaEt1c4Wf5P39KgYyq4jBMG0Qny8fHsn2rdtwCi5m6sZC3QDRwqyFGwCLzDtbrVoDuOAMpVS-va1-5pSVEPEvVCd1dFg_zPBjLv_4TFR3lsxNLXwtssbOyrRT4opoVW80]--></g></svg>