<?xml version="1.0" encoding="us-ascii" standalone="no"?><svg xmlns="http://www.w3.org/2000/svg" xmlns:xlink="http://www.w3.org/1999/xlink" contentStyleType="text/css" height="1144px" preserveAspectRatio="none" style="width:637px;height:1144px;background:#FFFFFF;" version="1.1" viewBox="0 0 637 1144" width="637px" zoomAndPan="magnify"><defs/><g><rect fill="#FFFFFF" height="1015.1563" style="stroke:#181818;stroke-width:1.0;" width="10" x="237" y="61.2813"/><rect fill="#FFFFFF" height="122.5703" style="stroke:#181818;stroke-width:1.0;" width="10" x="242" y="425.7891"/><rect fill="#FFFFFF" height="39.5234" style="stroke:#181818;stroke-width:1.0;" width="10" x="247" y="467.3125"/><rect fill="#FFFFFF" height="122.5703" style="stroke:#181818;stroke-width:1.0;" width="10" x="242" y="911.3438"/><rect fill="#FFFFFF" height="39.5234" style="stroke:#181818;stroke-width:1.0;" width="10" x="247" y="952.8672"/><rect fill="none" height="471.5547" style="stroke:#000000;stroke-width:1.5;" width="628" x="3" y="91.8047"/><rect fill="none" height="72.8047" style="stroke:#000000;stroke-width:1.5;" width="458.5" x="162.5" y="143.8516"/><rect fill="none" height="72.8047" style="stroke:#000000;stroke-width:1.5;" width="458.5" x="162.5" y="230.6563"/><rect fill="none" height="72.8047" style="stroke:#000000;stroke-width:1.5;" width="458.5" x="162.5" y="317.4609"/><rect fill="none" height="471.5547" style="stroke:#000000;stroke-width:1.5;" width="628" x="3" y="577.3594"/><rect fill="none" height="72.8047" style="stroke:#000000;stroke-width:1.5;" width="458.5" x="162.5" y="629.4063"/><rect fill="none" height="72.8047" style="stroke:#000000;stroke-width:1.5;" width="458.5" x="162.5" y="716.2109"/><rect fill="none" height="72.8047" style="stroke:#000000;stroke-width:1.5;" width="458.5" x="162.5" y="803.0156"/><line style="stroke:#181818;stroke-width:0.5;stroke-dasharray:5.0,5.0;" x1="241.5" x2="241.5" y1="51.2813" y2="1094.4375"/><line style="stroke:#181818;stroke-width:0.5;stroke-dasharray:5.0,5.0;" x1="575" x2="575" y1="857.6797" y2="1094.4375"/><rect fill="#E3E3E3" height="45.2813" rx="2.5" ry="2.5" style="stroke:#181818;stroke-width:0.5;" width="139" x="172.5" y="5"/><text fill="#000000" font-family="sans-serif" font-size="14" lengthAdjust="spacing" textLength="116" x="184" y="24.6738">requestRepository</text><text fill="#000000" font-family="sans-serif" font-size="14" lengthAdjust="spacing" textLength="125" x="179.5" y="40.3145">:RequestRepository</text><rect fill="#E3E3E3" height="45.2813" rx="2.5" ry="2.5" style="stroke:#181818;stroke-width:0.5;" width="139" x="172.5" y="1093.4375"/><text fill="#000000" font-family="sans-serif" font-size="14" lengthAdjust="spacing" textLength="116" x="184" y="1113.1113">requestRepository</text><text fill="#000000" font-family="sans-serif" font-size="14" lengthAdjust="spacing" textLength="125" x="179.5" y="1128.752">:RequestRepository</text><rect fill="#E3E3E3" height="45.2813" rx="2.5" ry="2.5" style="stroke:#181818;stroke-width:0.5;" width="71" x="540" y="1093.4375"/><text fill="#000000" font-family="sans-serif" font-size="14" lengthAdjust="spacing" textLength="48" x="551.5" y="1113.1113">request</text><text fill="#000000" font-family="sans-serif" font-size="14" lengthAdjust="spacing" textLength="57" x="547" y="1128.752">:Request</text><rect fill="#FFFFFF" height="1015.1563" style="stroke:#181818;stroke-width:1.0;" width="10" x="237" y="61.2813"/><rect fill="#FFFFFF" height="122.5703" style="stroke:#181818;stroke-width:1.0;" width="10" x="242" y="425.7891"/><rect fill="#FFFFFF" height="39.5234" style="stroke:#181818;stroke-width:1.0;" width="10" x="247" y="467.3125"/><rect fill="#FFFFFF" height="122.5703" style="stroke:#181818;stroke-width:1.0;" width="10" x="242" y="911.3438"/><rect fill="#FFFFFF" height="39.5234" style="stroke:#181818;stroke-width:1.0;" width="10" x="247" y="952.8672"/><path d="M3,91.8047 L68,91.8047 L68,98.3281 L58,108.3281 L3,108.3281 L3,91.8047 " fill="#EEEEEE" style="stroke:#000000;stroke-width:1.5;"/><rect fill="none" height="471.5547" style="stroke:#000000;stroke-width:1.5;" width="628" x="3" y="91.8047"/><text fill="#000000" font-family="sans-serif" font-size="13" font-weight="bold" lengthAdjust="spacing" textLength="20" x="18" y="104.5732">opt</text><text fill="#000000" font-family="sans-serif" font-size="11" font-weight="bold" lengthAdjust="spacing" textLength="31" x="83" y="103.7627">[sale]</text><polygon fill="#181818" points="225,124.8516,235,128.8516,225,132.8516,229,128.8516" style="stroke:#181818;stroke-width:1.0;"/><line style="stroke:#181818;stroke-width:1.0;" x1="0" x2="231" y1="128.8516" y2="128.8516"/><text fill="#000000" font-family="sans-serif" font-size="13" font-weight="bold" lengthAdjust="spacing" textLength="25" x="7" y="124.0967">10.1</text><text fill="#000000" font-family="sans-serif" font-size="13" lengthAdjust="spacing" textLength="181" x="36" y="124.0967">createSaleRequest(information)</text><path d="M162.5,143.8516 L227.5,143.8516 L227.5,150.375 L217.5,160.375 L162.5,160.375 L162.5,143.8516 " fill="#EEEEEE" style="stroke:#000000;stroke-width:1.5;"/><rect fill="none" height="72.8047" style="stroke:#000000;stroke-width:1.5;" width="458.5" x="162.5" y="143.8516"/><text fill="#000000" font-family="sans-serif" font-size="13" font-weight="bold" lengthAdjust="spacing" textLength="20" x="177.5" y="156.6201">opt</text><text fill="#000000" font-family="sans-serif" font-size="11" font-weight="bold" lengthAdjust="spacing" textLength="31" x="242.5" y="155.8096">[land]</text><polygon fill="#181818" points="528,191.4219,538,195.4219,528,199.4219,532,195.4219" style="stroke:#181818;stroke-width:1.0;"/><line style="stroke:#181818;stroke-width:1.0;" x1="247" x2="534" y1="195.4219" y2="195.4219"/><text fill="#000000" font-family="sans-serif" font-size="13" font-weight="bold" lengthAdjust="spacing" textLength="25" x="254" y="183.4053">10.2</text><text fill="#000000" font-family="sans-serif" font-size="13" lengthAdjust="spacing" textLength="170" x="283" y="176.1436">createSaleLandRequest(land,</text><text fill="#000000" font-family="sans-serif" font-size="13" lengthAdjust="spacing" textLength="233" x="283" y="190.667">requestedPrice, typeOfBusiness, owner)</text><rect fill="#E3E3E3" height="45.2813" rx="2.5" ry="2.5" style="stroke:#181818;stroke-width:0.5;" width="71" x="540" y="160.375"/><text fill="#000000" font-family="sans-serif" font-size="14" lengthAdjust="spacing" textLength="48" x="551.5" y="180.0488">request</text><text fill="#000000" font-family="sans-serif" font-size="14" lengthAdjust="spacing" textLength="57" x="547" y="195.6895">:Request</text><path d="M162.5,230.6563 L227.5,230.6563 L227.5,237.1797 L217.5,247.1797 L162.5,247.1797 L162.5,230.6563 " fill="#EEEEEE" style="stroke:#000000;stroke-width:1.5;"/><rect fill="none" height="72.8047" style="stroke:#000000;stroke-width:1.5;" width="458.5" x="162.5" y="230.6563"/><text fill="#000000" font-family="sans-serif" font-size="13" font-weight="bold" lengthAdjust="spacing" textLength="20" x="177.5" y="243.4248">opt</text><text fill="#000000" font-family="sans-serif" font-size="11" font-weight="bold" lengthAdjust="spacing" textLength="65" x="242.5" y="242.6143">[apartment]</text><polygon fill="#181818" points="528,278.2266,538,282.2266,528,286.2266,532,282.2266" style="stroke:#181818;stroke-width:1.0;"/><line style="stroke:#181818;stroke-width:1.0;" x1="247" x2="534" y1="282.2266" y2="282.2266"/><text fill="#000000" font-family="sans-serif" font-size="13" font-weight="bold" lengthAdjust="spacing" textLength="25" x="254" y="270.21">10.2</text><text fill="#000000" font-family="sans-serif" font-size="13" lengthAdjust="spacing" textLength="236" x="283" y="262.9482">createSaleApartmentRequest(apartment,</text><text fill="#000000" font-family="sans-serif" font-size="13" lengthAdjust="spacing" textLength="233" x="283" y="277.4717">requestedPrice, typeOfBusiness, owner)</text><rect fill="#E3E3E3" height="45.2813" rx="2.5" ry="2.5" style="stroke:#181818;stroke-width:0.5;" width="71" x="540" y="247.1797"/><text fill="#000000" font-family="sans-serif" font-size="14" lengthAdjust="spacing" textLength="48" x="551.5" y="266.8535">request</text><text fill="#000000" font-family="sans-serif" font-size="14" lengthAdjust="spacing" textLength="57" x="547" y="282.4941">:Request</text><path d="M162.5,317.4609 L227.5,317.4609 L227.5,323.9844 L217.5,333.9844 L162.5,333.9844 L162.5,317.4609 " fill="#EEEEEE" style="stroke:#000000;stroke-width:1.5;"/><rect fill="none" height="72.8047" style="stroke:#000000;stroke-width:1.5;" width="458.5" x="162.5" y="317.4609"/><text fill="#000000" font-family="sans-serif" font-size="13" font-weight="bold" lengthAdjust="spacing" textLength="20" x="177.5" y="330.2295">opt</text><text fill="#000000" font-family="sans-serif" font-size="11" font-weight="bold" lengthAdjust="spacing" textLength="43" x="242.5" y="329.4189">[House]</text><polygon fill="#181818" points="528,365.0313,538,369.0313,528,373.0313,532,369.0313" style="stroke:#181818;stroke-width:1.0;"/><line style="stroke:#181818;stroke-width:1.0;" x1="247" x2="534" y1="369.0313" y2="369.0313"/><text fill="#000000" font-family="sans-serif" font-size="13" font-weight="bold" lengthAdjust="spacing" textLength="25" x="254" y="357.0146">10.2</text><text fill="#000000" font-family="sans-serif" font-size="13" lengthAdjust="spacing" textLength="190" x="283" y="349.7529">createSaleHouseRequest(house,</text><text fill="#000000" font-family="sans-serif" font-size="13" lengthAdjust="spacing" textLength="219" x="283" y="364.2764">requestPrice, typeOfBusiness, owner)</text><rect fill="#E3E3E3" height="45.2813" rx="2.5" ry="2.5" style="stroke:#181818;stroke-width:0.5;" width="71" x="540" y="333.9844"/><text fill="#000000" font-family="sans-serif" font-size="14" lengthAdjust="spacing" textLength="48" x="551.5" y="353.6582">request</text><text fill="#000000" font-family="sans-serif" font-size="14" lengthAdjust="spacing" textLength="57" x="547" y="369.2988">:Request</text><line style="stroke:#181818;stroke-width:1.0;" x1="252" x2="294" y1="417.7891" y2="417.7891"/><line style="stroke:#181818;stroke-width:1.0;" x1="294" x2="294" y1="417.7891" y2="430.7891"/><line style="stroke:#181818;stroke-width:1.0;" x1="253" x2="294" y1="430.7891" y2="430.7891"/><polygon fill="#181818" points="263,426.7891,253,430.7891,263,434.7891,259,430.7891" style="stroke:#181818;stroke-width:1.0;"/><text fill="#000000" font-family="sans-serif" font-size="13" font-weight="bold" lengthAdjust="spacing" textLength="25" x="259" y="413.0342">10.3</text><text fill="#000000" font-family="sans-serif" font-size="13" lengthAdjust="spacing" textLength="175" x="288" y="413.0342">addSaleRequest(saleRequest)</text><line style="stroke:#181818;stroke-width:1.0;" x1="252" x2="299" y1="454.3125" y2="454.3125"/><line style="stroke:#181818;stroke-width:1.0;" x1="299" x2="299" y1="454.3125" y2="467.3125"/><line style="stroke:#181818;stroke-width:1.0;" x1="258" x2="299" y1="467.3125" y2="467.3125"/><polygon fill="#181818" points="268,463.3125,258,467.3125,268,471.3125,264,467.3125" style="stroke:#181818;stroke-width:1.0;"/><text fill="#000000" font-family="sans-serif" font-size="13" font-weight="bold" lengthAdjust="spacing" textLength="25" x="264" y="449.5576">10.4</text><text fill="#000000" font-family="sans-serif" font-size="13" lengthAdjust="spacing" textLength="197" x="293" y="449.5576">validateSaleRequest(saleRequest)</text><line style="stroke:#181818;stroke-width:1.0;stroke-dasharray:2.0,2.0;" x1="257" x2="299" y1="505.8359" y2="505.8359"/><line style="stroke:#181818;stroke-width:1.0;stroke-dasharray:2.0,2.0;" x1="299" x2="299" y1="505.8359" y2="518.8359"/><line style="stroke:#181818;stroke-width:1.0;stroke-dasharray:2.0,2.0;" x1="252" x2="299" y1="518.8359" y2="518.8359"/><polygon fill="#181818" points="262,514.8359,252,518.8359,262,522.8359,258,518.8359" style="stroke:#181818;stroke-width:1.0;"/><text fill="#000000" font-family="sans-serif" font-size="13" font-weight="bold" lengthAdjust="spacing" textLength="25" x="264" y="501.0811">10.5</text><text fill="#000000" font-family="sans-serif" font-size="13" lengthAdjust="spacing" textLength="4" x="293" y="501.0811">&#160;</text><line style="stroke:#181818;stroke-width:1.0;stroke-dasharray:2.0,2.0;" x1="252" x2="294" y1="547.3594" y2="547.3594"/><line style="stroke:#181818;stroke-width:1.0;stroke-dasharray:2.0,2.0;" x1="294" x2="294" y1="547.3594" y2="560.3594"/><line style="stroke:#181818;stroke-width:1.0;stroke-dasharray:2.0,2.0;" x1="247" x2="294" y1="560.3594" y2="560.3594"/><polygon fill="#181818" points="257,556.3594,247,560.3594,257,564.3594,253,560.3594" style="stroke:#181818;stroke-width:1.0;"/><text fill="#000000" font-family="sans-serif" font-size="13" font-weight="bold" lengthAdjust="spacing" textLength="25" x="259" y="542.6045">10.6</text><text fill="#000000" font-family="sans-serif" font-size="13" lengthAdjust="spacing" textLength="4" x="288" y="542.6045">&#160;</text><path d="M3,577.3594 L68,577.3594 L68,583.8828 L58,593.8828 L3,593.8828 L3,577.3594 " fill="#EEEEEE" style="stroke:#000000;stroke-width:1.5;"/><rect fill="none" height="471.5547" style="stroke:#000000;stroke-width:1.5;" width="628" x="3" y="577.3594"/><text fill="#000000" font-family="sans-serif" font-size="13" font-weight="bold" lengthAdjust="spacing" textLength="20" x="18" y="590.1279">opt</text><text fill="#000000" font-family="sans-serif" font-size="11" font-weight="bold" lengthAdjust="spacing" textLength="31" x="83" y="589.3174">[rent]</text><polygon fill="#181818" points="225,610.4063,235,614.4063,225,618.4063,229,614.4063" style="stroke:#181818;stroke-width:1.0;"/><line style="stroke:#181818;stroke-width:1.0;" x1="0" x2="231" y1="614.4063" y2="614.4063"/><text fill="#000000" font-family="sans-serif" font-size="13" font-weight="bold" lengthAdjust="spacing" textLength="25" x="7" y="609.6514">10.1</text><text fill="#000000" font-family="sans-serif" font-size="13" lengthAdjust="spacing" textLength="182" x="36" y="609.6514">createRentRequest(information)</text><path d="M162.5,629.4063 L227.5,629.4063 L227.5,635.9297 L217.5,645.9297 L162.5,645.9297 L162.5,629.4063 " fill="#EEEEEE" style="stroke:#000000;stroke-width:1.5;"/><rect fill="none" height="72.8047" style="stroke:#000000;stroke-width:1.5;" width="458.5" x="162.5" y="629.4063"/><text fill="#000000" font-family="sans-serif" font-size="13" font-weight="bold" lengthAdjust="spacing" textLength="20" x="177.5" y="642.1748">opt</text><text fill="#000000" font-family="sans-serif" font-size="11" font-weight="bold" lengthAdjust="spacing" textLength="31" x="242.5" y="641.3643">[land]</text><polygon fill="#181818" points="528,676.9766,538,680.9766,528,684.9766,532,680.9766" style="stroke:#181818;stroke-width:1.0;"/><line style="stroke:#181818;stroke-width:1.0;" x1="247" x2="534" y1="680.9766" y2="680.9766"/><text fill="#000000" font-family="sans-serif" font-size="13" font-weight="bold" lengthAdjust="spacing" textLength="25" x="254" y="668.96">10.2</text><text fill="#000000" font-family="sans-serif" font-size="13" lengthAdjust="spacing" textLength="170" x="283" y="661.6982">createSaleLandRequest(land,</text><text fill="#000000" font-family="sans-serif" font-size="13" lengthAdjust="spacing" textLength="233" x="283" y="676.2217">requestedPrice, typeOfBusiness, owner)</text><rect fill="#E3E3E3" height="45.2813" rx="2.5" ry="2.5" style="stroke:#181818;stroke-width:0.5;" width="71" x="540" y="645.9297"/><text fill="#000000" font-family="sans-serif" font-size="14" lengthAdjust="spacing" textLength="48" x="551.5" y="665.6035">request</text><text fill="#000000" font-family="sans-serif" font-size="14" lengthAdjust="spacing" textLength="57" x="547" y="681.2441">:Request</text><path d="M162.5,716.2109 L227.5,716.2109 L227.5,722.7344 L217.5,732.7344 L162.5,732.7344 L162.5,716.2109 " fill="#EEEEEE" style="stroke:#000000;stroke-width:1.5;"/><rect fill="none" height="72.8047" style="stroke:#000000;stroke-width:1.5;" width="458.5" x="162.5" y="716.2109"/><text fill="#000000" font-family="sans-serif" font-size="13" font-weight="bold" lengthAdjust="spacing" textLength="20" x="177.5" y="728.9795">opt</text><text fill="#000000" font-family="sans-serif" font-size="11" font-weight="bold" lengthAdjust="spacing" textLength="65" x="242.5" y="728.1689">[apartment]</text><polygon fill="#181818" points="528,763.7813,538,767.7813,528,771.7813,532,767.7813" style="stroke:#181818;stroke-width:1.0;"/><line style="stroke:#181818;stroke-width:1.0;" x1="247" x2="534" y1="767.7813" y2="767.7813"/><text fill="#000000" font-family="sans-serif" font-size="13" font-weight="bold" lengthAdjust="spacing" textLength="25" x="254" y="755.7646">10.2</text><text fill="#000000" font-family="sans-serif" font-size="13" lengthAdjust="spacing" textLength="236" x="283" y="748.5029">createSaleApartmentRequest(apartment,</text><text fill="#000000" font-family="sans-serif" font-size="13" lengthAdjust="spacing" textLength="233" x="283" y="763.0264">requestedPrice, typeOfBusiness, owner)</text><rect fill="#E3E3E3" height="45.2813" rx="2.5" ry="2.5" style="stroke:#181818;stroke-width:0.5;" width="71" x="540" y="732.7344"/><text fill="#000000" font-family="sans-serif" font-size="14" lengthAdjust="spacing" textLength="48" x="551.5" y="752.4082">request</text><text fill="#000000" font-family="sans-serif" font-size="14" lengthAdjust="spacing" textLength="57" x="547" y="768.0488">:Request</text><path d="M162.5,803.0156 L227.5,803.0156 L227.5,809.5391 L217.5,819.5391 L162.5,819.5391 L162.5,803.0156 " fill="#EEEEEE" style="stroke:#000000;stroke-width:1.5;"/><rect fill="none" height="72.8047" style="stroke:#000000;stroke-width:1.5;" width="458.5" x="162.5" y="803.0156"/><text fill="#000000" font-family="sans-serif" font-size="13" font-weight="bold" lengthAdjust="spacing" textLength="20" x="177.5" y="815.7842">opt</text><text fill="#000000" font-family="sans-serif" font-size="11" font-weight="bold" lengthAdjust="spacing" textLength="43" x="242.5" y="814.9736">[House]</text><polygon fill="#181818" points="528,850.5859,538,854.5859,528,858.5859,532,854.5859" style="stroke:#181818;stroke-width:1.0;"/><line style="stroke:#181818;stroke-width:1.0;" x1="247" x2="534" y1="854.5859" y2="854.5859"/><text fill="#000000" font-family="sans-serif" font-size="13" font-weight="bold" lengthAdjust="spacing" textLength="25" x="254" y="842.5693">10.2</text><text fill="#000000" font-family="sans-serif" font-size="13" lengthAdjust="spacing" textLength="190" x="283" y="835.3076">createSaleHouseRequest(house,</text><text fill="#000000" font-family="sans-serif" font-size="13" lengthAdjust="spacing" textLength="219" x="283" y="849.8311">requestPrice, typeOfBusiness, owner)</text><rect fill="#E3E3E3" height="45.2813" rx="2.5" ry="2.5" style="stroke:#181818;stroke-width:0.5;" width="71" x="540" y="819.5391"/><text fill="#000000" font-family="sans-serif" font-size="14" lengthAdjust="spacing" textLength="48" x="551.5" y="839.2129">request</text><text fill="#000000" font-family="sans-serif" font-size="14" lengthAdjust="spacing" textLength="57" x="547" y="854.8535">:Request</text><line style="stroke:#181818;stroke-width:1.0;" x1="252" x2="294" y1="903.3438" y2="903.3438"/><line style="stroke:#181818;stroke-width:1.0;" x1="294" x2="294" y1="903.3438" y2="916.3438"/><line style="stroke:#181818;stroke-width:1.0;" x1="253" x2="294" y1="916.3438" y2="916.3438"/><polygon fill="#181818" points="263,912.3438,253,916.3438,263,920.3438,259,916.3438" style="stroke:#181818;stroke-width:1.0;"/><text fill="#000000" font-family="sans-serif" font-size="13" font-weight="bold" lengthAdjust="spacing" textLength="25" x="259" y="898.5889">10.3</text><text fill="#000000" font-family="sans-serif" font-size="13" lengthAdjust="spacing" textLength="174" x="288" y="898.5889">addRentRequest(rentRequest)</text><line style="stroke:#181818;stroke-width:1.0;" x1="252" x2="299" y1="939.8672" y2="939.8672"/><line style="stroke:#181818;stroke-width:1.0;" x1="299" x2="299" y1="939.8672" y2="952.8672"/><line style="stroke:#181818;stroke-width:1.0;" x1="258" x2="299" y1="952.8672" y2="952.8672"/><polygon fill="#181818" points="268,948.8672,258,952.8672,268,956.8672,264,952.8672" style="stroke:#181818;stroke-width:1.0;"/><text fill="#000000" font-family="sans-serif" font-size="13" font-weight="bold" lengthAdjust="spacing" textLength="25" x="264" y="935.1123">10.4</text><text fill="#000000" font-family="sans-serif" font-size="13" lengthAdjust="spacing" textLength="196" x="293" y="935.1123">validateRentRequest(rentRequest)</text><line style="stroke:#181818;stroke-width:1.0;stroke-dasharray:2.0,2.0;" x1="257" x2="299" y1="991.3906" y2="991.3906"/><line style="stroke:#181818;stroke-width:1.0;stroke-dasharray:2.0,2.0;" x1="299" x2="299" y1="991.3906" y2="1004.3906"/><line style="stroke:#181818;stroke-width:1.0;stroke-dasharray:2.0,2.0;" x1="252" x2="299" y1="1004.3906" y2="1004.3906"/><polygon fill="#181818" points="262,1000.3906,252,1004.3906,262,1008.3906,258,1004.3906" style="stroke:#181818;stroke-width:1.0;"/><text fill="#000000" font-family="sans-serif" font-size="13" font-weight="bold" lengthAdjust="spacing" textLength="25" x="264" y="986.6357">10.5</text><text fill="#000000" font-family="sans-serif" font-size="13" lengthAdjust="spacing" textLength="4" x="293" y="986.6357">&#160;</text><line style="stroke:#181818;stroke-width:1.0;stroke-dasharray:2.0,2.0;" x1="252" x2="294" y1="1032.9141" y2="1032.9141"/><line style="stroke:#181818;stroke-width:1.0;stroke-dasharray:2.0,2.0;" x1="294" x2="294" y1="1032.9141" y2="1045.9141"/><line style="stroke:#181818;stroke-width:1.0;stroke-dasharray:2.0,2.0;" x1="247" x2="294" y1="1045.9141" y2="1045.9141"/><polygon fill="#181818" points="257,1041.9141,247,1045.9141,257,1049.9141,253,1045.9141" style="stroke:#181818;stroke-width:1.0;"/><text fill="#000000" font-family="sans-serif" font-size="13" font-weight="bold" lengthAdjust="spacing" textLength="25" x="259" y="1028.1592">10.6</text><text fill="#000000" font-family="sans-serif" font-size="13" lengthAdjust="spacing" textLength="4" x="288" y="1028.1592">&#160;</text><polygon fill="#181818" points="11,1072.4375,1,1076.4375,11,1080.4375,7,1076.4375" style="stroke:#181818;stroke-width:1.0;"/><line style="stroke:#181818;stroke-width:1.0;stroke-dasharray:2.0,2.0;" x1="5" x2="241" y1="1076.4375" y2="1076.4375"/><text fill="#000000" font-family="sans-serif" font-size="13" font-weight="bold" lengthAdjust="spacing" textLength="14" x="17" y="1071.6826">11</text><text fill="#000000" font-family="sans-serif" font-size="13" lengthAdjust="spacing" textLength="43" x="35" y="1071.6826">request</text><!--SRC=[xLGzRy8m4DtzAqvC3OAgT4HLfRPBXqgjO6MvnaUmIEpKTa3y-oPHFam2WK0xLAedvtptxZdtdirQo1WrHX0fgVoLLX61rGanKvt4wAyneBdTXGIQV8io2Dq4iqAkja86iCJG46Dfs0fVn2Wj33Hz9MJiZ69bX5Lwjv3JMJCs03JGYXu4gilT8iOmiKecqITfcDpTJbYWLHB3YoQqL6MXRyN62JYzc8ej64nlraGQFxRJf-3doFEqe3Yy4NAfT8HMAEdbQ25ApXWKguK1DV1mw0A-fNKbQ8OnWeKiRa_yGmkVHc1tCRqldnCZ91ap0hMLf3r6QSTz_lSv5Sn-PKJIdii7N49FPNN9geBx0MglAib4Sm6jlBAajCe-73gdoO2pkhgwKqVEtP6RUk_juN5gIgqwxj3W9Oms60hUKE9HMcVsFjB_484JjtODTWrw9tAMa0qqbvFEHDx7mZD7r_yM_hiMxcbZT-owtdijp0uhNs-fJakVJR47XqkjtS_Ul_k0k9DtvJYfeW_ZyO7-KoY4nJhxV0C0]--></g></svg>