<?xml version="1.0" encoding="UTF-8" standalone="no"?><svg xmlns="http://www.w3.org/2000/svg" xmlns:xlink="http://www.w3.org/1999/xlink" contentStyleType="text/css" height="1188px" preserveAspectRatio="none" style="width:2771px;height:1188px;background:#FFFFFF;" version="1.1" viewBox="0 0 2771 1188" width="2771px" zoomAndPan="magnify"><defs/><g><text fill="#000000" font-family="sans-serif" font-size="14" font-weight="bold" lengthAdjust="spacing" textLength="105" x="1326" y="23.5352">Domain Model</text><!--class Employee--><g id="elem_Employee"><rect codeLine="13" fill="#F1F1F1" height="206.4375" id="Employee" rx="2.5" ry="2.5" style="stroke:#181818;stroke-width:0.5;" width="212" x="7" y="438.9283"/><text fill="#000000" font-family="sans-serif" font-size="20" lengthAdjust="spacing" textLength="93" x="66.5" y="463.2642">Employee</text><line style="stroke:#181818;stroke-width:0.5;" x1="8" x2="218" y1="472.483" y2="472.483"/><text fill="#000000" font-family="sans-serif" font-size="20" lengthAdjust="spacing" textLength="53" x="13" y="495.8189">name</text><text fill="#000000" font-family="sans-serif" font-size="20" lengthAdjust="spacing" textLength="200" x="13" y="519.3736">citizen_card_number</text><text fill="#000000" font-family="sans-serif" font-size="20" lengthAdjust="spacing" textLength="115" x="13" y="542.9283">tax_number</text><text fill="#000000" font-family="sans-serif" font-size="20" lengthAdjust="spacing" textLength="76" x="13" y="566.483">address</text><text fill="#000000" font-family="sans-serif" font-size="20" lengthAdjust="spacing" textLength="139" x="13" y="590.0377">email_address</text><text fill="#000000" font-family="sans-serif" font-size="20" lengthAdjust="spacing" textLength="69" x="13" y="613.5923">contact</text><text fill="#000000" font-family="sans-serif" font-size="20" lengthAdjust="spacing" textLength="135" x="13" y="637.147">employeeRole</text></g><!--class Agent--><g id="elem_Agent"><rect codeLine="22" fill="#F1F1F1" height="88.6641" id="Agent" rx="2.5" ry="2.5" style="stroke:#181818;stroke-width:0.5;" width="104" x="853" y="497.8083"/><text fill="#000000" font-family="sans-serif" font-size="20" lengthAdjust="spacing" textLength="56" x="877" y="522.1442">Agent</text><line style="stroke:#181818;stroke-width:0.5;" x1="854" x2="956" y1="531.363" y2="531.363"/><text fill="#000000" font-family="sans-serif" font-size="20" lengthAdjust="spacing" textLength="82" x="859" y="554.6989">id/email</text><text fill="#000000" font-family="sans-serif" font-size="20" lengthAdjust="spacing" textLength="92" x="859" y="578.2536">password</text></g><!--class SystemAdministrator--><g id="elem_SystemAdministrator"><rect codeLine="27" fill="#F1F1F1" height="88.6641" id="SystemAdministrator" rx="2.5" ry="2.5" style="stroke:#181818;stroke-width:0.5;" width="207" x="311.5" y="241.7083"/><text fill="#000000" font-family="sans-serif" font-size="20" lengthAdjust="spacing" textLength="201" x="314.5" y="266.0442">SystemAdministrator</text><line style="stroke:#181818;stroke-width:0.5;" x1="312.5" x2="517.5" y1="275.263" y2="275.263"/><text fill="#000000" font-family="sans-serif" font-size="20" lengthAdjust="spacing" textLength="82" x="317.5" y="298.5989">id/email</text><text fill="#000000" font-family="sans-serif" font-size="20" lengthAdjust="spacing" textLength="92" x="317.5" y="322.1536">password</text></g><!--class Land--><g id="elem_Land"><rect codeLine="32" fill="#F1F1F1" height="182.8828" id="Land" rx="2.5" ry="2.5" style="stroke:#181818;stroke-width:0.5;" width="300" x="1774" y="753.9183"/><text fill="#000000" font-family="sans-serif" font-size="20" lengthAdjust="spacing" textLength="47" x="1900.5" y="778.2542">Land</text><line style="stroke:#181818;stroke-width:0.5;" x1="1775" x2="2073" y1="787.473" y2="787.473"/><text fill="#000000" font-family="sans-serif" font-size="20" lengthAdjust="spacing" textLength="41" x="1780" y="810.8089">type</text><text fill="#000000" font-family="sans-serif" font-size="20" lengthAdjust="spacing" textLength="41" x="1780" y="834.3636">area</text><text fill="#000000" font-family="sans-serif" font-size="20" lengthAdjust="spacing" textLength="76" x="1780" y="857.9183">location</text><text fill="#000000" font-family="sans-serif" font-size="20" lengthAdjust="spacing" textLength="288" x="1780" y="881.473">distance_from_the_city_centre</text><text fill="#000000" font-family="sans-serif" font-size="20" lengthAdjust="spacing" textLength="154" x="1780" y="905.0277">requested_price</text><text fill="#000000" font-family="sans-serif" font-size="20" lengthAdjust="spacing" textLength="66" x="1780" y="928.5823">photos</text></g><!--class Agency--><g id="elem_Agency"><rect codeLine="43" fill="#F1F1F1" height="182.8828" id="Agency" rx="2.5" ry="2.5" style="stroke:#181818;stroke-width:0.5;" width="157" x="402.5" y="753.9183"/><text fill="#000000" font-family="sans-serif" font-size="20" lengthAdjust="spacing" textLength="69" x="446.5" y="778.2542">Agency</text><line style="stroke:#181818;stroke-width:0.5;" x1="403.5" x2="558.5" y1="787.473" y2="787.473"/><text fill="#000000" font-family="sans-serif" font-size="20" lengthAdjust="spacing" textLength="19" x="408.5" y="810.8089">Id</text><text fill="#000000" font-family="sans-serif" font-size="20" lengthAdjust="spacing" textLength="112" x="408.5" y="834.3636">designation</text><text fill="#000000" font-family="sans-serif" font-size="20" lengthAdjust="spacing" textLength="76" x="408.5" y="857.9183">location</text><text fill="#000000" font-family="sans-serif" font-size="20" lengthAdjust="spacing" textLength="139" x="408.5" y="881.473">local_manager</text><text fill="#000000" font-family="sans-serif" font-size="20" lengthAdjust="spacing" textLength="145" x="408.5" y="905.0277">phone_number</text><text fill="#000000" font-family="sans-serif" font-size="20" lengthAdjust="spacing" textLength="53" x="408.5" y="928.5823">email</text></g><!--class UnregisteredUser--><g id="elem_UnregisteredUser"><rect codeLine="52" fill="#F1F1F1" height="88.6641" id="UnregisteredUser" rx="2.5" ry="2.5" style="stroke:#181818;stroke-width:0.5;" width="172" x="545" y="44.4883"/><text fill="#000000" font-family="sans-serif" font-size="20" lengthAdjust="spacing" textLength="166" x="548" y="68.8242">UnregisteredUser</text><line style="stroke:#181818;stroke-width:0.5;" x1="546" x2="716" y1="78.043" y2="78.043"/><text fill="#000000" font-family="sans-serif" font-size="20" lengthAdjust="spacing" textLength="82" x="551" y="101.3789">id/email</text><text fill="#000000" font-family="sans-serif" font-size="20" lengthAdjust="spacing" textLength="92" x="551" y="124.9336">password</text></g><!--class Property--><g id="elem_Property"><rect codeLine="58" fill="#F1F1F1" height="182.8828" id="Property" rx="2.5" ry="2.5" style="stroke:#181818;stroke-width:0.5;" width="300" x="1609" y="450.6983"/><text fill="#000000" font-family="sans-serif" font-size="20" lengthAdjust="spacing" textLength="80" x="1719" y="475.0342">Property</text><line style="stroke:#181818;stroke-width:0.5;" x1="1610" x2="1908" y1="484.253" y2="484.253"/><text fill="#000000" font-family="sans-serif" font-size="20" lengthAdjust="spacing" textLength="41" x="1615" y="507.5889">type</text><text fill="#000000" font-family="sans-serif" font-size="20" lengthAdjust="spacing" textLength="41" x="1615" y="531.1436">area</text><text fill="#000000" font-family="sans-serif" font-size="20" lengthAdjust="spacing" textLength="76" x="1615" y="554.6983">location</text><text fill="#000000" font-family="sans-serif" font-size="20" lengthAdjust="spacing" textLength="288" x="1615" y="578.253">distance_from_the_city_centre</text><text fill="#000000" font-family="sans-serif" font-size="20" lengthAdjust="spacing" textLength="154" x="1615" y="601.8077">requested_price</text><text fill="#000000" font-family="sans-serif" font-size="20" lengthAdjust="spacing" textLength="66" x="1615" y="625.3623">photos</text></g><!--class Announcement--><g id="elem_Announcement"><rect codeLine="67" fill="#F1F1F1" height="135.7734" id="Announcement" rx="2.5" ry="2.5" style="stroke:#181818;stroke-width:0.5;" width="189" x="1222.5" y="1045.3583"/><text fill="#000000" font-family="sans-serif" font-size="20" lengthAdjust="spacing" textLength="144" x="1245" y="1069.6942">Announcement</text><line style="stroke:#181818;stroke-width:0.5;" x1="1223.5" x2="1410.5" y1="1078.913" y2="1078.913"/><text fill="#000000" font-family="sans-serif" font-size="20" lengthAdjust="spacing" textLength="82" x="1228.5" y="1102.2489">property</text><text fill="#000000" font-family="sans-serif" font-size="20" lengthAdjust="spacing" textLength="108" x="1228.5" y="1125.8036">description</text><text fill="#000000" font-family="sans-serif" font-size="20" lengthAdjust="spacing" textLength="177" x="1228.5" y="1149.3583">type_of_comission</text><text fill="#000000" font-family="sans-serif" font-size="20" lengthAdjust="spacing" textLength="150" x="1228.5" y="1172.913">comissionValue</text></g><!--class Apartment--><g id="elem_Apartment"><rect codeLine="74" fill="#F1F1F1" height="159.3281" id="Apartment" rx="2.5" ry="2.5" style="stroke:#181818;stroke-width:0.5;" width="296" x="2109" y="765.6983"/><text fill="#000000" font-family="sans-serif" font-size="20" lengthAdjust="spacing" textLength="102" x="2206" y="790.0342">Apartment</text><line style="stroke:#181818;stroke-width:0.5;" x1="2110" x2="2404" y1="799.253" y2="799.253"/><text fill="#000000" font-family="sans-serif" font-size="20" lengthAdjust="spacing" textLength="212" x="2115" y="822.5889">number_of_bedrooms</text><text fill="#000000" font-family="sans-serif" font-size="20" lengthAdjust="spacing" textLength="218" x="2115" y="846.1436">number_of_bathrooms</text><text fill="#000000" font-family="sans-serif" font-size="20" lengthAdjust="spacing" textLength="263" x="2115" y="869.6983">number_of_parking_spaces</text><text fill="#000000" font-family="sans-serif" font-size="20" lengthAdjust="spacing" textLength="275" x="2115" y="893.253">existence_of_central_heating</text><text fill="#000000" font-family="sans-serif" font-size="20" lengthAdjust="spacing" textLength="284" x="2115" y="916.8077">existence_of_air_conditioning</text></g><!--class House--><g id="elem_House"><rect codeLine="82" fill="#F1F1F1" height="229.9922" id="House" rx="2.5" ry="2.5" style="stroke:#181818;stroke-width:0.5;" width="324" x="2440" y="730.3583"/><text fill="#000000" font-family="sans-serif" font-size="20" lengthAdjust="spacing" textLength="60" x="2572" y="754.6942">House</text><line style="stroke:#181818;stroke-width:0.5;" x1="2441" x2="2763" y1="763.913" y2="763.913"/><text fill="#000000" font-family="sans-serif" font-size="20" lengthAdjust="spacing" textLength="212" x="2446" y="787.2489">number_of_bedrooms</text><text fill="#000000" font-family="sans-serif" font-size="20" lengthAdjust="spacing" textLength="218" x="2446" y="810.8036">number_of_bathrooms</text><text fill="#000000" font-family="sans-serif" font-size="20" lengthAdjust="spacing" textLength="259" x="2446" y="834.3583">number_of_parking spaces</text><text fill="#000000" font-family="sans-serif" font-size="20" lengthAdjust="spacing" textLength="271" x="2446" y="857.913">existence_of_central heating</text><text fill="#000000" font-family="sans-serif" font-size="20" lengthAdjust="spacing" textLength="284" x="2446" y="881.4677">existence_of_air_conditioning</text><text fill="#000000" font-family="sans-serif" font-size="20" lengthAdjust="spacing" textLength="244" x="2446" y="905.0223">existence_of_a_basement</text><text fill="#000000" font-family="sans-serif" font-size="20" lengthAdjust="spacing" textLength="312" x="2446" y="928.577">existence_of_an_inhabitable_loft</text><text fill="#000000" font-family="sans-serif" font-size="20" lengthAdjust="spacing" textLength="262" x="2446" y="952.1317">existence_of_sun_exposure</text></g><!--class AgentRequestList--><g id="elem_AgentRequestList"><rect codeLine="94" fill="#F1F1F1" height="65.1094" id="AgentRequestList" rx="2.5" ry="2.5" style="stroke:#181818;stroke-width:0.5;" width="173" x="857.5" y="1080.6883"/><text fill="#000000" font-family="sans-serif" font-size="20" lengthAdjust="spacing" textLength="167" x="860.5" y="1105.0242">AgentRequestList</text><line style="stroke:#181818;stroke-width:0.5;" x1="858.5" x2="1029.5" y1="1114.243" y2="1114.243"/><text fill="#000000" font-family="sans-serif" font-size="20" lengthAdjust="spacing" textLength="72" x="863.5" y="1137.5789">request</text></g><!--class Request--><g id="elem_Request"><rect codeLine="98" fill="#F1F1F1" height="88.6641" id="Request" rx="2.5" ry="2.5" style="stroke:#181818;stroke-width:0.5;" width="94" x="1190" y="801.0283"/><text fill="#000000" font-family="sans-serif" font-size="20" lengthAdjust="spacing" textLength="77" x="1198.5" y="825.3642">Request</text><line style="stroke:#181818;stroke-width:0.5;" x1="1191" x2="1283" y1="834.583" y2="834.583"/><text fill="#000000" font-family="sans-serif" font-size="20" lengthAdjust="spacing" textLength="42" x="1196" y="857.9189">date</text><text fill="#000000" font-family="sans-serif" font-size="20" lengthAdjust="spacing" textLength="82" x="1196" y="881.4736">property</text></g><!--class Location--><g id="elem_Location"><rect codeLine="104" fill="#F1F1F1" height="135.7734" id="Location" rx="2.5" ry="2.5" style="stroke:#181818;stroke-width:0.5;" width="94" x="1712" y="218.1483"/><text fill="#000000" font-family="sans-serif" font-size="20" lengthAdjust="spacing" textLength="81" x="1718.5" y="242.4842">Location</text><line style="stroke:#181818;stroke-width:0.5;" x1="1713" x2="1805" y1="251.703" y2="251.703"/><text fill="#000000" font-family="sans-serif" font-size="20" lengthAdjust="spacing" textLength="54" x="1718" y="275.0389">street</text><text fill="#000000" font-family="sans-serif" font-size="20" lengthAdjust="spacing" textLength="33" x="1718" y="298.5936">city</text><text fill="#000000" font-family="sans-serif" font-size="20" lengthAdjust="spacing" textLength="46" x="1718" y="322.1483">state</text><text fill="#000000" font-family="sans-serif" font-size="20" lengthAdjust="spacing" textLength="82" x="1718" y="345.703">zip code</text></g><!--class Owner--><g id="elem_Owner"><rect codeLine="111" fill="#F1F1F1" height="88.6641" id="Owner" rx="2.5" ry="2.5" style="stroke:#181818;stroke-width:0.5;" width="104" x="853" y="241.7083"/><text fill="#000000" font-family="sans-serif" font-size="20" lengthAdjust="spacing" textLength="62" x="874" y="266.0442">Owner</text><line style="stroke:#181818;stroke-width:0.5;" x1="854" x2="956" y1="275.263" y2="275.263"/><text fill="#000000" font-family="sans-serif" font-size="20" lengthAdjust="spacing" textLength="82" x="859" y="298.5989">id/email</text><text fill="#000000" font-family="sans-serif" font-size="20" lengthAdjust="spacing" textLength="92" x="859" y="322.1536">password</text></g><!--class AgencyManager--><g id="elem_AgencyManager"><rect fill="#F1F1F1" height="41.5547" id="AgencyManager" rx="2.5" ry="2.5" style="stroke:#181818;stroke-width:0.5;" width="157" x="254.5" y="521.3683"/><text fill="#000000" font-family="sans-serif" font-size="20" lengthAdjust="spacing" textLength="151" x="257.5" y="545.7042">AgencyManager</text><line style="stroke:#181818;stroke-width:0.5;" x1="255.5" x2="410.5" y1="554.923" y2="554.923"/></g><!--class AgencyNetworkManager--><g id="elem_AgencyNetworkManager"><rect fill="#F1F1F1" height="41.5547" id="AgencyNetworkManager" rx="2.5" ry="2.5" style="stroke:#181818;stroke-width:0.5;" width="237" x="446.5" y="521.3683"/><text fill="#000000" font-family="sans-serif" font-size="20" lengthAdjust="spacing" textLength="231" x="449.5" y="545.7042">AgencyNetworkManager</text><line style="stroke:#181818;stroke-width:0.5;" x1="447.5" x2="682.5" y1="554.923" y2="554.923"/></g><!--link Agent to Request--><g id="link_Agent_Request"><path codeLine="120" d="M957.38,576.1583 C1010.11,610.8283 1092.13,668.7883 1153,730.3583 C1174,751.6083 1193.99,778.3583 1209.19,800.6183 " fill="none" id="Agent-Request" style="stroke:#181818;stroke-width:1.0;"/><polygon fill="#000000" points="1129.9719,693.4589,1122.2976,680.3189,1116.0397,687.3392,1129.9719,693.4589" style="stroke:#000000;stroke-width:1.0;"/><text fill="#000000" font-family="sans-serif" font-size="20" lengthAdjust="spacing" textLength="94" x="1137" y="695.6942">receives a</text><text fill="#000000" font-family="sans-serif" font-size="20" lengthAdjust="spacing" textLength="35" x="965.0231" y="574.9875">1..*</text><text fill="#000000" font-family="sans-serif" font-size="20" lengthAdjust="spacing" textLength="35" x="1167.5351" y="788.7344">1..*</text></g><!--link Agent to AgentRequestList--><g id="link_Agent_AgentRequestList"><path codeLine="121" d="M855.26,586.5983 C806.56,630.4583 737.73,696.4183 724,730.3583 C685.68,825.1283 676.5,869.8383 724,960.3583 C753.33,1016.2483 813.59,1055.6183 863.63,1080.2483 " fill="none" id="Agent-AgentRequestList" style="stroke:#181818;stroke-width:1.0;"/><polygon fill="#000000" points="732.1356,853.6345,736.5919,839.0847,727.1887,839.2441,732.1356,853.6345" style="stroke:#000000;stroke-width:1.0;"/><text fill="#000000" font-family="sans-serif" font-size="20" lengthAdjust="spacing" textLength="212" x="745" y="853.1942">selects a request from</text><text fill="#000000" font-family="sans-serif" font-size="20" lengthAdjust="spacing" textLength="35" x="810.8044" y="613.8423">1..*</text><text fill="#000000" font-family="sans-serif" font-size="20" lengthAdjust="spacing" textLength="13" x="836.2422" y="1069.2607">1</text></g><!--link Property to Announcement--><g id="link_Property_Announcement"><path codeLine="122" d="M1674.56,634.0583 C1650.62,663.2383 1626.15,696.7383 1608,730.3583 C1556.99,824.8483 1597.76,873.9483 1534,960.3583 C1502.19,1003.4583 1454.39,1038.7883 1411.75,1064.4883 " fill="none" id="Property-Announcement" style="stroke:#181818;stroke-width:1.0;"/><polygon fill="#000000" points="1611.8311,852.4635,1623.3861,842.5622,1615.3594,837.6613,1611.8311,852.4635" style="stroke:#000000;stroke-width:1.0;"/><text fill="#000000" font-family="sans-serif" font-size="20" lengthAdjust="spacing" textLength="126" x="1629" y="853.1942">is needed for</text><text fill="#000000" font-family="sans-serif" font-size="20" lengthAdjust="spacing" textLength="13" x="1654.8816" y="661.0094">1</text><text fill="#000000" font-family="sans-serif" font-size="20" lengthAdjust="spacing" textLength="35" x="1419.6426" y="1056.6069">1..*</text></g><!--link Property to Request--><g id="link_Property_Request"><path codeLine="123" d="M1608.63,583.1083 C1519.23,612.6183 1407.87,660.0183 1327,730.3583 C1303.5,750.7983 1281.73,778.0483 1265.49,800.7783 " fill="none" id="Property-Request" style="stroke:#181818;stroke-width:1.0;"/><polygon fill="#000000" points="1400.2445,692.4209,1414.9841,688.6395,1409.9464,680.698,1400.2445,692.4209" style="stroke:#000000;stroke-width:1.0;"/><text fill="#000000" font-family="sans-serif" font-size="20" lengthAdjust="spacing" textLength="126" x="1420" y="695.6942">is needed for</text><text fill="#000000" font-family="sans-serif" font-size="20" lengthAdjust="spacing" textLength="13" x="1588.0316" y="580.885">1</text><text fill="#000000" font-family="sans-serif" font-size="20" lengthAdjust="spacing" textLength="13" x="1255.7198" y="788.9179">1</text></g><!--link Request to AgentRequestList--><g id="link_Request_AgentRequestList"><path codeLine="124" d="M1213.04,890.1183 C1198.32,913.6083 1177.59,941.5183 1153,960.3583 C1123.84,982.6883 1107.15,970.8883 1076,990.3583 C1035.93,1015.3983 997.05,1053.4883 972,1080.4083 " fill="none" id="Request-AgentRequestList" style="stroke:#181818;stroke-width:1.0;"/><polygon fill="#000000" points="1077.7209,1008.0927,1091.9936,1002.816,1086.1662,995.4345,1077.7209,1008.0927" style="stroke:#000000;stroke-width:1.0;"/><text fill="#000000" font-family="sans-serif" font-size="20" lengthAdjust="spacing" textLength="126" x="1097" y="1010.6942">is needed for</text><text fill="#000000" font-family="sans-serif" font-size="20" lengthAdjust="spacing" textLength="35" x="1172.4688" y="917.0512">1..*</text><text fill="#000000" font-family="sans-serif" font-size="20" lengthAdjust="spacing" textLength="13" x="963.0984" y="1068.3458">1</text></g><!--link Request to Announcement--><g id="link_Request_Announcement"><path codeLine="125" d="M1229.85,890.1083 C1225.92,925.0683 1224.42,974.7583 1239,1015.3583 C1242.69,1025.6183 1247.95,1035.5983 1254.03,1045.0183 " fill="none" id="Request-Announcement" style="stroke:#181818;stroke-width:1.0;"/><polygon fill="#000000" points="1248.2338,1011.0399,1250.6479,996.0157,1241.3558,997.4661,1248.2338,1011.0399" style="stroke:#000000;stroke-width:1.0;"/><text fill="#000000" font-family="sans-serif" font-size="20" lengthAdjust="spacing" textLength="105" x="1260" y="1010.6942">converts to</text><text fill="#000000" font-family="sans-serif" font-size="20" lengthAdjust="spacing" textLength="35" x="1231.2408" y="917.0398">1..*</text><text fill="#000000" font-family="sans-serif" font-size="20" lengthAdjust="spacing" textLength="35" x="1210.7315" y="1033.161">1..*</text></g><!--link Location to Property--><g id="link_Location_Property"><path codeLine="126" d="M1759,354.1383 C1759,383.5383 1759,418.5083 1759,450.2083 " fill="none" id="Location-Property" style="stroke:#181818;stroke-width:1.0;"/><polygon fill="#000000" points="1767,404.7056,1771.7023,390.2335,1762.2977,390.2335,1767,404.7056" style="stroke:#000000;stroke-width:1.0;"/><text fill="#000000" font-family="sans-serif" font-size="20" lengthAdjust="spacing" textLength="126" x="1780" y="404.2642">is needed for</text><text fill="#000000" font-family="sans-serif" font-size="20" lengthAdjust="spacing" textLength="13" x="1745.3602" y="381.3375">1</text><text fill="#000000" font-family="sans-serif" font-size="20" lengthAdjust="spacing" textLength="13" x="1745.482" y="438.3241">1</text></g><!--link Agent to Announcement--><g id="link_Agent_Announcement"><path codeLine="128" d="M918.83,586.8883 C930.68,624.7383 948,681.0083 962,730.3583 C997.75,856.3683 947.96,919.2983 1037,1015.3583 C1084.73,1066.8483 1161.17,1090.9783 1222.13,1102.2783 " fill="none" id="Agent-Announcement" style="stroke:#181818;stroke-width:1.0;"/><polygon fill="#000000" points="1010.0574,852.5303,1006.7701,837.6728,998.6648,842.4426,1010.0574,852.5303" style="stroke:#000000;stroke-width:1.0;"/><text fill="#000000" font-family="sans-serif" font-size="20" lengthAdjust="spacing" textLength="122" x="1019" y="853.1942">publishes an</text><text fill="#000000" font-family="sans-serif" font-size="20" lengthAdjust="spacing" textLength="13" x="906.815" y="613.8198">1</text><text fill="#000000" font-family="sans-serif" font-size="20" lengthAdjust="spacing" textLength="35" x="1179.5801" y="1097.1234">1..*</text></g><!--link Agent to Announcement--><g id="link_Agent_Announcement"><path codeLine="130" d="M957.22,549.7383 C1046.65,564.1783 1226.76,607.7783 1302,730.3583 C1370.12,841.3483 1402.25,889.1883 1370,1015.3583 C1367.46,1025.2883 1363.67,1035.3083 1359.25,1044.9383 " fill="none" id="Agent-Announcement-1" style="stroke:#181818;stroke-width:1.0;"/><polygon fill="#000000" points="1395.0423,851.8465,1389.5713,837.6471,1382.27,843.5747,1395.0423,851.8465" style="stroke:#000000;stroke-width:1.0;"/><text fill="#000000" font-family="sans-serif" font-size="20" lengthAdjust="spacing" textLength="122" x="1403" y="853.1942">publishes an</text><text fill="#000000" font-family="sans-serif" font-size="20" lengthAdjust="spacing" textLength="13" x="965.1105" y="545.5872">1</text><text fill="#000000" font-family="sans-serif" font-size="20" lengthAdjust="spacing" textLength="35" x="1326.8023" y="1033.0728">1..*</text></g><!--link Agent to Agency--><g id="link_Agent_Agency"><path codeLine="131" d="M852.75,570.8483 C811.88,592.1483 753.39,621.8083 701,645.3583 C668.26,660.0883 655.2,654.4683 626,675.3583 C595.98,696.8483 568.17,725.8183 545.11,753.7083 " fill="none" id="Agent-Agency" style="stroke:#181818;stroke-width:1.0;"/><polygon fill="#000000" points="627.1231,692.2232,641.9661,688.8708,637.1609,680.7866,627.1231,692.2232" style="stroke:#000000;stroke-width:1.0;"/><text fill="#000000" font-family="sans-serif" font-size="20" lengthAdjust="spacing" textLength="90" x="647" y="695.6942">works for</text><text fill="#000000" font-family="sans-serif" font-size="20" lengthAdjust="spacing" textLength="35" x="810.1211" y="569.0967">1..*</text><text fill="#000000" font-family="sans-serif" font-size="20" lengthAdjust="spacing" textLength="35" x="513.8242" y="741.8464">1..*</text></g><!--link SystemAdministrator to Employee--><g id="link_SystemAdministrator_Employee"><path codeLine="132" d="M411.8,330.6583 C407.56,356.9483 397.88,389.0683 376,408.9283 C329.19,451.3883 293.88,411.3783 237,438.9283 C231.1,441.7783 225.24,444.9783 219.46,448.4183 " fill="none" id="SystemAdministrator-Employee" style="stroke:#181818;stroke-width:1.0;"/><polygon fill="#000000" points="396.1772,400.8829,410.9751,397.3365,406.0644,389.3158,396.1772,400.8829" style="stroke:#000000;stroke-width:1.0;"/><text fill="#000000" font-family="sans-serif" font-size="20" lengthAdjust="spacing" textLength="112" x="416" y="404.2642">registers an</text><text fill="#000000" font-family="sans-serif" font-size="20" lengthAdjust="spacing" textLength="13" x="397.4966" y="357.5723">1</text><text fill="#000000" font-family="sans-serif" font-size="20" lengthAdjust="spacing" textLength="10" x="226.9487" y="437.7028">*</text></g><!--link SystemAdministrator to Employee--><g id="link_SystemAdministrator_Employee"><path codeLine="134" d="M311.34,325.9083 C243.49,351.5383 166.85,380.9183 164,383.9283 C149.5,399.2383 139.12,418.7183 131.69,438.7183 " fill="none" id="SystemAdministrator-Employee-1" style="stroke:#181818;stroke-width:1.0;"/><polygon fill="#000000" points="165.225,400.9599,179.9817,397.2461,174.9805,389.2816,165.225,400.9599" style="stroke:#000000;stroke-width:1.0;"/><text fill="#000000" font-family="sans-serif" font-size="20" lengthAdjust="spacing" textLength="182" x="185" y="404.2642">defines the role for</text><text fill="#000000" font-family="sans-serif" font-size="20" lengthAdjust="spacing" textLength="13" x="290.5944" y="324.2583">1</text><text fill="#000000" font-family="sans-serif" font-size="20" lengthAdjust="spacing" textLength="10" x="122.6954" y="426.6345">*</text></g><!--link Owner to Property--><g id="link_Owner_Property"><path codeLine="135" d="M957.46,302.6483 C1084.83,340.5483 1414.27,438.5683 1608.86,496.4683 " fill="none" id="Owner-Property" style="stroke:#181818;stroke-width:1.0;"/><polygon fill="#000000" points="1321.6678,398.9871,1309.1377,390.3528,1306.4556,399.3669,1321.6678,398.9871" style="stroke:#000000;stroke-width:1.0;"/><text fill="#000000" font-family="sans-serif" font-size="20" lengthAdjust="spacing" textLength="66" x="1327" y="404.2642">owns a</text><text fill="#000000" font-family="sans-serif" font-size="20" lengthAdjust="spacing" textLength="13" x="965.0143" y="299.6742">1</text><text fill="#000000" font-family="sans-serif" font-size="20" lengthAdjust="spacing" textLength="35" x="1565.7399" y="490.0484">1..*</text></g><!--link Property to House--><g id="link_Property_House"><path codeLine="136" d="M1909.45,572.5683 C2046.71,602.4383 2253.26,655.0283 2422,730.3583 C2427.83,732.9683 2433.69,735.7283 2439.54,738.6283 " fill="none" id="Property-House" style="stroke:#181818;stroke-width:1.0;"/><polygon fill="#000000" points="2350.6342,690.5272,2338.2295,681.7136,2335.4181,690.6881,2350.6342,690.5272" style="stroke:#000000;stroke-width:1.0;"/><text fill="#000000" font-family="sans-serif" font-size="20" lengthAdjust="spacing" textLength="80" x="2356" y="695.6942">can be a</text><text fill="#000000" font-family="sans-serif" font-size="20" lengthAdjust="spacing" textLength="13" x="1917.0523" y="569.8345">1</text><text fill="#000000" font-family="sans-serif" font-size="20" lengthAdjust="spacing" textLength="13" x="2418.884" y="729.6197">1</text></g><!--link Property to Apartment--><g id="link_Property_Apartment"><path codeLine="137" d="M1909.49,623.8883 C1967.26,655.8883 2033.36,693.7283 2092,730.3583 C2109.57,741.3383 2127.89,753.3683 2145.65,765.3783 " fill="none" id="Property-Apartment" style="stroke:#181818;stroke-width:1.0;"/><polygon fill="#000000" points="2052.8626,692.2472,2042.8648,680.7756,2038.0313,688.843,2052.8626,692.2472" style="stroke:#000000;stroke-width:1.0;"/><text fill="#000000" font-family="sans-serif" font-size="20" lengthAdjust="spacing" textLength="80" x="2059" y="695.6942">can be a</text><text fill="#000000" font-family="sans-serif" font-size="20" lengthAdjust="spacing" textLength="13" x="1917.0942" y="623.6403">1</text><text fill="#000000" font-family="sans-serif" font-size="20" lengthAdjust="spacing" textLength="13" x="2122.154" y="753.5911">1</text></g><!--link Property to Land--><g id="link_Property_Land"><path codeLine="138" d="M1808.73,633.9283 C1829.46,671.7783 1853.49,715.6483 1874.23,753.4983 " fill="none" id="Property-Land" style="stroke:#181818;stroke-width:1.0;"/><polygon fill="#000000" points="1852.8435,695.1519,1850.0146,680.2002,1841.7665,684.7185,1852.8435,695.1519" style="stroke:#000000;stroke-width:1.0;"/><text fill="#000000" font-family="sans-serif" font-size="20" lengthAdjust="spacing" textLength="80" x="1862" y="695.6942">can be a</text><text fill="#000000" font-family="sans-serif" font-size="20" lengthAdjust="spacing" textLength="13" x="1798.9047" y="660.8698">1</text><text fill="#000000" font-family="sans-serif" font-size="20" lengthAdjust="spacing" textLength="13" x="1856.746" y="741.6197">1</text></g><!--link UnregisteredUser to Agent--><g id="link_UnregisteredUser_Agent"><path codeLine="139" d="M639.81,133.5383 C652.17,188.1183 678.19,282.9383 722,353.9283 C757.09,410.7883 812.22,464.0783 852.81,499.1483 " fill="none" id="UnregisteredUser-Agent" style="stroke:#181818;stroke-width:1.0;"/><polygon fill="#000000" points="734.0271,293.2281,730.805,278.3562,722.6789,283.0904,734.0271,293.2281" style="stroke:#000000;stroke-width:1.0;"/><text fill="#000000" font-family="sans-serif" font-size="20" lengthAdjust="spacing" textLength="92" x="743" y="293.8742">can be an</text><text fill="#000000" font-family="sans-serif" font-size="20" lengthAdjust="spacing" textLength="35" x="603.6423" y="160.4658">1..*</text><text fill="#000000" font-family="sans-serif" font-size="20" lengthAdjust="spacing" textLength="35" x="810.1877" y="489.5545">1..*</text></g><!--link UnregisteredUser to Owner--><g id="link_UnregisteredUser_Owner"><path codeLine="140" d="M692.49,133.6283 C740.77,168.0283 807.25,215.3883 852.93,247.9383 " fill="none" id="UnregisteredUser-Owner" style="stroke:#181818;stroke-width:1.0;"/><polygon fill="#000000" points="782.5154,180.5677,773.4575,168.3404,768.0003,175.9998,782.5154,180.5677" style="stroke:#000000;stroke-width:1.0;"/><text fill="#000000" font-family="sans-serif" font-size="20" lengthAdjust="spacing" textLength="92" x="789" y="183.4842">can be an</text><text fill="#000000" font-family="sans-serif" font-size="20" lengthAdjust="spacing" textLength="35" x="663.4012" y="160.5679">1..*</text><text fill="#000000" font-family="sans-serif" font-size="20" lengthAdjust="spacing" textLength="35" x="809.886" y="238.5711">1::*</text></g><!--link UnregisteredUser to Employee--><g id="link_UnregisteredUser_Employee"><path codeLine="141" d="M544.97,103.8283 C428.8,124.4383 230.48,166.1783 180,218.1483 C123.94,275.8683 109.23,367.5183 107.37,438.4783 " fill="none" id="UnregisteredUser-Employee" style="stroke:#181818;stroke-width:1.0;"/><polygon fill="#000000" points="181.6452,291.1754,195.9976,286.1193,190.2846,278.6488,181.6452,291.1754" style="stroke:#000000;stroke-width:1.0;"/><text fill="#000000" font-family="sans-serif" font-size="20" lengthAdjust="spacing" textLength="92" x="201" y="293.8742">can be an</text><text fill="#000000" font-family="sans-serif" font-size="20" lengthAdjust="spacing" textLength="35" x="502.0435" y="100.454">1..*</text><text fill="#000000" font-family="sans-serif" font-size="20" lengthAdjust="spacing" textLength="35" x="70.7437" y="426.7359">1..*</text></g><!--link UnregisteredUser to SystemAdministrator--><g id="link_UnregisteredUser_SystemAdministrator"><path codeLine="142" d="M565.17,133.6383 C552.47,142.9283 539.54,153.0083 528,163.1483 C500.69,187.1483 472.89,217.0583 451.7,241.2383 " fill="none" id="UnregisteredUser-SystemAdministrator" style="stroke:#181818;stroke-width:1.0;"/><polygon fill="#000000" points="530.195,181.4303,543.9319,174.8843,537.4608,168.0601,530.195,181.4303" style="stroke:#000000;stroke-width:1.0;"/><text fill="#000000" font-family="sans-serif" font-size="20" lengthAdjust="spacing" textLength="80" x="549" y="183.4842">can be a</text><text fill="#000000" font-family="sans-serif" font-size="20" lengthAdjust="spacing" textLength="35" x="518.9725" y="160.5792">1..*</text><text fill="#000000" font-family="sans-serif" font-size="20" lengthAdjust="spacing" textLength="35" x="419.52" y="229.3456">1..*</text></g><!--link Owner to Agent--><g id="link_Owner_Agent"><path codeLine="147" d="M905,330.7183 C905,377.4083 905,450.9783 905,497.6083 " fill="none" id="Owner-Agent" style="stroke:#181818;stroke-width:1.0;"/><polygon fill="#000000" points="913,404.7056,917.7023,390.2335,908.2977,390.2335,913,404.7056" style="stroke:#000000;stroke-width:1.0;"/><text fill="#000000" font-family="sans-serif" font-size="20" lengthAdjust="spacing" textLength="94" x="926" y="404.2642">selects an</text><text fill="#000000" font-family="sans-serif" font-size="20" lengthAdjust="spacing" textLength="13" x="891.1266" y="357.6404">1</text><text fill="#000000" font-family="sans-serif" font-size="20" lengthAdjust="spacing" textLength="35" x="867.4297" y="485.7552">1..*</text></g><!--link AgencyManager to Agency--><g id="link_AgencyManager_Agency"><path codeLine="149" d="M332.59,563.2583 C332.71,594.1783 335.94,654.5883 357,700.3583 C368.17,724.6383 384.68,747.9683 402.04,768.5183 " fill="none" id="AgencyManager-Agency" style="stroke:#181818;stroke-width:1.0;"/><polygon fill="#000000" points="367.564,695.7136,367.3799,680.4978,358.4714,683.512,367.564,695.7136" style="stroke:#000000;stroke-width:1.0;"/><text fill="#000000" font-family="sans-serif" font-size="20" lengthAdjust="spacing" textLength="86" x="378" y="695.6942">manages</text><text fill="#000000" font-family="sans-serif" font-size="20" lengthAdjust="spacing" textLength="13" x="317.9921" y="590.2">1</text><text fill="#000000" font-family="sans-serif" font-size="20" lengthAdjust="spacing" textLength="13" x="381.4287" y="757.011">1</text></g><!--link AgencyNetworkManager to Agency--><g id="link_AgencyNetworkManager_Agency"><path codeLine="150" d="M546.3,563.1583 C524.97,587.5083 491.32,630.8783 478,675.3583 C470.59,700.0983 468.63,727.7983 469.25,753.4983 " fill="none" id="AgencyNetworkManager-Agency" style="stroke:#181818;stroke-width:1.0;"/><polygon fill="#000000" points="482.9982,695.5511,492.7872,683.9008,484.0698,680.372,482.9982,695.5511" style="stroke:#000000;stroke-width:1.0;"/><text fill="#000000" font-family="sans-serif" font-size="20" lengthAdjust="spacing" textLength="86" x="499" y="695.6942">manages</text><text fill="#000000" font-family="sans-serif" font-size="20" lengthAdjust="spacing" textLength="13" x="527.4725" y="590.0769">1</text><text fill="#000000" font-family="sans-serif" font-size="20" lengthAdjust="spacing" textLength="35" x="431.9191" y="741.6197">1..*</text></g><!--SRC=[hLLBRzGm4BxxLrYzL49gAHptW5G949NAGwtW6ddjsSIgCmwsmpQi-E_C977sbPO5aTF4_cRccvSdFbXiL52ry_e1Z3ImKgrBxpscU_iJvEih4JD4rXwzheAlGQRGmivDe_I3Ak4-TGva09qKbcuN42jb_DfYALVAHH3dsojd4LBNWFGXLLwSErWbcRmCjgoID9RDMOyxnhHJCLwd5EooJN2ZFVPShqHb3KXjWoRVlLm3cJHHY6GJCNlhQsLHVlG6d12YjoFVrOtp7S16eAf1Q9l861PQ1LDWMoyXYAGUiwYC2H2Z0BBaYln759BIYKu7MtUU6FmQ7LoNW6aZh7dPAuc63jS-60ACYFik9gYlJMtHnXHKyk5P_Ar2in6SDA42A475KtsE3Aahr52ig4f5gg2WSBf24u408i3t5iYJAPfWDOYcyibJSdvDkM2gkjk86oCCH5lYO7Qopu8hQeLKxC3w23an0zU9ubSCK18R262-HdWgdX7z9VW6GkhaHaZw-iXOwADZOMB0Fyz7oOZ3IFbiZ9R5YUKrec_9Kasgesz6ZcpoFtc4g8Dj9WRvOwA5NnNQrpR6Wzlfy9joBOmtMzVKowdkEuFFXooohIMOu7qT3uzLgkREoGmDHbb4ca4OBk6H4yy9OcgS5IfQ1PH0B8y1oWRYZyPoT8oOA7xmROJ_Gq_-WPuydTunWfp7leGpTrXOhDJI9hLqK3Y_cW755WjuR7ni0-mqvJ2uTqChtH9-aoT8JBCztcw4KOa6AZVEriZjsBWRGOCDaFXzwKXc-4_RK9COs6RyyngV7XNwUaRoxDNbvOipUN6HfP65NF3R2_O7HAcaV3C3FpiAQY4ZE7fYMMKCJ_9SaVeqbQGtETiTcOMqKIA0eSsnya7EwPoDlcQmcVPWU40Vqpj5xPWOjSmFuX5vav1EBiD0Y_Cm4Jtqy6QRvjqSxpqL2zcqIsTZnPd6VrDvefR34qnmglj371dDB8Z95-da5TOtmF3gPbwdQzBgfqrC2QjeXTF-6bttBNaGs4xk_1gvS_OBdtkjVq0893MHMSAJkEajF07Bk-y0ThXhvfEwPnp_fBPOa3J4_ZTglRIJrB_KdAlMVgpypPKaHpWDCyhSbhhxE2pilPJdDXkMUHmRKdUV877d7QdiD-TMYxxV]--></g></svg>