<?xml version="1.0" encoding="us-ascii" standalone="no"?><svg xmlns="http://www.w3.org/2000/svg" xmlns:xlink="http://www.w3.org/1999/xlink" contentStyleType="text/css" height="896px" preserveAspectRatio="none" style="width:1428px;height:895px;background:#FFFFFF;" version="1.1" viewBox="0 0 1428 895" width="1428.7px" zoomAndPan="magnify"><defs/><g><!--class Employee--><g id="elem_Employee"><rect codeLine="14" fill="#F1F1F1" height="99.2906" id="Employee" rx="1.75" ry="1.75" style="stroke:#181818;stroke-width:0.3499999999999999;" width="223.3" x="1200.85" y="105.35"/><ellipse cx="1287.825" cy="116.55" fill="#ADD1B2" rx="7.7" ry="7.7" style="stroke:#181818;stroke-width:0.6999999999999998;"/><path d="M1289.7609,113.6625 Q1289.8703,113.5094 1290.0016,113.4328 Q1290.1328,113.3562 1290.2859,113.3562 Q1290.5484,113.3562 1290.7125,113.5422 Q1290.8766,113.7172 1290.8766,114.1437 L1290.8766,115.1609 Q1290.8766,115.5875 1290.7125,115.7734 Q1290.5484,115.9594 1290.2859,115.9594 Q1290.0453,115.9594 1289.9031,115.8172 Q1289.7609,115.6859 1289.6844,115.325 Q1289.6516,115.0734 1289.5203,114.9422 Q1289.2906,114.6797 1288.8641,114.5266 Q1288.4375,114.3734 1288,114.3734 Q1287.4641,114.3734 1287.0156,114.6031 Q1286.5781,114.8328 1286.2281,115.3578 Q1285.8891,115.8828 1285.8891,116.6047 L1285.8891,117.3703 Q1285.8891,118.2344 1286.5125,118.8141 Q1287.1359,119.3828 1288.2516,119.3828 Q1288.9078,119.3828 1289.3672,119.2078 Q1289.6406,119.0984 1289.9359,118.7922 Q1290.1219,118.6062 1290.2203,118.5516 Q1290.3297,118.4969 1290.4719,118.4969 Q1290.7016,118.4969 1290.8766,118.6828 Q1291.0625,118.8578 1291.0625,119.0984 Q1291.0625,119.3391 1290.8219,119.6234 Q1290.4719,120.0281 1289.9141,120.2578 Q1289.1594,120.575 1288.2516,120.575 Q1287.1906,120.575 1286.3484,120.1375 Q1285.6594,119.7875 1285.1781,119.0437 Q1284.6969,118.2891 1284.6969,117.3922 L1284.6969,116.5828 Q1284.6969,115.6531 1285.1234,114.8547 Q1285.5609,114.0453 1286.3266,113.6187 Q1287.0922,113.1812 1287.9562,113.1812 Q1288.4703,113.1812 1288.9187,113.3016 Q1289.3781,113.4109 1289.7609,113.6625 Z " fill="#000000"/><text fill="#000000" font-family="sans-serif" font-size="9.8" lengthAdjust="spacing" textLength="43.4" x="1302.175" y="119.9475">Employee</text><line style="stroke:#181818;stroke-width:0.3499999999999999;" x1="1201.55" x2="1423.45" y1="127.75" y2="127.75"/><text fill="#000000" font-family="sans-serif" font-size="9.8" lengthAdjust="spacing" textLength="56.7" x="1205.05" y="139.4217">-String name</text><text fill="#000000" font-family="sans-serif" font-size="9.8" lengthAdjust="spacing" textLength="55.3" x="1205.05" y="150.3701">-String email</text><text fill="#000000" font-family="sans-serif" font-size="9.8" lengthAdjust="spacing" textLength="79.1" x="1205.05" y="161.3186">-int phoneNumber</text><text fill="#000000" font-family="sans-serif" font-size="9.8" lengthAdjust="spacing" textLength="24.5" x="1205.05" y="172.267">-int id</text><text fill="#000000" font-family="sans-serif" font-size="9.8" lengthAdjust="spacing" textLength="67.9" x="1205.05" y="183.2154">-String address</text><line style="stroke:#181818;stroke-width:0.3499999999999999;" x1="1201.55" x2="1423.45" y1="188.0922" y2="188.0922"/><text fill="#000000" font-family="sans-serif" font-size="9.8" lengthAdjust="spacing" textLength="214.9" x="1205.05" y="199.7639">+getAddress(street, zip_code, state, district, city)</text></g><!--class Request--><g id="elem_Request"><rect codeLine="24" fill="#F1F1F1" height="143.0844" id="Request" rx="1.75" ry="1.75" style="stroke:#181818;stroke-width:0.3499999999999999;" width="466.9" x="767.55" y="268.8"/><ellipse cx="979.475" cy="280" fill="#ADD1B2" rx="7.7" ry="7.7" style="stroke:#181818;stroke-width:0.6999999999999998;"/><path d="M981.4109,277.1125 Q981.5203,276.9594 981.6516,276.8828 Q981.7828,276.8062 981.9359,276.8062 Q982.1984,276.8062 982.3625,276.9922 Q982.5266,277.1672 982.5266,277.5937 L982.5266,278.6109 Q982.5266,279.0375 982.3625,279.2234 Q982.1984,279.4094 981.9359,279.4094 Q981.6953,279.4094 981.5531,279.2672 Q981.4109,279.1359 981.3344,278.775 Q981.3016,278.5234 981.1703,278.3922 Q980.9406,278.1297 980.5141,277.9766 Q980.0875,277.8234 979.65,277.8234 Q979.1141,277.8234 978.6656,278.0531 Q978.2281,278.2828 977.8781,278.8078 Q977.5391,279.3328 977.5391,280.0547 L977.5391,280.8203 Q977.5391,281.6844 978.1625,282.2641 Q978.7859,282.8328 979.9016,282.8328 Q980.5578,282.8328 981.0172,282.6578 Q981.2906,282.5484 981.5859,282.2422 Q981.7719,282.0562 981.8703,282.0016 Q981.9797,281.9469 982.1219,281.9469 Q982.3516,281.9469 982.5266,282.1328 Q982.7125,282.3078 982.7125,282.5484 Q982.7125,282.7891 982.4719,283.0734 Q982.1219,283.4781 981.5641,283.7078 Q980.8094,284.025 979.9016,284.025 Q978.8406,284.025 977.9984,283.5875 Q977.3094,283.2375 976.8281,282.4937 Q976.3469,281.7391 976.3469,280.8422 L976.3469,280.0328 Q976.3469,279.1031 976.7734,278.3047 Q977.2109,277.4953 977.9766,277.0687 Q978.7422,276.6312 979.6062,276.6312 Q980.1203,276.6312 980.5687,276.7516 Q981.0281,276.8609 981.4109,277.1125 Z " fill="#000000"/><text fill="#000000" font-family="sans-serif" font-size="9.8" lengthAdjust="spacing" textLength="37.1" x="993.825" y="283.3975">Request</text><line style="stroke:#181818;stroke-width:0.3499999999999999;" x1="768.25" x2="1233.75" y1="291.2" y2="291.2"/><text fill="#000000" font-family="sans-serif" font-size="9.8" lengthAdjust="spacing" textLength="58.8" x="771.75" y="302.8717">-String status</text><text fill="#000000" font-family="sans-serif" font-size="9.8" lengthAdjust="spacing" textLength="77.7" x="771.75" y="313.8201">-String beginDate</text><text fill="#000000" font-family="sans-serif" font-size="9.8" lengthAdjust="spacing" textLength="70" x="771.75" y="324.7686">-String endDate</text><line style="stroke:#181818;stroke-width:0.3499999999999999;" x1="768.25" x2="1233.75" y1="329.6453" y2="329.6453"/><text fill="#000000" font-family="sans-serif" font-size="9.8" lengthAdjust="spacing" textLength="112.7" x="771.75" y="341.317">+Request(agency, agent)</text><text fill="#000000" font-family="sans-serif" font-size="9.8" lengthAdjust="spacing" textLength="268.8" x="771.75" y="352.2654">+createProperty(area, location, distanceFromTheCityCentre)</text><text fill="#000000" font-family="sans-serif" font-size="9.8" lengthAdjust="spacing" textLength="275.8" x="771.75" y="363.2139">+createApartment(area, location, distanceFromTheCityCentre,</text><text fill="#000000" font-family="sans-serif" font-size="9.8" lengthAdjust="spacing" textLength="403.2" x="771.75" y="374.1623">numberOfBedrooms, numberOfBathrooms, numberOfParkingSpaces, avaliableEquipement)</text><text fill="#000000" font-family="sans-serif" font-size="9.8" lengthAdjust="spacing" textLength="450.1" x="771.75" y="385.1107">+createHouse(area, location, distanceFromTheCityCentre, numberOfBedrooms, numberOfBathrooms,</text><text fill="#000000" font-family="sans-serif" font-size="9.8" lengthAdjust="spacing" textLength="458.5" x="771.75" y="396.0592">numberOfParkingSpaces, avaliableEquipement, existenceOfABasement, inhabitableLoft, sunExpousere)</text><text fill="#000000" font-family="sans-serif" font-size="9.8" lengthAdjust="spacing" textLength="317.1" x="771.75" y="407.0076">+createOwner(name, email, phoneNumber, createPassport(taxNumber))</text></g><!--class Agency--><g id="elem_Agency"><rect codeLine="37" fill="#F1F1F1" height="175.9297" id="Agency" rx="1.75" ry="1.75" style="stroke:#181818;stroke-width:0.3499999999999999;" width="319.9" x="824.25" y="715.4"/><ellipse cx="964.775" cy="726.6" fill="#ADD1B2" rx="7.7" ry="7.7" style="stroke:#181818;stroke-width:0.6999999999999998;"/><path d="M966.7109,723.7125 Q966.8203,723.5594 966.9516,723.4828 Q967.0828,723.4062 967.2359,723.4062 Q967.4984,723.4062 967.6625,723.5922 Q967.8266,723.7672 967.8266,724.1937 L967.8266,725.2109 Q967.8266,725.6375 967.6625,725.8234 Q967.4984,726.0094 967.2359,726.0094 Q966.9953,726.0094 966.8531,725.8672 Q966.7109,725.7359 966.6344,725.375 Q966.6016,725.1234 966.4703,724.9922 Q966.2406,724.7297 965.8141,724.5766 Q965.3875,724.4234 964.95,724.4234 Q964.4141,724.4234 963.9656,724.6531 Q963.5281,724.8828 963.1781,725.4078 Q962.8391,725.9328 962.8391,726.6547 L962.8391,727.4203 Q962.8391,728.2844 963.4625,728.8641 Q964.0859,729.4328 965.2016,729.4328 Q965.8578,729.4328 966.3172,729.2578 Q966.5906,729.1484 966.8859,728.8422 Q967.0719,728.6562 967.1703,728.6016 Q967.2797,728.5469 967.4219,728.5469 Q967.6516,728.5469 967.8266,728.7328 Q968.0125,728.9078 968.0125,729.1484 Q968.0125,729.3891 967.7719,729.6734 Q967.4219,730.0781 966.8641,730.3078 Q966.1094,730.625 965.2016,730.625 Q964.1406,730.625 963.2984,730.1875 Q962.6094,729.8375 962.1281,729.0937 Q961.6469,728.3391 961.6469,727.4422 L961.6469,726.6328 Q961.6469,725.7031 962.0734,724.9047 Q962.5109,724.0953 963.2766,723.6687 Q964.0422,723.2312 964.9062,723.2312 Q965.4203,723.2312 965.8687,723.3516 Q966.3281,723.4609 966.7109,723.7125 Z " fill="#000000"/><text fill="#000000" font-family="sans-serif" font-size="9.8" lengthAdjust="spacing" textLength="32.9" x="979.125" y="729.9975">Agency</text><line style="stroke:#181818;stroke-width:0.3499999999999999;" x1="824.95" x2="1143.45" y1="737.8" y2="737.8"/><text fill="#000000" font-family="sans-serif" font-size="9.8" lengthAdjust="spacing" textLength="56.7" x="828.45" y="749.4717">-String name</text><text fill="#000000" font-family="sans-serif" font-size="9.8" lengthAdjust="spacing" textLength="79.8" x="828.45" y="760.4201">-String vatNumber</text><text fill="#000000" font-family="sans-serif" font-size="9.8" lengthAdjust="spacing" textLength="65.1" x="828.45" y="771.3686">-String website</text><text fill="#000000" font-family="sans-serif" font-size="9.8" lengthAdjust="spacing" textLength="60.2" x="828.45" y="782.317">-String phone</text><text fill="#000000" font-family="sans-serif" font-size="9.8" lengthAdjust="spacing" textLength="55.3" x="828.45" y="793.2654">-String email</text><text fill="#000000" font-family="sans-serif" font-size="9.8" lengthAdjust="spacing" textLength="67.9" x="828.45" y="804.2139">-String address</text><text fill="#000000" font-family="sans-serif" font-size="9.8" lengthAdjust="spacing" textLength="71.4" x="828.45" y="815.1623">-String manager</text><line style="stroke:#181818;stroke-width:0.3499999999999999;" x1="824.95" x2="1143.45" y1="820.0391" y2="820.0391"/><text fill="#000000" font-family="sans-serif" font-size="9.8" lengthAdjust="spacing" textLength="226.8" x="828.45" y="831.7107">-addAnnouncementrequest(announcementrequest)</text><text fill="#000000" font-family="sans-serif" font-size="9.8" lengthAdjust="spacing" textLength="244.3" x="828.45" y="842.6592">-validateAnnouncementrequest(announcementrequest)</text><text fill="#000000" font-family="sans-serif" font-size="9.8" lengthAdjust="spacing" textLength="135.8" x="828.45" y="853.6076">+anyEmployeeHasEmail(email)</text><text fill="#000000" font-family="sans-serif" font-size="9.8" lengthAdjust="spacing" textLength="214.9" x="828.45" y="864.5561">+getAddress(street, zip_code, state, district, city)</text><text fill="#000000" font-family="sans-serif" font-size="9.8" lengthAdjust="spacing" textLength="311.5" x="828.45" y="875.5045">+Agency(name, vatNumber, webSite, phone, email, address, manager)</text><text fill="#000000" font-family="sans-serif" font-size="9.8" lengthAdjust="spacing" textLength="126" x="828.45" y="886.4529">-getEmployeeByEmail(email)</text></g><!--class locationsRepository--><g id="elem_locationsRepository"><rect codeLine="56" fill="#F1F1F1" height="44.5484" id="locationsRepository" rx="1.75" ry="1.75" style="stroke:#181818;stroke-width:0.3499999999999999;" width="109.2" x="230.3" y="464.8"/><ellipse cx="240.8" cy="476" fill="#ADD1B2" rx="7.7" ry="7.7" style="stroke:#181818;stroke-width:0.6999999999999998;"/><path d="M242.7359,473.1125 Q242.8453,472.9594 242.9766,472.8828 Q243.1078,472.8062 243.2609,472.8062 Q243.5234,472.8062 243.6875,472.9922 Q243.8516,473.1672 243.8516,473.5937 L243.8516,474.6109 Q243.8516,475.0375 243.6875,475.2234 Q243.5234,475.4094 243.2609,475.4094 Q243.0203,475.4094 242.8781,475.2672 Q242.7359,475.1359 242.6594,474.775 Q242.6266,474.5234 242.4953,474.3922 Q242.2656,474.1297 241.8391,473.9766 Q241.4125,473.8234 240.975,473.8234 Q240.4391,473.8234 239.9906,474.0531 Q239.5531,474.2828 239.2031,474.8078 Q238.8641,475.3328 238.8641,476.0547 L238.8641,476.8203 Q238.8641,477.6844 239.4875,478.2641 Q240.1109,478.8328 241.2266,478.8328 Q241.8828,478.8328 242.3422,478.6578 Q242.6156,478.5484 242.9109,478.2422 Q243.0969,478.0562 243.1953,478.0016 Q243.3047,477.9469 243.4469,477.9469 Q243.6766,477.9469 243.8516,478.1328 Q244.0375,478.3078 244.0375,478.5484 Q244.0375,478.7891 243.7969,479.0734 Q243.4469,479.4781 242.8891,479.7078 Q242.1344,480.025 241.2266,480.025 Q240.1656,480.025 239.3234,479.5875 Q238.6344,479.2375 238.1531,478.4937 Q237.6719,477.7391 237.6719,476.8422 L237.6719,476.0328 Q237.6719,475.1031 238.0984,474.3047 Q238.5359,473.4953 239.3016,473.0687 Q240.0672,472.6312 240.9312,472.6312 Q241.4453,472.6312 241.8937,472.7516 Q242.3531,472.8609 242.7359,473.1125 Z " fill="#000000"/><text fill="#000000" font-family="sans-serif" font-size="9.8" lengthAdjust="spacing" textLength="86.8" x="250.6" y="479.3975">locationsRepository</text><line style="stroke:#181818;stroke-width:0.3499999999999999;" x1="231" x2="338.8" y1="487.2" y2="487.2"/><line style="stroke:#181818;stroke-width:0.3499999999999999;" x1="231" x2="338.8" y1="492.8" y2="492.8"/><text fill="#000000" font-family="sans-serif" font-size="9.8" lengthAdjust="spacing" textLength="98.7" x="234.5" y="504.4717">+getLocation(location)</text></g><!--class AgencyRepository--><g id="elem_AgencyRepository"><rect codeLine="60" fill="#F1F1F1" height="44.5484" id="AgencyRepository" rx="1.75" ry="1.75" style="stroke:#181818;stroke-width:0.3499999999999999;" width="192.5" x="742.35" y="590.1"/><ellipse cx="795.375" cy="601.3" fill="#ADD1B2" rx="7.7" ry="7.7" style="stroke:#181818;stroke-width:0.6999999999999998;"/><path d="M797.3109,598.4125 Q797.4203,598.2594 797.5516,598.1828 Q797.6828,598.1062 797.8359,598.1062 Q798.0984,598.1062 798.2625,598.2922 Q798.4266,598.4672 798.4266,598.8937 L798.4266,599.9109 Q798.4266,600.3375 798.2625,600.5234 Q798.0984,600.7094 797.8359,600.7094 Q797.5953,600.7094 797.4531,600.5672 Q797.3109,600.4359 797.2344,600.075 Q797.2016,599.8234 797.0703,599.6922 Q796.8406,599.4297 796.4141,599.2766 Q795.9875,599.1234 795.55,599.1234 Q795.0141,599.1234 794.5656,599.3531 Q794.1281,599.5828 793.7781,600.1078 Q793.4391,600.6328 793.4391,601.3547 L793.4391,602.1203 Q793.4391,602.9844 794.0625,603.5641 Q794.6859,604.1328 795.8016,604.1328 Q796.4578,604.1328 796.9172,603.9578 Q797.1906,603.8484 797.4859,603.5422 Q797.6719,603.3562 797.7703,603.3016 Q797.8797,603.2469 798.0219,603.2469 Q798.2516,603.2469 798.4266,603.4328 Q798.6125,603.6078 798.6125,603.8484 Q798.6125,604.0891 798.3719,604.3734 Q798.0219,604.7781 797.4641,605.0078 Q796.7094,605.325 795.8016,605.325 Q794.7406,605.325 793.8984,604.8875 Q793.2094,604.5375 792.7281,603.7937 Q792.2469,603.0391 792.2469,602.1422 L792.2469,601.3328 Q792.2469,600.4031 792.6734,599.6047 Q793.1109,598.7953 793.8766,598.3687 Q794.6422,597.9312 795.5062,597.9312 Q796.0203,597.9312 796.4687,598.0516 Q796.9281,598.1609 797.3109,598.4125 Z " fill="#000000"/><text fill="#000000" font-family="sans-serif" font-size="9.8" lengthAdjust="spacing" textLength="80.5" x="809.725" y="604.6975">AgencyRepository</text><line style="stroke:#181818;stroke-width:0.3499999999999999;" x1="743.05" x2="934.15" y1="612.5" y2="612.5"/><line style="stroke:#181818;stroke-width:0.3499999999999999;" x1="743.05" x2="934.15" y1="618.1" y2="618.1"/><text fill="#000000" font-family="sans-serif" font-size="9.8" lengthAdjust="spacing" textLength="184.1" x="746.55" y="629.7717">+getOrganizationByEmployeeEmail(email)</text></g><!--class Repositories--><g id="elem_Repositories"><rect codeLine="64" fill="#F1F1F1" height="88.3422" id="Repositories" rx="1.75" ry="1.75" style="stroke:#181818;stroke-width:0.3499999999999999;" width="142.8" x="494.9" y="296.1"/><ellipse cx="535.675" cy="307.3" fill="#ADD1B2" rx="7.7" ry="7.7" style="stroke:#181818;stroke-width:0.6999999999999998;"/><path d="M537.6109,304.4125 Q537.7203,304.2594 537.8516,304.1828 Q537.9828,304.1062 538.1359,304.1062 Q538.3984,304.1062 538.5625,304.2922 Q538.7266,304.4672 538.7266,304.8937 L538.7266,305.9109 Q538.7266,306.3375 538.5625,306.5234 Q538.3984,306.7094 538.1359,306.7094 Q537.8953,306.7094 537.7531,306.5672 Q537.6109,306.4359 537.5344,306.075 Q537.5016,305.8234 537.3703,305.6922 Q537.1406,305.4297 536.7141,305.2766 Q536.2875,305.1234 535.85,305.1234 Q535.3141,305.1234 534.8656,305.3531 Q534.4281,305.5828 534.0781,306.1078 Q533.7391,306.6328 533.7391,307.3547 L533.7391,308.1203 Q533.7391,308.9844 534.3625,309.5641 Q534.9859,310.1328 536.1016,310.1328 Q536.7578,310.1328 537.2172,309.9578 Q537.4906,309.8484 537.7859,309.5422 Q537.9719,309.3562 538.0703,309.3016 Q538.1797,309.2469 538.3219,309.2469 Q538.5516,309.2469 538.7266,309.4328 Q538.9125,309.6078 538.9125,309.8484 Q538.9125,310.0891 538.6719,310.3734 Q538.3219,310.7781 537.7641,311.0078 Q537.0094,311.325 536.1016,311.325 Q535.0406,311.325 534.1984,310.8875 Q533.5094,310.5375 533.0281,309.7937 Q532.5469,309.0391 532.5469,308.1422 L532.5469,307.3328 Q532.5469,306.4031 532.9734,305.6047 Q533.4109,304.7953 534.1766,304.3687 Q534.9422,303.9312 535.8062,303.9312 Q536.3203,303.9312 536.7687,304.0516 Q537.2281,304.1609 537.6109,304.4125 Z " fill="#000000"/><text fill="#000000" font-family="sans-serif" font-size="9.8" lengthAdjust="spacing" textLength="55.3" x="550.025" y="310.6975">Repositories</text><line style="stroke:#181818;stroke-width:0.3499999999999999;" x1="495.6" x2="637" y1="318.5" y2="318.5"/><line style="stroke:#181818;stroke-width:0.3499999999999999;" x1="495.6" x2="637" y1="324.1" y2="324.1"/><text fill="#000000" font-family="sans-serif" font-size="9.8" lengthAdjust="spacing" textLength="65.8" x="499.1" y="335.7717">-Repositories()</text><text fill="#000000" font-family="sans-serif" font-size="9.8" lengthAdjust="spacing" textLength="127.4" x="499.1" y="346.7201">+getInstance() : Repositories</text><text fill="#000000" font-family="sans-serif" font-size="9.8" lengthAdjust="spacing" textLength="134.4" x="499.1" y="357.6686">+getPropertyTypeRepository()</text><text fill="#000000" font-family="sans-serif" font-size="9.8" lengthAdjust="spacing" textLength="107.1" x="499.1" y="368.617">+getAgencyRepository()</text><text fill="#000000" font-family="sans-serif" font-size="9.8" lengthAdjust="spacing" textLength="112" x="499.1" y="379.5654">+getLocationRepository()</text></g><!--class CreateRequestController--><g id="elem_CreateRequestController"><rect codeLine="165" fill="#F1F1F1" height="121.1875" id="CreateRequestController" rx="1.75" ry="1.75" style="stroke:#181818;stroke-width:0.3499999999999999;" width="431.2" x="514.5" y="94.5"/><ellipse cx="671.825" cy="105.7" fill="#ADD1B2" rx="7.7" ry="7.7" style="stroke:#181818;stroke-width:0.6999999999999998;"/><path d="M673.7609,102.8125 Q673.8703,102.6594 674.0016,102.5828 Q674.1328,102.5062 674.2859,102.5062 Q674.5484,102.5062 674.7125,102.6922 Q674.8766,102.8672 674.8766,103.2937 L674.8766,104.3109 Q674.8766,104.7375 674.7125,104.9234 Q674.5484,105.1094 674.2859,105.1094 Q674.0453,105.1094 673.9031,104.9672 Q673.7609,104.8359 673.6844,104.475 Q673.6516,104.2234 673.5203,104.0922 Q673.2906,103.8297 672.8641,103.6766 Q672.4375,103.5234 672,103.5234 Q671.4641,103.5234 671.0156,103.7531 Q670.5781,103.9828 670.2281,104.5078 Q669.8891,105.0328 669.8891,105.7547 L669.8891,106.5203 Q669.8891,107.3844 670.5125,107.9641 Q671.1359,108.5328 672.2516,108.5328 Q672.9078,108.5328 673.3672,108.3578 Q673.6406,108.2484 673.9359,107.9422 Q674.1219,107.7562 674.2203,107.7016 Q674.3297,107.6469 674.4719,107.6469 Q674.7016,107.6469 674.8766,107.8328 Q675.0625,108.0078 675.0625,108.2484 Q675.0625,108.4891 674.8219,108.7734 Q674.4719,109.1781 673.9141,109.4078 Q673.1594,109.725 672.2516,109.725 Q671.1906,109.725 670.3484,109.2875 Q669.6594,108.9375 669.1781,108.1937 Q668.6969,107.4391 668.6969,106.5422 L668.6969,105.7328 Q668.6969,104.8031 669.1234,104.0047 Q669.5609,103.1953 670.3266,102.7687 Q671.0922,102.3312 671.9562,102.3312 Q672.4703,102.3312 672.9187,102.4516 Q673.3781,102.5609 673.7609,102.8125 Z " fill="#000000"/><text fill="#000000" font-family="sans-serif" font-size="9.8" lengthAdjust="spacing" textLength="110.6" x="686.175" y="109.0975">CreateRequestController</text><line style="stroke:#181818;stroke-width:0.3499999999999999;" x1="515.2" x2="945" y1="116.9" y2="116.9"/><line style="stroke:#181818;stroke-width:0.3499999999999999;" x1="515.2" x2="945" y1="122.5" y2="122.5"/><text fill="#000000" font-family="sans-serif" font-size="9.8" lengthAdjust="spacing" textLength="415.8" x="518.7" y="134.1717">+CreateRequestController(agencyRepository, locationsRepository, typeOfPropertyRepository)</text><text fill="#000000" font-family="sans-serif" font-size="9.8" lengthAdjust="spacing" textLength="307.3" x="518.7" y="145.1201">+createRequest(status, beginDate, endDate, the area in m2, location,</text><text fill="#000000" font-family="sans-serif" font-size="9.8" lengthAdjust="spacing" textLength="237.3" x="518.7" y="156.0686">distance from the city centre and one or more photos)</text><text fill="#000000" font-family="sans-serif" font-size="9.8" lengthAdjust="spacing" textLength="84" x="518.7" y="167.017">+CreateSale(price)</text><text fill="#000000" font-family="sans-serif" font-size="9.8" lengthAdjust="spacing" textLength="198.1" x="518.7" y="177.9654">+CreateRent(mountlyRent, contractDuration)</text><text fill="#000000" font-family="sans-serif" font-size="9.8" lengthAdjust="spacing" textLength="162.4" x="518.7" y="188.9139">-getTypeOfProperty(typeOfProperty)</text><text fill="#000000" font-family="sans-serif" font-size="9.8" lengthAdjust="spacing" textLength="126" x="518.7" y="199.8623">-getEmployeeFromSession()</text><text fill="#000000" font-family="sans-serif" font-size="9.8" lengthAdjust="spacing" textLength="422.8" x="518.7" y="210.8107">+createRequestController(requestTypeRepository, porpertyTypeRepository, agencyRepository)</text></g><g id="elem_GMN9"><path d="M662.2,4.2 L662.2,51.8656 A0,0 0 0 0 662.2,51.8656 L727.3,51.8656 L730.1,94.269 L732.9,51.8656 L798,51.8656 A0,0 0 0 0 798,51.8656 L798,11.2 L791,4.2 L662.2,4.2 A0,0 0 0 0 662.2,4.2 " fill="#FEFFDD" style="stroke:#181818;stroke-width:0.3499999999999999;"/><path d="M791,4.2 L791,11.2 L798,11.2 L791,4.2 " fill="#FEFFDD" style="stroke:#181818;stroke-width:0.3499999999999999;"/><text fill="#000000" font-family="sans-serif" font-size="9.1" lengthAdjust="spacing" textLength="93.1" x="666.4" y="15.938">- userEmail is obtained</text><text fill="#000000" font-family="sans-serif" font-size="9.1" lengthAdjust="spacing" textLength="87.5" x="666.4" y="26.1044">from the user session</text><text fill="#000000" font-family="sans-serif" font-size="9.1" lengthAdjust="spacing" textLength="86.1" x="666.4" y="36.2708">- categoryDescription</text><text fill="#000000" font-family="sans-serif" font-size="9.1" lengthAdjust="spacing" textLength="121.1" x="666.4" y="46.4372">is retrieved from selected data</text></g><g id="elem_GMN12"><path d="M217.35,326.55 L217.35,353.8828 A0,0 0 0 0 217.35,353.8828 L276.367,353.8828 L283.948,464.569 L281.967,353.8828 L339.85,353.8828 A0,0 0 0 0 339.85,353.8828 L339.85,333.55 L332.85,326.55 L217.35,326.55 A0,0 0 0 0 217.35,326.55 " fill="#FEFFDD" style="stroke:#181818;stroke-width:0.3499999999999999;"/><path d="M332.85,326.55 L332.85,333.55 L339.85,333.55 L332.85,326.55 " fill="#FEFFDD" style="stroke:#181818;stroke-width:0.3499999999999999;"/><text fill="#000000" font-family="sans-serif" font-size="9.1" lengthAdjust="spacing" textLength="81.2" x="221.55" y="338.288">- used for displaying</text><text fill="#000000" font-family="sans-serif" font-size="9.1" lengthAdjust="spacing" textLength="107.8" x="221.55" y="348.4544">the location of the property</text></g><!--class Owner--><g id="elem_Owner"><rect codeLine="93" fill="#F1F1F1" height="77.3937" id="Owner" rx="1.75" ry="1.75" style="stroke:#181818;stroke-width:0.3499999999999999;" width="207.2" x="1021.3" y="573.65"/><ellipse cx="1107.575" cy="584.85" fill="#ADD1B2" rx="7.7" ry="7.7" style="stroke:#181818;stroke-width:0.6999999999999998;"/><path d="M1109.5109,581.9625 Q1109.6203,581.8094 1109.7516,581.7328 Q1109.8828,581.6562 1110.0359,581.6562 Q1110.2984,581.6562 1110.4625,581.8422 Q1110.6266,582.0172 1110.6266,582.4437 L1110.6266,583.4609 Q1110.6266,583.8875 1110.4625,584.0734 Q1110.2984,584.2594 1110.0359,584.2594 Q1109.7953,584.2594 1109.6531,584.1172 Q1109.5109,583.9859 1109.4344,583.625 Q1109.4016,583.3734 1109.2703,583.2422 Q1109.0406,582.9797 1108.6141,582.8266 Q1108.1875,582.6734 1107.75,582.6734 Q1107.2141,582.6734 1106.7656,582.9031 Q1106.3281,583.1328 1105.9781,583.6578 Q1105.6391,584.1828 1105.6391,584.9047 L1105.6391,585.6703 Q1105.6391,586.5344 1106.2625,587.1141 Q1106.8859,587.6828 1108.0016,587.6828 Q1108.6578,587.6828 1109.1172,587.5078 Q1109.3906,587.3984 1109.6859,587.0922 Q1109.8719,586.9062 1109.9703,586.8516 Q1110.0797,586.7969 1110.2219,586.7969 Q1110.4516,586.7969 1110.6266,586.9828 Q1110.8125,587.1578 1110.8125,587.3984 Q1110.8125,587.6391 1110.5719,587.9234 Q1110.2219,588.3281 1109.6641,588.5578 Q1108.9094,588.875 1108.0016,588.875 Q1106.9406,588.875 1106.0984,588.4375 Q1105.4094,588.0875 1104.9281,587.3437 Q1104.4469,586.5891 1104.4469,585.6922 L1104.4469,584.8828 Q1104.4469,583.9531 1104.8734,583.1547 Q1105.3109,582.3453 1106.0766,581.9187 Q1106.8422,581.4812 1107.7062,581.4812 Q1108.2203,581.4812 1108.6687,581.6016 Q1109.1281,581.7109 1109.5109,581.9625 Z " fill="#000000"/><text fill="#000000" font-family="sans-serif" font-size="9.8" lengthAdjust="spacing" textLength="28.7" x="1121.925" y="588.2475">Owner</text><line style="stroke:#181818;stroke-width:0.3499999999999999;" x1="1022" x2="1227.8" y1="596.05" y2="596.05"/><text fill="#000000" font-family="sans-serif" font-size="9.8" lengthAdjust="spacing" textLength="56.7" x="1025.5" y="607.7217">-String name</text><text fill="#000000" font-family="sans-serif" font-size="9.8" lengthAdjust="spacing" textLength="55.3" x="1025.5" y="618.6701">-String email</text><text fill="#000000" font-family="sans-serif" font-size="9.8" lengthAdjust="spacing" textLength="79.1" x="1025.5" y="629.6186">-int phoneNumber</text><line style="stroke:#181818;stroke-width:0.3499999999999999;" x1="1022" x2="1227.8" y1="634.4953" y2="634.4953"/><text fill="#000000" font-family="sans-serif" font-size="9.8" lengthAdjust="spacing" textLength="198.8" x="1025.5" y="646.167">+createRequest(status, beginDate, endDate)</text></g><!--class Property--><g id="elem_Property"><rect codeLine="101" fill="#F1F1F1" height="99.2906" id="Property" rx="1.75" ry="1.75" style="stroke:#181818;stroke-width:0.3499999999999999;" width="263.2" x="153.3" y="562.8"/><ellipse cx="263.025" cy="574" fill="#ADD1B2" rx="7.7" ry="7.7" style="stroke:#181818;stroke-width:0.6999999999999998;"/><path d="M264.9609,571.1125 Q265.0703,570.9594 265.2016,570.8828 Q265.3328,570.8062 265.4859,570.8062 Q265.7484,570.8062 265.9125,570.9922 Q266.0766,571.1672 266.0766,571.5937 L266.0766,572.6109 Q266.0766,573.0375 265.9125,573.2234 Q265.7484,573.4094 265.4859,573.4094 Q265.2453,573.4094 265.1031,573.2672 Q264.9609,573.1359 264.8844,572.775 Q264.8516,572.5234 264.7203,572.3922 Q264.4906,572.1297 264.0641,571.9766 Q263.6375,571.8234 263.2,571.8234 Q262.6641,571.8234 262.2156,572.0531 Q261.7781,572.2828 261.4281,572.8078 Q261.0891,573.3328 261.0891,574.0547 L261.0891,574.8203 Q261.0891,575.6844 261.7125,576.2641 Q262.3359,576.8328 263.4516,576.8328 Q264.1078,576.8328 264.5672,576.6578 Q264.8406,576.5484 265.1359,576.2422 Q265.3219,576.0562 265.4203,576.0016 Q265.5297,575.9469 265.6719,575.9469 Q265.9016,575.9469 266.0766,576.1328 Q266.2625,576.3078 266.2625,576.5484 Q266.2625,576.7891 266.0219,577.0734 Q265.6719,577.4781 265.1141,577.7078 Q264.3594,578.025 263.4516,578.025 Q262.3906,578.025 261.5484,577.5875 Q260.8594,577.2375 260.3781,576.4937 Q259.8969,575.7391 259.8969,574.8422 L259.8969,574.0328 Q259.8969,573.1031 260.3234,572.3047 Q260.7609,571.4953 261.5266,571.0687 Q262.2922,570.6312 263.1562,570.6312 Q263.6703,570.6312 264.1187,570.7516 Q264.5781,570.8609 264.9609,571.1125 Z " fill="#000000"/><text fill="#000000" font-family="sans-serif" font-size="9.8" lengthAdjust="spacing" textLength="37.8" x="277.375" y="577.3975">Property</text><line style="stroke:#181818;stroke-width:0.3499999999999999;" x1="154" x2="415.8" y1="585.2" y2="585.2"/><text fill="#000000" font-family="sans-serif" font-size="9.8" lengthAdjust="spacing" textLength="37.1" x="157.5" y="596.8717">-int area</text><text fill="#000000" font-family="sans-serif" font-size="9.8" lengthAdjust="spacing" textLength="66.5" x="157.5" y="607.8201">-String location</text><text fill="#000000" font-family="sans-serif" font-size="9.8" lengthAdjust="spacing" textLength="156.8" x="157.5" y="618.7686">-String distanceFromTheCityCentre</text><line style="stroke:#181818;stroke-width:0.3499999999999999;" x1="154" x2="415.8" y1="623.6453" y2="623.6453"/><text fill="#000000" font-family="sans-serif" font-size="9.8" lengthAdjust="spacing" textLength="254.8" x="157.5" y="635.317">+createAddress(streetm zip_code, state, district(opt), city)</text><text fill="#000000" font-family="sans-serif" font-size="9.8" lengthAdjust="spacing" textLength="66.5" x="157.5" y="646.2654">+addPhoto(url)</text><text fill="#000000" font-family="sans-serif" font-size="9.8" lengthAdjust="spacing" textLength="126.7" x="157.5" y="657.2139">+addPhotoList(photography)</text></g><!--class Sale--><g id="elem_Sale"><rect codeLine="111" fill="#F1F1F1" height="44.5484" id="Sale" rx="1.75" ry="1.75" style="stroke:#181818;stroke-width:0.3499999999999999;" width="55.3" x="364.35" y="464.8"/><ellipse cx="380.835" cy="476" fill="#ADD1B2" rx="7.7" ry="7.7" style="stroke:#181818;stroke-width:0.6999999999999998;"/><path d="M382.7709,473.1125 Q382.8803,472.9594 383.0116,472.8828 Q383.1428,472.8062 383.2959,472.8062 Q383.5584,472.8062 383.7225,472.9922 Q383.8866,473.1672 383.8866,473.5937 L383.8866,474.6109 Q383.8866,475.0375 383.7225,475.2234 Q383.5584,475.4094 383.2959,475.4094 Q383.0553,475.4094 382.9131,475.2672 Q382.7709,475.1359 382.6944,474.775 Q382.6616,474.5234 382.5303,474.3922 Q382.3006,474.1297 381.8741,473.9766 Q381.4475,473.8234 381.01,473.8234 Q380.4741,473.8234 380.0256,474.0531 Q379.5881,474.2828 379.2381,474.8078 Q378.8991,475.3328 378.8991,476.0547 L378.8991,476.8203 Q378.8991,477.6844 379.5225,478.2641 Q380.1459,478.8328 381.2616,478.8328 Q381.9178,478.8328 382.3772,478.6578 Q382.6506,478.5484 382.9459,478.2422 Q383.1319,478.0562 383.2303,478.0016 Q383.3397,477.9469 383.4819,477.9469 Q383.7116,477.9469 383.8866,478.1328 Q384.0725,478.3078 384.0725,478.5484 Q384.0725,478.7891 383.8319,479.0734 Q383.4819,479.4781 382.9241,479.7078 Q382.1694,480.025 381.2616,480.025 Q380.2006,480.025 379.3584,479.5875 Q378.6694,479.2375 378.1881,478.4937 Q377.7069,477.7391 377.7069,476.8422 L377.7069,476.0328 Q377.7069,475.1031 378.1334,474.3047 Q378.5709,473.4953 379.3366,473.0687 Q380.1022,472.6312 380.9662,472.6312 Q381.4803,472.6312 381.9287,472.7516 Q382.3881,472.8609 382.7709,473.1125 Z " fill="#000000"/><text fill="#000000" font-family="sans-serif" font-size="9.8" lengthAdjust="spacing" textLength="19.6" x="391.965" y="479.3975">Sale</text><line style="stroke:#181818;stroke-width:0.3499999999999999;" x1="365.05" x2="418.95" y1="487.2" y2="487.2"/><text fill="#000000" font-family="sans-serif" font-size="9.8" lengthAdjust="spacing" textLength="46.9" x="368.55" y="498.8717">-float price</text><line style="stroke:#181818;stroke-width:0.3499999999999999;" x1="365.05" x2="418.95" y1="503.7484" y2="503.7484"/></g><!--class Rent--><g id="elem_Rent"><rect codeLine="115" fill="#F1F1F1" height="55.4969" id="Rent" rx="1.75" ry="1.75" style="stroke:#181818;stroke-width:0.3499999999999999;" width="98.7" x="29.75" y="584.85"/><ellipse cx="65.625" cy="596.05" fill="#ADD1B2" rx="7.7" ry="7.7" style="stroke:#181818;stroke-width:0.6999999999999998;"/><path d="M67.5609,593.1625 Q67.6703,593.0094 67.8016,592.9328 Q67.9328,592.8562 68.0859,592.8562 Q68.3484,592.8562 68.5125,593.0422 Q68.6766,593.2172 68.6766,593.6437 L68.6766,594.6609 Q68.6766,595.0875 68.5125,595.2734 Q68.3484,595.4594 68.0859,595.4594 Q67.8453,595.4594 67.7031,595.3172 Q67.5609,595.1859 67.4844,594.825 Q67.4516,594.5734 67.3203,594.4422 Q67.0906,594.1797 66.6641,594.0266 Q66.2375,593.8734 65.8,593.8734 Q65.2641,593.8734 64.8156,594.1031 Q64.3781,594.3328 64.0281,594.8578 Q63.6891,595.3828 63.6891,596.1047 L63.6891,596.8703 Q63.6891,597.7344 64.3125,598.3141 Q64.9359,598.8828 66.0516,598.8828 Q66.7078,598.8828 67.1672,598.7078 Q67.4406,598.5984 67.7359,598.2922 Q67.9219,598.1062 68.0203,598.0516 Q68.1297,597.9969 68.2719,597.9969 Q68.5016,597.9969 68.6766,598.1828 Q68.8625,598.3578 68.8625,598.5984 Q68.8625,598.8391 68.6219,599.1234 Q68.2719,599.5281 67.7141,599.7578 Q66.9594,600.075 66.0516,600.075 Q64.9906,600.075 64.1484,599.6375 Q63.4594,599.2875 62.9781,598.5437 Q62.4969,597.7891 62.4969,596.8922 L62.4969,596.0828 Q62.4969,595.1531 62.9234,594.3547 Q63.3609,593.5453 64.1266,593.1187 Q64.8922,592.6812 65.7562,592.6812 Q66.2703,592.6812 66.7187,592.8016 Q67.1781,592.9109 67.5609,593.1625 Z " fill="#000000"/><text fill="#000000" font-family="sans-serif" font-size="9.8" lengthAdjust="spacing" textLength="21" x="79.975" y="599.4475">Rent</text><line style="stroke:#181818;stroke-width:0.3499999999999999;" x1="30.45" x2="127.75" y1="607.25" y2="607.25"/><text fill="#000000" font-family="sans-serif" font-size="9.8" lengthAdjust="spacing" textLength="86.1" x="33.95" y="618.9217">-float mounthlyRent</text><text fill="#000000" font-family="sans-serif" font-size="9.8" lengthAdjust="spacing" textLength="90.3" x="33.95" y="629.8701">-int contractDuration</text><line style="stroke:#181818;stroke-width:0.3499999999999999;" x1="30.45" x2="127.75" y1="634.7469" y2="634.7469"/></g><!--class Apartment--><g id="elem_Apartment"><rect codeLine="120" fill="#F1F1F1" height="88.3422" id="Apartment" rx="1.75" ry="1.75" style="stroke:#181818;stroke-width:0.3499999999999999;" width="142.1" x="236.95" y="759.15"/><ellipse cx="282.275" cy="770.35" fill="#ADD1B2" rx="7.7" ry="7.7" style="stroke:#181818;stroke-width:0.6999999999999998;"/><path d="M284.2109,767.4625 Q284.3203,767.3094 284.4516,767.2328 Q284.5828,767.1562 284.7359,767.1562 Q284.9984,767.1562 285.1625,767.3422 Q285.3266,767.5172 285.3266,767.9437 L285.3266,768.9609 Q285.3266,769.3875 285.1625,769.5734 Q284.9984,769.7594 284.7359,769.7594 Q284.4953,769.7594 284.3531,769.6172 Q284.2109,769.4859 284.1344,769.125 Q284.1016,768.8734 283.9703,768.7422 Q283.7406,768.4797 283.3141,768.3266 Q282.8875,768.1734 282.45,768.1734 Q281.9141,768.1734 281.4656,768.4031 Q281.0281,768.6328 280.6781,769.1578 Q280.3391,769.6828 280.3391,770.4047 L280.3391,771.1703 Q280.3391,772.0344 280.9625,772.6141 Q281.5859,773.1828 282.7016,773.1828 Q283.3578,773.1828 283.8172,773.0078 Q284.0906,772.8984 284.3859,772.5922 Q284.5719,772.4062 284.6703,772.3516 Q284.7797,772.2969 284.9219,772.2969 Q285.1516,772.2969 285.3266,772.4828 Q285.5125,772.6578 285.5125,772.8984 Q285.5125,773.1391 285.2719,773.4234 Q284.9219,773.8281 284.3641,774.0578 Q283.6094,774.375 282.7016,774.375 Q281.6406,774.375 280.7984,773.9375 Q280.1094,773.5875 279.6281,772.8437 Q279.1469,772.0891 279.1469,771.1922 L279.1469,770.3828 Q279.1469,769.4531 279.5734,768.6547 Q280.0109,767.8453 280.7766,767.4187 Q281.5422,766.9812 282.4062,766.9812 Q282.9203,766.9812 283.3687,767.1016 Q283.8281,767.2109 284.2109,767.4625 Z " fill="#000000"/><text fill="#000000" font-family="sans-serif" font-size="9.8" lengthAdjust="spacing" textLength="45.5" x="296.625" y="773.7475">Apartment</text><line style="stroke:#181818;stroke-width:0.3499999999999999;" x1="237.65" x2="378.35" y1="781.55" y2="781.55"/><text fill="#000000" font-family="sans-serif" font-size="9.8" lengthAdjust="spacing" textLength="105.7" x="241.15" y="793.2217">-int numberOfBedrooms</text><text fill="#000000" font-family="sans-serif" font-size="9.8" lengthAdjust="spacing" textLength="108.5" x="241.15" y="804.1701">-int numberOfBathrooms</text><text fill="#000000" font-family="sans-serif" font-size="9.8" lengthAdjust="spacing" textLength="127.4" x="241.15" y="815.1186">-int numberOfParkingSpaces</text><text fill="#000000" font-family="sans-serif" font-size="9.8" lengthAdjust="spacing" textLength="133.7" x="241.15" y="826.067">-boolean avaliableEquipement</text><line style="stroke:#181818;stroke-width:0.3499999999999999;" x1="237.65" x2="378.35" y1="830.9437" y2="830.9437"/><text fill="#000000" font-family="sans-serif" font-size="9.8" lengthAdjust="spacing" textLength="119" x="241.15" y="842.6154">+getAvaliableEquipement()</text></g><!--class House--><g id="elem_House"><rect codeLine="129" fill="#F1F1F1" height="66.4453" id="House" rx="1.75" ry="1.75" style="stroke:#181818;stroke-width:0.3499999999999999;" width="152.6" x="403.9" y="770"/><ellipse cx="463.225" cy="781.2" fill="#ADD1B2" rx="7.7" ry="7.7" style="stroke:#181818;stroke-width:0.6999999999999998;"/><path d="M465.1609,778.3125 Q465.2703,778.1594 465.4016,778.0828 Q465.5328,778.0062 465.6859,778.0062 Q465.9484,778.0062 466.1125,778.1922 Q466.2766,778.3672 466.2766,778.7937 L466.2766,779.8109 Q466.2766,780.2375 466.1125,780.4234 Q465.9484,780.6094 465.6859,780.6094 Q465.4453,780.6094 465.3031,780.4672 Q465.1609,780.3359 465.0844,779.975 Q465.0516,779.7234 464.9203,779.5922 Q464.6906,779.3297 464.2641,779.1766 Q463.8375,779.0234 463.4,779.0234 Q462.8641,779.0234 462.4156,779.2531 Q461.9781,779.4828 461.6281,780.0078 Q461.2891,780.5328 461.2891,781.2547 L461.2891,782.0203 Q461.2891,782.8844 461.9125,783.4641 Q462.5359,784.0328 463.6516,784.0328 Q464.3078,784.0328 464.7672,783.8578 Q465.0406,783.7484 465.3359,783.4422 Q465.5219,783.2562 465.6203,783.2016 Q465.7297,783.1469 465.8719,783.1469 Q466.1016,783.1469 466.2766,783.3328 Q466.4625,783.5078 466.4625,783.7484 Q466.4625,783.9891 466.2219,784.2734 Q465.8719,784.6781 465.3141,784.9078 Q464.5594,785.225 463.6516,785.225 Q462.5906,785.225 461.7484,784.7875 Q461.0594,784.4375 460.5781,783.6937 Q460.0969,782.9391 460.0969,782.0422 L460.0969,781.2328 Q460.0969,780.3031 460.5234,779.5047 Q460.9609,778.6953 461.7266,778.2687 Q462.4922,777.8312 463.3562,777.8312 Q463.8703,777.8312 464.3187,777.9516 Q464.7781,778.0609 465.1609,778.3125 Z " fill="#000000"/><text fill="#000000" font-family="sans-serif" font-size="9.8" lengthAdjust="spacing" textLength="28" x="477.575" y="784.5975">House</text><line style="stroke:#181818;stroke-width:0.3499999999999999;" x1="404.6" x2="555.8" y1="792.4" y2="792.4"/><text fill="#000000" font-family="sans-serif" font-size="9.8" lengthAdjust="spacing" textLength="144.2" x="408.1" y="804.0717">-boolean existenceOfABasement</text><text fill="#000000" font-family="sans-serif" font-size="9.8" lengthAdjust="spacing" textLength="107.1" x="408.1" y="815.0201">-boolean inhabitableLoft</text><text fill="#000000" font-family="sans-serif" font-size="9.8" lengthAdjust="spacing" textLength="95.2" x="408.1" y="825.9686">-String sunExpousere</text><line style="stroke:#181818;stroke-width:0.3499999999999999;" x1="404.6" x2="555.8" y1="830.8453" y2="830.8453"/></g><!--class Address--><g id="elem_Address"><rect codeLine="135" fill="#F1F1F1" height="55.4969" id="Address" rx="1.75" ry="1.75" style="stroke:#181818;stroke-width:0.3499999999999999;" width="65.8" x="4.9" y="775.6"/><ellipse cx="18.55" cy="786.8" fill="#ADD1B2" rx="7.7" ry="7.7" style="stroke:#181818;stroke-width:0.6999999999999998;"/><path d="M20.4859,783.9125 Q20.5953,783.7594 20.7266,783.6828 Q20.8578,783.6062 21.0109,783.6062 Q21.2734,783.6062 21.4375,783.7922 Q21.6016,783.9672 21.6016,784.3937 L21.6016,785.4109 Q21.6016,785.8375 21.4375,786.0234 Q21.2734,786.2094 21.0109,786.2094 Q20.7703,786.2094 20.6281,786.0672 Q20.4859,785.9359 20.4094,785.575 Q20.3766,785.3234 20.2453,785.1922 Q20.0156,784.9297 19.5891,784.7766 Q19.1625,784.6234 18.725,784.6234 Q18.1891,784.6234 17.7406,784.8531 Q17.3031,785.0828 16.9531,785.6078 Q16.6141,786.1328 16.6141,786.8547 L16.6141,787.6203 Q16.6141,788.4844 17.2375,789.0641 Q17.8609,789.6328 18.9766,789.6328 Q19.6328,789.6328 20.0922,789.4578 Q20.3656,789.3484 20.6609,789.0422 Q20.8469,788.8562 20.9453,788.8016 Q21.0547,788.7469 21.1969,788.7469 Q21.4266,788.7469 21.6016,788.9328 Q21.7875,789.1078 21.7875,789.3484 Q21.7875,789.5891 21.5469,789.8734 Q21.1969,790.2781 20.6391,790.5078 Q19.8844,790.825 18.9766,790.825 Q17.9156,790.825 17.0734,790.3875 Q16.3844,790.0375 15.9031,789.2937 Q15.4219,788.5391 15.4219,787.6422 L15.4219,786.8328 Q15.4219,785.9031 15.8484,785.1047 Q16.2859,784.2953 17.0516,783.8687 Q17.8172,783.4312 18.6812,783.4312 Q19.1953,783.4312 19.6437,783.5516 Q20.1031,783.6609 20.4859,783.9125 Z " fill="#000000"/><text fill="#000000" font-family="sans-serif" font-size="9.8" lengthAdjust="spacing" textLength="36.4" x="29.05" y="790.1975">Address</text><line style="stroke:#181818;stroke-width:0.3499999999999999;" x1="5.6" x2="70" y1="798" y2="798"/><text fill="#000000" font-family="sans-serif" font-size="9.8" lengthAdjust="spacing" textLength="57.4" x="9.1" y="809.6717">-String street</text><text fill="#000000" font-family="sans-serif" font-size="9.8" lengthAdjust="spacing" textLength="56" x="9.1" y="820.6201">-int zip_code</text><line style="stroke:#181818;stroke-width:0.3499999999999999;" x1="5.6" x2="70" y1="825.4969" y2="825.4969"/></g><!--class PhotographyList--><g id="elem_PhotographyList"><rect codeLine="140" fill="#F1F1F1" height="44.5484" id="PhotographyList" rx="1.75" ry="1.75" style="stroke:#181818;stroke-width:0.3499999999999999;" width="96.6" x="466.2" y="590.1"/><ellipse cx="477.645" cy="601.3" fill="#ADD1B2" rx="7.7" ry="7.7" style="stroke:#181818;stroke-width:0.6999999999999998;"/><path d="M479.5809,598.4125 Q479.6903,598.2594 479.8216,598.1828 Q479.9528,598.1062 480.1059,598.1062 Q480.3684,598.1062 480.5325,598.2922 Q480.6966,598.4672 480.6966,598.8937 L480.6966,599.9109 Q480.6966,600.3375 480.5325,600.5234 Q480.3684,600.7094 480.1059,600.7094 Q479.8653,600.7094 479.7231,600.5672 Q479.5809,600.4359 479.5044,600.075 Q479.4716,599.8234 479.3403,599.6922 Q479.1106,599.4297 478.6841,599.2766 Q478.2575,599.1234 477.82,599.1234 Q477.2841,599.1234 476.8356,599.3531 Q476.3981,599.5828 476.0481,600.1078 Q475.7091,600.6328 475.7091,601.3547 L475.7091,602.1203 Q475.7091,602.9844 476.3325,603.5641 Q476.9559,604.1328 478.0716,604.1328 Q478.7278,604.1328 479.1872,603.9578 Q479.4606,603.8484 479.7559,603.5422 Q479.9419,603.3562 480.0403,603.3016 Q480.1497,603.2469 480.2919,603.2469 Q480.5216,603.2469 480.6966,603.4328 Q480.8825,603.6078 480.8825,603.8484 Q480.8825,604.0891 480.6419,604.3734 Q480.2919,604.7781 479.7341,605.0078 Q478.9794,605.325 478.0716,605.325 Q477.0106,605.325 476.1684,604.8875 Q475.4794,604.5375 474.9981,603.7937 Q474.5169,603.0391 474.5169,602.1422 L474.5169,601.3328 Q474.5169,600.4031 474.9434,599.6047 Q475.3809,598.7953 476.1466,598.3687 Q476.9122,597.9312 477.7762,597.9312 Q478.2903,597.9312 478.7387,598.0516 Q479.1981,598.1609 479.5809,598.4125 Z " fill="#000000"/><text fill="#000000" font-family="sans-serif" font-size="9.8" lengthAdjust="spacing" textLength="72.1" x="487.655" y="604.6975">PhotographyList</text><line style="stroke:#181818;stroke-width:0.3499999999999999;" x1="466.9" x2="562.1" y1="612.5" y2="612.5"/><text fill="#000000" font-family="sans-serif" font-size="9.8" lengthAdjust="spacing" textLength="88.2" x="470.4" y="624.1717">-String photography</text><line style="stroke:#181818;stroke-width:0.3499999999999999;" x1="466.9" x2="562.1" y1="629.0484" y2="629.0484"/></g><!--class TypeOfProperty--><g id="elem_TypeOfProperty"><rect codeLine="144" fill="#F1F1F1" height="44.5484" id="TypeOfProperty" rx="1.75" ry="1.75" style="stroke:#181818;stroke-width:0.3499999999999999;" width="107.8" x="585.9" y="780.85"/><ellipse cx="603.015" cy="792.05" fill="#ADD1B2" rx="7.7" ry="7.7" style="stroke:#181818;stroke-width:0.6999999999999998;"/><path d="M604.9509,789.1625 Q605.0603,789.0094 605.1916,788.9328 Q605.3228,788.8562 605.4759,788.8562 Q605.7384,788.8562 605.9025,789.0422 Q606.0666,789.2172 606.0666,789.6437 L606.0666,790.6609 Q606.0666,791.0875 605.9025,791.2734 Q605.7384,791.4594 605.4759,791.4594 Q605.2353,791.4594 605.0931,791.3172 Q604.9509,791.1859 604.8744,790.825 Q604.8416,790.5734 604.7103,790.4422 Q604.4806,790.1797 604.0541,790.0266 Q603.6275,789.8734 603.19,789.8734 Q602.6541,789.8734 602.2056,790.1031 Q601.7681,790.3328 601.4181,790.8578 Q601.0791,791.3828 601.0791,792.1047 L601.0791,792.8703 Q601.0791,793.7344 601.7025,794.3141 Q602.3259,794.8828 603.4416,794.8828 Q604.0978,794.8828 604.5572,794.7078 Q604.8306,794.5984 605.1259,794.2922 Q605.3119,794.1062 605.4103,794.0516 Q605.5197,793.9969 605.6619,793.9969 Q605.8916,793.9969 606.0666,794.1828 Q606.2525,794.3578 606.2525,794.5984 Q606.2525,794.8391 606.0119,795.1234 Q605.6619,795.5281 605.1041,795.7578 Q604.3494,796.075 603.4416,796.075 Q602.3806,796.075 601.5384,795.6375 Q600.8494,795.2875 600.3681,794.5437 Q599.8869,793.7891 599.8869,792.8922 L599.8869,792.0828 Q599.8869,791.1531 600.3134,790.3547 Q600.7509,789.5453 601.5166,789.1187 Q602.2822,788.6812 603.1462,788.6812 Q603.6603,788.6812 604.1087,788.8016 Q604.5681,788.9109 604.9509,789.1625 Z " fill="#000000"/><text fill="#000000" font-family="sans-serif" font-size="9.8" lengthAdjust="spacing" textLength="70.7" x="614.285" y="795.4475">TypeOfProperty</text><line style="stroke:#181818;stroke-width:0.3499999999999999;" x1="586.6" x2="693" y1="803.25" y2="803.25"/><text fill="#000000" font-family="sans-serif" font-size="9.8" lengthAdjust="spacing" textLength="99.4" x="590.1" y="814.9217">-String typeOfProperty</text><line style="stroke:#181818;stroke-width:0.3499999999999999;" x1="586.6" x2="693" y1="819.7984" y2="819.7984"/></g><!--class PropertyTypeRepository--><g id="elem_PropertyTypeRepository"><rect codeLine="148" fill="#F1F1F1" height="44.5484" id="PropertyTypeRepository" rx="1.75" ry="1.75" style="stroke:#181818;stroke-width:0.3499999999999999;" width="130.2" x="587.3" y="590.1"/><ellipse cx="597.8" cy="601.3" fill="#ADD1B2" rx="7.7" ry="7.7" style="stroke:#181818;stroke-width:0.6999999999999998;"/><path d="M599.7359,598.4125 Q599.8453,598.2594 599.9766,598.1828 Q600.1078,598.1062 600.2609,598.1062 Q600.5234,598.1062 600.6875,598.2922 Q600.8516,598.4672 600.8516,598.8937 L600.8516,599.9109 Q600.8516,600.3375 600.6875,600.5234 Q600.5234,600.7094 600.2609,600.7094 Q600.0203,600.7094 599.8781,600.5672 Q599.7359,600.4359 599.6594,600.075 Q599.6266,599.8234 599.4953,599.6922 Q599.2656,599.4297 598.8391,599.2766 Q598.4125,599.1234 597.975,599.1234 Q597.4391,599.1234 596.9906,599.3531 Q596.5531,599.5828 596.2031,600.1078 Q595.8641,600.6328 595.8641,601.3547 L595.8641,602.1203 Q595.8641,602.9844 596.4875,603.5641 Q597.1109,604.1328 598.2266,604.1328 Q598.8828,604.1328 599.3422,603.9578 Q599.6156,603.8484 599.9109,603.5422 Q600.0969,603.3562 600.1953,603.3016 Q600.3047,603.2469 600.4469,603.2469 Q600.6766,603.2469 600.8516,603.4328 Q601.0375,603.6078 601.0375,603.8484 Q601.0375,604.0891 600.7969,604.3734 Q600.4469,604.7781 599.8891,605.0078 Q599.1344,605.325 598.2266,605.325 Q597.1656,605.325 596.3234,604.8875 Q595.6344,604.5375 595.1531,603.7937 Q594.6719,603.0391 594.6719,602.1422 L594.6719,601.3328 Q594.6719,600.4031 595.0984,599.6047 Q595.5359,598.7953 596.3016,598.3687 Q597.0672,597.9312 597.9312,597.9312 Q598.4453,597.9312 598.8937,598.0516 Q599.3531,598.1609 599.7359,598.4125 Z " fill="#000000"/><text fill="#000000" font-family="sans-serif" font-size="9.8" lengthAdjust="spacing" textLength="107.8" x="607.6" y="604.6975">PropertyTypeRepository</text><line style="stroke:#181818;stroke-width:0.3499999999999999;" x1="588" x2="716.8" y1="612.5" y2="612.5"/><line style="stroke:#181818;stroke-width:0.3499999999999999;" x1="588" x2="716.8" y1="618.1" y2="618.1"/><text fill="#000000" font-family="sans-serif" font-size="9.8" lengthAdjust="spacing" textLength="97.3" x="591.5" y="629.7717">+getTypeOfProperty()</text></g><!--class Agent--><g id="elem_Agent"><rect codeLine="152" fill="#F1F1F1" height="55.4969" id="Agent" rx="1.75" ry="1.75" style="stroke:#181818;stroke-width:0.3499999999999999;" width="100.1" x="1168.65" y="775.6"/><ellipse cx="1202.775" cy="786.8" fill="#ADD1B2" rx="7.7" ry="7.7" style="stroke:#181818;stroke-width:0.6999999999999998;"/><path d="M1204.7109,783.9125 Q1204.8203,783.7594 1204.9516,783.6828 Q1205.0828,783.6062 1205.2359,783.6062 Q1205.4984,783.6062 1205.6625,783.7922 Q1205.8266,783.9672 1205.8266,784.3937 L1205.8266,785.4109 Q1205.8266,785.8375 1205.6625,786.0234 Q1205.4984,786.2094 1205.2359,786.2094 Q1204.9953,786.2094 1204.8531,786.0672 Q1204.7109,785.9359 1204.6344,785.575 Q1204.6016,785.3234 1204.4703,785.1922 Q1204.2406,784.9297 1203.8141,784.7766 Q1203.3875,784.6234 1202.95,784.6234 Q1202.4141,784.6234 1201.9656,784.8531 Q1201.5281,785.0828 1201.1781,785.6078 Q1200.8391,786.1328 1200.8391,786.8547 L1200.8391,787.6203 Q1200.8391,788.4844 1201.4625,789.0641 Q1202.0859,789.6328 1203.2016,789.6328 Q1203.8578,789.6328 1204.3172,789.4578 Q1204.5906,789.3484 1204.8859,789.0422 Q1205.0719,788.8562 1205.1703,788.8016 Q1205.2797,788.7469 1205.4219,788.7469 Q1205.6516,788.7469 1205.8266,788.9328 Q1206.0125,789.1078 1206.0125,789.3484 Q1206.0125,789.5891 1205.7719,789.8734 Q1205.4219,790.2781 1204.8641,790.5078 Q1204.1094,790.825 1203.2016,790.825 Q1202.1406,790.825 1201.2984,790.3875 Q1200.6094,790.0375 1200.1281,789.2937 Q1199.6469,788.5391 1199.6469,787.6422 L1199.6469,786.8328 Q1199.6469,785.9031 1200.0734,785.1047 Q1200.5109,784.2953 1201.2766,783.8687 Q1202.0422,783.4312 1202.9062,783.4312 Q1203.4203,783.4312 1203.8687,783.5516 Q1204.3281,783.6609 1204.7109,783.9125 Z " fill="#000000"/><text fill="#000000" font-family="sans-serif" font-size="9.8" lengthAdjust="spacing" textLength="25.9" x="1217.125" y="790.1975">Agent</text><line style="stroke:#181818;stroke-width:0.3499999999999999;" x1="1169.35" x2="1268.05" y1="798" y2="798"/><text fill="#000000" font-family="sans-serif" font-size="9.8" lengthAdjust="spacing" textLength="56.7" x="1172.85" y="809.6717">-String name</text><text fill="#000000" font-family="sans-serif" font-size="9.8" lengthAdjust="spacing" textLength="91.7" x="1172.85" y="820.6201">-int passport number</text><line style="stroke:#181818;stroke-width:0.3499999999999999;" x1="1169.35" x2="1268.05" y1="825.4969" y2="825.4969"/></g><!--class AvaliableEquipement--><g id="elem_AvaliableEquipement"><rect codeLine="159" fill="#F1F1F1" height="66.4453" id="AvaliableEquipement" rx="1.75" ry="1.75" style="stroke:#181818;stroke-width:0.3499999999999999;" width="116.9" x="95.55" y="770"/><ellipse cx="106.995" cy="781.2" fill="#ADD1B2" rx="7.7" ry="7.7" style="stroke:#181818;stroke-width:0.6999999999999998;"/><path d="M108.9309,778.3125 Q109.0403,778.1594 109.1716,778.0828 Q109.3028,778.0062 109.4559,778.0062 Q109.7184,778.0062 109.8825,778.1922 Q110.0466,778.3672 110.0466,778.7937 L110.0466,779.8109 Q110.0466,780.2375 109.8825,780.4234 Q109.7184,780.6094 109.4559,780.6094 Q109.2153,780.6094 109.0731,780.4672 Q108.9309,780.3359 108.8544,779.975 Q108.8216,779.7234 108.6903,779.5922 Q108.4606,779.3297 108.0341,779.1766 Q107.6075,779.0234 107.17,779.0234 Q106.6341,779.0234 106.1856,779.2531 Q105.7481,779.4828 105.3981,780.0078 Q105.0591,780.5328 105.0591,781.2547 L105.0591,782.0203 Q105.0591,782.8844 105.6825,783.4641 Q106.3059,784.0328 107.4216,784.0328 Q108.0778,784.0328 108.5372,783.8578 Q108.8106,783.7484 109.1059,783.4422 Q109.2919,783.2562 109.3903,783.2016 Q109.4997,783.1469 109.6419,783.1469 Q109.8716,783.1469 110.0466,783.3328 Q110.2325,783.5078 110.2325,783.7484 Q110.2325,783.9891 109.9919,784.2734 Q109.6419,784.6781 109.0841,784.9078 Q108.3294,785.225 107.4216,785.225 Q106.3606,785.225 105.5184,784.7875 Q104.8294,784.4375 104.3481,783.6937 Q103.8669,782.9391 103.8669,782.0422 L103.8669,781.2328 Q103.8669,780.3031 104.2934,779.5047 Q104.7309,778.6953 105.4966,778.2687 Q106.2622,777.8312 107.1262,777.8312 Q107.6403,777.8312 108.0887,777.9516 Q108.5481,778.0609 108.9309,778.3125 Z " fill="#000000"/><text fill="#000000" font-family="sans-serif" font-size="9.8" lengthAdjust="spacing" textLength="92.4" x="117.005" y="784.5975">AvaliableEquipement</text><line style="stroke:#181818;stroke-width:0.3499999999999999;" x1="96.25" x2="211.75" y1="792.4" y2="792.4"/><text fill="#000000" font-family="sans-serif" font-size="9.8" lengthAdjust="spacing" textLength="105.7" x="99.75" y="804.0717">-boolean centralHeating</text><text fill="#000000" font-family="sans-serif" font-size="9.8" lengthAdjust="spacing" textLength="108.5" x="99.75" y="815.0201">-boolean airConditioning</text><text fill="#000000" font-family="sans-serif" font-size="9.8" lengthAdjust="spacing" textLength="55.3" x="99.75" y="825.9686">-String other</text><line style="stroke:#181818;stroke-width:0.3499999999999999;" x1="96.25" x2="211.75" y1="830.8453" y2="830.8453"/></g><!--link Repositories to Repositories--><g id="link_Repositories_Repositories"><path codeLine="170" d="M637.819,322.581 C652.05,324.569 662.2,330.435 662.2,340.2 C662.2,349.125 653.723,354.795 641.389,357.217 " fill="none" id="Repositories-to-Repositories" style="stroke:#181818;stroke-width:0.6999999999999998;"/><polygon fill="#181818" points="637.819,357.819,644.496,359.5358,641.2706,357.2387,643.5676,354.0133,637.819,357.819" style="stroke:#181818;stroke-width:0.6999999999999998;"/><text fill="#000000" font-family="sans-serif" font-size="9.1" lengthAdjust="spacing" textLength="34.3" x="666.4" y="343.538">instance</text></g><!--link Repositories to AgencyRepository--><g id="link_Repositories_AgencyRepository"><path codeLine="171" d="M597.891,384.489 C640.717,443.576 711.9,541.8 711.9,541.8 C711.9,541.8 759.311,567.994 796.124,588.336 " fill="none" id="Repositories-to-AgencyRepository" style="stroke:#181818;stroke-width:0.6999999999999998;"/><polygon fill="#181818" points="799.204,590.037,795.0429,584.5402,796.1402,588.3449,792.3355,589.4423,799.204,590.037" style="stroke:#181818;stroke-width:0.6999999999999998;"/><text fill="#000000" font-family="sans-serif" font-size="9.1" lengthAdjust="spacing" textLength="4.9" x="785.1502" y="582.5569">1</text></g><!--link Repositories to PropertyTypeRepository--><g id="link_Repositories_PropertyTypeRepository"><path codeLine="172" d="M580.125,384.489 C598.857,443.576 630,541.8 630,541.8 C630,541.8 637.917,566.538 644.336,586.607 " fill="none" id="Repositories-to-PropertyTypeRepository" style="stroke:#181818;stroke-width:0.6999999999999998;"/><polygon fill="#181818" points="645.435,590.037,646.1735,583.1825,644.3643,586.7048,640.842,584.8956,645.435,590.037" style="stroke:#181818;stroke-width:0.6999999999999998;"/><text fill="#000000" font-family="sans-serif" font-size="9.1" lengthAdjust="spacing" textLength="4.9" x="638.4755" y="582.5569">1</text></g><!--link Repositories to locationsRepository--><g id="link_Repositories_locationsRepository"><path codeLine="175" d="M510.657,384.468 C492.072,399.014 476,411.6 476,411.6 C476,411.6 407.4,443.8 407.4,443.8 C407.4,443.8 374.619,455.224 342.972,466.256 " fill="none" id="Repositories-to-locationsRepository" style="stroke:#181818;stroke-width:0.6999999999999998;"/><polygon fill="#181818" points="339.521,467.46,346.391,468.0373,342.8271,466.3113,344.5531,462.7475,339.521,467.46" style="stroke:#181818;stroke-width:0.6999999999999998;"/><text fill="#000000" font-family="sans-serif" font-size="9.1" lengthAdjust="spacing" textLength="4.9" x="345.1389" y="463.5029">1</text></g><!--link CreateRequestController to Repositories--><g id="link_CreateRequestController_Repositories"><path codeLine="177" d="M676.69,215.663 C654.262,240.821 628.579,269.633 607.635,293.132 " fill="none" id="CreateRequestController-to-Repositories" style="stroke:#181818;stroke-width:0.6999999999999998;stroke-dasharray:7.0,7.0;"/><polygon fill="#181818" points="605.101,295.974,611.3853,293.139,607.4319,293.363,607.2078,289.4096,605.101,295.974" style="stroke:#181818;stroke-width:0.6999999999999998;"/><text fill="#000000" font-family="sans-serif" font-size="9.1" lengthAdjust="spacing" textLength="46.9" x="658.7" y="245.538">repositories</text></g><!--link CreateRequestController to Request--><g id="link_CreateRequestController_Request"><path codeLine="178" d="M818.426,215.663 C842.464,231.966 868.763,249.802 893.725,266.735 " fill="none" id="CreateRequestController-to-Request" style="stroke:#181818;stroke-width:0.6999999999999998;stroke-dasharray:7.0,7.0;"/><polygon fill="#181818" points="896.763,268.793,893.1206,262.9395,893.8663,266.8285,889.9774,267.5742,896.763,268.793" style="stroke:#181818;stroke-width:0.6999999999999998;"/></g><!--link CreateRequestController to AgencyRepository--><g id="link_CreateRequestController_AgencyRepository"><path codeLine="179" d="M730.1,215.607 C730.1,300.006 730.1,443.8 730.1,443.8 C730.1,443.8 745.5,509.6 745.5,509.6 C745.5,509.6 788.627,556.948 816.179,587.188 " fill="none" id="CreateRequestController-to-AgencyRepository" style="stroke:#181818;stroke-width:0.6999999999999998;stroke-dasharray:7.0,7.0;"/><polygon fill="#181818" points="818.629,589.876,816.4429,583.3376,816.2667,587.2935,812.3108,587.1173,818.629,589.876" style="stroke:#181818;stroke-width:0.6999999999999998;"/><text fill="#000000" font-family="sans-serif" font-size="9.1" lengthAdjust="spacing" textLength="72.8" x="730.8" y="441.538">agencyRepository</text></g><!--link CreateRequestController to locationsRepository--><g id="link_CreateRequestController_locationsRepository"><path codeLine="180" d="M556.094,215.67 C477.435,242.753 401.8,268.8 401.8,268.8 C401.8,268.8 352.1,411.6 352.1,411.6 C352.1,411.6 326.48,440.16 306.873,462.007 " fill="none" id="CreateRequestController-to-locationsRepository" style="stroke:#181818;stroke-width:0.6999999999999998;stroke-dasharray:7.0,7.0;"/><polygon fill="#181818" points="304.521,464.632,310.8113,461.8103,306.8574,462.026,306.6417,458.0721,304.521,464.632" style="stroke:#181818;stroke-width:0.6999999999999998;"/><text fill="#000000" font-family="sans-serif" font-size="9.1" lengthAdjust="spacing" textLength="79.8" x="402.5" y="343.538">locationsRepository</text></g><!--link CreateRequestController to Agency--><g id="link_CreateRequestController_Agency"><path codeLine="181" d="M945.819,202.958 C1087.471,233.954 1246.7,268.8 1246.7,268.8 C1246.7,268.8 1271.9,339.5 1271.9,339.5 C1271.9,339.5 1271.9,339.5 1271.9,613.2 C1271.9,613.2 1241.1,662.2 1241.1,662.2 C1241.1,662.2 1198.029,685.734 1147.153,713.524 " fill="none" id="CreateRequestController-to-Agency" style="stroke:#181818;stroke-width:0.6999999999999998;stroke-dasharray:7.0,7.0;"/><polygon fill="#181818" points="1143.793,715.358,1150.6638,714.7899,1146.8633,713.6778,1147.9755,709.8774,1143.793,715.358" style="stroke:#181818;stroke-width:0.6999999999999998;"/><text fill="#000000" font-family="sans-serif" font-size="9.1" lengthAdjust="spacing" textLength="29.4" x="1272.6" y="490.538">agency</text><text fill="#000000" font-family="sans-serif" font-size="9.1" lengthAdjust="spacing" textLength="4.9" x="1148.96" y="707.8559">1</text></g><!--link AgencyRepository to Agency--><g id="link_AgencyRepository_Agency"><path codeLine="184" d="M855.302,634.921 C870.1,654.164 892.745,683.613 914.949,712.488 " fill="none" id="AgencyRepository-to-Agency" style="stroke:#181818;stroke-width:0.6999999999999998;"/><polygon fill="#181818" points="917.098,715.281,915.489,708.5772,914.9693,712.5027,911.0438,711.9831,917.098,715.281" style="stroke:#181818;stroke-width:0.6999999999999998;"/><text fill="#000000" font-family="sans-serif" font-size="9.1" lengthAdjust="spacing" textLength="3.5" x="909.1872" y="707.7739">*</text></g><!--link locationsRepository to Property--><g id="link_locationsRepository_Property"><path codeLine="188" d="M284.9,509.768 C284.9,523.453 284.9,541.709 284.9,558.999 " fill="none" id="locationsRepository-to-Property" style="stroke:#181818;stroke-width:0.6999999999999998;"/><polygon fill="#181818" points="284.9,562.667,287.7,556.367,284.9,559.167,282.1,556.367,284.9,562.667" style="stroke:#181818;stroke-width:0.6999999999999998;"/><text fill="#000000" font-family="sans-serif" font-size="9.1" lengthAdjust="spacing" textLength="31.5" x="285.6" y="539.538">location</text><text fill="#000000" font-family="sans-serif" font-size="9.1" lengthAdjust="spacing" textLength="4.9" x="279.5483" y="523.1274">1</text><text fill="#000000" font-family="sans-serif" font-size="9.1" lengthAdjust="spacing" textLength="3.5" x="281.2086" y="555.1446">*</text></g><!--link Employee to Request--><g id="link_Employee_Request"><path codeLine="190" d="M1229.431,204.75 C1197.154,223.79 1159.508,246.001 1124.2,266.826 " fill="none" id="Employee-to-Request" style="stroke:#181818;stroke-width:0.6999999999999998;"/><polygon fill="#181818" points="1121.008,268.709,1127.8591,267.9391,1124.0276,266.9392,1125.0275,263.1078,1121.008,268.709" style="stroke:#181818;stroke-width:0.6999999999999998;"/><text fill="#000000" font-family="sans-serif" font-size="9.1" lengthAdjust="spacing" textLength="31.5" x="1176" y="245.538">handles</text></g><!--link Request to Owner--><g id="link_Request_Owner"><path codeLine="192" d="M1033.389,411.719 C1056.454,462.14 1086.652,528.164 1105.916,570.297 " fill="none" id="Request-to-Owner" style="stroke:#181818;stroke-width:0.6999999999999998;"/><polygon fill="#181818" points="1107.4,573.538,1107.3339,566.6441,1105.9479,570.3534,1102.2386,568.9674,1107.4,573.538" style="stroke:#181818;stroke-width:0.6999999999999998;"/><text fill="#000000" font-family="sans-serif" font-size="9.1" lengthAdjust="spacing" textLength="41.3" x="1077.3" y="490.538">createdBy</text></g><!--link Request to Property--><g id="link_Request_Property"><path codeLine="193" d="M869.582,411.663 C836.353,429.555 809.9,443.8 809.9,443.8 C809.9,443.8 572.215,519.862 416.703,569.625 " fill="none" id="Request-Property" style="stroke:#181818;stroke-width:0.6999999999999998;"/><polygon fill="#000000" points="743.5953,488.5359,750.2511,488.3931,748.8961,484.5082,743.5953,488.5359" style="stroke:#000000;stroke-width:0.6999999999999998;"/><text fill="#000000" font-family="sans-serif" font-size="9.1" lengthAdjust="spacing" textLength="7" x="753.2" y="490.538">of</text></g><!--link Request to Agency--><g id="link_Request_Agency"><path codeLine="194" d="M998.424,411.768 C995.449,493.346 990.577,627.361 987.378,715.281 " fill="none" id="Request-Agency" style="stroke:#181818;stroke-width:0.6999999999999998;"/><polygon fill="#000000" points="996.6727,539.8809,998.9589,533.6283,994.8471,533.4787,996.6727,539.8809" style="stroke:#000000;stroke-width:0.6999999999999998;"/><text fill="#000000" font-family="sans-serif" font-size="9.1" lengthAdjust="spacing" textLength="31.5" x="1003.1" y="539.538">assigns</text></g><!--reverse link Apartment to House--><g id="link_Apartment_House"><path codeLine="196" d="M393.302,803.25 C396.865,803.25 400.449,803.25 403.83,803.25 " fill="none" id="Apartment-backto-House" style="stroke:#181818;stroke-width:0.6999999999999998;"/><polygon fill="none" points="393.295,808.15,379.295,803.25,393.295,798.35,393.295,808.15" style="stroke:#181818;stroke-width:0.6999999999999998;"/></g><!--reverse link Property to Apartment--><g id="link_Property_Apartment"><path codeLine="198" d="M292.586,676.193 C295.897,703.325 299.684,734.377 302.68,758.912 " fill="none" id="Property-backto-Apartment" style="stroke:#181818;stroke-width:0.6999999999999998;"/><polygon fill="none" points="287.707,676.697,290.878,662.207,297.437,675.514,287.707,676.697" style="stroke:#181818;stroke-width:0.6999999999999998;"/></g><!--link Property to Address--><g id="link_Property_Address"><path codeLine="199" d="M188.23,662.207 C136.493,688.436 83.3,715.4 83.3,715.4 C83.3,715.4 65.303,749.868 51.947,775.453 " fill="none" id="Property-Address" style="stroke:#181818;stroke-width:0.6999999999999998;"/><polygon fill="#000000" points="144.3081,691.2201,150.4926,688.7558,147.863,685.5913,144.3081,691.2201" style="stroke:#000000;stroke-width:0.6999999999999998;"/><text fill="#000000" font-family="sans-serif" font-size="9.1" lengthAdjust="spacing" textLength="39.9" x="153.3" y="692.138">located at</text><text fill="#000000" font-family="sans-serif" font-size="9.1" lengthAdjust="spacing" textLength="4.9" x="49.1305" y="768.0819">1</text></g><!--link Property to PhotographyList--><g id="link_Property_PhotographyList"><path codeLine="200" d="M416.794,612.5 C434.287,612.5 451.234,612.5 465.969,612.5 " fill="none" id="Property-PhotographyList" style="stroke:#181818;stroke-width:0.6999999999999998;"/><polygon fill="#000000" points="435.75,604.9832,429.4184,602.926,429.4184,607.0405,435.75,604.9832" style="stroke:#000000;stroke-width:0.6999999999999998;"/><text fill="#000000" font-family="sans-serif" font-size="9.1" lengthAdjust="spacing" textLength="14.7" x="438.55" y="608.138">has</text><text fill="#000000" font-family="sans-serif" font-size="9.1" lengthAdjust="spacing" textLength="20.3" x="440.2593" y="621.2182">1..30</text></g><!--link Property to TypeOfProperty--><g id="link_Property_TypeOfProperty"><path codeLine="201" d="M416.598,660.562 C490.945,687.295 569.1,715.4 569.1,715.4 C569.1,715.4 601.202,754.971 622.139,780.78 " fill="none" id="Property-TypeOfProperty" style="stroke:#181818;stroke-width:0.6999999999999998;"/><polygon fill="#000000" points="514.0212,690.7502,509.5945,685.7778,507.5172,689.3294,514.0212,690.7502" style="stroke:#000000;stroke-width:0.6999999999999998;"/><text fill="#000000" font-family="sans-serif" font-size="9.1" lengthAdjust="spacing" textLength="14.7" x="517.3" y="692.138">has</text></g><!--link PropertyTypeRepository to TypeOfProperty--><g id="link_PropertyTypeRepository_TypeOfProperty"><path codeLine="203" d="M650.958,634.921 C648.606,670.208 643.972,739.816 641.48,777.266 " fill="none" id="PropertyTypeRepository-to-TypeOfProperty" style="stroke:#181818;stroke-width:0.6999999999999998;"/><polygon fill="#181818" points="641.249,780.794,644.4561,774.6912,641.4785,777.3015,638.8681,774.324,641.249,780.794" style="stroke:#181818;stroke-width:0.6999999999999998;"/><text fill="#000000" font-family="sans-serif" font-size="9.1" lengthAdjust="spacing" textLength="60.9" x="648.2" y="692.138">typeOfProperty</text><text fill="#000000" font-family="sans-serif" font-size="9.1" lengthAdjust="spacing" textLength="4.9" x="645.3161" y="648.426">1</text><text fill="#000000" font-family="sans-serif" font-size="9.1" lengthAdjust="spacing" textLength="3.5" x="637.6832" y="773.3155">*</text></g><!--link Agency to Agent--><g id="link_Agency_Agent"><path codeLine="205" d="M1144.304,803.25 C1148.609,803.25 1156.204,803.25 1164.94,803.25 " fill="none" id="Agency-to-Agent" style="stroke:#181818;stroke-width:0.6999999999999998;"/><polygon fill="#181818" points="1168.475,803.25,1162.175,800.45,1164.975,803.25,1162.175,806.05,1168.475,803.25" style="stroke:#181818;stroke-width:0.6999999999999998;"/><text fill="#000000" font-family="sans-serif" font-size="9.1" lengthAdjust="spacing" textLength="32.9" x="1130.0762" y="799.2787">contract</text></g><!--link Sale to Property--><g id="link_Sale_Property"><path codeLine="208" d="M373.1,509.768 C362.852,521.619 349.643,536.9 336.581,552.013 " fill="none" id="Sale-to-Property" style="stroke:#181818;stroke-width:0.6999999999999998;"/><polygon fill="none" points="340.235,555.282,327.369,562.667,332.815,548.87,340.235,555.282" style="stroke:#181818;stroke-width:0.6999999999999998;"/></g><!--link Rent to Property--><g id="link_Rent_Property"><path codeLine="210" d="M128.59,612.5 C132.391,612.5 135.884,612.5 139.048,612.5 " fill="none" id="Rent-to-Property" style="stroke:#181818;stroke-width:0.6999999999999998;"/><polygon fill="none" points="139.083,607.6,153.083,612.5,139.083,617.4,139.083,607.6" style="stroke:#181818;stroke-width:0.6999999999999998;"/></g><!--link AvaliableEquipement to Apartment--><g id="link_AvaliableEquipement_Apartment"><path codeLine="212" d="M212.471,803.25 C215.32,803.25 218.813,803.25 222.586,803.25 " fill="none" id="AvaliableEquipement-to-Apartment" style="stroke:#181818;stroke-width:0.6999999999999998;"/><polygon fill="none" points="222.754,798.35,236.754,803.25,222.754,808.15,222.754,798.35" style="stroke:#181818;stroke-width:0.6999999999999998;"/></g><!--SRC=[fLTBR-Cs4BxpLn0voLqbsBQte0ZWF8ei43H1dEC21IsDRM8bKalIIPHi_tk752cHafniMbyCpKlp-FXnfBznqJ35QjgmuXlRmigq5L05XM5YMm7HlO7UiL8-SR6b6rRfM5Dn0QPjW3QoQkq38P6sg9ZMIsCKN-yDV2caMF4Ne9z9ztDgUbKtbMm1w2kX-3kcAxJ7LmbMGog1cl7AYxWmjDb90N_jwpMeIChBr8kLfGAjYPD-se9PTe9C6mLWSlh2cxyBMK9EjM46_qgEAbwWgk2cNP1_Gghty7qFsempjMvxdShMiENY4iEDIX2b4tR9X80PTbyKRKxjlrbuPQ40JU-KR42PDcFucDDA5inmAReicIZWJoNhXnrSOAeNwAqWzL_YA4oDYfyFaDElGhYstcxEeLHIrZgdlOIPtKXqnnJEVBj2806AsIEhE5jNSFLzpnke9pLToxs6Z-JpKzaCIR-VJqxX6L-7NOVRpVASQI_bOiVMt5ZZ6xb1WTwBg-V6vZjkxEsJ09LPbEOTClCOa7aO7-AcaSfaXZrtceK3b4VKqWt-VUW_CfC0tOkVOAtv66CkYyCdPtGi4c7D149G4Iz5cwKGSezTgjqaF5gdieNti9qkBUe-ulQ9Cj466hXc-ifccxcSWy5_ERQTPzTXFwU-ZRbjtOfRDzUkVeI-BNbeHIWC4mWPdhT9Wj4q0vRrFJGI1oDL6AshuCQhis0NKKkNvhpVhTeomL-SotdVg2I9YA9y10wwXrKipAAMVX7TYSiMz3Gn6am2_JmWoG_PnK76cSUwK76YxNEzS2V4S-25H5J8gWBLbtv0xzboY9dFDJwdzbv2Bl0539hq60SAxaWy7uWx3sIDaNP0BLiXFT3wjvYpleh0MdI3jEKiBVfeuK2Em2ufmejAHMk9pmWs8_KYAN35AiWQH2uiHeKZQTTuP4pLtZjsAcmFM64kzyhZfmVdGr9ibjO-0s9BiYi4keMZ6ucG1gYH3PMRGuttKImNEl1HhgbS6uRNVdVdzYsm9bHtuRqNTWossFrBq8NYZGaQZA40poqyGja5q53X3e9FI2ICu12epItDS6RWGtOO1_kDWsagrYAjEOrDAtZP2FQvyVs9Nj8Xqt7x_zf7FeYnw5I4eRr6aItuqdU7KbBfmIiqpIUbqlembMQoCOkKJv4Wxoo8ixsgnh8RTCiSnBUADRjuTR8W3nLjAicmMnRnCN49aneuwEywx4Uz61-2Y4F3gXEtRhmwpAd23Z6ZIrO9hrzBMG4JSti5YNXnget9p-r0hwE8Sql9o6IqeOmsqMXRYVhIZNkojThXHoK754HG74PfH_iwsJE2Td19UMZaaRBI5FBf9HFTW2Ds6zsRXlZtJ4wgEvL-0_CZZPUlwOJ60t4qpgfhF3M1IABvSuNaM7ABma7hav18CEhTkyvd_gauSDNvFIbj3EuiKiqqhFj-A9Ah3XD8LeBZuxDqHpZ5sNUaCJP4owDVZoQRoG6p-HcIcTTRwpd-9eVsWPEJISugNbRUzdFIDsqckzVff95l-i-jVQUp9RuLPUXr_txitYGtry5VWgdzZ9vxlGqMBCDaefm8wR-wEq1qtxMdT8SBIuKj9K7avkkkGzHsA2tFsrWTnyTxzIpH3GNXBh0L6jMafsbA__Xnt14X8NqKb1qFL3x8KUfQr95PA0OlUxmgpY8pj3ev-VtpqPYzN7KwCJqUqLLlGkRHdBHruZfYDpywQit3dNNa-OeGUnzYg1zdT72m5nrDHJCKvIo6_X3oBm00]--></g></svg>