<?xml version="1.0" encoding="us-ascii" standalone="no"?><svg xmlns="http://www.w3.org/2000/svg" xmlns:xlink="http://www.w3.org/1999/xlink" contentStyleType="text/css" height="292px" preserveAspectRatio="none" style="width:582px;height:292px;background:#FFFFFF;" version="1.1" viewBox="0 0 582 292" width="582px" zoomAndPan="magnify"><defs/><g><rect fill="#FFFFFF" height="172.1406" style="stroke:#181818;stroke-width:1.0;" width="10" x="88" y="61.2813"/><rect fill="#FFFFFF" height="28.5234" style="stroke:#181818;stroke-width:1.0;" width="10" x="234.5" y="81.8047"/><rect fill="#FFFFFF" height="28.5234" style="stroke:#181818;stroke-width:1.0;" width="10" x="341.5" y="138.8516"/><rect fill="#FFFFFF" height="28.5234" style="stroke:#181818;stroke-width:1.0;" width="10" x="485.5" y="195.8984"/><line style="stroke:#181818;stroke-width:0.5;stroke-dasharray:5.0,5.0;" x1="93" x2="93" y1="51.2813" y2="242.4219"/><line style="stroke:#181818;stroke-width:0.5;stroke-dasharray:5.0,5.0;" x1="239" x2="239" y1="51.2813" y2="242.4219"/><line style="stroke:#181818;stroke-width:0.5;stroke-dasharray:5.0,5.0;" x1="346" x2="346" y1="51.2813" y2="242.4219"/><line style="stroke:#181818;stroke-width:0.5;stroke-dasharray:5.0,5.0;" x1="490" x2="490" y1="51.2813" y2="242.4219"/><rect fill="#E3E3E3" height="29.6406" rx="2.5" ry="2.5" style="stroke:#181818;stroke-width:0.5;" width="176" x="5" y="20.6406"/><text fill="#000000" font-family="sans-serif" font-size="14" lengthAdjust="spacing" textLength="162" x="12" y="40.3145">:CreateRequestController</text><rect fill="#E3E3E3" height="29.6406" rx="2.5" ry="2.5" style="stroke:#181818;stroke-width:0.5;" width="176" x="5" y="241.4219"/><text fill="#000000" font-family="sans-serif" font-size="14" lengthAdjust="spacing" textLength="162" x="12" y="261.0957">:CreateRequestController</text><rect fill="#E3E3E3" height="29.6406" rx="2.5" ry="2.5" style="stroke:#181818;stroke-width:0.5;" width="97" x="191" y="20.6406"/><text fill="#000000" font-family="sans-serif" font-size="14" lengthAdjust="spacing" textLength="83" x="198" y="40.3145">:Repositories</text><rect fill="#E3E3E3" height="29.6406" rx="2.5" ry="2.5" style="stroke:#181818;stroke-width:0.5;" width="97" x="191" y="241.4219"/><text fill="#000000" font-family="sans-serif" font-size="14" lengthAdjust="spacing" textLength="83" x="198" y="261.0957">:Repositories</text><rect fill="#E3E3E3" height="45.2813" rx="2.5" ry="2.5" style="stroke:#181818;stroke-width:0.5;" width="97" x="298" y="5"/><text fill="#000000" font-family="sans-serif" font-size="14" lengthAdjust="spacing" textLength="74" x="309.5" y="24.6738">repositories</text><text fill="#000000" font-family="sans-serif" font-size="14" lengthAdjust="spacing" textLength="83" x="305" y="40.3145">:Repositories</text><rect fill="#E3E3E3" height="45.2813" rx="2.5" ry="2.5" style="stroke:#181818;stroke-width:0.5;" width="97" x="298" y="241.4219"/><text fill="#000000" font-family="sans-serif" font-size="14" lengthAdjust="spacing" textLength="74" x="309.5" y="261.0957">repositories</text><text fill="#000000" font-family="sans-serif" font-size="14" lengthAdjust="spacing" textLength="83" x="305" y="276.7363">:Repositories</text><rect fill="#E3E3E3" height="45.2813" rx="2.5" ry="2.5" style="stroke:#181818;stroke-width:0.5;" width="171" x="405" y="5"/><text fill="#000000" font-family="sans-serif" font-size="14" lengthAdjust="spacing" textLength="157" x="412" y="24.6738">RequestTypeRepository:</text><text fill="#000000" font-family="sans-serif" font-size="14" lengthAdjust="spacing" textLength="153" x="414" y="40.3145">RequestTypeRepository</text><rect fill="#E3E3E3" height="45.2813" rx="2.5" ry="2.5" style="stroke:#181818;stroke-width:0.5;" width="171" x="405" y="241.4219"/><text fill="#000000" font-family="sans-serif" font-size="14" lengthAdjust="spacing" textLength="157" x="412" y="261.0957">RequestTypeRepository:</text><text fill="#000000" font-family="sans-serif" font-size="14" lengthAdjust="spacing" textLength="153" x="414" y="276.7363">RequestTypeRepository</text><rect fill="#FFFFFF" height="172.1406" style="stroke:#181818;stroke-width:1.0;" width="10" x="88" y="61.2813"/><rect fill="#FFFFFF" height="28.5234" style="stroke:#181818;stroke-width:1.0;" width="10" x="234.5" y="81.8047"/><rect fill="#FFFFFF" height="28.5234" style="stroke:#181818;stroke-width:1.0;" width="10" x="341.5" y="138.8516"/><rect fill="#FFFFFF" height="28.5234" style="stroke:#181818;stroke-width:1.0;" width="10" x="485.5" y="195.8984"/><polygon fill="#181818" points="222.5,77.8047,232.5,81.8047,222.5,85.8047,226.5,81.8047" style="stroke:#181818;stroke-width:1.0;"/><line style="stroke:#181818;stroke-width:1.0;" x1="98" x2="228.5" y1="81.8047" y2="81.8047"/><text fill="#000000" font-family="sans-serif" font-size="13" font-weight="bold" lengthAdjust="spacing" textLength="7" x="105" y="77.0498">3</text><text fill="#000000" font-family="sans-serif" font-size="13" lengthAdjust="spacing" textLength="75" x="116" y="77.0498">getInstance()</text><polygon fill="#181818" points="109,106.3281,99,110.3281,109,114.3281,105,110.3281" style="stroke:#181818;stroke-width:1.0;"/><line style="stroke:#181818;stroke-width:1.0;stroke-dasharray:2.0,2.0;" x1="103" x2="238.5" y1="110.3281" y2="110.3281"/><text fill="#000000" font-family="sans-serif" font-size="13" font-weight="bold" lengthAdjust="spacing" textLength="7" x="115" y="105.5732">4</text><text fill="#000000" font-family="sans-serif" font-size="13" lengthAdjust="spacing" textLength="67" x="126" y="105.5732">repositories</text><polygon fill="#181818" points="329.5,134.8516,339.5,138.8516,329.5,142.8516,333.5,138.8516" style="stroke:#181818;stroke-width:1.0;"/><line style="stroke:#181818;stroke-width:1.0;" x1="98" x2="335.5" y1="138.8516" y2="138.8516"/><text fill="#000000" font-family="sans-serif" font-size="13" font-weight="bold" lengthAdjust="spacing" textLength="7" x="105" y="134.0967">5</text><text fill="#000000" font-family="sans-serif" font-size="13" lengthAdjust="spacing" textLength="188" x="116" y="134.0967">getRequestCategoryRepository()</text><polygon fill="#181818" points="109,163.375,99,167.375,109,171.375,105,167.375" style="stroke:#181818;stroke-width:1.0;"/><line style="stroke:#181818;stroke-width:1.0;stroke-dasharray:2.0,2.0;" x1="103" x2="345.5" y1="167.375" y2="167.375"/><text fill="#000000" font-family="sans-serif" font-size="13" font-weight="bold" lengthAdjust="spacing" textLength="7" x="115" y="162.6201">6</text><text fill="#000000" font-family="sans-serif" font-size="13" lengthAdjust="spacing" textLength="157" x="126" y="162.6201">requestCategoryRepository</text><polygon fill="#181818" points="473.5,191.8984,483.5,195.8984,473.5,199.8984,477.5,195.8984" style="stroke:#181818;stroke-width:1.0;"/><line style="stroke:#181818;stroke-width:1.0;" x1="98" x2="479.5" y1="195.8984" y2="195.8984"/><text fill="#000000" font-family="sans-serif" font-size="13" font-weight="bold" lengthAdjust="spacing" textLength="7" x="105" y="191.1436">7</text><text fill="#000000" font-family="sans-serif" font-size="13" lengthAdjust="spacing" textLength="164" x="116" y="191.1436">getRequestTypeRepository()</text><polygon fill="#181818" points="109,220.4219,99,224.4219,109,228.4219,105,224.4219" style="stroke:#181818;stroke-width:1.0;"/><line style="stroke:#181818;stroke-width:1.0;stroke-dasharray:2.0,2.0;" x1="103" x2="489.5" y1="224.4219" y2="224.4219"/><text fill="#000000" font-family="sans-serif" font-size="13" font-weight="bold" lengthAdjust="spacing" textLength="7" x="115" y="219.667">8</text><text fill="#000000" font-family="sans-serif" font-size="13" lengthAdjust="spacing" textLength="92" x="126" y="219.667">requestTypeList</text><!--SRC=[VL4xRuGm3DxpAwoRsk6cRWoLAgPA3DMLyHOtvt8HaD3OjEBVD-4AXUEH8OFz-NlON1hReCSQQcUTldfN4uXlIV7OQL2NMD2xT1M19oreYseAu2jUt8-n1NnYnQIK2dKnsZHe1Gv9wWc5JlJL4algh7XNLUGFW0nfVihku2Tg71jntX3tc52OG_m4SRRBWRVi9PzF_8ddNKCZkalEThNUS-J8PHfi5w7mtr8AMt6shJ_8mvD2BUOxW6unuWV7v-WN4YX8NYs7PMbwU5HmzyR966xHZI-o70DRP4rW6da1lz0-tM0ixkNcR3Z68k2UrNwjgrvxugdP3VOzv-liW_NrSyp2p8-u5sJhjclHDeI7i32cZVAPOTdBk2Ny2m00]--></g></svg>