<?xml version="1.0" encoding="us-ascii" standalone="no"?><svg xmlns="http://www.w3.org/2000/svg" xmlns:xlink="http://www.w3.org/1999/xlink" contentStyleType="text/css" height="606px" preserveAspectRatio="none" style="width:1559px;height:606px;background:#FFFFFF;" version="1.1" viewBox="0 0 1559 606" width="1559px" zoomAndPan="magnify"><defs/><g><text fill="#000000" font-family="sans-serif" font-size="14" font-weight="bold" lengthAdjust="spacing" textLength="364" x="599.25" y="27.9951">User Story - System Sequence Diagram (SSD)</text><rect fill="#FFFFFF" height="378.7266" style="stroke:#181818;stroke-width:1.0;" width="10" x="70.5" y="128.5938"/><rect fill="#FFFFFF" height="29.1328" style="stroke:#181818;stroke-width:1.0;" width="10" x="1504.5" y="149.7266"/><rect fill="#FFFFFF" height="299.3281" style="stroke:#181818;stroke-width:1.0;" width="10" x="1504.5" y="207.9922"/><rect fill="none" height="46.2656" style="stroke:#000000;stroke-width:1.5;" width="1543.5" x="10" y="222.9922"/><rect fill="none" height="46.2656" style="stroke:#000000;stroke-width:1.5;" width="1543.5" x="10" y="283.2578"/><rect fill="none" height="46.2656" style="stroke:#000000;stroke-width:1.5;" width="1543.5" x="10" y="372.6563"/><rect fill="none" height="46.2656" style="stroke:#000000;stroke-width:1.5;" width="1543.5" x="10" y="432.9219"/><line style="stroke:#181818;stroke-width:0.5;stroke-dasharray:5.0,5.0;" x1="75" x2="75" y1="118.5938" y2="525.3203"/><line style="stroke:#181818;stroke-width:0.5;stroke-dasharray:5.0,5.0;" x1="1509.5" x2="1509.5" y1="118.5938" y2="525.3203"/><text fill="#000000" font-family="sans-serif" font-size="14" lengthAdjust="spacing" textLength="105" x="20" y="115.292">Store Manager</text><ellipse cx="75.5" cy="50.7969" fill="#E3E3E3" rx="8" ry="8" style="stroke:#181818;stroke-width:0.5;"/><path d="M75.5,58.7969 L75.5,85.7969 M62.5,66.7969 L88.5,66.7969 M75.5,85.7969 L62.5,100.7969 M75.5,85.7969 L88.5,100.7969 " fill="none" style="stroke:#181818;stroke-width:0.5;"/><text fill="#000000" font-family="sans-serif" font-size="14" lengthAdjust="spacing" textLength="105" x="20" y="537.3154">Store Manager</text><ellipse cx="75.5" cy="549.1172" fill="#E3E3E3" rx="8" ry="8" style="stroke:#181818;stroke-width:0.5;"/><path d="M75.5,557.1172 L75.5,584.1172 M62.5,565.1172 L88.5,565.1172 M75.5,584.1172 L62.5,599.1172 M75.5,584.1172 L88.5,599.1172 " fill="none" style="stroke:#181818;stroke-width:0.5;"/><rect fill="#E3E3E3" height="30.2969" rx="2.5" ry="2.5" style="stroke:#181818;stroke-width:0.5;" width="68" x="1475.5" y="87.2969"/><text fill="#000000" font-family="sans-serif" font-size="14" lengthAdjust="spacing" textLength="54" x="1482.5" y="107.292">System</text><rect fill="#E3E3E3" height="30.2969" rx="2.5" ry="2.5" style="stroke:#181818;stroke-width:0.5;" width="68" x="1475.5" y="524.3203"/><text fill="#000000" font-family="sans-serif" font-size="14" lengthAdjust="spacing" textLength="54" x="1482.5" y="544.3154">System</text><rect fill="#FFFFFF" height="378.7266" style="stroke:#181818;stroke-width:1.0;" width="10" x="70.5" y="128.5938"/><rect fill="#FFFFFF" height="29.1328" style="stroke:#181818;stroke-width:1.0;" width="10" x="1504.5" y="149.7266"/><rect fill="#FFFFFF" height="299.3281" style="stroke:#181818;stroke-width:1.0;" width="10" x="1504.5" y="207.9922"/><polygon fill="#181818" points="1492.5,145.7266,1502.5,149.7266,1492.5,153.7266,1496.5,149.7266" style="stroke:#181818;stroke-width:1.0;"/><line style="stroke:#181818;stroke-width:1.0;" x1="80.5" x2="1498.5" y1="149.7266" y2="149.7266"/><text fill="#000000" font-family="sans-serif" font-size="13" font-weight="bold" lengthAdjust="spacing" textLength="9" x="87.5" y="144.6606">1</text><text fill="#000000" font-family="sans-serif" font-size="13" lengthAdjust="spacing" textLength="180" x="100.5" y="144.6606">Selects to analyze the deals</text><polygon fill="#181818" points="91.5,174.8594,81.5,178.8594,91.5,182.8594,87.5,178.8594" style="stroke:#181818;stroke-width:1.0;"/><line style="stroke:#181818;stroke-width:1.0;stroke-dasharray:2.0,2.0;" x1="85.5" x2="1508.5" y1="178.8594" y2="178.8594"/><text fill="#000000" font-family="sans-serif" font-size="13" font-weight="bold" lengthAdjust="spacing" textLength="9" x="97.5" y="173.7935">2</text><text fill="#000000" font-family="sans-serif" font-size="13" lengthAdjust="spacing" textLength="406" x="110.5" y="173.7935">Asks to select regression model type (either simple or multiple)</text><polygon fill="#181818" points="1492.5,203.9922,1502.5,207.9922,1492.5,211.9922,1496.5,207.9922" style="stroke:#181818;stroke-width:1.0;"/><line style="stroke:#181818;stroke-width:1.0;" x1="80.5" x2="1498.5" y1="207.9922" y2="207.9922"/><text fill="#000000" font-family="sans-serif" font-size="13" font-weight="bold" lengthAdjust="spacing" textLength="8" x="87.5" y="202.9263">3</text><text fill="#000000" font-family="sans-serif" font-size="13" lengthAdjust="spacing" textLength="161" x="99.5" y="202.9263">Selects regression model</text><path d="M10,222.9922 L76,222.9922 L76,230.125 L66,240.125 L10,240.125 L10,222.9922 " fill="#EEEEEE" style="stroke:#000000;stroke-width:1.5;"/><rect fill="none" height="46.2656" style="stroke:#000000;stroke-width:1.5;" width="1543.5" x="10" y="222.9922"/><text fill="#000000" font-family="sans-serif" font-size="13" font-weight="bold" lengthAdjust="spacing" textLength="21" x="25" y="236.0591">alt</text><text fill="#000000" font-family="sans-serif" font-size="11" font-weight="bold" lengthAdjust="spacing" textLength="283" x="91" y="235.2026">[Store Manager selects simple regression]</text><polygon fill="#181818" points="91.5,257.2578,81.5,261.2578,91.5,265.2578,87.5,261.2578" style="stroke:#181818;stroke-width:1.0;"/><line style="stroke:#181818;stroke-width:1.0;stroke-dasharray:2.0,2.0;" x1="85.5" x2="1503.5" y1="261.2578" y2="261.2578"/><text fill="#000000" font-family="sans-serif" font-size="13" font-weight="bold" lengthAdjust="spacing" textLength="9" x="97.5" y="256.1919">4</text><text fill="#000000" font-family="sans-serif" font-size="13" lengthAdjust="spacing" textLength="1284" x="110.5" y="256.1919">asks which  variable (propertie Area,Distance from city centre,number of betrooms ,number of bathroom,number of parking spaces) the manager wants the system to geT the forecast property price.</text><path d="M10,283.2578 L76,283.2578 L76,290.3906 L66,300.3906 L10,300.3906 L10,283.2578 " fill="#EEEEEE" style="stroke:#000000;stroke-width:1.5;"/><rect fill="none" height="46.2656" style="stroke:#000000;stroke-width:1.5;" width="1543.5" x="10" y="283.2578"/><text fill="#000000" font-family="sans-serif" font-size="13" font-weight="bold" lengthAdjust="spacing" textLength="21" x="25" y="296.3247">alt</text><text fill="#000000" font-family="sans-serif" font-size="11" font-weight="bold" lengthAdjust="spacing" textLength="289" x="91" y="295.4683">[Store manager select multiple regression]</text><polygon fill="#181818" points="91.5,317.5234,81.5,321.5234,91.5,325.5234,87.5,321.5234" style="stroke:#181818;stroke-width:1.0;"/><line style="stroke:#181818;stroke-width:1.0;stroke-dasharray:2.0,2.0;" x1="85.5" x2="1503.5" y1="321.5234" y2="321.5234"/><text fill="#000000" font-family="sans-serif" font-size="13" font-weight="bold" lengthAdjust="spacing" textLength="9" x="97.5" y="316.4575">5</text><text fill="#000000" font-family="sans-serif" font-size="13" lengthAdjust="spacing" textLength="1387" x="110.5" y="316.4575">asks which and how many variables (propertie Area,Distance from city centre,number of betrooms ,number of bathroom,number of parking spaces) the manager wants the system to gET the forecast property price.</text><polygon fill="#181818" points="1492.5,353.6563,1502.5,357.6563,1492.5,361.6563,1496.5,357.6563" style="stroke:#181818;stroke-width:1.0;"/><line style="stroke:#181818;stroke-width:1.0;" x1="80.5" x2="1498.5" y1="357.6563" y2="357.6563"/><text fill="#000000" font-family="sans-serif" font-size="13" font-weight="bold" lengthAdjust="spacing" textLength="9" x="87.5" y="352.5903">6</text><text fill="#000000" font-family="sans-serif" font-size="13" lengthAdjust="spacing" textLength="517" x="100.5" y="352.5903">selects and insert values necessary variables  to get the forecast property price.</text><path d="M10,372.6563 L76,372.6563 L76,379.7891 L66,389.7891 L10,389.7891 L10,372.6563 " fill="#EEEEEE" style="stroke:#000000;stroke-width:1.5;"/><rect fill="none" height="46.2656" style="stroke:#000000;stroke-width:1.5;" width="1543.5" x="10" y="372.6563"/><text fill="#000000" font-family="sans-serif" font-size="13" font-weight="bold" lengthAdjust="spacing" textLength="21" x="25" y="385.7231">alt</text><text fill="#000000" font-family="sans-serif" font-size="11" font-weight="bold" lengthAdjust="spacing" textLength="484" x="91" y="384.8667">[Store Manager chooses only one variable and adds only one value to it]</text><polygon fill="#181818" points="91.5,406.9219,81.5,410.9219,91.5,414.9219,87.5,410.9219" style="stroke:#181818;stroke-width:1.0;"/><line style="stroke:#181818;stroke-width:1.0;stroke-dasharray:2.0,2.0;" x1="85.5" x2="1503.5" y1="410.9219" y2="410.9219"/><text fill="#000000" font-family="sans-serif" font-size="13" font-weight="bold" lengthAdjust="spacing" textLength="9" x="97.5" y="405.856">7</text><text fill="#000000" font-family="sans-serif" font-size="13" lengthAdjust="spacing" textLength="209" x="110.5" y="405.856">Displays forecast property price.</text><path d="M10,432.9219 L76,432.9219 L76,440.0547 L66,450.0547 L10,450.0547 L10,432.9219 " fill="#EEEEEE" style="stroke:#000000;stroke-width:1.5;"/><rect fill="none" height="46.2656" style="stroke:#000000;stroke-width:1.5;" width="1543.5" x="10" y="432.9219"/><text fill="#000000" font-family="sans-serif" font-size="13" font-weight="bold" lengthAdjust="spacing" textLength="21" x="25" y="445.9888">alt</text><text fill="#000000" font-family="sans-serif" font-size="11" font-weight="bold" lengthAdjust="spacing" textLength="581" x="91" y="445.1323">[Manager inserts more then one value to each variable or selects multiple regression.]</text><polygon fill="#181818" points="91.5,467.1875,81.5,471.1875,91.5,475.1875,87.5,471.1875" style="stroke:#181818;stroke-width:1.0;"/><line style="stroke:#181818;stroke-width:1.0;stroke-dasharray:2.0,2.0;" x1="85.5" x2="1503.5" y1="471.1875" y2="471.1875"/><text fill="#000000" font-family="sans-serif" font-size="13" font-weight="bold" lengthAdjust="spacing" textLength="9" x="97.5" y="466.1216">8</text><text fill="#000000" font-family="sans-serif" font-size="13" lengthAdjust="spacing" textLength="451" x="110.5" y="466.1216">Displays forecast property price in a graph (variable(s)/forecast price).</text><polygon fill="#181818" points="86.5,503.3203,76.5,507.3203,86.5,511.3203,82.5,507.3203" style="stroke:#181818;stroke-width:1.0;"/><line style="stroke:#181818;stroke-width:1.0;stroke-dasharray:2.0,2.0;" x1="80.5" x2="1508.5" y1="507.3203" y2="507.3203"/><text fill="#000000" font-family="sans-serif" font-size="13" font-weight="bold" lengthAdjust="spacing" textLength="9" x="92.5" y="502.2544">9</text><text fill="#000000" font-family="sans-serif" font-size="13" lengthAdjust="spacing" textLength="172" x="105.5" y="502.2544">Displays success message</text><!--SRC=[pLJ1Rjim3BthAuYU4g39xZaCA90TT_Bs0OpCs48ioHFb1kxNzzbn4gVDWcAdNGo14X_VUoIj1nTQJkp9nn1jdQ8NogaJevURbks1AobotmWbiPb3rSmVQCrbFBfGqPuR5MEootZwMoLHaMFgQKL5hray5VAdas25jewh8NTH5DkbCTpb63g_auIpHGuz3Pb2FpcWTdeYrlFPe6fsrhKSCfwDmEFzwJW2k5VEbsHZfWEjla-FDc3IG8fIZeJBfd-3xbge54YOGKoO4_qL02Qi3RteOKpN4GdEL4bKNGpmifI6SjyABSG1Df4wty8J2FDTantEIuDQ7yey8leHtt2JwSQaYOcUYrqplg27Dh0GWewripNHAoV7Eu0isXHRWU52BqduUUiK0u0ExZ4hP5tkoKh8IPvF_QEufvta5ADNciSurqDm5a8V3yFKA2PCT3dwxoSsHpHNnuYUgCBeIdwDaJqqMzPC4xKU1sTbRIIK15VCp1f_Oyt5_BatzxoOMS40hUDnGEeljkX_vSkFB_hoQRhGzFFC339TmCfcY6mwA0o2wiffhlhKXlou715zdarRnwX0YA7fyP7hX0sLkInlha1WAENGotkh1xFRXdlzEmTpEmnd5YU5YWrAuxw7stfOoFfAB5utwixShF-96HWG4tvzRKsBSwM5Bh_DtkFPSdqLyB2CTdRe4lcXLPNS-wVCGbF-Em00]--></g></svg>