<?xml version="1.0" encoding="us-ascii" standalone="no"?><svg xmlns="http://www.w3.org/2000/svg" xmlns:xlink="http://www.w3.org/1999/xlink" contentStyleType="text/css" height="382.8px" preserveAspectRatio="none" style="width:799px;height:382px;background:#FFFFFF;" version="1.1" viewBox="0 0 799 382" width="799.8px" zoomAndPan="magnify"><defs/><g><rect fill="#FFFFFF" height="293.3391" style="stroke:#181818;stroke-width:0.6;" width="6" x="126" y="49.0828"/><rect fill="#FFFFFF" height="17.1141" style="stroke:#181818;stroke-width:0.6;" width="6" x="223.2" y="80.3109"/><rect fill="#FFFFFF" height="17.1141" style="stroke:#181818;stroke-width:0.6;" width="6" x="311.4" y="114.5391"/><rect fill="#FFFFFF" height="17.1141" style="stroke:#181818;stroke-width:0.6;" width="6" x="391.2" y="148.7672"/><rect fill="#FFFFFF" height="17.1141" style="stroke:#181818;stroke-width:0.6;" width="6" x="523.2" y="182.9953"/><rect fill="#FFFFFF" height="69.6563" style="stroke:#181818;stroke-width:0.6;" width="6" x="601.2" y="217.2234"/><rect fill="#FFFFFF" height="17.1141" style="stroke:#181818;stroke-width:0.6;" width="6" x="751.8" y="248.4516"/><rect fill="#FFFFFF" height="17.1141" style="stroke:#181818;stroke-width:0.6;" width="6" x="751.8" y="303.9938"/><rect fill="none" height="267.825" style="stroke:#000000;stroke-width:0.8999999999999999;" width="723.3" x="72.9" y="58.0828"/><rect fill="none" height="44.1422" style="stroke:#000000;stroke-width:0.8999999999999999;" width="234.9" x="555.3" y="226.2234"/><line style="stroke:#181818;stroke-width:0.3;stroke-dasharray:5.0,5.0;" x1="128.7" x2="128.7" y1="30.7687" y2="353.2219"/><line style="stroke:#181818;stroke-width:0.3;stroke-dasharray:5.0,5.0;" x1="225.9" x2="225.9" y1="30.7687" y2="353.2219"/><line style="stroke:#181818;stroke-width:0.3;stroke-dasharray:5.0,5.0;" x1="314.1" x2="314.1" y1="30.7687" y2="353.2219"/><line style="stroke:#181818;stroke-width:0.3;stroke-dasharray:5.0,5.0;" x1="393.9" x2="393.9" y1="30.7687" y2="353.2219"/><line style="stroke:#181818;stroke-width:0.3;stroke-dasharray:5.0,5.0;" x1="461.7" x2="461.7" y1="30.7687" y2="353.2219"/><line style="stroke:#181818;stroke-width:0.3;stroke-dasharray:5.0,5.0;" x1="525.9" x2="525.9" y1="30.7687" y2="353.2219"/><line style="stroke:#181818;stroke-width:0.3;stroke-dasharray:5.0,5.0;" x1="603.9" x2="603.9" y1="30.7687" y2="353.2219"/><line style="stroke:#181818;stroke-width:0.3;stroke-dasharray:5.0,5.0;" x1="754.8" x2="754.8" y1="30.7687" y2="353.2219"/><rect fill="#E3E3E3" height="17.7844" rx="1.5" ry="1.5" style="stroke:#181818;stroke-width:0.3;" width="100.2" x="78.9" y="12.3844"/><text fill="#000000" font-family="sans-serif" font-size="8.4" lengthAdjust="spacing" textLength="91.8" x="83.1" y="24.1887">:RegisterStoreController</text><rect fill="#E3E3E3" height="17.7844" rx="1.5" ry="1.5" style="stroke:#181818;stroke-width:0.3;" width="100.2" x="78.9" y="352.6219"/><text fill="#000000" font-family="sans-serif" font-size="8.4" lengthAdjust="spacing" textLength="91.8" x="83.1" y="364.4262">:RegisterStoreController</text><rect fill="#E3E3E3" height="17.7844" rx="1.5" ry="1.5" style="stroke:#181818;stroke-width:0.3;" width="82.2" x="185.1" y="12.3844"/><text fill="#000000" font-family="sans-serif" font-size="8.4" lengthAdjust="spacing" textLength="73.8" x="189.3" y="24.1887">:ApplicationSession</text><rect fill="#E3E3E3" height="17.7844" rx="1.5" ry="1.5" style="stroke:#181818;stroke-width:0.3;" width="82.2" x="185.1" y="352.6219"/><text fill="#000000" font-family="sans-serif" font-size="8.4" lengthAdjust="spacing" textLength="73.8" x="189.3" y="364.4262">:ApplicationSession</text><rect fill="#E3E3E3" height="27.1688" rx="1.5" ry="1.5" style="stroke:#181818;stroke-width:0.3;" width="82.2" x="273.3" y="3"/><text fill="#000000" font-family="sans-serif" font-size="8.4" lengthAdjust="spacing" textLength="44.4" x="292.2" y="14.8043">appSession</text><text fill="#000000" font-family="sans-serif" font-size="8.4" lengthAdjust="spacing" textLength="73.8" x="277.5" y="24.1887">:ApplicationSession</text><rect fill="#E3E3E3" height="27.1688" rx="1.5" ry="1.5" style="stroke:#181818;stroke-width:0.3;" width="82.2" x="273.3" y="352.6219"/><text fill="#000000" font-family="sans-serif" font-size="8.4" lengthAdjust="spacing" textLength="44.4" x="292.2" y="364.4262">appSession</text><text fill="#000000" font-family="sans-serif" font-size="8.4" lengthAdjust="spacing" textLength="73.8" x="277.5" y="373.8105">:ApplicationSession</text><rect fill="#E3E3E3" height="27.1688" rx="1.5" ry="1.5" style="stroke:#181818;stroke-width:0.3;" width="65.4" x="361.5" y="3"/><text fill="#000000" font-family="sans-serif" font-size="8.4" lengthAdjust="spacing" textLength="57" x="365.7" y="14.8043">currentSession</text><text fill="#000000" font-family="sans-serif" font-size="8.4" lengthAdjust="spacing" textLength="49.8" x="369.3" y="24.1887">:UserSession</text><rect fill="#E3E3E3" height="27.1688" rx="1.5" ry="1.5" style="stroke:#181818;stroke-width:0.3;" width="65.4" x="361.5" y="352.6219"/><text fill="#000000" font-family="sans-serif" font-size="8.4" lengthAdjust="spacing" textLength="57" x="365.7" y="364.4262">currentSession</text><text fill="#000000" font-family="sans-serif" font-size="8.4" lengthAdjust="spacing" textLength="49.8" x="369.3" y="373.8105">:UserSession</text><rect fill="#E3E3E3" height="17.7844" rx="1.5" ry="1.5" style="stroke:#181818;stroke-width:0.3;" width="58.2" x="432.9" y="12.3844"/><text fill="#000000" font-family="sans-serif" font-size="8.4" lengthAdjust="spacing" textLength="49.8" x="437.1" y="24.1887">:Repositories</text><rect fill="#E3E3E3" height="17.7844" rx="1.5" ry="1.5" style="stroke:#181818;stroke-width:0.3;" width="58.2" x="432.9" y="352.6219"/><text fill="#000000" font-family="sans-serif" font-size="8.4" lengthAdjust="spacing" textLength="49.8" x="437.1" y="364.4262">:Repositories</text><rect fill="#E3E3E3" height="27.1688" rx="1.5" ry="1.5" style="stroke:#181818;stroke-width:0.3;" width="58.2" x="497.1" y="3"/><text fill="#000000" font-family="sans-serif" font-size="8.4" lengthAdjust="spacing" textLength="44.4" x="504" y="14.8043">repositories</text><text fill="#000000" font-family="sans-serif" font-size="8.4" lengthAdjust="spacing" textLength="49.8" x="501.3" y="24.1887">:Repositories</text><rect fill="#E3E3E3" height="27.1688" rx="1.5" ry="1.5" style="stroke:#181818;stroke-width:0.3;" width="58.2" x="497.1" y="352.6219"/><text fill="#000000" font-family="sans-serif" font-size="8.4" lengthAdjust="spacing" textLength="44.4" x="504" y="364.4262">repositories</text><text fill="#000000" font-family="sans-serif" font-size="8.4" lengthAdjust="spacing" textLength="49.8" x="501.3" y="373.8105">:Repositories</text><rect fill="#E3E3E3" height="27.1688" rx="1.5" ry="1.5" style="stroke:#181818;stroke-width:0.3;" width="85.8" x="561.3" y="3"/><text fill="#000000" font-family="sans-serif" font-size="8.4" lengthAdjust="spacing" textLength="77.4" x="565.5" y="14.8043">companyRepository:</text><text fill="#000000" font-family="sans-serif" font-size="8.4" lengthAdjust="spacing" textLength="76.8" x="565.8" y="24.1887">CompanyRepository</text><rect fill="#E3E3E3" height="27.1688" rx="1.5" ry="1.5" style="stroke:#181818;stroke-width:0.3;" width="85.8" x="561.3" y="352.6219"/><text fill="#000000" font-family="sans-serif" font-size="8.4" lengthAdjust="spacing" textLength="77.4" x="565.5" y="364.4262">companyRepository:</text><text fill="#000000" font-family="sans-serif" font-size="8.4" lengthAdjust="spacing" textLength="76.8" x="565.8" y="373.8105">CompanyRepository</text><rect fill="#E3E3E3" height="27.1688" rx="1.5" ry="1.5" style="stroke:#181818;stroke-width:0.3;" width="58.8" x="725.4" y="3"/><text fill="#000000" font-family="sans-serif" font-size="8.4" lengthAdjust="spacing" textLength="46.2" x="731.7" y="14.8043">organization</text><text fill="#000000" font-family="sans-serif" font-size="8.4" lengthAdjust="spacing" textLength="50.4" x="729.6" y="24.1887">:Organization</text><rect fill="#E3E3E3" height="27.1688" rx="1.5" ry="1.5" style="stroke:#181818;stroke-width:0.3;" width="58.8" x="725.4" y="352.6219"/><text fill="#000000" font-family="sans-serif" font-size="8.4" lengthAdjust="spacing" textLength="46.2" x="731.7" y="364.4262">organization</text><text fill="#000000" font-family="sans-serif" font-size="8.4" lengthAdjust="spacing" textLength="50.4" x="729.6" y="373.8105">:Organization</text><rect fill="#FFFFFF" height="293.3391" style="stroke:#181818;stroke-width:0.6;" width="6" x="126" y="49.0828"/><rect fill="#FFFFFF" height="17.1141" style="stroke:#181818;stroke-width:0.6;" width="6" x="223.2" y="80.3109"/><rect fill="#FFFFFF" height="17.1141" style="stroke:#181818;stroke-width:0.6;" width="6" x="311.4" y="114.5391"/><rect fill="#FFFFFF" height="17.1141" style="stroke:#181818;stroke-width:0.6;" width="6" x="391.2" y="148.7672"/><rect fill="#FFFFFF" height="17.1141" style="stroke:#181818;stroke-width:0.6;" width="6" x="523.2" y="182.9953"/><rect fill="#FFFFFF" height="69.6563" style="stroke:#181818;stroke-width:0.6;" width="6" x="601.2" y="217.2234"/><rect fill="#FFFFFF" height="17.1141" style="stroke:#181818;stroke-width:0.6;" width="6" x="751.8" y="248.4516"/><rect fill="#FFFFFF" height="17.1141" style="stroke:#181818;stroke-width:0.6;" width="6" x="751.8" y="303.9938"/><polygon fill="#181818" points="118.8,46.6828,124.8,49.0828,118.8,51.4828,121.2,49.0828" style="stroke:#181818;stroke-width:0.6;"/><line style="stroke:#181818;stroke-width:0.6;" x1="0" x2="122.4" y1="49.0828" y2="49.0828"/><text fill="#000000" font-family="sans-serif" font-size="7.8" font-weight="bold" lengthAdjust="spacing" textLength="4.2" x="4.2" y="46.2299">8</text><text fill="#000000" font-family="sans-serif" font-size="7.8" lengthAdjust="spacing" textLength="108" x="10.8" y="46.2299">getAdministratorFromSession()</text><path d="M72.9,58.0828 L166.5,58.0828 L166.5,61.9969 L160.5,67.9969 L72.9,67.9969 L72.9,58.0828 " fill="#EEEEEE" style="stroke:#000000;stroke-width:0.8999999999999999;"/><rect fill="none" height="267.825" style="stroke:#000000;stroke-width:0.8999999999999999;" width="723.3" x="72.9" y="58.0828"/><text fill="#000000" font-family="sans-serif" font-size="7.8" font-weight="bold" lengthAdjust="spacing" textLength="66.6" x="81.9" y="65.7439">Get Administrator</text><polygon fill="#181818" points="216,77.9109,222,80.3109,216,82.7109,218.4,80.3109" style="stroke:#181818;stroke-width:0.6;"/><line style="stroke:#181818;stroke-width:0.6;" x1="132" x2="219.6" y1="80.3109" y2="80.3109"/><text fill="#000000" font-family="sans-serif" font-size="7.8" font-weight="bold" lengthAdjust="spacing" textLength="10.8" x="136.2" y="77.458">8.1</text><text fill="#000000" font-family="sans-serif" font-size="7.8" lengthAdjust="spacing" textLength="45" x="149.4" y="77.458">getInstance()</text><polygon fill="#181818" points="138.6,95.025,132.6,97.425,138.6,99.825,136.2,97.425" style="stroke:#181818;stroke-width:0.6;"/><line style="stroke:#181818;stroke-width:0.6;" x1="135" x2="225.6" y1="97.425" y2="97.425"/><text fill="#000000" font-family="sans-serif" font-size="7.8" font-weight="bold" lengthAdjust="spacing" textLength="10.8" x="142.2" y="94.5721">8.2</text><text fill="#000000" font-family="sans-serif" font-size="7.8" lengthAdjust="spacing" textLength="40.8" x="155.4" y="94.5721">appSession</text><polygon fill="#181818" points="304.2,112.1391,310.2,114.5391,304.2,116.9391,306.6,114.5391" style="stroke:#181818;stroke-width:0.6;"/><line style="stroke:#181818;stroke-width:0.6;" x1="132" x2="307.8" y1="114.5391" y2="114.5391"/><text fill="#000000" font-family="sans-serif" font-size="7.8" font-weight="bold" lengthAdjust="spacing" textLength="10.8" x="136.2" y="111.6861">8.3</text><text fill="#000000" font-family="sans-serif" font-size="7.8" lengthAdjust="spacing" textLength="69" x="149.4" y="111.6861">getCurrentSession()</text><polygon fill="#181818" points="138.6,129.2531,132.6,131.6531,138.6,134.0531,136.2,131.6531" style="stroke:#181818;stroke-width:0.6;"/><line style="stroke:#181818;stroke-width:0.6;stroke-dasharray:2.0,2.0;" x1="135" x2="313.8" y1="131.6531" y2="131.6531"/><text fill="#000000" font-family="sans-serif" font-size="7.8" font-weight="bold" lengthAdjust="spacing" textLength="10.8" x="142.2" y="128.8002">8.4</text><text fill="#000000" font-family="sans-serif" font-size="7.8" lengthAdjust="spacing" textLength="52.2" x="155.4" y="128.8002">currentSession</text><polygon fill="#181818" points="384,146.3672,390,148.7672,384,151.1672,386.4,148.7672" style="stroke:#181818;stroke-width:0.6;"/><line style="stroke:#181818;stroke-width:0.6;" x1="132" x2="387.6" y1="148.7672" y2="148.7672"/><text fill="#000000" font-family="sans-serif" font-size="7.8" font-weight="bold" lengthAdjust="spacing" textLength="10.8" x="136.2" y="145.9143">8.5</text><text fill="#000000" font-family="sans-serif" font-size="7.8" lengthAdjust="spacing" textLength="79.8" x="149.4" y="145.9143">email = getUserEmail()</text><polygon fill="#181818" points="138.6,163.4813,132.6,165.8813,138.6,168.2813,136.2,165.8813" style="stroke:#181818;stroke-width:0.6;"/><line style="stroke:#181818;stroke-width:0.6;stroke-dasharray:2.0,2.0;" x1="135" x2="393.6" y1="165.8813" y2="165.8813"/><text fill="#000000" font-family="sans-serif" font-size="7.8" font-weight="bold" lengthAdjust="spacing" textLength="10.8" x="142.2" y="163.0283">8.6</text><text fill="#000000" font-family="sans-serif" font-size="7.8" lengthAdjust="spacing" textLength="18.6" x="155.4" y="163.0283">email</text><polygon fill="#181818" points="516,180.5953,522,182.9953,516,185.3953,518.4,182.9953" style="stroke:#181818;stroke-width:0.6;"/><line style="stroke:#181818;stroke-width:0.6;" x1="132" x2="519.6" y1="182.9953" y2="182.9953"/><text fill="#000000" font-family="sans-serif" font-size="7.8" font-weight="bold" lengthAdjust="spacing" textLength="10.8" x="136.2" y="180.1424">8.7</text><text fill="#000000" font-family="sans-serif" font-size="7.8" lengthAdjust="spacing" textLength="104.4" x="149.4" y="180.1424">getCompanyRepository(email)</text><polygon fill="#181818" points="138.6,197.7094,132.6,200.1094,138.6,202.5094,136.2,200.1094" style="stroke:#181818;stroke-width:0.6;"/><line style="stroke:#181818;stroke-width:0.6;stroke-dasharray:2.0,2.0;" x1="135" x2="525.6" y1="200.1094" y2="200.1094"/><text fill="#000000" font-family="sans-serif" font-size="7.8" font-weight="bold" lengthAdjust="spacing" textLength="10.8" x="142.2" y="197.2564">8.8</text><text fill="#000000" font-family="sans-serif" font-size="7.8" lengthAdjust="spacing" textLength="69" x="155.4" y="197.2564">companyRepository</text><polygon fill="#181818" points="594,214.8234,600,217.2234,594,219.6234,596.4,217.2234" style="stroke:#181818;stroke-width:0.6;"/><line style="stroke:#181818;stroke-width:0.6;" x1="132" x2="597.6" y1="217.2234" y2="217.2234"/><text fill="#000000" font-family="sans-serif" font-size="7.8" font-weight="bold" lengthAdjust="spacing" textLength="10.8" x="136.2" y="214.3705">8.9</text><text fill="#000000" font-family="sans-serif" font-size="7.8" lengthAdjust="spacing" textLength="112.8" x="149.4" y="214.3705">getCompanyByUserEmail(email)</text><path d="M555.3,226.2234 L599.1,226.2234 L599.1,230.1375 L593.1,236.1375 L555.3,236.1375 L555.3,226.2234 " fill="#EEEEEE" style="stroke:#000000;stroke-width:0.8999999999999999;"/><rect fill="none" height="44.1422" style="stroke:#000000;stroke-width:0.8999999999999999;" width="234.9" x="555.3" y="226.2234"/><text fill="#000000" font-family="sans-serif" font-size="7.8" font-weight="bold" lengthAdjust="spacing" textLength="16.8" x="564.3" y="233.8846">loop</text><text fill="#000000" font-family="sans-serif" font-size="6.6" font-weight="bold" lengthAdjust="spacing" textLength="66" x="608.1" y="233.3982">[[for each company]</text><polygon fill="#181818" points="744.6,246.0516,750.6,248.4516,744.6,250.8516,747,248.4516" style="stroke:#181818;stroke-width:0.6;"/><line style="stroke:#181818;stroke-width:0.6;" x1="607.2" x2="748.2" y1="248.4516" y2="248.4516"/><text fill="#000000" font-family="sans-serif" font-size="7.8" font-weight="bold" lengthAdjust="spacing" textLength="15" x="611.4" y="245.5986">8.10</text><text fill="#000000" font-family="sans-serif" font-size="7.8" lengthAdjust="spacing" textLength="115.8" x="628.8" y="245.5986">anyAdministratorHasEmail(email)</text><polygon fill="#181818" points="613.8,263.1656,607.8,265.5656,613.8,267.9656,611.4,265.5656" style="stroke:#181818;stroke-width:0.6;"/><line style="stroke:#181818;stroke-width:0.6;stroke-dasharray:2.0,2.0;" x1="610.2" x2="754.2" y1="265.5656" y2="265.5656"/><text fill="#000000" font-family="sans-serif" font-size="7.8" font-weight="bold" lengthAdjust="spacing" textLength="15" x="617.4" y="262.7127">8.11</text><text fill="#000000" font-family="sans-serif" font-size="7.8" lengthAdjust="spacing" textLength="31.8" x="634.8" y="262.7127">true/false</text><polygon fill="#181818" points="138.6,284.4797,132.6,286.8797,138.6,289.2797,136.2,286.8797" style="stroke:#181818;stroke-width:0.6;"/><line style="stroke:#181818;stroke-width:0.6;stroke-dasharray:2.0,2.0;" x1="135" x2="603.6" y1="286.8797" y2="286.8797"/><text fill="#000000" font-family="sans-serif" font-size="7.8" font-weight="bold" lengthAdjust="spacing" textLength="15" x="142.2" y="284.0268">8.12</text><text fill="#000000" font-family="sans-serif" font-size="7.8" lengthAdjust="spacing" textLength="31.8" x="159.6" y="284.0268">company</text><polygon fill="#181818" points="744.6,301.5938,750.6,303.9938,744.6,306.3938,747,303.9938" style="stroke:#181818;stroke-width:0.6;"/><line style="stroke:#181818;stroke-width:0.6;" x1="132" x2="748.2" y1="303.9938" y2="303.9938"/><text fill="#000000" font-family="sans-serif" font-size="7.8" font-weight="bold" lengthAdjust="spacing" textLength="15" x="136.2" y="301.1408">8.13</text><text fill="#000000" font-family="sans-serif" font-size="7.8" lengthAdjust="spacing" textLength="109.8" x="153.6" y="301.1408">getAdministratorByEmail(email)</text><polygon fill="#181818" points="138.6,318.7078,132.6,321.1078,138.6,323.5078,136.2,321.1078" style="stroke:#181818;stroke-width:0.6;"/><line style="stroke:#181818;stroke-width:0.6;stroke-dasharray:2.0,2.0;" x1="135" x2="754.2" y1="321.1078" y2="321.1078"/><text fill="#000000" font-family="sans-serif" font-size="7.8" font-weight="bold" lengthAdjust="spacing" textLength="15" x="142.2" y="318.2549">8.14</text><text fill="#000000" font-family="sans-serif" font-size="7.8" lengthAdjust="spacing" textLength="45" x="159.6" y="318.2549">administrator</text><polygon fill="#181818" points="6.6,340.0219,0.6,342.4219,6.6,344.8219,4.2,342.4219" style="stroke:#181818;stroke-width:0.6;"/><line style="stroke:#181818;stroke-width:0.6;stroke-dasharray:2.0,2.0;" x1="3" x2="128.4" y1="342.4219" y2="342.4219"/><text fill="#000000" font-family="sans-serif" font-size="7.8" font-weight="bold" lengthAdjust="spacing" textLength="4.2" x="10.2" y="339.5689">9</text><text fill="#000000" font-family="sans-serif" font-size="7.8" lengthAdjust="spacing" textLength="45" x="16.8" y="339.5689">administrator</text><!--SRC=[VLHDRzim3BtxLn2zh3jamswRiGr8WwuhK2n1t9vMO50TnX5gIuAaRCj-_IWvjYLBhIw9AVAznm_HF7EXc6OTT5B8-g1bXs3r4GiptYXMFxC6Atjg4JJMbecc3HtCWUta7ouQsBFMO47dpO7l4FPIsYVvjo0toskkcB1mKMwnuSQYhgpKk9B2Qjcsg2-06LZTR-zcxakbMbupowMeq1ZwyPw_bfjDxCcKEZiyYfUYag3wg3KAEmK-658MH5JNLNMx_f7aeAJXb017uzr6mwdYhZnMYZX41n54am1ixfRtCscoep-d2Rby5AkvhQ_Qt1e3ITqmmV_vOX3rElZquUljJL6m8qa-Ta-euMEn-Eex0IKqQ9UxZWlgc6O4_Oqcv5oUoxTHqBiF1Qij_yqizcqiW4wZvL713Lg8OFoTEvw6w5mxFTkjC3HWDHBwu3F2-fv3S9m1pc9Bc0PWTDfX79pm3hIhQ0vov56uEvvx98y7AISWotyUhnAmOxo5BqwB6y5hzvcJCSnZ9ELi3EHuk9oA97vGuWQmByLycYuzM4QBdzb8YBE4HKa6CwCeHXda92f2RLUdgKOlYKiVHQIqbLB1pxtKG4eEWzB8nSkPepXjz63eQP0vckdlp6GL9ShyUuFSSS2BNF94vxRo-tx1piE2OZhiy0h5BkRA93Izzg4AkJQzKi-XPqIUReohq-jzIgen5g7NnB9x8vEoIzKZJqlfapTyNYpoO65sRcFz1m00]--></g></svg>