<?xml version="1.0" encoding="us-ascii" standalone="no"?><svg xmlns="http://www.w3.org/2000/svg" xmlns:xlink="http://www.w3.org/1999/xlink" contentStyleType="text/css" height="447px" preserveAspectRatio="none" style="width:667px;height:447px;background:#FFFFFF;" version="1.1" viewBox="0 0 667 447" width="667.2px" zoomAndPan="magnify"><defs/><g><rect fill="#FFFFFF" height="334.2984" style="stroke:#181818;stroke-width:0.6;" width="6" x="41.7" y="54.3844"/><rect fill="#FFFFFF" height="41.4984" style="stroke:#181818;stroke-width:0.6;" width="6" x="230.7" y="66.6984"/><rect fill="#FFFFFF" height="17.1141" style="stroke:#181818;stroke-width:0.6;" width="6" x="230.7" y="134.025"/><rect fill="#FFFFFF" height="220.4297" style="stroke:#181818;stroke-width:0.6;" width="6" x="230.7" y="168.2531"/><rect fill="#FFFFFF" height="177.4875" style="stroke:#181818;stroke-width:0.6;" width="6" x="440.7" y="194.0812"/><rect fill="#FFFFFF" height="57.5156" style="stroke:#181818;stroke-width:0.6;" width="6" x="443.7" y="215.9953"/><rect fill="#FFFFFF" height="50.9156" style="stroke:#181818;stroke-width:0.6;" width="6" x="633.9" y="303.5391"/><line style="stroke:#181818;stroke-width:0.3;stroke-dasharray:5.0,5.0;" x1="44.4" x2="44.4" y1="48.3844" y2="399.4828"/><line style="stroke:#181818;stroke-width:0.3;stroke-dasharray:5.0,5.0;" x1="233.4" x2="233.4" y1="48.3844" y2="399.4828"/><line style="stroke:#181818;stroke-width:0.3;stroke-dasharray:5.0,5.0;" x1="443.4" x2="443.4" y1="89.6906" y2="399.4828"/><line style="stroke:#181818;stroke-width:0.3;stroke-dasharray:5.0,5.0;" x1="636.9" x2="636.9" y1="48.3844" y2="399.4828"/><text fill="#000000" font-family="sans-serif" font-size="8.4" lengthAdjust="spacing" textLength="79.8" x="3" y="46.6043">System Administrator</text><ellipse cx="44.7" cy="8.1" fill="#E3E3E3" rx="4.8" ry="4.8" style="stroke:#181818;stroke-width:0.3;"/><path d="M44.7,12.9 L44.7,29.1 M36.9,17.7 L52.5,17.7 M44.7,29.1 L36.9,38.1 M44.7,29.1 L52.5,38.1 " fill="none" style="stroke:#181818;stroke-width:0.3;"/><text fill="#000000" font-family="sans-serif" font-size="8.4" lengthAdjust="spacing" textLength="79.8" x="3" y="406.4871">System Administrator</text><ellipse cx="44.7" cy="413.3672" fill="#E3E3E3" rx="4.8" ry="4.8" style="stroke:#181818;stroke-width:0.3;"/><path d="M44.7,418.1672 L44.7,434.3672 M36.9,422.9672 L52.5,422.9672 M44.7,434.3672 L36.9,443.3672 M44.7,434.3672 L52.5,443.3672 " fill="none" style="stroke:#181818;stroke-width:0.3;"/><rect fill="#E3E3E3" height="17.7844" rx="1.5" ry="1.5" style="stroke:#181818;stroke-width:0.3;" width="70.2" x="198.6" y="30"/><text fill="#000000" font-family="sans-serif" font-size="8.4" lengthAdjust="spacing" textLength="61.8" x="202.8" y="41.8043">:RegisterStoreUI</text><rect fill="#E3E3E3" height="17.7844" rx="1.5" ry="1.5" style="stroke:#181818;stroke-width:0.3;" width="70.2" x="198.6" y="398.8828"/><text fill="#000000" font-family="sans-serif" font-size="8.4" lengthAdjust="spacing" textLength="61.8" x="202.8" y="410.6871">:RegisterStoreUI</text><rect fill="#E3E3E3" height="17.7844" rx="1.5" ry="1.5" style="stroke:#181818;stroke-width:0.3;" width="100.2" x="393.6" y="398.8828"/><text fill="#000000" font-family="sans-serif" font-size="8.4" lengthAdjust="spacing" textLength="91.8" x="397.8" y="410.6871">:RegisterStoreController</text><rect fill="#E3E3E3" height="27.1688" rx="1.5" ry="1.5" style="stroke:#181818;stroke-width:0.3;" width="46.8" x="613.5" y="20.6156"/><text fill="#000000" font-family="sans-serif" font-size="8.4" lengthAdjust="spacing" textLength="34.2" x="619.8" y="32.4199">company</text><text fill="#000000" font-family="sans-serif" font-size="8.4" lengthAdjust="spacing" textLength="38.4" x="617.7" y="41.8043">:Company</text><rect fill="#E3E3E3" height="27.1688" rx="1.5" ry="1.5" style="stroke:#181818;stroke-width:0.3;" width="46.8" x="613.5" y="398.8828"/><text fill="#000000" font-family="sans-serif" font-size="8.4" lengthAdjust="spacing" textLength="34.2" x="619.8" y="410.6871">company</text><text fill="#000000" font-family="sans-serif" font-size="8.4" lengthAdjust="spacing" textLength="38.4" x="617.7" y="420.0715">:Company</text><rect fill="#FFFFFF" height="334.2984" style="stroke:#181818;stroke-width:0.6;" width="6" x="41.7" y="54.3844"/><rect fill="#FFFFFF" height="41.4984" style="stroke:#181818;stroke-width:0.6;" width="6" x="230.7" y="66.6984"/><rect fill="#FFFFFF" height="17.1141" style="stroke:#181818;stroke-width:0.6;" width="6" x="230.7" y="134.025"/><rect fill="#FFFFFF" height="220.4297" style="stroke:#181818;stroke-width:0.6;" width="6" x="230.7" y="168.2531"/><rect fill="#FFFFFF" height="177.4875" style="stroke:#181818;stroke-width:0.6;" width="6" x="440.7" y="194.0812"/><rect fill="#FFFFFF" height="57.5156" style="stroke:#181818;stroke-width:0.6;" width="6" x="443.7" y="215.9953"/><rect fill="#FFFFFF" height="50.9156" style="stroke:#181818;stroke-width:0.6;" width="6" x="633.9" y="303.5391"/><polygon fill="#181818" points="223.5,64.2984,229.5,66.6984,223.5,69.0984,225.9,66.6984" style="stroke:#181818;stroke-width:0.6;"/><line style="stroke:#181818;stroke-width:0.6;" x1="47.7" x2="227.1" y1="66.6984" y2="66.6984"/><text fill="#000000" font-family="sans-serif" font-size="7.8" font-weight="bold" lengthAdjust="spacing" textLength="4.2" x="51.9" y="63.8455">1</text><text fill="#000000" font-family="sans-serif" font-size="7.8" lengthAdjust="spacing" textLength="96.6" x="58.5" y="63.8455">asks to register a new store</text><polygon fill="#181818" points="386.4,81.4125,392.4,83.8125,386.4,86.2125,388.8,83.8125" style="stroke:#181818;stroke-width:0.6;"/><line style="stroke:#181818;stroke-width:0.6;" x1="236.7" x2="390" y1="83.8125" y2="83.8125"/><text fill="#000000" font-family="sans-serif" font-size="7.8" font-weight="bold" lengthAdjust="spacing" textLength="4.2" x="240.9" y="80.9596">2</text><text fill="#000000" font-family="sans-serif" font-size="7.8" lengthAdjust="spacing" textLength="25.8" x="247.5" y="80.9596">register</text><rect fill="#E3E3E3" height="17.7844" rx="1.5" ry="1.5" style="stroke:#181818;stroke-width:0.3;" width="100.2" x="393.6" y="71.4984"/><text fill="#000000" font-family="sans-serif" font-size="8.4" lengthAdjust="spacing" textLength="91.8" x="397.8" y="83.3027">:RegisterStoreController</text><polygon fill="#181818" points="54.3,105.7969,48.3,108.1969,54.3,110.5969,51.9,108.1969" style="stroke:#181818;stroke-width:0.6;"/><line style="stroke:#181818;stroke-width:0.6;stroke-dasharray:2.0,2.0;" x1="50.7" x2="233.1" y1="108.1969" y2="108.1969"/><text fill="#000000" font-family="sans-serif" font-size="7.8" font-weight="bold" lengthAdjust="spacing" textLength="4.2" x="57.9" y="105.3439">3</text><text fill="#000000" font-family="sans-serif" font-size="7.8" lengthAdjust="spacing" textLength="47.4" x="64.5" y="105.3439">requests data</text><polygon fill="#181818" points="223.5,131.625,229.5,134.025,223.5,136.425,225.9,134.025" style="stroke:#181818;stroke-width:0.6;"/><line style="stroke:#181818;stroke-width:0.6;" x1="47.7" x2="227.1" y1="134.025" y2="134.025"/><text fill="#000000" font-family="sans-serif" font-size="7.8" font-weight="bold" lengthAdjust="spacing" textLength="4.2" x="51.9" y="126.815">4</text><text fill="#000000" font-family="sans-serif" font-size="7.8" lengthAdjust="spacing" textLength="162.6" x="58.5" y="122.458">types requested data (id, designation, location,</text><text fill="#000000" font-family="sans-serif" font-size="7.8" lengthAdjust="spacing" textLength="158.4" x="58.5" y="131.1721">email address and contact telephone number)</text><polygon fill="#181818" points="54.3,148.7391,48.3,151.1391,54.3,153.5391,51.9,151.1391" style="stroke:#181818;stroke-width:0.6;"/><line style="stroke:#181818;stroke-width:0.6;stroke-dasharray:2.0,2.0;" x1="50.7" x2="233.1" y1="151.1391" y2="151.1391"/><text fill="#000000" font-family="sans-serif" font-size="7.8" font-weight="bold" lengthAdjust="spacing" textLength="4.2" x="57.9" y="148.2861">5</text><text fill="#000000" font-family="sans-serif" font-size="7.8" lengthAdjust="spacing" textLength="61.2" x="64.5" y="148.2861">shows typed data</text><polygon fill="#181818" points="223.5,165.8531,229.5,168.2531,223.5,170.6531,225.9,168.2531" style="stroke:#181818;stroke-width:0.6;"/><line style="stroke:#181818;stroke-width:0.6;" x1="47.7" x2="227.1" y1="168.2531" y2="168.2531"/><text fill="#000000" font-family="sans-serif" font-size="7.8" font-weight="bold" lengthAdjust="spacing" textLength="4.2" x="51.9" y="165.4002">6</text><text fill="#000000" font-family="sans-serif" font-size="7.8" lengthAdjust="spacing" textLength="45" x="58.5" y="165.4002">submits data</text><polygon fill="#181818" points="433.5,191.6813,439.5,194.0812,433.5,196.4813,435.9,194.0812" style="stroke:#181818;stroke-width:0.6;"/><line style="stroke:#181818;stroke-width:0.6;" x1="236.7" x2="437.1" y1="194.0812" y2="194.0812"/><text fill="#000000" font-family="sans-serif" font-size="7.8" font-weight="bold" lengthAdjust="spacing" textLength="4.2" x="240.9" y="186.8713">7</text><text fill="#000000" font-family="sans-serif" font-size="7.8" lengthAdjust="spacing" textLength="183.6" x="247.5" y="182.5143">registerStore(id, designation, location, emailAddress,</text><text fill="#000000" font-family="sans-serif" font-size="7.8" lengthAdjust="spacing" textLength="148.8" x="247.5" y="191.2283">telephoneNumber, organizationDescription)</text><line style="stroke:#181818;stroke-width:0.6;" x1="446.7" x2="474.9" y1="208.1953" y2="208.1953"/><line style="stroke:#181818;stroke-width:0.6;" x1="474.9" x2="474.9" y1="208.1953" y2="215.9953"/><line style="stroke:#181818;stroke-width:0.6;" x1="450.3" x2="474.9" y1="215.9953" y2="215.9953"/><polygon fill="#181818" points="456.3,213.5953,450.3,215.9953,456.3,218.3953,453.9,215.9953" style="stroke:#181818;stroke-width:0.6;"/><text fill="#000000" font-family="sans-serif" font-size="7.8" font-weight="bold" lengthAdjust="spacing" textLength="4.2" x="453.9" y="205.3424">8</text><text fill="#000000" font-family="sans-serif" font-size="7.8" lengthAdjust="spacing" textLength="108" x="460.5" y="205.3424">getAdministratorFromSession()</text><rect fill="none" height="30.8016" style="stroke:#000000;stroke-width:0.8999999999999999;" width="103.8" x="391.8" y="223.7953"/><path d="M391.8,223.7953 L429,223.7953 L429,227.3953 L423,233.3953 L391.8,233.3953 L391.8,223.7953 " fill="#EEEEEE" style="stroke:#000000;stroke-width:1.2;"/><text fill="#000000" font-family="sans-serif" font-size="7.8" font-weight="bold" lengthAdjust="spacing" textLength="10.2" x="399.6" y="232.0564">ref</text><text fill="#000000" font-family="sans-serif" font-size="7.2" lengthAdjust="spacing" textLength="57" x="415.2" y="242.3133">Get Administrator</text><text fill="#000000" font-family="sans-serif" font-size="7.2" lengthAdjust="spacing" textLength="1.8" x="442.8" y="250.357">&#160;</text><line style="stroke:#181818;stroke-width:0.6;stroke-dasharray:2.0,2.0;" x1="449.7" x2="474.9" y1="272.9109" y2="272.9109"/><line style="stroke:#181818;stroke-width:0.6;stroke-dasharray:2.0,2.0;" x1="474.9" x2="474.9" y1="272.9109" y2="280.7109"/><line style="stroke:#181818;stroke-width:0.6;stroke-dasharray:2.0,2.0;" x1="446.7" x2="474.9" y1="280.7109" y2="280.7109"/><polygon fill="#181818" points="452.7,278.3109,446.7,280.7109,452.7,283.1109,450.3,280.7109" style="stroke:#181818;stroke-width:0.6;"/><text fill="#000000" font-family="sans-serif" font-size="7.8" font-weight="bold" lengthAdjust="spacing" textLength="4.2" x="453.9" y="270.058">9</text><text fill="#000000" font-family="sans-serif" font-size="7.8" lengthAdjust="spacing" textLength="45" x="460.5" y="270.058">administrator</text><polygon fill="#181818" points="626.7,301.1391,632.7,303.5391,626.7,305.9391,629.1,303.5391" style="stroke:#181818;stroke-width:0.6;"/><line style="stroke:#181818;stroke-width:0.6;" x1="446.7" x2="630.3" y1="303.5391" y2="303.5391"/><text fill="#000000" font-family="sans-serif" font-size="7.8" font-weight="bold" lengthAdjust="spacing" textLength="8.4" x="450.9" y="296.3291">10</text><text fill="#000000" font-family="sans-serif" font-size="7.8" lengthAdjust="spacing" textLength="131.4" x="461.7" y="291.9721">registerStore(id, designation, location,</text><text fill="#000000" font-family="sans-serif" font-size="7.8" lengthAdjust="spacing" textLength="165" x="461.7" y="300.6861">emailAddress, telephoneNumber, administrator)</text><rect fill="none" height="30.8016" style="stroke:#000000;stroke-width:0.8999999999999999;" width="52.2" x="611.7" y="308.3391"/><path d="M611.7,308.3391 L648.9,308.3391 L648.9,311.9391 L642.9,317.9391 L611.7,317.9391 L611.7,308.3391 " fill="#EEEEEE" style="stroke:#000000;stroke-width:1.2;"/><text fill="#000000" font-family="sans-serif" font-size="7.8" font-weight="bold" lengthAdjust="spacing" textLength="10.2" x="619.5" y="316.6002">ref</text><text fill="#000000" font-family="sans-serif" font-size="7.2" lengthAdjust="spacing" textLength="47.4" x="614.1" y="326.857">Register Store</text><text fill="#000000" font-family="sans-serif" font-size="7.2" lengthAdjust="spacing" textLength="1.8" x="636.9" y="334.9008">&#160;</text><polygon fill="#181818" points="453.3,352.0547,447.3,354.4547,453.3,356.8547,450.9,354.4547" style="stroke:#181818;stroke-width:0.6;"/><line style="stroke:#181818;stroke-width:0.6;stroke-dasharray:2.0,2.0;" x1="449.7" x2="636.3" y1="354.4547" y2="354.4547"/><text fill="#000000" font-family="sans-serif" font-size="7.8" font-weight="bold" lengthAdjust="spacing" textLength="8.4" x="456.9" y="351.6018">11</text><text fill="#000000" font-family="sans-serif" font-size="7.8" lengthAdjust="spacing" textLength="17.4" x="467.7" y="351.6018">store</text><polygon fill="#181818" points="243.3,369.1688,237.3,371.5687,243.3,373.9688,240.9,371.5687" style="stroke:#181818;stroke-width:0.6;"/><line style="stroke:#181818;stroke-width:0.6;stroke-dasharray:2.0,2.0;" x1="239.7" x2="443.1" y1="371.5687" y2="371.5687"/><text fill="#000000" font-family="sans-serif" font-size="7.8" font-weight="bold" lengthAdjust="spacing" textLength="8.4" x="246.9" y="368.7158">12</text><text fill="#000000" font-family="sans-serif" font-size="7.8" lengthAdjust="spacing" textLength="17.4" x="257.7" y="368.7158">store</text><polygon fill="#181818" points="51.3,386.2828,45.3,388.6828,51.3,391.0828,48.9,388.6828" style="stroke:#181818;stroke-width:0.6;"/><line style="stroke:#181818;stroke-width:0.6;stroke-dasharray:2.0,2.0;" x1="47.7" x2="233.1" y1="388.6828" y2="388.6828"/><text fill="#000000" font-family="sans-serif" font-size="7.8" font-weight="bold" lengthAdjust="spacing" textLength="8.4" x="54.9" y="385.8299">13</text><text fill="#000000" font-family="sans-serif" font-size="7.8" lengthAdjust="spacing" textLength="89.4" x="65.7" y="385.8299">Shows operation success</text><!--SRC=[bLJ1Rjim3BthAuXSrXJP3-Gm84Yn8S2sGxtSUc4anXPYIvuaDyk-VfIS2FRifgXEjFH8FZwIzYTjMdJOG6EDbPMp3K5m7GcVNrgK9oof29UQm94CQCfw2F0LAdlMfeGZrfw4m2vOqpK7Sa9yghGYE5eR3lQFG1ciWqLnyO4QsAX66-s3GxvT07hOFFqG73HegLiq0HRhPoePGQvW2Ert2RNVtGDjhGdErZNr8RU_dh-FuT8sR5nUp7hRMpskjqNag5ynK28ZW0yRyFaBfuKr8qyUWcKX-fI0OEWCFcPEuEpEBDD5FEpA0IALnqSESdCUlJE04yN7tntvu45Xm8nGD0ayf1KkBVcRAwda2mzQhTZHwz9WqDQieBRoQhqOQb3NW4evyXxGA92i76U1G3MrbJK4VHUNayAcl9c3h-pP9oRgGznzTsZqiDvt91m8c1f-hynKvAQlCHQTI_kPAbk1TIKQ_JV1dyXBfzjeBdFUJ2ODKhwE9v6vabf3IM4qq5zvcGfEoz4UbYE_Eo7ZSNG4-ygZbPvXvdoZC5wUQH0oQePh9eiZxo5mqAmx5VVBye56NESjjsBIY16Zj_IwxUZRabqHSwhT_XAGoCvBDhcy1ipInNdDkpwdsHp5BFv-zvxx_oqV_XcAj62s9PT4vSMHaiKKCpis-8o_iNy0]--></g></svg>