<?xml version="1.0" encoding="us-ascii" standalone="no"?><svg xmlns="http://www.w3.org/2000/svg" xmlns:xlink="http://www.w3.org/1999/xlink" contentStyleType="text/css" height="762px" preserveAspectRatio="none" style="width:1257px;height:762px;background:#FFFFFF;" version="1.1" viewBox="0 0 1257 762" width="1257.6px" zoomAndPan="magnify"><defs/><g><rect fill="#FFFFFF" height="649.3172" style="stroke:#181818;stroke-width:0.6;" width="6" x="41.7" y="54.3844"/><rect fill="#FFFFFF" height="41.4984" style="stroke:#181818;stroke-width:0.6;" width="6" x="230.7" y="66.6984"/><rect fill="#FFFFFF" height="17.1141" style="stroke:#181818;stroke-width:0.6;" width="6" x="230.7" y="134.025"/><rect fill="#FFFFFF" height="535.4484" style="stroke:#181818;stroke-width:0.6;" width="6" x="230.7" y="168.2531"/><rect fill="#FFFFFF" height="492.5062" style="stroke:#181818;stroke-width:0.6;" width="6" x="388.5" y="194.0812"/><rect fill="#FFFFFF" height="281.625" style="stroke:#181818;stroke-width:0.6;" width="6" x="391.5" y="215.9953"/><rect fill="#FFFFFF" height="17.1141" style="stroke:#181818;stroke-width:0.6;" width="6" x="517.5" y="236.1094"/><rect fill="#FFFFFF" height="17.1141" style="stroke:#181818;stroke-width:0.6;" width="6" x="605.7" y="270.3375"/><rect fill="#FFFFFF" height="17.1141" style="stroke:#181818;stroke-width:0.6;" width="6" x="685.5" y="304.5656"/><rect fill="#FFFFFF" height="17.1141" style="stroke:#181818;stroke-width:0.6;" width="6" x="817.5" y="338.7938"/><rect fill="#FFFFFF" height="69.6563" style="stroke:#181818;stroke-width:0.6;" width="6" x="895.5" y="373.0219"/><rect fill="#FFFFFF" height="17.1141" style="stroke:#181818;stroke-width:0.6;" width="6" x="1039.5" y="404.25"/><rect fill="#FFFFFF" height="17.1141" style="stroke:#181818;stroke-width:0.6;" width="6" x="1039.5" y="459.7922"/><rect fill="#FFFFFF" height="150.5391" style="stroke:#181818;stroke-width:0.6;" width="6" x="1039.5" y="518.9344"/><rect fill="#FFFFFF" height="73.5422" style="stroke:#181818;stroke-width:0.6;" width="6" x="1042.5" y="574.6172"/><rect fill="#FFFFFF" height="23.7141" style="stroke:#181818;stroke-width:0.6;" width="6" x="1045.5" y="599.5313"/><rect fill="none" height="44.1422" style="stroke:#000000;stroke-width:0.8999999999999999;" width="222.3" x="849.6" y="382.0219"/><line style="stroke:#181818;stroke-width:0.3;stroke-dasharray:5.0,5.0;" x1="44.4" x2="44.4" y1="48.3844" y2="714.5016"/><line style="stroke:#181818;stroke-width:0.3;stroke-dasharray:5.0,5.0;" x1="233.4" x2="233.4" y1="48.3844" y2="714.5016"/><line style="stroke:#181818;stroke-width:0.3;stroke-dasharray:5.0,5.0;" x1="391.2" x2="391.2" y1="89.6906" y2="714.5016"/><line style="stroke:#181818;stroke-width:0.3;stroke-dasharray:5.0,5.0;" x1="520.2" x2="520.2" y1="48.3844" y2="714.5016"/><line style="stroke:#181818;stroke-width:0.3;stroke-dasharray:5.0,5.0;" x1="608.4" x2="608.4" y1="48.3844" y2="714.5016"/><line style="stroke:#181818;stroke-width:0.3;stroke-dasharray:5.0,5.0;" x1="688.2" x2="688.2" y1="48.3844" y2="714.5016"/><line style="stroke:#181818;stroke-width:0.3;stroke-dasharray:5.0,5.0;" x1="756" x2="756" y1="48.3844" y2="714.5016"/><line style="stroke:#181818;stroke-width:0.3;stroke-dasharray:5.0,5.0;" x1="820.2" x2="820.2" y1="48.3844" y2="714.5016"/><line style="stroke:#181818;stroke-width:0.3;stroke-dasharray:5.0,5.0;" x1="898.2" x2="898.2" y1="48.3844" y2="714.5016"/><line style="stroke:#181818;stroke-width:0.3;stroke-dasharray:5.0,5.0;" x1="1042.5" x2="1042.5" y1="48.3844" y2="714.5016"/><line style="stroke:#181818;stroke-width:0.3;stroke-dasharray:5.0,5.0;" x1="1238.7" x2="1238.7" y1="546.6188" y2="714.5016"/><text fill="#000000" font-family="sans-serif" font-size="8.4" lengthAdjust="spacing" textLength="79.8" x="3" y="46.6043">System Administrator</text><ellipse cx="44.7" cy="8.1" fill="#E3E3E3" rx="4.8" ry="4.8" style="stroke:#181818;stroke-width:0.3;"/><path d="M44.7,12.9 L44.7,29.1 M36.9,17.7 L52.5,17.7 M44.7,29.1 L36.9,38.1 M44.7,29.1 L52.5,38.1 " fill="none" style="stroke:#181818;stroke-width:0.3;"/><text fill="#000000" font-family="sans-serif" font-size="8.4" lengthAdjust="spacing" textLength="79.8" x="3" y="721.5059">System Administrator</text><ellipse cx="44.7" cy="728.3859" fill="#E3E3E3" rx="4.8" ry="4.8" style="stroke:#181818;stroke-width:0.3;"/><path d="M44.7,733.1859 L44.7,749.3859 M36.9,737.9859 L52.5,737.9859 M44.7,749.3859 L36.9,758.3859 M44.7,749.3859 L52.5,758.3859 " fill="none" style="stroke:#181818;stroke-width:0.3;"/><rect fill="#E3E3E3" height="17.7844" rx="1.5" ry="1.5" style="stroke:#181818;stroke-width:0.3;" width="70.2" x="198.6" y="30"/><text fill="#000000" font-family="sans-serif" font-size="8.4" lengthAdjust="spacing" textLength="61.8" x="202.8" y="41.8043">:RegisterStoreUI</text><rect fill="#E3E3E3" height="17.7844" rx="1.5" ry="1.5" style="stroke:#181818;stroke-width:0.3;" width="70.2" x="198.6" y="713.9016"/><text fill="#000000" font-family="sans-serif" font-size="8.4" lengthAdjust="spacing" textLength="61.8" x="202.8" y="725.7059">:RegisterStoreUI</text><rect fill="#E3E3E3" height="17.7844" rx="1.5" ry="1.5" style="stroke:#181818;stroke-width:0.3;" width="100.2" x="341.4" y="713.9016"/><text fill="#000000" font-family="sans-serif" font-size="8.4" lengthAdjust="spacing" textLength="91.8" x="345.6" y="725.7059">:RegisterStoreController</text><rect fill="#E3E3E3" height="17.7844" rx="1.5" ry="1.5" style="stroke:#181818;stroke-width:0.3;" width="82.2" x="479.4" y="30"/><text fill="#000000" font-family="sans-serif" font-size="8.4" lengthAdjust="spacing" textLength="73.8" x="483.6" y="41.8043">:ApplicationSession</text><rect fill="#E3E3E3" height="17.7844" rx="1.5" ry="1.5" style="stroke:#181818;stroke-width:0.3;" width="82.2" x="479.4" y="713.9016"/><text fill="#000000" font-family="sans-serif" font-size="8.4" lengthAdjust="spacing" textLength="73.8" x="483.6" y="725.7059">:ApplicationSession</text><rect fill="#E3E3E3" height="27.1688" rx="1.5" ry="1.5" style="stroke:#181818;stroke-width:0.3;" width="82.2" x="567.6" y="20.6156"/><text fill="#000000" font-family="sans-serif" font-size="8.4" lengthAdjust="spacing" textLength="44.4" x="586.5" y="32.4199">appSession</text><text fill="#000000" font-family="sans-serif" font-size="8.4" lengthAdjust="spacing" textLength="73.8" x="571.8" y="41.8043">:ApplicationSession</text><rect fill="#E3E3E3" height="27.1688" rx="1.5" ry="1.5" style="stroke:#181818;stroke-width:0.3;" width="82.2" x="567.6" y="713.9016"/><text fill="#000000" font-family="sans-serif" font-size="8.4" lengthAdjust="spacing" textLength="44.4" x="586.5" y="725.7059">appSession</text><text fill="#000000" font-family="sans-serif" font-size="8.4" lengthAdjust="spacing" textLength="73.8" x="571.8" y="735.0902">:ApplicationSession</text><rect fill="#E3E3E3" height="27.1688" rx="1.5" ry="1.5" style="stroke:#181818;stroke-width:0.3;" width="65.4" x="655.8" y="20.6156"/><text fill="#000000" font-family="sans-serif" font-size="8.4" lengthAdjust="spacing" textLength="57" x="660" y="32.4199">currentSession</text><text fill="#000000" font-family="sans-serif" font-size="8.4" lengthAdjust="spacing" textLength="49.8" x="663.6" y="41.8043">:UserSession</text><rect fill="#E3E3E3" height="27.1688" rx="1.5" ry="1.5" style="stroke:#181818;stroke-width:0.3;" width="65.4" x="655.8" y="713.9016"/><text fill="#000000" font-family="sans-serif" font-size="8.4" lengthAdjust="spacing" textLength="57" x="660" y="725.7059">currentSession</text><text fill="#000000" font-family="sans-serif" font-size="8.4" lengthAdjust="spacing" textLength="49.8" x="663.6" y="735.0902">:UserSession</text><rect fill="#E3E3E3" height="17.7844" rx="1.5" ry="1.5" style="stroke:#181818;stroke-width:0.3;" width="58.2" x="727.2" y="30"/><text fill="#000000" font-family="sans-serif" font-size="8.4" lengthAdjust="spacing" textLength="49.8" x="731.4" y="41.8043">:Repositories</text><rect fill="#E3E3E3" height="17.7844" rx="1.5" ry="1.5" style="stroke:#181818;stroke-width:0.3;" width="58.2" x="727.2" y="713.9016"/><text fill="#000000" font-family="sans-serif" font-size="8.4" lengthAdjust="spacing" textLength="49.8" x="731.4" y="725.7059">:Repositories</text><rect fill="#E3E3E3" height="27.1688" rx="1.5" ry="1.5" style="stroke:#181818;stroke-width:0.3;" width="58.2" x="791.4" y="20.6156"/><text fill="#000000" font-family="sans-serif" font-size="8.4" lengthAdjust="spacing" textLength="44.4" x="798.3" y="32.4199">repositories</text><text fill="#000000" font-family="sans-serif" font-size="8.4" lengthAdjust="spacing" textLength="49.8" x="795.6" y="41.8043">:Repositories</text><rect fill="#E3E3E3" height="27.1688" rx="1.5" ry="1.5" style="stroke:#181818;stroke-width:0.3;" width="58.2" x="791.4" y="713.9016"/><text fill="#000000" font-family="sans-serif" font-size="8.4" lengthAdjust="spacing" textLength="44.4" x="798.3" y="725.7059">repositories</text><text fill="#000000" font-family="sans-serif" font-size="8.4" lengthAdjust="spacing" textLength="49.8" x="795.6" y="735.0902">:Repositories</text><rect fill="#E3E3E3" height="27.1688" rx="1.5" ry="1.5" style="stroke:#181818;stroke-width:0.3;" width="85.8" x="855.6" y="20.6156"/><text fill="#000000" font-family="sans-serif" font-size="8.4" lengthAdjust="spacing" textLength="77.4" x="859.8" y="32.4199">companyRepository:</text><text fill="#000000" font-family="sans-serif" font-size="8.4" lengthAdjust="spacing" textLength="76.8" x="860.1" y="41.8043">CompanyRepository</text><rect fill="#E3E3E3" height="27.1688" rx="1.5" ry="1.5" style="stroke:#181818;stroke-width:0.3;" width="85.8" x="855.6" y="713.9016"/><text fill="#000000" font-family="sans-serif" font-size="8.4" lengthAdjust="spacing" textLength="77.4" x="859.8" y="725.7059">companyRepository:</text><text fill="#000000" font-family="sans-serif" font-size="8.4" lengthAdjust="spacing" textLength="76.8" x="860.1" y="735.0902">CompanyRepository</text><rect fill="#E3E3E3" height="27.1688" rx="1.5" ry="1.5" style="stroke:#181818;stroke-width:0.3;" width="46.8" x="1019.1" y="20.6156"/><text fill="#000000" font-family="sans-serif" font-size="8.4" lengthAdjust="spacing" textLength="34.2" x="1025.4" y="32.4199">company</text><text fill="#000000" font-family="sans-serif" font-size="8.4" lengthAdjust="spacing" textLength="38.4" x="1023.3" y="41.8043">:Company</text><rect fill="#E3E3E3" height="27.1688" rx="1.5" ry="1.5" style="stroke:#181818;stroke-width:0.3;" width="46.8" x="1019.1" y="713.9016"/><text fill="#000000" font-family="sans-serif" font-size="8.4" lengthAdjust="spacing" textLength="34.2" x="1025.4" y="725.7059">company</text><text fill="#000000" font-family="sans-serif" font-size="8.4" lengthAdjust="spacing" textLength="38.4" x="1023.3" y="735.0902">:Company</text><rect fill="#E3E3E3" height="27.1688" rx="1.5" ry="1.5" style="stroke:#181818;stroke-width:0.3;" width="31.2" x="1223.1" y="713.9016"/><text fill="#000000" font-family="sans-serif" font-size="8.4" lengthAdjust="spacing" textLength="19.2" x="1229.1" y="725.7059">store</text><text fill="#000000" font-family="sans-serif" font-size="8.4" lengthAdjust="spacing" textLength="22.8" x="1227.3" y="735.0902">:Store</text><rect fill="#FFFFFF" height="649.3172" style="stroke:#181818;stroke-width:0.6;" width="6" x="41.7" y="54.3844"/><rect fill="#FFFFFF" height="41.4984" style="stroke:#181818;stroke-width:0.6;" width="6" x="230.7" y="66.6984"/><rect fill="#FFFFFF" height="17.1141" style="stroke:#181818;stroke-width:0.6;" width="6" x="230.7" y="134.025"/><rect fill="#FFFFFF" height="535.4484" style="stroke:#181818;stroke-width:0.6;" width="6" x="230.7" y="168.2531"/><rect fill="#FFFFFF" height="492.5062" style="stroke:#181818;stroke-width:0.6;" width="6" x="388.5" y="194.0812"/><rect fill="#FFFFFF" height="281.625" style="stroke:#181818;stroke-width:0.6;" width="6" x="391.5" y="215.9953"/><rect fill="#FFFFFF" height="17.1141" style="stroke:#181818;stroke-width:0.6;" width="6" x="517.5" y="236.1094"/><rect fill="#FFFFFF" height="17.1141" style="stroke:#181818;stroke-width:0.6;" width="6" x="605.7" y="270.3375"/><rect fill="#FFFFFF" height="17.1141" style="stroke:#181818;stroke-width:0.6;" width="6" x="685.5" y="304.5656"/><rect fill="#FFFFFF" height="17.1141" style="stroke:#181818;stroke-width:0.6;" width="6" x="817.5" y="338.7938"/><rect fill="#FFFFFF" height="69.6563" style="stroke:#181818;stroke-width:0.6;" width="6" x="895.5" y="373.0219"/><rect fill="#FFFFFF" height="17.1141" style="stroke:#181818;stroke-width:0.6;" width="6" x="1039.5" y="404.25"/><rect fill="#FFFFFF" height="17.1141" style="stroke:#181818;stroke-width:0.6;" width="6" x="1039.5" y="459.7922"/><rect fill="#FFFFFF" height="150.5391" style="stroke:#181818;stroke-width:0.6;" width="6" x="1039.5" y="518.9344"/><rect fill="#FFFFFF" height="73.5422" style="stroke:#181818;stroke-width:0.6;" width="6" x="1042.5" y="574.6172"/><rect fill="#FFFFFF" height="23.7141" style="stroke:#181818;stroke-width:0.6;" width="6" x="1045.5" y="599.5313"/><polygon fill="#181818" points="223.5,64.2984,229.5,66.6984,223.5,69.0984,225.9,66.6984" style="stroke:#181818;stroke-width:0.6;"/><line style="stroke:#181818;stroke-width:0.6;" x1="47.7" x2="227.1" y1="66.6984" y2="66.6984"/><text fill="#000000" font-family="sans-serif" font-size="7.8" font-weight="bold" lengthAdjust="spacing" textLength="4.2" x="51.9" y="63.8455">1</text><text fill="#000000" font-family="sans-serif" font-size="7.8" lengthAdjust="spacing" textLength="96.6" x="58.5" y="63.8455">asks to register a new store</text><polygon fill="#181818" points="334.2,81.4125,340.2,83.8125,334.2,86.2125,336.6,83.8125" style="stroke:#181818;stroke-width:0.6;"/><line style="stroke:#181818;stroke-width:0.6;" x1="236.7" x2="337.8" y1="83.8125" y2="83.8125"/><text fill="#000000" font-family="sans-serif" font-size="7.8" font-weight="bold" lengthAdjust="spacing" textLength="4.2" x="240.9" y="80.9596">2</text><text fill="#000000" font-family="sans-serif" font-size="7.8" lengthAdjust="spacing" textLength="25.8" x="247.5" y="80.9596">register</text><rect fill="#E3E3E3" height="17.7844" rx="1.5" ry="1.5" style="stroke:#181818;stroke-width:0.3;" width="100.2" x="341.4" y="71.4984"/><text fill="#000000" font-family="sans-serif" font-size="8.4" lengthAdjust="spacing" textLength="91.8" x="345.6" y="83.3027">:RegisterStoreController</text><polygon fill="#181818" points="54.3,105.7969,48.3,108.1969,54.3,110.5969,51.9,108.1969" style="stroke:#181818;stroke-width:0.6;"/><line style="stroke:#181818;stroke-width:0.6;stroke-dasharray:2.0,2.0;" x1="50.7" x2="233.1" y1="108.1969" y2="108.1969"/><text fill="#000000" font-family="sans-serif" font-size="7.8" font-weight="bold" lengthAdjust="spacing" textLength="4.2" x="57.9" y="105.3439">3</text><text fill="#000000" font-family="sans-serif" font-size="7.8" lengthAdjust="spacing" textLength="47.4" x="64.5" y="105.3439">requests data</text><polygon fill="#181818" points="223.5,131.625,229.5,134.025,223.5,136.425,225.9,134.025" style="stroke:#181818;stroke-width:0.6;"/><line style="stroke:#181818;stroke-width:0.6;" x1="47.7" x2="227.1" y1="134.025" y2="134.025"/><text fill="#000000" font-family="sans-serif" font-size="7.8" font-weight="bold" lengthAdjust="spacing" textLength="4.2" x="51.9" y="126.815">4</text><text fill="#000000" font-family="sans-serif" font-size="7.8" lengthAdjust="spacing" textLength="162.6" x="58.5" y="122.458">types requested data (id, designation, location,</text><text fill="#000000" font-family="sans-serif" font-size="7.8" lengthAdjust="spacing" textLength="158.4" x="58.5" y="131.1721">email address and contact telephone number)</text><polygon fill="#181818" points="54.3,148.7391,48.3,151.1391,54.3,153.5391,51.9,151.1391" style="stroke:#181818;stroke-width:0.6;"/><line style="stroke:#181818;stroke-width:0.6;stroke-dasharray:2.0,2.0;" x1="50.7" x2="233.1" y1="151.1391" y2="151.1391"/><text fill="#000000" font-family="sans-serif" font-size="7.8" font-weight="bold" lengthAdjust="spacing" textLength="4.2" x="57.9" y="148.2861">5</text><text fill="#000000" font-family="sans-serif" font-size="7.8" lengthAdjust="spacing" textLength="61.2" x="64.5" y="148.2861">shows typed data</text><polygon fill="#181818" points="223.5,165.8531,229.5,168.2531,223.5,170.6531,225.9,168.2531" style="stroke:#181818;stroke-width:0.6;"/><line style="stroke:#181818;stroke-width:0.6;" x1="47.7" x2="227.1" y1="168.2531" y2="168.2531"/><text fill="#000000" font-family="sans-serif" font-size="7.8" font-weight="bold" lengthAdjust="spacing" textLength="4.2" x="51.9" y="165.4002">6</text><text fill="#000000" font-family="sans-serif" font-size="7.8" lengthAdjust="spacing" textLength="45" x="58.5" y="165.4002">submits data</text><polygon fill="#181818" points="381.3,191.6813,387.3,194.0812,381.3,196.4813,383.7,194.0812" style="stroke:#181818;stroke-width:0.6;"/><line style="stroke:#181818;stroke-width:0.6;" x1="236.7" x2="384.9" y1="194.0812" y2="194.0812"/><text fill="#000000" font-family="sans-serif" font-size="7.8" font-weight="bold" lengthAdjust="spacing" textLength="4.2" x="240.9" y="186.8713">7</text><text fill="#000000" font-family="sans-serif" font-size="7.8" lengthAdjust="spacing" textLength="131.4" x="247.5" y="182.5143">registerStore(id, designation, location,</text><text fill="#000000" font-family="sans-serif" font-size="7.8" lengthAdjust="spacing" textLength="102.6" x="247.5" y="191.2283">emailAddress, phoneNumber)</text><line style="stroke:#181818;stroke-width:0.6;" x1="394.5" x2="422.7" y1="208.1953" y2="208.1953"/><line style="stroke:#181818;stroke-width:0.6;" x1="422.7" x2="422.7" y1="208.1953" y2="215.9953"/><line style="stroke:#181818;stroke-width:0.6;" x1="398.1" x2="422.7" y1="215.9953" y2="215.9953"/><polygon fill="#181818" points="404.1,213.5953,398.1,215.9953,404.1,218.3953,401.7,215.9953" style="stroke:#181818;stroke-width:0.6;"/><text fill="#000000" font-family="sans-serif" font-size="7.8" font-weight="bold" lengthAdjust="spacing" textLength="4.2" x="401.7" y="205.3424">8</text><text fill="#000000" font-family="sans-serif" font-size="7.8" lengthAdjust="spacing" textLength="108" x="408.3" y="205.3424">getAdministratorFromSession()</text><polygon fill="#181818" points="510.3,233.7094,516.3,236.1094,510.3,238.5094,512.7,236.1094" style="stroke:#181818;stroke-width:0.6;"/><line style="stroke:#181818;stroke-width:0.6;" x1="397.5" x2="513.9" y1="236.1094" y2="236.1094"/><text fill="#000000" font-family="sans-serif" font-size="7.8" font-weight="bold" lengthAdjust="spacing" textLength="4.2" x="401.7" y="233.2564">9</text><text fill="#000000" font-family="sans-serif" font-size="7.8" lengthAdjust="spacing" textLength="45" x="408.3" y="233.2564">getInstance()</text><polygon fill="#181818" points="404.1,250.8234,398.1,253.2234,404.1,255.6234,401.7,253.2234" style="stroke:#181818;stroke-width:0.6;"/><line style="stroke:#181818;stroke-width:0.6;" x1="400.5" x2="519.9" y1="253.2234" y2="253.2234"/><text fill="#000000" font-family="sans-serif" font-size="7.8" font-weight="bold" lengthAdjust="spacing" textLength="8.4" x="407.7" y="250.3705">10</text><text fill="#000000" font-family="sans-serif" font-size="7.8" lengthAdjust="spacing" textLength="40.8" x="418.5" y="250.3705">appSession</text><polygon fill="#181818" points="598.5,267.9375,604.5,270.3375,598.5,272.7375,600.9,270.3375" style="stroke:#181818;stroke-width:0.6;"/><line style="stroke:#181818;stroke-width:0.6;" x1="397.5" x2="602.1" y1="270.3375" y2="270.3375"/><text fill="#000000" font-family="sans-serif" font-size="7.8" font-weight="bold" lengthAdjust="spacing" textLength="8.4" x="401.7" y="267.4846">11</text><text fill="#000000" font-family="sans-serif" font-size="7.8" lengthAdjust="spacing" textLength="69" x="412.5" y="267.4846">getCurrentSession()</text><polygon fill="#181818" points="404.1,285.0516,398.1,287.4516,404.1,289.8516,401.7,287.4516" style="stroke:#181818;stroke-width:0.6;"/><line style="stroke:#181818;stroke-width:0.6;stroke-dasharray:2.0,2.0;" x1="400.5" x2="608.1" y1="287.4516" y2="287.4516"/><text fill="#000000" font-family="sans-serif" font-size="7.8" font-weight="bold" lengthAdjust="spacing" textLength="8.4" x="407.7" y="284.5986">12</text><text fill="#000000" font-family="sans-serif" font-size="7.8" lengthAdjust="spacing" textLength="52.2" x="418.5" y="284.5986">currentSession</text><polygon fill="#181818" points="678.3,302.1656,684.3,304.5656,678.3,306.9656,680.7,304.5656" style="stroke:#181818;stroke-width:0.6;"/><line style="stroke:#181818;stroke-width:0.6;" x1="397.5" x2="681.9" y1="304.5656" y2="304.5656"/><text fill="#000000" font-family="sans-serif" font-size="7.8" font-weight="bold" lengthAdjust="spacing" textLength="8.4" x="401.7" y="301.7127">13</text><text fill="#000000" font-family="sans-serif" font-size="7.8" lengthAdjust="spacing" textLength="79.8" x="412.5" y="301.7127">email = getUserEmail()</text><polygon fill="#181818" points="404.1,319.2797,398.1,321.6797,404.1,324.0797,401.7,321.6797" style="stroke:#181818;stroke-width:0.6;"/><line style="stroke:#181818;stroke-width:0.6;stroke-dasharray:2.0,2.0;" x1="400.5" x2="687.9" y1="321.6797" y2="321.6797"/><text fill="#000000" font-family="sans-serif" font-size="7.8" font-weight="bold" lengthAdjust="spacing" textLength="8.4" x="407.7" y="318.8268">14</text><text fill="#000000" font-family="sans-serif" font-size="7.8" lengthAdjust="spacing" textLength="18.6" x="418.5" y="318.8268">email</text><polygon fill="#181818" points="810.3,336.3938,816.3,338.7938,810.3,341.1937,812.7,338.7938" style="stroke:#181818;stroke-width:0.6;"/><line style="stroke:#181818;stroke-width:0.6;" x1="397.5" x2="813.9" y1="338.7938" y2="338.7938"/><text fill="#000000" font-family="sans-serif" font-size="7.8" font-weight="bold" lengthAdjust="spacing" textLength="8.4" x="401.7" y="335.9408">15</text><text fill="#000000" font-family="sans-serif" font-size="7.8" lengthAdjust="spacing" textLength="104.4" x="412.5" y="335.9408">getCompanyRepository(email)</text><polygon fill="#181818" points="404.1,353.5078,398.1,355.9078,404.1,358.3078,401.7,355.9078" style="stroke:#181818;stroke-width:0.6;"/><line style="stroke:#181818;stroke-width:0.6;stroke-dasharray:2.0,2.0;" x1="400.5" x2="819.9" y1="355.9078" y2="355.9078"/><text fill="#000000" font-family="sans-serif" font-size="7.8" font-weight="bold" lengthAdjust="spacing" textLength="8.4" x="407.7" y="353.0549">16</text><text fill="#000000" font-family="sans-serif" font-size="7.8" lengthAdjust="spacing" textLength="69" x="418.5" y="353.0549">companyRepository</text><polygon fill="#181818" points="888.3,370.6219,894.3,373.0219,888.3,375.4219,890.7,373.0219" style="stroke:#181818;stroke-width:0.6;"/><line style="stroke:#181818;stroke-width:0.6;" x1="397.5" x2="891.9" y1="373.0219" y2="373.0219"/><text fill="#000000" font-family="sans-serif" font-size="7.8" font-weight="bold" lengthAdjust="spacing" textLength="8.4" x="401.7" y="370.1689">17</text><text fill="#000000" font-family="sans-serif" font-size="7.8" lengthAdjust="spacing" textLength="112.8" x="412.5" y="370.1689">getCompanyByUserEmail(email)</text><path d="M849.6,382.0219 L893.4,382.0219 L893.4,385.9359 L887.4,391.9359 L849.6,391.9359 L849.6,382.0219 " fill="#EEEEEE" style="stroke:#000000;stroke-width:0.8999999999999999;"/><rect fill="none" height="44.1422" style="stroke:#000000;stroke-width:0.8999999999999999;" width="222.3" x="849.6" y="382.0219"/><text fill="#000000" font-family="sans-serif" font-size="7.8" font-weight="bold" lengthAdjust="spacing" textLength="16.8" x="858.6" y="389.683">loop</text><text fill="#000000" font-family="sans-serif" font-size="6.6" font-weight="bold" lengthAdjust="spacing" textLength="66" x="902.4" y="389.1967">[[for each company]</text><polygon fill="#181818" points="1032.3,401.85,1038.3,404.25,1032.3,406.65,1034.7,404.25" style="stroke:#181818;stroke-width:0.6;"/><line style="stroke:#181818;stroke-width:0.6;" x1="901.5" x2="1035.9" y1="404.25" y2="404.25"/><text fill="#000000" font-family="sans-serif" font-size="7.8" font-weight="bold" lengthAdjust="spacing" textLength="8.4" x="905.7" y="401.3971">18</text><text fill="#000000" font-family="sans-serif" font-size="7.8" lengthAdjust="spacing" textLength="115.8" x="916.5" y="401.3971">anyAdministratorHasEmail(email)</text><polygon fill="#181818" points="908.1,418.9641,902.1,421.3641,908.1,423.7641,905.7,421.3641" style="stroke:#181818;stroke-width:0.6;"/><line style="stroke:#181818;stroke-width:0.6;stroke-dasharray:2.0,2.0;" x1="904.5" x2="1041.9" y1="421.3641" y2="421.3641"/><text fill="#000000" font-family="sans-serif" font-size="7.8" font-weight="bold" lengthAdjust="spacing" textLength="8.4" x="911.7" y="418.5111">19</text><text fill="#000000" font-family="sans-serif" font-size="7.8" lengthAdjust="spacing" textLength="31.8" x="922.5" y="418.5111">true/false</text><polygon fill="#181818" points="404.1,440.2781,398.1,442.6781,404.1,445.0781,401.7,442.6781" style="stroke:#181818;stroke-width:0.6;"/><line style="stroke:#181818;stroke-width:0.6;stroke-dasharray:2.0,2.0;" x1="400.5" x2="897.9" y1="442.6781" y2="442.6781"/><text fill="#000000" font-family="sans-serif" font-size="7.8" font-weight="bold" lengthAdjust="spacing" textLength="8.4" x="407.7" y="439.8252">20</text><text fill="#000000" font-family="sans-serif" font-size="7.8" lengthAdjust="spacing" textLength="31.8" x="418.5" y="439.8252">company</text><polygon fill="#181818" points="1032.3,457.3922,1038.3,459.7922,1032.3,462.1922,1034.7,459.7922" style="stroke:#181818;stroke-width:0.6;"/><line style="stroke:#181818;stroke-width:0.6;" x1="397.5" x2="1035.9" y1="459.7922" y2="459.7922"/><text fill="#000000" font-family="sans-serif" font-size="7.8" font-weight="bold" lengthAdjust="spacing" textLength="8.4" x="401.7" y="456.9393">21</text><text fill="#000000" font-family="sans-serif" font-size="7.8" lengthAdjust="spacing" textLength="109.8" x="412.5" y="456.9393">getAdministratorByEmail(email)</text><polygon fill="#181818" points="404.1,474.5062,398.1,476.9063,404.1,479.3063,401.7,476.9063" style="stroke:#181818;stroke-width:0.6;"/><line style="stroke:#181818;stroke-width:0.6;stroke-dasharray:2.0,2.0;" x1="400.5" x2="1041.9" y1="476.9063" y2="476.9063"/><text fill="#000000" font-family="sans-serif" font-size="7.8" font-weight="bold" lengthAdjust="spacing" textLength="8.4" x="407.7" y="474.0533">22</text><text fill="#000000" font-family="sans-serif" font-size="7.8" lengthAdjust="spacing" textLength="45" x="418.5" y="474.0533">administrator</text><line style="stroke:#181818;stroke-width:0.6;stroke-dasharray:2.0,2.0;" x1="397.5" x2="422.7" y1="497.0203" y2="497.0203"/><line style="stroke:#181818;stroke-width:0.6;stroke-dasharray:2.0,2.0;" x1="422.7" x2="422.7" y1="497.0203" y2="504.8203"/><line style="stroke:#181818;stroke-width:0.6;stroke-dasharray:2.0,2.0;" x1="394.5" x2="422.7" y1="504.8203" y2="504.8203"/><polygon fill="#181818" points="400.5,502.4203,394.5,504.8203,400.5,507.2203,398.1,504.8203" style="stroke:#181818;stroke-width:0.6;"/><text fill="#000000" font-family="sans-serif" font-size="7.8" font-weight="bold" lengthAdjust="spacing" textLength="8.4" x="401.7" y="494.1674">23</text><text fill="#000000" font-family="sans-serif" font-size="7.8" lengthAdjust="spacing" textLength="45" x="412.5" y="494.1674">administrator</text><polygon fill="#181818" points="1032.3,516.5344,1038.3,518.9344,1032.3,521.3344,1034.7,518.9344" style="stroke:#181818;stroke-width:0.6;"/><line style="stroke:#181818;stroke-width:0.6;" x1="394.5" x2="1035.9" y1="518.9344" y2="518.9344"/><text fill="#000000" font-family="sans-serif" font-size="7.8" font-weight="bold" lengthAdjust="spacing" textLength="8.4" x="398.7" y="516.0814">24</text><text fill="#000000" font-family="sans-serif" font-size="7.8" lengthAdjust="spacing" textLength="286.2" x="409.5" y="516.0814">registerStore(id, designation, location, emailAddress, phoneNumber, administrator)</text><polygon fill="#181818" points="1215.9,542.3625,1221.9,544.7625,1215.9,547.1625,1218.3,544.7625" style="stroke:#181818;stroke-width:0.6;"/><line style="stroke:#181818;stroke-width:0.6;" x1="1045.5" x2="1219.5" y1="544.7625" y2="544.7625"/><text fill="#000000" font-family="sans-serif" font-size="7.8" font-weight="bold" lengthAdjust="spacing" textLength="8.4" x="1049.7" y="537.5525">25</text><text fill="#000000" font-family="sans-serif" font-size="7.8" lengthAdjust="spacing" textLength="131.4" x="1060.5" y="533.1955">registerStore(id, designation, location,</text><text fill="#000000" font-family="sans-serif" font-size="7.8" lengthAdjust="spacing" textLength="152.4" x="1060.5" y="541.9096">emailAddress, phoneNumber, administrator)</text><rect fill="#E3E3E3" height="27.1688" rx="1.5" ry="1.5" style="stroke:#181818;stroke-width:0.3;" width="31.2" x="1223.1" y="523.7344"/><text fill="#000000" font-family="sans-serif" font-size="8.4" lengthAdjust="spacing" textLength="19.2" x="1229.1" y="535.5387">store</text><text fill="#000000" font-family="sans-serif" font-size="8.4" lengthAdjust="spacing" textLength="22.8" x="1227.3" y="544.923">:Store</text><line style="stroke:#181818;stroke-width:0.6;" x1="1048.5" x2="1073.7" y1="569.8172" y2="569.8172"/><line style="stroke:#181818;stroke-width:0.6;" x1="1073.7" x2="1073.7" y1="569.8172" y2="577.6172"/><line style="stroke:#181818;stroke-width:0.6;" x1="1049.1" x2="1073.7" y1="577.6172" y2="577.6172"/><polygon fill="#181818" points="1055.1,575.2172,1049.1,577.6172,1055.1,580.0172,1052.7,577.6172" style="stroke:#181818;stroke-width:0.6;"/><text fill="#000000" font-family="sans-serif" font-size="7.8" font-weight="bold" lengthAdjust="spacing" textLength="8.4" x="1052.7" y="566.9643">26</text><text fill="#000000" font-family="sans-serif" font-size="7.8" lengthAdjust="spacing" textLength="53.4" x="1063.5" y="566.9643">addStore(store)</text><line style="stroke:#181818;stroke-width:0.6;" x1="1048.5" x2="1076.7" y1="591.7312" y2="591.7312"/><line style="stroke:#181818;stroke-width:0.6;" x1="1076.7" x2="1076.7" y1="591.7312" y2="599.5313"/><line style="stroke:#181818;stroke-width:0.6;" x1="1052.1" x2="1076.7" y1="599.5313" y2="599.5313"/><polygon fill="#181818" points="1058.1,597.1313,1052.1,599.5313,1058.1,601.9313,1055.7,599.5313" style="stroke:#181818;stroke-width:0.6;"/><text fill="#000000" font-family="sans-serif" font-size="7.8" font-weight="bold" lengthAdjust="spacing" textLength="8.4" x="1055.7" y="588.8783">27</text><text fill="#000000" font-family="sans-serif" font-size="7.8" lengthAdjust="spacing" textLength="66.6" x="1066.5" y="588.8783">validateStore(store)</text><line style="stroke:#181818;stroke-width:0.6;stroke-dasharray:2.0,2.0;" x1="1051.5" x2="1076.7" y1="622.6453" y2="622.6453"/><line style="stroke:#181818;stroke-width:0.6;stroke-dasharray:2.0,2.0;" x1="1076.7" x2="1076.7" y1="622.6453" y2="630.4453"/><line style="stroke:#181818;stroke-width:0.6;stroke-dasharray:2.0,2.0;" x1="1048.5" x2="1076.7" y1="630.4453" y2="630.4453"/><polygon fill="#181818" points="1054.5,628.0453,1048.5,630.4453,1054.5,632.8453,1052.1,630.4453" style="stroke:#181818;stroke-width:0.6;"/><text fill="#000000" font-family="sans-serif" font-size="7.8" font-weight="bold" lengthAdjust="spacing" textLength="8.4" x="1055.7" y="619.7924">28</text><text fill="#000000" font-family="sans-serif" font-size="7.8" lengthAdjust="spacing" textLength="2.4" x="1066.5" y="619.7924">&#160;</text><line style="stroke:#181818;stroke-width:0.6;stroke-dasharray:2.0,2.0;" x1="1048.5" x2="1073.7" y1="647.5594" y2="647.5594"/><line style="stroke:#181818;stroke-width:0.6;stroke-dasharray:2.0,2.0;" x1="1073.7" x2="1073.7" y1="647.5594" y2="655.3594"/><line style="stroke:#181818;stroke-width:0.6;stroke-dasharray:2.0,2.0;" x1="1045.5" x2="1073.7" y1="655.3594" y2="655.3594"/><polygon fill="#181818" points="1051.5,652.9594,1045.5,655.3594,1051.5,657.7594,1049.1,655.3594" style="stroke:#181818;stroke-width:0.6;"/><text fill="#000000" font-family="sans-serif" font-size="7.8" font-weight="bold" lengthAdjust="spacing" textLength="8.4" x="1052.7" y="644.7064">29</text><text fill="#000000" font-family="sans-serif" font-size="7.8" lengthAdjust="spacing" textLength="2.4" x="1063.5" y="644.7064">&#160;</text><polygon fill="#181818" points="401.1,667.0734,395.1,669.4734,401.1,671.8734,398.7,669.4734" style="stroke:#181818;stroke-width:0.6;"/><line style="stroke:#181818;stroke-width:0.6;stroke-dasharray:2.0,2.0;" x1="397.5" x2="1041.9" y1="669.4734" y2="669.4734"/><text fill="#000000" font-family="sans-serif" font-size="7.8" font-weight="bold" lengthAdjust="spacing" textLength="8.4" x="404.7" y="666.6205">30</text><text fill="#000000" font-family="sans-serif" font-size="7.8" lengthAdjust="spacing" textLength="17.4" x="415.5" y="666.6205">store</text><polygon fill="#181818" points="243.3,684.1875,237.3,686.5875,243.3,688.9875,240.9,686.5875" style="stroke:#181818;stroke-width:0.6;"/><line style="stroke:#181818;stroke-width:0.6;stroke-dasharray:2.0,2.0;" x1="239.7" x2="390.9" y1="686.5875" y2="686.5875"/><text fill="#000000" font-family="sans-serif" font-size="7.8" font-weight="bold" lengthAdjust="spacing" textLength="8.4" x="246.9" y="683.7346">31</text><text fill="#000000" font-family="sans-serif" font-size="7.8" lengthAdjust="spacing" textLength="17.4" x="257.7" y="683.7346">store</text><polygon fill="#181818" points="51.3,701.3016,45.3,703.7016,51.3,706.1016,48.9,703.7016" style="stroke:#181818;stroke-width:0.6;"/><line style="stroke:#181818;stroke-width:0.6;stroke-dasharray:2.0,2.0;" x1="47.7" x2="233.1" y1="703.7016" y2="703.7016"/><text fill="#000000" font-family="sans-serif" font-size="7.8" font-weight="bold" lengthAdjust="spacing" textLength="8.4" x="54.9" y="700.8486">32</text><text fill="#000000" font-family="sans-serif" font-size="7.8" lengthAdjust="spacing" textLength="89.4" x="65.7" y="700.8486">Shows operation success</text><!--SRC=[hLV9Rjim4BthAuXS6XiEUZVG0AwReWRID8ZYKmCKZ3InYKYaIj99zVSTKXibQZDQNI9JRvOt6oVgbV6CIfgIL70H7QL8WMXvWa3LNp8QlT83X3fFW4Y8DEM7n0Me8ut5E-C7ya8J1K50JrhmK_eCCWW-75aCv4K8_Ip-13JIGfABC5SQKhA9KyQPqfBYwGMXYco-V0zGgMOHooZNv6Bz00T4W0mH0lkTHUrtOw2ju5gA9852vVRnuRO3tsHPmYAgcU0XA8L_BFBNvlw-ZQHPLWAU-92K9nITf0Ik6y6zGiySYV0c37S_xZmEcL0C2J1G5bOVv24p4SUOjaMa8u5cF0Ntjvl7ZciYnPUyqRn-ujlkMH6rxccl8hHQ0bsXDbIPd23GvgRWRzu2KmliZMgmIGy8FlX2hgunlMIDk5T5jC22Ar9BAE7mJgms2wx5iHhiWNbG51MOb2-NgAGIRdr701eo7t-VG6b5OgffZOZ1K-owfVCCL2KAiPKbbonUeQ1Y1sxBOqKI4PLlJnnIoX92urXY3H3AOn9XXQ8LeY61x2WuaA9R5Xunts_qGHt5kxAUn6VvhaxFANFvJeJG2Q1DsGoQcuBbYbXQTmwhbZtRa_MnUQozqkwQ742tPiDNd4jb1rqkMd8ZAhkgJNjRrJkkS8P5q57bgRJpe0zXFZJEDaEY5-manIeSzR5oSTkQ8LEE3ggr5M1yhPrj3wT18SVfKUMkx-LOMvEYu3yP7cRqtPYV0nGyAjLi74MRfmGwrApPIJc7sMnR5KCpK8lqTAVZfJM-cDHKsxQpUH9k7eDq4-WDvZbA7DRJbkjUz6uBX_ldlCdj3F9Ddth-Jn98XCZ8pnTS7935iOh0TDQwbXnEveBXUMl6VADgDfi-HlEoMTc_weklkLzmz_fOh55dvdKxCop0Oz_LdbWrbq0qHD2tFfxMJc7vS_vpFf62wQ2t0bpuJrqJCqZqtKpDj1zKvYeQljygwhDlri5xTTNsPUXU7AlEEbZNnLAsNFwVAt_KjG47wiZWfbJOjhlUOiuT5TPRuMJ1dEF96qqOBaimovsp6h5d30Hdz7ZmhthdwEpf9EN5UNRtx7TJugPdt6_khXxQbLTa86tnuIeRHLXqGS_Mwwuk-8_5Nm00]--></g></svg>