<?xml version="1.0" encoding="us-ascii" standalone="no"?><svg xmlns="http://www.w3.org/2000/svg" xmlns:xlink="http://www.w3.org/1999/xlink" contentStyleType="text/css" height="606.6px" preserveAspectRatio="none" style="width:469px;height:606px;background:#FFFFFF;" version="1.1" viewBox="0 0 469 606" width="469.2px" zoomAndPan="magnify"><defs/><g><!--class ApplicationSession--><g id="elem_ApplicationSession"><rect codeLine="11" fill="#F1F1F1" height="47.5688" id="ApplicationSession" rx="1.5" ry="1.5" style="stroke:#181818;stroke-width:0.3;" width="90.6" x="316.5" y="163.8"/><ellipse cx="325.5" cy="173.4" fill="#ADD1B2" rx="6.6" ry="6.6" style="stroke:#181818;stroke-width:0.6;"/><path d="M326.7,171.3 Q326.8219,171 326.9625,170.85 Q327.1031,170.7 327.2625,170.7 Q327.5438,170.7 327.7219,170.8688 Q327.9,171.0375 327.9,171.4313 L327.9,172.3688 Q327.9,172.7625 327.7313,172.9313 Q327.5625,173.1 327.3,173.1 Q327.0656,173.1 326.9156,172.9969 Q326.7656,172.8937 326.7,172.6219 Q326.6719,172.4344 326.5687,172.3312 Q326.3812,172.1344 326.0438,172.0219 Q325.7063,171.9 325.3688,171.9 Q324.9469,171.9 324.5906,172.0688 Q324.2438,172.2375 323.9719,172.6125 Q323.7,172.9875 323.7,173.5031 L323.7,174.0563 Q323.7,174.675 324.2063,175.0875 Q324.7125,175.5 325.6125,175.5 Q326.1469,175.5 326.5219,175.3781 Q326.7375,175.3125 326.9813,175.0969 Q327.1406,174.975 327.225,174.9375 Q327.3094,174.9 327.4125,174.9 Q327.6094,174.9 327.75,175.0594 Q327.9,175.2094 327.9,175.425 Q327.9,175.6313 327.6937,175.875 Q327.3938,176.2313 326.9156,176.4281 Q326.2875,176.7 325.5188,176.7 Q324.6188,176.7 323.8969,176.3438 Q323.3156,176.0625 322.9031,175.4531 Q322.5,174.8438 322.5,174.1219 L322.5,173.4656 Q322.5,172.7156 322.8563,172.0594 Q323.2219,171.4031 323.85,171.0563 Q324.4875,170.7 325.2,170.7 Q325.6312,170.7 326.0062,170.85 Q326.3812,171 326.7,171.3 Z " fill="#000000"/><text fill="#000000" font-family="sans-serif" font-size="8.4" lengthAdjust="spacing" textLength="71.4" x="333.9" y="176.3121">ApplicationSession</text><line style="stroke:#181818;stroke-width:0.3;" x1="317.1" x2="406.5" y1="183" y2="183"/><line style="stroke:#181818;stroke-width:0.3;" x1="317.1" x2="406.5" y1="187.8" y2="187.8"/><text fill="#000000" font-family="sans-serif" font-size="8.4" lengthAdjust="spacing" textLength="76.8" x="320.1" y="197.8043">+static getInstance()</text><text fill="#000000" font-family="sans-serif" font-size="8.4" lengthAdjust="spacing" textLength="81.6" x="320.1" y="207.1887">+getCurrentSession()</text></g><!--class UserSession--><g id="elem_UserSession"><rect codeLine="17" fill="#F1F1F1" height="38.1844" id="UserSession" rx="1.5" ry="1.5" style="stroke:#181818;stroke-width:0.3;" width="67.8" x="358.5" y="284.7"/><ellipse cx="368.04" cy="294.3" fill="#ADD1B2" rx="6.6" ry="6.6" style="stroke:#181818;stroke-width:0.6;"/><path d="M369.24,292.2 Q369.3619,291.9 369.5025,291.75 Q369.6431,291.6 369.8025,291.6 Q370.0837,291.6 370.2619,291.7688 Q370.44,291.9375 370.44,292.3313 L370.44,293.2688 Q370.44,293.6625 370.2712,293.8313 Q370.1025,294 369.84,294 Q369.6056,294 369.4556,293.8969 Q369.3056,293.7938 369.24,293.5219 Q369.2119,293.3344 369.1088,293.2313 Q368.9213,293.0344 368.5837,292.9219 Q368.2463,292.8 367.9088,292.8 Q367.4869,292.8 367.1306,292.9688 Q366.7838,293.1375 366.5119,293.5125 Q366.24,293.8875 366.24,294.4031 L366.24,294.9563 Q366.24,295.575 366.7463,295.9875 Q367.2525,296.4 368.1525,296.4 Q368.6869,296.4 369.0619,296.2781 Q369.2775,296.2125 369.5212,295.9969 Q369.6806,295.875 369.765,295.8375 Q369.8494,295.8 369.9525,295.8 Q370.1494,295.8 370.29,295.9594 Q370.44,296.1094 370.44,296.325 Q370.44,296.5313 370.2338,296.775 Q369.9338,297.1312 369.4556,297.3281 Q368.8275,297.6 368.0588,297.6 Q367.1588,297.6 366.4369,297.2438 Q365.8556,296.9625 365.4431,296.3531 Q365.04,295.7438 365.04,295.0219 L365.04,294.3656 Q365.04,293.6156 365.3962,292.9594 Q365.7619,292.3031 366.39,291.9563 Q367.0275,291.6 367.74,291.6 Q368.1713,291.6 368.5463,291.75 Q368.9213,291.9 369.24,292.2 Z " fill="#000000"/><text fill="#000000" font-family="sans-serif" font-size="8.4" lengthAdjust="spacing" textLength="47.4" x="376.56" y="297.2121">UserSession</text><line style="stroke:#181818;stroke-width:0.3;" x1="359.1" x2="425.7" y1="303.9" y2="303.9"/><line style="stroke:#181818;stroke-width:0.3;" x1="359.1" x2="425.7" y1="308.7" y2="308.7"/><text fill="#000000" font-family="sans-serif" font-size="8.4" lengthAdjust="spacing" textLength="60.6" x="362.1" y="318.7043">+getUserEmail()</text></g><!--class Store--><g id="elem_Store"><rect codeLine="22" fill="#F1F1F1" height="103.875" id="Store" rx="1.5" ry="1.5" style="stroke:#181818;stroke-width:0.3;" width="116.4" x="193.8" y="396.6"/><ellipse cx="239.25" cy="406.2" fill="#ADD1B2" rx="6.6" ry="6.6" style="stroke:#181818;stroke-width:0.6;"/><path d="M240.45,404.1 Q240.5719,403.8 240.7125,403.65 Q240.8531,403.5 241.0125,403.5 Q241.2938,403.5 241.4719,403.6688 Q241.65,403.8375 241.65,404.2313 L241.65,405.1688 Q241.65,405.5625 241.4813,405.7313 Q241.3125,405.9 241.05,405.9 Q240.8156,405.9 240.6656,405.7969 Q240.5156,405.6937 240.45,405.4219 Q240.4219,405.2344 240.3188,405.1312 Q240.1313,404.9344 239.7938,404.8219 Q239.4562,404.7 239.1187,404.7 Q238.6969,404.7 238.3406,404.8688 Q237.9937,405.0375 237.7219,405.4125 Q237.45,405.7875 237.45,406.3031 L237.45,406.8563 Q237.45,407.475 237.9562,407.8875 Q238.4625,408.3 239.3625,408.3 Q239.8969,408.3 240.2719,408.1781 Q240.4875,408.1125 240.7313,407.8969 Q240.8906,407.775 240.975,407.7375 Q241.0594,407.7 241.1625,407.7 Q241.3594,407.7 241.5,407.8594 Q241.65,408.0094 241.65,408.225 Q241.65,408.4313 241.4438,408.675 Q241.1437,409.0313 240.6656,409.2281 Q240.0375,409.5 239.2687,409.5 Q238.3687,409.5 237.6469,409.1438 Q237.0656,408.8625 236.6531,408.2531 Q236.25,407.6438 236.25,406.9219 L236.25,406.2656 Q236.25,405.5156 236.6063,404.8594 Q236.9719,404.2031 237.6,403.8563 Q238.2375,403.5 238.95,403.5 Q239.3813,403.5 239.7563,403.65 Q240.1313,403.8 240.45,404.1 Z " fill="#000000"/><text fill="#000000" font-family="sans-serif" font-size="8.4" lengthAdjust="spacing" textLength="20.4" x="251.55" y="409.1121">Store</text><line style="stroke:#181818;stroke-width:0.3;" x1="194.4" x2="309.6" y1="415.8" y2="415.8"/><text fill="#000000" font-family="sans-serif" font-size="8.4" lengthAdjust="spacing" textLength="38.4" x="197.4" y="425.8043">-Integer id</text><text fill="#000000" font-family="sans-serif" font-size="8.4" lengthAdjust="spacing" textLength="71.4" x="197.4" y="435.1887">-String designation</text><text fill="#000000" font-family="sans-serif" font-size="8.4" lengthAdjust="spacing" textLength="57" x="197.4" y="444.573">-String location</text><text fill="#000000" font-family="sans-serif" font-size="8.4" lengthAdjust="spacing" textLength="78.6" x="197.4" y="453.9574">-String emailAddress</text><text fill="#000000" font-family="sans-serif" font-size="8.4" lengthAdjust="spacing" textLength="81" x="197.4" y="463.3418">-String phoneNumber</text><line style="stroke:#181818;stroke-width:0.3;" x1="194.4" x2="309.6" y1="467.5219" y2="467.5219"/><text fill="#000000" font-family="sans-serif" font-size="8.4" lengthAdjust="spacing" textLength="85.8" x="197.4" y="477.5262">+Store(id, designation,</text><text fill="#000000" font-family="sans-serif" font-size="8.4" lengthAdjust="spacing" textLength="87.6" x="197.4" y="486.9105">location, emailAddress,</text><text fill="#000000" font-family="sans-serif" font-size="8.4" lengthAdjust="spacing" textLength="109.2" x="197.4" y="496.2949">phoneNumber, registeredBy)</text></g><!--class Company--><g id="elem_Company"><rect codeLine="32" fill="#F1F1F1" height="94.4906" id="Company" rx="1.5" ry="1.5" style="stroke:#181818;stroke-width:0.3;" width="158.4" x="172.8" y="256.8"/><ellipse cx="231.45" cy="266.4" fill="#ADD1B2" rx="6.6" ry="6.6" style="stroke:#181818;stroke-width:0.6;"/><path d="M232.65,264.3 Q232.7719,264 232.9125,263.85 Q233.0531,263.7 233.2125,263.7 Q233.4937,263.7 233.6719,263.8688 Q233.85,264.0375 233.85,264.4313 L233.85,265.3688 Q233.85,265.7625 233.6812,265.9313 Q233.5125,266.1 233.25,266.1 Q233.0156,266.1 232.8656,265.9969 Q232.7156,265.8938 232.65,265.6219 Q232.6219,265.4344 232.5187,265.3313 Q232.3312,265.1344 231.9937,265.0219 Q231.6563,264.9 231.3188,264.9 Q230.8969,264.9 230.5406,265.0687 Q230.1938,265.2375 229.9219,265.6125 Q229.65,265.9875 229.65,266.5031 L229.65,267.0563 Q229.65,267.675 230.1563,268.0875 Q230.6625,268.5 231.5625,268.5 Q232.0969,268.5 232.4719,268.3781 Q232.6875,268.3125 232.9312,268.0969 Q233.0906,267.975 233.175,267.9375 Q233.2594,267.9 233.3625,267.9 Q233.5594,267.9 233.7,268.0594 Q233.85,268.2094 233.85,268.425 Q233.85,268.6312 233.6437,268.875 Q233.3438,269.2313 232.8656,269.4281 Q232.2375,269.7 231.4688,269.7 Q230.5688,269.7 229.8469,269.3438 Q229.2656,269.0625 228.8531,268.4531 Q228.45,267.8438 228.45,267.1219 L228.45,266.4656 Q228.45,265.7156 228.8063,265.0594 Q229.1719,264.4031 229.8,264.0563 Q230.4375,263.7 231.15,263.7 Q231.5812,263.7 231.9562,263.85 Q232.3312,264 232.65,264.3 Z " fill="#000000"/><text fill="#000000" font-family="sans-serif" font-size="8.4" lengthAdjust="spacing" textLength="36" x="243.75" y="269.3121">Company</text><line style="stroke:#181818;stroke-width:0.3;" x1="173.4" x2="330.6" y1="276" y2="276"/><text fill="#000000" font-family="sans-serif" font-size="8.4" lengthAdjust="spacing" textLength="69" x="176.4" y="286.0043">-String description</text><line style="stroke:#181818;stroke-width:0.3;" x1="173.4" x2="330.6" y1="290.1844" y2="290.1844"/><text fill="#000000" font-family="sans-serif" font-size="8.4" lengthAdjust="spacing" textLength="63" x="176.4" y="300.1887">-addStore(store)</text><text fill="#000000" font-family="sans-serif" font-size="8.4" lengthAdjust="spacing" textLength="78" x="176.4" y="309.573">-validateStore(store)</text><text fill="#000000" font-family="sans-serif" font-size="8.4" lengthAdjust="spacing" textLength="148.8" x="176.4" y="318.9574">+registerStore(id, designation, location,</text><text fill="#000000" font-family="sans-serif" font-size="8.4" lengthAdjust="spacing" textLength="112.2" x="176.4" y="328.3418">emailAddress, phoneNumber)</text><text fill="#000000" font-family="sans-serif" font-size="8.4" lengthAdjust="spacing" textLength="88.2" x="176.4" y="337.7262">+Company(description)</text><text fill="#000000" font-family="sans-serif" font-size="8.4" lengthAdjust="spacing" textLength="120.6" x="176.4" y="347.1105">-getAdministratorByEmail(email)</text></g><!--class Repositories--><g id="elem_Repositories"><rect codeLine="42" fill="#F1F1F1" height="56.9531" id="Repositories" rx="1.5" ry="1.5" style="stroke:#181818;stroke-width:0.3;" width="116.4" x="84.6" y="88.8"/><ellipse cx="116.55" cy="98.4" fill="#ADD1B2" rx="6.6" ry="6.6" style="stroke:#181818;stroke-width:0.6;"/><path d="M117.75,96.3 Q117.8719,96 118.0125,95.85 Q118.1531,95.7 118.3125,95.7 Q118.5938,95.7 118.7719,95.8687 Q118.95,96.0375 118.95,96.4312 L118.95,97.3687 Q118.95,97.7625 118.7813,97.9312 Q118.6125,98.1 118.35,98.1 Q118.1156,98.1 117.9656,97.9969 Q117.8156,97.8938 117.75,97.6219 Q117.7219,97.4344 117.6187,97.3313 Q117.4312,97.1344 117.0938,97.0219 Q116.7563,96.9 116.4187,96.9 Q115.9969,96.9 115.6406,97.0688 Q115.2937,97.2375 115.0219,97.6125 Q114.75,97.9875 114.75,98.5031 L114.75,99.0562 Q114.75,99.675 115.2563,100.0875 Q115.7625,100.5 116.6625,100.5 Q117.1969,100.5 117.5719,100.3781 Q117.7875,100.3125 118.0313,100.0969 Q118.1906,99.975 118.275,99.9375 Q118.3594,99.9 118.4625,99.9 Q118.6594,99.9 118.8,100.0594 Q118.95,100.2094 118.95,100.425 Q118.95,100.6313 118.7437,100.875 Q118.4438,101.2313 117.9656,101.4281 Q117.3375,101.7 116.5688,101.7 Q115.6687,101.7 114.9469,101.3438 Q114.3656,101.0625 113.9531,100.4531 Q113.55,99.8438 113.55,99.1219 L113.55,98.4656 Q113.55,97.7156 113.9063,97.0594 Q114.2719,96.4031 114.9,96.0562 Q115.5375,95.7 116.25,95.7 Q116.6812,95.7 117.0562,95.85 Q117.4312,96 117.75,96.3 Z " fill="#000000"/><text fill="#000000" font-family="sans-serif" font-size="8.4" lengthAdjust="spacing" textLength="47.4" x="128.85" y="101.3121">Repositories</text><line style="stroke:#181818;stroke-width:0.3;" x1="85.2" x2="200.4" y1="108" y2="108"/><line style="stroke:#181818;stroke-width:0.3;" x1="85.2" x2="200.4" y1="112.8" y2="112.8"/><text fill="#000000" font-family="sans-serif" font-size="8.4" lengthAdjust="spacing" textLength="56.4" x="88.2" y="122.8043">-Repositories()</text><text fill="#000000" font-family="sans-serif" font-size="8.4" lengthAdjust="spacing" textLength="109.2" x="88.2" y="132.1887">+getInstance() : Repositories</text><text fill="#000000" font-family="sans-serif" font-size="8.4" lengthAdjust="spacing" textLength="99.6" x="88.2" y="141.573">+getCompanyRepository()</text></g><!--class RegisterStoreController--><g id="elem_RegisterStoreController"><rect codeLine="48" fill="#F1F1F1" height="66.3375" id="RegisterStoreController" rx="1.5" ry="1.5" style="stroke:#181818;stroke-width:0.3;" width="182.4" x="171" y="4.2"/><ellipse cx="214.95" cy="13.8" fill="#ADD1B2" rx="6.6" ry="6.6" style="stroke:#181818;stroke-width:0.6;"/><path d="M216.15,11.7 Q216.2719,11.4 216.4125,11.25 Q216.5531,11.1 216.7125,11.1 Q216.9938,11.1 217.1719,11.2687 Q217.35,11.4375 217.35,11.8312 L217.35,12.7687 Q217.35,13.1625 217.1813,13.3312 Q217.0125,13.5 216.75,13.5 Q216.5156,13.5 216.3656,13.3969 Q216.2156,13.2938 216.15,13.0219 Q216.1219,12.8344 216.0187,12.7313 Q215.8312,12.5344 215.4938,12.4219 Q215.1563,12.3 214.8188,12.3 Q214.3969,12.3 214.0406,12.4688 Q213.6938,12.6375 213.4219,13.0125 Q213.15,13.3875 213.15,13.9031 L213.15,14.4562 Q213.15,15.075 213.6563,15.4875 Q214.1625,15.9 215.0625,15.9 Q215.5969,15.9 215.9719,15.7781 Q216.1875,15.7125 216.4313,15.4969 Q216.5906,15.375 216.675,15.3375 Q216.7594,15.3 216.8625,15.3 Q217.0594,15.3 217.2,15.4594 Q217.35,15.6094 217.35,15.825 Q217.35,16.0313 217.1437,16.275 Q216.8438,16.6312 216.3656,16.8281 Q215.7375,17.1 214.9688,17.1 Q214.0688,17.1 213.3469,16.7438 Q212.7656,16.4625 212.3531,15.8531 Q211.95,15.2437 211.95,14.5219 L211.95,13.8656 Q211.95,13.1156 212.3063,12.4594 Q212.6719,11.8031 213.3,11.4562 Q213.9375,11.1 214.65,11.1 Q215.0812,11.1 215.4562,11.25 Q215.8312,11.4 216.15,11.7 Z " fill="#000000"/><text fill="#000000" font-family="sans-serif" font-size="8.4" lengthAdjust="spacing" textLength="89.4" x="227.25" y="16.7121">RegisterStoreController</text><line style="stroke:#181818;stroke-width:0.3;" x1="171.6" x2="352.8" y1="23.4" y2="23.4"/><line style="stroke:#181818;stroke-width:0.3;" x1="171.6" x2="352.8" y1="28.2" y2="28.2"/><text fill="#000000" font-family="sans-serif" font-size="8.4" lengthAdjust="spacing" textLength="175.2" x="174.6" y="38.2043">+RegisterStoreController(companyRepository)</text><text fill="#000000" font-family="sans-serif" font-size="8.4" lengthAdjust="spacing" textLength="148.8" x="174.6" y="47.5887">+registerStore(id, designation, location,</text><text fill="#000000" font-family="sans-serif" font-size="8.4" lengthAdjust="spacing" textLength="112.2" x="174.6" y="56.973">emailAddress, phoneNumber)</text><text fill="#000000" font-family="sans-serif" font-size="8.4" lengthAdjust="spacing" textLength="120.6" x="174.6" y="66.3574">-getAdministratorFromSession()</text></g><!--class CompanyRepository--><g id="elem_CompanyRepository"><rect codeLine="54" fill="#F1F1F1" height="38.1844" id="CompanyRepository" rx="1.5" ry="1.5" style="stroke:#181818;stroke-width:0.3;" width="133.2" x="76.2" y="168.3"/><ellipse cx="101.94" cy="177.9" fill="#ADD1B2" rx="6.6" ry="6.6" style="stroke:#181818;stroke-width:0.6;"/><path d="M103.14,175.8 Q103.2619,175.5 103.4025,175.35 Q103.5431,175.2 103.7025,175.2 Q103.9838,175.2 104.1619,175.3688 Q104.34,175.5375 104.34,175.9313 L104.34,176.8688 Q104.34,177.2625 104.1713,177.4313 Q104.0025,177.6 103.74,177.6 Q103.5056,177.6 103.3556,177.4969 Q103.2056,177.3937 103.14,177.1219 Q103.1119,176.9344 103.0088,176.8312 Q102.8213,176.6344 102.4838,176.5219 Q102.1463,176.4 101.8088,176.4 Q101.3869,176.4 101.0306,176.5688 Q100.6838,176.7375 100.4119,177.1125 Q100.14,177.4875 100.14,178.0031 L100.14,178.5563 Q100.14,179.175 100.6463,179.5875 Q101.1525,180 102.0525,180 Q102.5869,180 102.9619,179.8781 Q103.1775,179.8125 103.4213,179.5969 Q103.5806,179.475 103.665,179.4375 Q103.7494,179.4 103.8525,179.4 Q104.0494,179.4 104.19,179.5594 Q104.34,179.7094 104.34,179.925 Q104.34,180.1313 104.1338,180.375 Q103.8338,180.7313 103.3556,180.9281 Q102.7275,181.2 101.9588,181.2 Q101.0588,181.2 100.3369,180.8438 Q99.7556,180.5625 99.3431,179.9531 Q98.94,179.3438 98.94,178.6219 L98.94,177.9656 Q98.94,177.2156 99.2963,176.5594 Q99.6619,175.9031 100.29,175.5563 Q100.9275,175.2 101.64,175.2 Q102.0713,175.2 102.4463,175.35 Q102.8213,175.5 103.14,175.8 Z " fill="#000000"/><text fill="#000000" font-family="sans-serif" font-size="8.4" lengthAdjust="spacing" textLength="76.8" x="114.06" y="180.8121">CompanyRepository</text><line style="stroke:#181818;stroke-width:0.3;" x1="76.8" x2="208.8" y1="187.5" y2="187.5"/><line style="stroke:#181818;stroke-width:0.3;" x1="76.8" x2="208.8" y1="192.3" y2="192.3"/><text fill="#000000" font-family="sans-serif" font-size="8.4" lengthAdjust="spacing" textLength="126" x="79.8" y="202.3043">+getCompanyByUserEmail(email)</text></g><!--class SystemAdministrator--><g id="elem_SystemAdministrator"><rect codeLine="58" fill="#F1F1F1" height="56.9531" id="SystemAdministrator" rx="1.5" ry="1.5" style="stroke:#181818;stroke-width:0.3;" width="96.6" x="203.7" y="546"/><ellipse cx="212.7" cy="555.6" fill="#ADD1B2" rx="6.6" ry="6.6" style="stroke:#181818;stroke-width:0.6;"/><path d="M213.9,553.5 Q214.0219,553.2 214.1625,553.05 Q214.3031,552.9 214.4625,552.9 Q214.7438,552.9 214.9219,553.0688 Q215.1,553.2375 215.1,553.6313 L215.1,554.5688 Q215.1,554.9625 214.9313,555.1313 Q214.7625,555.3 214.5,555.3 Q214.2656,555.3 214.1156,555.1969 Q213.9656,555.0938 213.9,554.8219 Q213.8719,554.6344 213.7687,554.5313 Q213.5812,554.3344 213.2438,554.2219 Q212.9063,554.1 212.5688,554.1 Q212.1469,554.1 211.7906,554.2688 Q211.4438,554.4375 211.1719,554.8125 Q210.9,555.1875 210.9,555.7031 L210.9,556.2563 Q210.9,556.875 211.4063,557.2875 Q211.9125,557.7 212.8125,557.7 Q213.3469,557.7 213.7219,557.5781 Q213.9375,557.5125 214.1813,557.2969 Q214.3406,557.175 214.425,557.1375 Q214.5094,557.1 214.6125,557.1 Q214.8094,557.1 214.95,557.2594 Q215.1,557.4094 215.1,557.625 Q215.1,557.8313 214.8937,558.075 Q214.5938,558.4313 214.1156,558.6281 Q213.4875,558.9 212.7188,558.9 Q211.8188,558.9 211.0969,558.5437 Q210.5156,558.2625 210.1031,557.6531 Q209.7,557.0437 209.7,556.3219 L209.7,555.6656 Q209.7,554.9156 210.0563,554.2594 Q210.4219,553.6031 211.05,553.2563 Q211.6875,552.9 212.4,552.9 Q212.8312,552.9 213.2062,553.05 Q213.5812,553.2 213.9,553.5 Z " fill="#000000"/><text fill="#000000" font-family="sans-serif" font-size="8.4" lengthAdjust="spacing" textLength="77.4" x="221.1" y="558.5121">SystemAdministrator</text><line style="stroke:#181818;stroke-width:0.3;" x1="204.3" x2="299.7" y1="565.2" y2="565.2"/><text fill="#000000" font-family="sans-serif" font-size="8.4" lengthAdjust="spacing" textLength="24" x="207.3" y="575.2043">-name</text><text fill="#000000" font-family="sans-serif" font-size="8.4" lengthAdjust="spacing" textLength="22.8" x="207.3" y="584.5887">-email</text><text fill="#000000" font-family="sans-serif" font-size="8.4" lengthAdjust="spacing" textLength="39" x="207.3" y="593.973">-password</text><line style="stroke:#181818;stroke-width:0.3;" x1="204.3" x2="299.7" y1="598.1531" y2="598.1531"/></g><!--class RegisterStoreUI--><g id="elem_RegisterStoreUI"><rect fill="#F1F1F1" height="28.8" id="RegisterStoreUI" rx="1.5" ry="1.5" style="stroke:#181818;stroke-width:0.3;" width="78.6" x="71.1" y="23.1"/><ellipse cx="80.1" cy="32.7" fill="#ADD1B2" rx="6.6" ry="6.6" style="stroke:#181818;stroke-width:0.6;"/><path d="M81.3,30.6 Q81.4219,30.3 81.5625,30.15 Q81.7031,30 81.8625,30 Q82.1438,30 82.3219,30.1688 Q82.5,30.3375 82.5,30.7313 L82.5,31.6688 Q82.5,32.0625 82.3313,32.2312 Q82.1625,32.4 81.9,32.4 Q81.6656,32.4 81.5156,32.2969 Q81.3656,32.1938 81.3,31.9219 Q81.2719,31.7344 81.1688,31.6312 Q80.9813,31.4344 80.6438,31.3219 Q80.3062,31.2 79.9688,31.2 Q79.5469,31.2 79.1906,31.3688 Q78.8438,31.5375 78.5719,31.9125 Q78.3,32.2875 78.3,32.8031 L78.3,33.3562 Q78.3,33.975 78.8062,34.3875 Q79.3125,34.8 80.2125,34.8 Q80.7469,34.8 81.1219,34.6781 Q81.3375,34.6125 81.5813,34.3969 Q81.7406,34.275 81.825,34.2375 Q81.9094,34.2 82.0125,34.2 Q82.2094,34.2 82.35,34.3594 Q82.5,34.5094 82.5,34.725 Q82.5,34.9313 82.2938,35.175 Q81.9937,35.5313 81.5156,35.7281 Q80.8875,36 80.1187,36 Q79.2188,36 78.4969,35.6438 Q77.9156,35.3625 77.5031,34.7531 Q77.1,34.1438 77.1,33.4219 L77.1,32.7656 Q77.1,32.0156 77.4563,31.3594 Q77.8219,30.7031 78.45,30.3563 Q79.0875,30 79.8,30 Q80.2313,30 80.6063,30.15 Q80.9813,30.3 81.3,30.6 Z " fill="#000000"/><text fill="#000000" font-family="sans-serif" font-size="8.4" lengthAdjust="spacing" textLength="59.4" x="88.5" y="35.6121">RegisterStoreUI</text><line style="stroke:#181818;stroke-width:0.3;" x1="71.7" x2="149.1" y1="42.3" y2="42.3"/><line style="stroke:#181818;stroke-width:0.3;" x1="71.7" x2="149.1" y1="47.1" y2="47.1"/></g><!--link Repositories to Repositories--><g id="link_Repositories_Repositories"><path codeLine="64" d="M201.168,104.706 C213.288,106.032 222,110.232 222,117.3 C222,123.762 214.722,127.824 204.216,129.486 " fill="none" id="Repositories-to-Repositories" style="stroke:#181818;stroke-width:0.6;"/><polygon fill="#181818" points="201.168,129.894,206.8366,131.5635,204.142,129.4998,206.2058,126.8052,201.168,129.894" style="stroke:#181818;stroke-width:0.6;"/><text fill="#000000" font-family="sans-serif" font-size="7.8" lengthAdjust="spacing" textLength="29.4" x="225.6" y="120.1611">instance</text></g><!--link ApplicationSession to ApplicationSession--><g id="link_ApplicationSession_ApplicationSession"><path codeLine="65" d="M407.196,179.034 C419.1,179.532 428.1,182.358 428.1,187.5 C428.1,192.204 420.582,194.964 410.196,195.786 " fill="none" id="ApplicationSession-to-ApplicationSession" style="stroke:#181818;stroke-width:0.6;"/><polygon fill="#181818" points="407.196,195.966,412.7304,198.0373,410.1906,195.7858,412.4421,193.246,407.196,195.966" style="stroke:#181818;stroke-width:0.6;"/><text fill="#000000" font-family="sans-serif" font-size="7.8" lengthAdjust="spacing" textLength="29.4" x="431.7" y="190.3611">instance</text></g><!--link RegisterStoreUI to RegisterStoreController--><g id="link_RegisterStoreUI_RegisterStoreController"><path codeLine="67" d="M149.772,37.5 C156.3,37.5 160.998,37.5 160.998,37.5 C160.998,37.5 163.716,37.5 167.892,37.5 " fill="none" id="RegisterStoreUI-to-RegisterStoreController" style="stroke:#181818;stroke-width:0.6;stroke-dasharray:7.0,7.0;"/><polygon fill="#181818" points="170.994,37.5,165.594,35.1,167.994,37.5,165.594,39.9,170.994,37.5" style="stroke:#181818;stroke-width:0.6;"/></g><!--link RegisterStoreController to Repositories--><g id="link_RegisterStoreController_Repositories"><path codeLine="69" d="M212.43,70.866 C204.324,76.2 195.966,81.702 187.98,86.958 " fill="none" id="RegisterStoreController-to-Repositories" style="stroke:#181818;stroke-width:0.6;stroke-dasharray:7.0,7.0;"/><polygon fill="#181818" points="185.286,88.734,191.1166,87.7725,187.7927,87.0858,188.4794,83.7619,185.286,88.734" style="stroke:#181818;stroke-width:0.6;"/><text fill="#000000" font-family="sans-serif" font-size="7.8" lengthAdjust="spacing" textLength="40.2" x="159.402" y="86.5731">repositories</text></g><!--link Repositories to CompanyRepository--><g id="link_Repositories_CompanyRepository"><path codeLine="71" d="M142.8,145.962 C142.8,152.322 142.8,158.976 142.8,165.03 " fill="none" id="Repositories-to-CompanyRepository" style="stroke:#181818;stroke-width:0.6;"/><polygon fill="#181818" points="142.8,168.138,145.2,162.738,142.8,165.138,140.4,162.738,142.8,168.138" style="stroke:#181818;stroke-width:0.6;"/><text fill="#000000" font-family="sans-serif" font-size="7.8" lengthAdjust="spacing" textLength="4.2" x="138.1406" y="161.7029">1</text></g><!--link RegisterStoreController to CompanyRepository--><g id="link_RegisterStoreController_CompanyRepository"><path codeLine="73" d="M170.922,67.362 C164.328,69.474 160.2,70.8 160.2,70.8 C160.2,70.8 3.6,88.8 3.6,88.8 C3.6,88.8 3.6,145.8 3.6,145.8 C3.6,145.8 40.764,156.774 76.692,167.382 " fill="none" id="RegisterStoreController-to-CompanyRepository" style="stroke:#181818;stroke-width:0.6;stroke-dasharray:7.0,7.0;"/><polygon fill="#181818" points="79.716,168.276,75.2145,164.4476,76.8383,167.4281,73.8579,169.0519,79.716,168.276" style="stroke:#181818;stroke-width:0.6;"/><text fill="#000000" font-family="sans-serif" font-size="7.8" lengthAdjust="spacing" textLength="69" x="4.2" y="120.1611">companyRepository</text></g><!--link CompanyRepository to Company--><g id="link_CompanyRepository_Company"><path codeLine="74" d="M160.59,206.868 C172.848,219.798 189.75,237.63 205.68,254.436 " fill="none" id="CompanyRepository-to-Company" style="stroke:#181818;stroke-width:0.6;"/><polygon fill="#181818" points="207.822,256.698,205.8462,251.1288,205.7571,254.5217,202.3642,254.4326,207.822,256.698" style="stroke:#181818;stroke-width:0.6;"/><text fill="#000000" font-family="sans-serif" font-size="7.8" lengthAdjust="spacing" textLength="31.8" x="188.4" y="236.8611">company</text><text fill="#000000" font-family="sans-serif" font-size="7.8" lengthAdjust="spacing" textLength="4.2" x="159.2828" y="218.3233">1</text><text fill="#000000" font-family="sans-serif" font-size="7.8" lengthAdjust="spacing" textLength="3" x="200.3256" y="250.3004">*</text></g><!--link ApplicationSession to UserSession--><g id="link_ApplicationSession_UserSession"><path codeLine="75" d="M367.992,211.41 C373.428,231.882 381.282,261.432 386.598,281.454 " fill="none" id="ApplicationSession-to-UserSession" style="stroke:#181818;stroke-width:0.6;"/><polygon fill="#181818" points="387.426,284.58,388.3557,278.7443,386.6541,281.681,383.7174,279.9794,387.426,284.58" style="stroke:#181818;stroke-width:0.6;"/><text fill="#000000" font-family="sans-serif" font-size="7.8" lengthAdjust="spacing" textLength="43.2" x="374.4" y="236.8611">userSession</text><text fill="#000000" font-family="sans-serif" font-size="7.8" lengthAdjust="spacing" textLength="4.2" x="381.6786" y="278.1541">1</text></g><!--link RegisterStoreController to Company--><g id="link_RegisterStoreController_Company"><path codeLine="77" d="M260.94,70.884 C259.176,116.718 255.96,200.328 253.902,253.776 " fill="none" id="RegisterStoreController-to-Company" style="stroke:#181818;stroke-width:0.6;stroke-dasharray:7.0,7.0;"/><polygon fill="#181818" points="253.788,256.776,256.4025,251.4765,253.9082,253.7784,251.6064,251.2841,253.788,256.776" style="stroke:#181818;stroke-width:0.6;"/><text fill="#000000" font-family="sans-serif" font-size="7.8" lengthAdjust="spacing" textLength="31.8" x="258" y="190.3611">company</text><text fill="#000000" font-family="sans-serif" font-size="7.8" lengthAdjust="spacing" textLength="4.2" x="249.5573" y="250.3861">1</text></g><!--link RegisterStoreController to ApplicationSession--><g id="link_RegisterStoreController_ApplicationSession"><path codeLine="78" d="M284.178,70.938 C302.346,98.082 327.786,136.086 344.52,161.082 " fill="none" id="RegisterStoreController-to-ApplicationSession" style="stroke:#181818;stroke-width:0.6;stroke-dasharray:7.0,7.0;"/><polygon fill="#181818" points="346.212,163.614,345.2135,157.7896,344.5479,161.1178,341.2197,160.4522,346.212,163.614" style="stroke:#181818;stroke-width:0.6;"/></g><!--link RegisterStoreController to UserSession--><g id="link_RegisterStoreController_UserSession"><path codeLine="79" d="M315.216,70.962 C375.306,108.204 465,163.8 465,163.8 C465,163.8 465,211.2 465,211.2 C465,211.2 430.422,255.06 408.996,282.246 " fill="none" id="RegisterStoreController-to-UserSession" style="stroke:#181818;stroke-width:0.6;stroke-dasharray:7.0,7.0;"/><polygon fill="#181818" points="407.094,284.664,412.317,281.8998,408.9471,282.3047,408.5422,278.9349,407.094,284.664" style="stroke:#181818;stroke-width:0.6;"/></g><!--link Store to SystemAdministrator--><g id="link_Store_SystemAdministrator"><path codeLine="80" d="M252,500.4 C252,514.842 252,530.1 252,542.952 " fill="none" id="Store-to-SystemAdministrator" style="stroke:#181818;stroke-width:0.6;"/><polygon fill="#181818" points="252,545.994,254.4,540.594,252,542.994,249.6,540.594,252,545.994" style="stroke:#181818;stroke-width:0.6;"/><text fill="#000000" font-family="sans-serif" font-size="7.8" lengthAdjust="spacing" textLength="43.8" x="252.6" y="526.0611">registeredBy</text></g><!--link Company to Store--><g id="link_Company_Store"><path codeLine="81" d="M252,351.06 C252,364.518 252,379.326 252,393.228 " fill="none" id="Company-to-Store" style="stroke:#181818;stroke-width:0.6;"/><polygon fill="#181818" points="252,396.366,254.4,390.966,252,393.366,249.6,390.966,252,396.366" style="stroke:#181818;stroke-width:0.6;"/><text fill="#000000" font-family="sans-serif" font-size="7.8" lengthAdjust="spacing" textLength="12.6" x="252.6" y="376.6611">has</text><text fill="#000000" font-family="sans-serif" font-size="7.8" lengthAdjust="spacing" textLength="4.2" x="247.5933" y="363.178">1</text><text fill="#000000" font-family="sans-serif" font-size="7.8" lengthAdjust="spacing" textLength="3" x="248.8711" y="390.1962">*</text></g><!--SRC=[hLGzRzim4DtvAuWiTXehQDSC0MoZ1Rnqg90j2qDUP28KIP1q0ZNeV-zHagsJ9NkA1aE-Tn_ltfrk4T-qzIA8cjVEEhaFhWQUmW7OW7WXtqG5PMeCy00o2LiPwX3tGhaFRIl-AaoaYD4MKkE1UsUQ_8SjPa0NacCaIXeHupgbe5yE2NRIsLB_1VwTiOM1ryIJuq5N-yILpdIqiuorCNpjlT5IP5C9CMRaat5yxdXCQ9QyWhIp-6ubB6zx26tRGmXWKn-4oBzZogS8uJmN1cJpprfeGttBv0BmpglWEvkWWi2rwWqbTeGYAOYwiYt9CM2SdB52hh9MAY29CUBtpiBlG_q2WVNCMWPBhLQqoee_ssFkrIXVHaYM5OwtqZ510BLfI6DRLtjXcrDhGoSoQ4yu2wKw2Z7_tlRMTs6q4WacqDsfu0NY0-rdEoPEQ7Uv5ZXZyJvNesU_97IFp72IQrLhYno2m9XDqmsrhKK4-0FUHOqE6k991MgaopGi67yOEP5zwoYTm6OvAaOqsJgRWZC65-cuVXVmfJnF-lKYJnNxXITZvhEPDDYJ7thVDCCtT2vtsI3TUbJdanLMrC2ArfSL7lq-N50vQ3ITud4yhGUk-tcmwNd8tZDM4iD6QZ_j-FtZfG6S-PB9tKyu1ReMamPkVjnC5RoI7lDFtB78P27Or2kNAdB9RwUIG-IiOZq_SXWnu43Ev5MUf3LIvrh4p56_vauFTdUGC-EPZMgdC9oxepOZHRe43tmlS4hiFm00]--></g></svg>