<?xml version="1.0" encoding="UTF-8" standalone="no"?><svg xmlns="http://www.w3.org/2000/svg" xmlns:xlink="http://www.w3.org/1999/xlink" contentStyleType="text/css" height="459px" preserveAspectRatio="none" style="width:730px;height:459px;background:#FFFFFF;" version="1.1" viewBox="0 0 730 459" width="730px" zoomAndPan="magnify"><defs/><g><text fill="#000000" font-family="sans-serif" font-size="14" font-weight="bold" lengthAdjust="spacing" textLength="356" x="186" y="28.5352">User Story 002 - System Sequence Diagram (SSD)</text><rect fill="#FFFFFF" height="226.3281" style="stroke:#181818;stroke-width:1.0;" width="10" x="86" y="136.043"/><rect fill="#FFFFFF" height="37.5547" style="stroke:#181818;stroke-width:1.0;" width="10" x="678" y="165.5977"/><rect fill="#FFFFFF" height="37.5547" style="stroke:#181818;stroke-width:1.0;" width="10" x="678" y="240.707"/><rect fill="#FFFFFF" height="46.5547" style="stroke:#181818;stroke-width:1.0;" width="10" x="678" y="315.8164"/><line style="stroke:#181818;stroke-width:0.5;stroke-dasharray:5.0,5.0;" x1="91" x2="91" y1="126.043" y2="371.3711"/><line style="stroke:#181818;stroke-width:0.5;stroke-dasharray:5.0,5.0;" x1="683" x2="683" y1="126.043" y2="371.3711"/><text fill="#000000" font-family="sans-serif" font-size="20" lengthAdjust="spacing" textLength="166" x="5" y="121.8242">Real Estate Agent</text><ellipse cx="91" cy="50.9883" fill="#E3E3E3" rx="8" ry="8" style="stroke:#181818;stroke-width:0.5;"/><path d="M91,58.9883 L91,85.9883 M78,66.9883 L104,66.9883 M91,85.9883 L78,100.9883 M91,85.9883 L104,100.9883 " fill="none" style="stroke:#181818;stroke-width:0.5;"/><text fill="#000000" font-family="sans-serif" font-size="20" lengthAdjust="spacing" textLength="166" x="5" y="389.707">Real Estate Agent</text><ellipse cx="91" cy="402.4258" fill="#E3E3E3" rx="8" ry="8" style="stroke:#181818;stroke-width:0.5;"/><path d="M91,410.4258 L91,437.4258 M78,418.4258 L104,418.4258 M91,437.4258 L78,452.4258 M91,437.4258 L104,452.4258 " fill="none" style="stroke:#181818;stroke-width:0.5;"/><rect fill="#E3E3E3" height="37.5547" rx="2.5" ry="2.5" style="stroke:#181818;stroke-width:0.5;" width="82" x="642" y="87.4883"/><text fill="#000000" font-family="sans-serif" font-size="20" lengthAdjust="spacing" textLength="68" x="649" y="113.8242">System</text><rect fill="#E3E3E3" height="37.5547" rx="2.5" ry="2.5" style="stroke:#181818;stroke-width:0.5;" width="82" x="642" y="370.3711"/><text fill="#000000" font-family="sans-serif" font-size="20" lengthAdjust="spacing" textLength="68" x="649" y="396.707">System</text><rect fill="#FFFFFF" height="226.3281" style="stroke:#181818;stroke-width:1.0;" width="10" x="86" y="136.043"/><rect fill="#FFFFFF" height="37.5547" style="stroke:#181818;stroke-width:1.0;" width="10" x="678" y="165.5977"/><rect fill="#FFFFFF" height="37.5547" style="stroke:#181818;stroke-width:1.0;" width="10" x="678" y="240.707"/><rect fill="#FFFFFF" height="46.5547" style="stroke:#181818;stroke-width:1.0;" width="10" x="678" y="315.8164"/><polygon fill="#181818" points="666,161.5977,676,165.5977,666,169.5977,670,165.5977" style="stroke:#181818;stroke-width:1.0;"/><line style="stroke:#181818;stroke-width:1.0;" x1="96" x2="672" y1="165.5977" y2="165.5977"/><text fill="#000000" font-family="sans-serif" font-size="20" font-weight="bold" lengthAdjust="spacing" textLength="13" x="103" y="159.3789">1</text><text fill="#000000" font-family="sans-serif" font-size="20" lengthAdjust="spacing" textLength="350" x="120" y="159.3789">requests to publish an announcment</text><polygon fill="#181818" points="107,199.1523,97,203.1523,107,207.1523,103,203.1523" style="stroke:#181818;stroke-width:1.0;"/><line style="stroke:#181818;stroke-width:1.0;stroke-dasharray:2.0,2.0;" x1="101" x2="682" y1="203.1523" y2="203.1523"/><text fill="#000000" font-family="sans-serif" font-size="20" font-weight="bold" lengthAdjust="spacing" textLength="13" x="113" y="196.9336">2</text><text fill="#000000" font-family="sans-serif" font-size="20" lengthAdjust="spacing" textLength="212" x="130" y="196.9336">asks for property data</text><polygon fill="#181818" points="666,236.707,676,240.707,666,244.707,670,240.707" style="stroke:#181818;stroke-width:1.0;"/><line style="stroke:#181818;stroke-width:1.0;" x1="96" x2="672" y1="240.707" y2="240.707"/><text fill="#000000" font-family="sans-serif" font-size="20" font-weight="bold" lengthAdjust="spacing" textLength="13" x="103" y="234.4883">3</text><text fill="#000000" font-family="sans-serif" font-size="20" lengthAdjust="spacing" textLength="353" x="120" y="234.4883">registers  all necessary property data</text><polygon fill="#181818" points="107,274.2617,97,278.2617,107,282.2617,103,278.2617" style="stroke:#181818;stroke-width:1.0;"/><line style="stroke:#181818;stroke-width:1.0;stroke-dasharray:2.0,2.0;" x1="101" x2="682" y1="278.2617" y2="278.2617"/><text fill="#000000" font-family="sans-serif" font-size="20" font-weight="bold" lengthAdjust="spacing" textLength="13" x="113" y="272.043">4</text><text fill="#000000" font-family="sans-serif" font-size="20" lengthAdjust="spacing" textLength="202" x="130" y="272.043">asks for a  comission</text><polygon fill="#181818" points="666,311.8164,676,315.8164,666,319.8164,670,315.8164" style="stroke:#181818;stroke-width:1.0;"/><line style="stroke:#181818;stroke-width:1.0;" x1="96" x2="672" y1="315.8164" y2="315.8164"/><text fill="#000000" font-family="sans-serif" font-size="20" font-weight="bold" lengthAdjust="spacing" textLength="13" x="103" y="309.5977">5</text><text fill="#000000" font-family="sans-serif" font-size="20" lengthAdjust="spacing" textLength="159" x="120" y="309.5977">sends comission</text><polygon fill="#181818" points="107,349.3711,97,353.3711,107,357.3711,103,353.3711" style="stroke:#181818;stroke-width:1.0;"/><line style="stroke:#181818;stroke-width:1.0;stroke-dasharray:2.0,2.0;" x1="101" x2="677" y1="353.3711" y2="353.3711"/><text fill="#000000" font-family="sans-serif" font-size="20" font-weight="bold" lengthAdjust="spacing" textLength="13" x="113" y="347.1523">6</text><text fill="#000000" font-family="sans-serif" font-size="20" lengthAdjust="spacing" textLength="541" x="130" y="347.1523">informs the agent the announcment  has been published</text><!--SRC=[VP71JiCm38RlUGfh9pXCcdRS0Gbfy01KF82NUctKn2cn2ofFJvQjNM4JKQKwYV_VN_zAvxZ7XC57sr4DDHrnyFeQMIltJR3T69bQ84IEjaqn46WQQ77Je-smeKf7Jv38AdBZbmtIOXs_73TmH2zaZ3hDhUz22IgDQOJDPWjhg4PH2b3Hnq1i2VOEcvF-eQhsZyOO73Jo40wKp6bdinHMRuGUNaHH2PuRObq1ohaoURmwwtfaXTNPlToUouk9-vobnfGNh9ycbbt-e4mZAg0H-k7WdRI0d1-E0zjGLBFBP0nvNHpMsQouxlBaJk2OeViKUqewGesAfRcc6uzoViEJg76vIWA0tWEJ9H7C4VxsBE9_iAvKCnG2s1YSY8jSEkz0JKGpq4w8Qra8pPsvVvF8gJhE8qCEjIN0SbQgQwW0RVvH1oAUKgVQBDOF]--></g></svg>