<?xml version="1.0" encoding="us-ascii" standalone="no"?><svg xmlns="http://www.w3.org/2000/svg" xmlns:xlink="http://www.w3.org/1999/xlink" contentStyleType="text/css" height="635px" preserveAspectRatio="none" style="width:1408px;height:635px;background:#FFFFFF;" version="1.1" viewBox="0 0 1408 635" width="1408px" zoomAndPan="magnify"><defs/><g><text fill="#000000" font-family="sans-serif" font-size="14" font-weight="bold" lengthAdjust="spacing" textLength="399" x="506" y="27.9951">User Story 002 - System Sequence Diagram (SSD)</text><rect fill="#FFFFFF" height="407.8594" style="stroke:#181818;stroke-width:1.0;" width="10" x="103" y="128.5938"/><rect fill="#FFFFFF" height="45.2656" style="stroke:#181818;stroke-width:1.0;" width="10" x="1333" y="128.5938"/><rect fill="#FFFFFF" height="29.1328" style="stroke:#181818;stroke-width:1.0;" width="10" x="1333" y="202.9922"/><rect fill="#FFFFFF" height="53.2656" style="stroke:#181818;stroke-width:1.0;" width="10" x="1333" y="261.2578"/><rect fill="#FFFFFF" height="96.3984" style="stroke:#181818;stroke-width:1.0;" width="10" x="1333" y="343.6563"/><rect fill="#FFFFFF" height="52.1328" style="stroke:#181818;stroke-width:1.0;" width="10" x="1333" y="493.3203"/><rect fill="none" height="372.7266" style="stroke:#000000;stroke-width:1.5;" width="1392" x="10" y="135.5938"/><rect fill="none" height="135.6641" style="stroke:#000000;stroke-width:1.5;" width="1372" x="20" y="276.2578"/><rect fill="none" height="46.2656" style="stroke:#000000;stroke-width:1.5;" width="1352" x="30" y="358.6563"/><rect fill="none" height="46.2656" style="stroke:#000000;stroke-width:1.5;" width="1352" x="30" y="455.0547"/><line style="stroke:#181818;stroke-width:0.5;stroke-dasharray:5.0,5.0;" x1="108" x2="108" y1="118.5938" y2="554.4531"/><line style="stroke:#181818;stroke-width:0.5;stroke-dasharray:5.0,5.0;" x1="1338" x2="1338" y1="118.5938" y2="554.4531"/><text fill="#000000" font-family="sans-serif" font-size="14" lengthAdjust="spacing" textLength="130" x="40" y="115.292">Real Estate Agent</text><ellipse cx="108" cy="50.7969" fill="#E3E3E3" rx="8" ry="8" style="stroke:#181818;stroke-width:0.5;"/><path d="M108,58.7969 L108,85.7969 M95,66.7969 L121,66.7969 M108,85.7969 L95,100.7969 M108,85.7969 L121,100.7969 " fill="none" style="stroke:#181818;stroke-width:0.5;"/><text fill="#000000" font-family="sans-serif" font-size="14" lengthAdjust="spacing" textLength="130" x="40" y="566.4482">Real Estate Agent</text><ellipse cx="108" cy="578.25" fill="#E3E3E3" rx="8" ry="8" style="stroke:#181818;stroke-width:0.5;"/><path d="M108,586.25 L108,613.25 M95,594.25 L121,594.25 M108,613.25 L95,628.25 M108,613.25 L121,628.25 " fill="none" style="stroke:#181818;stroke-width:0.5;"/><rect fill="#E3E3E3" height="30.2969" rx="2.5" ry="2.5" style="stroke:#181818;stroke-width:0.5;" width="68" x="1304" y="87.2969"/><text fill="#000000" font-family="sans-serif" font-size="14" lengthAdjust="spacing" textLength="54" x="1311" y="107.292">System</text><rect fill="#E3E3E3" height="30.2969" rx="2.5" ry="2.5" style="stroke:#181818;stroke-width:0.5;" width="68" x="1304" y="553.4531"/><text fill="#000000" font-family="sans-serif" font-size="14" lengthAdjust="spacing" textLength="54" x="1311" y="573.4482">System</text><rect fill="#FFFFFF" height="407.8594" style="stroke:#181818;stroke-width:1.0;" width="10" x="103" y="128.5938"/><rect fill="#FFFFFF" height="45.2656" style="stroke:#181818;stroke-width:1.0;" width="10" x="1333" y="128.5938"/><rect fill="#FFFFFF" height="29.1328" style="stroke:#181818;stroke-width:1.0;" width="10" x="1333" y="202.9922"/><rect fill="#FFFFFF" height="53.2656" style="stroke:#181818;stroke-width:1.0;" width="10" x="1333" y="261.2578"/><rect fill="#FFFFFF" height="96.3984" style="stroke:#181818;stroke-width:1.0;" width="10" x="1333" y="343.6563"/><rect fill="#FFFFFF" height="52.1328" style="stroke:#181818;stroke-width:1.0;" width="10" x="1333" y="493.3203"/><path d="M10,135.5938 L88,135.5938 L88,142.7266 L78,152.7266 L10,152.7266 L10,135.5938 " fill="#EEEEEE" style="stroke:#000000;stroke-width:1.5;"/><rect fill="none" height="372.7266" style="stroke:#000000;stroke-width:1.5;" width="1392" x="10" y="135.5938"/><text fill="#000000" font-family="sans-serif" font-size="13" font-weight="bold" lengthAdjust="spacing" textLength="33" x="25" y="148.6606">loop</text><text fill="#000000" font-family="sans-serif" font-size="11" font-weight="bold" lengthAdjust="spacing" textLength="380" x="103" y="147.8042">[while the agent declines the announcement submission]</text><polygon fill="#181818" points="124,169.8594,114,173.8594,124,177.8594,120,173.8594" style="stroke:#181818;stroke-width:1.0;"/><line style="stroke:#181818;stroke-width:1.0;stroke-dasharray:2.0,2.0;" x1="118" x2="1337" y1="173.8594" y2="173.8594"/><text fill="#000000" font-family="sans-serif" font-size="13" font-weight="bold" lengthAdjust="spacing" textLength="9" x="130" y="168.7935">1</text><text fill="#000000" font-family="sans-serif" font-size="13" lengthAdjust="spacing" textLength="134" x="143" y="168.7935">displays agent menu</text><polygon fill="#181818" points="1321,198.9922,1331,202.9922,1321,206.9922,1325,202.9922" style="stroke:#181818;stroke-width:1.0;"/><line style="stroke:#181818;stroke-width:1.0;" x1="113" x2="1327" y1="202.9922" y2="202.9922"/><text fill="#000000" font-family="sans-serif" font-size="13" font-weight="bold" lengthAdjust="spacing" textLength="9" x="120" y="197.9263">2</text><text fill="#000000" font-family="sans-serif" font-size="13" lengthAdjust="spacing" textLength="232" x="133" y="197.9263">selects to publish an announcement</text><polygon fill="#181818" points="124,228.125,114,232.125,124,236.125,120,232.125" style="stroke:#181818;stroke-width:1.0;"/><line style="stroke:#181818;stroke-width:1.0;stroke-dasharray:2.0,2.0;" x1="118" x2="1337" y1="232.125" y2="232.125"/><text fill="#000000" font-family="sans-serif" font-size="13" font-weight="bold" lengthAdjust="spacing" textLength="8" x="130" y="227.0591">3</text><text fill="#000000" font-family="sans-serif" font-size="13" lengthAdjust="spacing" textLength="390" x="142" y="227.0591">asks for the type of commission (fixed value  or percentage)</text><polygon fill="#181818" points="1321,257.2578,1331,261.2578,1321,265.2578,1325,261.2578" style="stroke:#181818;stroke-width:1.0;"/><line style="stroke:#181818;stroke-width:1.0;" x1="113" x2="1327" y1="261.2578" y2="261.2578"/><text fill="#000000" font-family="sans-serif" font-size="13" font-weight="bold" lengthAdjust="spacing" textLength="9" x="120" y="256.1919">4</text><text fill="#000000" font-family="sans-serif" font-size="13" lengthAdjust="spacing" textLength="205" x="133" y="256.1919">selects the type of commission.</text><path d="M20,276.2578 L98,276.2578 L98,283.3906 L88,293.3906 L20,293.3906 L20,276.2578 " fill="#EEEEEE" style="stroke:#000000;stroke-width:1.5;"/><rect fill="none" height="135.6641" style="stroke:#000000;stroke-width:1.5;" width="1372" x="20" y="276.2578"/><text fill="#000000" font-family="sans-serif" font-size="13" font-weight="bold" lengthAdjust="spacing" textLength="33" x="35" y="289.3247">loop</text><text fill="#000000" font-family="sans-serif" font-size="11" font-weight="bold" lengthAdjust="spacing" textLength="207" x="113" y="288.4683">[While commission is not valid]</text><polygon fill="#181818" points="124,310.5234,114,314.5234,124,318.5234,120,314.5234" style="stroke:#181818;stroke-width:1.0;"/><line style="stroke:#181818;stroke-width:1.0;stroke-dasharray:2.0,2.0;" x1="118" x2="1337" y1="314.5234" y2="314.5234"/><text fill="#000000" font-family="sans-serif" font-size="13" font-weight="bold" lengthAdjust="spacing" textLength="9" x="130" y="309.4575">5</text><text fill="#000000" font-family="sans-serif" font-size="13" lengthAdjust="spacing" textLength="172" x="143" y="309.4575">Asks to insert commission.</text><polygon fill="#181818" points="1321,339.6563,1331,343.6563,1321,347.6563,1325,343.6563" style="stroke:#181818;stroke-width:1.0;"/><line style="stroke:#181818;stroke-width:1.0;" x1="113" x2="1327" y1="343.6563" y2="343.6563"/><text fill="#000000" font-family="sans-serif" font-size="13" font-weight="bold" lengthAdjust="spacing" textLength="9" x="120" y="338.5903">6</text><text fill="#000000" font-family="sans-serif" font-size="13" lengthAdjust="spacing" textLength="128" x="133" y="338.5903">inserts commission.</text><path d="M30,358.6563 L96,358.6563 L96,365.7891 L86,375.7891 L30,375.7891 L30,358.6563 " fill="#EEEEEE" style="stroke:#000000;stroke-width:1.5;"/><rect fill="none" height="46.2656" style="stroke:#000000;stroke-width:1.5;" width="1352" x="30" y="358.6563"/><text fill="#000000" font-family="sans-serif" font-size="13" font-weight="bold" lengthAdjust="spacing" textLength="21" x="45" y="371.7231">alt</text><text fill="#000000" font-family="sans-serif" font-size="11" font-weight="bold" lengthAdjust="spacing" textLength="167" x="111" y="370.8667">[commission is not valid]</text><polygon fill="#181818" points="124,392.9219,114,396.9219,124,400.9219,120,396.9219" style="stroke:#181818;stroke-width:1.0;"/><line style="stroke:#181818;stroke-width:1.0;stroke-dasharray:2.0,2.0;" x1="118" x2="1332" y1="396.9219" y2="396.9219"/><text fill="#000000" font-family="sans-serif" font-size="13" font-weight="bold" lengthAdjust="spacing" textLength="9" x="130" y="391.856">7</text><text fill="#000000" font-family="sans-serif" font-size="13" lengthAdjust="spacing" textLength="150" x="143" y="391.856">displays error message</text><polygon fill="#181818" points="124,436.0547,114,440.0547,124,444.0547,120,440.0547" style="stroke:#181818;stroke-width:1.0;"/><line style="stroke:#181818;stroke-width:1.0;stroke-dasharray:2.0,2.0;" x1="118" x2="1337" y1="440.0547" y2="440.0547"/><text fill="#000000" font-family="sans-serif" font-size="13" font-weight="bold" lengthAdjust="spacing" textLength="9" x="130" y="434.9888">8</text><text fill="#000000" font-family="sans-serif" font-size="13" lengthAdjust="spacing" textLength="845" x="143" y="434.9888">displays announcement  data(id,type of commisson,commisson value ,date) and asks for announcement publishment confirmation</text><path d="M30,455.0547 L96,455.0547 L96,462.1875 L86,472.1875 L30,472.1875 L30,455.0547 " fill="#EEEEEE" style="stroke:#000000;stroke-width:1.5;"/><rect fill="none" height="46.2656" style="stroke:#000000;stroke-width:1.5;" width="1352" x="30" y="455.0547"/><text fill="#000000" font-family="sans-serif" font-size="13" font-weight="bold" lengthAdjust="spacing" textLength="21" x="45" y="468.1216">alt</text><polygon fill="#181818" points="1321,489.3203,1331,493.3203,1321,497.3203,1325,493.3203" style="stroke:#181818;stroke-width:1.0;"/><line style="stroke:#181818;stroke-width:1.0;" x1="113" x2="1327" y1="493.3203" y2="493.3203"/><text fill="#000000" font-family="sans-serif" font-size="13" font-weight="bold" lengthAdjust="spacing" textLength="9" x="120" y="488.2544">9</text><text fill="#000000" font-family="sans-serif" font-size="13" lengthAdjust="spacing" textLength="263" x="133" y="488.2544">declines the announcement confirmation</text><polygon fill="#181818" points="119,532.4531,109,536.4531,119,540.4531,115,536.4531" style="stroke:#181818;stroke-width:1.0;"/><line style="stroke:#181818;stroke-width:1.0;stroke-dasharray:2.0,2.0;" x1="113" x2="1332" y1="536.4531" y2="536.4531"/><text fill="#000000" font-family="sans-serif" font-size="13" font-weight="bold" lengthAdjust="spacing" textLength="19" x="125" y="531.3872">10</text><text fill="#000000" font-family="sans-serif" font-size="13" lengthAdjust="spacing" textLength="1173" x="148" y="531.3872">displays success message (informs the agent the announcment has been published and a message has been sent to the Owner with the property Id ,agent name and phone number)</text><!--SRC=[XLJ1Zjem4BtxAvuuWSHMgnuvL5ffU-YfKgEgP-CCn2AsKu-pbB_ln0vfWEms1sJZcVVUFC-OJzPtEce75tmmJGoEa69FYgUJJfkJFbALBYqXaadQ7zjv03Uw3cVhZpZebacfP9E4_cIAg5A85pm_VyOJgWidSgZeTq_U45wjFWxvwwfwtIYbT9-2xzsUeXfsHbAn-a6wnLTEEX5UZkJJ2fhBIWbziiPssYUi2de-BSk2OT-cpDb-Z6X3w71khAXD3K4FKQZ9jDOJbx-y3xs8TSC9ztjdcMtmWZrMy_JqfQ3lK5lkMdtX4KTIUgLgkYSjuP2y4M87fbPy5SQ0hj-tbXiXlk5M2lSu2eyID9yO1_5jq9uk7I4SO88RPMDzi7-enfjkUm8ahgDe95CKomq0M90hNqQV1C_qBh9y6guF-Si6_ye6prHOXWzfK67hCN295Gi5lWm5YatMItUb6zAIybZ0U71l-muZ2DzA7wDrc_uZ-HtD3w8nwmoAKKntn2oENnF8r_Dbbl0Ho4rFejP9hsszlRk7uBVJQhplhOJIHjBhVtroWpNsNbwRu0ysEfs6Rb_sLInIMEZczmVe3lJHm695-VrWmBWtHZoy6ecrzLACuzaKpxWpTIFlmfx8NukKASX6J1XJ0EVqa16-dxqyOcURchpjOf21IHTygx4jF5uxoaXT4poXl5-R-TXdyNy1]--></g></svg>