<?xml version="1.0" encoding="UTF-8" standalone="no"?><svg xmlns="http://www.w3.org/2000/svg" xmlns:xlink="http://www.w3.org/1999/xlink" contentStyleType="text/css" height="647px" preserveAspectRatio="none" style="width:1396px;height:647px;background:#FFFFFF;" version="1.1" viewBox="0 0 1396 647" width="1396px" zoomAndPan="magnify"><defs/><g><text fill="#000000" font-family="sans-serif" font-size="14" font-weight="bold" lengthAdjust="spacing" textLength="231" x="581.75" y="28.5352">System Sequence Diagram (SSD)</text><rect fill="#FFFFFF" height="414.1016" style="stroke:#181818;stroke-width:1.0;" width="10" x="103.5" y="136.043"/><rect fill="#FFFFFF" height="37.5547" style="stroke:#181818;stroke-width:1.0;" width="10" x="1341.5" y="165.5977"/><rect fill="#FFFFFF" height="37.5547" style="stroke:#181818;stroke-width:1.0;" width="10" x="1341.5" y="240.707"/><rect fill="#FFFFFF" height="37.5547" style="stroke:#181818;stroke-width:1.0;" width="10" x="1341.5" y="315.8164"/><rect fill="#FFFFFF" height="37.5547" style="stroke:#181818;stroke-width:1.0;" width="10" x="1341.5" y="390.9258"/><rect fill="#FFFFFF" height="75.1094" style="stroke:#181818;stroke-width:1.0;" width="10" x="1341.5" y="466.0352"/><line style="stroke:#181818;stroke-width:0.5;stroke-dasharray:5.0,5.0;" x1="108" x2="108" y1="126.043" y2="559.1445"/><line style="stroke:#181818;stroke-width:0.5;stroke-dasharray:5.0,5.0;" x1="1346.5" x2="1346.5" y1="126.043" y2="559.1445"/><text fill="#000000" font-family="sans-serif" font-size="20" lengthAdjust="spacing" textLength="201" x="5" y="121.8242">SystemAdministrator</text><ellipse cx="108.5" cy="50.9883" fill="#E3E3E3" rx="8" ry="8" style="stroke:#181818;stroke-width:0.5;"/><path d="M108.5,58.9883 L108.5,85.9883 M95.5,66.9883 L121.5,66.9883 M108.5,85.9883 L95.5,100.9883 M108.5,85.9883 L121.5,100.9883 " fill="none" style="stroke:#181818;stroke-width:0.5;"/><text fill="#000000" font-family="sans-serif" font-size="20" lengthAdjust="spacing" textLength="201" x="5" y="577.4805">SystemAdministrator</text><ellipse cx="108.5" cy="590.1992" fill="#E3E3E3" rx="8" ry="8" style="stroke:#181818;stroke-width:0.5;"/><path d="M108.5,598.1992 L108.5,625.1992 M95.5,606.1992 L121.5,606.1992 M108.5,625.1992 L95.5,640.1992 M108.5,625.1992 L121.5,640.1992 " fill="none" style="stroke:#181818;stroke-width:0.5;"/><rect fill="#E3E3E3" height="37.5547" rx="2.5" ry="2.5" style="stroke:#181818;stroke-width:0.5;" width="88" x="1302.5" y="87.4883"/><text fill="#000000" font-family="sans-serif" font-size="20" lengthAdjust="spacing" textLength="74" x="1309.5" y="113.8242">:System</text><rect fill="#E3E3E3" height="37.5547" rx="2.5" ry="2.5" style="stroke:#181818;stroke-width:0.5;" width="88" x="1302.5" y="558.1445"/><text fill="#000000" font-family="sans-serif" font-size="20" lengthAdjust="spacing" textLength="74" x="1309.5" y="584.4805">:System</text><rect fill="#FFFFFF" height="414.1016" style="stroke:#181818;stroke-width:1.0;" width="10" x="103.5" y="136.043"/><rect fill="#FFFFFF" height="37.5547" style="stroke:#181818;stroke-width:1.0;" width="10" x="1341.5" y="165.5977"/><rect fill="#FFFFFF" height="37.5547" style="stroke:#181818;stroke-width:1.0;" width="10" x="1341.5" y="240.707"/><rect fill="#FFFFFF" height="37.5547" style="stroke:#181818;stroke-width:1.0;" width="10" x="1341.5" y="315.8164"/><rect fill="#FFFFFF" height="37.5547" style="stroke:#181818;stroke-width:1.0;" width="10" x="1341.5" y="390.9258"/><rect fill="#FFFFFF" height="75.1094" style="stroke:#181818;stroke-width:1.0;" width="10" x="1341.5" y="466.0352"/><polygon fill="#181818" points="1329.5,161.5977,1339.5,165.5977,1329.5,169.5977,1333.5,165.5977" style="stroke:#181818;stroke-width:1.0;"/><line style="stroke:#181818;stroke-width:1.0;" x1="113.5" x2="1335.5" y1="165.5977" y2="165.5977"/><text fill="#000000" font-family="sans-serif" font-size="20" font-weight="bold" lengthAdjust="spacing" textLength="13" x="120.5" y="159.3789">1</text><text fill="#000000" font-family="sans-serif" font-size="20" lengthAdjust="spacing" textLength="275" x="137.5" y="159.3789">asks to register an employee</text><polygon fill="#181818" points="124.5,199.1523,114.5,203.1523,124.5,207.1523,120.5,203.1523" style="stroke:#181818;stroke-width:1.0;"/><line style="stroke:#181818;stroke-width:1.0;stroke-dasharray:2.0,2.0;" x1="118.5" x2="1345.5" y1="203.1523" y2="203.1523"/><text fill="#000000" font-family="sans-serif" font-size="20" font-weight="bold" lengthAdjust="spacing" textLength="13" x="130.5" y="196.9336">2</text><text fill="#000000" font-family="sans-serif" font-size="20" lengthAdjust="spacing" textLength="130" x="147.5" y="196.9336">requests data</text><polygon fill="#181818" points="1329.5,236.707,1339.5,240.707,1329.5,244.707,1333.5,240.707" style="stroke:#181818;stroke-width:1.0;"/><line style="stroke:#181818;stroke-width:1.0;" x1="113.5" x2="1335.5" y1="240.707" y2="240.707"/><text fill="#000000" font-family="sans-serif" font-size="20" font-weight="bold" lengthAdjust="spacing" textLength="13" x="120.5" y="234.4883">3</text><text fill="#000000" font-family="sans-serif" font-size="20" lengthAdjust="spacing" textLength="1192" x="137.5" y="234.4883">types requested data (name, citizen's card number, tax number, address, email address, contact telephone number, agency)</text><polygon fill="#181818" points="124.5,274.2617,114.5,278.2617,124.5,282.2617,120.5,278.2617" style="stroke:#181818;stroke-width:1.0;"/><line style="stroke:#181818;stroke-width:1.0;stroke-dasharray:2.0,2.0;" x1="118.5" x2="1345.5" y1="278.2617" y2="278.2617"/><text fill="#000000" font-family="sans-serif" font-size="20" font-weight="bold" lengthAdjust="spacing" textLength="13" x="130.5" y="272.043">4</text><text fill="#000000" font-family="sans-serif" font-size="20" lengthAdjust="spacing" textLength="483" x="147.5" y="272.043">shows existing agencies list and asks to select one</text><polygon fill="#181818" points="1329.5,311.8164,1339.5,315.8164,1329.5,319.8164,1333.5,315.8164" style="stroke:#181818;stroke-width:1.0;"/><line style="stroke:#181818;stroke-width:1.0;" x1="113.5" x2="1335.5" y1="315.8164" y2="315.8164"/><text fill="#000000" font-family="sans-serif" font-size="20" font-weight="bold" lengthAdjust="spacing" textLength="13" x="120.5" y="309.5977">5</text><text fill="#000000" font-family="sans-serif" font-size="20" lengthAdjust="spacing" textLength="166" x="137.5" y="309.5977">selects an agency</text><polygon fill="#181818" points="124.5,349.3711,114.5,353.3711,124.5,357.3711,120.5,353.3711" style="stroke:#181818;stroke-width:1.0;"/><line style="stroke:#181818;stroke-width:1.0;stroke-dasharray:2.0,2.0;" x1="118.5" x2="1345.5" y1="353.3711" y2="353.3711"/><text fill="#000000" font-family="sans-serif" font-size="20" font-weight="bold" lengthAdjust="spacing" textLength="13" x="130.5" y="347.1523">6</text><text fill="#000000" font-family="sans-serif" font-size="20" lengthAdjust="spacing" textLength="447" x="147.5" y="347.1523">shows existing roles list and asks to select one</text><polygon fill="#181818" points="1329.5,386.9258,1339.5,390.9258,1329.5,394.9258,1333.5,390.9258" style="stroke:#181818;stroke-width:1.0;"/><line style="stroke:#181818;stroke-width:1.0;" x1="113.5" x2="1335.5" y1="390.9258" y2="390.9258"/><text fill="#000000" font-family="sans-serif" font-size="20" font-weight="bold" lengthAdjust="spacing" textLength="13" x="120.5" y="384.707">7</text><text fill="#000000" font-family="sans-serif" font-size="20" lengthAdjust="spacing" textLength="125" x="137.5" y="384.707">selects a role</text><polygon fill="#181818" points="124.5,424.4805,114.5,428.4805,124.5,432.4805,120.5,428.4805" style="stroke:#181818;stroke-width:1.0;"/><line style="stroke:#181818;stroke-width:1.0;stroke-dasharray:2.0,2.0;" x1="118.5" x2="1345.5" y1="428.4805" y2="428.4805"/><text fill="#000000" font-family="sans-serif" font-size="20" font-weight="bold" lengthAdjust="spacing" textLength="13" x="130.5" y="422.2617">8</text><text fill="#000000" font-family="sans-serif" font-size="20" lengthAdjust="spacing" textLength="661" x="147.5" y="422.2617">shows list of typed and selected information and asks to submit data</text><polygon fill="#181818" points="1329.5,462.0352,1339.5,466.0352,1329.5,470.0352,1333.5,466.0352" style="stroke:#181818;stroke-width:1.0;"/><line style="stroke:#181818;stroke-width:1.0;" x1="113.5" x2="1335.5" y1="466.0352" y2="466.0352"/><text fill="#000000" font-family="sans-serif" font-size="20" font-weight="bold" lengthAdjust="spacing" textLength="13" x="120.5" y="459.8164">9</text><text fill="#000000" font-family="sans-serif" font-size="20" lengthAdjust="spacing" textLength="125" x="137.5" y="459.8164">submits data</text><polygon fill="#181818" points="124.5,499.5898,114.5,503.5898,124.5,507.5898,120.5,503.5898" style="stroke:#181818;stroke-width:1.0;"/><line style="stroke:#181818;stroke-width:1.0;stroke-dasharray:2.0,2.0;" x1="118.5" x2="1340.5" y1="503.5898" y2="503.5898"/><text fill="#000000" font-family="sans-serif" font-size="20" font-weight="bold" lengthAdjust="spacing" textLength="26" x="130.5" y="497.3711">10</text><text fill="#000000" font-family="sans-serif" font-size="20" lengthAdjust="spacing" textLength="380" x="160.5" y="497.3711">displays automatic generated password</text><polygon fill="#181818" points="124.5,537.1445,114.5,541.1445,124.5,545.1445,120.5,541.1445" style="stroke:#181818;stroke-width:1.0;"/><line style="stroke:#181818;stroke-width:1.0;stroke-dasharray:2.0,2.0;" x1="118.5" x2="1345.5" y1="541.1445" y2="541.1445"/><text fill="#000000" font-family="sans-serif" font-size="20" font-weight="bold" lengthAdjust="spacing" textLength="26" x="130.5" y="534.9258">11</text><text fill="#000000" font-family="sans-serif" font-size="20" lengthAdjust="spacing" textLength="256" x="160.5" y="534.9258">displays operation success</text><!--SRC=[lPHDRkCm38NtFWMHJLCW1GQpp6A00aKlu1Em4kC8aKHLf2TnJp-qZVnqa7OmI56lP8dw-1v9MtOX5woO8hiTUV2qmJxgCsTjmnl1pn-D74CWSMQthPm8jFPqSLBGxR2ZLeT8KCafvYvU1iWMFUz3xc23KQXfDAY5jeCe9MZfjQVi29u2TcFuicsVxfi6U-NSfnUgjdRA5HRpZKUVGWwY5Mrp0IXmPR-nr1fSA9WL5kivuY9uOeRVg7JrTWFsN3c0Xrz7tMk3xGIKpNDdvrG1Cr0gaGUY2V1NYfbw9iF3YVO-oTgGLXHH0O-AqpLFLsd_qgX38JdYnXuR3vOP4wt01RKsvpi1XzN3NEmLA1vEQ_I-aiZAV668vrTdCs9wG2bIsNAcyutEcZdSt-XVjhmNe8DjZNCpGOCPYRPXPVQdsei9C1scu9OgpHGP6pZh_rhvbUCtQ9_IV8dmIIblfk7na-GvYRs4lE6QK0FdzrxwbnJqvd6TCHTZ_mdb4ni-I8auM57i9pAgTM1j9Jis2mL5zbpzVvJbnECoGaRpqZjddy87Ply0]--></g></svg>