<?xml version="1.0" encoding="UTF-8" standalone="no"?><svg xmlns="http://www.w3.org/2000/svg" xmlns:xlink="http://www.w3.org/1999/xlink" contentStyleType="text/css" height="459px" preserveAspectRatio="none" style="width:780px;height:459px;background:#FFFFFF;" version="1.1" viewBox="0 0 780 459" width="780px" zoomAndPan="magnify"><defs/><g><text fill="#000000" font-family="sans-serif" font-size="14" font-weight="bold" lengthAdjust="spacing" textLength="356" x="211" y="28.5352">User Story 002 - System Sequence Diagram (SSD)</text><rect fill="#FFFFFF" height="226.3281" style="stroke:#181818;stroke-width:1.0;" width="10" x="86" y="136.043"/><rect fill="#FFFFFF" height="37.5547" style="stroke:#181818;stroke-width:1.0;" width="10" x="728" y="165.5977"/><rect fill="#FFFFFF" height="37.5547" style="stroke:#181818;stroke-width:1.0;" width="10" x="728" y="240.707"/><rect fill="#FFFFFF" height="46.5547" style="stroke:#181818;stroke-width:1.0;" width="10" x="728" y="315.8164"/><line style="stroke:#181818;stroke-width:0.5;stroke-dasharray:5.0,5.0;" x1="91" x2="91" y1="126.043" y2="371.3711"/><line style="stroke:#181818;stroke-width:0.5;stroke-dasharray:5.0,5.0;" x1="733" x2="733" y1="126.043" y2="371.3711"/><text fill="#000000" font-family="sans-serif" font-size="20" lengthAdjust="spacing" textLength="166" x="5" y="121.8242">Real Estate Agent</text><ellipse cx="91" cy="50.9883" fill="#E3E3E3" rx="8" ry="8" style="stroke:#181818;stroke-width:0.5;"/><path d="M91,58.9883 L91,85.9883 M78,66.9883 L104,66.9883 M91,85.9883 L78,100.9883 M91,85.9883 L104,100.9883 " fill="none" style="stroke:#181818;stroke-width:0.5;"/><text fill="#000000" font-family="sans-serif" font-size="20" lengthAdjust="spacing" textLength="166" x="5" y="389.707">Real Estate Agent</text><ellipse cx="91" cy="402.4258" fill="#E3E3E3" rx="8" ry="8" style="stroke:#181818;stroke-width:0.5;"/><path d="M91,410.4258 L91,437.4258 M78,418.4258 L104,418.4258 M91,437.4258 L78,452.4258 M91,437.4258 L104,452.4258 " fill="none" style="stroke:#181818;stroke-width:0.5;"/><rect fill="#E3E3E3" height="37.5547" rx="2.5" ry="2.5" style="stroke:#181818;stroke-width:0.5;" width="82" x="692" y="87.4883"/><text fill="#000000" font-family="sans-serif" font-size="20" lengthAdjust="spacing" textLength="68" x="699" y="113.8242">System</text><rect fill="#E3E3E3" height="37.5547" rx="2.5" ry="2.5" style="stroke:#181818;stroke-width:0.5;" width="82" x="692" y="370.3711"/><text fill="#000000" font-family="sans-serif" font-size="20" lengthAdjust="spacing" textLength="68" x="699" y="396.707">System</text><rect fill="#FFFFFF" height="226.3281" style="stroke:#181818;stroke-width:1.0;" width="10" x="86" y="136.043"/><rect fill="#FFFFFF" height="37.5547" style="stroke:#181818;stroke-width:1.0;" width="10" x="728" y="165.5977"/><rect fill="#FFFFFF" height="37.5547" style="stroke:#181818;stroke-width:1.0;" width="10" x="728" y="240.707"/><rect fill="#FFFFFF" height="46.5547" style="stroke:#181818;stroke-width:1.0;" width="10" x="728" y="315.8164"/><polygon fill="#181818" points="716,161.5977,726,165.5977,716,169.5977,720,165.5977" style="stroke:#181818;stroke-width:1.0;"/><line style="stroke:#181818;stroke-width:1.0;" x1="96" x2="722" y1="165.5977" y2="165.5977"/><text fill="#000000" font-family="sans-serif" font-size="20" font-weight="bold" lengthAdjust="spacing" textLength="13" x="103" y="159.3789">1</text><text fill="#000000" font-family="sans-serif" font-size="20" lengthAdjust="spacing" textLength="334" x="120" y="159.3789">asks to insert property information</text><polygon fill="#181818" points="107,199.1523,97,203.1523,107,207.1523,103,203.1523" style="stroke:#181818;stroke-width:1.0;"/><line style="stroke:#181818;stroke-width:1.0;stroke-dasharray:2.0,2.0;" x1="101" x2="732" y1="203.1523" y2="203.1523"/><text fill="#000000" font-family="sans-serif" font-size="20" font-weight="bold" lengthAdjust="spacing" textLength="13" x="113" y="196.9336">2</text><text fill="#000000" font-family="sans-serif" font-size="20" lengthAdjust="spacing" textLength="208" x="130" y="196.9336">request property data</text><polygon fill="#181818" points="716,236.707,726,240.707,716,244.707,720,240.707" style="stroke:#181818;stroke-width:1.0;"/><line style="stroke:#181818;stroke-width:1.0;" x1="96" x2="722" y1="240.707" y2="240.707"/><text fill="#000000" font-family="sans-serif" font-size="20" font-weight="bold" lengthAdjust="spacing" textLength="13" x="103" y="234.4883">3</text><text fill="#000000" font-family="sans-serif" font-size="20" lengthAdjust="spacing" textLength="353" x="120" y="234.4883">registers  all necessary property data</text><polygon fill="#181818" points="107,274.2617,97,278.2617,107,282.2617,103,278.2617" style="stroke:#181818;stroke-width:1.0;"/><line style="stroke:#181818;stroke-width:1.0;stroke-dasharray:2.0,2.0;" x1="101" x2="732" y1="278.2617" y2="278.2617"/><text fill="#000000" font-family="sans-serif" font-size="20" font-weight="bold" lengthAdjust="spacing" textLength="13" x="113" y="272.043">4</text><text fill="#000000" font-family="sans-serif" font-size="20" lengthAdjust="spacing" textLength="202" x="130" y="272.043">asks for a  comission</text><polygon fill="#181818" points="716,311.8164,726,315.8164,716,319.8164,720,315.8164" style="stroke:#181818;stroke-width:1.0;"/><line style="stroke:#181818;stroke-width:1.0;" x1="96" x2="722" y1="315.8164" y2="315.8164"/><text fill="#000000" font-family="sans-serif" font-size="20" font-weight="bold" lengthAdjust="spacing" textLength="13" x="103" y="309.5977">5</text><text fill="#000000" font-family="sans-serif" font-size="20" lengthAdjust="spacing" textLength="159" x="120" y="309.5977">sends comission</text><polygon fill="#181818" points="107,349.3711,97,353.3711,107,357.3711,103,353.3711" style="stroke:#181818;stroke-width:1.0;"/><line style="stroke:#181818;stroke-width:1.0;stroke-dasharray:2.0,2.0;" x1="101" x2="727" y1="353.3711" y2="353.3711"/><text fill="#000000" font-family="sans-serif" font-size="20" font-weight="bold" lengthAdjust="spacing" textLength="13" x="113" y="347.1523">6</text><text fill="#000000" font-family="sans-serif" font-size="20" lengthAdjust="spacing" textLength="591" x="130" y="347.1523">informs the agent when the announcment has been published</text><!--SRC=[VL7BJiCm4BpxArOzmQ5IrMCEI4Y53o3Y0xREDh7Yh8DtGnM-7iTfIg0LldXVCvuTI-kunuYT3xQb2YewuU3rDR2MxejWlpEoZ40NEDWcXev0uq2hJe-snPfA7Jr19Al8jLyFI8DLE3kkuOHUo1XrcaRVXIAK6k88kzqUjb2EejH1IHy3iIKuEAmd_4DP7XwDCJXeuA4xKZHJPXCKDc-47bv4KGcUQsBT0CeScVIyEkjwP8NDp9wxStWXSPzNg37vWktJegL0QGKqWEEaLg6FeK_tcF9JY1sg2xnYMOWXdGl3Df5brY9vanQJ5Kc5YdcseXkANB-H4wbsAOe2WDu3aoKHJ0x-vipWVrJzYChxfLK00MpedCYq4TmNjIYw2Yg4k98LqDnvzwyHK5pSIyOs19XhvuPuJfd3mBQRYatwgoEbHZySlPE6AhCwtm00]--></g></svg>