<?xml version="1.0" encoding="us-ascii" standalone="no"?><svg xmlns="http://www.w3.org/2000/svg" xmlns:xlink="http://www.w3.org/1999/xlink" contentStyleType="text/css" height="554px" preserveAspectRatio="none" style="width:1552px;height:554px;background:#FFFFFF;" version="1.1" viewBox="0 0 1552 554" width="1552px" zoomAndPan="magnify"><defs/><g><!--class ApplicationSession--><g id="elem_ApplicationSession"><rect codeLine="11" fill="#F1F1F1" height="85.2422" id="ApplicationSession" rx="2.5" ry="2.5" style="stroke:#181818;stroke-width:0.5;" width="151" x="900" y="279.5"/><ellipse cx="915" cy="295.5" fill="#ADD1B2" rx="11" ry="11" style="stroke:#181818;stroke-width:1.0;"/><path d="M917.7656,291.375 Q917.9219,291.1563 918.1094,291.0469 Q918.2969,290.9375 918.5156,290.9375 Q918.8906,290.9375 919.125,291.2031 Q919.3594,291.4531 919.3594,292.0625 L919.3594,293.5156 Q919.3594,294.125 919.125,294.3906 Q918.8906,294.6563 918.5156,294.6563 Q918.1719,294.6563 917.9688,294.4531 Q917.7656,294.2656 917.6563,293.75 Q917.6094,293.3906 917.4219,293.2031 Q917.0938,292.8281 916.4844,292.6094 Q915.875,292.3906 915.25,292.3906 Q914.4844,292.3906 913.8438,292.7188 Q913.2188,293.0469 912.7188,293.7969 Q912.2344,294.5469 912.2344,295.5781 L912.2344,296.6719 Q912.2344,297.9063 913.125,298.7344 Q914.0156,299.5469 915.6094,299.5469 Q916.5469,299.5469 917.2031,299.2969 Q917.5938,299.1406 918.0156,298.7031 Q918.2813,298.4375 918.4219,298.3594 Q918.5781,298.2813 918.7813,298.2813 Q919.1094,298.2813 919.3594,298.5469 Q919.625,298.7969 919.625,299.1406 Q919.625,299.4844 919.2813,299.8906 Q918.7813,300.4688 917.9844,300.7969 Q916.9063,301.25 915.6094,301.25 Q914.0938,301.25 912.8906,300.625 Q911.9063,300.125 911.2188,299.0625 Q910.5313,297.9844 910.5313,296.7031 L910.5313,295.5469 Q910.5313,294.2188 911.1406,293.0781 Q911.7656,291.9219 912.8594,291.3125 Q913.9531,290.6875 915.1875,290.6875 Q915.9219,290.6875 916.5625,290.8594 Q917.2188,291.0156 917.7656,291.375 Z " fill="#000000"/><text fill="#000000" font-family="sans-serif" font-size="14" lengthAdjust="spacing" textLength="119" x="929" y="301.2969">ApplicationSession</text><line style="stroke:#181818;stroke-width:0.5;" x1="901" x2="1050" y1="311.5" y2="311.5"/><line style="stroke:#181818;stroke-width:0.5;" x1="901" x2="1050" y1="319.5" y2="319.5"/><text fill="#000000" font-family="sans-serif" font-size="14" lengthAdjust="spacing" textLength="128" x="906" y="338.6074">+static getInstance()</text><text fill="#000000" font-family="sans-serif" font-size="14" lengthAdjust="spacing" textLength="136" x="906" y="357.2285">+getCurrentSession()</text></g><!--class UserSession--><g id="elem_UserSession"><rect codeLine="17" fill="#F1F1F1" height="66.6211" id="UserSession" rx="2.5" ry="2.5" style="stroke:#181818;stroke-width:0.5;" width="111" x="1187" y="471"/><ellipse cx="1202" cy="487" fill="#ADD1B2" rx="11" ry="11" style="stroke:#181818;stroke-width:1.0;"/><path d="M1204.7656,482.875 Q1204.9219,482.6563 1205.1094,482.5469 Q1205.2969,482.4375 1205.5156,482.4375 Q1205.8906,482.4375 1206.125,482.7031 Q1206.3594,482.9531 1206.3594,483.5625 L1206.3594,485.0156 Q1206.3594,485.625 1206.125,485.8906 Q1205.8906,486.1563 1205.5156,486.1563 Q1205.1719,486.1563 1204.9688,485.9531 Q1204.7656,485.7656 1204.6563,485.25 Q1204.6094,484.8906 1204.4219,484.7031 Q1204.0938,484.3281 1203.4844,484.1094 Q1202.875,483.8906 1202.25,483.8906 Q1201.4844,483.8906 1200.8438,484.2188 Q1200.2188,484.5469 1199.7188,485.2969 Q1199.2344,486.0469 1199.2344,487.0781 L1199.2344,488.1719 Q1199.2344,489.4063 1200.125,490.2344 Q1201.0156,491.0469 1202.6094,491.0469 Q1203.5469,491.0469 1204.2031,490.7969 Q1204.5938,490.6406 1205.0156,490.2031 Q1205.2813,489.9375 1205.4219,489.8594 Q1205.5781,489.7813 1205.7813,489.7813 Q1206.1094,489.7813 1206.3594,490.0469 Q1206.625,490.2969 1206.625,490.6406 Q1206.625,490.9844 1206.2813,491.3906 Q1205.7813,491.9688 1204.9844,492.2969 Q1203.9063,492.75 1202.6094,492.75 Q1201.0938,492.75 1199.8906,492.125 Q1198.9063,491.625 1198.2188,490.5625 Q1197.5313,489.4844 1197.5313,488.2031 L1197.5313,487.0469 Q1197.5313,485.7188 1198.1406,484.5781 Q1198.7656,483.4219 1199.8594,482.8125 Q1200.9531,482.1875 1202.1875,482.1875 Q1202.9219,482.1875 1203.5625,482.3594 Q1204.2188,482.5156 1204.7656,482.875 Z " fill="#000000"/><text fill="#000000" font-family="sans-serif" font-size="14" lengthAdjust="spacing" textLength="79" x="1216" y="492.7969">UserSession</text><line style="stroke:#181818;stroke-width:0.5;" x1="1188" x2="1297" y1="503" y2="503"/><line style="stroke:#181818;stroke-width:0.5;" x1="1188" x2="1297" y1="511" y2="511"/><text fill="#000000" font-family="sans-serif" font-size="14" lengthAdjust="spacing" textLength="80" x="1193" y="530.1074">+getUserID()</text></g><!--class Employee--><g id="elem_Employee"><rect codeLine="22" fill="#F1F1F1" height="122.4844" id="Employee" rx="2.5" ry="2.5" style="stroke:#181818;stroke-width:0.5;" width="94" x="1330.5" y="261"/><ellipse cx="1345.5" cy="277" fill="#ADD1B2" rx="11" ry="11" style="stroke:#181818;stroke-width:1.0;"/><path d="M1348.2656,272.875 Q1348.4219,272.6563 1348.6094,272.5469 Q1348.7969,272.4375 1349.0156,272.4375 Q1349.3906,272.4375 1349.625,272.7031 Q1349.8594,272.9531 1349.8594,273.5625 L1349.8594,275.0156 Q1349.8594,275.625 1349.625,275.8906 Q1349.3906,276.1563 1349.0156,276.1563 Q1348.6719,276.1563 1348.4688,275.9531 Q1348.2656,275.7656 1348.1563,275.25 Q1348.1094,274.8906 1347.9219,274.7031 Q1347.5938,274.3281 1346.9844,274.1094 Q1346.375,273.8906 1345.75,273.8906 Q1344.9844,273.8906 1344.3438,274.2188 Q1343.7188,274.5469 1343.2188,275.2969 Q1342.7344,276.0469 1342.7344,277.0781 L1342.7344,278.1719 Q1342.7344,279.4063 1343.625,280.2344 Q1344.5156,281.0469 1346.1094,281.0469 Q1347.0469,281.0469 1347.7031,280.7969 Q1348.0938,280.6406 1348.5156,280.2031 Q1348.7813,279.9375 1348.9219,279.8594 Q1349.0781,279.7813 1349.2813,279.7813 Q1349.6094,279.7813 1349.8594,280.0469 Q1350.125,280.2969 1350.125,280.6406 Q1350.125,280.9844 1349.7813,281.3906 Q1349.2813,281.9688 1348.4844,282.2969 Q1347.4063,282.75 1346.1094,282.75 Q1344.5938,282.75 1343.3906,282.125 Q1342.4063,281.625 1341.7188,280.5625 Q1341.0313,279.4844 1341.0313,278.2031 L1341.0313,277.0469 Q1341.0313,275.7188 1341.6406,274.5781 Q1342.2656,273.4219 1343.3594,272.8125 Q1344.4531,272.1875 1345.6875,272.1875 Q1346.4219,272.1875 1347.0625,272.3594 Q1347.7188,272.5156 1348.2656,272.875 Z " fill="#000000"/><text fill="#000000" font-family="sans-serif" font-size="14" lengthAdjust="spacing" textLength="62" x="1359.5" y="282.7969">Employee</text><line style="stroke:#181818;stroke-width:0.5;" x1="1331.5" x2="1423.5" y1="293" y2="293"/><text fill="#000000" font-family="sans-serif" font-size="14" lengthAdjust="spacing" textLength="40" x="1336.5" y="312.1074">-name</text><text fill="#000000" font-family="sans-serif" font-size="14" lengthAdjust="spacing" textLength="38" x="1336.5" y="330.7285">-email</text><text fill="#000000" font-family="sans-serif" font-size="14" lengthAdjust="spacing" textLength="54" x="1336.5" y="349.3496">-position</text><text fill="#000000" font-family="sans-serif" font-size="14" lengthAdjust="spacing" textLength="45" x="1336.5" y="367.9707">-phone</text><line style="stroke:#181818;stroke-width:0.5;" x1="1331.5" x2="1423.5" y1="375.4844" y2="375.4844"/></g><!--class AgencyNetworkManager--><g id="elem_AgencyNetworkManager"><rect codeLine="29" fill="#F1F1F1" height="48" id="AgencyNetworkManager" rx="2.5" ry="2.5" style="stroke:#181818;stroke-width:0.5;" width="185" x="1347" y="7"/><ellipse cx="1362" cy="23" fill="#ADD1B2" rx="11" ry="11" style="stroke:#181818;stroke-width:1.0;"/><path d="M1364.7656,18.875 Q1364.9219,18.6563 1365.1094,18.5469 Q1365.2969,18.4375 1365.5156,18.4375 Q1365.8906,18.4375 1366.125,18.7031 Q1366.3594,18.9531 1366.3594,19.5625 L1366.3594,21.0156 Q1366.3594,21.625 1366.125,21.8906 Q1365.8906,22.1563 1365.5156,22.1563 Q1365.1719,22.1563 1364.9688,21.9531 Q1364.7656,21.7656 1364.6563,21.25 Q1364.6094,20.8906 1364.4219,20.7031 Q1364.0938,20.3281 1363.4844,20.1094 Q1362.875,19.8906 1362.25,19.8906 Q1361.4844,19.8906 1360.8438,20.2188 Q1360.2188,20.5469 1359.7188,21.2969 Q1359.2344,22.0469 1359.2344,23.0781 L1359.2344,24.1719 Q1359.2344,25.4063 1360.125,26.2344 Q1361.0156,27.0469 1362.6094,27.0469 Q1363.5469,27.0469 1364.2031,26.7969 Q1364.5938,26.6406 1365.0156,26.2031 Q1365.2813,25.9375 1365.4219,25.8594 Q1365.5781,25.7813 1365.7813,25.7813 Q1366.1094,25.7813 1366.3594,26.0469 Q1366.625,26.2969 1366.625,26.6406 Q1366.625,26.9844 1366.2813,27.3906 Q1365.7813,27.9688 1364.9844,28.2969 Q1363.9063,28.75 1362.6094,28.75 Q1361.0938,28.75 1359.8906,28.125 Q1358.9063,27.625 1358.2188,26.5625 Q1357.5313,25.4844 1357.5313,24.2031 L1357.5313,23.0469 Q1357.5313,21.7188 1358.1406,20.5781 Q1358.7656,19.4219 1359.8594,18.8125 Q1360.9531,18.1875 1362.1875,18.1875 Q1362.9219,18.1875 1363.5625,18.3594 Q1364.2188,18.5156 1364.7656,18.875 Z " fill="#000000"/><text fill="#000000" font-family="sans-serif" font-size="14" lengthAdjust="spacing" textLength="153" x="1376" y="28.7969">AgencyNetworkManager</text><line style="stroke:#181818;stroke-width:0.5;" x1="1348" x2="1531" y1="39" y2="39"/><line style="stroke:#181818;stroke-width:0.5;" x1="1348" x2="1531" y1="47" y2="47"/></g><!--class AgencyNetworkManagerRepository--><g id="elem_AgencyNetworkManagerRepository"><rect codeLine="32" fill="#F1F1F1" height="85.2422" id="AgencyNetworkManagerRepository" rx="2.5" ry="2.5" style="stroke:#181818;stroke-width:0.5;" width="253" x="820" y="462"/><ellipse cx="835" cy="478" fill="#ADD1B2" rx="11" ry="11" style="stroke:#181818;stroke-width:1.0;"/><path d="M837.7656,473.875 Q837.9219,473.6563 838.1094,473.5469 Q838.2969,473.4375 838.5156,473.4375 Q838.8906,473.4375 839.125,473.7031 Q839.3594,473.9531 839.3594,474.5625 L839.3594,476.0156 Q839.3594,476.625 839.125,476.8906 Q838.8906,477.1563 838.5156,477.1563 Q838.1719,477.1563 837.9688,476.9531 Q837.7656,476.7656 837.6563,476.25 Q837.6094,475.8906 837.4219,475.7031 Q837.0938,475.3281 836.4844,475.1094 Q835.875,474.8906 835.25,474.8906 Q834.4844,474.8906 833.8438,475.2188 Q833.2188,475.5469 832.7188,476.2969 Q832.2344,477.0469 832.2344,478.0781 L832.2344,479.1719 Q832.2344,480.4063 833.125,481.2344 Q834.0156,482.0469 835.6094,482.0469 Q836.5469,482.0469 837.2031,481.7969 Q837.5938,481.6406 838.0156,481.2031 Q838.2813,480.9375 838.4219,480.8594 Q838.5781,480.7813 838.7813,480.7813 Q839.1094,480.7813 839.3594,481.0469 Q839.625,481.2969 839.625,481.6406 Q839.625,481.9844 839.2813,482.3906 Q838.7813,482.9688 837.9844,483.2969 Q836.9063,483.75 835.6094,483.75 Q834.0938,483.75 832.8906,483.125 Q831.9063,482.625 831.2188,481.5625 Q830.5313,480.4844 830.5313,479.2031 L830.5313,478.0469 Q830.5313,476.7188 831.1406,475.5781 Q831.7656,474.4219 832.8594,473.8125 Q833.9531,473.1875 835.1875,473.1875 Q835.9219,473.1875 836.5625,473.3594 Q837.2188,473.5156 837.7656,473.875 Z " fill="#000000"/><text fill="#000000" font-family="sans-serif" font-size="14" lengthAdjust="spacing" textLength="221" x="849" y="483.7969">AgencyNetworkManagerRepository</text><line style="stroke:#181818;stroke-width:0.5;" x1="821" x2="1072" y1="494" y2="494"/><line style="stroke:#181818;stroke-width:0.5;" x1="821" x2="1072" y1="502" y2="502"/><text fill="#000000" font-family="sans-serif" font-size="14" lengthAdjust="spacing" textLength="211" x="826" y="521.1074">+create(AgencyNetworkManager)</text><text fill="#000000" font-family="sans-serif" font-size="14" lengthAdjust="spacing" textLength="191" x="826" y="539.7285">+get(AgencyNetworkManager)</text></g><!--class AgencyRepository--><g id="elem_AgencyRepository"><rect codeLine="37" fill="#F1F1F1" height="85.2422" id="AgencyRepository" rx="2.5" ry="2.5" style="stroke:#181818;stroke-width:0.5;" width="147" x="290" y="462"/><ellipse cx="305" cy="478" fill="#ADD1B2" rx="11" ry="11" style="stroke:#181818;stroke-width:1.0;"/><path d="M307.7656,473.875 Q307.9219,473.6563 308.1094,473.5469 Q308.2969,473.4375 308.5156,473.4375 Q308.8906,473.4375 309.125,473.7031 Q309.3594,473.9531 309.3594,474.5625 L309.3594,476.0156 Q309.3594,476.625 309.125,476.8906 Q308.8906,477.1563 308.5156,477.1563 Q308.1719,477.1563 307.9688,476.9531 Q307.7656,476.7656 307.6563,476.25 Q307.6094,475.8906 307.4219,475.7031 Q307.0938,475.3281 306.4844,475.1094 Q305.875,474.8906 305.25,474.8906 Q304.4844,474.8906 303.8438,475.2188 Q303.2188,475.5469 302.7188,476.2969 Q302.2344,477.0469 302.2344,478.0781 L302.2344,479.1719 Q302.2344,480.4063 303.125,481.2344 Q304.0156,482.0469 305.6094,482.0469 Q306.5469,482.0469 307.2031,481.7969 Q307.5938,481.6406 308.0156,481.2031 Q308.2813,480.9375 308.4219,480.8594 Q308.5781,480.7813 308.7813,480.7813 Q309.1094,480.7813 309.3594,481.0469 Q309.625,481.2969 309.625,481.6406 Q309.625,481.9844 309.2813,482.3906 Q308.7813,482.9688 307.9844,483.2969 Q306.9063,483.75 305.6094,483.75 Q304.0938,483.75 302.8906,483.125 Q301.9063,482.625 301.2188,481.5625 Q300.5313,480.4844 300.5313,479.2031 L300.5313,478.0469 Q300.5313,476.7188 301.1406,475.5781 Q301.7656,474.4219 302.8594,473.8125 Q303.9531,473.1875 305.1875,473.1875 Q305.9219,473.1875 306.5625,473.3594 Q307.2188,473.5156 307.7656,473.875 Z " fill="#000000"/><text fill="#000000" font-family="sans-serif" font-size="14" lengthAdjust="spacing" textLength="115" x="319" y="483.7969">AgencyRepository</text><line style="stroke:#181818;stroke-width:0.5;" x1="291" x2="436" y1="494" y2="494"/><line style="stroke:#181818;stroke-width:0.5;" x1="291" x2="436" y1="502" y2="502"/><text fill="#000000" font-family="sans-serif" font-size="14" lengthAdjust="spacing" textLength="105" x="296" y="521.1074">+create(Agency)</text><text fill="#000000" font-family="sans-serif" font-size="14" lengthAdjust="spacing" textLength="85" x="296" y="539.7285">+get(Agency)</text></g><!--class PropertyRepository--><g id="elem_PropertyRepository"><rect codeLine="42" fill="#F1F1F1" height="85.2422" id="PropertyRepository" rx="2.5" ry="2.5" style="stroke:#181818;stroke-width:0.5;" width="154" x="551.5" y="462"/><ellipse cx="566.5" cy="478" fill="#ADD1B2" rx="11" ry="11" style="stroke:#181818;stroke-width:1.0;"/><path d="M569.2656,473.875 Q569.4219,473.6563 569.6094,473.5469 Q569.7969,473.4375 570.0156,473.4375 Q570.3906,473.4375 570.625,473.7031 Q570.8594,473.9531 570.8594,474.5625 L570.8594,476.0156 Q570.8594,476.625 570.625,476.8906 Q570.3906,477.1563 570.0156,477.1563 Q569.6719,477.1563 569.4688,476.9531 Q569.2656,476.7656 569.1563,476.25 Q569.1094,475.8906 568.9219,475.7031 Q568.5938,475.3281 567.9844,475.1094 Q567.375,474.8906 566.75,474.8906 Q565.9844,474.8906 565.3438,475.2188 Q564.7188,475.5469 564.2188,476.2969 Q563.7344,477.0469 563.7344,478.0781 L563.7344,479.1719 Q563.7344,480.4063 564.625,481.2344 Q565.5156,482.0469 567.1094,482.0469 Q568.0469,482.0469 568.7031,481.7969 Q569.0938,481.6406 569.5156,481.2031 Q569.7813,480.9375 569.9219,480.8594 Q570.0781,480.7813 570.2813,480.7813 Q570.6094,480.7813 570.8594,481.0469 Q571.125,481.2969 571.125,481.6406 Q571.125,481.9844 570.7813,482.3906 Q570.2813,482.9688 569.4844,483.2969 Q568.4063,483.75 567.1094,483.75 Q565.5938,483.75 564.3906,483.125 Q563.4063,482.625 562.7188,481.5625 Q562.0313,480.4844 562.0313,479.2031 L562.0313,478.0469 Q562.0313,476.7188 562.6406,475.5781 Q563.2656,474.4219 564.3594,473.8125 Q565.4531,473.1875 566.6875,473.1875 Q567.4219,473.1875 568.0625,473.3594 Q568.7188,473.5156 569.2656,473.875 Z " fill="#000000"/><text fill="#000000" font-family="sans-serif" font-size="14" lengthAdjust="spacing" textLength="122" x="580.5" y="483.7969">PropertyRepository</text><line style="stroke:#181818;stroke-width:0.5;" x1="552.5" x2="704.5" y1="494" y2="494"/><line style="stroke:#181818;stroke-width:0.5;" x1="552.5" x2="704.5" y1="502" y2="502"/><text fill="#000000" font-family="sans-serif" font-size="14" lengthAdjust="spacing" textLength="112" x="557.5" y="521.1074">+create(Property)</text><text fill="#000000" font-family="sans-serif" font-size="14" lengthAdjust="spacing" textLength="92" x="557.5" y="539.7285">+get(Property)</text></g><!--class EmployeesRepository--><g id="elem_EmployeesRepository"><rect codeLine="47" fill="#F1F1F1" height="85.2422" id="EmployeesRepository" rx="2.5" ry="2.5" style="stroke:#181818;stroke-width:0.5;" width="169" x="7" y="462"/><ellipse cx="22" cy="478" fill="#ADD1B2" rx="11" ry="11" style="stroke:#181818;stroke-width:1.0;"/><path d="M24.7656,473.875 Q24.9219,473.6563 25.1094,473.5469 Q25.2969,473.4375 25.5156,473.4375 Q25.8906,473.4375 26.125,473.7031 Q26.3594,473.9531 26.3594,474.5625 L26.3594,476.0156 Q26.3594,476.625 26.125,476.8906 Q25.8906,477.1563 25.5156,477.1563 Q25.1719,477.1563 24.9688,476.9531 Q24.7656,476.7656 24.6563,476.25 Q24.6094,475.8906 24.4219,475.7031 Q24.0938,475.3281 23.4844,475.1094 Q22.875,474.8906 22.25,474.8906 Q21.4844,474.8906 20.8438,475.2188 Q20.2188,475.5469 19.7188,476.2969 Q19.2344,477.0469 19.2344,478.0781 L19.2344,479.1719 Q19.2344,480.4063 20.125,481.2344 Q21.0156,482.0469 22.6094,482.0469 Q23.5469,482.0469 24.2031,481.7969 Q24.5938,481.6406 25.0156,481.2031 Q25.2813,480.9375 25.4219,480.8594 Q25.5781,480.7813 25.7813,480.7813 Q26.1094,480.7813 26.3594,481.0469 Q26.625,481.2969 26.625,481.6406 Q26.625,481.9844 26.2813,482.3906 Q25.7813,482.9688 24.9844,483.2969 Q23.9063,483.75 22.6094,483.75 Q21.0938,483.75 19.8906,483.125 Q18.9063,482.625 18.2188,481.5625 Q17.5313,480.4844 17.5313,479.2031 L17.5313,478.0469 Q17.5313,476.7188 18.1406,475.5781 Q18.7656,474.4219 19.8594,473.8125 Q20.9531,473.1875 22.1875,473.1875 Q22.9219,473.1875 23.5625,473.3594 Q24.2188,473.5156 24.7656,473.875 Z " fill="#000000"/><text fill="#000000" font-family="sans-serif" font-size="14" lengthAdjust="spacing" textLength="137" x="36" y="483.7969">EmployeesRepository</text><line style="stroke:#181818;stroke-width:0.5;" x1="8" x2="175" y1="494" y2="494"/><line style="stroke:#181818;stroke-width:0.5;" x1="8" x2="175" y1="502" y2="502"/><text fill="#000000" font-family="sans-serif" font-size="14" lengthAdjust="spacing" textLength="120" x="13" y="521.1074">+create(Employee)</text><text fill="#000000" font-family="sans-serif" font-size="14" lengthAdjust="spacing" textLength="100" x="13" y="539.7285">+get(Employee)</text></g><!--class ListEmployeesUI--><g id="elem_ListEmployeesUI"><rect codeLine="52" fill="#F1F1F1" height="48" id="ListEmployeesUI" rx="2.5" ry="2.5" style="stroke:#181818;stroke-width:0.5;" width="135" x="908" y="7"/><ellipse cx="923" cy="23" fill="#ADD1B2" rx="11" ry="11" style="stroke:#181818;stroke-width:1.0;"/><path d="M925.7656,18.875 Q925.9219,18.6563 926.1094,18.5469 Q926.2969,18.4375 926.5156,18.4375 Q926.8906,18.4375 927.125,18.7031 Q927.3594,18.9531 927.3594,19.5625 L927.3594,21.0156 Q927.3594,21.625 927.125,21.8906 Q926.8906,22.1563 926.5156,22.1563 Q926.1719,22.1563 925.9688,21.9531 Q925.7656,21.7656 925.6563,21.25 Q925.6094,20.8906 925.4219,20.7031 Q925.0938,20.3281 924.4844,20.1094 Q923.875,19.8906 923.25,19.8906 Q922.4844,19.8906 921.8438,20.2188 Q921.2188,20.5469 920.7188,21.2969 Q920.2344,22.0469 920.2344,23.0781 L920.2344,24.1719 Q920.2344,25.4063 921.125,26.2344 Q922.0156,27.0469 923.6094,27.0469 Q924.5469,27.0469 925.2031,26.7969 Q925.5938,26.6406 926.0156,26.2031 Q926.2813,25.9375 926.4219,25.8594 Q926.5781,25.7813 926.7813,25.7813 Q927.1094,25.7813 927.3594,26.0469 Q927.625,26.2969 927.625,26.6406 Q927.625,26.9844 927.2813,27.3906 Q926.7813,27.9688 925.9844,28.2969 Q924.9063,28.75 923.6094,28.75 Q922.0938,28.75 920.8906,28.125 Q919.9063,27.625 919.2188,26.5625 Q918.5313,25.4844 918.5313,24.2031 L918.5313,23.0469 Q918.5313,21.7188 919.1406,20.5781 Q919.7656,19.4219 920.8594,18.8125 Q921.9531,18.1875 923.1875,18.1875 Q923.9219,18.1875 924.5625,18.3594 Q925.2188,18.5156 925.7656,18.875 Z " fill="#000000"/><text fill="#000000" font-family="sans-serif" font-size="14" lengthAdjust="spacing" textLength="103" x="937" y="28.7969">ListEmployeesUI</text><line style="stroke:#181818;stroke-width:0.5;" x1="909" x2="1042" y1="39" y2="39"/><line style="stroke:#181818;stroke-width:0.5;" x1="909" x2="1042" y1="47" y2="47"/></g><!--class ListEmployeesController--><g id="elem_ListEmployeesController"><rect codeLine="55" fill="#F1F1F1" height="48" id="ListEmployeesController" rx="2.5" ry="2.5" style="stroke:#181818;stroke-width:0.5;" width="185" x="883" y="134"/><ellipse cx="898" cy="150" fill="#ADD1B2" rx="11" ry="11" style="stroke:#181818;stroke-width:1.0;"/><path d="M900.7656,145.875 Q900.9219,145.6563 901.1094,145.5469 Q901.2969,145.4375 901.5156,145.4375 Q901.8906,145.4375 902.125,145.7031 Q902.3594,145.9531 902.3594,146.5625 L902.3594,148.0156 Q902.3594,148.625 902.125,148.8906 Q901.8906,149.1563 901.5156,149.1563 Q901.1719,149.1563 900.9688,148.9531 Q900.7656,148.7656 900.6563,148.25 Q900.6094,147.8906 900.4219,147.7031 Q900.0938,147.3281 899.4844,147.1094 Q898.875,146.8906 898.25,146.8906 Q897.4844,146.8906 896.8438,147.2188 Q896.2188,147.5469 895.7188,148.2969 Q895.2344,149.0469 895.2344,150.0781 L895.2344,151.1719 Q895.2344,152.4063 896.125,153.2344 Q897.0156,154.0469 898.6094,154.0469 Q899.5469,154.0469 900.2031,153.7969 Q900.5938,153.6406 901.0156,153.2031 Q901.2813,152.9375 901.4219,152.8594 Q901.5781,152.7813 901.7813,152.7813 Q902.1094,152.7813 902.3594,153.0469 Q902.625,153.2969 902.625,153.6406 Q902.625,153.9844 902.2813,154.3906 Q901.7813,154.9688 900.9844,155.2969 Q899.9063,155.75 898.6094,155.75 Q897.0938,155.75 895.8906,155.125 Q894.9063,154.625 894.2188,153.5625 Q893.5313,152.4844 893.5313,151.2031 L893.5313,150.0469 Q893.5313,148.7188 894.1406,147.5781 Q894.7656,146.4219 895.8594,145.8125 Q896.9531,145.1875 898.1875,145.1875 Q898.9219,145.1875 899.5625,145.3594 Q900.2188,145.5156 900.7656,145.875 Z " fill="#000000"/><text fill="#000000" font-family="sans-serif" font-size="14" lengthAdjust="spacing" textLength="153" x="912" y="155.7969">ListEmployeesController</text><line style="stroke:#181818;stroke-width:0.5;" x1="884" x2="1067" y1="166" y2="166"/><line style="stroke:#181818;stroke-width:0.5;" x1="884" x2="1067" y1="174" y2="174"/></g><!--class Agency--><g id="elem_Agency"><rect codeLine="58" fill="#F1F1F1" height="48" id="Agency" rx="2.5" ry="2.5" style="stroke:#181818;stroke-width:0.5;" width="79" x="1400" y="134"/><ellipse cx="1415" cy="150" fill="#ADD1B2" rx="11" ry="11" style="stroke:#181818;stroke-width:1.0;"/><path d="M1417.7656,145.875 Q1417.9219,145.6563 1418.1094,145.5469 Q1418.2969,145.4375 1418.5156,145.4375 Q1418.8906,145.4375 1419.125,145.7031 Q1419.3594,145.9531 1419.3594,146.5625 L1419.3594,148.0156 Q1419.3594,148.625 1419.125,148.8906 Q1418.8906,149.1563 1418.5156,149.1563 Q1418.1719,149.1563 1417.9688,148.9531 Q1417.7656,148.7656 1417.6563,148.25 Q1417.6094,147.8906 1417.4219,147.7031 Q1417.0938,147.3281 1416.4844,147.1094 Q1415.875,146.8906 1415.25,146.8906 Q1414.4844,146.8906 1413.8438,147.2188 Q1413.2188,147.5469 1412.7188,148.2969 Q1412.2344,149.0469 1412.2344,150.0781 L1412.2344,151.1719 Q1412.2344,152.4063 1413.125,153.2344 Q1414.0156,154.0469 1415.6094,154.0469 Q1416.5469,154.0469 1417.2031,153.7969 Q1417.5938,153.6406 1418.0156,153.2031 Q1418.2813,152.9375 1418.4219,152.8594 Q1418.5781,152.7813 1418.7813,152.7813 Q1419.1094,152.7813 1419.3594,153.0469 Q1419.625,153.2969 1419.625,153.6406 Q1419.625,153.9844 1419.2813,154.3906 Q1418.7813,154.9688 1417.9844,155.2969 Q1416.9063,155.75 1415.6094,155.75 Q1414.0938,155.75 1412.8906,155.125 Q1411.9063,154.625 1411.2188,153.5625 Q1410.5313,152.4844 1410.5313,151.2031 L1410.5313,150.0469 Q1410.5313,148.7188 1411.1406,147.5781 Q1411.7656,146.4219 1412.8594,145.8125 Q1413.9531,145.1875 1415.1875,145.1875 Q1415.9219,145.1875 1416.5625,145.3594 Q1417.2188,145.5156 1417.7656,145.875 Z " fill="#000000"/><text fill="#000000" font-family="sans-serif" font-size="14" lengthAdjust="spacing" textLength="47" x="1429" y="155.7969">Agency</text><line style="stroke:#181818;stroke-width:0.5;" x1="1401" x2="1478" y1="166" y2="166"/><line style="stroke:#181818;stroke-width:0.5;" x1="1401" x2="1478" y1="174" y2="174"/></g><!--class Property--><g id="elem_Property"><rect codeLine="61" fill="#F1F1F1" height="48" id="Property" rx="2.5" ry="2.5" style="stroke:#181818;stroke-width:0.5;" width="86" x="1459.5" y="298"/><ellipse cx="1474.5" cy="314" fill="#ADD1B2" rx="11" ry="11" style="stroke:#181818;stroke-width:1.0;"/><path d="M1477.2656,309.875 Q1477.4219,309.6563 1477.6094,309.5469 Q1477.7969,309.4375 1478.0156,309.4375 Q1478.3906,309.4375 1478.625,309.7031 Q1478.8594,309.9531 1478.8594,310.5625 L1478.8594,312.0156 Q1478.8594,312.625 1478.625,312.8906 Q1478.3906,313.1563 1478.0156,313.1563 Q1477.6719,313.1563 1477.4688,312.9531 Q1477.2656,312.7656 1477.1563,312.25 Q1477.1094,311.8906 1476.9219,311.7031 Q1476.5938,311.3281 1475.9844,311.1094 Q1475.375,310.8906 1474.75,310.8906 Q1473.9844,310.8906 1473.3438,311.2188 Q1472.7188,311.5469 1472.2188,312.2969 Q1471.7344,313.0469 1471.7344,314.0781 L1471.7344,315.1719 Q1471.7344,316.4063 1472.625,317.2344 Q1473.5156,318.0469 1475.1094,318.0469 Q1476.0469,318.0469 1476.7031,317.7969 Q1477.0938,317.6406 1477.5156,317.2031 Q1477.7813,316.9375 1477.9219,316.8594 Q1478.0781,316.7813 1478.2813,316.7813 Q1478.6094,316.7813 1478.8594,317.0469 Q1479.125,317.2969 1479.125,317.6406 Q1479.125,317.9844 1478.7813,318.3906 Q1478.2813,318.9688 1477.4844,319.2969 Q1476.4063,319.75 1475.1094,319.75 Q1473.5938,319.75 1472.3906,319.125 Q1471.4063,318.625 1470.7188,317.5625 Q1470.0313,316.4844 1470.0313,315.2031 L1470.0313,314.0469 Q1470.0313,312.7188 1470.6406,311.5781 Q1471.2656,310.4219 1472.3594,309.8125 Q1473.4531,309.1875 1474.6875,309.1875 Q1475.4219,309.1875 1476.0625,309.3594 Q1476.7188,309.5156 1477.2656,309.875 Z " fill="#000000"/><text fill="#000000" font-family="sans-serif" font-size="14" lengthAdjust="spacing" textLength="54" x="1488.5" y="319.7969">Property</text><line style="stroke:#181818;stroke-width:0.5;" x1="1460.5" x2="1544.5" y1="330" y2="330"/><line style="stroke:#181818;stroke-width:0.5;" x1="1460.5" x2="1544.5" y1="338" y2="338"/></g><!--class Repositories--><g id="elem_Repositories"><rect fill="#F1F1F1" height="48" id="Repositories" rx="2.5" ry="2.5" style="stroke:#181818;stroke-width:0.5;" width="111" x="573" y="298"/><ellipse cx="588" cy="314" fill="#ADD1B2" rx="11" ry="11" style="stroke:#181818;stroke-width:1.0;"/><path d="M590.7656,309.875 Q590.9219,309.6563 591.1094,309.5469 Q591.2969,309.4375 591.5156,309.4375 Q591.8906,309.4375 592.125,309.7031 Q592.3594,309.9531 592.3594,310.5625 L592.3594,312.0156 Q592.3594,312.625 592.125,312.8906 Q591.8906,313.1563 591.5156,313.1563 Q591.1719,313.1563 590.9688,312.9531 Q590.7656,312.7656 590.6563,312.25 Q590.6094,311.8906 590.4219,311.7031 Q590.0938,311.3281 589.4844,311.1094 Q588.875,310.8906 588.25,310.8906 Q587.4844,310.8906 586.8438,311.2188 Q586.2188,311.5469 585.7188,312.2969 Q585.2344,313.0469 585.2344,314.0781 L585.2344,315.1719 Q585.2344,316.4063 586.125,317.2344 Q587.0156,318.0469 588.6094,318.0469 Q589.5469,318.0469 590.2031,317.7969 Q590.5938,317.6406 591.0156,317.2031 Q591.2813,316.9375 591.4219,316.8594 Q591.5781,316.7813 591.7813,316.7813 Q592.1094,316.7813 592.3594,317.0469 Q592.625,317.2969 592.625,317.6406 Q592.625,317.9844 592.2813,318.3906 Q591.7813,318.9688 590.9844,319.2969 Q589.9063,319.75 588.6094,319.75 Q587.0938,319.75 585.8906,319.125 Q584.9063,318.625 584.2188,317.5625 Q583.5313,316.4844 583.5313,315.2031 L583.5313,314.0469 Q583.5313,312.7188 584.1406,311.5781 Q584.7656,310.4219 585.8594,309.8125 Q586.9531,309.1875 588.1875,309.1875 Q588.9219,309.1875 589.5625,309.3594 Q590.2188,309.5156 590.7656,309.875 Z " fill="#000000"/><text fill="#000000" font-family="sans-serif" font-size="14" lengthAdjust="spacing" textLength="79" x="602" y="319.7969">Repositories</text><line style="stroke:#181818;stroke-width:0.5;" x1="574" x2="683" y1="330" y2="330"/><line style="stroke:#181818;stroke-width:0.5;" x1="574" x2="683" y1="338" y2="338"/></g><!--class CurrentSession--><g id="elem_CurrentSession"><rect fill="#F1F1F1" height="48" id="CurrentSession" rx="2.5" ry="2.5" style="stroke:#181818;stroke-width:0.5;" width="130" x="1165.5" y="298"/><ellipse cx="1180.5" cy="314" fill="#ADD1B2" rx="11" ry="11" style="stroke:#181818;stroke-width:1.0;"/><path d="M1183.2656,309.875 Q1183.4219,309.6563 1183.6094,309.5469 Q1183.7969,309.4375 1184.0156,309.4375 Q1184.3906,309.4375 1184.625,309.7031 Q1184.8594,309.9531 1184.8594,310.5625 L1184.8594,312.0156 Q1184.8594,312.625 1184.625,312.8906 Q1184.3906,313.1563 1184.0156,313.1563 Q1183.6719,313.1563 1183.4688,312.9531 Q1183.2656,312.7656 1183.1563,312.25 Q1183.1094,311.8906 1182.9219,311.7031 Q1182.5938,311.3281 1181.9844,311.1094 Q1181.375,310.8906 1180.75,310.8906 Q1179.9844,310.8906 1179.3438,311.2188 Q1178.7188,311.5469 1178.2188,312.2969 Q1177.7344,313.0469 1177.7344,314.0781 L1177.7344,315.1719 Q1177.7344,316.4063 1178.625,317.2344 Q1179.5156,318.0469 1181.1094,318.0469 Q1182.0469,318.0469 1182.7031,317.7969 Q1183.0938,317.6406 1183.5156,317.2031 Q1183.7813,316.9375 1183.9219,316.8594 Q1184.0781,316.7813 1184.2813,316.7813 Q1184.6094,316.7813 1184.8594,317.0469 Q1185.125,317.2969 1185.125,317.6406 Q1185.125,317.9844 1184.7813,318.3906 Q1184.2813,318.9688 1183.4844,319.2969 Q1182.4063,319.75 1181.1094,319.75 Q1179.5938,319.75 1178.3906,319.125 Q1177.4063,318.625 1176.7188,317.5625 Q1176.0313,316.4844 1176.0313,315.2031 L1176.0313,314.0469 Q1176.0313,312.7188 1176.6406,311.5781 Q1177.2656,310.4219 1178.3594,309.8125 Q1179.4531,309.1875 1180.6875,309.1875 Q1181.4219,309.1875 1182.0625,309.3594 Q1182.7188,309.5156 1183.2656,309.875 Z " fill="#000000"/><text fill="#000000" font-family="sans-serif" font-size="14" lengthAdjust="spacing" textLength="98" x="1194.5" y="319.7969">CurrentSession</text><line style="stroke:#181818;stroke-width:0.5;" x1="1166.5" x2="1294.5" y1="330" y2="330"/><line style="stroke:#181818;stroke-width:0.5;" x1="1166.5" x2="1294.5" y1="338" y2="338"/></g><!--link AgencyNetworkManager to Agency--><g id="link_AgencyNetworkManager_Agency"><path codeLine="64" d="M1439.5,55.22 C1439.5,76 1439.5,106.54 1439.5,128.74 " fill="none" id="AgencyNetworkManager-to-Agency" style="stroke:#181818;stroke-width:1.0;"/><polygon fill="#181818" points="1439.5,133.91,1443.5,124.91,1439.5,128.91,1435.5,124.91,1439.5,133.91" style="stroke:#181818;stroke-width:1.0;"/><text fill="#000000" font-family="sans-serif" font-size="13" lengthAdjust="spacing" textLength="53" x="1440.5" y="100.0283">manages</text><text fill="#000000" font-family="sans-serif" font-size="13" lengthAdjust="spacing" textLength="7" x="1431.6906" y="76.8485">1</text><text fill="#000000" font-family="sans-serif" font-size="13" lengthAdjust="spacing" textLength="20" x="1416.9375" y="122.6244">1..*</text></g><!--link Agency to Property--><g id="link_Agency_Property"><path codeLine="65" d="M1448.53,182.21 C1459.89,211.44 1479.41,261.63 1491.6,292.97 " fill="none" id="Agency-to-Property" style="stroke:#181818;stroke-width:1.0;"/><polygon fill="#181818" points="1493.49,297.83,1493.9502,287.9919,1491.675,293.1711,1486.4959,290.8959,1493.49,297.83" style="stroke:#181818;stroke-width:1.0;"/><text fill="#000000" font-family="sans-serif" font-size="13" lengthAdjust="spacing" textLength="24" x="1467.5" y="227.0283">lists</text><text fill="#000000" font-family="sans-serif" font-size="13" lengthAdjust="spacing" textLength="7" x="1442.8088" y="203.8362">1</text><text fill="#000000" font-family="sans-serif" font-size="13" lengthAdjust="spacing" textLength="20" x="1468.8563" y="286.9305">1..*</text></g><!--link Agency to Employee--><g id="link_Agency_Employee"><path codeLine="66" d="M1430.62,182.21 C1423.24,201.48 1412.38,229.86 1402.4,255.95 " fill="none" id="Agency-to-Employee" style="stroke:#181818;stroke-width:1.0;"/><polygon fill="#181818" points="1400.54,260.79,1407.4899,253.8115,1402.3253,256.1196,1400.0173,250.955,1400.54,260.79" style="stroke:#181818;stroke-width:1.0;"/><text fill="#000000" font-family="sans-serif" font-size="13" lengthAdjust="spacing" textLength="21" x="1419.5" y="227.0283">has</text><text fill="#000000" font-family="sans-serif" font-size="13" lengthAdjust="spacing" textLength="7" x="1420.7571" y="203.8362">1</text><text fill="#000000" font-family="sans-serif" font-size="13" lengthAdjust="spacing" textLength="20" x="1382.0478" y="249.7469">1..*</text></g><!--link ListEmployeesUI to ListEmployeesController--><g id="link_ListEmployeesUI_ListEmployeesController"><path codeLine="68" d="M975.5,55.22 C975.5,76 975.5,106.54 975.5,128.74 " fill="none" id="ListEmployeesUI-to-ListEmployeesController" style="stroke:#181818;stroke-width:1.0;"/><polygon fill="#181818" points="975.5,133.91,979.5,124.91,975.5,128.91,971.5,124.91,975.5,133.91" style="stroke:#181818;stroke-width:1.0;"/></g><!--link Repositories to Repositories--><g id="link_Repositories_Repositories"><path codeLine="70" d="M684.18,303.25 C703.44,303.06 719,309.3 719,322 C719,333.51 706.22,339.72 689.49,340.63 " fill="none" id="Repositories-to-Repositories" style="stroke:#181818;stroke-width:1.0;"/><polygon fill="#181818" points="684.18,340.75,693.2582,344.5692,689.179,340.65,693.0982,336.5708,684.18,340.75" style="stroke:#181818;stroke-width:1.0;"/><text fill="#000000" font-family="sans-serif" font-size="13" lengthAdjust="spacing" textLength="49" x="725" y="327.5283">instance</text></g><!--link ApplicationSession to ApplicationSession--><g id="link_ApplicationSession_ApplicationSession"><path codeLine="71" d="M1051.16,303.43 C1071,304.53 1086,310.72 1086,322 C1086,332.31 1073.47,338.37 1056.16,340.17 " fill="none" id="ApplicationSession-to-ApplicationSession" style="stroke:#181818;stroke-width:1.0;"/><polygon fill="#181818" points="1051.16,340.57,1060.4511,343.8374,1056.144,340.1701,1059.8113,335.8631,1051.16,340.57" style="stroke:#181818;stroke-width:1.0;"/><text fill="#000000" font-family="sans-serif" font-size="13" lengthAdjust="spacing" textLength="49" x="1092" y="327.5283">instance</text></g><!--link ApplicationSession to UserSession--><g id="link_ApplicationSession_UserSession"><path codeLine="72" d="M1037.09,364.64 C1083.34,395.9 1146,438.27 1189.91,467.95 " fill="none" id="ApplicationSession-to-UserSession" style="stroke:#181818;stroke-width:1.0;"/><polygon fill="#181818" points="1194.1,470.78,1188.8832,462.4263,1189.9574,467.9802,1184.4035,469.0544,1194.1,470.78" style="stroke:#181818;stroke-width:1.0;"/><text fill="#000000" font-family="sans-serif" font-size="13" lengthAdjust="spacing" textLength="87" x="1134.5" y="428.0283">currentSession</text></g><!--link UserSession to UserSession--><g id="link_UserSession_UserSession"><path codeLine="73" d="M1298.18,489.13 C1317.44,488.97 1333,494.09 1333,504.5 C1333,513.93 1320.22,519.03 1303.49,519.78 " fill="none" id="UserSession-to-UserSession" style="stroke:#181818;stroke-width:1.0;"/><polygon fill="#181818" points="1298.18,519.87,1307.2582,523.6892,1303.179,519.77,1307.0982,515.6908,1298.18,519.87" style="stroke:#181818;stroke-width:1.0;"/><text fill="#000000" font-family="sans-serif" font-size="13" lengthAdjust="spacing" textLength="49" x="1339" y="510.0283">instance</text></g><!--link ListEmployeesController to Repositories--><g id="link_ListEmployeesController_Repositories"><path codeLine="75" d="M926.15,182.04 C861.74,212.11 749.39,264.56 682.68,295.7 " fill="none" id="ListEmployeesController-to-Repositories" style="stroke:#181818;stroke-width:1.0;"/><polygon fill="#181818" points="677.96,297.91,687.8072,297.7271,682.4906,295.7948,684.4228,290.4782,677.96,297.91" style="stroke:#181818;stroke-width:1.0;"/><text fill="#000000" font-family="sans-serif" font-size="13" lengthAdjust="spacing" textLength="67" x="854.5" y="227.0283">repositories</text></g><!--link Repositories to EmployeesRepository--><g id="link_Repositories_EmployeesRepository"><path codeLine="76" d="M572.8,341.72 C480.01,372.91 292.96,435.78 181.34,473.3 " fill="none" id="Repositories-to-EmployeesRepository" style="stroke:#181818;stroke-width:1.0;"/><polygon fill="#181818" points="176.41,474.96,186.2164,475.8733,181.1477,473.3617,183.6592,468.293,176.41,474.96" style="stroke:#181818;stroke-width:1.0;"/></g><!--link EmployeesRepository to EmployeesRepository--><g id="link_EmployeesRepository_EmployeesRepository"><path codeLine="77" d="M176.08,489.41 C196.16,490.62 211,495.65 211,504.5 C211,512.59 198.6,517.49 181.14,519.19 " fill="none" id="EmployeesRepository-to-EmployeesRepository" style="stroke:#181818;stroke-width:1.0;"/><polygon fill="#181818" points="176.08,519.59,185.3617,522.8839,181.0651,519.2043,184.7447,514.9077,176.08,519.59" style="stroke:#181818;stroke-width:1.0;"/><text fill="#000000" font-family="sans-serif" font-size="13" lengthAdjust="spacing" textLength="49" x="217" y="510.0283">instance</text></g><!--link Repositories to AgencyRepository--><g id="link_Repositories_AgencyRepository"><path codeLine="78" d="M594.67,346.04 C553.07,374.38 481.54,423.1 429.04,458.86 " fill="none" id="Repositories-to-AgencyRepository" style="stroke:#181818;stroke-width:1.0;"/><polygon fill="#181818" points="424.66,461.84,434.3496,460.0759,428.7914,459.0238,429.8436,453.4656,424.66,461.84" style="stroke:#181818;stroke-width:1.0;"/></g><!--link AgencyRepository to AgencyRepository--><g id="link_AgencyRepository_AgencyRepository"><path codeLine="79" d="M437.03,489.24 C456.89,490.04 472,495.13 472,504.5 C472,513.06 459.38,518.05 442.04,519.46 " fill="none" id="AgencyRepository-to-AgencyRepository" style="stroke:#181818;stroke-width:1.0;"/><polygon fill="#181818" points="437.03,519.76,446.2534,523.2138,442.021,519.4605,445.7743,515.2282,437.03,519.76" style="stroke:#181818;stroke-width:1.0;"/><text fill="#000000" font-family="sans-serif" font-size="13" lengthAdjust="spacing" textLength="49" x="478" y="510.0283">instance</text></g><!--link Repositories to PropertyRepository--><g id="link_Repositories_PropertyRepository"><path codeLine="80" d="M628.5,346.23 C628.5,374 628.5,421.16 628.5,456.62 " fill="none" id="Repositories-to-PropertyRepository" style="stroke:#181818;stroke-width:1.0;"/><polygon fill="#181818" points="628.5,461.76,632.5,452.76,628.5,456.76,624.5,452.76,628.5,461.76" style="stroke:#181818;stroke-width:1.0;"/></g><!--link PropertyRepository to PropertyRepository--><g id="link_PropertyRepository_PropertyRepository"><path codeLine="81" d="M705.71,489.3 C725.56,490.26 740.5,495.33 740.5,504.5 C740.5,512.88 728.02,517.84 710.71,519.36 " fill="none" id="PropertyRepository-to-PropertyRepository" style="stroke:#181818;stroke-width:1.0;"/><polygon fill="#181818" points="705.71,519.7,714.9632,523.0731,710.6982,519.357,714.4144,515.092,705.71,519.7" style="stroke:#181818;stroke-width:1.0;"/><text fill="#000000" font-family="sans-serif" font-size="13" lengthAdjust="spacing" textLength="49" x="746.5" y="510.0283">instance</text></g><!--link Repositories to AgencyNetworkManagerRepository--><g id="link_Repositories_AgencyNetworkManagerRepository"><path codeLine="82" d="M669.1,346.04 C719.22,374.49 805.54,423.49 868.61,459.29 " fill="none" id="Repositories-to-AgencyNetworkManagerRepository" style="stroke:#181818;stroke-width:1.0;"/><polygon fill="#181818" points="873.11,461.84,867.2551,453.9204,868.7609,459.3731,863.3081,460.8789,873.11,461.84" style="stroke:#181818;stroke-width:1.0;"/></g><!--link AgencyNetworkManagerRepository to AgencyNetworkManagerRepository--><g id="link_AgencyNetworkManagerRepository_AgencyNetworkManagerRepository"><path codeLine="83" d="M1073.12,490.27 C1093.79,492.31 1108,497.05 1108,504.5 C1108,511.31 1096.13,515.85 1078.3,518.14 " fill="none" id="AgencyNetworkManagerRepository-to-AgencyNetworkManagerRepository" style="stroke:#181818;stroke-width:1.0;"/><polygon fill="#181818" points="1073.12,518.73,1082.5104,521.6998,1078.0887,518.1716,1081.6169,513.7498,1073.12,518.73" style="stroke:#181818;stroke-width:1.0;"/><text fill="#000000" font-family="sans-serif" font-size="13" lengthAdjust="spacing" textLength="49" x="1114" y="510.0283">instance</text></g><!--link ListEmployeesController to ApplicationSession--><g id="link_ListEmployeesController_ApplicationSession"><path codeLine="84" d="M975.5,182.21 C975.5,206.11 975.5,244.02 975.5,274.19 " fill="none" id="ListEmployeesController-to-ApplicationSession" style="stroke:#181818;stroke-width:1.0;"/><polygon fill="#181818" points="975.5,279.34,979.5,270.34,975.5,274.34,971.5,270.34,975.5,279.34" style="stroke:#181818;stroke-width:1.0;"/><text fill="#000000" font-family="sans-serif" font-size="13" lengthAdjust="spacing" textLength="68" x="976.5" y="227.0283">appSession</text></g><!--link ListEmployeesController to CurrentSession--><g id="link_ListEmployeesController_CurrentSession"><path codeLine="85" d="M1014.53,182.15 C1065.28,212.24 1147.5,261 1147.5,261 C1147.5,261 1172.09,278.77 1194.49,294.97 " fill="none" id="ListEmployeesController-to-CurrentSession" style="stroke:#181818;stroke-width:1.0;"/><polygon fill="#181818" points="1198.65,297.97,1193.7079,289.4509,1194.6008,295.0368,1189.0148,295.9296,1198.65,297.97" style="stroke:#181818;stroke-width:1.0;"/><text fill="#000000" font-family="sans-serif" font-size="13" lengthAdjust="spacing" textLength="87" x="1098.5" y="227.0283">currentSession</text></g><!--SRC=[ZLJ1Rjim3BtpAuXSqcr8iLrp611qFGJeXc51Fq1JMLk8B0aIWy8Bzk-JFTjHRDbfBfRUUtmc6TBhS5J62IyghAonilIs8cH_8hWmJiYZAEZ0jIRq95cOGgU2K8eN-wPCWQz2XvJHoX3NZj1PNJSNM6T8wzb24YMr2677xDNl4zDUMdDGVmW_0wmrlJAoHQ-Aal55DUaeQm3Q6DmvfvKK3NIW41hc31X_dp1mX2KMn7iJpqRItOUEYjZ3oNiot0L5vczl-Hp8ZxrYG0FllwN2nyffMnFXVzK6ZQYeEr8bbExEpWRLvjnTInlRChZi2ZAo_a7yPltnkp2nyVwyJF-YrjBwkizFUX9CTpbnKlCCFthN3VUfN-Bmqrj7dkSzUa7gSi4chGspHhqYDRfWWz6J2ZoOFU_FCyo3DUojrfdMdwVLjL2kbxZwiiBDvcjytjz_N7KEkCMgvKCND9Rrlb6eOrPpic7UjbYA032ghPNEbGKmT59HmAYykczHTJi2qurgr1dqHamCIZOfgkNLna5AJhI3CypKq_gFIl39TLHk56T62Z8OvgLfJXFhyTx06C2CQD5nkaSmXJ0hV4UcSryJMARnfa7wxgK_BZjDmhb-DfPYhp_Sqxc2Vm00]--></g></svg>