<?xml version="1.0" encoding="us-ascii" standalone="no"?><svg xmlns="http://www.w3.org/2000/svg" xmlns:xlink="http://www.w3.org/1999/xlink" contentStyleType="text/css" height="260px" preserveAspectRatio="none" style="width:1340px;height:260px;background:#FFFFFF;" version="1.1" viewBox="0 0 1340 260" width="1340px" zoomAndPan="magnify"><defs/><g><!--cluster usecases--><g id="cluster_usecases"><rect fill="none" height="247" rx="2.5" ry="2.5" style="stroke:#FFFFFF;stroke-width:1.0;" width="1327" x="7" y="7"/><text fill="#000000" font-family="sans-serif" font-size="14" font-weight="bold" lengthAdjust="spacing" textLength="74" x="633.5" y="21.6738">Use Cases</text></g><g id="elem_UC4"><ellipse cx="1218.2108" cy="207.4422" fill="#F1F1F1" rx="100.2108" ry="22.4422" style="stroke:#181818;stroke-width:0.5;"/><text fill="#000000" font-family="sans-serif" font-size="14" lengthAdjust="spacing" textLength="166" x="1135.2108" y="210.2957">UC4 - To submit a request</text></g><!--entity Owner--><g id="elem_Owner"><ellipse cx="1218" cy="49.5" fill="#F1F1F1" rx="8" ry="8" style="stroke:#181818;stroke-width:0.5;"/><path d="M1218,57.5 L1218,84.5 M1205,65.5 L1231,65.5 M1218,84.5 L1205,99.5 M1218,84.5 L1231,99.5 " fill="none" style="stroke:#181818;stroke-width:0.5;"/><text fill="#000000" font-family="sans-serif" font-size="14" lengthAdjust="spacing" textLength="41" x="1197.5" y="113.6738">Owner</text></g><g id="elem_UC3"><ellipse cx="743.1723" cy="207.5345" fill="#F1F1F1" rx="113.1723" ry="25.0345" style="stroke:#181818;stroke-width:0.5;"/><text fill="#000000" font-family="sans-serif" font-size="14" lengthAdjust="spacing" textLength="194" x="646.1723" y="210.388">UC3 - To register an employee</text></g><!--entity SystemAdministrator--><g id="elem_SystemAdministrator"><ellipse cx="865" cy="49.5" fill="#F1F1F1" rx="8" ry="8" style="stroke:#181818;stroke-width:0.5;"/><path d="M865,57.5 L865,84.5 M852,65.5 L878,65.5 M865,84.5 L852,99.5 M865,84.5 L878,99.5 " fill="none" style="stroke:#181818;stroke-width:0.5;"/><text fill="#000000" font-family="sans-serif" font-size="14" lengthAdjust="spacing" textLength="129" x="800.5" y="113.6738">SystemAdministrator</text></g><g id="elem_UC5"><ellipse cx="987.1084" cy="207.6217" fill="#F1F1F1" rx="96.1084" ry="21.6217" style="stroke:#181818;stroke-width:0.5;"/><text fill="#000000" font-family="sans-serif" font-size="14" lengthAdjust="spacing" textLength="157" x="908.6084" y="210.4752">UC5 - To register a store</text></g><g id="elem_UC2"><ellipse cx="466.8098" cy="207.362" fill="#F1F1F1" rx="127.3098" ry="27.862" style="stroke:#181818;stroke-width:0.5;"/><text fill="#000000" font-family="sans-serif" font-size="14" lengthAdjust="spacing" textLength="224" x="354.8098" y="210.2155">UC2 - To publish an announcement</text></g><!--entity Agent--><g id="elem_Agent"><ellipse cx="467" cy="49.5" fill="#F1F1F1" rx="8" ry="8" style="stroke:#181818;stroke-width:0.5;"/><path d="M467,57.5 L467,84.5 M454,65.5 L480,65.5 M467,84.5 L454,99.5 M467,84.5 L480,99.5 " fill="none" style="stroke:#181818;stroke-width:0.5;"/><text fill="#000000" font-family="sans-serif" font-size="14" lengthAdjust="spacing" textLength="37" x="448.5" y="113.6738">Agent</text></g><g id="elem_UC1"><ellipse cx="163.9217" cy="207.4843" fill="#F1F1F1" rx="140.4217" ry="30.4843" style="stroke:#181818;stroke-width:0.5;"/><text fill="#000000" font-family="sans-serif" font-size="14" lengthAdjust="spacing" textLength="210" x="56.9217" y="202.5175">UC1 - To display listed properties</text><text fill="#000000" font-family="sans-serif" font-size="14" lengthAdjust="spacing" textLength="122" x="102.9217" y="218.1582">(unregistered user)</text></g><!--entity UnregisteredUser--><g id="elem_UnregisteredUser"><ellipse cx="164" cy="49.5" fill="#F1F1F1" rx="8" ry="8" style="stroke:#181818;stroke-width:0.5;"/><path d="M164,57.5 L164,84.5 M151,65.5 L177,65.5 M164,84.5 L151,99.5 M164,84.5 L177,99.5 " fill="none" style="stroke:#181818;stroke-width:0.5;"/><text fill="#000000" font-family="sans-serif" font-size="14" lengthAdjust="spacing" textLength="110" x="109" y="113.6738">UnregisteredUser</text></g><!--link Owner to UC4--><g id="link_Owner_UC4"><path d="M1218,117.27 C1218,137.22 1218,161.33 1218,179.47 " fill="none" id="Owner-to-UC4" style="stroke:#181818;stroke-width:1.0;"/><polygon fill="#181818" points="1218,184.89,1222,175.89,1218,179.89,1214,175.89,1218,184.89" style="stroke:#181818;stroke-width:1.0;"/></g><!--link SystemAdministrator to UC3--><g id="link_SystemAdministrator_UC3"><path d="M829.06,117.27 C810.11,136.92 787.25,160.62 769.86,178.65 " fill="none" id="SystemAdministrator-to-UC3" style="stroke:#181818;stroke-width:1.0;"/><polygon fill="#181818" points="766.01,182.64,775.1366,178.9379,769.4807,179.0408,769.3778,173.3849,766.01,182.64" style="stroke:#181818;stroke-width:1.0;"/></g><!--link SystemAdministrator to UC5--><g id="link_SystemAdministrator_UC5"><path d="M900.94,117.27 C921.2,138.27 945.92,163.9 963.66,182.3 " fill="none" id="SystemAdministrator-to-UC5" style="stroke:#181818;stroke-width:1.0;"/><polygon fill="#181818" points="967.56,186.34,964.1922,177.0849,964.0893,182.7408,958.4334,182.6379,967.56,186.34" style="stroke:#181818;stroke-width:1.0;"/></g><!--link Agent to UC2--><g id="link_Agent_UC2"><path d="M467,117.27 C467,135.23 467,156.58 467,173.89 " fill="none" id="Agent-to-UC2" style="stroke:#181818;stroke-width:1.0;"/><polygon fill="#181818" points="467,179.13,471,170.13,467,174.13,463,170.13,467,179.13" style="stroke:#181818;stroke-width:1.0;"/></g><!--link UnregisteredUser to UC1--><g id="link_UnregisteredUser_UC1"><path d="M164,117.27 C164,134.44 164,154.71 164,171.58 " fill="none" id="UnregisteredUser-to-UC1" style="stroke:#181818;stroke-width:1.0;"/><polygon fill="#181818" points="164,176.7,168,167.7,164,171.7,160,167.7,164,176.7" style="stroke:#181818;stroke-width:1.0;"/></g><!--SRC=[XP4_Ry8m4CLtVueJ2-t009Ir4eNE7IXRboEv9XQnpxKleb7LxzxBFq1Pwi6I_TxxtRCyJsVh0qPquDXpLaPs119hCZSbO7R6WWxIL0IHCa5VL6JcDqSgCUUBzGLyOfN8t8Ml_Xy3kbuuvXHtN764Isc5pAynSx6Yw6CYsA5kUuj5cttzHXTqaX4E80md5c47kMsXbhqnLphCndIQ0IQe4sNjePywdDIqUu85l3Ea-kIi06g_hvgIT25LE_lRnLE4nUBvUdC7MFU0I8LDeZRqGDgI6w81ikuYXqPbjysTzMgCA3mYrrFaPeg4fEuHj_a7jvdYLZqkrAVAfh8jYDvpxJDovCUNhhhKjj2RWREQSfOz9xSfLDX0rPRB8KGE5CLIWW__KFknjKgQZOy3VzdHZdUoVj1OkHVrv_y0]--></g></svg>