<?xml version="1.0" encoding="us-ascii" standalone="no"?><svg xmlns="http://www.w3.org/2000/svg" xmlns:xlink="http://www.w3.org/1999/xlink" contentStyleType="text/css" height="311px" preserveAspectRatio="none" style="width:4460px;height:311px;background:#FFFFFF;" version="1.1" viewBox="0 0 4460 311" width="4460px" zoomAndPan="magnify"><defs/><g><!--cluster usecases--><g id="cluster_usecases"><rect fill="none" height="298" rx="2.5" ry="2.5" style="stroke:#FFFFFF;stroke-width:1.0;" width="4447" x="7" y="7"/><text fill="#000000" font-family="sans-serif" font-size="14" font-weight="bold" lengthAdjust="spacing" textLength="74" x="2193.5" y="21.6738">Use Cases</text></g><g id="elem_UC20"><ellipse cx="3613.0298" cy="233.206" fill="#F1F1F1" rx="174.0298" ry="37.206" style="stroke:#181818;stroke-width:0.5;"/><text fill="#000000" font-family="sans-serif" font-size="14" lengthAdjust="spacing" textLength="321" x="3452.5298" y="236.0595">UC20 - To accept or reject an appointment request</text></g><!--entity Client--><g id="elem_Client"><ellipse cx="3997" cy="49.5" fill="#F1F1F1" rx="8" ry="8" style="stroke:#181818;stroke-width:0.5;"/><path d="M3997,57.5 L3997,84.5 M3984,65.5 L4010,65.5 M3997,84.5 L3984,99.5 M3997,84.5 L4010,99.5 " fill="none" style="stroke:#181818;stroke-width:0.5;"/><text fill="#000000" font-family="sans-serif" font-size="14" lengthAdjust="spacing" textLength="36" x="3979" y="113.6738">Client</text></g><g id="elem_UC13"><ellipse cx="215.0979" cy="233.2196" fill="#F1F1F1" rx="191.5979" ry="40.7196" style="stroke:#181818;stroke-width:0.5;"/><text fill="#000000" font-family="sans-serif" font-size="14" lengthAdjust="spacing" textLength="357" x="36.5979" y="236.0731">UC13 To list all employes working on the current network</text></g><g id="elem_UC12"><ellipse cx="2743.0564" cy="233.0113" fill="#F1F1F1" rx="173.0564" ry="37.0113" style="stroke:#181818;stroke-width:0.5;"/><text fill="#000000" font-family="sans-serif" font-size="14" lengthAdjust="spacing" textLength="319" x="2583.5564" y="235.8648">UC12 - To import information from a legacy system</text></g><!--entity SystemAdministrator--><g id="elem_SystemAdministrator"><ellipse cx="3064" cy="49.5" fill="#F1F1F1" rx="8" ry="8" style="stroke:#181818;stroke-width:0.5;"/><path d="M3064,57.5 L3064,84.5 M3051,65.5 L3077,65.5 M3064,84.5 L3051,99.5 M3064,84.5 L3077,99.5 " fill="none" style="stroke:#181818;stroke-width:0.5;"/><text fill="#000000" font-family="sans-serif" font-size="14" lengthAdjust="spacing" textLength="129" x="2999.5" y="113.6738">SystemAdministrator</text></g><g id="elem_UC11"><ellipse cx="1557.8107" cy="232.9621" fill="#F1F1F1" rx="267.8107" ry="55.9621" style="stroke:#181818;stroke-width:0.5;"/><text fill="#000000" font-family="sans-serif" font-size="14" lengthAdjust="spacing" textLength="490" x="1310.8107" y="227.9954">UC11 - To list and decide (whether to accept or decline)  real estate purchase</text><text fill="#000000" font-family="sans-serif" font-size="14" lengthAdjust="spacing" textLength="376" x="1369.8107" y="243.636">and to send an email to the customer in case of acceptance</text></g><g id="elem_UC10"><ellipse cx="3996.8826" cy="232.7765" fill="#F1F1F1" rx="174.3826" ry="37.2765" style="stroke:#181818;stroke-width:0.5;"/><text fill="#000000" font-family="sans-serif" font-size="14" lengthAdjust="spacing" textLength="289" x="3850.3826" y="227.8097">UC10 - To place and submit a purchase order</text><text fill="#000000" font-family="sans-serif" font-size="14" lengthAdjust="spacing" textLength="186" x="3905.8826" y="243.4503">(with the respective amoount)</text></g><g id="elem_UC9"><ellipse cx="4322.013" cy="233.0026" fill="#F1F1F1" rx="115.513" ry="25.5026" style="stroke:#181818;stroke-width:0.5;"/><text fill="#000000" font-family="sans-serif" font-size="14" lengthAdjust="spacing" textLength="199" x="4222.513" y="235.8561">UC9 To request a visit to a land</text></g><g id="elem_UC8"><ellipse cx="2053.0979" cy="233.2196" fill="#F1F1F1" rx="191.5979" ry="40.7196" style="stroke:#181818;stroke-width:0.5;"/><text fill="#000000" font-family="sans-serif" font-size="14" lengthAdjust="spacing" textLength="357" x="1874.5979" y="236.0731">UC8 - To select a request and publish an announcement</text></g><!--entity Agent--><g id="elem_Agent"><ellipse cx="2053" cy="49.5" fill="#F1F1F1" rx="8" ry="8" style="stroke:#181818;stroke-width:0.5;"/><path d="M2053,57.5 L2053,84.5 M2040,65.5 L2066,65.5 M2053,84.5 L2040,99.5 M2053,84.5 L2066,99.5 " fill="none" style="stroke:#181818;stroke-width:0.5;"/><text fill="#000000" font-family="sans-serif" font-size="14" lengthAdjust="spacing" textLength="37" x="2034.5" y="113.6738">Agent</text></g><g id="elem_UC4"><ellipse cx="1155.2108" cy="232.9422" fill="#F1F1F1" rx="100.2108" ry="22.4422" style="stroke:#181818;stroke-width:0.5;"/><text fill="#000000" font-family="sans-serif" font-size="14" lengthAdjust="spacing" textLength="166" x="1072.2108" y="235.7957">UC4 - To submit a request</text></g><!--entity Owner--><g id="elem_Owner"><ellipse cx="1155" cy="49.5" fill="#F1F1F1" rx="8" ry="8" style="stroke:#181818;stroke-width:0.5;"/><path d="M1155,57.5 L1155,84.5 M1142,65.5 L1168,65.5 M1155,84.5 L1142,99.5 M1155,84.5 L1168,99.5 " fill="none" style="stroke:#181818;stroke-width:0.5;"/><text fill="#000000" font-family="sans-serif" font-size="14" lengthAdjust="spacing" textLength="41" x="1134.5" y="113.6738">Owner</text></g><g id="elem_UC3"><ellipse cx="3064.1723" cy="233.0345" fill="#F1F1F1" rx="113.1723" ry="25.0345" style="stroke:#181818;stroke-width:0.5;"/><text fill="#000000" font-family="sans-serif" font-size="14" lengthAdjust="spacing" textLength="194" x="2967.1723" y="235.888">UC3 - To register an employee</text></g><g id="elem_UC5"><ellipse cx="3308.1084" cy="233.1217" fill="#F1F1F1" rx="96.1084" ry="21.6217" style="stroke:#181818;stroke-width:0.5;"/><text fill="#000000" font-family="sans-serif" font-size="14" lengthAdjust="spacing" textLength="157" x="3229.6084" y="235.9752">UC5 - To register a store</text></g><g id="elem_UC2"><ellipse cx="2406.8098" cy="232.862" fill="#F1F1F1" rx="127.3098" ry="27.862" style="stroke:#181818;stroke-width:0.5;"/><text fill="#000000" font-family="sans-serif" font-size="14" lengthAdjust="spacing" textLength="224" x="2294.8098" y="235.7155">UC2 - To publish an announcement</text></g><g id="elem_UC1"><ellipse cx="562.1857" cy="233.0371" fill="#F1F1F1" rx="120.6857" ry="26.5371" style="stroke:#181818;stroke-width:0.5;"/><text fill="#000000" font-family="sans-serif" font-size="14" lengthAdjust="spacing" textLength="210" x="457.1857" y="235.8907">UC1 - To display listed properties</text></g><!--entity UnregisteredUser--><g id="elem_UnregisteredUser"><ellipse cx="715" cy="49.5" fill="#F1F1F1" rx="8" ry="8" style="stroke:#181818;stroke-width:0.5;"/><path d="M715,57.5 L715,84.5 M702,65.5 L728,65.5 M715,84.5 L702,99.5 M715,84.5 L728,99.5 " fill="none" style="stroke:#181818;stroke-width:0.5;"/><text fill="#000000" font-family="sans-serif" font-size="14" lengthAdjust="spacing" textLength="110" x="660" y="113.6738">UnregisteredUser</text></g><g id="elem_UC7"><ellipse cx="868.7673" cy="233.0535" fill="#F1F1F1" rx="150.7673" ry="32.5535" style="stroke:#181818;stroke-width:0.5;"/><text fill="#000000" font-family="sans-serif" font-size="14" lengthAdjust="spacing" textLength="273" x="732.2673" y="235.907">UC7 -  To register a new user in the system</text></g><!--entity NetworkManager--><g id="elem_NetworkManager"><ellipse cx="215" cy="49.5" fill="#F1F1F1" rx="8" ry="8" style="stroke:#181818;stroke-width:0.5;"/><path d="M215,57.5 L215,84.5 M202,65.5 L228,65.5 M215,84.5 L202,99.5 M215,84.5 L228,99.5 " fill="none" style="stroke:#181818;stroke-width:0.5;"/><text fill="#000000" font-family="sans-serif" font-size="14" lengthAdjust="spacing" textLength="106" x="162" y="113.6738">NetworkManager</text></g><!--link Client to UC20--><g id="link_Client_UC20"><path d="M3978.99,87.13 C3929.76,106.62 3790.44,161.76 3698.6,198.12 " fill="none" id="Client-to-UC20" style="stroke:#181818;stroke-width:1.0;"/><polygon fill="#181818" points="3693.71,200.05,3703.5504,200.4579,3698.3592,198.2103,3700.6068,193.0191,3693.71,200.05" style="stroke:#181818;stroke-width:1.0;"/></g><!--link SystemAdministrator to UC12--><g id="link_SystemAdministrator_UC12"><path d="M2999.43,110.58 C2946.72,135.54 2872.2,170.82 2817.08,196.92 " fill="none" id="SystemAdministrator-to-UC12" style="stroke:#181818;stroke-width:1.0;"/><polygon fill="#181818" points="2812.47,199.1,2822.3158,198.8541,2816.9869,196.9559,2818.8852,191.627,2812.47,199.1" style="stroke:#181818;stroke-width:1.0;"/></g><!--link Agent to UC8--><g id="link_Agent_UC8"><path d="M2053,117.18 C2053,138.26 2053,164.77 2053,187.01 " fill="none" id="Agent-to-UC8" style="stroke:#181818;stroke-width:1.0;"/><polygon fill="#181818" points="2053,192.28,2057,183.28,2053,187.28,2049,183.28,2053,192.28" style="stroke:#181818;stroke-width:1.0;"/></g><!--link Owner to UC4--><g id="link_Owner_UC4"><path d="M1155,117.18 C1155,144.42 1155,180.76 1155,205.2 " fill="none" id="Owner-to-UC4" style="stroke:#181818;stroke-width:1.0;"/><polygon fill="#181818" points="1155,210.22,1159,201.22,1155,205.22,1151,201.22,1155,210.22" style="stroke:#181818;stroke-width:1.0;"/></g><!--link SystemAdministrator to UC3--><g id="link_SystemAdministrator_UC3"><path d="M3064,117.18 C3064,143.6 3064,178.58 3064,202.96 " fill="none" id="SystemAdministrator-to-UC3" style="stroke:#181818;stroke-width:1.0;"/><polygon fill="#181818" points="3064,207.99,3068,198.99,3064,202.99,3060,198.99,3064,207.99" style="stroke:#181818;stroke-width:1.0;"/></g><!--link SystemAdministrator to UC5--><g id="link_SystemAdministrator_UC5"><path d="M3123.69,117.18 C3170.19,146.15 3233.2,185.41 3272.2,209.7 " fill="none" id="SystemAdministrator-to-UC5" style="stroke:#181818;stroke-width:1.0;"/><polygon fill="#181818" points="3276.83,212.58,3271.3057,204.4264,3272.586,209.9364,3267.0759,211.2168,3276.83,212.58" style="stroke:#181818;stroke-width:1.0;"/></g><!--link Agent to UC2--><g id="link_Agent_UC2"><path d="M2071.53,87.96 C2122.03,109.64 2263.72,170.48 2345.91,205.77 " fill="none" id="Agent-to-UC2" style="stroke:#181818;stroke-width:1.0;"/><polygon fill="#181818" points="2350.75,207.85,2344.0615,200.6206,2346.1565,205.8752,2340.9019,207.9702,2350.75,207.85" style="stroke:#181818;stroke-width:1.0;"/></g><!--link UnregisteredUser to UC1--><g id="link_UnregisteredUser_UC1"><path d="M677.57,117.18 C650.87,143.71 615.48,178.87 590.93,203.26 " fill="none" id="UnregisteredUser-to-UC1" style="stroke:#181818;stroke-width:1.0;"/><polygon fill="#181818" points="587.09,207.08,596.2895,203.563,590.6327,203.5516,590.6441,197.8948,587.09,207.08" style="stroke:#181818;stroke-width:1.0;"/></g><!--link UnregisteredUser to UC7--><g id="link_UnregisteredUser_UC7"><path d="M752.67,117.18 C777.44,141.63 809.62,173.39 833.86,197.32 " fill="none" id="UnregisteredUser-to-UC7" style="stroke:#181818;stroke-width:1.0;"/><polygon fill="#181818" points="837.68,201.09,834.0888,191.9192,834.1231,197.576,828.4664,197.6102,837.68,201.09" style="stroke:#181818;stroke-width:1.0;"/></g><!--link Agent to UC11--><g id="link_Agent_UC11"><path d="M2034.5,85.68 C1982.31,101.71 1830,148.48 1711.48,184.87 " fill="none" id="Agent-to-UC11" style="stroke:#181818;stroke-width:1.0;"/><polygon fill="#181818" points="1706.57,186.38,1716.3491,187.5502,1711.348,184.9066,1713.9916,179.9054,1706.57,186.38" style="stroke:#181818;stroke-width:1.0;"/></g><!--link Client to UC10--><g id="link_Client_UC10"><path d="M3997,117.18 C3997,139.33 3997,167.48 3997,190.37 " fill="none" id="Client-to-UC10" style="stroke:#181818;stroke-width:1.0;"/><polygon fill="#181818" points="3997,195.46,4001,186.46,3997,190.46,3993,186.46,3997,195.46" style="stroke:#181818;stroke-width:1.0;"/></g><!--link Client to UC9--><g id="link_Client_UC9"><path d="M4015.4,88.61 C4063.69,111.19 4195.39,172.79 4269.52,207.45 " fill="none" id="Client-to-UC9" style="stroke:#181818;stroke-width:1.0;"/><polygon fill="#181818" points="4274.31,209.7,4267.8664,202.2515,4269.7849,207.5731,4264.4633,209.4916,4274.31,209.7" style="stroke:#181818;stroke-width:1.0;"/></g><!--link NetworkManager to UC13--><g id="link_NetworkManager_UC13"><path d="M215,117.18 C215,138.26 215,164.77 215,187.01 " fill="none" id="NetworkManager-to-UC13" style="stroke:#181818;stroke-width:1.0;"/><polygon fill="#181818" points="215,192.28,219,183.28,215,187.28,211,183.28,215,192.28" style="stroke:#181818;stroke-width:1.0;"/></g><!--SRC=[ZPKxRzim481t_ef3bZH3WCXAa7WfaBeTsmvfjYuNwIonuKCbgRX6qV_U8qN9bXz5ETWGx-xZFSbB_ofDXmurQ6jirJgh2OBhIUma7LQlsD1Js2e2HrL0qoWIbpiDts9jDz8qi4RbIUmPJ_g_1V3wO5rDRcMLTR1fPI3nHuZB80EZdpt12lddeyGcsdxwXRhZaqIm7GGBBpO4gw6M4Igj4MAYmyLexIy0FVIUglWnd9g_M6crk85h-6O1gugw0Eo6enzC0JI0NMUb2PfCuDsVFVcGOCagWLPAHk7rzVkqUGWlognVb4UYnN2kr9rr0QHPMwSnHW5hJZeWA6gmseBV-a1wv2mIvodjFTPQ6kc3ms3Tu4AMxvzJZAR5aUXc51qvlioIvQ7W8GiUZWH3E9vKIjwOBqvZ3Lt_egHlKqgDiRsfAEPqXdfiU6S8ueXzczdzYvPxx6n_czJZ-henv78nThjxe780EMeuRQpA3X5tbDqIPLWvcPt8SKQNfz1tXsZmR35Yx_u3UtSAcxlatnbSJ9OfYsCxdk8L0w-MlbEu1HMTvG8vsv4BCWyBgqsspsOCYMeUgT7PuXJydk47IJ2qYHgE6nn2I_DklfyWPy-v5pkTMLSFSKJ_KulLLCcQuDsc9Jx6nTjXDz4iLDBG5R1dg81R1mDnJbtLHjvt4maXDY__fvv0gU96zBZgkP1wY20TRzSPZLo5-N31h0uvKuMOosOJcCkhiA8KnzJZatVfWcGVEJOPskII8z_56- -DRRJbRWXNyqcUrkn-Ok5PJvP3tVBCmflqx4LC8YXsQtORd8OlpmTPxYgbr3Xm7ZRMlSOdmfgSP-SYpb28ald5EQqlW_Gp6dw1fcOi1I_Wb-Cl]--></g></svg>