<?xml version="1.0" encoding="us-ascii" standalone="no"?><svg xmlns="http://www.w3.org/2000/svg" xmlns:xlink="http://www.w3.org/1999/xlink" contentStyleType="text/css" height="449px" preserveAspectRatio="none" style="width:390px;height:449px;background:#FFFFFF;" version="1.1" viewBox="0 0 390 449" width="390px" zoomAndPan="magnify"><defs/><g><text fill="#000000" font-family="sans-serif" font-size="14" font-weight="bold" lengthAdjust="spacing" textLength="228" x="82.5" y="27.6738">System Sequence Diagram (SSD)</text><rect fill="#FFFFFF" height="233.1875" style="stroke:#181818;stroke-width:1.0;" width="10" x="101" y="127.2813"/><rect fill="#FFFFFF" height="28.5234" style="stroke:#181818;stroke-width:1.0;" width="10" x="327" y="147.8047"/><rect fill="#FFFFFF" height="28.5234" style="stroke:#181818;stroke-width:1.0;" width="10" x="327" y="251.8984"/><rect fill="#FFFFFF" height="28.5234" style="stroke:#181818;stroke-width:1.0;" width="10" x="327" y="308.9453"/><rect fill="none" height="161.1406" style="stroke:#000000;stroke-width:1.5;" width="374" x="10" y="191.3281"/><rect fill="none" height="130.6172" style="stroke:#000000;stroke-width:1.5;" width="354" x="20" y="214.8516"/><line style="stroke:#181818;stroke-width:0.5;stroke-dasharray:5.0,5.0;" x1="106" x2="106" y1="117.2813" y2="369.4688"/><line style="stroke:#181818;stroke-width:0.5;stroke-dasharray:5.0,5.0;" x1="332" x2="332" y1="117.2813" y2="369.4688"/><text fill="#000000" font-family="sans-serif" font-size="14" lengthAdjust="spacing" textLength="146" x="30" y="114.3145">Organization Employee</text><ellipse cx="106" cy="50.1406" fill="#E3E3E3" rx="8" ry="8" style="stroke:#181818;stroke-width:0.5;"/><path d="M106,58.1406 L106,85.1406 M93,66.1406 L119,66.1406 M106,85.1406 L93,100.1406 M106,85.1406 L119,100.1406 " fill="none" style="stroke:#181818;stroke-width:0.5;"/><text fill="#000000" font-family="sans-serif" font-size="14" lengthAdjust="spacing" textLength="146" x="30" y="381.1426">Organization Employee</text><ellipse cx="106" cy="392.6094" fill="#E3E3E3" rx="8" ry="8" style="stroke:#181818;stroke-width:0.5;"/><path d="M106,400.6094 L106,427.6094 M93,408.6094 L119,408.6094 M106,427.6094 L93,442.6094 M106,427.6094 L119,442.6094 " fill="none" style="stroke:#181818;stroke-width:0.5;"/><rect fill="#E3E3E3" height="29.6406" rx="2.5" ry="2.5" style="stroke:#181818;stroke-width:0.5;" width="64" x="300" y="86.6406"/><text fill="#000000" font-family="sans-serif" font-size="14" lengthAdjust="spacing" textLength="50" x="307" y="106.3145">:System</text><rect fill="#E3E3E3" height="29.6406" rx="2.5" ry="2.5" style="stroke:#181818;stroke-width:0.5;" width="64" x="300" y="368.4688"/><text fill="#000000" font-family="sans-serif" font-size="14" lengthAdjust="spacing" textLength="50" x="307" y="388.1426">:System</text><rect fill="#FFFFFF" height="233.1875" style="stroke:#181818;stroke-width:1.0;" width="10" x="101" y="127.2813"/><rect fill="#FFFFFF" height="28.5234" style="stroke:#181818;stroke-width:1.0;" width="10" x="327" y="147.8047"/><rect fill="#FFFFFF" height="28.5234" style="stroke:#181818;stroke-width:1.0;" width="10" x="327" y="251.8984"/><rect fill="#FFFFFF" height="28.5234" style="stroke:#181818;stroke-width:1.0;" width="10" x="327" y="308.9453"/><polygon fill="#181818" points="315,143.8047,325,147.8047,315,151.8047,319,147.8047" style="stroke:#181818;stroke-width:1.0;"/><line style="stroke:#181818;stroke-width:1.0;" x1="111" x2="321" y1="147.8047" y2="147.8047"/><text fill="#000000" font-family="sans-serif" font-size="13" font-weight="bold" lengthAdjust="spacing" textLength="7" x="118" y="143.0498">1</text><text fill="#000000" font-family="sans-serif" font-size="13" lengthAdjust="spacing" textLength="186" x="129" y="143.0498">asks to see the booking request</text><polygon fill="#181818" points="122,172.3281,112,176.3281,122,180.3281,118,176.3281" style="stroke:#181818;stroke-width:1.0;"/><line style="stroke:#181818;stroke-width:1.0;stroke-dasharray:2.0,2.0;" x1="116" x2="331" y1="176.3281" y2="176.3281"/><text fill="#000000" font-family="sans-serif" font-size="13" font-weight="bold" lengthAdjust="spacing" textLength="7" x="128" y="171.5732">2</text><text fill="#000000" font-family="sans-serif" font-size="13" lengthAdjust="spacing" textLength="155" x="139" y="171.5732">shows the booking request</text><path d="M10,191.3281 L75,191.3281 L75,197.8516 L65,207.8516 L10,207.8516 L10,191.3281 " fill="#EEEEEE" style="stroke:#000000;stroke-width:1.5;"/><rect fill="none" height="161.1406" style="stroke:#000000;stroke-width:1.5;" width="374" x="10" y="191.3281"/><text fill="#000000" font-family="sans-serif" font-size="13" font-weight="bold" lengthAdjust="spacing" textLength="20" x="25" y="204.0967">opt</text><text fill="#000000" font-family="sans-serif" font-size="11" font-weight="bold" lengthAdjust="spacing" textLength="228" x="90" y="203.2861">[want to responde to scheduled request]</text><path d="M20,214.8516 L93,214.8516 L93,221.375 L83,231.375 L20,231.375 L20,214.8516 " fill="#EEEEEE" style="stroke:#000000;stroke-width:1.5;"/><rect fill="none" height="130.6172" style="stroke:#000000;stroke-width:1.5;" width="354" x="20" y="214.8516"/><text fill="#000000" font-family="sans-serif" font-size="13" font-weight="bold" lengthAdjust="spacing" textLength="28" x="35" y="227.6201">loop</text><text fill="#000000" font-family="sans-serif" font-size="11" font-weight="bold" lengthAdjust="spacing" textLength="228" x="108" y="226.8096">[want to responde to scheduled request]</text><polygon fill="#181818" points="315,247.8984,325,251.8984,315,255.8984,319,251.8984" style="stroke:#181818;stroke-width:1.0;"/><line style="stroke:#181818;stroke-width:1.0;" x1="111" x2="321" y1="251.8984" y2="251.8984"/><text fill="#000000" font-family="sans-serif" font-size="13" font-weight="bold" lengthAdjust="spacing" textLength="7" x="118" y="247.1436">3</text><text fill="#000000" font-family="sans-serif" font-size="13" lengthAdjust="spacing" textLength="143" x="129" y="247.1436">selects the email service</text><polygon fill="#181818" points="122,276.4219,112,280.4219,122,284.4219,118,280.4219" style="stroke:#181818;stroke-width:1.0;"/><line style="stroke:#181818;stroke-width:1.0;stroke-dasharray:2.0,2.0;" x1="116" x2="331" y1="280.4219" y2="280.4219"/><text fill="#000000" font-family="sans-serif" font-size="13" font-weight="bold" lengthAdjust="spacing" textLength="7" x="128" y="275.667">4</text><text fill="#000000" font-family="sans-serif" font-size="13" lengthAdjust="spacing" textLength="144" x="139" y="275.667">enter in the email service</text><polygon fill="#181818" points="315,304.9453,325,308.9453,315,312.9453,319,308.9453" style="stroke:#181818;stroke-width:1.0;"/><line style="stroke:#181818;stroke-width:1.0;" x1="111" x2="321" y1="308.9453" y2="308.9453"/><text fill="#000000" font-family="sans-serif" font-size="13" font-weight="bold" lengthAdjust="spacing" textLength="7" x="118" y="304.1904">5</text><text fill="#000000" font-family="sans-serif" font-size="13" lengthAdjust="spacing" textLength="172" x="129" y="304.1904">write the response to the user</text><polygon fill="#181818" points="122,333.4688,112,337.4688,122,341.4688,118,337.4688" style="stroke:#181818;stroke-width:1.0;"/><line style="stroke:#181818;stroke-width:1.0;stroke-dasharray:2.0,2.0;" x1="116" x2="331" y1="337.4688" y2="337.4688"/><text fill="#000000" font-family="sans-serif" font-size="13" font-weight="bold" lengthAdjust="spacing" textLength="7" x="128" y="332.7139">6</text><text fill="#000000" font-family="sans-serif" font-size="13" lengthAdjust="spacing" textLength="107" x="139" y="332.7139">send the response</text><!--SRC=[dP4nKiGm34LxdqAJ2egzG8gjbfeY9z0w8l74beojR6OvFKwo6s0WCu0BZ-LyFVqVvy5nn8G1Wh3OFaaWq3IIoTkNY7R0ZXgzUe94Lf4x_rcGUsnbSjp12_fCngZJ8cskMIb0GwyZiIKuEUnc-KFJd1wDmL65nt2cLCvM9K7rd3fazuRgXE4fH2zNeWemRuKf4zLP5v4LgdeTiIZMuu9o5rJwQ35Grhs2m_5kh2vjGmOLoELUUuApo337IBFbh4lZnhiFWDkwKGu5kC7hyYzaohkmbhxX92fCSvhY8r6EmYqjdcnFxUYftG1U9FvIkfiuaoyFk1gaWCwNctHnbhPOVynBh9J0yGxnXy2xtgRaT7s7DLnUmitrM93_UWpYzWjmrrCHhjix]--></g></svg>