<?xml version="1.0" encoding="us-ascii" standalone="no"?><svg xmlns="http://www.w3.org/2000/svg" xmlns:xlink="http://www.w3.org/1999/xlink" contentStyleType="text/css" height="391px" preserveAspectRatio="none" style="width:353px;height:391px;background:#FFFFFF;" version="1.1" viewBox="0 0 353 391" width="353px" zoomAndPan="magnify"><defs/><g><!--class Agent--><g id="elem_Agent"><rect codeLine="18" fill="#F1F1F1" height="33.6406" id="Agent" rx="2.5" ry="2.5" style="stroke:#181818;stroke-width:0.5;" width="43" x="92" y="163.5"/><text fill="#000000" font-family="sans-serif" font-size="14" lengthAdjust="spacing" textLength="37" x="95" y="181.1738">Agent</text><line style="stroke:#181818;stroke-width:0.5;" x1="93" x2="134" y1="189.1406" y2="189.1406"/></g><!--class Owner--><g id="elem_Owner"><rect codeLine="21" fill="#F1F1F1" height="33.6406" id="Owner" rx="2.5" ry="2.5" style="stroke:#181818;stroke-width:0.5;" width="47" x="162" y="7"/><text fill="#000000" font-family="sans-serif" font-size="14" lengthAdjust="spacing" textLength="41" x="165" y="24.6738">Owner</text><line style="stroke:#181818;stroke-width:0.5;" x1="163" x2="208" y1="32.6406" y2="32.6406"/></g><!--class Property--><g id="elem_Property"><rect codeLine="24" fill="#F1F1F1" height="127.4844" id="Property" rx="2.5" ry="2.5" style="stroke:#181818;stroke-width:0.5;" width="176" x="170.5" y="117"/><text fill="#000000" font-family="sans-serif" font-size="14" lengthAdjust="spacing" textLength="54" x="231.5" y="134.6738">Property</text><line style="stroke:#181818;stroke-width:0.5;" x1="171.5" x2="345.5" y1="142.6406" y2="142.6406"/><text fill="#000000" font-family="sans-serif" font-size="14" lengthAdjust="spacing" textLength="27" x="176.5" y="159.3145">type</text><text fill="#000000" font-family="sans-serif" font-size="14" lengthAdjust="spacing" textLength="49" x="176.5" y="174.9551">location</text><text fill="#000000" font-family="sans-serif" font-size="14" lengthAdjust="spacing" textLength="29" x="176.5" y="190.5957">area</text><text fill="#000000" font-family="sans-serif" font-size="14" lengthAdjust="spacing" textLength="164" x="176.5" y="206.2363">amount_of_sun_exposure</text><text fill="#000000" font-family="sans-serif" font-size="14" lengthAdjust="spacing" textLength="139" x="176.5" y="221.877">number_of_bedrooms</text><text fill="#000000" font-family="sans-serif" font-size="14" lengthAdjust="spacing" textLength="143" x="176.5" y="237.5176">number_of_bathrooms</text></g><!--class Announcement--><g id="elem_Announcement"><rect codeLine="33" fill="#F1F1F1" height="64.9219" id="Announcement" rx="2.5" ry="2.5" style="stroke:#181818;stroke-width:0.5;" width="101" x="7" y="320"/><text fill="#000000" font-family="sans-serif" font-size="14" lengthAdjust="spacing" textLength="95" x="10" y="337.6738">Announcement</text><line style="stroke:#181818;stroke-width:0.5;" x1="8" x2="107" y1="345.6406" y2="345.6406"/><text fill="#000000" font-family="sans-serif" font-size="14" lengthAdjust="spacing" textLength="69" x="13" y="362.3145">description</text><text fill="#000000" font-family="sans-serif" font-size="14" lengthAdjust="spacing" textLength="62" x="13" y="377.9551">comission</text></g><!--class Agency--><g id="elem_Agency"><rect fill="#F1F1F1" height="33.6406" id="Agency" rx="2.5" ry="2.5" style="stroke:#181818;stroke-width:0.5;" width="53" x="143" y="335.5"/><text fill="#000000" font-family="sans-serif" font-size="14" lengthAdjust="spacing" textLength="47" x="146" y="353.1738">Agency</text><line style="stroke:#181818;stroke-width:0.5;" x1="144" x2="195" y1="361.1406" y2="361.1406"/></g><!--link Owner to Agent--><g id="link_Owner_Agent"><path codeLine="38" d="M175.19,41.3 C169.9,49.97 163.54,60.89 158.5,71 C142.59,102.95 127.41,141.92 119.39,163.38 " fill="none" id="Owner-Agent" style="stroke:#181818;stroke-width:1.0;"/><polygon fill="#000000" points="161.4214,83.8092,167.8545,76.8045,162.5086,74.361,161.4214,83.8092" style="stroke:#000000;stroke-width:1.0;"/><text fill="#000000" font-family="sans-serif" font-size="13" lengthAdjust="spacing" textLength="42" x="172.5" y="83.7686">selects</text><text fill="#000000" font-family="sans-serif" font-size="13" lengthAdjust="spacing" textLength="7" x="164.1333" y="60.3363">1</text><text fill="#000000" font-family="sans-serif" font-size="13" lengthAdjust="spacing" textLength="7" x="113.2414" y="152.7131">1</text></g><!--link Owner to Property--><g id="link_Owner_Property"><path codeLine="39" d="M199.34,41.25 C206.06,49.73 213.88,60.49 219.5,71 C227.14,85.3 233.85,101.41 239.46,116.76 " fill="none" id="Owner-Property" style="stroke:#181818;stroke-width:1.0;"/><polygon fill="#000000" points="232.846,83.6772,231.1974,74.3106,226.0067,77.0685,232.846,83.6772" style="stroke:#000000;stroke-width:1.0;"/><text fill="#000000" font-family="sans-serif" font-size="13" lengthAdjust="spacing" textLength="30" x="239.5" y="83.7686">owns</text><text fill="#000000" font-family="sans-serif" font-size="13" lengthAdjust="spacing" textLength="7" x="195.3774" y="60.2717">1</text><text fill="#000000" font-family="sans-serif" font-size="13" lengthAdjust="spacing" textLength="20" x="216.1023" y="106.3515">1..*</text></g><!--link Agent to Announcement--><g id="link_Agent_Announcement"><path codeLine="40" d="M99.72,197.54 C85.7,215.01 64.88,244.42 56.5,274 C52.35,288.63 52.06,305.44 53.03,319.66 " fill="none" id="Agent-Announcement" style="stroke:#181818;stroke-width:1.0;"/><polygon fill="#000000" points="59.7144,286.932,65.6897,279.5329,60.1994,277.4338,59.7144,286.932" style="stroke:#000000;stroke-width:1.0;"/><text fill="#000000" font-family="sans-serif" font-size="13" lengthAdjust="spacing" textLength="55" x="70.5" y="286.7686">publishes</text><text fill="#000000" font-family="sans-serif" font-size="13" lengthAdjust="spacing" textLength="7" x="87.428" y="216.806">1</text><text fill="#000000" font-family="sans-serif" font-size="13" lengthAdjust="spacing" textLength="20" x="30.0456" y="309.2736">1..*</text></g><!--link Agent to Agency--><g id="link_Agent_Agency"><path codeLine="41" d="M118.87,197.8 C129.6,230.38 153.58,303.17 164.23,335.5 " fill="none" id="Agent-Agency" style="stroke:#181818;stroke-width:1.0;"/><polygon fill="#000000" points="155.0644,287.0107,155.0258,277.5002,149.443,279.3392,155.0644,287.0107" style="stroke:#000000;stroke-width:1.0;"/><text fill="#000000" font-family="sans-serif" font-size="13" lengthAdjust="spacing" textLength="52" x="162.5" y="286.7686">works for</text><text fill="#000000" font-family="sans-serif" font-size="13" lengthAdjust="spacing" textLength="20" x="123.3849" y="216.8363">1..*</text><text fill="#000000" font-family="sans-serif" font-size="13" lengthAdjust="spacing" textLength="7" x="154.1057" y="324.8758">1</text></g><!--SRC=[NL71QiCm3BtxAqGlXK7BTkrXKDXbXz52Fw0uZfAOsbQG5B9kxD_dnD2czINIytjFJx5SVEejsmYH4hcEAI8e3sZaTjDRTx4jdlGQ41YTsjI69K4wMzFeKmkD3OB6h0Cs2ah0lkqKQZ-fF2Mp4BbWHVQgxAj1yTDHElaVX5TZEbyZECyk3vdhYDfHBTbNlUOC7nIjJ_15DOOCpavm35ORuWY_PWsmgL4S-twUklupff3sBIRDZ1jm61Fo4ZWozSXwpHZaezSUvoAGixFPr5X6Muf8Gz8pDMSPqXc_UvA1Yo0DiKAUhYgicIZACsorA_WzNahPps4iAIV-Se-fTnIzIEcohkHVlQrWiva_PSCT28RypmNUdodRxSlglkKEQ4mJg-WUMGznTj0FLV3IuP8-ynQZtMGv4by4ycDauZy0]--></g></svg>