<?xml version="1.0" encoding="us-ascii" standalone="no"?><svg xmlns="http://www.w3.org/2000/svg" xmlns:xlink="http://www.w3.org/1999/xlink" contentStyleType="text/css" height="1155px" preserveAspectRatio="none" style="width:574px;height:1155px;background:#FFFFFF;" version="1.1" viewBox="0 0 574 1155" width="574px" zoomAndPan="magnify"><defs/><g><text fill="#000000" font-family="sans-serif" font-size="14" font-weight="bold" lengthAdjust="spacing" textLength="351" x="113.25" y="27.6738">System Sequence Diagram (SSD) - Alternative One</text><rect fill="#FFFFFF" height="939.0859" style="stroke:#181818;stroke-width:1.0;" width="10" x="58.5" y="127.2813"/><rect fill="#FFFFFF" height="28.5234" style="stroke:#181818;stroke-width:1.0;" width="10" x="501.5" y="147.8047"/><rect fill="#FFFFFF" height="28.5234" style="stroke:#181818;stroke-width:1.0;" width="10" x="501.5" y="204.8516"/><rect fill="#FFFFFF" height="28.5234" style="stroke:#181818;stroke-width:1.0;" width="10" x="501.5" y="261.8984"/><rect fill="#FFFFFF" height="192.1875" style="stroke:#181818;stroke-width:1.0;" width="10" x="501.5" y="371.5156"/><rect fill="#FFFFFF" height="28.5234" style="stroke:#181818;stroke-width:1.0;" width="10" x="501.5" y="592.2266"/><rect fill="#FFFFFF" height="28.5234" style="stroke:#181818;stroke-width:1.0;" width="10" x="501.5" y="649.2734"/><rect fill="#FFFFFF" height="49.5234" style="stroke:#181818;stroke-width:1.0;" width="10" x="501.5" y="706.3203"/><rect fill="#FFFFFF" height="80.5703" style="stroke:#181818;stroke-width:1.0;" width="10" x="501.5" y="784.3672"/><rect fill="#FFFFFF" height="42.8125" style="stroke:#181818;stroke-width:1.0;" width="10" x="501.5" y="893.4609"/><rect fill="#FFFFFF" height="35.5234" style="stroke:#181818;stroke-width:1.0;" width="10" x="501.5" y="964.7969"/><rect fill="#FFFFFF" height="28.5234" style="stroke:#181818;stroke-width:1.0;" width="10" x="501.5" y="1028.8438"/><rect fill="none" height="422.8984" style="stroke:#000000;stroke-width:1.5;" width="558.5" x="10" y="305.4219"/><rect fill="none" height="45.0469" style="stroke:#000000;stroke-width:1.5;" width="518.5" x="30" y="386.5156"/><rect fill="none" height="275.7578" style="stroke:#000000;stroke-width:1.5;" width="538.5" x="20" y="445.5625"/><rect fill="none" height="187.6641" style="stroke:#000000;stroke-width:1.5;" width="518.5" x="30" y="526.6563"/><rect fill="none" height="144.9063" style="stroke:#000000;stroke-width:1.5;" width="518.5" x="30" y="827.8906"/><line style="stroke:#181818;stroke-width:0.5;stroke-dasharray:5.0,5.0;" x1="63" x2="63" y1="117.2813" y2="1075.3672"/><line style="stroke:#181818;stroke-width:0.5;stroke-dasharray:5.0,5.0;" x1="506.5" x2="506.5" y1="117.2813" y2="1075.3672"/><text fill="#000000" font-family="sans-serif" font-size="14" lengthAdjust="spacing" textLength="41" x="40" y="114.3145">Owner</text><ellipse cx="63.5" cy="50.1406" fill="#E3E3E3" rx="8" ry="8" style="stroke:#181818;stroke-width:0.5;"/><path d="M63.5,58.1406 L63.5,85.1406 M50.5,66.1406 L76.5,66.1406 M63.5,85.1406 L50.5,100.1406 M63.5,85.1406 L76.5,100.1406 " fill="none" style="stroke:#181818;stroke-width:0.5;"/><text fill="#000000" font-family="sans-serif" font-size="14" lengthAdjust="spacing" textLength="41" x="40" y="1087.041">Owner</text><ellipse cx="63.5" cy="1098.5078" fill="#E3E3E3" rx="8" ry="8" style="stroke:#181818;stroke-width:0.5;"/><path d="M63.5,1106.5078 L63.5,1133.5078 M50.5,1114.5078 L76.5,1114.5078 M63.5,1133.5078 L50.5,1148.5078 M63.5,1133.5078 L76.5,1148.5078 " fill="none" style="stroke:#181818;stroke-width:0.5;"/><rect fill="#E3E3E3" height="29.6406" rx="2.5" ry="2.5" style="stroke:#181818;stroke-width:0.5;" width="64" x="474.5" y="86.6406"/><text fill="#000000" font-family="sans-serif" font-size="14" lengthAdjust="spacing" textLength="50" x="481.5" y="106.3145">:System</text><rect fill="#E3E3E3" height="29.6406" rx="2.5" ry="2.5" style="stroke:#181818;stroke-width:0.5;" width="64" x="474.5" y="1074.3672"/><text fill="#000000" font-family="sans-serif" font-size="14" lengthAdjust="spacing" textLength="50" x="481.5" y="1094.041">:System</text><rect fill="#FFFFFF" height="939.0859" style="stroke:#181818;stroke-width:1.0;" width="10" x="58.5" y="127.2813"/><rect fill="#FFFFFF" height="28.5234" style="stroke:#181818;stroke-width:1.0;" width="10" x="501.5" y="147.8047"/><rect fill="#FFFFFF" height="28.5234" style="stroke:#181818;stroke-width:1.0;" width="10" x="501.5" y="204.8516"/><rect fill="#FFFFFF" height="28.5234" style="stroke:#181818;stroke-width:1.0;" width="10" x="501.5" y="261.8984"/><rect fill="#FFFFFF" height="192.1875" style="stroke:#181818;stroke-width:1.0;" width="10" x="501.5" y="371.5156"/><rect fill="#FFFFFF" height="28.5234" style="stroke:#181818;stroke-width:1.0;" width="10" x="501.5" y="592.2266"/><rect fill="#FFFFFF" height="28.5234" style="stroke:#181818;stroke-width:1.0;" width="10" x="501.5" y="649.2734"/><rect fill="#FFFFFF" height="49.5234" style="stroke:#181818;stroke-width:1.0;" width="10" x="501.5" y="706.3203"/><rect fill="#FFFFFF" height="80.5703" style="stroke:#181818;stroke-width:1.0;" width="10" x="501.5" y="784.3672"/><rect fill="#FFFFFF" height="42.8125" style="stroke:#181818;stroke-width:1.0;" width="10" x="501.5" y="893.4609"/><rect fill="#FFFFFF" height="35.5234" style="stroke:#181818;stroke-width:1.0;" width="10" x="501.5" y="964.7969"/><rect fill="#FFFFFF" height="28.5234" style="stroke:#181818;stroke-width:1.0;" width="10" x="501.5" y="1028.8438"/><polygon fill="#181818" points="489.5,143.8047,499.5,147.8047,489.5,151.8047,493.5,147.8047" style="stroke:#181818;stroke-width:1.0;"/><line style="stroke:#181818;stroke-width:1.0;" x1="68.5" x2="495.5" y1="147.8047" y2="147.8047"/><text fill="#000000" font-family="sans-serif" font-size="13" font-weight="bold" lengthAdjust="spacing" textLength="7" x="75.5" y="143.0498">1</text><text fill="#000000" font-family="sans-serif" font-size="13" lengthAdjust="spacing" textLength="168" x="86.5" y="143.0498">asks to create a new request</text><polygon fill="#181818" points="79.5,172.3281,69.5,176.3281,79.5,180.3281,75.5,176.3281" style="stroke:#181818;stroke-width:1.0;"/><line style="stroke:#181818;stroke-width:1.0;stroke-dasharray:2.0,2.0;" x1="73.5" x2="505.5" y1="176.3281" y2="176.3281"/><text fill="#000000" font-family="sans-serif" font-size="13" font-weight="bold" lengthAdjust="spacing" textLength="7" x="85.5" y="171.5732">2</text><text fill="#000000" font-family="sans-serif" font-size="13" lengthAdjust="spacing" textLength="148" x="96.5" y="171.5732">shows type of request list</text><polygon fill="#181818" points="489.5,200.8516,499.5,204.8516,489.5,208.8516,493.5,204.8516" style="stroke:#181818;stroke-width:1.0;"/><line style="stroke:#181818;stroke-width:1.0;" x1="68.5" x2="495.5" y1="204.8516" y2="204.8516"/><text fill="#000000" font-family="sans-serif" font-size="13" font-weight="bold" lengthAdjust="spacing" textLength="7" x="75.5" y="200.0967">3</text><text fill="#000000" font-family="sans-serif" font-size="13" lengthAdjust="spacing" textLength="132" x="86.5" y="200.0967">selects type of request</text><polygon fill="#181818" points="79.5,229.375,69.5,233.375,79.5,237.375,75.5,233.375" style="stroke:#181818;stroke-width:1.0;"/><line style="stroke:#181818;stroke-width:1.0;stroke-dasharray:2.0,2.0;" x1="73.5" x2="505.5" y1="233.375" y2="233.375"/><text fill="#000000" font-family="sans-serif" font-size="13" font-weight="bold" lengthAdjust="spacing" textLength="7" x="85.5" y="228.6201">4</text><text fill="#000000" font-family="sans-serif" font-size="13" lengthAdjust="spacing" textLength="152" x="96.5" y="228.6201">shows type of property list</text><polygon fill="#181818" points="489.5,257.8984,499.5,261.8984,489.5,265.8984,493.5,261.8984" style="stroke:#181818;stroke-width:1.0;"/><line style="stroke:#181818;stroke-width:1.0;" x1="68.5" x2="495.5" y1="261.8984" y2="261.8984"/><text fill="#000000" font-family="sans-serif" font-size="13" font-weight="bold" lengthAdjust="spacing" textLength="7" x="75.5" y="257.1436">5</text><text fill="#000000" font-family="sans-serif" font-size="13" lengthAdjust="spacing" textLength="136" x="86.5" y="257.1436">selects type of property</text><polygon fill="#181818" points="79.5,286.4219,69.5,290.4219,79.5,294.4219,75.5,290.4219" style="stroke:#181818;stroke-width:1.0;"/><line style="stroke:#181818;stroke-width:1.0;stroke-dasharray:2.0,2.0;" x1="73.5" x2="505.5" y1="290.4219" y2="290.4219"/><text fill="#000000" font-family="sans-serif" font-size="13" font-weight="bold" lengthAdjust="spacing" textLength="7" x="85.5" y="285.667">6</text><text fill="#000000" font-family="sans-serif" font-size="13" lengthAdjust="spacing" textLength="72" x="96.5" y="285.667">request data</text><path d="M10,305.4219 L75,305.4219 L75,311.9453 L65,321.9453 L10,321.9453 L10,305.4219 " fill="#EEEEEE" style="stroke:#000000;stroke-width:1.5;"/><rect fill="none" height="422.8984" style="stroke:#000000;stroke-width:1.5;" width="558.5" x="10" y="305.4219"/><text fill="#000000" font-family="sans-serif" font-size="13" font-weight="bold" lengthAdjust="spacing" textLength="20" x="25" y="318.1904">opt</text><text fill="#000000" font-family="sans-serif" font-size="11" font-weight="bold" lengthAdjust="spacing" textLength="218" x="90" y="317.3799">[Property (land or house or apartment)]</text><polygon fill="#181818" points="489.5,367.5156,499.5,371.5156,489.5,375.5156,493.5,371.5156" style="stroke:#181818;stroke-width:1.0;"/><line style="stroke:#181818;stroke-width:1.0;" x1="68.5" x2="495.5" y1="371.5156" y2="371.5156"/><text fill="#000000" font-family="sans-serif" font-size="13" font-weight="bold" lengthAdjust="spacing" textLength="7" x="75.5" y="352.2373">7</text><text fill="#000000" font-family="sans-serif" font-size="13" lengthAdjust="spacing" textLength="162" x="86.5" y="337.7139">the area in m2, the location,</text><text fill="#000000" font-family="sans-serif" font-size="13" lengthAdjust="spacing" textLength="213" x="86.5" y="352.2373">the distance from the city centre, the</text><text fill="#000000" font-family="sans-serif" font-size="13" lengthAdjust="spacing" textLength="262" x="86.5" y="366.7607">requested price and one or more photographs</text><path d="M30,386.5156 L103,386.5156 L103,393.0391 L93,403.0391 L30,403.0391 L30,386.5156 " fill="#EEEEEE" style="stroke:#000000;stroke-width:1.5;"/><rect fill="none" height="45.0469" style="stroke:#000000;stroke-width:1.5;" width="518.5" x="30" y="386.5156"/><text fill="#000000" font-family="sans-serif" font-size="13" font-weight="bold" lengthAdjust="spacing" textLength="28" x="45" y="399.2842">loop</text><text fill="#000000" font-family="sans-serif" font-size="11" font-weight="bold" lengthAdjust="spacing" textLength="47" x="118" y="398.4736">[photos]</text><polygon fill="#181818" points="489.5,419.5625,499.5,423.5625,489.5,427.5625,493.5,423.5625" style="stroke:#181818;stroke-width:1.0;"/><line style="stroke:#181818;stroke-width:1.0;" x1="68.5" x2="495.5" y1="423.5625" y2="423.5625"/><text fill="#000000" font-family="sans-serif" font-size="13" font-weight="bold" lengthAdjust="spacing" textLength="7" x="75.5" y="418.8076">8</text><text fill="#000000" font-family="sans-serif" font-size="13" lengthAdjust="spacing" textLength="313" x="86.5" y="418.8076">add photos to the list(more than one and less than 30)</text><path d="M20,445.5625 L85,445.5625 L85,452.0859 L75,462.0859 L20,462.0859 L20,445.5625 " fill="#EEEEEE" style="stroke:#000000;stroke-width:1.5;"/><rect fill="none" height="275.7578" style="stroke:#000000;stroke-width:1.5;" width="538.5" x="20" y="445.5625"/><text fill="#000000" font-family="sans-serif" font-size="13" font-weight="bold" lengthAdjust="spacing" textLength="20" x="35" y="458.3311">opt</text><text fill="#000000" font-family="sans-serif" font-size="11" font-weight="bold" lengthAdjust="spacing" textLength="118" x="100" y="457.5205">[House or apartment]</text><polygon fill="#181818" points="489.5,507.6563,499.5,511.6563,489.5,515.6563,493.5,511.6563" style="stroke:#181818;stroke-width:1.0;"/><line style="stroke:#181818;stroke-width:1.0;" x1="68.5" x2="495.5" y1="511.6563" y2="511.6563"/><text fill="#000000" font-family="sans-serif" font-size="13" font-weight="bold" lengthAdjust="spacing" textLength="7" x="75.5" y="492.3779">9</text><text fill="#000000" font-family="sans-serif" font-size="13" lengthAdjust="spacing" textLength="394" x="86.5" y="477.8545">types of data (numbers of bedrooms, bathrooms and parking spaces</text><text fill="#000000" font-family="sans-serif" font-size="13" lengthAdjust="spacing" textLength="268" x="90.5" y="492.3779">and the avaiable equipment) and the existence</text><text fill="#000000" font-family="sans-serif" font-size="13" lengthAdjust="spacing" textLength="241" x="90.5" y="506.9014">of a central heating and/or air conditioning</text><path d="M30,526.6563 L95,526.6563 L95,533.1797 L85,543.1797 L30,543.1797 L30,526.6563 " fill="#EEEEEE" style="stroke:#000000;stroke-width:1.5;"/><rect fill="none" height="187.6641" style="stroke:#000000;stroke-width:1.5;" width="518.5" x="30" y="526.6563"/><text fill="#000000" font-family="sans-serif" font-size="13" font-weight="bold" lengthAdjust="spacing" textLength="20" x="45" y="539.4248">opt</text><text fill="#000000" font-family="sans-serif" font-size="11" font-weight="bold" lengthAdjust="spacing" textLength="69" x="110" y="538.6143">[only house]</text><polygon fill="#181818" points="79.5,559.7031,69.5,563.7031,79.5,567.7031,75.5,563.7031" style="stroke:#181818;stroke-width:1.0;"/><line style="stroke:#181818;stroke-width:1.0;stroke-dasharray:2.0,2.0;" x1="73.5" x2="505.5" y1="563.7031" y2="563.7031"/><text fill="#000000" font-family="sans-serif" font-size="13" font-weight="bold" lengthAdjust="spacing" textLength="14" x="85.5" y="558.9482">10</text><text fill="#000000" font-family="sans-serif" font-size="13" lengthAdjust="spacing" textLength="144" x="103.5" y="558.9482">shows basement options</text><polygon fill="#181818" points="489.5,588.2266,499.5,592.2266,489.5,596.2266,493.5,592.2266" style="stroke:#181818;stroke-width:1.0;"/><line style="stroke:#181818;stroke-width:1.0;" x1="68.5" x2="495.5" y1="592.2266" y2="592.2266"/><text fill="#000000" font-family="sans-serif" font-size="13" font-weight="bold" lengthAdjust="spacing" textLength="14" x="75.5" y="587.4717">11</text><text fill="#000000" font-family="sans-serif" font-size="13" lengthAdjust="spacing" textLength="81" x="93.5" y="587.4717">selects option</text><polygon fill="#181818" points="79.5,616.75,69.5,620.75,79.5,624.75,75.5,620.75" style="stroke:#181818;stroke-width:1.0;"/><line style="stroke:#181818;stroke-width:1.0;stroke-dasharray:2.0,2.0;" x1="73.5" x2="505.5" y1="620.75" y2="620.75"/><text fill="#000000" font-family="sans-serif" font-size="13" font-weight="bold" lengthAdjust="spacing" textLength="14" x="85.5" y="615.9951">12</text><text fill="#000000" font-family="sans-serif" font-size="13" lengthAdjust="spacing" textLength="170" x="103.5" y="615.9951">shows inhabitable loft options</text><polygon fill="#181818" points="489.5,645.2734,499.5,649.2734,489.5,653.2734,493.5,649.2734" style="stroke:#181818;stroke-width:1.0;"/><line style="stroke:#181818;stroke-width:1.0;" x1="68.5" x2="495.5" y1="649.2734" y2="649.2734"/><text fill="#000000" font-family="sans-serif" font-size="13" font-weight="bold" lengthAdjust="spacing" textLength="14" x="75.5" y="644.5186">13</text><text fill="#000000" font-family="sans-serif" font-size="13" lengthAdjust="spacing" textLength="81" x="93.5" y="644.5186">selects option</text><polygon fill="#181818" points="79.5,673.7969,69.5,677.7969,79.5,681.7969,75.5,677.7969" style="stroke:#181818;stroke-width:1.0;"/><line style="stroke:#181818;stroke-width:1.0;stroke-dasharray:2.0,2.0;" x1="73.5" x2="505.5" y1="677.7969" y2="677.7969"/><text fill="#000000" font-family="sans-serif" font-size="13" font-weight="bold" lengthAdjust="spacing" textLength="14" x="85.5" y="673.042">14</text><text fill="#000000" font-family="sans-serif" font-size="13" lengthAdjust="spacing" textLength="140" x="103.5" y="673.042">shows sun exposure list</text><polygon fill="#181818" points="489.5,702.3203,499.5,706.3203,489.5,710.3203,493.5,706.3203" style="stroke:#181818;stroke-width:1.0;"/><line style="stroke:#181818;stroke-width:1.0;" x1="68.5" x2="495.5" y1="706.3203" y2="706.3203"/><text fill="#000000" font-family="sans-serif" font-size="13" font-weight="bold" lengthAdjust="spacing" textLength="14" x="75.5" y="701.5654">15</text><text fill="#000000" font-family="sans-serif" font-size="13" lengthAdjust="spacing" textLength="81" x="93.5" y="701.5654">selects option</text><polygon fill="#181818" points="79.5,751.8438,69.5,755.8438,79.5,759.8438,75.5,755.8438" style="stroke:#181818;stroke-width:1.0;"/><line style="stroke:#181818;stroke-width:1.0;stroke-dasharray:2.0,2.0;" x1="73.5" x2="505.5" y1="755.8438" y2="755.8438"/><text fill="#000000" font-family="sans-serif" font-size="13" font-weight="bold" lengthAdjust="spacing" textLength="14" x="85.5" y="751.0889">16</text><text fill="#000000" font-family="sans-serif" font-size="13" lengthAdjust="spacing" textLength="94" x="103.5" y="751.0889">shows agent list</text><polygon fill="#181818" points="489.5,780.3672,499.5,784.3672,489.5,788.3672,493.5,784.3672" style="stroke:#181818;stroke-width:1.0;"/><line style="stroke:#181818;stroke-width:1.0;" x1="68.5" x2="495.5" y1="784.3672" y2="784.3672"/><text fill="#000000" font-family="sans-serif" font-size="13" font-weight="bold" lengthAdjust="spacing" textLength="14" x="75.5" y="779.6123">17</text><text fill="#000000" font-family="sans-serif" font-size="13" lengthAdjust="spacing" textLength="78" x="93.5" y="779.6123">selects agent</text><polygon fill="#181818" points="79.5,808.8906,69.5,812.8906,79.5,816.8906,75.5,812.8906" style="stroke:#181818;stroke-width:1.0;"/><line style="stroke:#181818;stroke-width:1.0;stroke-dasharray:2.0,2.0;" x1="73.5" x2="500.5" y1="812.8906" y2="812.8906"/><text fill="#000000" font-family="sans-serif" font-size="13" font-weight="bold" lengthAdjust="spacing" textLength="14" x="85.5" y="808.1357">18</text><text fill="#000000" font-family="sans-serif" font-size="13" lengthAdjust="spacing" textLength="232" x="103.5" y="808.1357">shows all the data related to the request</text><path d="M30,827.8906 L91,827.8906 L91,834.4141 L81,844.4141 L30,844.4141 L30,827.8906 " fill="#EEEEEE" style="stroke:#000000;stroke-width:1.5;"/><rect fill="none" height="144.9063" style="stroke:#000000;stroke-width:1.5;" width="518.5" x="30" y="827.8906"/><text fill="#000000" font-family="sans-serif" font-size="13" font-weight="bold" lengthAdjust="spacing" textLength="16" x="45" y="840.6592">alt</text><text fill="#000000" font-family="sans-serif" font-size="11" font-weight="bold" lengthAdjust="spacing" textLength="91" x="106" y="839.8486">[rent a property]</text><polygon fill="#181818" points="79.5,860.9375,69.5,864.9375,79.5,868.9375,75.5,864.9375" style="stroke:#181818;stroke-width:1.0;"/><line style="stroke:#181818;stroke-width:1.0;stroke-dasharray:2.0,2.0;" x1="73.5" x2="505.5" y1="864.9375" y2="864.9375"/><text fill="#000000" font-family="sans-serif" font-size="13" font-weight="bold" lengthAdjust="spacing" textLength="14" x="85.5" y="860.1826">19</text><text fill="#000000" font-family="sans-serif" font-size="13" lengthAdjust="spacing" textLength="322" x="103.5" y="860.1826">asks for the contract duration and the price (per month))</text><polygon fill="#181818" points="489.5,889.4609,499.5,893.4609,489.5,897.4609,493.5,893.4609" style="stroke:#181818;stroke-width:1.0;"/><line style="stroke:#181818;stroke-width:1.0;" x1="68.5" x2="495.5" y1="893.4609" y2="893.4609"/><text fill="#000000" font-family="sans-serif" font-size="13" font-weight="bold" lengthAdjust="spacing" textLength="14" x="75.5" y="888.7061">20</text><text fill="#000000" font-family="sans-serif" font-size="13" lengthAdjust="spacing" textLength="75" x="93.5" y="888.7061">submits data</text><line style="stroke:#000000;stroke-width:1.0;stroke-dasharray:2.0,2.0;" x1="30" x2="548.5" y1="902.4609" y2="902.4609"/><text fill="#000000" font-family="sans-serif" font-size="11" font-weight="bold" lengthAdjust="spacing" textLength="88" x="35" y="912.4189">[sell a property]</text><polygon fill="#181818" points="79.5,932.2734,69.5,936.2734,79.5,940.2734,75.5,936.2734" style="stroke:#181818;stroke-width:1.0;"/><line style="stroke:#181818;stroke-width:1.0;stroke-dasharray:2.0,2.0;" x1="73.5" x2="505.5" y1="936.2734" y2="936.2734"/><text fill="#000000" font-family="sans-serif" font-size="13" font-weight="bold" lengthAdjust="spacing" textLength="14" x="85.5" y="931.5186">21</text><text fill="#000000" font-family="sans-serif" font-size="13" lengthAdjust="spacing" textLength="129" x="103.5" y="931.5186">asks for property price</text><polygon fill="#181818" points="489.5,960.7969,499.5,964.7969,489.5,968.7969,493.5,964.7969" style="stroke:#181818;stroke-width:1.0;"/><line style="stroke:#181818;stroke-width:1.0;" x1="68.5" x2="495.5" y1="964.7969" y2="964.7969"/><text fill="#000000" font-family="sans-serif" font-size="13" font-weight="bold" lengthAdjust="spacing" textLength="14" x="75.5" y="960.042">22</text><text fill="#000000" font-family="sans-serif" font-size="13" lengthAdjust="spacing" textLength="75" x="93.5" y="960.042">submits data</text><polygon fill="#181818" points="79.5,996.3203,69.5,1000.3203,79.5,1004.3203,75.5,1000.3203" style="stroke:#181818;stroke-width:1.0;"/><line style="stroke:#181818;stroke-width:1.0;stroke-dasharray:2.0,2.0;" x1="73.5" x2="505.5" y1="1000.3203" y2="1000.3203"/><text fill="#000000" font-family="sans-serif" font-size="13" font-weight="bold" lengthAdjust="spacing" textLength="14" x="85.5" y="995.5654">23</text><text fill="#000000" font-family="sans-serif" font-size="13" lengthAdjust="spacing" textLength="127" x="103.5" y="995.5654">shows requested data</text><polygon fill="#181818" points="489.5,1024.8438,499.5,1028.8438,489.5,1032.8438,493.5,1028.8438" style="stroke:#181818;stroke-width:1.0;"/><line style="stroke:#181818;stroke-width:1.0;" x1="68.5" x2="495.5" y1="1028.8438" y2="1028.8438"/><text fill="#000000" font-family="sans-serif" font-size="13" font-weight="bold" lengthAdjust="spacing" textLength="14" x="75.5" y="1024.0889">24</text><text fill="#000000" font-family="sans-serif" font-size="13" lengthAdjust="spacing" textLength="71" x="93.5" y="1024.0889">confirm data</text><polygon fill="#181818" points="79.5,1053.3672,69.5,1057.3672,79.5,1061.3672,75.5,1057.3672" style="stroke:#181818;stroke-width:1.0;"/><line style="stroke:#181818;stroke-width:1.0;stroke-dasharray:2.0,2.0;" x1="73.5" x2="505.5" y1="1057.3672" y2="1057.3672"/><text fill="#000000" font-family="sans-serif" font-size="13" font-weight="bold" lengthAdjust="spacing" textLength="14" x="85.5" y="1052.6123">25</text><text fill="#000000" font-family="sans-serif" font-size="13" lengthAdjust="spacing" textLength="144" x="103.5" y="1052.6123">display operation sucess</text><!--SRC=[jLLDYzim4BtxLmnxIc13ItlRGw6mXTwsaEjUnlOa5f4bLP8tzR_lQ6GxQUDuIq8D1bcUUVCq7q_Xe8n3ZosqrjYgyRObYBwZ8an_75O7tDCszfh0KnNHxFMvGMYmjaTbzh137QWeeefikkr3f1QszBCZKn4yAzmdyzLs-xo63NpLaRp1gDu8NWoxOHUjwTgIFA-hQ3qyl1mD-GV00DzQfsrFL73Cg2hbq4HuUCf1n28lnLMzOQIJIm7yZ5-m-J9IUsAtGu1eeVAKF10C7VcCp3X4yPh0HdGOdW5YmsWJyXEdmXuPi7S4TZS2WLO3MaspUBFK0cdEzGNO_QoSjuvyx3EjktcDSCKjpCOCrHZn6XFh8lmOEQyqcXguDHhR1KeBJ0tHaebh2JRBEJPSMounA0FjfqVvrhRYthFcyTMapvgJWQbDTpm3Ob0fZbSni2VnU3K3Mwhvq8fDXOeH5gtr1AwnqNAFkoPSJuQsrcNBiD2NTJtOfEuKkinl9L5YWqR2fl2QGiWxdp-k1OzCdNFs_I932rLDrGofdAaIiCfZA1ibrTxQDZn2YR6HfKHcq4EQ-S3wmAwlHdObqs-ei6G5u7Gf9wMP_j4lFeV80JimEkOCeuQ69p3XiUM7H5fvgAofLQeHxnVvKDReFjU-UB_ZImoKmWDxCaeON6PwRFYpsF0PPB2SBUqI5sKQB5MKl6YxkvFJtwIMM2rEO2ONEiELSJPqdavgTLKNvadzMvvIUuxlW7QJcl6DP6vKrYbvWd4N2QsbgsLeF6bCsZ0CxAZNWoxgo3lC64-2-MvnylMqusaGFR9fK2eMoywBSar3bTLenQZf6e_DUdt2lapCUTZvXk_ALd5w9b4Udwj8nDV-iEJSwXiFELrCSfu_FF_dASwEaNho2j6nvASxG82Ncc-U5vTnftnxvdx3sARhocdi8MKiDqFeM8O7ERaaz1i0]--></g></svg>