<?xml version="1.0" encoding="us-ascii" standalone="no"?><svg xmlns="http://www.w3.org/2000/svg" xmlns:xlink="http://www.w3.org/1999/xlink" contentStyleType="text/css" height="513px" preserveAspectRatio="none" style="width:1662px;height:513px;background:#FFFFFF;" version="1.1" viewBox="0 0 1662 513" width="1662px" zoomAndPan="magnify"><defs/><g><!--class Owner--><g id="elem_Owner"><rect codeLine="11" fill="#F1F1F1" height="79.2813" id="Owner" rx="2.5" ry="2.5" style="stroke:#181818;stroke-width:0.5;" width="125" x="959" y="256"/><ellipse cx="997.4" cy="272" fill="#ADD1B2" rx="11" ry="11" style="stroke:#181818;stroke-width:1.0;"/><path d="M1000.1656,267.875 Q1000.3219,267.6563 1000.5094,267.5469 Q1000.6969,267.4375 1000.9156,267.4375 Q1001.2906,267.4375 1001.525,267.7031 Q1001.7594,267.9531 1001.7594,268.5625 L1001.7594,270.0156 Q1001.7594,270.625 1001.525,270.8906 Q1001.2906,271.1563 1000.9156,271.1563 Q1000.5719,271.1563 1000.3688,270.9531 Q1000.1656,270.7656 1000.0563,270.25 Q1000.0094,269.8906 999.8219,269.7031 Q999.4938,269.3281 998.8844,269.1094 Q998.275,268.8906 997.65,268.8906 Q996.8844,268.8906 996.2438,269.2188 Q995.6188,269.5469 995.1188,270.2969 Q994.6344,271.0469 994.6344,272.0781 L994.6344,273.1719 Q994.6344,274.4063 995.525,275.2344 Q996.4156,276.0469 998.0094,276.0469 Q998.9469,276.0469 999.6031,275.7969 Q999.9938,275.6406 1000.4156,275.2031 Q1000.6813,274.9375 1000.8219,274.8594 Q1000.9781,274.7813 1001.1813,274.7813 Q1001.5094,274.7813 1001.7594,275.0469 Q1002.025,275.2969 1002.025,275.6406 Q1002.025,275.9844 1001.6813,276.3906 Q1001.1813,276.9688 1000.3844,277.2969 Q999.3063,277.75 998.0094,277.75 Q996.4938,277.75 995.2906,277.125 Q994.3063,276.625 993.6188,275.5625 Q992.9313,274.4844 992.9313,273.2031 L992.9313,272.0469 Q992.9313,270.7188 993.5406,269.5781 Q994.1656,268.4219 995.2594,267.8125 Q996.3531,267.1875 997.5875,267.1875 Q998.3219,267.1875 998.9625,267.3594 Q999.6188,267.5156 1000.1656,267.875 Z " fill="#000000"/><text fill="#000000" font-family="sans-serif" font-size="14" lengthAdjust="spacing" textLength="41" x="1016.6" y="276.8535">Owner</text><line style="stroke:#181818;stroke-width:0.5;" x1="960" x2="1083" y1="288" y2="288"/><text fill="#000000" font-family="sans-serif" font-size="14" lengthAdjust="spacing" textLength="81" x="965" y="304.6738">-String name</text><text fill="#000000" font-family="sans-serif" font-size="14" lengthAdjust="spacing" textLength="113" x="965" y="320.3145">-int phoneNumber</text><line style="stroke:#181818;stroke-width:0.5;" x1="960" x2="1083" y1="327.2813" y2="327.2813"/></g><!--class Property--><g id="elem_Property"><rect codeLine="17" fill="#F1F1F1" height="141.8438" id="Property" rx="2.5" ry="2.5" style="stroke:#181818;stroke-width:0.5;" width="376" x="316.5" y="365"/><ellipse cx="473.25" cy="381" fill="#ADD1B2" rx="11" ry="11" style="stroke:#181818;stroke-width:1.0;"/><path d="M476.0156,376.875 Q476.1719,376.6563 476.3594,376.5469 Q476.5469,376.4375 476.7656,376.4375 Q477.1406,376.4375 477.375,376.7031 Q477.6094,376.9531 477.6094,377.5625 L477.6094,379.0156 Q477.6094,379.625 477.375,379.8906 Q477.1406,380.1563 476.7656,380.1563 Q476.4219,380.1563 476.2188,379.9531 Q476.0156,379.7656 475.9063,379.25 Q475.8594,378.8906 475.6719,378.7031 Q475.3438,378.3281 474.7344,378.1094 Q474.125,377.8906 473.5,377.8906 Q472.7344,377.8906 472.0938,378.2188 Q471.4688,378.5469 470.9688,379.2969 Q470.4844,380.0469 470.4844,381.0781 L470.4844,382.1719 Q470.4844,383.4063 471.375,384.2344 Q472.2656,385.0469 473.8594,385.0469 Q474.7969,385.0469 475.4531,384.7969 Q475.8438,384.6406 476.2656,384.2031 Q476.5313,383.9375 476.6719,383.8594 Q476.8281,383.7813 477.0313,383.7813 Q477.3594,383.7813 477.6094,384.0469 Q477.875,384.2969 477.875,384.6406 Q477.875,384.9844 477.5313,385.3906 Q477.0313,385.9688 476.2344,386.2969 Q475.1563,386.75 473.8594,386.75 Q472.3438,386.75 471.1406,386.125 Q470.1563,385.625 469.4688,384.5625 Q468.7813,383.4844 468.7813,382.2031 L468.7813,381.0469 Q468.7813,379.7188 469.3906,378.5781 Q470.0156,377.4219 471.1094,376.8125 Q472.2031,376.1875 473.4375,376.1875 Q474.1719,376.1875 474.8125,376.3594 Q475.4688,376.5156 476.0156,376.875 Z " fill="#000000"/><text fill="#000000" font-family="sans-serif" font-size="14" lengthAdjust="spacing" textLength="54" x="493.75" y="385.8535">Property</text><line style="stroke:#181818;stroke-width:0.5;" x1="317.5" x2="691.5" y1="397" y2="397"/><text fill="#000000" font-family="sans-serif" font-size="14" lengthAdjust="spacing" textLength="53" x="322.5" y="413.6738">-int area</text><text fill="#000000" font-family="sans-serif" font-size="14" lengthAdjust="spacing" textLength="95" x="322.5" y="429.3145">-String location</text><text fill="#000000" font-family="sans-serif" font-size="14" lengthAdjust="spacing" textLength="224" x="322.5" y="444.9551">-String distanceFromTheCityCentre</text><line style="stroke:#181818;stroke-width:0.5;" x1="317.5" x2="691.5" y1="451.9219" y2="451.9219"/><text fill="#000000" font-family="sans-serif" font-size="14" lengthAdjust="spacing" textLength="364" x="322.5" y="468.5957">+createAddress(streetm zip_code, state, district(opt), city)</text><text fill="#000000" font-family="sans-serif" font-size="14" lengthAdjust="spacing" textLength="95" x="322.5" y="484.2363">+addPhoto(url)</text><text fill="#000000" font-family="sans-serif" font-size="14" lengthAdjust="spacing" textLength="181" x="322.5" y="499.877">+addPhotoList(photography)</text></g><!--class Apartment--><g id="elem_Apartment"><rect codeLine="27" fill="#F1F1F1" height="126.2031" id="Apartment" rx="2.5" ry="2.5" style="stroke:#181818;stroke-width:0.5;" width="203" x="7" y="373"/><ellipse cx="71.75" cy="389" fill="#ADD1B2" rx="11" ry="11" style="stroke:#181818;stroke-width:1.0;"/><path d="M74.5156,384.875 Q74.6719,384.6563 74.8594,384.5469 Q75.0469,384.4375 75.2656,384.4375 Q75.6406,384.4375 75.875,384.7031 Q76.1094,384.9531 76.1094,385.5625 L76.1094,387.0156 Q76.1094,387.625 75.875,387.8906 Q75.6406,388.1563 75.2656,388.1563 Q74.9219,388.1563 74.7188,387.9531 Q74.5156,387.7656 74.4063,387.25 Q74.3594,386.8906 74.1719,386.7031 Q73.8438,386.3281 73.2344,386.1094 Q72.625,385.8906 72,385.8906 Q71.2344,385.8906 70.5938,386.2188 Q69.9688,386.5469 69.4688,387.2969 Q68.9844,388.0469 68.9844,389.0781 L68.9844,390.1719 Q68.9844,391.4063 69.875,392.2344 Q70.7656,393.0469 72.3594,393.0469 Q73.2969,393.0469 73.9531,392.7969 Q74.3438,392.6406 74.7656,392.2031 Q75.0313,391.9375 75.1719,391.8594 Q75.3281,391.7813 75.5313,391.7813 Q75.8594,391.7813 76.1094,392.0469 Q76.375,392.2969 76.375,392.6406 Q76.375,392.9844 76.0313,393.3906 Q75.5313,393.9688 74.7344,394.2969 Q73.6563,394.75 72.3594,394.75 Q70.8438,394.75 69.6406,394.125 Q68.6563,393.625 67.9688,392.5625 Q67.2813,391.4844 67.2813,390.2031 L67.2813,389.0469 Q67.2813,387.7188 67.8906,386.5781 Q68.5156,385.4219 69.6094,384.8125 Q70.7031,384.1875 71.9375,384.1875 Q72.6719,384.1875 73.3125,384.3594 Q73.9688,384.5156 74.5156,384.875 Z " fill="#000000"/><text fill="#000000" font-family="sans-serif" font-size="14" lengthAdjust="spacing" textLength="65" x="92.25" y="393.8535">Apartment</text><line style="stroke:#181818;stroke-width:0.5;" x1="8" x2="209" y1="405" y2="405"/><text fill="#000000" font-family="sans-serif" font-size="14" lengthAdjust="spacing" textLength="151" x="13" y="421.6738">-int numberOfBedrooms</text><text fill="#000000" font-family="sans-serif" font-size="14" lengthAdjust="spacing" textLength="155" x="13" y="437.3145">-int numberOfBathrooms</text><text fill="#000000" font-family="sans-serif" font-size="14" lengthAdjust="spacing" textLength="182" x="13" y="452.9551">-int numberOfParkingSpaces</text><text fill="#000000" font-family="sans-serif" font-size="14" lengthAdjust="spacing" textLength="191" x="13" y="468.5957">-boolean avaliableEquipement</text><line style="stroke:#181818;stroke-width:0.5;" x1="8" x2="209" y1="475.5625" y2="475.5625"/><text fill="#000000" font-family="sans-serif" font-size="14" lengthAdjust="spacing" textLength="170" x="13" y="492.2363">+getAvaliableEquipement()</text></g><!--class House--><g id="elem_House"><rect codeLine="36" fill="#F1F1F1" height="94.9219" id="House" rx="2.5" ry="2.5" style="stroke:#181818;stroke-width:0.5;" width="218" x="799.5" y="388.5"/><ellipse cx="884.25" cy="404.5" fill="#ADD1B2" rx="11" ry="11" style="stroke:#181818;stroke-width:1.0;"/><path d="M887.0156,400.375 Q887.1719,400.1563 887.3594,400.0469 Q887.5469,399.9375 887.7656,399.9375 Q888.1406,399.9375 888.375,400.2031 Q888.6094,400.4531 888.6094,401.0625 L888.6094,402.5156 Q888.6094,403.125 888.375,403.3906 Q888.1406,403.6563 887.7656,403.6563 Q887.4219,403.6563 887.2188,403.4531 Q887.0156,403.2656 886.9063,402.75 Q886.8594,402.3906 886.6719,402.2031 Q886.3438,401.8281 885.7344,401.6094 Q885.125,401.3906 884.5,401.3906 Q883.7344,401.3906 883.0938,401.7188 Q882.4688,402.0469 881.9688,402.7969 Q881.4844,403.5469 881.4844,404.5781 L881.4844,405.6719 Q881.4844,406.9063 882.375,407.7344 Q883.2656,408.5469 884.8594,408.5469 Q885.7969,408.5469 886.4531,408.2969 Q886.8438,408.1406 887.2656,407.7031 Q887.5313,407.4375 887.6719,407.3594 Q887.8281,407.2813 888.0313,407.2813 Q888.3594,407.2813 888.6094,407.5469 Q888.875,407.7969 888.875,408.1406 Q888.875,408.4844 888.5313,408.8906 Q888.0313,409.4688 887.2344,409.7969 Q886.1563,410.25 884.8594,410.25 Q883.3438,410.25 882.1406,409.625 Q881.1563,409.125 880.4688,408.0625 Q879.7813,406.9844 879.7813,405.7031 L879.7813,404.5469 Q879.7813,403.2188 880.3906,402.0781 Q881.0156,400.9219 882.1094,400.3125 Q883.2031,399.6875 884.4375,399.6875 Q885.1719,399.6875 885.8125,399.8594 Q886.4688,400.0156 887.0156,400.375 Z " fill="#000000"/><text fill="#000000" font-family="sans-serif" font-size="14" lengthAdjust="spacing" textLength="40" x="904.75" y="409.3535">House</text><line style="stroke:#181818;stroke-width:0.5;" x1="800.5" x2="1016.5" y1="420.5" y2="420.5"/><text fill="#000000" font-family="sans-serif" font-size="14" lengthAdjust="spacing" textLength="206" x="805.5" y="437.1738">-boolean existenceOfABasement</text><text fill="#000000" font-family="sans-serif" font-size="14" lengthAdjust="spacing" textLength="153" x="805.5" y="452.8145">-boolean inhabitableLoft</text><text fill="#000000" font-family="sans-serif" font-size="14" lengthAdjust="spacing" textLength="136" x="805.5" y="468.4551">-String sunExpousere</text><line style="stroke:#181818;stroke-width:0.5;" x1="800.5" x2="1016.5" y1="475.4219" y2="475.4219"/></g><!--class Repositories--><g id="elem_Repositories"><rect codeLine="42" fill="#F1F1F1" height="79.2813" id="Repositories" rx="2.5" ry="2.5" style="stroke:#181818;stroke-width:0.5;" width="194" x="1019.5" y="7"/><ellipse cx="1072.75" cy="23" fill="#ADD1B2" rx="11" ry="11" style="stroke:#181818;stroke-width:1.0;"/><path d="M1075.5156,18.875 Q1075.6719,18.6563 1075.8594,18.5469 Q1076.0469,18.4375 1076.2656,18.4375 Q1076.6406,18.4375 1076.875,18.7031 Q1077.1094,18.9531 1077.1094,19.5625 L1077.1094,21.0156 Q1077.1094,21.625 1076.875,21.8906 Q1076.6406,22.1563 1076.2656,22.1563 Q1075.9219,22.1563 1075.7188,21.9531 Q1075.5156,21.7656 1075.4063,21.25 Q1075.3594,20.8906 1075.1719,20.7031 Q1074.8438,20.3281 1074.2344,20.1094 Q1073.625,19.8906 1073,19.8906 Q1072.2344,19.8906 1071.5938,20.2188 Q1070.9688,20.5469 1070.4688,21.2969 Q1069.9844,22.0469 1069.9844,23.0781 L1069.9844,24.1719 Q1069.9844,25.4063 1070.875,26.2344 Q1071.7656,27.0469 1073.3594,27.0469 Q1074.2969,27.0469 1074.9531,26.7969 Q1075.3438,26.6406 1075.7656,26.2031 Q1076.0313,25.9375 1076.1719,25.8594 Q1076.3281,25.7813 1076.5313,25.7813 Q1076.8594,25.7813 1077.1094,26.0469 Q1077.375,26.2969 1077.375,26.6406 Q1077.375,26.9844 1077.0313,27.3906 Q1076.5313,27.9688 1075.7344,28.2969 Q1074.6563,28.75 1073.3594,28.75 Q1071.8438,28.75 1070.6406,28.125 Q1069.6563,27.625 1068.9688,26.5625 Q1068.2813,25.4844 1068.2813,24.2031 L1068.2813,23.0469 Q1068.2813,21.7188 1068.8906,20.5781 Q1069.5156,19.4219 1070.6094,18.8125 Q1071.7031,18.1875 1072.9375,18.1875 Q1073.6719,18.1875 1074.3125,18.3594 Q1074.9688,18.5156 1075.5156,18.875 Z " fill="#000000"/><text fill="#000000" font-family="sans-serif" font-size="14" lengthAdjust="spacing" textLength="79" x="1093.25" y="27.8535">Repositories</text><line style="stroke:#181818;stroke-width:0.5;" x1="1020.5" x2="1212.5" y1="39" y2="39"/><line style="stroke:#181818;stroke-width:0.5;" x1="1020.5" x2="1212.5" y1="47" y2="47"/><text fill="#000000" font-family="sans-serif" font-size="14" lengthAdjust="spacing" textLength="94" x="1025.5" y="63.6738">-Repositories()</text><text fill="#000000" font-family="sans-serif" font-size="14" lengthAdjust="spacing" textLength="182" x="1025.5" y="79.3145">+getInstance() : Repositories</text></g><!--class PropertyRepository--><g id="elem_PropertyRepository"><rect codeLine="47" fill="#F1F1F1" height="48" id="PropertyRepository" rx="2.5" ry="2.5" style="stroke:#181818;stroke-width:0.5;" width="154" x="671.5" y="162.5"/><ellipse cx="686.5" cy="178.5" fill="#ADD1B2" rx="11" ry="11" style="stroke:#181818;stroke-width:1.0;"/><path d="M689.2656,174.375 Q689.4219,174.1563 689.6094,174.0469 Q689.7969,173.9375 690.0156,173.9375 Q690.3906,173.9375 690.625,174.2031 Q690.8594,174.4531 690.8594,175.0625 L690.8594,176.5156 Q690.8594,177.125 690.625,177.3906 Q690.3906,177.6563 690.0156,177.6563 Q689.6719,177.6563 689.4688,177.4531 Q689.2656,177.2656 689.1563,176.75 Q689.1094,176.3906 688.9219,176.2031 Q688.5938,175.8281 687.9844,175.6094 Q687.375,175.3906 686.75,175.3906 Q685.9844,175.3906 685.3438,175.7188 Q684.7188,176.0469 684.2188,176.7969 Q683.7344,177.5469 683.7344,178.5781 L683.7344,179.6719 Q683.7344,180.9063 684.625,181.7344 Q685.5156,182.5469 687.1094,182.5469 Q688.0469,182.5469 688.7031,182.2969 Q689.0938,182.1406 689.5156,181.7031 Q689.7813,181.4375 689.9219,181.3594 Q690.0781,181.2813 690.2813,181.2813 Q690.6094,181.2813 690.8594,181.5469 Q691.125,181.7969 691.125,182.1406 Q691.125,182.4844 690.7813,182.8906 Q690.2813,183.4688 689.4844,183.7969 Q688.4063,184.25 687.1094,184.25 Q685.5938,184.25 684.3906,183.625 Q683.4063,183.125 682.7188,182.0625 Q682.0313,180.9844 682.0313,179.7031 L682.0313,178.5469 Q682.0313,177.2188 682.6406,176.0781 Q683.2656,174.9219 684.3594,174.3125 Q685.4531,173.6875 686.6875,173.6875 Q687.4219,173.6875 688.0625,173.8594 Q688.7188,174.0156 689.2656,174.375 Z " fill="#000000"/><text fill="#000000" font-family="sans-serif" font-size="14" lengthAdjust="spacing" textLength="122" x="700.5" y="183.3535">PropertyRepository</text><line style="stroke:#181818;stroke-width:0.5;" x1="672.5" x2="824.5" y1="194.5" y2="194.5"/><line style="stroke:#181818;stroke-width:0.5;" x1="672.5" x2="824.5" y1="202.5" y2="202.5"/></g><!--class OwnerRepository--><g id="elem_OwnerRepository"><rect codeLine="51" fill="#F1F1F1" height="79.2813" id="OwnerRepository" rx="2.5" ry="2.5" style="stroke:#181818;stroke-width:0.5;" width="160" x="941.5" y="147"/><ellipse cx="965.05" cy="163" fill="#ADD1B2" rx="11" ry="11" style="stroke:#181818;stroke-width:1.0;"/><path d="M967.8156,158.875 Q967.9719,158.6563 968.1594,158.5469 Q968.3469,158.4375 968.5656,158.4375 Q968.9406,158.4375 969.175,158.7031 Q969.4094,158.9531 969.4094,159.5625 L969.4094,161.0156 Q969.4094,161.625 969.175,161.8906 Q968.9406,162.1563 968.5656,162.1563 Q968.2219,162.1563 968.0188,161.9531 Q967.8156,161.7656 967.7063,161.25 Q967.6594,160.8906 967.4719,160.7031 Q967.1438,160.3281 966.5344,160.1094 Q965.925,159.8906 965.3,159.8906 Q964.5344,159.8906 963.8938,160.2188 Q963.2688,160.5469 962.7688,161.2969 Q962.2844,162.0469 962.2844,163.0781 L962.2844,164.1719 Q962.2844,165.4063 963.175,166.2344 Q964.0656,167.0469 965.6594,167.0469 Q966.5969,167.0469 967.2531,166.7969 Q967.6438,166.6406 968.0656,166.2031 Q968.3313,165.9375 968.4719,165.8594 Q968.6281,165.7813 968.8313,165.7813 Q969.1594,165.7813 969.4094,166.0469 Q969.675,166.2969 969.675,166.6406 Q969.675,166.9844 969.3313,167.3906 Q968.8313,167.9688 968.0344,168.2969 Q966.9563,168.75 965.6594,168.75 Q964.1438,168.75 962.9406,168.125 Q961.9563,167.625 961.2688,166.5625 Q960.5813,165.4844 960.5813,164.2031 L960.5813,163.0469 Q960.5813,161.7188 961.1906,160.5781 Q961.8156,159.4219 962.9094,158.8125 Q964.0031,158.1875 965.2375,158.1875 Q965.9719,158.1875 966.6125,158.3594 Q967.2688,158.5156 967.8156,158.875 Z " fill="#000000"/><text fill="#000000" font-family="sans-serif" font-size="14" lengthAdjust="spacing" textLength="109" x="980.95" y="167.8535">OwnerRepository</text><line style="stroke:#181818;stroke-width:0.5;" x1="942.5" x2="1100.5" y1="179" y2="179"/><line style="stroke:#181818;stroke-width:0.5;" x1="942.5" x2="1100.5" y1="187" y2="187"/><text fill="#000000" font-family="sans-serif" font-size="14" lengthAdjust="spacing" textLength="95" x="947.5" y="203.6738">getUserName()</text><text fill="#000000" font-family="sans-serif" font-size="14" lengthAdjust="spacing" textLength="148" x="947.5" y="219.3145">getUserPhonenumber()</text></g><!--class ResponseRepository--><g id="elem_ResponseRepository"><rect codeLine="56" fill="#F1F1F1" height="48" id="ResponseRepository" rx="2.5" ry="2.5" style="stroke:#181818;stroke-width:0.5;" width="164" x="1374.5" y="22.5"/><ellipse cx="1389.5" cy="38.5" fill="#ADD1B2" rx="11" ry="11" style="stroke:#181818;stroke-width:1.0;"/><path d="M1392.2656,34.375 Q1392.4219,34.1563 1392.6094,34.0469 Q1392.7969,33.9375 1393.0156,33.9375 Q1393.3906,33.9375 1393.625,34.2031 Q1393.8594,34.4531 1393.8594,35.0625 L1393.8594,36.5156 Q1393.8594,37.125 1393.625,37.3906 Q1393.3906,37.6563 1393.0156,37.6563 Q1392.6719,37.6563 1392.4688,37.4531 Q1392.2656,37.2656 1392.1563,36.75 Q1392.1094,36.3906 1391.9219,36.2031 Q1391.5938,35.8281 1390.9844,35.6094 Q1390.375,35.3906 1389.75,35.3906 Q1388.9844,35.3906 1388.3438,35.7188 Q1387.7188,36.0469 1387.2188,36.7969 Q1386.7344,37.5469 1386.7344,38.5781 L1386.7344,39.6719 Q1386.7344,40.9063 1387.625,41.7344 Q1388.5156,42.5469 1390.1094,42.5469 Q1391.0469,42.5469 1391.7031,42.2969 Q1392.0938,42.1406 1392.5156,41.7031 Q1392.7813,41.4375 1392.9219,41.3594 Q1393.0781,41.2813 1393.2813,41.2813 Q1393.6094,41.2813 1393.8594,41.5469 Q1394.125,41.7969 1394.125,42.1406 Q1394.125,42.4844 1393.7813,42.8906 Q1393.2813,43.4688 1392.4844,43.7969 Q1391.4063,44.25 1390.1094,44.25 Q1388.5938,44.25 1387.3906,43.625 Q1386.4063,43.125 1385.7188,42.0625 Q1385.0313,40.9844 1385.0313,39.7031 L1385.0313,38.5469 Q1385.0313,37.2188 1385.6406,36.0781 Q1386.2656,34.9219 1387.3594,34.3125 Q1388.4531,33.6875 1389.6875,33.6875 Q1390.4219,33.6875 1391.0625,33.8594 Q1391.7188,34.0156 1392.2656,34.375 Z " fill="#000000"/><text fill="#000000" font-family="sans-serif" font-size="14" lengthAdjust="spacing" textLength="132" x="1403.5" y="43.3535">ResponseRepository</text><line style="stroke:#181818;stroke-width:0.5;" x1="1375.5" x2="1537.5" y1="54.5" y2="54.5"/><line style="stroke:#181818;stroke-width:0.5;" x1="1375.5" x2="1537.5" y1="62.5" y2="62.5"/></g><!--class VisitRepository--><g id="elem_VisitRepository"><rect codeLine="59" fill="#F1F1F1" height="48" id="VisitRepository" rx="2.5" ry="2.5" style="stroke:#181818;stroke-width:0.5;" width="126" x="1529.5" y="412"/><ellipse cx="1544.5" cy="428" fill="#ADD1B2" rx="11" ry="11" style="stroke:#181818;stroke-width:1.0;"/><path d="M1547.2656,423.875 Q1547.4219,423.6563 1547.6094,423.5469 Q1547.7969,423.4375 1548.0156,423.4375 Q1548.3906,423.4375 1548.625,423.7031 Q1548.8594,423.9531 1548.8594,424.5625 L1548.8594,426.0156 Q1548.8594,426.625 1548.625,426.8906 Q1548.3906,427.1563 1548.0156,427.1563 Q1547.6719,427.1563 1547.4688,426.9531 Q1547.2656,426.7656 1547.1563,426.25 Q1547.1094,425.8906 1546.9219,425.7031 Q1546.5938,425.3281 1545.9844,425.1094 Q1545.375,424.8906 1544.75,424.8906 Q1543.9844,424.8906 1543.3438,425.2188 Q1542.7188,425.5469 1542.2188,426.2969 Q1541.7344,427.0469 1541.7344,428.0781 L1541.7344,429.1719 Q1541.7344,430.4063 1542.625,431.2344 Q1543.5156,432.0469 1545.1094,432.0469 Q1546.0469,432.0469 1546.7031,431.7969 Q1547.0938,431.6406 1547.5156,431.2031 Q1547.7813,430.9375 1547.9219,430.8594 Q1548.0781,430.7813 1548.2813,430.7813 Q1548.6094,430.7813 1548.8594,431.0469 Q1549.125,431.2969 1549.125,431.6406 Q1549.125,431.9844 1548.7813,432.3906 Q1548.2813,432.9688 1547.4844,433.2969 Q1546.4063,433.75 1545.1094,433.75 Q1543.5938,433.75 1542.3906,433.125 Q1541.4063,432.625 1540.7188,431.5625 Q1540.0313,430.4844 1540.0313,429.2031 L1540.0313,428.0469 Q1540.0313,426.7188 1540.6406,425.5781 Q1541.2656,424.4219 1542.3594,423.8125 Q1543.4531,423.1875 1544.6875,423.1875 Q1545.4219,423.1875 1546.0625,423.3594 Q1546.7188,423.5156 1547.2656,423.875 Z " fill="#000000"/><text fill="#000000" font-family="sans-serif" font-size="14" lengthAdjust="spacing" textLength="94" x="1558.5" y="432.8535">VisitRepository</text><line style="stroke:#181818;stroke-width:0.5;" x1="1530.5" x2="1654.5" y1="444" y2="444"/><line style="stroke:#181818;stroke-width:0.5;" x1="1530.5" x2="1654.5" y1="452" y2="452"/></g><!--class Agent--><g id="elem_Agent"><rect codeLine="62" fill="#F1F1F1" height="79.2813" id="Agent" rx="2.5" ry="2.5" style="stroke:#181818;stroke-width:0.5;" width="143" x="1053" y="396.5"/><ellipse cx="1101.75" cy="412.5" fill="#ADD1B2" rx="11" ry="11" style="stroke:#181818;stroke-width:1.0;"/><path d="M1104.5156,408.375 Q1104.6719,408.1563 1104.8594,408.0469 Q1105.0469,407.9375 1105.2656,407.9375 Q1105.6406,407.9375 1105.875,408.2031 Q1106.1094,408.4531 1106.1094,409.0625 L1106.1094,410.5156 Q1106.1094,411.125 1105.875,411.3906 Q1105.6406,411.6563 1105.2656,411.6563 Q1104.9219,411.6563 1104.7188,411.4531 Q1104.5156,411.2656 1104.4063,410.75 Q1104.3594,410.3906 1104.1719,410.2031 Q1103.8438,409.8281 1103.2344,409.6094 Q1102.625,409.3906 1102,409.3906 Q1101.2344,409.3906 1100.5938,409.7188 Q1099.9688,410.0469 1099.4688,410.7969 Q1098.9844,411.5469 1098.9844,412.5781 L1098.9844,413.6719 Q1098.9844,414.9063 1099.875,415.7344 Q1100.7656,416.5469 1102.3594,416.5469 Q1103.2969,416.5469 1103.9531,416.2969 Q1104.3438,416.1406 1104.7656,415.7031 Q1105.0313,415.4375 1105.1719,415.3594 Q1105.3281,415.2813 1105.5313,415.2813 Q1105.8594,415.2813 1106.1094,415.5469 Q1106.375,415.7969 1106.375,416.1406 Q1106.375,416.4844 1106.0313,416.8906 Q1105.5313,417.4688 1104.7344,417.7969 Q1103.6563,418.25 1102.3594,418.25 Q1100.8438,418.25 1099.6406,417.625 Q1098.6563,417.125 1097.9688,416.0625 Q1097.2813,414.9844 1097.2813,413.7031 L1097.2813,412.5469 Q1097.2813,411.2188 1097.8906,410.0781 Q1098.5156,408.9219 1099.6094,408.3125 Q1100.7031,407.6875 1101.9375,407.6875 Q1102.6719,407.6875 1103.3125,407.8594 Q1103.9688,408.0156 1104.5156,408.375 Z " fill="#000000"/><text fill="#000000" font-family="sans-serif" font-size="14" lengthAdjust="spacing" textLength="37" x="1122.25" y="417.3535">Agent</text><line style="stroke:#181818;stroke-width:0.5;" x1="1054" x2="1195" y1="428.5" y2="428.5"/><text fill="#000000" font-family="sans-serif" font-size="14" lengthAdjust="spacing" textLength="81" x="1059" y="445.1738">-String name</text><text fill="#000000" font-family="sans-serif" font-size="14" lengthAdjust="spacing" textLength="131" x="1059" y="460.8145">-int passport number</text><line style="stroke:#181818;stroke-width:0.5;" x1="1054" x2="1195" y1="467.7813" y2="467.7813"/></g><!--class Visit--><g id="elem_Visit"><rect codeLine="67" fill="#F1F1F1" height="110.5625" id="Visit" rx="2.5" ry="2.5" style="stroke:#181818;stroke-width:0.5;" width="148" x="1346.5" y="380.5"/><ellipse cx="1403.25" cy="396.5" fill="#ADD1B2" rx="11" ry="11" style="stroke:#181818;stroke-width:1.0;"/><path d="M1406.0156,392.375 Q1406.1719,392.1563 1406.3594,392.0469 Q1406.5469,391.9375 1406.7656,391.9375 Q1407.1406,391.9375 1407.375,392.2031 Q1407.6094,392.4531 1407.6094,393.0625 L1407.6094,394.5156 Q1407.6094,395.125 1407.375,395.3906 Q1407.1406,395.6563 1406.7656,395.6563 Q1406.4219,395.6563 1406.2188,395.4531 Q1406.0156,395.2656 1405.9063,394.75 Q1405.8594,394.3906 1405.6719,394.2031 Q1405.3438,393.8281 1404.7344,393.6094 Q1404.125,393.3906 1403.5,393.3906 Q1402.7344,393.3906 1402.0938,393.7188 Q1401.4688,394.0469 1400.9688,394.7969 Q1400.4844,395.5469 1400.4844,396.5781 L1400.4844,397.6719 Q1400.4844,398.9063 1401.375,399.7344 Q1402.2656,400.5469 1403.8594,400.5469 Q1404.7969,400.5469 1405.4531,400.2969 Q1405.8438,400.1406 1406.2656,399.7031 Q1406.5313,399.4375 1406.6719,399.3594 Q1406.8281,399.2813 1407.0313,399.2813 Q1407.3594,399.2813 1407.6094,399.5469 Q1407.875,399.7969 1407.875,400.1406 Q1407.875,400.4844 1407.5313,400.8906 Q1407.0313,401.4688 1406.2344,401.7969 Q1405.1563,402.25 1403.8594,402.25 Q1402.3438,402.25 1401.1406,401.625 Q1400.1563,401.125 1399.4688,400.0625 Q1398.7813,398.9844 1398.7813,397.7031 L1398.7813,396.5469 Q1398.7813,395.2188 1399.3906,394.0781 Q1400.0156,392.9219 1401.1094,392.3125 Q1402.2031,391.6875 1403.4375,391.6875 Q1404.1719,391.6875 1404.8125,391.8594 Q1405.4688,392.0156 1406.0156,392.375 Z " fill="#000000"/><text fill="#000000" font-family="sans-serif" font-size="14" lengthAdjust="spacing" textLength="26" x="1423.75" y="401.3535">Visit</text><line style="stroke:#181818;stroke-width:0.5;" x1="1347.5" x2="1493.5" y1="412.5" y2="412.5"/><text fill="#000000" font-family="sans-serif" font-size="14" lengthAdjust="spacing" textLength="82" x="1352.5" y="429.1738">client's name</text><text fill="#000000" font-family="sans-serif" font-size="14" lengthAdjust="spacing" textLength="136" x="1352.5" y="444.8145">client's phoneNumber</text><text fill="#000000" font-family="sans-serif" font-size="14" lengthAdjust="spacing" textLength="28" x="1352.5" y="460.4551">date</text><text fill="#000000" font-family="sans-serif" font-size="14" lengthAdjust="spacing" textLength="52" x="1352.5" y="476.0957">time slot</text><line style="stroke:#181818;stroke-width:0.5;" x1="1347.5" x2="1493.5" y1="483.0625" y2="483.0625"/></g><!--class Response--><g id="elem_Response"><rect codeLine="74" fill="#F1F1F1" height="63.6406" id="Response" rx="2.5" ry="2.5" style="stroke:#181818;stroke-width:0.5;" width="96" x="1136.5" y="154.5"/><ellipse cx="1151.5" cy="170.5" fill="#ADD1B2" rx="11" ry="11" style="stroke:#181818;stroke-width:1.0;"/><path d="M1154.2656,166.375 Q1154.4219,166.1563 1154.6094,166.0469 Q1154.7969,165.9375 1155.0156,165.9375 Q1155.3906,165.9375 1155.625,166.2031 Q1155.8594,166.4531 1155.8594,167.0625 L1155.8594,168.5156 Q1155.8594,169.125 1155.625,169.3906 Q1155.3906,169.6563 1155.0156,169.6563 Q1154.6719,169.6563 1154.4688,169.4531 Q1154.2656,169.2656 1154.1563,168.75 Q1154.1094,168.3906 1153.9219,168.2031 Q1153.5938,167.8281 1152.9844,167.6094 Q1152.375,167.3906 1151.75,167.3906 Q1150.9844,167.3906 1150.3438,167.7188 Q1149.7188,168.0469 1149.2188,168.7969 Q1148.7344,169.5469 1148.7344,170.5781 L1148.7344,171.6719 Q1148.7344,172.9063 1149.625,173.7344 Q1150.5156,174.5469 1152.1094,174.5469 Q1153.0469,174.5469 1153.7031,174.2969 Q1154.0938,174.1406 1154.5156,173.7031 Q1154.7813,173.4375 1154.9219,173.3594 Q1155.0781,173.2813 1155.2813,173.2813 Q1155.6094,173.2813 1155.8594,173.5469 Q1156.125,173.7969 1156.125,174.1406 Q1156.125,174.4844 1155.7813,174.8906 Q1155.2813,175.4688 1154.4844,175.7969 Q1153.4063,176.25 1152.1094,176.25 Q1150.5938,176.25 1149.3906,175.625 Q1148.4063,175.125 1147.7188,174.0625 Q1147.0313,172.9844 1147.0313,171.7031 L1147.0313,170.5469 Q1147.0313,169.2188 1147.6406,168.0781 Q1148.2656,166.9219 1149.3594,166.3125 Q1150.4531,165.6875 1151.6875,165.6875 Q1152.4219,165.6875 1153.0625,165.8594 Q1153.7188,166.0156 1154.2656,166.375 Z " fill="#000000"/><text fill="#000000" font-family="sans-serif" font-size="14" lengthAdjust="spacing" textLength="64" x="1165.5" y="175.3535">Response</text><line style="stroke:#181818;stroke-width:0.5;" x1="1137.5" x2="1231.5" y1="186.5" y2="186.5"/><text fill="#000000" font-family="sans-serif" font-size="14" lengthAdjust="spacing" textLength="70" x="1142.5" y="203.1738">valid or not</text><line style="stroke:#181818;stroke-width:0.5;" x1="1137.5" x2="1231.5" y1="210.1406" y2="210.1406"/></g><!--link Owner to Property--><g id="link_Owner_Property"><path codeLine="78" d="M958.88,313.28 C894.17,330.61 789.89,358.55 697.53,383.29 " fill="none" id="Owner-to-Property" style="stroke:#181818;stroke-width:1.0;"/><polygon fill="#181818" points="692.59,384.61,702.3162,386.1596,697.4216,383.3235,700.2577,378.4289,692.59,384.61" style="stroke:#181818;stroke-width:1.0;"/><polygon fill="#000000" points="783.3803,341.8355,792.8778,342.3339,791.3569,336.6562,783.3803,341.8355" style="stroke:#000000;stroke-width:1.0;"/><text fill="#000000" font-family="sans-serif" font-size="13" lengthAdjust="spacing" textLength="30" x="797.21" y="345.0486">owns</text><text fill="#000000" font-family="sans-serif" font-size="13" lengthAdjust="spacing" textLength="7" x="943.8216" y="312.3771">1</text><text fill="#000000" font-family="sans-serif" font-size="13" lengthAdjust="spacing" textLength="20" x="700.3279" y="380.111">0..*</text></g><!--link Property to House--><g id="link_Property_House"><path codeLine="79" d="M692.6,436 C727.29,436 762.53,436 794.2,436 " fill="none" id="Property-to-House" style="stroke:#181818;stroke-width:1.0;"/><polygon fill="#181818" points="799.25,436,790.25,432,794.25,436,790.25,440,799.25,436" style="stroke:#181818;stroke-width:1.0;"/><polygon fill="#000000" points="720,425.2617,710.9549,422.3228,710.9549,428.2006,720,425.2617" style="stroke:#000000;stroke-width:1.0;"/><text fill="#000000" font-family="sans-serif" font-size="13" lengthAdjust="spacing" textLength="57" x="724" y="429.7686">can be an</text></g><!--reverse link Apartment to Property--><g id="link_Apartment_Property"><path codeLine="80" d="M215.58,436 C246.69,436 281.63,436 316.17,436 " fill="none" id="Apartment-backto-Property" style="stroke:#181818;stroke-width:1.0;"/><polygon fill="#181818" points="210.22,436,219.22,440,215.22,436,219.22,432,210.22,436" style="stroke:#181818;stroke-width:1.0;"/><polygon fill="#000000" points="227.25,425.2617,236.2951,428.2006,236.2951,422.3228,227.25,425.2617" style="stroke:#000000;stroke-width:1.0;"/><text fill="#000000" font-family="sans-serif" font-size="13" lengthAdjust="spacing" textLength="57" x="241.25" y="429.7686">can be an</text></g><!--link OwnerRepository to Owner--><g id="link_OwnerRepository_Owner"><path codeLine="81" d="M1021.5,226.13 C1021.5,234.16 1021.5,242.68 1021.5,250.87 " fill="none" id="OwnerRepository-to-Owner" style="stroke:#181818;stroke-width:1.0;"/><polygon fill="#181818" points="1021.5,255.93,1025.5,246.93,1021.5,250.93,1017.5,246.93,1021.5,255.93" style="stroke:#181818;stroke-width:1.0;"/><text fill="#000000" font-family="sans-serif" font-size="13" lengthAdjust="spacing" textLength="20" x="999.4527" y="246.0624">0..*</text></g><!--link Repositories to OwnerRepository--><g id="link_Repositories_OwnerRepository"><path codeLine="82" d="M1089.78,86.31 C1077.74,103.8 1063.48,124.51 1051.12,142.48 " fill="none" id="Repositories-to-OwnerRepository" style="stroke:#181818;stroke-width:1.0;"/><polygon fill="#181818" points="1048.02,146.98,1056.427,141.8495,1050.8623,142.8665,1049.8454,137.3018,1048.02,146.98" style="stroke:#181818;stroke-width:1.0;"/></g><!--link Repositories to PropertyRepository--><g id="link_Repositories_PropertyRepository"><path codeLine="83" d="M1019.33,83.94 C954.81,108.13 871.81,139.26 814.8,160.64 " fill="none" id="Repositories-to-PropertyRepository" style="stroke:#181818;stroke-width:1.0;"/><polygon fill="#181818" points="810.05,162.42,819.8815,163.0052,814.7316,160.6644,817.0725,155.5146,810.05,162.42" style="stroke:#181818;stroke-width:1.0;"/></g><!--link PropertyRepository to Property--><g id="link_PropertyRepository_Property"><path codeLine="84" d="M725.55,210.78 C691.95,244.86 627.89,309.84 577.34,361.11 " fill="none" id="PropertyRepository-to-Property" style="stroke:#181818;stroke-width:1.0;"/><polygon fill="#181818" points="573.73,364.78,582.8936,361.1705,577.2369,361.2161,577.1913,355.5594,573.73,364.78" style="stroke:#181818;stroke-width:1.0;"/></g><!--link Owner to Agent--><g id="link_Owner_Agent"><path codeLine="85" d="M1050.19,335.08 C1063.36,352.79 1079.03,373.85 1092.57,392.07 " fill="none" id="Owner-to-Agent" style="stroke:#181818;stroke-width:1.0;"/><polygon fill="#181818" points="1095.61,396.15,1093.4484,386.5413,1092.626,392.138,1087.0293,391.3157,1095.61,396.15" style="stroke:#181818;stroke-width:1.0;"/><polygon fill="#000000" points="968.3636,359.8439,965.3245,350.832,960.6079,354.3395,968.3636,359.8439" style="stroke:#000000;stroke-width:1.0;"/><text fill="#000000" font-family="sans-serif" font-size="13" lengthAdjust="spacing" textLength="96" x="974.38" y="360.3386">send a message</text></g><!--link Agent to Visit--><g id="link_Agent_Visit"><path codeLine="86" d="M1196.15,436 C1239.98,436 1296.1,436 1341.25,436 " fill="none" id="Agent-to-Visit" style="stroke:#181818;stroke-width:1.0;"/><polygon fill="#181818" points="1346.42,436,1337.42,432,1341.42,436,1337.42,440,1346.42,436" style="stroke:#181818;stroke-width:1.0;"/><text fill="#000000" font-family="sans-serif" font-size="13" lengthAdjust="spacing" textLength="114" x="1214.25" y="429.7686">verify the availability</text></g><!--reverse link Visit to VisitRepository--><g id="link_Visit_VisitRepository"><path codeLine="87" d="M1499.85,436 C1510.55,436 1522.57,436 1529.47,436 " fill="none" id="Visit-backto-VisitRepository" style="stroke:#181818;stroke-width:1.0;"/><polygon fill="#181818" points="1494.73,436,1503.73,440,1499.73,436,1503.73,432,1494.73,436" style="stroke:#181818;stroke-width:1.0;"/></g><!--link Repositories to VisitRepository--><g id="link_Repositories_VisitRepository"><path codeLine="88" d="M1173.71,86.23 C1262.78,146.53 1424.5,256 1424.5,256 C1424.5,256 1520.44,358.22 1567.32,408.17 " fill="none" id="Repositories-to-VisitRepository" style="stroke:#181818;stroke-width:1.0;"/><polygon fill="#181818" points="1570.88,411.97,1567.6427,402.6684,1567.4603,408.3223,1561.8064,408.1399,1570.88,411.97" style="stroke:#181818;stroke-width:1.0;"/></g><!--reverse link Response to Agent--><g id="link_Response_Agent"><path codeLine="89" d="M1152.42,222.38 C1136.87,239.29 1121.5,256 1121.5,256 C1121.5,256 1121.5,335 1121.5,335 C1121.5,335 1122.5,368.2 1123.34,396.34 " fill="none" id="Response-backto-Agent" style="stroke:#181818;stroke-width:1.0;"/><polygon fill="#181818" points="1155.95,218.54,1146.9082,222.4445,1152.5604,222.2157,1152.7892,227.8679,1155.95,218.54" style="stroke:#181818;stroke-width:1.0;"/><text fill="#000000" font-family="sans-serif" font-size="13" lengthAdjust="spacing" textLength="297" x="1122.5" y="300.2686">send a success message if the visit request is valid</text><text fill="#000000" font-family="sans-serif" font-size="13" lengthAdjust="spacing" textLength="7" x="1142.8405" y="237.8347">1</text><text fill="#000000" font-family="sans-serif" font-size="13" lengthAdjust="spacing" textLength="7" x="1115.5099" y="385.8188">1</text></g><!--link Response to Owner--><g id="link_Response_Owner"><path codeLine="90" d="M1136.92,218.74 C1120.63,229.43 1102.14,241.56 1084.82,252.94 " fill="none" id="Response-to-Owner" style="stroke:#181818;stroke-width:1.0;"/><polygon fill="#181818" points="1080.44,255.81,1090.1601,254.2228,1084.6221,253.0695,1085.7754,247.5315,1080.44,255.81" style="stroke:#181818;stroke-width:1.0;"/><text fill="#000000" font-family="sans-serif" font-size="13" lengthAdjust="spacing" textLength="7" x="1121.4599" y="237.0808">1</text><text fill="#000000" font-family="sans-serif" font-size="13" lengthAdjust="spacing" textLength="7" x="1084.2337" y="246.0448">1</text></g><!--link Repositories to ResponseRepository--><g id="link_Repositories_ResponseRepository"><path codeLine="91" d="M1213.6,46.5 C1223.4,46.5 1229.83,46.5 1229.83,46.5 C1229.83,46.5 1343.17,46.5 1343.17,46.5 C1343.17,46.5 1354.1,46.5 1369.17,46.5 " fill="none" id="Repositories-to-ResponseRepository" style="stroke:#181818;stroke-width:1.0;"/><polygon fill="#181818" points="1374.44,46.5,1365.44,42.5,1369.44,46.5,1365.44,50.5,1374.44,46.5" style="stroke:#181818;stroke-width:1.0;"/></g><!--link ResponseRepository to Response--><g id="link_ResponseRepository_Response"><path codeLine="92" d="M1410.97,70.6 C1363.12,94.88 1287.9,133.04 1237.43,158.65 " fill="none" id="ResponseRepository-to-Response" style="stroke:#181818;stroke-width:1.0;"/><polygon fill="#181818" points="1232.93,160.93,1242.7663,160.4325,1237.3906,158.6711,1239.152,153.2954,1232.93,160.93" style="stroke:#181818;stroke-width:1.0;"/></g><!--SRC=[TLHDRzim3BthLn2v9DcQehtkK20jEgn0qGRDjkkWs8mjL9PKYMwR5llle_mTEyl1iVd89tuyQXwUbN7Iom8AQsoIUriWa2zHz8YJoRFCS4i7ZU0n8MaoFNG8kKpjcp8PxAKEGqGhWtHm2CxgG_mGynEWzMJ582hHCeGraLUxal0kiMQhFX0kX9Xht1EG1Q-od21LCHrbZH1L33o-6VJmAO1_goqJS4v65bWRb25mkJNuK1OxzEAlQECstZhqT6WY8NfAZxBvR9YqJMHrsf4rLO4xak1txjtF76yK7MxGa4TH-Ns5X8a8rsdgCOH5O0IfW0_b_YGsnJFWSEA_oEDLGWlhQ7a62VCi6mQPfflSabsKNezjznosSF4jyzBb7FEthMhDxQI2SncMPQhQ7_VNc7fhYt0AafJ_3zj8ptFAjYmARF6TjHgb0VagjP8xZRSlfN8OJsvxa26jf-XYaEmFMmRy737YErU7tDp7_VfQXfhos4MPNEuKHU9xkwVZsOJItBwxoCpZw8vwGcU38kiLXbOiHyR5ia_xpjJZNIpXsv5JpzUgfqDPHprQQN88HMec_iL9FR0scyCQooRgisxsi3jF69mr0OSy7VXRiUaaiiwuOKs99tUYtmjsTxo8pQ17v3L3eXNJpKCVtbc6QnM1b2LTlP3Y2oLeIzDQQjAeYfIl032rJxt2iylPwWfc5-VdNsPTVta0ziq4k1ATXPqguJ2Ki1Xs2FmSufezkZqOUOqc0_s95IAETB9YT1GmTPWgGKnDHvvDlJ7BhCume4b1Gi6N1T-wd6ODhAwgIR33AtgrFm3b63TEQPQ_vij2Z6HGrruPfucEV9ipOjVBs8NBMJUbFgDG9hppeSjCxQiSNgkqFBwK60XKg2SgklXcb9Udk-ePcufRJ4rLsgrP_0C0]--></g></svg>