<?xml version="1.0" encoding="UTF-8" standalone="no"?><svg xmlns="http://www.w3.org/2000/svg" xmlns:xlink="http://www.w3.org/1999/xlink" contentStyleType="text/css" height="333px" preserveAspectRatio="none" style="width:3766px;height:333px;background:#FFFFFF;" version="1.1" viewBox="0 0 3766 333" width="3766px" zoomAndPan="magnify"><defs/><g><!--cluster usecases--><g id="cluster_usecases"><rect fill="none" height="320.83" rx="2.5" ry="2.5" style="stroke:#FFFFFF;stroke-width:1.0;" width="3753" x="7" y="7"/><text fill="#000000" font-family="sans-serif" font-size="20" font-weight="bold" lengthAdjust="spacing" textLength="105" x="1831" y="28.3359">Use Cases</text></g><g id="elem_UC13"><ellipse cx="3557.9958" cy="90.7772" fill="#F1F1F1" rx="50.4858" ry="19.9472" style="stroke:#181818;stroke-width:0.5;"/><text fill="#000000" font-family="sans-serif" font-size="20" lengthAdjust="spacing" textLength="54" x="3527.9958" y="97.6951">UC13</text></g><g id="elem_UC12"><ellipse cx="2533.9955" cy="252.1871" fill="#F1F1F1" rx="265.6855" ry="55.5371" style="stroke:#181818;stroke-width:0.5;"/><text fill="#000000" font-family="sans-serif" font-size="20" lengthAdjust="spacing" textLength="500" x="2283.9955" y="257.7457">UC12 - To import information from a legacy system</text></g><!--entity SystemAdministrator--><g id="elem_SystemAdministrator"><ellipse cx="3003" cy="57.5" fill="#F1F1F1" rx="8" ry="8" style="stroke:#181818;stroke-width:0.5;"/><path d="M3003,65.5 L3003,92.5 M2990,73.5 L3016,73.5 M3003,92.5 L2990,107.5 M3003,92.5 L3016,107.5 " fill="none" style="stroke:#181818;stroke-width:0.5;"/><text fill="#000000" font-family="sans-serif" font-size="20" lengthAdjust="spacing" textLength="201" x="2902.5" y="128.3359">SystemAdministrator</text></g><g id="elem_UC11"><ellipse cx="3693.9958" cy="90.7772" fill="#F1F1F1" rx="50.4858" ry="19.9472" style="stroke:#181818;stroke-width:0.5;"/><text fill="#000000" font-family="sans-serif" font-size="20" lengthAdjust="spacing" textLength="54" x="3663.9958" y="97.6951">UC11</text></g><g id="elem_UC10"><ellipse cx="3576.9958" cy="252.1872" fill="#F1F1F1" rx="50.4858" ry="19.9472" style="stroke:#181818;stroke-width:0.5;"/><text fill="#000000" font-family="sans-serif" font-size="20" lengthAdjust="spacing" textLength="54" x="3546.9958" y="259.1051">UC10</text></g><g id="elem_UC9"><ellipse cx="3703.002" cy="252.1925" fill="#F1F1F1" rx="40.762" ry="19.7825" style="stroke:#181818;stroke-width:0.5;"/><text fill="#000000" font-family="sans-serif" font-size="20" lengthAdjust="spacing" textLength="41" x="3679.502" y="259.1105">UC9</text></g><g id="elem_UC8"><ellipse cx="1531.0001" cy="252.188" fill="#F1F1F1" rx="286.1901" ry="59.638" style="stroke:#181818;stroke-width:0.5;"/><text fill="#000000" font-family="sans-serif" font-size="20" lengthAdjust="spacing" textLength="542" x="1260.0001" y="257.7466">UC8 - To select a request and publish an announcement</text></g><!--entity Agent--><g id="elem_Agent"><ellipse cx="1787" cy="57.5" fill="#F1F1F1" rx="8" ry="8" style="stroke:#181818;stroke-width:0.5;"/><path d="M1787,65.5 L1787,92.5 M1774,73.5 L1800,73.5 M1787,92.5 L1774,107.5 M1787,92.5 L1800,107.5 " fill="none" style="stroke:#181818;stroke-width:0.5;"/><text fill="#000000" font-family="sans-serif" font-size="20" lengthAdjust="spacing" textLength="56" x="1759" y="128.3359">Agent</text></g><g id="elem_UC4"><ellipse cx="1059.0006" cy="252.1881" fill="#F1F1F1" rx="150.4406" ry="32.4881" style="stroke:#181818;stroke-width:0.5;"/><text fill="#000000" font-family="sans-serif" font-size="20" lengthAdjust="spacing" textLength="258" x="927.286" y="258.9914">UC4 - To submit a request</text></g><!--entity Owner--><g id="elem_Owner"><ellipse cx="1059" cy="57.5" fill="#F1F1F1" rx="8" ry="8" style="stroke:#181818;stroke-width:0.5;"/><path d="M1059,65.5 L1059,92.5 M1046,73.5 L1072,73.5 M1059,92.5 L1046,107.5 M1059,92.5 L1072,107.5 " fill="none" style="stroke:#181818;stroke-width:0.5;"/><text fill="#000000" font-family="sans-serif" font-size="20" lengthAdjust="spacing" textLength="62" x="1028" y="128.3359">Owner</text></g><g id="elem_UC3"><ellipse cx="3003.0018" cy="252.1884" fill="#F1F1F1" rx="168.3418" ry="36.0684" style="stroke:#181818;stroke-width:0.5;"/><text fill="#000000" font-family="sans-serif" font-size="20" lengthAdjust="spacing" textLength="297" x="2854.5018" y="257.7469">UC3 - To register an employee</text></g><g id="elem_UC5"><ellipse cx="3348.9994" cy="252.1879" fill="#F1F1F1" rx="142.4394" ry="30.8879" style="stroke:#181818;stroke-width:0.5;"/><text fill="#000000" font-family="sans-serif" font-size="20" lengthAdjust="spacing" textLength="240" x="3225.9994" y="259.1058">UC5 - To register a store</text></g><g id="elem_UC2"><ellipse cx="2042.9977" cy="252.1875" fill="#F1F1F1" rx="190.4877" ry="40.4975" style="stroke:#181818;stroke-width:0.5;"/><text fill="#000000" font-family="sans-serif" font-size="20" lengthAdjust="spacing" textLength="344" x="1870.9977" y="257.7461">UC2 - To publish an announcement</text></g><g id="elem_UC1"><ellipse cx="206.0026" cy="252.1865" fill="#F1F1F1" rx="183.3826" ry="39.0765" style="stroke:#181818;stroke-width:0.5;"/><text fill="#000000" font-family="sans-serif" font-size="20" lengthAdjust="spacing" textLength="329" x="41.5026" y="257.7451">UC1 - To display listed properties</text></g><!--entity UnregisteredUser--><g id="elem_UnregisteredUser"><ellipse cx="427" cy="57.5" fill="#F1F1F1" rx="8" ry="8" style="stroke:#181818;stroke-width:0.5;"/><path d="M427,65.5 L427,92.5 M414,73.5 L440,73.5 M427,92.5 L414,107.5 M427,92.5 L440,107.5 " fill="none" style="stroke:#181818;stroke-width:0.5;"/><text fill="#000000" font-family="sans-serif" font-size="20" lengthAdjust="spacing" textLength="166" x="344" y="128.3359">UnregisteredUser</text></g><g id="elem_UC7"><ellipse cx="649.0042" cy="252.1908" fill="#F1F1F1" rx="224.9542" ry="47.3908" style="stroke:#181818;stroke-width:0.5;"/><text fill="#000000" font-family="sans-serif" font-size="20" lengthAdjust="spacing" textLength="416" x="441.0042" y="257.7494">UC7 -  To register a new user in the system</text></g><!--link SystemAdministrator to UC12--><g id="link_SystemAdministrator_UC12"><path d="M2902.1,126.07 C2836.5,148.37 2749.98,177.78 2677.3,202.48 " fill="none" id="SystemAdministrator-to-UC12" style="stroke:#181818;stroke-width:1.0;"/><polygon fill="#181818" points="2672.65,204.41,2682.4573,205.3143,2677.3862,202.8074,2679.8931,197.7364,2672.65,204.41" style="stroke:#181818;stroke-width:1.0;"/></g><!--link Agent to UC8--><g id="link_Agent_UC8"><path d="M1758.63,109.45 C1726.66,129.35 1672.99,162.77 1625.8,192.16 " fill="none" id="Agent-to-UC8" style="stroke:#181818;stroke-width:1.0;"/><polygon fill="#181818" points="1621.96,195.17,1631.7141,193.8068,1626.204,192.5264,1627.4843,187.0164,1621.96,195.17" style="stroke:#181818;stroke-width:1.0;"/></g><!--link Owner to UC4--><g id="link_Owner_UC4"><path d="M1059,132.83 C1059,157.66 1059,189.1 1059,213.34 " fill="none" id="Owner-to-UC4" style="stroke:#181818;stroke-width:1.0;"/><polygon fill="#181818" points="1059,218.33,1063,209.33,1059,213.33,1055,209.33,1059,218.33" style="stroke:#181818;stroke-width:1.0;"/></g><!--link SystemAdministrator to UC3--><g id="link_SystemAdministrator_UC3"><path d="M3003,132.83 C3003,156.47 3003,186.1 3003,209.8 " fill="none" id="SystemAdministrator-to-UC3" style="stroke:#181818;stroke-width:1.0;"/><polygon fill="#181818" points="3003,214.69,3007,205.69,3003,209.69,2999,205.69,3003,214.69" style="stroke:#181818;stroke-width:1.0;"/></g><!--link SystemAdministrator to UC5--><g id="link_SystemAdministrator_UC5"><path d="M3092.55,133.04 C3152.59,160.7 3230.25,196.48 3284.31,221.39 " fill="none" id="SystemAdministrator-to-UC5" style="stroke:#181818;stroke-width:1.0;"/><polygon fill="#181818" points="3288.47,223.76,3281.9598,216.3696,3283.926,221.6738,3278.6219,223.64,3288.47,223.76" style="stroke:#181818;stroke-width:1.0;"/></g><!--link Agent to UC2--><g id="link_Agent_UC2"><path d="M1815.37,109.45 C1854.15,133.59 1924.86,177.63 1977.22,210.23 " fill="none" id="Agent-to-UC2" style="stroke:#181818;stroke-width:1.0;"/><polygon fill="#181818" points="1981.23,213.35,1975.7057,205.1964,1976.986,210.7064,1971.4759,211.9868,1981.23,213.35" style="stroke:#181818;stroke-width:1.0;"/></g><!--link UnregisteredUser to UC1--><g id="link_UnregisteredUser_UC1"><path d="M369.8,133.04 C336.52,157.04 294.76,187.16 261.74,210.99 " fill="none" id="UnregisteredUser-to-UC1" style="stroke:#181818;stroke-width:1.0;"/><polygon fill="#181818" points="257.93,214.45,267.5686,212.4258,261.9841,211.5236,262.8863,205.9391,257.93,214.45" style="stroke:#181818;stroke-width:1.0;"/></g><!--link UnregisteredUser to UC7--><g id="link_UnregisteredUser_UC7"><path d="M484.46,133.04 C514.34,154.49 551.02,180.83 582.16,203.2 " fill="none" id="UnregisteredUser-to-UC7" style="stroke:#181818;stroke-width:1.0;"/><polygon fill="#181818" points="585.72,206.47,580.7439,197.9707,581.6591,203.553,576.0767,204.4681,585.72,206.47" style="stroke:#181818;stroke-width:1.0;"/></g><!--SRC=[ZPF1RgCm48RlVefHBpr52gHHqijAtUpssaEs3-301ApO7jOsIkbgttq7C8IbTBK88Tl__DyCm-0lobRIIQCfks0EEPvbhSCpsN1KxmZfMjpx8GOCMSfAHmOXk1h5JQbaTf457aEZ4HncGTf2uzJhIvdJLTa2pb9x51Fp6FzB05zVoUNe3gJ9mRLK0SLl8Uw32en-zGW7oOzlIXQjz_kRD1Ld4e4g20Gd2e4CvAg5Ah92Z7Iu6zp-3gI7scFMRlgiSST1XsJJwUtYWvJ22duGA5EH2w3icPoHRI8uSrz0WiP2PWtunWSq0oVjECVkx2atoYeVd0paLgilDtsQ9ncioGTfFKZhkVGObSUviE-hzgYv6LoamvyrUbxP7Ahwf9KlUSstfTfcQD26YDftgAU2J_fQztFsGsJN9wCcxEX_wCBRw-LgqK4FkPrEG9iUvB3Wxd0e5uJyRQb1ZB3DQ5jePKHlbj3REHeyEmRizZ-msoLi78P_Tp0TdLqN8ozTuYKzBrU-qh81tHRB7yXHXIweEBOSDdfVxV1AcFDm3yKcI_0TmsTDi7Xj8npFCOGI_nxQtGZvDCzE2E1_ymy0]--></g></svg>